<svg version="1.2" xmlns="http://www.w3.org/2000/svg" viewBox="0 0 64 64" width="64" height="64">
  <path fill-rule="evenodd" fill="#ffffff" d="m54.3 25.9c0 0 0.2 0.1 0.4 0.1 0.1 0.1 0.4 0.2 0.5 0.3 0.2 0.1 0.5 0.4 0.7 0.6 0.2 0.2 0.6 0.5 0.7 0.8 0.2 0.2 0.5 0.6 0.6 0.8 0.1 0.2 0.3 0.5 0.4 0.7 0.1 0.2 0.3 0.7 0.4 1.1 0.2 0.3 0.4 0.9 0.5 1.3 0 0.4 0.2 1 0.3 1.4 0 0.4 0.2 1.2 0.2 1.7 0.1 0.5 0.2 1.4 0.3 1.9 0 0.6 0.2 1.7 0.3 2.5 0 0.7 0.2 2.4 0.3 3.6 0.2 1.3 0.4 3.1 0.4 4 0.1 0.9 0.3 2.3 0.4 3.1 0.1 0.8 0.2 2.2 0.3 3.1 0.1 1.5 0.1 1.9 0.1 4.2 0 2.1 0 2.7-0.1 4.1-0.1 0.9-0.1 1.8-0.2 2q0 0.4 0 0.8h-56.2l-0.1-0.3c0-0.2 0-0.8-0.1-1.4-0.1-0.6-0.2-1.8-0.3-2.8 0-1-0.1-2.3-0.2-2.9 0-0.6-0.1-1.7-0.1-2.4 0-0.8-0.1-2-0.1-2.9 0-0.8 0.1-2.4 0.1-3.4 0-1 0.1-2.4 0.2-3.1 0-0.7 0.1-2 0.2-2.9 0-0.8 0.2-2 0.2-2.5 0.1-0.6 0.2-1.4 0.3-1.8 0-0.4 0.2-1.2 0.3-1.6 0-0.5 0.2-1.2 0.3-1.7 0.1-0.5 0.3-1.2 0.4-1.5 0.1-0.4 0.3-1 0.5-1.5 0.2-0.5 0.4-1 0.5-1.2 0.1-0.3 0.3-0.6 0.4-0.8 0.1-0.2 0.4-0.5 0.6-0.7 0.3-0.3 0.6-0.6 0.7-0.6 0.1-0.1 0.4-0.3 0.6-0.3 0.4-0.2 0.5-0.2 1-0.2 0.6 0 0.7 0 0.9 0.1 0.1 0 0.4 0.1 0.7 0.2 0.3 0 0.5 0.1 1 0.4 0.4 0.1 1 0.5 1.3 0.7 0.4 0.2 1.1 0.6 1.7 0.9 0.5 0.3 1.1 0.6 1.4 0.8 0.2 0.1 0.6 0.4 0.9 0.6 0.2 0.2 0.6 0.5 0.9 0.7 0.2 0.1 0.6 0.4 0.9 0.6 0.3 0.1 0.7 0.3 1 0.4 0.2 0 0.7 0.2 1.1 0.2 0.3 0.1 0.9 0.2 1.3 0.2 0.4 0 1.4 0.1 2.3 0.1 0.9 0 4.2 0 7.3 0 3 0.1 5.9 0 6.4 0 0.7 0 1.2-0.1 1.8-0.2 0.5-0.1 1.2-0.3 1.5-0.4 0.3-0.1 0.9-0.3 1.3-0.4 0.4-0.2 1-0.5 1.2-0.6 0.3-0.2 0.8-0.4 1-0.6 0.2-0.1 0.8-0.6 1.3-1 0.4-0.4 1.4-1.1 2-1.6 0.7-0.5 1.5-1 1.7-1.2 0.3-0.2 0.7-0.5 1-0.6 0.2-0.1 0.7-0.3 1-0.5 0.3-0.1 0.7-0.3 0.8-0.3 0.2 0 0.3-0.1 0.4-0.1 0.1 0 0.2 0 0.2 0zm-35.6 24.4c0-0.2 0-0.5 0-0.7 0-0.1 0 0 0 0.4 0 0.3 0 0.4 0 0.3zm13.7 0c0-0.1 0-0.3 0-0.4 0-0.1-0.1 0-0.1 0.2 0 0.2 0.1 0.3 0.1 0.2z" />
  <path fill-rule="evenodd" fill="currentcolor" d="m54.2 24.4c0.1 0 0.4 0 0.5 0.1 0.2 0 0.5 0.1 0.6 0.2 0.2 0 0.5 0.2 0.7 0.3 0.2 0.2 0.6 0.4 0.8 0.7 0.2 0.2 0.6 0.5 0.8 0.7 0.1 0.2 0.4 0.6 0.6 0.9 0.2 0.2 0.5 0.7 0.6 1 0.2 0.4 0.4 0.9 0.5 1.2 0.2 0.3 0.3 0.9 0.5 1.3 0.1 0.4 0.2 1 0.3 1.3 0.1 0.3 0.2 0.8 0.2 1.2 0.1 0.3 0.2 1.1 0.3 1.8 0.1 0.6 0.2 1.9 0.3 2.9 0.1 1 0.4 3.1 0.5 4.8 0.2 1.7 0.4 3.8 0.5 4.7 0.1 0.8 0.3 2.1 0.3 2.8 0.1 0.7 0.2 1.8 0.2 2.3 0.1 0.6 0.1 1.6 0.2 2.2 0 0.7 0 2.1 0 3.1 0 1.1-0.1 2.5-0.1 3.1 0 0.7-0.1 1.5-0.1 1.9-0.1 0.3-0.1 0.7-0.2 0.8 0 0.1-0.1 0.3-0.2 0.4-0.1 0.1-0.2 0.2-0.3 0.2-0.1 0-0.3 0-0.4 0 0 0-0.1-0.1-0.2-0.1-0.1-0.1-0.2-0.2-0.2-0.3-0.1-0.1-0.1-0.2-0.1-0.6 0.1-0.2 0.1-0.5 0.1-0.7 0-0.2 0.1-0.9 0.1-1.5 0.1-0.7 0.1-1.8 0.1-2.4 0.1-0.9 0.1-1.7 0-2.8 0-0.9-0.1-2.2-0.1-2.9-0.1-0.8-0.2-2.1-0.3-2.9-0.1-0.8-0.2-2.3-0.3-3.3-0.1-1.1-0.3-2.8-0.4-4-0.1-1.1-0.3-2.7-0.4-3.6-0.1-0.9-0.3-2.1-0.3-2.7-0.1-0.6-0.2-1.5-0.3-2-0.1-0.5-0.2-1.3-0.3-1.8-0.1-0.5-0.2-1.1-0.3-1.5-0.1-0.3-0.3-0.9-0.5-1.2-0.1-0.3-0.3-0.8-0.4-1-0.1-0.2-0.3-0.6-0.5-0.8-0.1-0.3-0.4-0.6-0.6-0.8-0.1-0.2-0.4-0.5-0.6-0.7-0.2-0.1-0.5-0.4-0.7-0.5-0.2-0.1-0.5-0.2-0.6-0.3-0.1 0-0.3 0-0.4 0-0.2 0-0.5 0.1-0.7 0.2-0.2 0.1-0.7 0.3-1.1 0.5-0.4 0.1-1 0.5-1.4 0.8-0.4 0.2-1.2 0.8-1.7 1.2-0.6 0.5-1.5 1.2-2 1.6-0.5 0.4-1.1 0.9-1.3 1-0.1 0.1-0.5 0.3-0.9 0.5-0.4 0.2-0.9 0.5-1.3 0.7-0.4 0.1-0.9 0.3-1.2 0.4-0.3 0.1-0.8 0.2-1.2 0.3-0.4 0.1-1 0.2-1.3 0.2-0.5 0.1-1.3 0.1-5.2 0.1-2.8 0.1-6 0-7.8 0-1.6 0-3.3-0.1-3.7-0.1-0.4 0-1-0.1-1.3-0.2-0.4 0-0.9-0.1-1.1-0.2-0.2-0.1-0.6-0.2-0.9-0.3-0.2-0.1-0.6-0.3-0.8-0.5-0.2-0.1-0.8-0.5-1.2-0.8-0.5-0.4-1-0.7-1.2-0.8-0.2-0.2-0.6-0.4-1-0.6-0.3-0.2-1.1-0.6-1.7-1-0.6-0.3-1.3-0.7-1.5-0.8-0.2-0.1-0.5-0.2-0.6-0.2-0.1-0.1-0.3-0.1-0.5-0.2-0.2 0-0.4-0.1-0.5-0.1-0.2-0.1-0.3-0.1-0.8-0.1-0.5 0-0.7 0-1 0.1-0.2 0-0.5 0.2-0.6 0.2q-0.3 0.2-0.8 0.6c-0.2 0.3-0.6 0.7-0.7 0.9-0.2 0.2-0.4 0.6-0.5 0.9-0.1 0.2-0.3 0.7-0.5 1.1-0.1 0.4-0.3 1.1-0.4 1.4-0.1 0.3-0.3 1-0.4 1.4-0.1 0.4-0.2 1.2-0.3 1.8-0.2 0.6-0.3 1.6-0.4 2.3-0.1 0.6-0.2 1.6-0.3 2.2-0.1 0.5-0.2 1.6-0.2 2.3-0.1 0.7-0.1 1.7-0.2 2.2 0 0.6-0.1 1.8-0.1 2.7 0 0.9-0.1 2.6-0.1 3.7 0 1.1 0.1 2.6 0.1 3.3 0 0.6 0.1 1.5 0.1 1.9 0 0.4 0.1 1.6 0.2 2.6 0.1 1 0.2 2.4 0.3 3.1 0 0.7 0.1 1.4 0.1 1.7 0.1 0.3 0 0.5 0 0.8-0.1 0.2-0.1 0.4-0.2 0.5-0.1 0.1-0.2 0.1-0.6 0.1-0.3 0-0.5 0-0.5-0.1 0 0 0-0.4-0.1-0.9 0-0.4-0.1-1.4-0.2-2.1-0.1-0.7-0.2-2-0.3-2.8 0-0.9-0.1-2-0.2-2.6 0-0.6-0.1-1.7-0.1-2.4 0-0.9-0.1-2.3 0-4 0-1.4 0-3.2 0.1-4 0-0.7 0.1-1.9 0.1-2.6 0.1-0.6 0.2-1.7 0.2-2.3 0.1-0.7 0.1-1.5 0.2-1.9 0-0.4 0.1-1 0.2-1.5 0.1-0.5 0.2-1.2 0.3-1.6 0-0.4 0.2-1.1 0.3-1.6 0.1-0.5 0.2-1.3 0.4-1.8 0.1-0.5 0.3-1.3 0.5-1.7 0.1-0.4 0.3-1 0.4-1.3 0.1-0.2 0.3-0.6 0.4-0.9 0.1-0.2 0.4-0.6 0.5-0.8 0.2-0.2 0.5-0.6 0.6-0.8 0.2-0.2 0.5-0.5 0.8-0.6 0.2-0.2 0.5-0.4 0.7-0.5 0.2-0.1 0.6-0.3 0.8-0.3 0.3-0.1 0.7-0.2 1-0.2 0.3 0 0.6 0 1 0.1 0.2 0 0.7 0.1 1 0.2 0.3 0 0.7 0.2 0.9 0.2 0.2 0.1 0.6 0.3 0.8 0.4 0.2 0.1 0.6 0.4 0.9 0.6 0.3 0.1 1.1 0.5 1.7 0.9 0.7 0.3 1.4 0.8 1.7 1 0.3 0.1 0.8 0.5 1.2 0.8 0.4 0.3 0.9 0.6 1.1 0.8 0.2 0.1 0.5 0.3 0.7 0.3 0.1 0.1 0.5 0.2 0.8 0.3 0.3 0 0.9 0.1 1.3 0.2 0.5 0.1 1.4 0.1 3.1 0.1 1.3 0 4.4 0.1 6.8 0.1 2.5 0 5-0.1 5.7-0.1 1 0 1.4 0 2-0.2 0.4 0 1-0.2 1.3-0.2 0.3-0.1 0.8-0.3 1.2-0.4 0.3-0.1 0.9-0.4 1.3-0.6 0.4-0.3 0.8-0.5 1-0.7 0.2-0.1 0.7-0.5 1.1-0.9 0.4-0.3 1.3-1 1.9-1.5 0.7-0.5 1.5-1.1 1.9-1.3 0.3-0.2 1-0.6 1.4-0.8 0.5-0.3 1.1-0.5 1.4-0.6 0.2-0.1 0.6-0.2 0.7-0.2 0.1-0.1 0.3-0.1 0.5-0.1zm-0.5 5.1c0.1 0 0.2 0.1 0.3 0.1 0.2 0.1 0.2 0.1 0.4 0.1 0.1-0.1 0.2-0.1 0.4 0 0 0 0.2 0.1 0.2 0.2 0.1 0.1 0.2 0.2 0.2 0.3 0 0.1 0 0.3 0 0.5-0.1 0.2-0.2 0.7-0.3 1.1-0.1 0.4-0.3 0.9-0.4 1.2-0.1 0.2-0.2 0.5-0.3 0.7-0.1 0.1-0.3 0.3-0.4 0.4q-0.1 0.1-0.4 0.1c-0.2 0-0.3-0.1-0.4-0.2-0.1-0.1-0.2-0.2-0.2-0.4 0-0.1 0-0.3 0.2-0.8h-0.2c-0.2-0.1-0.3-0.1-0.4-0.2-0.1 0-0.2-0.1-0.2-0.2-0.1-0.1-0.1-0.2-0.1-0.3 0-0.1 0-0.3 0.1-0.5 0.1-0.2 0.3-0.6 0.5-1 0.2-0.4 0.4-0.8 0.4-0.9 0.1 0 0.2-0.1 0.3-0.2 0.1 0 0.3 0 0.3 0zm-43.3 0.9c0.1 0 0.2 0.1 0.3 0.2 0.2 0.1 0.3 0.2 0.6 0.9 0.2 0.4 0.5 1 0.7 1.2 0.1 0.2 0.3 0.5 0.4 0.6 0.1 0.2 0.2 0.3 0.2 0.4 0 0.1-0.1 0.2-0.1 0.3-0.1 0.1-0.2 0.2-0.3 0.3q-0.1 0.1-0.4 0.1-0.2 0-0.4-0.2c-0.1-0.1-0.3-0.3-0.4-0.4-0.1-0.2-0.4-0.7-0.6-1.1-0.2-0.4-0.5-0.9-0.5-1.1-0.1-0.2-0.1-0.4-0.1-0.5 0-0.1 0-0.2 0.1-0.3 0-0.1 0.2-0.2 0.2-0.3 0.1 0 0.2-0.1 0.3-0.1zm-1.3 0.6c0.1 0 0.2 0 0.3 0.1 0.1 0.1 0.2 0.2 0.3 0.3 0 0 0.1 0.4 0.2 0.6 0 0.3 0.1 0.8 0.2 1 0.1 0.5 0.1 0.6 0.3 0.8 0.1 0.1 0.2 0.3 0.3 0.4 0 0 0 0.2 0 0.3-0.1 0-0.1 0.2-0.2 0.3-0.1 0.1-0.2 0.2-0.3 0.3q-0.2 0.1-0.4 0.1c-0.1 0-0.2-0.1-0.3-0.1-0.1-0.1-0.3-0.2-0.3-0.3-0.1-0.1-0.2-0.4-0.3-0.7-0.1-0.3-0.2-0.8-0.2-1.2-0.1-0.4-0.2-0.9-0.2-1 0-0.3 0-0.4 0.1-0.5q0.1-0.2 0.2-0.3c0.1-0.1 0.3-0.1 0.3-0.1zm27.7 5.9c0.4 0 0.7 0 0.9 0.1 0.3 0.1 0.6 0.2 0.7 0.3 0.2 0.1 0.4 0.3 0.5 0.5 0.1 0.1 0.2 0.3 0.2 0.4 0.1 0.2 0.1 0.3 0 0.4 0 0.1-0.1 0.2-0.2 0.2 0 0-0.1 0.1-0.2 0.1-0.1 0-0.2-0.1-0.3-0.1-0.1-0.1-0.2-0.2-0.4-0.4-0.2-0.1-0.4-0.3-0.5-0.3-0.1-0.1-0.3-0.1-0.5-0.2-0.2 0-0.5 0-0.7 0-0.2 0-0.3 0.1-0.5 0.2-0.2 0.2-0.2 0.2-0.4 0.2-0.2 0-0.3 0-0.4-0.1-0.1-0.1-0.1-0.3-0.1-0.4 0 0 0-0.2 0.1-0.2 0-0.1 0.1-0.2 0.2-0.3 0.1-0.1 0.2-0.2 0.4-0.3 0.1 0 0.3-0.1 0.4-0.1 0.1 0 0.5-0.1 0.8 0zm-11.6 0.2c0.1 0 0.3 0 0.4 0.1 0.1 0 0.3 0.1 0.3 0.2 0.1 0.1 0.1 0.2 0.1 0.4 0 0.2 0 0.2-0.1 0.3-0.1 0.1-0.2 0.2-0.3 0.2 0 0-0.2-0.1-0.4-0.1-0.2 0-0.3 0-0.5 0.1-0.2 0.1-0.4 0.2-0.5 0.2q-0.1 0.2-0.2 0.4c0 0.1-0.1 0.2-0.2 0.3q-0.1 0.1-0.4 0.1c-0.1 0-0.2 0-0.3 0-0.1-0.1-0.2-0.2-0.2-0.3-0.1-0.2-0.1-0.3 0-0.4 0-0.1 0.1-0.3 0.2-0.4 0.1-0.2 0.3-0.4 0.5-0.5 0.2-0.2 0.5-0.3 0.7-0.4 0.2-0.1 0.4-0.2 0.5-0.2 0.2 0 0.3 0 0.4 0zm12.7 6.3c0.3 0 0.8 0 1 0.1 0.2 0 0.4 0.1 0.6 0.2 0.2 0 0.5 0.2 0.7 0.4 0.2 0.1 0.6 0.4 0.8 0.6 0.2 0.2 0.5 0.6 0.6 0.8 0.1 0.2 0.4 0.6 0.5 1 0.2 0.3 0.4 0.8 0.4 1.1 0.1 0.3 0.2 0.8 0.3 1.1 0.1 0.3 0.1 0.7 0.1 1.4 0 0.6-0.1 1-0.1 1.4-0.1 0.3-0.2 0.7-0.3 1-0.1 0.3-0.2 0.7-0.3 0.9-0.1 0.1-0.3 0.5-0.4 0.6-0.2 0.2-0.4 0.5-0.6 0.7-0.2 0.1-0.5 0.4-0.6 0.5-0.2 0.1-0.5 0.3-0.8 0.4-0.2 0.1-0.6 0.3-0.9 0.3-0.3 0.1-0.5 0.1-1.1 0.1-0.6 0-0.8 0-1.2-0.1-0.2-0.1-0.7-0.3-1-0.5-0.4-0.1-0.8-0.4-0.9-0.5-0.2-0.1-0.5-0.4-0.7-0.6-0.2-0.2-0.4-0.5-0.5-0.7-0.2-0.2-0.4-0.6-0.5-0.9-0.2-0.3-0.4-0.8-0.4-1-0.2-0.5-0.2-0.5-0.2-1.6 0-1.1 0-1.2 0.2-1.6 0-0.3 0.2-0.7 0.3-1 0.1-0.2 0.3-0.6 0.5-0.8 0.1-0.2 0.4-0.6 0.5-0.8 0.2-0.2 0.4-0.4 0.6-0.6 0.2-0.2 0.5-0.5 0.8-0.7 0.3-0.2 0.6-0.5 0.7-0.6 0.1-0.2 0.3-0.3 0.5-0.4 0.1-0.1 0.4-0.2 0.5-0.2 0.1 0 0.5 0 0.9 0zm-14.2 0.3c0.1 0 0.3 0.1 0.4 0.1q0.2 0.1 0.8 0.1c0.3 0.1 0.6 0.1 0.9 0.2 0.2 0 0.5 0.2 0.6 0.2 0.2 0.1 0.5 0.3 0.7 0.5 0.2 0.2 0.6 0.5 0.8 0.7 0.2 0.3 0.5 0.6 0.6 0.8 0.1 0.1 0.3 0.4 0.4 0.6 0.1 0.2 0.3 0.5 0.3 0.7 0.1 0.2 0.2 0.6 0.2 0.8 0.1 0.4 0.1 0.7 0.1 1.7 0 1.2 0 1.3-0.1 1.8-0.1 0.3-0.2 0.6-0.3 0.8-0.1 0.2-0.3 0.5-0.4 0.7-0.1 0.2-0.4 0.5-0.5 0.7-0.2 0.2-0.6 0.5-0.8 0.6-0.3 0.2-0.7 0.5-1 0.6-0.4 0.2-0.7 0.4-1.1 0.4-0.2 0.1-0.7 0.1-0.9 0.2-0.3 0-0.7 0-1-0.1-0.3 0-0.7-0.1-0.8-0.1-0.1 0-0.4-0.1-0.6-0.2-0.1 0-0.5-0.2-0.7-0.4-0.2-0.2-0.6-0.5-0.9-0.8-0.3-0.3-0.6-0.6-0.7-0.8-0.2-0.2-0.4-0.6-0.5-0.8-0.1-0.3-0.3-0.7-0.3-1-0.2-0.5-0.2-0.5-0.2-1.7 0-1.2 0-1.3 0.2-1.7 0-0.3 0.2-0.7 0.3-0.9 0.1-0.2 0.2-0.6 0.4-0.8 0.1-0.1 0.3-0.5 0.5-0.7 0.1-0.2 0.4-0.5 0.6-0.6 0.2-0.2 0.5-0.4 0.8-0.6 0.3-0.2 0.8-0.4 1-0.6 0.3-0.1 0.6-0.3 0.7-0.3 0.1 0 0.3-0.1 0.5-0.1zm32.4 8.6c0.2 0 0.3 0 0.4 0.1 0 0.1 0.1 0.2 0.1 0.3 0 0.1-0.1 0.3-0.1 0.3-0.1 0.1-0.3 0.2-0.4 0.3-0.2 0.1-0.6 0.3-1.1 0.5-0.4 0.1-1.2 0.5-1.7 0.7-0.6 0.3-1.4 0.6-1.8 0.8-0.5 0.2-0.8 0.3-0.9 0.3-0.2 0-0.3 0-0.4-0.1 0-0.1-0.1-0.2-0.1-0.3 0-0.1 0-0.2 0.1-0.3 0-0.1 0.2-0.2 0.9-0.5 0.4-0.3 1.3-0.7 1.8-0.9 0.6-0.3 1.4-0.7 1.7-0.8 0.3-0.1 0.7-0.3 0.9-0.3 0.2-0.1 0.5-0.1 0.6-0.1zm-25 0.6c0.1 0.1 0.4 0.1 0.5 0.2 0.2 0.1 0.4 0.2 0.5 0.3 0.1 0.1 0.2 0.3 0.3 0.5 0.1 0.1 0.2 0.3 0.2 0.5 0 0.3 0 0.4-0.1 0.7-0.1 0.1-0.2 0.3-0.4 0.4-0.1 0.1-0.2 0.2-0.2 0.3-0.1 0-0.1 0-0.1 0.6 0.1 0.4 0.1 1 0.1 2l-0.2 0.2c-0.1 0.1-0.2 0.1-0.4 0.1-0.1 0-0.2 0-0.3 0 0-0.1-0.1-0.2-0.2-0.3 0-0.1-0.1-0.4-0.1-0.7 0-0.4-0.1-0.9-0.1-1.2 0-0.2 0-0.5 0-0.5 0-0.1-0.2-0.2-0.4-0.3-0.2-0.2-0.3-0.3-0.4-0.6-0.2-0.2-0.2-0.3-0.2-0.6 0-0.2 0-0.4 0.1-0.6 0.1-0.1 0.2-0.3 0.3-0.4 0.1-0.2 0.3-0.3 0.4-0.4 0.1-0.1 0.3-0.1 0.3-0.1 0.1-0.1 0.3-0.1 0.4-0.1zm-23 0.1c0.1 0 0.5 0 0.9 0.1 0.4 0.1 1.1 0.2 1.4 0.3 0.4 0.1 1.2 0.3 1.8 0.4 0.6 0.2 1.2 0.3 1.3 0.4 0.2 0 0.3 0.1 0.4 0.2 0.1 0.1 0.1 0.2 0.1 0.3 0 0.2 0 0.3-0.2 0.4 0 0.1-0.2 0.1-0.3 0.1 0 0-0.7-0.1-1.3-0.3-0.7-0.2-1.7-0.4-2.1-0.5-0.5 0-1.1-0.2-1.4-0.2-0.3-0.1-0.6-0.2-0.7-0.2-0.1-0.1-0.3-0.2-0.3-0.3 0 0-0.1-0.2-0.1-0.2 0-0.1 0.1-0.2 0.1-0.3 0-0.1 0.1-0.2 0.2-0.2 0 0 0.2 0 0.2 0zm37 0.9c0.3 0 0.4 0 0.7 0.2 0.2 0.1 0.5 0.3 0.7 0.5q0.3 0.3 0.4 0.6 0.2 0.3 0.2 0.7c0.1 0.3 0 0.3-0.1 0.6 0 0.1-0.2 0.4-0.3 0.5-0.1 0.1-0.3 0.2-0.5 0.4-0.4 0.1-0.4 0.1-0.9 0.1-0.4 0-0.5 0-0.7-0.1-0.1-0.1-0.3-0.2-0.4-0.3-0.1-0.1-0.2-0.3-0.2-0.4-0.1-0.1-0.1-0.3-0.2-0.4 0-0.2 0-0.4 0-0.5 0.1-0.3 0.1-0.3-0.1-0.6q-0.1-0.2-0.1-0.3c0.1-0.1 0.1-0.3 0.2-0.4 0.1-0.1 0.2-0.2 0.3-0.3 0.1-0.1 0.3-0.2 0.4-0.2q0.2-0.1 0.6-0.1zm-27.9 0.5c0.2 0 0.4 0 0.5 0.1 0.2 0.1 0.4 0.2 0.6 0.3 0.2 0.1 0.4 0.3 0.5 0.4 0.1 0.1 0.2 0.3 0.3 0.4 0 0.2 0.1 0.3 0.1 0.6 0 0.3-0.1 0.4-0.1 0.6-0.1 0.1-0.3 0.3-0.4 0.5-0.1 0.1-0.3 0.2-0.4 0.3-0.2 0.1-0.4 0.1-0.6 0.1-0.3 0-0.5 0-0.6-0.1-0.2-0.1-0.4-0.2-0.5-0.4-0.2-0.1-0.3-0.3-0.4-0.4-0.1-0.2-0.2-0.4-0.2-0.6-0.1-0.1-0.1-0.4 0-0.6 0-0.1 0-0.4 0.1-0.5 0.1-0.2 0.2-0.3 0.3-0.4 0.1-0.1 0.2-0.2 0.3-0.3 0.1 0 0.3-0.1 0.5 0zm39.4 0.8c0.3 0 0.4 0 0.5 0.1 0.1 0.1 0.1 0.2 0.1 0.3 0 0.1 0 0.2-0.1 0.3q0 0.1-0.3 0.3c-0.2 0.1-0.5 0.1-0.9 0.2-0.4 0-1.2 0.1-1.8 0.1-0.6 0.1-1.4 0.1-1.6 0.1-0.2 0.1-0.5 0.1-0.6 0.1-0.2 0-0.2 0-0.4-0.2q-0.1-0.1-0.1-0.3c0-0.1 0-0.2 0.1-0.3 0 0 0.1-0.1 0.2-0.1 0.1-0.1 0.3-0.2 0.6-0.2 0.3 0 1-0.1 1.6-0.2 0.6 0 1.4-0.1 1.7-0.2 0.4 0 0.9 0 1 0zm-44.7 0.1c0.6 0 0.7 0 0.9 0.1 0.1 0.1 0.2 0.2 0.2 0.2 0 0.1 0.1 0.2 0.1 0.3 0 0.1-0.1 0.2-0.2 0.3q-0.1 0.1-0.3 0.1c0 0-0.3 0-0.6 0-0.2 0-0.8 0.1-1.1 0.1-0.4 0.1-1.1 0.2-1.6 0.3-0.4 0.1-1 0.2-1.2 0.3-0.3 0-0.4 0-0.5 0-0.1-0.1-0.2-0.2-0.3-0.3 0-0.1 0-0.2 0-0.3 0 0 0-0.2 0.1-0.2 0.1-0.1 0.2-0.2 0.4-0.3 0.1 0 0.5-0.1 0.9-0.2 0.3-0.1 1-0.2 1.5-0.3 0.8-0.1 1.2-0.1 1.7-0.1z" />
  <path fill="#ffffff" d="m37.5 44.7c0.1 0 0.2 0 0.3 0.1 0.1 0.1 0.2 0.1 0.2 0.1 0.1 0 0.3 0 0.4-0.1 0.2 0 0.2 0 0.5 0.1 0.2 0 0.4 0.2 0.6 0.3 0.2 0.1 0.5 0.4 0.7 0.6 0.1 0.2 0.4 0.5 0.5 0.8 0.1 0.2 0.3 0.7 0.5 1.1 0.1 0.3 0.2 0.8 0.3 1 0 0.4 0.1 0.7 0 1.4 0 0.9 0 1-0.1 1.5-0.1 0.4-0.2 0.8-0.3 1-0.1 0.2-0.3 0.5-0.4 0.7-0.2 0.2-0.4 0.4-0.6 0.6-0.2 0.2-0.5 0.4-0.7 0.4-0.1 0.1-0.4 0.2-0.6 0.3-0.2 0.1-0.4 0.1-0.8 0.1q-0.5 0-0.9-0.1c-0.2-0.1-0.7-0.2-1-0.4-0.4-0.2-0.6-0.3-0.9-0.6-0.2-0.2-0.4-0.4-0.5-0.6-0.2-0.2-0.4-0.5-0.5-0.7-0.1-0.2-0.2-0.6-0.3-0.9-0.1-0.2-0.2-0.5-0.2-0.7 0-0.2 0-0.6 0-1 0-0.5 0.1-0.7 0.2-1 0.1-0.3 0.2-0.7 0.4-0.9 0.1-0.2 0.3-0.6 0.5-0.8 0.2-0.3 0.5-0.6 0.8-0.9 0.2-0.2 0.5-0.5 0.7-0.6 0.2-0.2 0.6-0.4 0.8-0.6 0.2-0.1 0.4-0.2 0.4-0.2zm-12.9 0.5c0.2 0.1 0.5 0.1 0.7 0.1 0.1 0.1 0.4 0.2 0.6 0.3 0.2 0.1 0.5 0.3 0.7 0.4 0.1 0.2 0.4 0.5 0.6 0.7 0.2 0.2 0.4 0.5 0.5 0.8 0.1 0.2 0.3 0.7 0.4 0.9 0.1 0.4 0.1 0.7 0.1 1.3 0.1 0.5 0.1 1 0 1.2 0 0.2 0 0.5-0.1 0.7 0 0.1-0.1 0.4-0.2 0.6-0.1 0.2-0.3 0.5-0.5 0.7-0.1 0.2-0.4 0.5-0.6 0.7-0.3 0.1-0.7 0.4-1 0.5-0.3 0.2-0.6 0.3-0.8 0.4-0.2 0-0.6 0-1 0-0.5 0-0.7 0-1-0.1-0.2-0.1-0.5-0.2-0.7-0.2-0.1-0.1-0.4-0.3-0.6-0.4-0.2-0.2-0.4-0.4-0.6-0.6-0.1-0.2-0.3-0.4-0.4-0.6-0.1-0.1-0.2-0.4-0.3-0.6-0.1-0.1-0.2-0.5-0.3-0.7 0-0.2-0.1-0.6-0.1-0.9 0-0.3 0-0.7 0-1 0-0.3 0.1-0.7 0.2-0.9 0-0.1 0.2-0.5 0.2-0.7 0.1-0.2 0.3-0.5 0.4-0.7 0.1-0.1 0.4-0.4 0.6-0.6 0.1-0.2 0.5-0.5 0.7-0.7 0.2-0.1 0.6-0.3 0.8-0.4q0.4-0.1 0.8-0.1c0.3-0.1 0.7-0.1 0.9-0.1zm20.7 9.9c0.1 0.1 0.2 0.2 0.4 0.3 0.1 0.1 0.2 0.3 0.3 0.4 0 0.1 0 0.2 0 0.3-0.1 0-0.2 0.1-0.2 0.2-0.1 0.1-0.3 0.1-0.4 0.1-0.2 0-0.3 0-0.3 0-0.1 0-0.1-0.1-0.2-0.2 0-0.2 0-0.3 0-0.3 0.1-0.1 0.1-0.2 0.2-0.3 0.1-0.1 0.1-0.2 0.1-0.3 0-0.2 0-0.2 0.1-0.2zm-27.9 0.5c0.1 0 0.2 0.2 0.4 0.3 0.1 0.1 0.2 0.2 0.2 0.3 0 0 0 0.1-0.1 0.2 0 0.1-0.1 0.1-0.2 0.2-0.1 0-0.2-0.1-0.3-0.1-0.1-0.1-0.2-0.2-0.2-0.3-0.1-0.1-0.2-0.2-0.2-0.3 0-0.2 0-0.3 0.1-0.3 0.1-0.1 0.1-0.1 0.3 0z" />
  <path fill="currentcolor" d="m37.6 48.2c0.2 0 0.5 0.1 0.6 0.1 0.2 0.1 0.4 0.3 0.5 0.4 0 0.1 0.2 0.3 0.3 0.4 0 0.2 0.1 0.4 0.1 0.5q0 0.2-0.2 0.6c-0.1 0.2-0.3 0.4-0.3 0.5-0.1 0.1-0.2 0.1-0.6 0.1-0.3 0-0.4 0-0.7-0.2-0.2 0-0.4-0.2-0.5-0.3-0.1-0.1-0.3-0.3-0.3-0.4-0.1-0.1-0.1-0.3-0.1-0.4 0-0.1 0-0.4 0-0.5 0.1-0.2 0.2-0.4 0.2-0.4 0.1-0.1 0.2-0.2 0.4-0.3 0.2-0.1 0.3-0.1 0.6-0.1zm-12.9 0.1c0.1 0 0.3 0 0.4 0.1 0.1 0 0.2 0.1 0.4 0.2 0.1 0.1 0.2 0.3 0.3 0.4 0.1 0.2 0.1 0.4 0.1 0.5q0.1 0.3 0 0.5c-0.1 0.2-0.2 0.4-0.3 0.5-0.2 0.2-0.4 0.3-0.5 0.4-0.2 0.1-0.4 0.1-0.6 0.1-0.2 0-0.3 0-0.5-0.2-0.1 0-0.3-0.2-0.4-0.4-0.2-0.3-0.2-0.3-0.3-0.7 0-0.3 0.1-0.4 0.1-0.6 0.1-0.1 0.3-0.3 0.4-0.4 0.2-0.1 0.4-0.2 0.5-0.3 0.1 0 0.2-0.1 0.4-0.1z" />
  <path fill="#ffffff" d="m38 49.4c0.1 0 0.2 0 0.3 0.1 0.1 0 0.2 0.2 0.2 0.3 0.1 0.1 0.1 0.1 0 0.3 0 0-0.1 0.1-0.2 0.2-0.1 0-0.1 0-0.3 0-0.1-0.1-0.2-0.2-0.3-0.2q-0.2-0.2-0.2-0.3c0-0.1 0.1-0.2 0.1-0.3 0 0 0.1-0.1 0.2-0.1 0 0 0.1 0 0.2 0zm-13.3 0.2c0.1 0.1 0.2 0.1 0.3 0.2q0 0.1 0 0.3c0 0.1-0.1 0.2-0.2 0.2 0 0.1-0.2 0.1-0.3 0.1q-0.1 0-0.2-0.1c-0.1-0.1-0.1-0.2-0.1-0.2 0-0.1 0-0.2 0-0.2 0-0.1 0.1-0.2 0.2-0.2 0.2-0.1 0.2-0.1 0.3-0.1z" />
</svg>
