<svg version="1.2" xmlns="http://www.w3.org/2000/svg" viewBox="0 0 225 85" width="225" height="85">
  <path fill-rule="evenodd" fill="currentcolor" d="m3.1 0h3.2l0.1 2.6c0.1 1.5 0.2 3.7 0.3 4.9 0.1 1.2 0.2 2.9 0.4 3.8 0.1 0.8 0.4 2.1 0.7 2.9 0.2 0.8 0.7 2.3 1.1 3.3 0.4 1 1 2.5 1.5 3.4 0.4 0.8 1.2 2.2 1.7 2.9 0.5 0.8 1.3 2 1.9 2.6 0.5 0.7 1.8 2 2.8 3 1.1 1.1 2.4 2.3 3 2.7 0.5 0.5 1.6 1.2 2.2 1.6 0.7 0.4 1.8 1 2.4 1.3 0.6 0.3 1.5 0.7 1.9 0.8 0.5 0.2 1.4 0.3 2 0.3 0.8 0 1.3-0.1 1.8-0.3 0.4-0.2 1.1-0.6 1.5-1 0.5-0.4 1.3-1.2 1.8-1.8 0.4-0.7 1.1-1.8 1.5-2.5 0.3-0.6 0.9-1.9 1.2-2.8 0.3-0.9 0.8-2.5 1-3.5 0.3-1 0.7-2.8 0.9-4 0.2-1.2 0.7-4.1 1-6.5 0.3-2.4 0.9-5.8 1.3-7.5q0.5-2.5 1.3-6.1l3.1-0.1-0.1 0.5c-0.1 0.3-0.5 2.1-0.8 4.1-0.4 2-1 5.4-1.3 7.7-0.3 2.2-0.8 5.3-1 6.8-0.3 1.5-0.6 3.2-0.7 3.9-0.1 0.6-0.5 1.9-0.7 2.9-0.3 1-0.7 2.5-1.1 3.3-0.3 0.8-0.7 2-1 2.6-0.3 0.5-0.9 1.5-1.3 2.1-0.4 0.6-1.1 1.6-1.7 2.2-0.6 0.6-1.6 1.5-2.3 1.9-0.6 0.4-1.6 0.9-2.1 1.1q-1.1 0.3-2.4 0.3c-0.7 0-1.8-0.1-2.4-0.3-0.6-0.1-1.9-0.7-3-1.2-1-0.5-2.5-1.4-3.2-1.9-0.8-0.5-2-1.4-2.7-2-0.7-0.6-2.3-2.2-3.5-3.5-1.4-1.3-2.7-2.9-3.3-3.8-0.6-0.8-1.5-2.2-2-3.1-0.5-0.9-1.2-2.2-1.5-2.9-0.3-0.7-0.9-2.3-1.3-3.5-0.4-1.3-1-3.1-1.2-4.1-0.2-1-0.5-2.5-0.6-3.4 0-0.9-0.2-3-0.3-4.7-0.1-1.7-0.1-3.5-0.1-4zm50.1 0h1.7c0.9 0 1.6 0 1.6 0.1 0 0.1-0.2 1.6-0.5 3.5-0.2 1.8-0.6 5.1-0.7 7.2-0.2 2.2-0.4 5.7-0.5 7.8-0.1 2.5-0.2 6.2-0.1 10 0 3.4 0.2 7.7 0.3 9.6 0.1 1.9 0.4 4.5 0.5 5.8 0.1 1.4 0.4 3.5 0.6 4.7 0.1 1.3 0.5 3.5 0.8 4.9 0.3 1.5 0.9 4.1 1.3 5.9 0.5 1.8 1 3.9 1.3 4.9 0.2 0.9 0.8 2.7 1.2 4 0.5 1.3 1.1 3.1 1.5 4 0.3 0.9 0.8 2.1 1.1 2.7 0.3 0.6 0.8 1.4 1.2 1.8 0.5 0.5 0.8 0.7 1.3 0.8q0.6 0.1 1.6-0.1c0.5-0.2 1.3-0.5 1.8-0.8 0.6-0.2 1.4-0.7 1.8-1.1 0.5-0.3 0.9-0.6 1-0.6 0.1 0 1.7-1.5 3.7-3.4 2-1.9 4.3-4 5.2-4.7 0.9-0.7 2.1-1.5 2.6-1.8 0.6-0.3 1.5-0.6 2.1-0.8 0.5-0.2 1.2-0.4 1.4-0.4 0.2-0.1 3.6-0.2 7.5-0.3 3.9 0 10-0.2 13.5-0.3 3.5-0.1 7.7-0.2 9.2-0.3 1.6-0.1 4.2-0.3 5.9-0.5 1.6-0.1 4.3-0.3 5.8-0.4 1.6-0.1 3.8-0.2 5-0.2 1.2 0 3.2 0.1 4.3 0.2 1.2 0.1 2.7 0.2 3.5 0.4 0.7 0.1 1.6 0.3 1.9 0.5 0.4 0.1 1 0.5 1.4 0.8 0.4 0.2 1.1 0.9 1.6 1.5 0.5 0.6 1.7 2 2.6 3.1 0.9 1.1 2.3 2.9 3.2 3.9 0.8 1 1.8 2.1 2.1 2.3 0.3 0.2 0.9 0.6 1.4 0.8 0.4 0.2 1.3 0.5 1.9 0.7 0.6 0.1 1.3 0.2 1.9 0.1 0.5 0 1.2-0.2 1.6-0.5 0.5-0.2 1.3-0.8 1.9-1.3 0.5-0.6 1.4-1.5 1.8-2 0.4-0.6 1.1-1.6 1.5-2.2 0.3-0.7 0.9-1.9 1.2-2.8 0.3-0.9 0.7-2.7 1-4 0.3-1.3 0.7-4.3 1.1-6.6 0.3-2.4 1-7.2 1.4-10.6 0.4-3.4 1.2-9.3 1.6-13 0.5-3.7 1-7.9 1.1-9.3 0.1-1.5 0.3-4.4 0.4-6.4 0.1-2.1 0.2-6.5 0.3-9.7 0-3.5 0.1-6.4 0.4-7.8l3-0.1-0.2 0.7c-0.1 0.4-0.1 4.4-0.1 9.5 0 5.3-0.1 9.6-0.2 10.9-0.1 1.3-0.3 3.3-0.5 4.7-0.1 1.3-0.4 4.3-0.7 6.7-0.3 2.3-1 7.3-1.4 11.1-0.5 3.7-1.1 8.3-1.4 10.3-0.2 1.9-0.6 4.7-0.8 6.1-0.3 1.4-0.7 3.6-1 5-0.3 1.3-0.7 3-1 3.8-0.3 0.8-0.7 1.8-1 2.3-0.2 0.6-0.7 1.4-1.1 2-0.4 0.6-1.1 1.5-1.7 2.2-0.5 0.6-1.4 1.5-2 2-0.5 0.5-1.3 1-1.6 1.2-0.3 0.3-1 0.6-1.5 0.7-0.6 0.3-1.2 0.4-2.6 0.4-1.5 0-1.9-0.1-3.2-0.5-0.8-0.3-1.9-0.8-2.4-1.1-0.5-0.3-1.2-0.8-1.4-1-0.3-0.2-0.8-0.8-1.2-1.3-0.5-0.4-2.1-2.4-3.6-4.2-1.6-1.9-3.2-3.8-3.6-4.2-0.3-0.5-0.9-0.9-1.3-1.1-0.3-0.1-1.3-0.4-2.2-0.5-0.8-0.1-2.9-0.3-4.6-0.3-1.7-0.1-4.3-0.1-6.2 0-1.7 0.1-4.5 0.3-6.2 0.5-1.7 0.2-4.4 0.4-5.9 0.5-1.5 0.1-5.5 0.2-8.9 0.3-3.4 0.1-9.4 0.2-13.5 0.3-6.4 0.1-7.4 0.2-8.2 0.4-0.5 0.1-1.2 0.5-1.7 0.7-0.5 0.2-1.4 0.9-2.1 1.4-0.6 0.5-2 1.7-2.9 2.6-1 0.9-3.2 3-4.8 4.7-2 1.9-3.3 3-3.6 3.2-0.5 0.1-0.7 0.1-1.1 0-0.4-0.2-0.6-0.1-1.4 0.2-0.6 0.2-1.4 0.5-1.9 0.6-0.5 0.1-1.2 0.1-1.7 0.1-0.4-0.1-1.1-0.3-1.5-0.4-0.6-0.2-1.1-0.5-1.8-1.3-0.8-0.8-1.3-1.4-1.8-2.5-0.4-0.8-1.1-2.3-1.5-3.4-0.4-1-1.1-3-1.5-4.3-0.5-1.4-1-3.1-1.2-3.9-0.2-0.7-0.7-2.7-1.2-4.4-0.4-1.7-1.1-4.6-1.4-6.3-0.3-1.7-0.8-4.2-0.9-5.4-0.2-1.3-0.5-3.4-0.6-4.7-0.1-1.3-0.3-4-0.5-6-0.2-2.8-0.3-5.7-0.3-12.1 0-5.3 0.1-9.3 0.2-11.1 0.1-1.6 0.3-4.1 0.5-5.6 0.1-1.5 0.4-4.1 0.6-5.7 0.2-1.6 0.4-3.2 0.5-3.4zm128.8 0h3.3l0.1 1.1c0 0.7 0.2 3.1 0.3 5.4 0.2 2.3 0.4 5.3 0.5 6.6 0.1 1.2 0.4 3 0.5 3.9 0.2 0.8 0.5 2.1 0.7 2.8 0.3 0.8 0.8 2.2 1.1 3.2 0.4 1 1 2.2 1.2 2.6 0.2 0.5 0.9 1.5 1.4 2.2 0.5 0.7 1.4 1.8 2 2.4 0.6 0.6 1.4 1.2 1.8 1.4 0.5 0.2 1.3 0.5 1.9 0.6 0.7 0.1 2.4 0.2 3.8 0.2 1.9 0 2.9-0.1 3.5-0.3 0.6-0.1 1.4-0.5 1.8-0.8 0.5-0.3 1.4-0.9 1.9-1.4 0.6-0.5 1.4-1.5 1.9-2.2 0.6-0.6 1.4-2.1 1.9-3.1 0.5-1 1.4-3.2 1.9-4.8 0.6-1.5 1.5-4 2-5.5 0.5-1.5 1.2-3.5 1.5-4.5 0.4-0.9 1.1-2.9 1.5-4.4 0.5-1.5 1-2.9 1.2-3.3 0.1-0.3 0.4-0.9 0.7-2l2.4-0.1v0.6c0 0.3-0.1 0.8-0.1 1.2-0.1 0.5-0.6 2.1-1 3.7-0.5 1.6-1.5 5-2.4 7.7-0.9 2.7-2 5.9-2.5 7.3-0.5 1.3-1.1 2.9-1.4 3.6-0.2 0.6-0.7 1.7-1.1 2.4-0.3 0.7-0.9 1.7-1.2 2.3-0.4 0.5-1.1 1.5-1.6 2.1-0.5 0.6-1.5 1.5-2.2 2.1-0.7 0.5-1.8 1.2-2.4 1.5-0.7 0.4-1.7 0.7-2.5 0.9-1.1 0.2-1.9 0.3-4.7 0.2-2.8-0.1-3.6-0.1-4.6-0.4-0.7-0.2-1.6-0.6-2-0.8-0.5-0.2-1.2-0.8-1.7-1.2-0.4-0.4-1.4-1.4-2-2.2-0.7-0.8-1.5-2-1.9-2.7-0.4-0.6-1.1-1.9-1.5-2.8-0.4-0.9-1-2.6-1.4-3.7-0.4-1.1-0.8-2.9-1.1-4-0.2-1.1-0.5-3.1-0.6-4.4-0.1-1.4-0.3-4.2-0.5-6.2-0.1-2-0.2-4.5-0.3-5.4zm-64.5 10c0.6 0 0.9 0.1 1.2 0.3 0.3 0.3 0.5 0.6 0.5 1 0 0.5-0.2 0.7-1.1 1.5l-0.1 4.9 0.7 0.3c0.5 0.1 1.1 0.5 1.4 0.8 0.3 0.2 0.7 0.7 0.8 0.9 0.1 0.3 0.3 1.1 0.3 1.9 0.1 1.1 0.1 1.6-0.1 2.1-0.2 0.4-0.5 0.9-0.8 1.1-0.2 0.3-0.7 0.5-1.1 0.6-0.4 0.1-0.8 0.1-1.3 0-0.6-0.1-1-0.4-1.9-1.3-1-1-1.1-1.2-1.5-2.4-0.3-1.2-0.3-1.4-0.1-2 0.1-0.4 0.5-0.9 1.7-2.1l-0.2-6.9 0.5-0.4c0.3-0.2 0.5-0.3 1.1-0.3zm-28 2.3c0.4 0 1 0.1 1.4 0.3 0.3 0.1 0.8 0.5 1 0.7 0.2 0.3 0.4 0.7 0.5 1 0 0.3 0.1 1 0 1.6 0 0.6-0.2 1.2-0.3 1.3-0.1 0.2-0.5 0.5-0.9 0.7-0.4 0.2-0.9 0.3-1.4 0.3-0.5 0-1.1 0-1.4-0.1-0.3-0.1-0.8-0.4-1.3-0.7-0.4-0.3-0.9-0.7-1.1-1-0.2-0.4-0.4-0.8-0.4-1.2 0-0.3 0.1-0.7 0.3-1 0.1-0.2 0.4-0.6 0.7-0.9 0.2-0.2 0.8-0.6 1.3-0.7 0.4-0.2 1.1-0.3 1.6-0.3zm74.3 1.3c0.2 0 0.6 0.1 1 0.2 0.3 0.1 1.5 0.3 2.6 0.5 1.4 0.3 2.4 0.4 2.9 0.3 0.6-0.1 1 0 1.2 0.1 0.3 0.2 0.4 0.4 0.3 0.8q0 0.4-0.4 0.8c-0.4 0.2-0.7 0.3-1.7 0.3-0.6 0-2.1-0.2-3.2-0.4-1.1-0.3-2.2-0.6-2.5-0.7-0.2-0.1-0.6-0.4-0.8-0.5-0.1-0.2-0.2-0.4-0.3-0.7 0-0.2 0.1-0.5 0.2-0.6 0.2-0.1 0.4-0.1 0.7-0.1zm-13 0.1c0.4 0 1 0.1 1.2 0.2 0.2 0.2 0.6 0.4 0.8 0.6 0.1 0.2 0.4 0.6 0.6 0.9 0.1 0.3 0.2 0.9 0.2 1.3 0 0.5-0.1 1-0.3 1.4-0.2 0.3-0.5 0.8-0.8 0.9-0.3 0.2-0.8 0.3-1.2 0.3-0.4 0-0.8 0-1.1-0.1-0.2-0.1-0.7-0.5-1.1-0.8-0.4-0.4-0.8-1-1-1.3-0.1-0.3-0.3-0.8-0.3-1.1 0-0.3 0.2-0.7 0.3-1 0.2-0.2 0.7-0.6 1.1-0.9 0.6-0.3 1.1-0.4 1.6-0.4zm-14.9 1.3c1.9 0.1 2.3 0.1 3.5 0.5 0.7 0.3 1.8 0.8 2.4 1.2 0.6 0.4 1.4 1.1 1.8 1.5 0.4 0.4 0.9 1.1 1.2 1.5 0.3 0.5 0.8 1.4 1 2.1 0.3 0.6 0.8 2 1.1 3 0.4 0.9 0.7 2.4 0.9 3.2 0.1 1 0.2 2 0.1 3.7 0 1.6-0.1 2.6-0.4 3.5-0.2 0.7-0.5 1.7-0.7 2.2-0.2 0.5-0.7 1.3-1 1.9-0.3 0.5-0.9 1.3-1.2 1.8-0.4 0.5-1.1 1.2-1.5 1.4-0.5 0.3-0.9 0.4-1.4 0.4-0.5 0-1.3 0.2-1.9 0.4-0.6 0.2-1.7 0.5-2.4 0.6-0.9 0.3-1.6 0.3-2.8 0.2-1.1 0-1.9-0.1-2.8-0.5-0.7-0.2-1.7-0.6-2.3-0.9-0.5-0.3-1.3-0.8-1.8-1.2-0.5-0.4-1.1-1.1-1.5-1.5-0.4-0.5-0.9-1.4-1.2-2.1-0.3-0.6-0.7-1.6-0.8-2.2-0.2-0.6-0.4-1.6-0.4-2.1-0.1-0.6-0.2-1.8-0.2-2.8 0-0.9 0.1-2.3 0.2-3 0.1-0.8 0.3-2.1 0.5-2.9 0.2-0.9 0.6-2.1 0.9-2.7 0.2-0.7 0.8-1.7 1.1-2.2 0.4-0.6 1.3-1.6 2-2.3 0.9-0.8 1.6-1.3 2.4-1.7 0.6-0.3 1.5-0.7 2-0.8 0.7-0.2 1.6-0.2 3.2-0.2zm-66.9 0.9c0.2 0 0.4 0.1 0.6 0.3 0.1 0.1 0.3 0.4 0.3 0.5 0 0.2-0.1 0.4-0.2 0.6 0 0.1-0.5 0.4-1.1 0.7-0.6 0.3-1.8 0.9-2.8 1.3-1 0.4-2.9 1.2-4.2 1.7-2.3 0.8-2.5 0.9-2.8 0.7q-0.4-0.3-0.5-0.8c0-0.4 0.1-0.5 0.5-0.9 0.3-0.2 1.6-0.7 2.9-1.2 1.4-0.5 3.5-1.3 4.7-1.9 1.3-0.5 2.4-1 2.6-1zm93.7 0.3c0.3 0 0.8 0.2 1.2 0.5 0.4 0.3 1.4 0.9 2.1 1.3 0.8 0.4 1.8 0.8 2.3 1 0.5 0.2 1 0.5 1.1 0.6 0.2 0.2 0.3 0.5 0.3 0.7 0 0.3-0.1 0.6-0.2 0.7-0.2 0.1-0.5 0.2-0.8 0.2-0.3 0-1.3-0.4-2.6-1-1.2-0.6-2.5-1.4-3.1-1.7-0.5-0.4-1-0.9-1.1-1.2-0.1-0.3-0.1-0.5 0.1-0.7 0.1-0.3 0.4-0.4 0.7-0.4zm-61.6 0.2c0.7 0 1.7 0.1 2.4 0.3 0.7 0.2 1.8 0.6 2.5 0.9 0.7 0.4 1.7 1 2.3 1.4 0.5 0.5 1.2 1.2 1.6 1.8 0.4 0.5 0.9 1.3 1.1 1.8 0.2 0.5 0.6 1.5 0.8 2.3 0.2 0.8 0.5 2.2 0.7 3.3 0.1 1.2 0.2 2.3 0.1 3-0.1 0.7-0.3 2.2-0.5 3.4-0.2 1.2-0.4 2.5-0.5 2.9-0.1 0.4-0.4 1-0.6 1.4-0.2 0.4-0.3 0.8-0.2 1.1 0 0.2-0.1 0.6-0.4 1.1-0.2 0.3-0.7 0.9-1.1 1.2-0.4 0.4-1.3 0.8-1.9 1.1-0.6 0.3-1.7 0.6-2.5 0.8-0.9 0.2-2 0.3-3.2 0.4-1.6 0-2.1-0.1-3-0.4-0.6-0.2-1.5-0.6-2-0.9-0.6-0.4-1.5-1.2-2.1-1.8-0.6-0.6-1.3-1.5-1.6-2-0.4-0.5-0.8-1.2-1-1.6-0.2-0.5-0.6-1.6-1-2.5-0.3-0.9-0.6-2.2-0.8-3-0.1-0.8-0.2-2.1-0.2-2.9 0-0.9 0.1-2.1 0.2-2.8 0.2-0.6 0.5-1.8 0.9-2.6 0.3-0.8 0.7-1.8 1-2.2 0.2-0.4 0.8-1.1 1.2-1.6 0.4-0.5 1.1-1.2 1.6-1.5 0.4-0.4 1.3-0.9 1.9-1.3 0.6-0.3 1.6-0.7 2.1-0.8 0.6-0.2 1.6-0.3 2.2-0.3zm-29.9 2.8c0.3 0 0.6 0.1 0.7 0.3 0.2 0.1 0.3 0.4 0.3 0.5 0 0.2-0.1 0.4-0.2 0.6 0 0.2-0.6 0.6-1.2 1-0.5 0.4-1.9 1.1-2.9 1.5-1 0.5-2.6 1.2-3.5 1.5-1.2 0.5-1.8 0.7-2.3 0.6-0.5 0-0.6-0.1-0.8-0.4-0.2-0.4-0.2-0.5 0-0.9 0.1-0.3 0.6-0.5 2-1 1-0.4 2.4-1 3.2-1.3 0.8-0.3 1.9-0.8 2.6-1.2 0.6-0.3 1.3-0.7 1.4-0.9 0.2-0.2 0.5-0.3 0.7-0.3zm61.5 34.4c0.1 0 0.3 0.1 0.5 0.2 0.1 0.2 0.2 0.5 0.2 0.8 0 0.2-0.2 0.5-0.4 0.7-0.2 0.2-0.8 0.4-1.3 0.5-0.6 0.2-1.6 0.3-2.3 0.3-1 0-1.5-0.1-1.9-0.3-0.3-0.2-0.6-0.5-0.8-0.7-0.2-0.4-0.2-0.4 0.1-0.8 0.3-0.5 0.4-0.5 1-0.3 0.4 0 1.3 0.1 2.1 0.1 0.7 0 1.5-0.1 1.9-0.3 0.4-0.1 0.7-0.2 0.9-0.2zm-24.1 2c0.2 0 0.4 0.1 0.6 0.2 0.1 0.2 0.2 0.5 0.2 0.7 0 0.3-0.1 0.6-0.3 0.8-0.1 0.1-0.8 0.4-1.4 0.5-0.7 0.2-2 0.4-3 0.4-1.1 0.1-2.1 0-2.5-0.1-0.3-0.1-0.8-0.3-0.9-0.5-0.2-0.2-0.3-0.5-0.3-0.7q0-0.4 0.4-0.6c0.3-0.2 0.7-0.2 1.4-0.1 0.8 0.2 1.5 0.2 2.7 0 0.9 0 1.9-0.2 2.2-0.3 0.4-0.2 0.8-0.3 0.9-0.3zm-35.9 1.9c0.3 0 0.7 0.1 0.9 0.3 0.3 0.1 0.5 0.5 0.6 0.7 0 0.3 0 0.6-0.1 0.9-0.1 0.2-0.6 0.8-1 1.4-0.5 0.5-0.9 1.1-0.9 1.3 0 0.1-0.3 1.5-0.7 3-0.4 1.6-0.8 2.9-1 3-0.1 0.2-0.5 0.3-0.8 0.4-0.4 0.1-0.6 0-1.1-0.3-0.3-0.3-0.5-0.6-0.5-0.9 0-0.3-0.1-0.5-0.4-0.6-0.2-0.1-0.5-0.3-0.6-0.5-0.1-0.2-0.2-0.6-0.2-0.9 0-0.4 0.3-1.1 1.1-2.5 0.6-1.1 1.4-2.4 1.8-2.9 0.3-0.5 0.9-1.2 1.2-1.4 0.3-0.3 0.7-0.6 0.9-0.8 0.2-0.1 0.6-0.2 0.8-0.2zm87.7 0.3c0.2 0 0.7 0.1 0.9 0.3 0.3 0.1 0.6 0.4 0.7 0.6 0.1 0.2 0.3 0.8 0.4 1.3 0.1 0.6 0.3 1.4 0.4 2 0 0.7 0 1.2-0.1 1.5-0.2 0.3-0.5 0.7-0.7 0.8-0.3 0.1-0.7 0.2-0.9 0.1-0.4 0-0.5 0-0.5 0.3 0 0.2-0.1 0.6-0.3 0.9-0.3 0.3-0.6 0.4-1.1 0.4-0.4 0-0.7-0.1-1-0.4-0.3-0.3-0.4-0.7-0.7-2.1-0.2-1-0.4-2.1-0.5-2.5-0.2-0.4-0.3-1-0.3-1.2 0-0.3 0.1-0.6 0.2-0.8 0.1-0.1 0.4-0.4 0.7-0.5 0.4-0.2 0.6-0.2 0.9-0.1 0.3 0.1 0.5 0.1 0.9-0.2 0.3-0.3 0.7-0.4 1-0.4z" />
  <path fill="#ffffff" d="m89.5 14.4c0.4 0 0.8 0.1 0.9 0.2 0.1 0.1 0.2 0.4 0.2 0.7 0 0.4-0.1 0.5-0.5 0.7-0.3 0.3-0.5 0.3-0.9 0.1-0.3-0.1-0.8-0.3-1-0.5-0.3-0.1-0.5-0.4-0.5-0.4 0-0.1 0.2-0.3 0.5-0.5 0.3-0.2 0.9-0.3 1.3-0.3zm61.5 1.2c0.1 0 0.3 0.2 0.5 0.4 0.2 0.2 0.3 0.5 0.3 0.6 0 0.2-0.1 0.4-0.3 0.5-0.2 0.2-0.4 0.2-0.6 0.1-0.1-0.1-0.4-0.3-0.6-0.5-0.2-0.3-0.3-0.5-0.3-0.6 0.1-0.1 0.3-0.2 0.5-0.3 0.2-0.1 0.4-0.2 0.5-0.2zm-15.5 2.7c0.8 0 1.8 0.1 2.3 0.2 0.5 0.2 1.5 0.5 2 0.8 0.7 0.4 1.3 0.9 1.6 1.2 0.3 0.4 0.7 1 0.9 1.4 0.2 0.4 0.6 1.2 0.9 1.9 0.3 0.7 0.7 2 1 2.9 0.4 1.4 0.5 2 0.5 4 0.1 2 0.1 2.5-0.2 3.8-0.2 0.7-0.5 1.7-0.7 2.1-0.2 0.5-0.5 0.8-0.8 0.9-0.2 0.1-0.9 0.6-1.5 1.2-0.8 0.7-1.5 1.1-2 1.3-0.5 0.2-1.3 0.4-1.8 0.6-0.4 0.1-1.4 0.2-2.1 0.3-1 0.1-1.4 0-2.4-0.3-0.6-0.2-1.6-0.5-2.1-0.8-0.4-0.2-1.1-0.7-1.5-1-0.3-0.3-0.9-0.9-1.1-1.4-0.3-0.4-0.7-1.1-0.8-1.5-0.1-0.5-0.4-1.4-0.5-2.2-0.1-0.7-0.2-2-0.2-2.9 0-0.9 0-2.1 0.1-2.8 0.1-0.7 0.3-1.7 0.5-2.4 0.2-0.6 0.5-1.6 0.7-2.2 0.2-0.5 0.8-1.5 1.2-2.1 0.5-0.6 1.2-1.3 1.7-1.7 0.4-0.3 1.3-0.8 1.9-1 0.7-0.2 1.4-0.3 2.4-0.3zm-34.3 1.4c0.5 0 1.3 0.1 1.8 0.2 0.5 0.2 1.3 0.5 1.9 0.8 0.5 0.2 1.2 0.8 1.7 1.2 0.4 0.4 1 1.1 1.3 1.6 0.2 0.5 0.6 1.6 0.9 2.4 0.2 0.9 0.4 2.2 0.5 3 0.1 0.8 0.1 2 0.1 2.6-0.1 0.6-0.2 1.5-0.3 2.1-0.2 0.6-0.4 1.5-0.6 2-0.2 0.6-0.7 1.8-1.2 2.8-0.7 1.3-1.1 1.9-1.4 2.1-0.2 0.1-0.9 0.4-1.4 0.5-0.6 0.1-1.5 0.3-2.1 0.3-0.7 0.1-1.5 0.1-2.1-0.1-0.5-0.1-1.2-0.3-1.5-0.4-0.3-0.2-1-0.8-1.5-1.3-0.6-0.5-1.2-1.3-1.4-1.6-0.3-0.4-0.6-1-0.8-1.4-0.3-0.4-0.7-1.5-0.9-2.3-0.3-0.8-0.6-2-0.7-2.7-0.1-0.7-0.1-1.9-0.1-2.8 0.1-1.1 0.2-1.8 0.6-2.8 0.3-0.8 0.7-1.8 1-2.3 0.3-0.4 0.9-1.2 1.4-1.7 0.5-0.5 1.3-1 1.7-1.3 0.3-0.2 1-0.5 1.4-0.6 0.5-0.2 1.2-0.3 1.7-0.3z" />
  <path fill="currentcolor" d="m102.2 33.4c0.3 0 0.9 0.2 1.3 0.3 0.3 0.2 0.8 0.5 1 0.8 0.2 0.2 0.5 0.7 0.6 1q0.1 0.6 0 1.6c-0.1 0.8-0.3 1-0.8 1.6-0.6 0.6-0.7 0.6-1.4 0.6-0.5 0-1.1-0.2-1.5-0.4-0.3-0.1-0.8-0.5-1-0.7-0.3-0.3-0.6-0.7-0.7-1.1-0.1-0.3-0.2-0.9-0.2-1.4 0-0.5 0.1-0.9 0.2-1.1 0.2-0.2 0.6-0.6 1.1-0.8 0.4-0.2 1.1-0.4 1.4-0.4zm32.5 1q0.8 0.1 1.3 0.4c0.2 0.1 0.5 0.5 0.7 0.7 0.1 0.2 0.3 0.7 0.4 1.2 0 0.7 0 1-0.2 1.4-0.1 0.3-0.4 0.6-0.5 0.6-0.2 0.1-0.7 0.2-1.2 0.4-0.4 0.1-1.1 0.1-1.4 0.1-0.3-0.1-0.7-0.3-0.9-0.4-0.2-0.2-0.5-0.6-0.7-0.9-0.1-0.3-0.2-0.9-0.2-1.2 0-0.5 0.1-0.9 0.3-1.2 0.2-0.3 0.6-0.6 0.9-0.8 0.4-0.3 0.8-0.3 1.5-0.3z" />
</svg>
