<svg version="1.2" xmlns="http://www.w3.org/2000/svg" width="1299" height="1902">
    <path fill-rule="evenodd" d="M92.6 1c1 0 3 1.1 4.4 2.5 2.2 2.3 2.4 3.1 1.8 7.3-.4 2.6-1.4 9-2.2 14.2-.8 5.2-2.4 12.9-3.4 17-1.1 4.1-1.8 7.7-1.7 8 .2.3 4 1.1 8.6 1.7 4.6.7 13.1 1.7 18.9 2.2 7.9.7 10.9 1.4 12.3 2.8 1 1 1.9 2.9 2 4.3 0 1.4-.7 3.7-1.6 5.3-.9 1.5-3.8 3.6-6.4 4.8-2.7 1.2-9.1 3.6-14.3 5.4-5.2 1.8-14 4.5-19.5 6-5.5 1.4-10.3 2.9-10.7 3.3-.5.4-1.5 3.2-2.3 6.2-.8 3-1.5 7.2-1.5 9.3 0 2-.4 6.7-1 10.5-.5 3.7-1.4 10.8-2 15.7-.6 4.9-1.7 13.3-2.5 18.5-1 6.1-2.1 10.1-3.3 11.3-.9 1-2.9 1.8-4.4 1.7-1.9 0-3.3-.9-4.5-2.7-.9-1.6-2-5.9-2.5-9.8-.4-3.8-1.2-10.8-1.7-15.5-.6-4.7-1.5-12.3-2.1-17-.5-4.7-1.3-11-1.7-14.1-.5-3.2-1.1-6-1.5-6.3-.5-.3-2.5.2-4.5 1.2-2.1 1-7.9 3.3-12.8 5.1-4.9 1.9-11.5 4.3-14.5 5.4-3 1.2-6.4 2.7-7.5 3.4-1.1.7-3 1.3-4.2 1.3-1.3 0-3-1-3.8-2.2-.8-1.3-1.5-3.1-1.5-4 0-1 1.5-4.8 3.4-8.5 1.8-3.8 5.2-9.5 7.3-12.8 2.2-3.3 6.6-9.2 9.7-13 4.8-5.8 5.6-7.4 5-9.5-.4-1.4-1-4.3-1.4-6.5-.4-2.2-1.7-8.3-2.9-13.5-1.2-5.2-3-13.8-4.1-19-1.1-5.2-2.2-10.3-2.5-11.2-.3-1 .2-2.5 1.1-3.3.8-.8 1.8-1.5 2.2-1.5.4 0 1.9.8 3.3 1.8 1.5.9 6.4 4.9 10.9 8.7 4.5 3.8 11.1 9.6 14.6 12.8 4 3.5 7.1 5.6 8.4 5.5 1.1-.2 9.4-7.6 18.4-16.6C83.8 7.9 91.5 1 92.6 1zm-58 43c5.4 15.6 6.6 20.1 6 22.5-.5 1.8-4.1 6.2-9 11-4.4 4.4-9.1 9.5-10.3 11.3-1.3 1.8-2 3.4-1.5 3.6.4.2 5.4-1.4 11.2-3.6 6.3-2.3 12.6-3.9 15.8-4.1 4.6-.2 5.6.1 7.2 2.3 1.1 1.4 2.6 4.5 3.4 7 .8 2.5 2 7.1 2.8 10.3.7 3.1 1.6 5.7 2.1 5.7.4 0 .9-1 1.2-2.3.2-1.2.7-5.6 1.1-9.7.3-4.1 1.4-10.2 2.5-13.5 1-3.4 3-7.1 4.6-8.6 1.6-1.5 4.8-3.5 7.3-4.6 2.5-1.1 6.7-2.6 9.3-3.4 2.6-.8 4.7-1.7 4.7-2.2 0-.4-2.2-1.8-5-3.2-2.9-1.4-5.8-3.9-7-5.8-1.1-1.7-2-4.9-2-7 0-2 .4-5.6.9-8 .5-2.3 1.4-6.9 2.1-10.2.6-3.3.9-6.2.5-6.5-.3-.3-5.8 4.8-12.3 11.2C63.8 42.7 57.7 48 56.8 48c-1 0-2.8-.4-4-.9-1.3-.4-3.2-2.2-4.3-3.8-1.1-1.7-6.1-7.4-11-12.7-4.9-5.2-9.4-9.6-9.9-9.6s-.7.8-.3 1.7c.3 1 3.6 10.6 7.3 21.3zm1210.6-17.9c1 .5 2.1 1.5 2.5 2.1.4.7 1.1 9.6 1.5 19.8.3 10.2 1 18.8 1.5 19.2.4.4 4 1 7.8 1.3 3.9.3 9.4 1 12.3 1.5 2.8.6 7.8 1.5 11 2.1 3.1.6 7.8 1.8 10.5 2.5 2.7.8 5.1 2.2 5.7 3.4.6 1.2.6 2.7.1 3.7s-1.7 2.5-2.7 3.4c-1.1 1-5.7 2.9-10.4 4.4-4.7 1.5-10.7 3.1-13.5 3.6-2.7.5-8.1 1.3-12 1.9-3.8.5-8.6.6-10.5.2-2.4-.5-3.6-1.4-3.8-2.7-.2-1.5.7-2.5 3.5-3.8 2.1-.9 7.9-3 12.8-4.6 5-1.6 9.1-3.3 9.3-3.8.1-.4-5.1-1.7-11.5-2.7-8.8-1.5-12.3-2.5-13.9-4-1.7-1.7-2.2-3.9-2.8-11.1-.5-4.9-1.1-10.8-2.1-17l-3.6 7c-2.4 4.6-3.5 7.9-3.2 9.5.3 1.5 0 2.8-.8 3.2-.8.4-4.1-.6-7.4-2.1-3.3-1.5-7.9-4-10.2-5.4-2.4-1.5-4.5-2.4-4.7-2-.3.5 1.5 3.4 4 6.5 2.4 3.2 5.3 7.5 6.4 9.5 1.1 2.1 2 4.5 2 5.3 0 .8-1.6 4.1-3.7 7.2-2.1 3.1-7.2 10.2-11.3 15.8-4.1 5.6-7.9 10.8-8.5 11.5-.5.8-.7 1.8-.3 2.2.4.4 1.3.3 2-.3s4.2-2.1 7.8-3.4c3.6-1.2 8.3-3.1 10.5-4.2 2.2-1.2 5.1-2.4 6.5-2.8 1.4-.5 3.4-.3 4.6.4 1.2.6 5.8 5.2 10.4 10.1 4.6 4.9 8.7 9.1 9.1 9.2.5.2.9-.6.9-1.7s-.4-2.9-1-4c-.5-1.1-.8-3.4-.5-5 .5-2.7.7-2.9 2.6-1.8 1.1.7 2.9 2.9 3.9 4.8s3.4 7.7 5.4 12.7c2 5.1 3.6 10.4 3.6 11.8 0 1.9-.5 2.5-2.2 2.5-1.7 0-6.7-4.6-17.8-16.2-10-10.6-16.1-16.2-17.2-16.1-1 .2-6 2.8-11 5.8-5.1 3.1-9.9 5.5-10.5 5.5-.7 0-6 2.5-11.8 5.5-9.3 4.9-10.7 5.3-12 4-.8-.8-1.5-1.9-1.5-2.5 0-.6 5-8.5 11.2-17.8 6.2-9.2 13.8-20.1 17-24.2 3.2-4.1 5.8-8.1 5.8-8.8 0-.6-1-2.7-2.2-4.5-1.3-1.8-4.1-5.6-6.3-8.5-2.2-2.9-6-7.7-8.5-10.6-2.5-3-5.5-7.2-6.7-9.5-2.1-3.7-2.2-4.2-.7-5.6.8-.8 2.2-1.5 3-1.5.8 0 2.6.6 4.2 1.4 1.5.8 6.3 3.8 10.7 6.8 4.4 3 10.5 6.8 13.5 8.6 3 1.7 6 3.2 6.5 3.2.6 0 2.7-5.2 4.9-11.7 2.1-6.5 4.7-13.4 5.7-15.5 1.1-2 2.4-3.8 3.1-4.1.6-.2 2 0 3 .4zM638.5 7.6c39.1.2 79.8.8 90.5 1.3 10.7.6 29.2 1.5 41 2 11.8.6 29.8 1.6 40 2.1 10.2.6 27.3 1.5 38 2 10.7.6 29 1.5 40.5 2 11.6.6 30.5 1.5 42 2 11.6.5 30.2 1.4 41.5 2 11.3.5 27.9 1.5 37 2 9.1.5 22.6 1.4 30 2 7.4.5 17.6 1.4 22.5 1.9 5 .6 12.2 1.5 16 2.1 3.9.6 7.1 1.5 7.3 2 .1.6 1 1 2 1 1.1 0 .6.6-1.3 1.5-1.9 1-5.7 1.6-10.2 1.5-4 0-13.7-.4-21.5-1-7.9-.5-23.5-1.4-34.8-2-11.3-.5-37.4-1.7-58-2.6-20.6-.8-46.9-1.9-58.5-2.5-11.5-.5-30.2-1.4-41.5-1.9-11.3-.6-28.6-1.5-38.5-2-9.9-.5-27.4-1.4-39-2-11.5-.6-29.1-1.5-39-2-9.9-.5-36-1.5-58-2.1-24.8-.7-65.6-.9-107.5-.5-37.1.4-72.2.9-78 1.1-5.8.3-22 1-36 1.5-14 .6-35.4 1.5-47.5 2-12.1.6-32.1 1.5-44.5 2.1-12.4.6-33.1 1.2-46.2 1.3-13 0-24 .4-24.4.8-.4.5-6.7.8-14.1.8-12.1 0-13.3-.2-13-1.8.3-1.3 1.9-1.9 7.3-2.5 3.8-.4 11.4-.5 16.9-.3 5.5.3 10.5.2 11-.3.6-.5 10-1.4 21-2 11-.6 27-1.6 35.5-2.1 8.5-.6 22.3-1.5 30.5-2 8.3-.5 23.8-1.4 34.5-2 10.7-.6 26.7-1.5 35.5-2s33.6-1.4 55-2c21.5-.6 40.4-1.2 42-1.4 1.7-.2 35-.2 74 0zM1076.4 59c19.9 0 39.9.4 44.6 1 4.7.5 12.1 1.5 16.5 2 4.4.6 9.8 1.5 12 2 2.2.5 6.9 1.5 10.4 2.2 3.6.7 10.5 3.4 15.5 5.9 5 2.5 9.1 5.2 9.1 5.9 0 .8-1.3 1.7-3 2.2-1.6.5-9.3 1.2-30.8 2.3l.7 12c.4 6.6 1.1 25.5 1.6 42s1.2 36.3 1.5 44c.3 7.7 1 26.4 1.5 41.5.6 15.1 1.5 37.2 2 49 .6 11.8 1.4 33.6 2 48.5.5 14.9 1.4 41.9 2 60 .5 18.1 1.2 41.3 1.6 51.5.3 10.2.9 33.1 1.4 51 .5 17.9 1.5 58.8 2.1 91 .7 32.2 1.3 86 1.3 119.5s-.5 99.3-1.2 146-1.7 119.2-2.3 161c-.6 41.8-.8 110.4-.4 152.5.3 42.1 1 110 1.6 151 .9 55.2.9 91.8 0 141-.6 36.6-1.6 77.5-2.1 91-.6 13.5-1.5 32.6-2 42.5-.5 9.9-1.4 26.5-2 37-.5 10.5-1.2 24.8-1.5 32-.2 7.2-.7 17.3-1 22.5-.4 5.2-1 36-1.4 68.5-.6 42.1-1.2 59.9-2 62-.7 1.7-1.8 3.3-2.4 3.7-.7.4-1.5.8-1.9.8-.5 0-1.7-1.9-2.7-4.3-1.1-2.4-2.4-8.7-3-14.7-.5-5.8-1.6-20.4-2.2-32.5-.9-17.1-1-32.1 0-67 .6-24.8 1.6-53.3 2.1-63.5.5-10.2 1.2-24.6 1.6-32 .3-7.4 1-23 1.5-34.5s1.2-67.8 1.6-125c.4-72 .2-121.2-.7-160-.7-30.8-1.3-103.9-1.4-162.5 0-58.6.6-134.2 1.2-168 .7-33.8 1.7-83.5 2.2-110.5.6-27 1-101.9 1-166.5s-.4-134.8-1-156c-.5-21.2-1.4-69.3-2-107-.6-37.7-1.5-82.5-2-99.5-.6-17.1-1.3-73.4-2.5-219.3l-34.5-.6c-19.1-.4-51.4-.2-72.5.4-20.9.6-49.5 1.5-63.5 2s-35.8 1.4-48.5 2c-12.6.5-32.9 1.4-45 2-12.1.5-33.2 1.4-47 2-13.7.6-37.1 1.5-52 2.1-14.8.5-38.5 1.4-52.5 1.9s-45.5 1.5-70 2.2c-24.5.7-70.1 1.3-101.5 1.3-31.3 0-75.7-.6-98.5-1.3-22.8-.7-50.7-1.7-62-2.2-11.3-.5-29.9-1.4-41.5-1.9-11.5-.6-30.9-1.5-43-2.1-12.1-.5-37.5-1.4-56.5-2-19-.6-45.3-.8-58.5-.5-13.2.3-32.8 1-43.5 1.6-10.7.6-25.6 1.7-33 2.5-7.4.7-15.5 1.8-18 2.2-2.5.5-5.3.5-6.2.1-1-.5-1.8-1.6-1.8-2.4 0-.8 1-2.2 2.3-3 1.2-.8 4.5-2.1 7.2-2.9 2.8-.8 7.3-1.9 10-2.5 2.8-.5 8.4-1.5 12.5-2 4.1-.6 12-1.5 17.5-2 5.5-.6 15.2-1.5 21.5-2 6.3-.6 16.7-1.5 23-2.1 6.3-.6 33.1-1.4 59.5-1.7 26.4-.3 78.8 0 116.5.6 37.7.7 97.8 1.6 133.5 2.1 41.4.6 84.3.6 118-.1 29.2-.5 66.1-1.4 82-1.9 16-.5 41.6-1.4 57-2 15.4-.5 38.6-1.5 51.5-2 12.9-.6 34.5-1.5 48-2s35.3-1.4 48.5-2c13.2-.6 33.9-1.5 46-2 12.1-.5 37.5-1.4 56.5-2 19-.6 34.7-1.3 34.9-1.6.2-.2 16.7-.4 36.5-.4zm-972 38.3c.6.2 1.4 1.5 1.7 2.8.3 1.3 1.1 9.8 1.7 18.9.6 9.1 1.6 30.9 2.2 48.5.5 17.6 1.5 46.4 2 64 .6 17.6 1.3 36.5 1.6 42 .3 5.5 1 25.5 1.5 44.5.6 19 1.2 90.8 1.4 159.5.1 68.8-.1 135.4-.6 148-.5 12.6-1.3 34.7-1.9 49-.5 14.3-1.4 38.8-2 54.5-.6 15.7-1.3 33-1.5 38.5-.3 5.5-1 22.1-1.5 37-.6 14.9-1.5 40.3-2 56.5-.6 16.2-1.2 38-1.5 48.5-.3 10.5-.9 38.6-1.5 62.5-.5 23.9-1.2 61.7-1.5 84-.4 22.3-1 77.2-1.5 122-.6 44.8-1.4 97-2 116-.5 19-1.4 47.8-2 64-.6 16.2-1.5 41.9-2 57-.5 15.1-1.5 43-2.2 62-.7 19-1.3 65.3-1.3 103 0 44.2.5 75.8 1.3 89 .7 11.3 1.7 25.7 2.2 32 .5 6.3 1.4 16.5 2 22.5.5 6 1.4 15 2 20 .5 5 1.4 12.4 1.9 16.5s1.6 13.1 2.5 20c.9 6.9 2 15.4 2.6 19 .5 3.6 1.2 8.3 1.5 10.5.3 2.2 1 7.8 1.5 12.5.6 4.7 1.4 11.4 2 15 .5 3.6 1.4 9.4 1.9 13 .6 3.6 1.5 9.4 2 13 .8 4.8.7 7.3-.2 9.6-1 2.6-1.4 2.9-2.4 1.8-1-1.1-5.1-1.3-19.7-1.1-16.9.2-18.7.4-21.3 2.3-1.7 1.2-3.5 4.1-4.5 7-.9 2.7-1.7 6.6-1.7 8.7-.1 2-.8 5.3-1.6 7.2Q62 1902 60 1902c-1.1 0-2.2-.8-2.4-1.7-.3-1-.8-8.3-1.2-16.3-.5-10.4-.4-14.7.5-15.2q1.1-.8.1-2c-.7-1-2.3-.6-7.2 1.6-3.5 1.6-11.4 4.7-17.5 6.8-6.7 2.2-11.9 3.5-12.8 3.1-.9-.5-1.8-1.5-2.1-2.3-.2-.8.2-2.4 1-3.5.7-1.1 3.5-4.3 6.2-7.1s8.2-8.6 12.2-12.8c6.8-7.2 7.2-7.8 6.7-11.3-.3-2.1-1-6-1.6-8.8-.6-2.7-1.9-8.4-2.9-12.5s-2.2-9.5-2.7-12c-.8-3.5-.7-4.8.4-5.7.8-.7 2-1.3 2.6-1.3.7 0 6.8 5.8 13.7 12.9 6.9 7.2 13.3 13 14.3 13.1.9 0 2.3-.8 3-1.8.6-1 5.6-5.9 11-11 8.3-7.9 10-9.1 11.7-8.2 1.1.5 2.2.7 2.4.3.3-.5.1-3.6-.5-7-.5-3.5-1.4-9.1-1.9-12.5-.6-3.5-1.5-9.5-2-13.3-.6-3.8-1.5-9.9-2.1-13.5-.5-3.6-1.4-9.9-1.9-14s-1.3-11.3-2-16c-.6-4.7-1.5-13.2-2.1-19-.5-5.8-1.4-15.5-1.9-21.5s-1.6-22.5-2.5-36.5c-1.1-18.2-1.5-44.3-1.5-91.2 0-36.2.2-66.3.5-66.8s1-19.6 1.5-42.2c.6-22.7 1.5-54.6 2.1-70.8.5-16.2 1.4-43.5 1.8-60.5.5-17 1.6-85 2.5-151 .8-66 2-145.9 2.6-177.5.6-31.6 1.5-70.3 2-86 .5-15.7 1.4-44.2 2-63.5.6-19.2 1.5-46.2 2-60 .6-13.7 1.5-36.2 2-50 .6-13.7 1.5-35.1 2-47.5.5-12.4 1.4-37.4 2-55.5.6-18.1 1.5-55.5 2-83 .4-27.5.7-89.4.6-137.5-.2-48.1-.7-137.5-1.2-198.6-.8-95-.7-111.3.5-112.8.8-.9 1.9-1.5 2.5-1.3zm-13 1729.2c-.8 3.8-2.3 8.8-3.3 11-.9 2.2-2.2 4.3-2.9 4.7-.7.5-1.9.2-2.8-.5-1.3-.9-1.5-2.2-1-6.2.4-2.8 1-6.8 1.3-9l.5-4c-6.4 6.2-9.4 9.7-10.8 11.7-1.5 2-3.2 3.9-4 4.2-.8.3-2.6 0-4.1-.8-1.6-.7-5.8-4.7-9.6-8.7-3.7-4.1-6.7-6.7-6.7-5.9 0 .8 1.2 5.5 2.6 10.5 1.6 5.5 2.4 10.1 2 11.7-.4 1.8-3.9 5.8-9.5 11-5 4.6-8.8 8.5-8.6 8.8.2.3 4.4-.9 9.2-2.7 7.5-2.7 9.4-3.1 12.6-2.3 3.4.9 3.7 1.2 3.2 4-.3 1.6.1 3.9.8 5 .6 1.1 1.5 2 2 2 .4 0 1.9-1 3.5-2.3 1.6-1.4 5.9-3 10.7-4.1 6-1.3 9.8-1.6 15-1.1l7 .7c-8.1-8.7-10.5-11.9-10.5-12.7 0-.8.7-1.7 1.5-2 .8-.3 3 .2 4.8 1.1 1.7 1 4.6 2.7 6.2 4 1.7 1.3 3.6 2.4 4.3 2.4q1.2 0 .6-2.8c-.3-1.5-.8-3.4-1.1-4.2-.2-.8-1.1-5.1-1.9-9.5-.8-4.4-1.8-9.8-2.3-12-.6-2.2-1.4-6.8-2-10.3-.5-3.4-1.4-6.2-2-6.2-.6 0-1.5 1.7-2 3.7-.6 2.1-1.8 6.9-2.7 10.8zm1152.9-78.3c1.8.3 2.3 1.3 3.4 7.3.6 3.8 1.2 15.9 1.3 46.5l14.8.6c8.1.3 15.8 1.1 17.2 1.8 1.7.8 2.5 2 2.5 3.6 0 2.2-1.4 3-14.5 8.3-8 3.2-15.4 5.9-16.5 6.1-1.1.2-2.1.8-2.2 1.5-.2.6.2 1.1.7 1.1.6 0 2.4 2.9 4 6.5 1.7 3.6 3.7 8.4 4.5 10.7.9 2.4 2.9 8.1 4.5 12.8 1.7 4.7 3 9.1 3 9.7 0 .7-1.1 2.4-2.5 3.8-1.3 1.4-3.2 2.5-4.2 2.5s-3.8-1.3-6.3-2.9c-2.5-1.6-8.9-7.2-14.2-12.5-5.4-5.3-10.2-9.6-10.8-9.6-.5 0-2.2 1.2-3.6 2.7-1.5 1.6-7 8.2-12.3 14.7-5.3 6.6-11.7 14.4-14.3 17.3-2.8 3-5.6 5.3-6.8 5.3-1.2 0-2.2-.9-2.6-2.3-.4-1.5 1.2-5.8 5.7-14.5 3.5-6.7 8-15.1 9.9-18.7 1.9-3.6 3.2-6.7 2.8-7-.5-.3-2 .4-3.5 1.4-1.6 1.1-4.4 2.6-6.3 3.4-1.9.9-7.3 2.1-12 2.7-4.7.6-12.3 1.6-17 2.1-4.7.5-13.9 1.4-20.5 1.9-6.6.6-19.2 1.5-28 2s-20.7 1.2-26.5 1.4c-5.8.3-22.4 1-37 1.6-14.6.5-50.3 1.5-79.5 2.1-29.1.5-58.6 1.2-65.5 1.4-6.9.2-21.9.6-33.5 1-11.5.3-25.9.8-32 1-6 .3-25.2.9-42.5 1.5-17.3.5-49 1.4-70.5 1.9-21.4.6-63.3 1.5-93 2-29.7.6-60.7 1.3-69 1.6-8.2.2-35.7.8-61 1.1-25.3.3-59.9.6-77 .5-17-.1-46.7-.6-66-1.1-19.2-.6-45.6-1.5-58.5-2-12.9-.5-31.4-1.4-41-2-9.6-.5-23.3-1.4-30.5-1.9-7.1-.6-18.4-1.5-25-2.1-6.6-.5-16-1.4-21-2-4.9-.5-13.3-1.4-18.5-2-5.2-.5-13.8-1.5-19-2-5.2-.6-13.5-1.5-18.5-2-4.9-.5-10.5-1.2-12.4-1.7-1.8-.4-3.8-1.4-4.5-2.1-.8-1-.8-1.6.2-2.5.9-.9 7-1.2 21-1.2 10.8 0 28.3.6 38.7 1.3 10.5.7 26.9 1.7 36.5 2.2 9.6.5 35.1 1.5 56.5 2.2 22 .7 78.7 1.3 130 1.3 55.5 0 104.5-.5 125.5-1.3 19-.7 48.9-1.7 66.5-2.2 17.6-.5 46.6-1.4 64.5-2 17.9-.6 47.1-1.5 65-2.1 17.9-.5 43.3-1.3 56.5-1.9 13.2-.5 34.4-1.1 47-1.4 12.7-.4 30.7-1.1 40-1.6 9.4-.6 28.5-1.2 42.5-1.5 14-.3 46.2-.9 71.5-1.5 25.3-.5 58.2-1.4 73-1.9 14.9-.6 38.3-1.6 52-2.3 13.8-.7 39.9-1.3 91-1.3l4.8 2.5c2.6 1.4 4.7 2.8 4.7 3.2 0 .5 1 .7 2.2.5 1.7-.1 3.1-1.9 5.5-6.7 1.8-3.6 3.3-6.8 3.3-7.3 0-.4-1-.9-2.2-1.2-1.3-.2-6.8-3.1-12.3-6.3-5.5-3.2-13-7.5-16.7-9.5-3.8-2-7.3-4.7-7.9-6-.6-1.2-.9-3.2-.6-4.4.3-1.2 1.4-2.7 2.4-3.2 1.1-.5 7.5-.5 16.3.2 8 .5 16.9 1 25.3 1.2l2.7-7c1.5-3.9 4.7-12 7-18 2.4-6.1 5.8-14.3 7.7-18.3 2.8-6.2 3.7-7.3 5.6-7zm-7.9 35.3c-1.2 3.3-3 8.5-4 11.5-.9 3-2.7 7-3.8 8.9-1.2 1.9-2.9 3.8-3.8 4.2-1.2.6-3.7.2-7.3-1.1-3.4-1.2-8-2-12-2-3.6 0-6.5.3-6.5.7 0 .5 2.3 2.1 5.2 3.7 2.9 1.7 7.3 4.9 9.8 7.3 2.5 2.3 5.3 4.2 6.3 4.3.9 0 2.4.7 3.2 1.5.9.9 1.3 2.4.9 3.7-.3 1.3-1.9 5-3.5 8.3-1.6 3.3-2.6 6.3-2.4 6.7.3.5 2.3-.8 4.5-2.7 2.2-1.9 4.7-3.5 5.5-3.5.8 0 3 .7 4.8 1.7 1.7.9 6.6 4.7 10.7 8.4 4.1 3.8 7.8 6.5 8.2 6.1.4-.4-.6-5.2-2.2-10.7-1.6-5.5-3-11.6-3-13.5.1-2.5 1.1-4.7 3.5-7.8 1.9-2.3 3.5-4.7 3.5-5.2 0-.6-2.5-1-5.5-1s-6.2-.3-7.1-.8c-.9-.4-2.3-1.9-3-3.5-1.1-2.1-1.2-4.2-.3-10 .6-3.9.9-10.4.7-14.2l-.3-7z" fill="#f17906"/>
</svg>
