<svg version="1.2" xmlns="http://www.w3.org/2000/svg" viewBox="0 0 2048 2048" width="200" height="200">
    <path fill-rule="evenodd" d="M663.5 383c53.6 0 94.6.4 94.8.9.1.5 18 1.1 39.7 1.5 21.7.3 49.6.8 62 1.1 12.4.3 34 .9 48 1.5 14 .5 38.1 1.4 53.5 2 15.4.6 34.1 1.5 41.5 2 7.4.6 21.2 1.2 30.5 1.4 9.3.3 18.8.9 21 1.5 2.6.7 8.1.8 15.6.3 8.9-.5 12-.4 13 .6 1 .8 4.5 1.2 10.9 1.1 5.2-.1 18.5.3 29.5.9 11 .6 41.2 1.4 67 1.8 29.4.4 63.7.2 91.5-.5 24.5-.7 52.4-1.6 62-2.2 9.6-.5 24.3-1.2 32.5-1.5 8.3-.4 14.8-.4 14.5 0-.3.3-5 .8-10.5 1.1-5.5.3-17.9.9-27.5 1.5-9.6.5-27.6 1.5-40 2-12.4.6-57.8 1-101 .9-43.2-.1-86.8-.2-97-.3-10.2-.1-19.1-.5-19.8-.9-.6-.4-6.7-.4-13.4 0-7 .3-13 .2-13.8-.3-.8-.5-11.6-.9-24-1-12.4 0-23.2-.5-24-.9-.8-.5-9.1-1-18.5-1.1-9.4-.1-32.8-.7-52-1.3-19.3-.7-49.4-1.6-67-2.1s-60.4-1.5-95-2.2c-34.6-.7-95-1.3-134-1.2-39 0-93.7.6-121.5 1.3-27.8.6-60.6 1.6-73 2.2-12.4.5-32.4 1.4-44.5 1.9-12.1.5-29.9 1.4-39.5 2-9.6.5-23.8 1.4-31.5 2-7.7.5-18.3 1.4-23.5 1.9-5.2.5-11.2 1.1-13.2 1.5-2.1.3-3.8 1-3.8 1.6 0 .6.6 1.3 1.3 1.7.6.3 5 1 9.7 1.4 4.7.5 11.6 1.3 15.5 1.8 3.9.6 9.9 1.5 13.5 2.1 3.6.6 12.4 1.5 19.5 2 7.1.6 19.3 1.4 27 2 7.7.5 18.1 1.4 23 2 4.9.5 13.1 1.4 18 1.9 4.9.6 13.1 1.5 18 2.1 4.9.5 14.2 1.4 20.5 2 6.3.5 14.9 1.2 19 1.5 4.1.3 14 1 22 1.5l32 2c9.6.5 24.9 1.4 34 2 9.1.5 29.1 1.5 44.5 2 15.4.6 53.6 1.5 85 1.9 31.5.5 78.2.5 104.5 0 26.1-.4 54.7-1.1 63.5-1.4 8.8-.3 26.4-.9 39-1.5 12.6-.5 32.7-1.4 44.5-2 11.8-.5 29.1-1.4 38.5-2 9.4-.5 24.6-1.4 34-2 9.3-.6 24.2-1.5 33-2 8.8-.6 22.9-1.5 31.3-2 8.3-.6 22.1-1.4 30.4-2 8.4-.5 22.3-1.4 30.8-2 8.5-.5 22.7-1.4 31.5-2 8.8-.5 23.7-1.5 33-2 9.3-.6 26-1.6 37-2.1s27.9-1.4 37.5-1.9c9.6-.5 31.5-1.5 48.5-2.2 18.2-.8 59.5-1.3 100-1.3 50.5 0 75 .4 91.5 1.5 12.4.8 26.5 1.5 31.5 1.5 5-.1 14.4-.7 21-1.3 6.6-.7 16.3-1.7 21.5-2.2 5.2-.5 14-1.4 19.5-1.9 5.5-.6 15.4-1.5 22-2.1 6.6-.6 17.2-1.5 23.5-2.1 6.3-.5 15.1-1.2 19.5-1.4 4.4-.2 9.6-.7 11.5-1 1.9-.3 7.5-.7 12.5-1 5-.2 12.2-.7 16-1 5.5-.4 6.3-.3 4 .5-1.7.6-5.9 1.5-9.5 2-3.6.6-9.4 1.7-13 2.6-3.6.9-7.7 1.3-9.2 1-1.6-.3-3.7-.2-4.8.4-1.1.6-6.6 1.4-12.3 2-5.6.5-14.9 1.4-20.7 2-5.8.6-15.7 1.5-22 2.1-6.3.5-14.1 1.2-17.3 1.4-4.6.4-5.7.8-5.7 2.3 0 1.6 2.1 1.7 35.7 1 19.7-.5 46.6-1.3 59.8-1.9 13.2-.7 26.3-1.2 29.2-1.3 4.2-.1 5.6.4 7.8 2.4 2 1.9 2.5 3.1 2 5-.4 1.4-1.4 3.3-2.3 4.4-.9 1-3.6 2.7-10.2 5.6l-.6 21.8c-.4 11.9-.4 42.4 0 67.7.4 25.3 1.1 62.9 1.6 83.5s1.4 52.1 2 70c.5 17.9 1.4 44.2 2 58.5.5 14.3 1.4 37 2 50.5.5 13.5 1.5 34.9 2 47.5.6 12.6 1.5 33.4 2 46 .5 12.6 1.4 35.6 1.9 51 .6 15.4 1.5 39.3 2.1 53 .6 13.7 1.5 36.5 2 50.5s1.4 37 2 51c.6 14 1.5 36.1 2 49 .5 12.9 1.4 33 2 44.5.5 11.5 1.4 30.9 2 43 .6 12.1 1.5 31 2 42 .6 11 1.5 30.1 2 42.5.5 12.4 1.4 34 2 48 .6 14 1.5 41.7 2 61.5.6 19.8 1.3 71.8 1.7 115.5.4 53.9.2 90-.6 112-.6 17.9-1.6 38.6-2.1 46-.6 7.4-1.5 19.6-2.1 27-.5 7.4-1.4 17.5-2 22.5-.5 5-1.4 12.8-2 17.5-.5 4.7-1.9 13.7-3.1 20-1.1 6.3-2.7 13.5-3.5 16-.9 2.5-3 6.7-4.7 9.4-1.7 2.7-4.7 6.1-6.6 7.6-1.9 1.5-4.5 3-5.7 3.4-1.3.3-2.3 1.2-2.3 1.8 0 .7-4.3 2.8-9.7 4.6-7.6 2.5-12.8 3.5-22.8 4.3-7.2.6-22.7 1.5-34.5 1.9-11.8.5-28.5 1.1-37 1.4-8.5.3-28.5 1-44.5 1.6-16 .6-37.1 1.5-47 2-9.9.6-24.5 1.5-32.5 2s-21.7 1.4-30.5 2c-8.8.5-23.9 1.4-33.5 2-9.6.5-27.4 1.4-39.5 2-12.1.6-25.6 1.5-30 2-4.4.6-10.5 1-13.5 1s-9.5.5-14.5 1c-5 .6-12.4 1.5-16.5 2s-11.8 1.4-17 2c-5.2.6-13.3 1.5-18 2-4.7.5-13 1.4-18.5 1.9-5.5.6-15.4 1.5-22 2.1-6.6.6-17.4 1.5-24 2.1-6.6.5-16.3 1.4-21.5 1.9-5.2.5-16 1.4-24 2-8 .6-22.3 1.2-31.8 1.3-9.4.1-17.2.5-17.2.9 0 .5-1.6.8-3.5.8s-3.5-.3-3.5-.8c0-.4-20.1-1.1-44.7-1.5-24.7-.4-55.4-1.2-68.3-1.7-12.9-.6-29.6-1.4-37-2-7.4-.5-19.1-1.4-26-2-6.9-.5-17.2-1.4-23-2-5.8-.5-15.5-1.4-21.5-1.9-6-.6-16-1.5-22-2.1-6-.6-15.3-1.5-20.5-2-5.2-.5-14-1.4-19.5-2-5.5-.6-13.6-1.5-18-2s-11.7-1.4-16.3-2c-4.5-.5-11.7-1.4-15.9-1.9-4.3-.5-11.8-1.5-16.8-2.1-5-.6-12.6-1.5-17-2-4.4-.6-12.3-1.5-17.5-2.1-5.2-.5-14.7-1.4-21-1.9-6.3-.5-18.2-1.4-26.5-2-8.2-.6-24.5-1.6-36-2.2-11.5-.6-51.1-1.3-88-1.5-41.3-.3-76.6-.1-92 .6-13.7.6-37.1 2-52 3.1-14.9 1.1-32.4 2.5-39 3-6.6.6-15.8 1.5-20.5 2-4.7.6-12.6 1.1-17.5 1.2-5.3.1-9.9-.3-11.2-1-1.3-.7-2.3-2-2.3-3 0-1.5 1.2-1.7 8.3-1.9 4.5-.2 11.6-.7 15.7-1.2 4.1-.6 12.2-1.5 18-2.1 5.8-.5 14.1-1.5 18.5-2 4.4-.6 10.4-1 13.3-1 4.5 0 5.2-.3 5.2-2 0-1.9-.7-2-15.7-2-8.7-.1-26.4-.7-39.3-1.6-12.9-.8-26.4-1.9-30-2.3-3.6-.5-8.4-1.4-10.8-2-2.3-.6-5.7-2.2-7.5-3.5-1.7-1.4-4.3-4.3-5.7-6.5-1.4-2.2-3.2-4.1-4-4.1-1.3 0-1.4 1.3-.8 8.5.5 4.7 1.4 9.7 2.2 11.2.8 1.6 3.5 4.4 6 6.3 2.6 1.9 4.6 3.7 4.6 4 0 .3-1.9.1-4.2-.3-2.4-.5-5.6-2-7.2-3.5-1.6-1.5-3.8-4.7-4.9-7.2-1.8-3.9-2.1-7.1-2.4-25.5-.3-11.5 0-33.8.6-49.5.6-15.7 1.5-41.1 2.1-56.5.6-15.4 1.5-28.7 1.9-29.5.4-.8.5-20.6.3-44s-.8-49.3-1.3-57.5c-.5-8.3-1.3-22.2-1.9-31-.6-8.8-1.5-22.3-2.1-30-.5-7.7-1.4-19-1.9-25s-1.4-18.4-2-27.5c-.5-9.1-1.5-22.9-2-30.8-.6-7.8-1.5-20.8-2-28.9-.6-8.2-1.6-19.8-2.2-25.8-.6-6-.8-13.9-.6-17.5.3-3.6.2-7.3-.3-8.3-.5-.9-1.4-8.3-1.9-16.4-.6-8.2-1.3-20.4-1.6-27.3-.2-6.9-.9-15.9-1.5-20s-.9-10.4-.6-14c.3-3.6.1-7-.4-7.5s-1.1-7.5-1.4-15.5c-.4-8-1-18.3-1.5-23-.4-4.7-1.3-17-2-27.5-.6-10.5-1.6-23-2.1-28s-.9-12.4-.8-16.5c.1-4.1-.1-8-.4-8.5-.3-.5-1.1-8.9-1.7-18.5-.6-9.6-1.5-24-2.1-32-.5-8-1.3-21.5-1.9-30-.5-8.5-1.4-22.7-2-31.5-.6-8.8-1.5-23.9-2-33.5-.6-9.6-1.5-25.6-2-35.5-.6-9.9-1.5-29.3-2.1-43-.6-13.8-1.4-36.9-1.9-51.5-.4-14.6-1.4-57.8-2-96-1-54.9-1-94 0-186 .7-64.1 1.3-120.1 1.4-124.5.1-4.4-.3-10.4-.9-13.3q-1-5.3 0-6.8t2.8-.7c1 .4 2.5 2.6 3.3 4.8 1.3 3.4 1.5 8.9 1.1 37-.3 18.1-1.1 65-1.7 104-.8 46.3-1 102.4-.5 161 .4 49.5.8 92.9 1 96.5.1 3.6.7 19.8 1.3 36 .7 16.2 1.6 39.2 2.1 51 .6 11.8 1.5 30 2.1 40.5.6 10.5 1.5 26.6 2 36 .5 9.4 1.4 24.3 2 33.3.5 8.9 1.4 23.3 2 32 .5 8.6 1.5 23.6 2.1 33.2.7 9.6 1.3 22.5 1.4 28.5.1 6 .7 14.8 1.3 19.5.6 4.7 1.6 16.6 2.2 26.5.6 9.9 1.6 23.6 2.1 30.5.6 6.9.9 14.8.9 17.5-.1 2.7.3 8.2.9 12 .7 3.8 1.2 10.8 1.1 15.5 0 4.7.5 11.9 1.1 16 .6 4.1.8 10.2.6 13.5-.3 3.3-.2 6.5.3 7s1.4 8.9 2 18.5c.7 9.6 1.3 22.2 1.5 28 .3 5.8.7 11.6 1 13 .3 1.4 1 9.5 1.6 18 .7 8.5 1.3 20.6 1.5 26.8.2 6.1.6 11.7.9 12.2.3.5.9 7.9 1.5 16.3.5 8.3 1.4 20.8 2 27.7.6 6.9 1.5 19 2.1 27 .5 8 1.4 20.8 1.9 28.5.6 7.7 1.5 21 2.1 29.5.6 8.5 1.2 23.9 1.3 34.2 0 10.2.5 19 .9 19.5.4.4.7 13.3.7 28.5 0 24.1.2 27.8 1.5 27.8 1.1 0 1.5-1.1 1.5-3.8 0-2 .5-6.4 1-9.7.5-3.3 1.9-14.5 2.9-25 1.1-10.5 2.5-24.2 3-30.5.6-6.3 1.5-17.6 2.1-25 .5-7.4 1.4-23.2 1.9-35 .6-11.8 1.3-58.4 1.6-103.5.3-45.9.1-104.2-.5-132.5-.6-27.8-1.5-59.3-2-70-.5-10.7-1.4-27.2-2-36.5-.5-9.3-1.5-23.3-2-31-.6-7.7-1.5-19.8-2-27-.5-7.2-1.4-18.8-1.9-26-.6-7.2-1.5-18.4-2.1-25-.5-6.6-1.6-19.9-2.4-29.5-.9-9.6-2-21.8-2.6-27-.5-5.2-1.4-14.2-2-20-.6-5.8-1.9-18.8-3-29s-2.4-22.8-3-28c-.6-5.2-1.5-13.8-2.1-19-.5-5.2-1.4-12.5-2-16.3-.5-3.7-.9-8.5-.9-10.7 0-2.2-.4-6.1-1-8.8-.5-2.6-1.4-9.9-2-16.2-.6-6.3-1.5-14.4-2-18-.5-3.6-1.4-11.2-2-17-.6-5.8-1.7-16.6-2.5-24-.8-7.4-1.9-18.7-2.5-25-.6-6.3-1.5-17.4-2.1-24.5-.5-7.1-1.4-19.5-1.9-27.5-.6-8-1.5-24-2-35.5-.6-11.5-1.5-33.1-2-48-.6-14.9-1.4-53.5-1.9-86-.4-32.4-.5-71-.2-85.7.5-21.8.9-27 2.1-28.3 1.2-1.3 2-1.4 6.5.6v23.2c0 12.8.6 37.4 1.3 54.7.7 17.3 1.7 42.3 2.2 55.5.5 13.2 1.4 32.1 1.9 42 .6 9.9 1.5 26.1 2.1 36 .6 9.9 1.5 25 2 33.5s1.5 20.9 2 27.5c.6 6.6 1.5 17.4 2 24 .6 6.6 1.5 16.3 2 21.5.6 5.2 1.5 13.5 2 18.5.6 5 1.5 12.8 2 17.5.5 4.7 1.4 12.5 2 17.5.5 5 1.4 12.4 2 16.5.6 4.1 1.5 11.5 2.1 16.5.5 5 1.4 12.4 1.9 16.5s1.3 11.3 2 16c.6 4.7 1.5 12.3 2.1 17 .5 4.7 1.4 12.8 1.9 18 .5 5.2 1.4 13.3 2 18 .5 4.7 1.4 12.1 1.9 16.5.6 4.4 1.7 15 2.6 23.5.9 8.5 2 19.1 2.5 23.5.5 4.4 1.4 13 1.9 19 .6 6 1.5 16.6 2.1 23.5.6 6.9 1.5 16.8 2 22 .5 5.2 1.4 16.2 2 24.5.6 8.2 1.5 19.7 2 25.5.5 5.8 1.4 17.5 2 26 .5 8.5 1.4 22 2 30 .5 8 1.4 23 2 33.5.5 10.5 1.4 30.5 2 44.5.6 14 1 74.1 1 133.5 0 61.7-.4 117.2-1 129.5-.6 11.8-1.8 31.6-2.6 44-.9 12.4-1.9 26.8-2.4 32-.5 5.2-1.4 14-2 19.5-.5 5.5-1.4 13.6-1.9 18-.6 4.4-1.4 12-2 17-.6 5-1.5 13-2.1 18-.6 5-1.5 13.3-2.1 18.5-.5 5.2-1.4 15.1-1.9 22-.6 6.9-1.5 18.6-2.1 26-.6 7.4-1.3 25.2-1.7 39.5-.4 14.3-.4 31.2 0 37.5.6 9.1 1.1 11.9 2.5 13.3 1 1 4.6 2.1 8.3 2.7 3.6.6 22.7 1.4 42.5 1.9s48.1 1 63 1.1c14.9 0 27.2.3 27.5.5.3.2 30.4.9 67 1.4 36.6.6 81.4 1.3 99.5 1.6 18.1.3 57.8 1 88 1.5 30.3.5 82.5 1.5 116 2.2 43.3.8 88.2.9 154.5.2 51.4-.5 125.5-.9 164.5-.9s90.3.6 114 1.4c23.7.7 64.4 1.6 90.5 2 26.1.3 60.3.3 76-.1 15.7-.4 35.5-1.1 44-1.7 8.5-.6 21.1-1.5 28-2.1 6.9-.5 20.8-1.5 31-2.2 10.2-.7 25-1.3 33-1.3 10.8 0 14.8-.3 15.5-1.3.7-.9 4.7-1.3 14.5-1.4 7.4-.1 15.7.3 18.5 1 2.7.6 12.2 2.7 21 4.7 8.8 2.1 19.6 4.4 24 5.2 4.4.8 14.1 1.5 21.5 1.5 8.4.1 15.7-.4 19.4-1.3 3.2-.8 6.2-1.9 6.7-2.4.5-.6-2.4-4.5-7.6-10-4.6-5-12.6-13.7-17.7-19.4-5.1-5.7-10.6-11.3-12.1-12.5-2.2-1.6-4.3-2.1-9-2.1-5.2 0-7.6.7-14.7 4.1-4.7 2.2-11.7 6.1-15.5 8.6-3.8 2.5-9.1 6.2-11.8 8.2-2.6 2-5.8 4.1-7.2 4.6q-2.5 1-4.5 0c-1.1-.5-2.5-1.9-3-3s-.7-2.9-.3-4c.5-1.1 4.2-4.8 8.3-8.1 4.1-3.3 11.9-8.8 17.2-12.2 5.4-3.4 9.7-6.8 9.5-7.5-.1-.7-4.7-3.3-10.2-5.8-5.5-2.5-13.2-5.6-17-7-3.8-1.4-11-3.6-16-4.9-6.5-1.7-9.6-3.1-11.3-5-1.2-1.4-2.2-3.1-2.2-3.8-.1-.6.7-2.2 1.7-3.5 1.2-1.5 4.3-3 9.3-4.3 4.1-1.1 10.7-2.5 14.5-3 3.8-.6 9.9-1.5 13.5-2 3.6-.5 13.6-1.5 22.3-2.2 12.1-.9 16-1.6 16.7-2.7.4-.8 3.3-8.5 6.3-17s6.9-18.9 8.6-23c1.7-4.1 3.1-8.8 3.1-10.5 0-1.7.5-3.8 1.2-4.8.7-.9 2.6-2.1 4.3-2.6 1.7-.5 3.6-.5 4.5 0 1 .6 1.7 3.3 2.2 8.6.4 4.3 1.2 10.7 1.7 14.3.6 3.6 1.5 9.9 2.1 14 .5 4.1 1.2 9.5 2.2 16.5l23.2-.3c12.7-.2 23.4-.6 23.7-1 .4-.4 1.4-13.5 2.4-29.2.9-15.7 2-32.5 2.5-37.5s1.4-14.6 2-21.5c.6-6.9 1.5-16.3 2-21 .5-4.7 1.6-18.6 2.5-31 1.1-15.7 1.5-28.6 1.1-42.5-.3-11-.9-45-1.2-75.5-.4-30.5-.8-55.7-.9-56-.2-.3-.6-10.6-.9-23-.4-12.4-.9-24.8-1.2-27.5-.2-2.8-.9-16-1.4-29.5-.6-13.5-1.5-34.4-2-46.5-.6-12.1-1.5-31.5-2-43-.6-11.5-1.4-32.7-2-47-.5-14.3-1.4-39-2-55-.6-16-1.5-41.8-2-57.5-.6-15.7-1.4-44.5-2-64-.5-19.5-1.5-50.1-2-68-.6-17.9-1.5-45.3-2-61-.5-15.7-1.4-41.3-2-57-.6-15.7-1.5-41.5-2-57.5-.6-16-1.5-48.4-2.1-72-.5-23.6-1.3-68.4-1.7-99.5-.4-31.1-.4-74.5-.1-96.5.4-22 1.1-42.9 2.4-52.7l-18.5.6c-10.2.3-32.9 1-50.5 1.6-22.6.7-39.5.7-57.5 0-14-.6-31.6-1.5-39-2-7.4-.4-26.1-1.6-41.5-2.5-16.1-1-32.9-1.4-39.5-1.1-6.3.3-15.5 1-20.5 1.6-5 .5-13.5 1.4-19 2-5.5.5-15.2 1.5-21.5 2-6.3.6-17.6 1.5-25 2.1-7.4.5-20 1.4-28 1.9-8 .6-24.4 1.4-36.5 1.9-12.1.6-29.4 1.3-38.5 1.6-9.1.2-33.2.7-53.5 1-20.3.3-65.3.7-100 1-34.7.3-70 1-78.5 1.5s-23.2 1.4-32.5 2c-9.3.6-24.6 1.5-34 2-9.4.5-25.5 1.4-36 2l-42 2c-12.6.5-34 1.4-47.5 2-13.5.6-54.9 1.3-92 1.6-41.3.4-86.3.2-116-.5-26.7-.7-56.8-1.6-67-2.1-10.2-.6-26.8-1.4-37-1.9-10.2-.6-25.5-1.5-34-2.1-8.5-.5-21.8-1.4-29.5-2-7.7-.5-18.9-1.4-25-2-6.1-.5-15.7-1.4-21.5-1.9-5.8-.6-13.2-1.3-16.5-1.6-3.3-.3-8.9-1-12.5-1.5-3.6-.5-10.6-1.4-15.5-2-4.9-.6-12.1-1.5-16-2-3.9-.6-14.2-2.2-23-3.6-8.8-1.5-17.8-3-20-3.4-2.2-.4-10.5-2.2-18.5-4-9.4-2.2-18-3.5-24.5-3.7-5.5-.2-11-.6-12.3-.8-1.2-.3-2.2-1.2-2.2-2 0-.9-.9-1.5-2.2-1.5-1.3 0-4.8-.7-7.8-1.6-3-.9-6.3-2.3-7.4-3.2-1.2-1.1-3.6-1.7-7-1.7-2.8 0-7.6.3-16.1 1.4l5.5-1.5c3-.8 7.8-2.2 10.5-3 2.8-.9 7.4-2 10.3-2.5 2.8-.5 7.8-1.4 11-1.9 3.1-.6 9.5-1.5 14.2-2.1 4.7-.6 13-1.5 18.5-2s15.6-1.3 22.5-1.9c6.9-.5 20.8-1.4 31-2 10.2-.5 27.3-1.4 38-2 10.7-.6 31.6-1.5 46.5-2 14.9-.6 44.4-1.3 65.8-1.7 21.3-.5 38.7-1.1 38.7-1.6 0-.4 42.5-.7 94.5-.7zm668 41.9c-14.3.6-34.8 1.6-45.5 2.1-10.7.6-25.7 1.3-33.3 1.7-10.6.5-13.8.9-13.7 2 0 1 3.3 1.3 16.3 1.2 8.9 0 30.6-.5 48.2-1s40.3-1.3 50.5-1.9c10.2-.5 25.2-1.4 33.5-2 8.2-.5 17.6-1.2 20.7-1.5 4.3-.4 5.8-.9 5.8-2 0-1-.9-1.4-2.8-1.3-1.5.1-14.2.5-28.2.9-14 .3-37.2 1.2-51.5 1.8zM1683 1713.5c-.9 2.2-2.7 4.9-4 6-2 1.9-3.4 2-18.9 1.7-9.1-.2-18.3-.1-20.4.2-2 .3-3.7 1.2-3.7 1.9 0 .6 5.8 4 12.8 7.3 7 3.4 14.2 7.4 16.1 9 2.6 2.2 4.4 2.9 7 2.7 2-.1 7.3.8 11.9 2 4.5 1.2 8.2 2.7 8.2 3.2 0 .6 3.4 4 7.5 7.8 4.1 3.7 8 6.7 8.5 6.7.6 0 .7-1.1.3-2.7-.3-1.6-.9-4.8-1.2-7.3l-.6-4.5c-11.4-.8-13.9-1.5-14.4-2.5-.5-.9-.4-3 .3-5 .6-1.9 2.9-5.3 5.1-7.4 2.2-2.2 7-5.9 10.7-8.3 3.8-2.3 6.7-4.9 6.5-5.5-.2-.9-3.2-1.5-8.8-1.8-4.6-.3-9.4-1.1-10.7-1.7-1.2-.7-2.7-2.2-3.2-3.3-.5-1.1-1-6.7-1-12.5s-.4-10.5-.8-10.5-1.8 4.6-3.1 10.3c-1.3 5.6-3.2 12-4.1 14.2zm60.9 10.3c-3.1 2-10.7 6.9-16.9 10.7-6.2 3.9-11.5 7.6-11.9 8.3-.3.7.9 2.6 3 4.5 1.9 1.8 6.2 8.1 9.4 14.2 3.3 6.1 7.1 14.6 8.6 19 1.7 5 2.4 8.7 1.9 10-.4 1.1-.6 2.6-.4 3.3.2.6 1.1 1.2 1.9 1.2.8 0 3-1.5 4.8-3.2 1.9-1.8 4.1-5.3 4.9-7.8.9-2.5 2.1-7 2.6-10 .6-3 1.6-8.6 2.1-12.5.6-3.8 1.5-10.8 2.1-15.5.6-4.7 1.5-11.6 2.1-15.5.6-3.8.9-8.5.7-10.4-.1-1.9-.8-3.6-1.3-3.7-.5-.2-2.6.6-4.5 1.7s-6 3.7-9.1 5.7zm-103.1 85c1.4.1 2.1-.3 1.9-1-.2-.7-1.4-1.5-2.6-1.6q-2.2-.4-1.8 1c.2.7 1.3 1.4 2.5 1.6zm-848.1 10.6c.5.3 4.8 1 9.8 1.5 5 .6 12.8 1.5 17.5 2.1 4.7.6 12.3 1.5 17 2.1 4.7.5 13.5 1.4 19.5 2 6 .5 15.7 1.4 21.5 2 5.8.5 15 1.4 20.5 1.9 5.5.6 12.5 1.2 15.5 1.5 3 .2 10.9.9 17.5 1.5s17.2 1.5 23.5 2c6.3.6 18.7 1.4 27.5 2 8.8.5 26.4 1.4 39 1.9 12.7.6 47.3 1.3 77 1.6 30.7.3 64.8.1 79-.5 13.8-.6 30.6-1.5 37.5-2 6.9-.6 17.7-1.4 24-2 6.3-.5 17.3-1.4 24.5-2 7.2-.6 17.5-1.5 23-2 5.5-.6 14.3-1.5 19.5-2 5.2-.5 13.8-1.4 19-2 5.2-.6 13.8-1.5 19-2.1 5.2-.5 14-1.4 19.5-1.9s11.2-.9 12.8-.9c1.7-.1 2.7-.6 2.7-1.6 0-1.3-3.3-1.6-22.2-1.9-12.3-.3-41.6-1-65.3-1.8-26.2-.8-82.1-1.3-143-1.3-55 0-133.8.2-175 .5-41.2.3-98.9.1-128.1-.4-38.6-.6-53.2-.5-53.3.3-.1.6.2 1.3.6 1.5zM1588.1 383c30.3 0 39 .3 39.3 1.3.3.9-8.2 1.3-39.5 1.5-35.1.2-39.8 0-39.3-1.3s5.8-1.5 39.5-1.5zm-54.1 3.4c5.8 0 8 .1 5 .3-3 .2-7.7.2-10.5 0-2.7-.2-.3-.3 5.5-.3zm-36.5.9c1.1-.1 3.3.3 5 .7 2.4.6 1.6.8-3.5.9-3.6.1-9 .3-12 .6-5.2.4-5.1.4 1.5-.9 3.8-.7 7.9-1.3 9-1.3zm16.5-.1c6.9 0 7.1.1 3 .8-2.5.5-5.8.5-7.5 0-2.3-.6-1.2-.8 4.5-.8zm-32.5 2.1-7 .7c-3.8.4-9.2.7-17 .7l5-.7c2.8-.4 8.2-.7 19-.7zm-36.1 1.8c4.4 0 7.7.1 7.5.3-.2.2-12.6 1.1-27.4 2.1-14.8.9-28.3 1.5-30 1.3-1.7-.2 3.1-.7 10.5-1.2s17.5-1.2 22.5-1.6c5-.4 12.6-.8 16.9-.9zm254.4 53.9c.1 0 1.1.5 2.2 1 1.1.6 2 1.8 2 2.8 0 .9-1.9 4.6-4.3 8.1-2.3 3.5-5.9 9.4-7.9 13-2 3.6-5.9 11.2-8.7 16.9-2.8 5.6-5.1 10.9-5.1 11.7 0 .8 1 2 2.3 2.6 1.2.7 4.8 3.3 7.9 5.8 3.1 2.5 9.7 7.2 14.7 10.4 6.2 3.8 9.4 6.6 10.2 8.5.5 1.5.7 3.8.4 5.2-.4 1.4-1.6 3.5-2.8 4.8-1.2 1.2-3.5 2.5-5.2 2.8-1.7.3-6.2-.2-10-1.1-3.8-.9-11.5-3.2-17-5-5.5-1.8-10.3-3.2-10.7-2.9-.5.2-.8 2.3-.8 4.7 0 2.3-.5 6.9-1.1 10.2-.6 3.3-1.8 9.4-2.6 13.5-.9 4.1-1.9 10.2-2.3 13.5-.4 3.3-1.4 7.5-2.3 9.3-1 1.7-3.1 4.2-4.9 5.5-3.1 2.2-3.1 2.2-2.4 8.7.4 3.6 1.1 13.3 1.7 21.5.5 8.3 1.3 22 1.9 30.5.5 8.5 1.4 22.5 2 31 .5 8.5 1.4 22.5 2 31 .5 8.5 1.4 22.6 2 31.3.5 8.6 1.5 22.8 2 31.5.6 8.6 1.5 22.6 2 31 .6 8.3 1.4 21.8 2 30 .5 8.1 1.4 21.9 2 30.7.6 8.8 1.5 24.1 2 34 .5 9.9 1.4 27.5 2 39 .6 11.6 1.5 30.2 2 41.5.4 11.3 1.4 34.9 2.1 52.5.9 21.3 1.3 68.9 1.3 142 0 68.9-.5 126.1-1.4 153-.7 23.7-1.3 69.6-1.3 102 0 37.3.4 65.1 1.2 75.5.7 9.1 1.5 23.3 1.7 31.5.3 11.1.1 15.6-.9 17.5-.8 1.6-2.1 2.5-3.6 2.5-1.4 0-3.2-1.1-4.5-2.8-1.7-2.4-2.2-4.9-2.9-15-.4-6.7-1.2-19.8-1.9-29.2-.6-9.5-1.1-42.3-1.2-74.5 0-31.6.5-71.4 1.2-88.5.6-17 1.7-51.2 2.4-76 .7-24.7 1.3-65.2 1.3-90 0-24.7-.6-64.6-1.4-88.5-.7-23.9-1.7-52.9-2.2-64.5-.4-11.5-1.3-30-1.9-41-.6-11-1.5-28.1-2-38-.5-9.9-1.4-26.3-2-36.5-.5-10.2-1.4-26.6-2-36.5-.6-9.9-1.5-25.3-2-34.2-.6-9-1.5-23.8-2-33-.6-9.3-1.5-24.7-2-34.3-.6-9.6-1.5-25.8-2-36-.6-10.2-1.5-27.7-2-39-.6-11.3-1.5-29.5-2-40.5s-1.4-31.5-1.9-45.5c-.6-14-1.4-28-1.9-31s-1.4-6.6-2-8c-.6-1.4-.8-2.8-.4-3.3.4-.4.2-2.6-.5-5-.7-2.3-2.1-8-3.1-12.7-1.1-4.7-2.6-11.1-3.3-14.4-.8-3.2-2-6.3-2.8-7-1-.8-4-.8-12 .2-5.8.7-12.4 1.5-14.6 1.8-2.2.3-6 .9-8.5 1.4-2.5.5-7.2 1.2-10.5 1.8-3.3.5-6.6 1.2-7.2 1.5-.7.4-1.3 1-1.3 1.5 0 .4 3.9 1 8.7 1.5 4.9.4 11.3 1.1 14.3 1.6 3 .4 7.5 1.7 10 2.8 3.2 1.5 4.1 2.3 3 2.7-.8.4-8.2.5-16.5.1-8.2-.3-40.9-.9-72.5-1.4-31.6-.5-79.1-1.5-105.5-2.2-30.2-.9-72.2-1.3-113.5-1-36 .2-110 .4-164.5.4-54.5.1-117.5-.4-140-1-22.5-.7-73.6-1.7-113.5-2.4-57.2-.9-84.8-.9-131 .1-32.2.6-66.6 1.6-76.5 2-9.9.5-26.1 1.3-36 1.9-9.9.6-24.5 1.6-32.5 2.1-8 .6-20.4 1.5-27.5 2-7.1.5-18.2 1.4-24.5 2-6.3.6-16.7 1.5-23 2-6.3.5-16.9 1.4-23.5 2-6.6.6-17.2 1.5-23.5 2-6.3.5-21.6 1.4-34 2-12.4.6-28.8.8-36.5.5-8.6-.4-15.3-1.2-17.5-2.1-1.9-.8-4.1-1.2-4.7-.9-.7.3-1.5 2.6-1.7 5.3-.3 2.6-.9 8.5-1.5 13.2-.6 4.7-1.5 11.9-2.1 16-.5 4.1-1.4 10-1.9 13s-1.4 8-1.9 11c-.6 3-1.6 7.1-2.3 9-.6 1.9-1.7 4.1-2.3 4.9-.6.7-2.3 2-3.8 2.7-2.4 1.2-3.2 1.2-5.8-.1-1.6-.8-3.7-3-4.6-4.7-1.4-2.9-1.6-6.1-1.1-23.8.4-11.3 1-25.9 1.5-32.5.7-8.6.6-12.2-.2-12.7-.6-.3-1.8-.2-2.6.2-.8.5-6.2 3-12 5.5-5.8 2.6-11.6 5.4-13 6.3-1.4.9-7.7 4.2-14 7.4-11.4 5.7-11.5 5.7-14.2 4-1.5-.9-3.2-2.7-3.8-3.9-.5-1.3-.7-3.3-.3-4.5.3-1.3 3.3-6.1 6.5-10.8 3.2-4.7 8.1-11.6 10.9-15.5 2.7-3.8 7.7-11 17.2-25l-1.6-4c-.8-2.2-3.6-8.9-6.2-15-2.6-6-6.2-15.4-11.5-30.5l2.5-4.5c1.8-3.3 3.1-4.5 4.8-4.5 1.2 0 3.6.8 5.2 1.8s12.1 8.9 23.3 17.5c11.1 8.6 20.8 15.7 21.5 15.7.6 0 6.6-5 13.2-11.1s14.7-13.1 18-15.7c5-4 6.7-4.7 10.3-4.7 3.5 0 4.8.5 6.4 2.5 1.6 2 1.9 3.6 1.6 8-.3 4.2-1.8 8.4-6.2 17.5-3.2 6.6-7.2 14.8-8.9 18.3-1.8 3.4-4.9 8-6.9 10.2-2.1 2.2-3.6 4.5-3.3 5 .3.6 1.3 1 2.3 1 1 0 2.2-.4 2.8-.9.5-.5 2.7-1.1 4.9-1.5 2.2-.3 6.7-.9 10-1.4 3.3-.5 6.6-1.2 7.3-1.5.6-.4 3.6-.2 6.5.4 2.8.5 7.5 1.5 10.2 2 2.8.6 9.7 2.6 15.5 4.5 8.9 2.8 11.1 3.9 14.3 7.4 2.8 3 3.7 4.8 3.6 7.3-.1 1.7-.1 3.9 0 4.7.1 1.3 1.1 1.4 6.3.7 3.5-.5 11.7-1.3 18.3-1.8 6.6-.6 16.5-1.4 22-1.9s14.7-1.4 20.5-2c5.8-.5 15.9-1.4 22.5-2 6.6-.5 17.6-1.4 24.5-2 6.9-.6 19.3-1.5 27.5-2.1 8.3-.5 21.3-1.4 29-1.9 7.7-.5 26.4-1.5 41.5-2.2 18.6-.9 59.6-1.3 126.5-1.3 64.1 0 117.1.5 150.5 1.5 36.6 1.1 84.9 1.4 167 1.3 63.5 0 145-.3 181-.5 40.7-.2 81.8.2 108.5 1 23.7.8 63.9 1.7 89.5 2.1 25.6.4 46.8.6 47.3.4.4-.2 0-1.8-1-3.5-1.4-2.9-1.4-3.6-.2-5.7.9-1.6 4.8-3.9 10.9-6.7 5.2-2.3 14.9-6.5 21.5-9.3 6.6-2.9 15.3-6.7 19.3-8.6 3.9-1.9 7.2-3.9 7.2-4.5 0-.5-4.6-4-10.2-7.6-5.7-3.7-12.3-8.3-14.8-10.4-2.5-2-5.1-5.2-5.9-7.1-1.1-2.6-1.1-3.9-.2-5.6.6-1.3 2.7-3 4.6-3.8 2.7-1.1 4.4-1.3 7.3-.5 2 .5 5.3 1 7.2 1 1.9 0 4.8.4 6.5 1 1.7.5 9.1 2.6 16.5 4.6 7.4 2.1 14.2 3.7 15 3.7.8 0 7.1-3.3 14-7.3s13.8-8 15.5-8.8c1.7-.8 4.3-2.5 6-3.6 1.6-1.2 6.1-3.8 10-5.8 3.8-2.1 7.1-3.8 7.3-3.8zm-51.3 45.6c-1.7.3-4 .3-5.2 0-1.3-.3-2.5-.1-2.8.4-.3.6.5 1.6 1.8 2.3 1.2.8 2.8 2.7 3.5 4.3.8 1.6 1.1 4.1.8 5.7-.3 1.5-1.6 3.1-2.8 3.6-1.4.6-3.8.6-6.3-.1-2.2-.5-5.3-1.2-7-1.4-2.2-.3-5.2.7-10.9 3.8-4.4 2.4-8.1 4.9-8.3 5.6-.2.9 1.9 1.1 9.5.5 5.3-.3 10.9-.3 12.5 0 1.5.4 4.3 2.2 6.3 4 2.9 2.6 4.2 5.2 6.7 13 1.8 5.5 3.7 9.7 4.5 9.7.6 0 1.5-1.2 1.8-2.7.3-1.6 1.4-5.6 2.5-9 1-3.5 2.4-6.5 2.9-6.8.5-.3 1.5-1.6 2-3 .6-1.5 2.7-3.2 5-4.2 2.2-1 4-2.4 4-3 0-.7-1.2-2.1-2.6-3-1.4-1-3.3-2.9-4.2-4.3-.8-1.4-1.5-4-1.4-5.7.1-1.8 1.2-5.2 2.3-7.5 1.2-2.4 3.4-6 4.8-8.1 1.8-2.6 2.3-4.1 1.6-4.7-.7-.6-4 .9-9.5 4.5-4.7 3-9.8 5.8-11.5 6.1zM349.6 503.5c5.9 11.7 7.5 15.7 7.1 18-.2 1.7-2.9 6.2-5.8 10.1-3 3.9-6.7 8.7-8.4 10.8-2.4 3-2.8 3.9-1.7 4.9 1 .9 2.8.4 8.5-2.5 4-2 10.5-5 14.5-6.7 3.9-1.7 8.8-3.1 10.7-3.1 1.9 0 4.3.5 5.3 1.1 1.4 1 2.4.5 5.7-2.5 2.2-1.9 5.2-3.8 6.8-4.1 1.5-.3 3.1-1.3 3.6-2.2.6-1.2.3-2.9-.9-5.3-1.3-2.7-1.5-4.2-.7-6.5.5-1.6 1.6-4.6 2.4-6.5 1-2.4 1.1-3.8.3-4.5-.7-.7-2.8.8-6.5 4.5-5 5-6 5.5-9.9 5.5-3.7 0-5.2-.7-11.6-6-4-3.3-11.2-9.5-15.9-13.8-4.7-4.2-9.2-7.7-9.8-7.7-.7 0-1.3.3-1.3.8 0 .4 3.4 7.5 7.6 15.7zm47.4 45c0 .8.8 1.7 1.8 1.9.9.3 7.8.7 15.2 1.1 7.4.4 15.6.4 18.3.1 2.6-.3 4.7-1 4.7-1.6 0-.5-1.7-1-3.7-1-2.1 0-5.4-.4-7.3-.9-1.9-.5-8-1.1-13.5-1.4-5.5-.3-11.2-.3-12.7-.1-1.7.2-2.8 1-2.8 1.9zm8.3 16c.5 1.1 1.4 2.2 1.8 2.5.5.3 1.5 4.3 2.3 9 .8 4.7 1.9 16.4 2.5 26 .6 9.6 1.5 50.5 2.1 90.8.5 40.2.8 73.5.6 74-.2.4 0 38.5.5 84.7.6 46.2 1.4 92.6 1.9 103 .5 10.5 1.4 28.2 2 39.5.6 11.3 1.5 27.9 2 37 .6 9.1 1.4 23 1.9 31 .6 8 1.5 21.3 2.1 29.5.6 8.3 1.5 20 2 26 .6 6.1 1.4 16 2 22 .5 6.1 1.4 15.7 1.9 21.5.6 5.8 1.5 15.7 2.1 22 .6 6.3 1.5 16.2 2.1 22 .5 5.8 1.3 14.8 1.8 20 .5 5.2 1.4 14 2.1 19.5.6 5.5 1.5 14.7 2.1 20.5.5 5.8 1.3 14.6 1.9 19.5.5 5 1.4 13.5 2 19 .6 5.5 1.5 14.5 2 20s1.4 14.3 1.9 19.5c.6 5.2 1.5 14.2 2 20 .6 5.8 1.5 14.3 2.1 19 .6 4.7 1.4 12.8 2 18 .5 5.2 1.4 14.5 2 20.5.6 6.1 1.5 16 2.1 22 .6 6.1 1.4 34.9 1.7 64 .4 29.2.4 53.8 0 54.8-.6 1.3-1.2 1.5-2.8.7-1.3-.6-2.4-2.8-3.1-5.7-.7-2.8-1.5-22-2-45.8-.4-22.5-1.2-46.4-1.8-53-.5-6.6-1.5-17.4-2.1-24-.6-6.6-1.6-15.8-2-20.5-.5-4.7-1.4-12.5-2-17.5-.6-4.9-1.5-13-2-18-.5-4.9-1.4-12.8-1.9-17.5-.6-4.7-1.5-12.5-2-17.5-.6-4.9-1.5-12.8-2.1-17.5-.5-4.7-1.5-12.8-2-18-.6-5.2-1.5-13.3-2-18-.6-4.7-1.5-12.3-2.1-17-.5-4.7-1.4-12.8-1.9-18-.5-5.2-1.4-13.9-2-19.2-.5-5.4-1.5-14.2-2-19.5-.6-5.4-1.5-14.1-2-19.3-.5-5.2-1.4-14.3-2-20.2-.5-6-1.5-15.6-2-21.5-.6-6-1.5-16.2-2.1-22.8-.6-6.6-1.4-17.4-1.9-24-.5-6.6-1.4-19.2-2-28-.5-8.8-1.5-23.4-2-32.5-.5-9.1-1.4-25.3-2-36-.6-10.7-1.5-27.6-1.9-37.5-.5-9.9-1.5-32.4-2.2-50-.9-21.3-1.4-60.7-1.3-117.5 0-47 .4-109 .9-137.7.9-49.3.9-52.2-.7-52.7-1.7-.6-1.7-.8-.3-2.8 1.4-2 1.5-4.4.4-20.3-.6-9.9-.8-20.7-.4-24 .6-5.1.8-5.7 1.8-4zm1318 5 .8 90.5c.4 49.8 1.2 111 1.8 136 .6 25 1 52 .9 60-.1 10.9-.3 7.9-.9-12.5-.4-14.8-1.2-53.3-1.8-85.5-.6-32.2-1-87.7-.9-123.5zm3.8 312 1.3 34c.8 18.7 1.9 48.2 2.5 65.5.7 17.3 1.3 40.5 1.5 51.5.2 12.9 0 17.5-.5 13-.4-3.8-.8-13.3-.9-21 0-7.7-.8-29.3-1.6-48s-1.6-47.7-1.9-64.5zm6.9 191c.4 9.4 1.4 32.2 2.1 50.7.8 18.5 1 34 .6 34.5-.4.4-.8-1.7-.8-4.7.1-3-.6-20.8-1.4-39.5-.8-18.7-1.4-39.4-1.3-46 .1-11.8.1-11.7.8 5zm4.7 113c.8 9.9 1.6 20.5 1.7 23.5.2 3 .5 10 .9 15.5.4 8 .4 8.8-.3 4-.5-3.3-1.6-15.9-2.5-28-.8-12.1-1.4-24.5-1.4-27.5.1-3 .8 2.6 1.6 12.5zM1555 1535.2c6.9-.1 20.4.3 30 .8 9.6.6 20.6 1.6 24.5 2.1 3.8.6 11 1.9 16 3 4.9 1.1 10.6 2.4 12.5 2.9 1.9.5 4.6 1.7 5.9 2.7 1.9 1.4 2.2 2.4 1.7 4.6-.3 1.5-1.4 3.4-2.4 4.3-1.4 1.3-3.7 1.5-14.2 1.1-6.9-.2-23.3-.9-36.5-1.5-16.7-.8-40-.8-76.5-.1-28.9.5-62 1.4-73.5 1.9-11.6.6-29.1 1.5-39 2-9.9.5-29.9 1.5-44.5 2.2-14.6.7-53.1 1.2-85.5 1.2-32.5 0-74.8-.6-94-1.3-19.3-.7-43.1-1.7-53-2.1-9.9-.4-33.8-1.4-53-2.1-21.5-.8-64.1-1.4-110.5-1.3-41.5 0-91.5.6-111 1.3-19.5.7-49 1.7-65.5 2.2-16.5.5-44.9 1.3-63 1.9-18.2.5-45.6 1.4-61 2-15.4.5-39 1.5-52.5 2-13.5.6-31.5 1.5-40 2-8.5.4-29 1.3-45.5 2-16.5.6-34.7.9-40.5.6-5.8-.2-11.3-.7-12.3-1-.9-.3-1.7-1.3-1.7-2.1s.6-1.8 1.2-2.2c.7-.4 2.9-1.1 4.8-1.6s9.6-1.3 17-1.8c7.4-.4 20.9-1.3 30-1.8 9.1-.6 23-1.5 31-2.1 8-.6 20.8-1.5 28.5-2 7.7-.6 21.4-1.5 30.5-2 9.1-.6 24.6-1.5 34.5-2 9.9-.5 28.6-1.5 41.5-2 12.9-.6 34.3-1.5 47.5-2 13.2-.5 34.3-1.4 47-2 12.6-.6 31.3-1.5 41.5-2s31.5-1.4 47.5-2.2c17.6-.8 57.4-1.3 101.5-1.3 44.6 0 84.6.6 104 1.4 17.3.7 38.9 1.7 48 2.1 9.1.4 33.8 1.3 55 2.1 21.2.7 54.7 1.4 74.5 1.4 19.8-.1 48.1-.6 63-1.3 14.8-.7 34.9-1.7 44.5-2.2 9.6-.5 24.9-1.4 34-2 9.1-.5 26.3-1.4 38.2-2 12-.5 22.1-1.2 22.5-1.4.5-.3 14.7-.6 31.8-.7 17-.1 35.9-.5 42-.9 6-.4 16.6-.8 23.5-.8zm-1146.9 85.3c1.6.8 3.5 2.7 4.3 4.3.7 1.5 3.7 7.2 6.7 12.7 2.9 5.5 7.7 15.9 15.8 36l4.3-.3c2.4-.1 6.3-.7 8.8-1.3 2.5-.6 9.4-2.7 15.5-4.6 6-2 15.6-5.5 21.2-7.9 5.7-2.4 11.2-4.4 12.3-4.4 1.1 0 3.1.5 4.5 1 1.4.6 3.2 2.6 4.1 4.8 1.5 3.5 1.5 3.9-.5 7.7-1.2 2.2-8.6 10-16.9 17.7-8.1 7.5-17.3 15.6-20.5 18-3.2 2.3-5.8 4.5-5.8 4.8 0 .3 2.2 1.4 4.8 2.5 2.6 1 8.1 4.6 12.2 8 4.1 3.3 10.4 8.9 14 12.5 3.5 3.6 7.3 7.9 8.3 9.5 1 1.7 1.8 4.6 1.8 6.5 0 1.9-.9 5-2 6.8-1.5 2.4-3.3 3.6-7.3 4.8-5 1.6-5.6 1.6-14.2-.6-5-1.3-12.4-3.6-16.5-5.2s-11.6-4.8-16.5-7c-5-2.2-11-4.9-13.5-6.1-2.5-1.1-6.1-2.3-8-2.5-2.2-.4-4.4 0-6 1-1.4.8-4.8 5.3-7.6 9.9-2.8 4.6-6.6 11.6-8.4 15.4-1.9 3.9-4.1 7.8-4.9 8.8-.9 1-2.6 1.8-3.9 1.7-1.3 0-2.9-1.1-4-2.7-1.6-2.5-1.6-2.8.6-8.7 1.3-3.4 3.7-9.8 5.3-14.3 1.6-4.6 2.9-9.2 2.9-10.3 0-2-.7-2-31.3-1.9h-32.5c-.6-.1-2-1.3-2.9-2.8-.9-1.6-1.6-3.9-1.6-5.3.1-1.4 1.2-3.6 2.5-4.9 1.3-1.3 4.5-3.7 7.3-5.3 2.7-1.6 7.7-4.7 11-6.8 3.3-2.2 13.3-8.1 22.2-13.2q16.3-9.3 16.8-11.3c.2-1.1.5-3.7.5-5.7 0-2.1.4-5.7.9-8 .6-2.4 1.5-8.1 2.1-12.8.6-4.7 1.5-11 2.1-14 .5-3 1.5-8 2.1-11 .6-3 1.7-7.5 2.5-10s2.1-5 2.9-5.7c1.2-1 2.2-.9 4.5.2zm.9 58.5c-.6 7.4-1.5 15.3-2 17.5-.5 2.2-2.1 5.1-3.5 6.5-1.4 1.4-6.1 3.8-10.3 5.3-4.2 1.5-9.6 3.9-12 5.2-2.3 1.4-4.2 3-4.2 3.5 0 .6 1 1 2.2 1.1 1.3.1 9.7 0 18.8 0 13.3-.2 17.1.1 19.5 1.4 1.6.9 3.9 1.5 5 1.5s6.5 1.3 12 2.9c5.5 1.6 15.8 5.2 23 7.9 7.1 2.8 13.4 4.8 13.8 4.4.5-.4-1-3.4-3.4-6.7-2.4-3.3-5.6-8.8-7.1-12.2l-2.8-6.3h-11c2.9-10.6 4.7-14 7.2-16.8 2.1-2.3 3.6-4.8 3.5-5.4-.2-.7-.7-1.2-1-1-.4.1-2.4.4-4.5.7-2 .3-6.6 1-10.2 1.7-3.6.6-8.3.7-10.5.3-2.5-.4-5.1-1.9-7-3.9-2.3-2.3-3.4-4.8-4.4-9.6-.7-3.6-2.6-10.9-4.2-16.2-1.6-5.4-3.3-9.8-3.8-9.8s-1.1 3.3-1.5 7.3c-.3 3.9-1.1 13.3-1.6 20.7z" fill="#ff6001"/>
</svg>
