<svg version="1.2" xmlns="http://www.w3.org/2000/svg" width="400" height="386">
    <path fill-rule="evenodd" d="M107 0c14.1 0 24.9.1 24.9.2.1.2 4.8.3 10.5.4 5.6.1 13 .2 16.2.3 3.3.1 9 .3 12.6.4 3.7.1 10 .4 14.1.5 4 .2 8.9.4 10.9.6 1.9.1 5.6.3 8 .3 2.4.1 4.9.3 5.5.4.7.2 2.1.2 4.1.1 2.4-.1 3.2-.1 3.4.2.3.2 1.2.3 2.9.2 1.4 0 4.9.1 7.7.3 2.9.1 10.9.4 17.6.5 7.8.1 16.8 0 24.1-.2 6.4-.2 13.7-.4 16.3-.6 2.5-.1 6.3-.3 8.5-.3 2.2-.1 3.9-.1 3.8 0-.1 0-1.3.2-2.8.2-1.4.1-4.7.3-7.2.4-2.5.2-7.2.4-10.5.6-3.2.1-15.2.2-26.5.2-11.4 0-22.8-.1-25.5-.1-2.7 0-5-.1-5.2-.2-.2-.1-1.8-.1-3.5 0-1.9.1-3.4 0-3.6-.1-.2-.1-3.1-.2-6.3-.3-3.3 0-6.1-.1-6.3-.2-.3-.1-2.4-.3-4.9-.3-2.5 0-8.6-.2-13.7-.3-5-.2-12.9-.4-17.6-.6-4.6-.1-15.8-.4-24.9-.6-9.1-.1-25-.3-35.2-.3-10.2 0-24.6.2-31.9.4-7.3.1-15.9.4-19.2.6-3.2.1-8.5.3-11.7.5-3.1.1-7.8.3-10.3.5-2.6.1-6.3.3-8.3.5-2 .1-4.8.4-6.2.5-1.4.1-2.9.3-3.5.4-.5.1-1 .3-1 .4 0 .2.2.4.4.5.1 0 1.3.2 2.5.3 1.3.2 3.1.4 4.1.5 1 .2 2.6.4 3.5.6 1 .1 3.3.3 5.2.5 1.8.1 5 .3 7.1.5 2 .1 4.7.4 6 .5 1.3.2 3.4.4 4.7.5 1.3.2 3.5.4 4.8.6 1.2.1 3.7.3 5.3.5 1.7.1 4 .3 5 .4 1.1.1 3.7.3 5.8.4l8.4.5c2.5.1 6.6.4 8.9.5 2.4.2 7.7.4 11.7.6 4.1.1 14.1.4 22.4.5 8.2.1 20.5.1 27.4 0 6.9-.1 14.4-.3 16.7-.4 2.3-.1 6.9-.2 10.2-.4 3.3-.1 8.6-.4 11.7-.5 3.1-.2 7.7-.4 10.1-.5 2.5-.2 6.5-.4 9-.6 2.4-.1 6.3-.4 8.6-.5 2.3-.2 6-.4 8.2-.5 2.2-.2 5.8-.4 8-.5 2.2-.2 5.9-.4 8.1-.6 2.2-.1 6-.3 8.3-.5 2.3-.1 6.2-.4 8.7-.5 2.4-.2 6.8-.4 9.7-.6 2.9-.1 7.3-.3 9.8-.5 2.5-.1 8.3-.4 12.8-.6 4.7-.2 15.6-.3 26.2-.3 13.3 0 19.7.1 24.1.4 3.2.2 6.9.4 8.2.4 1.3 0 3.8-.2 5.5-.3 1.8-.2 4.3-.5 5.7-.6 1.4-.2 3.7-.4 5.1-.5 1.5-.2 4.1-.4 5.8-.6 1.7-.1 4.5-.4 6.2-.5 1.6-.2 3.9-.3 5.1-.4 1.1 0 2.5-.2 3-.3.5 0 2-.1 3.3-.2 1.3-.1 3.2-.2 4.2-.3 1.4-.1 1.6-.1 1 .2-.4.1-1.5.3-2.5.5-.9.1-2.4.4-3.4.7-.9.2-2 .3-2.4.2-.4-.1-1 0-1.2.1-.3.2-1.8.4-3.3.6-1.4.1-3.9.3-5.4.5-1.5.1-4.1.4-5.8.5-1.6.2-3.7.3-4.5.4-1.2.1-1.5.2-1.5.6 0 .4.5.4 9.3.3 5.2-.2 12.3-.4 15.7-.5 3.5-.2 7-.4 7.7-.4 1.1 0 1.5.1 2.1.7.5.5.6.8.5 1.3-.1.3-.4.8-.6 1.1-.2.3-1 .7-2.7 1.5l-.1 5.7c-.2 3.1-.2 11.1 0 17.8.1 6.6.2 16.5.4 21.9.1 5.4.3 13.7.5 18.4.1 4.7.4 11.6.5 15.4.2 3.7.4 9.7.5 13.2.2 3.6.4 9.2.6 12.5.1 3.3.4 8.8.5 12.1.1 3.3.4 9.3.5 13.4.2 4 .4 10.3.5 13.9.2 3.6.4 9.6.6 13.2.1 3.7.3 9.8.5 13.4.2 3.7.4 9.5.5 12.9.2 3.4.4 8.7.5 11.7.2 3 .4 8.1.6 11.3.1 3.2.4 8.1.5 11 .2 2.9.4 7.9.5 11.2.2 3.2.4 8.9.5 12.6.2 3.6.4 10.9.6 16.1.1 5.2.3 18.9.4 30.3.1 14.2.1 23.7-.1 29.5-.2 4.7-.5 10.1-.6 12-.1 2-.4 5.2-.5 7.1-.2 2-.4 4.6-.6 5.9-.1 1.3-.3 3.4-.5 4.6-.1 1.3-.5 3.6-.8 5.3-.3 1.6-.7 3.5-.9 4.2-.3.6-.8 1.7-1.3 2.4-.4.8-1.2 1.7-1.7 2-.5.4-1.2.8-1.5.9-.3.1-.6.4-.6.5 0 .2-1.1.7-2.5 1.2-2 .7-3.4.9-6 1.1-1.9.2-6 .4-9.1.5-3.1.2-7.5.3-9.7.4-2.2.1-7.5.3-11.7.4-4.2.2-9.7.4-12.3.6-2.6.1-6.5.4-8.6.5-2.1.1-5.7.4-8 .5-2.3.1-6.3.4-8.8.5-2.5.2-7.2.4-10.4.6-3.1.1-6.7.4-7.8.5-1.2.1-2.8.2-3.6.2-.8 0-2.5.2-3.8.3-1.3.2-3.2.4-4.3.5-1.1.2-3.1.4-4.5.6-1.4.1-3.5.4-4.7.5-1.3.1-3.4.4-4.9.5-1.4.1-4 .4-5.8.5-1.7.2-4.5.4-6.3.6-1.7.1-4.2.4-5.6.5-1.4.1-4.2.4-6.3.5-2.1.2-5.9.3-8.4.4-2.4 0-4.5.1-4.5.2s-.4.2-.9.2-.9-.1-.9-.2-5.3-.3-11.8-.4c-6.4-.1-14.5-.3-17.9-.5-3.4-.1-7.8-.3-9.7-.5-2-.1-5-.3-6.8-.5-1.9-.1-4.6-.4-6.1-.5-1.5-.2-4.1-.4-5.6-.5-1.6-.2-4.2-.4-5.8-.6-1.6-.1-4-.4-5.4-.5-1.4-.1-3.7-.4-5.1-.5-1.5-.2-3.6-.4-4.7-.6-1.2-.1-3.1-.3-4.3-.5-1.2-.1-3.1-.3-4.2-.5-1.1-.1-3.1-.4-4.4-.5-1.3-.2-3.3-.4-4.5-.6-1.1-.1-3.2-.3-4.6-.5-1.3-.1-3.8-.4-5.5-.5-1.6-.1-4.8-.4-6.9-.5-2.2-.2-6.5-.4-9.5-.6-3-.2-13.4-.3-23.1-.4-10.9-.1-20.1 0-24.2.2-3.6.1-9.7.5-13.6.8-3.9.3-8.5.6-10.3.8-1.7.1-4.1.4-5.4.5-1.2.1-3.3.3-4.6.3-1.3 0-2.6-.1-2.9-.3-.3-.1-.6-.5-.6-.8 0-.3.3-.4 2.2-.4 1.2-.1 3-.2 4.1-.4 1.1-.1 3.2-.4 4.7-.5 1.6-.1 3.7-.4 4.9-.5 1.1-.2 2.7-.3 3.5-.3 1.2 0 1.3-.1 1.3-.5 0-.5-.1-.6-4.1-.6-2.3 0-6.9-.1-10.3-.4-3.4-.2-6.9-.5-7.9-.6-.9-.1-2.2-.3-2.8-.5-.6-.2-1.5-.6-2-.9-.4-.4-1.1-1.2-1.5-1.7-.3-.6-.8-1.1-1-1.1-.4 0-.4.3-.2 2.2.1 1.3.3 2.6.5 3 .2.4 1 1.1 1.6 1.6.7.5 1.2 1 1.2 1.1 0 .1-.5 0-1.1-.1-.6-.1-1.5-.5-1.9-.9-.4-.4-1-1.3-1.3-1.9-.4-1-.5-1.9-.6-6.7-.1-3 0-8.9.2-13 .1-4.1.4-10.8.5-14.8.2-4.1.4-7.6.5-7.8.1-.2.2-5.4.1-11.5-.1-6.2-.2-13-.3-15.1-.2-2.2-.4-5.9-.5-8.2-.2-2.3-.4-5.8-.6-7.9-.1-2-.4-5-.5-6.5-.1-1.6-.4-4.9-.5-7.2-.1-2.4-.4-6.1-.5-8.1-.2-2.1-.4-5.5-.6-7.6-.1-2.2-.4-5.2-.5-6.8-.2-1.6-.3-3.6-.2-4.6.1-.9 0-1.9-.1-2.2-.1-.2-.4-2.2-.5-4.3-.1-2.1-.3-5.3-.4-7.1-.1-1.9-.2-4.2-.4-5.3-.2-1.1-.2-2.7-.2-3.7.1-.9.1-1.8-.1-1.9-.1-.2-.2-2-.3-4.1-.1-2.1-.3-4.8-.4-6.1-.1-1.2-.4-4.4-.5-7.2-.2-2.7-.5-6-.6-7.3-.1-1.3-.2-3.3-.2-4.4 0-1 0-2.1-.1-2.2-.1-.1-.3-2.3-.5-4.9-.1-2.5-.4-6.3-.5-8.4-.1-2.1-.4-5.6-.5-7.8-.1-2.3-.4-6-.5-8.3-.2-2.3-.4-6.3-.6-8.8-.1-2.5-.4-6.7-.5-9.3-.1-2.6-.4-7.7-.5-11.3-.2-3.6-.4-9.7-.5-13.5-.1-3.9-.4-15.2-.6-25.2-.2-14.5-.2-24.7 0-48.9.2-16.8.4-31.5.4-32.7 0-1.1-.1-2.7-.2-3.5q-.3-1.4 0-1.8.2-.3.7-.1c.3.1.7.6.9 1.2.3.9.4 2.4.3 9.7-.1 4.8-.3 17.1-.5 27.3-.2 12.2-.2 26.9-.1 42.3.1 13 .2 24.4.2 25.4.1.9.2 5.2.4 9.4.2 4.3.4 10.3.5 13.4.2 3.1.4 7.9.6 10.6.1 2.8.4 7 .5 9.5.1 2.5.4 6.4.5 8.7.2 2.4.4 6.2.6 8.4.1 2.3.4 6.2.5 8.8.2 2.5.4 5.9.4 7.4 0 1.6.2 3.9.3 5.2.2 1.2.4 4.3.6 6.9.2 2.6.4 6.2.6 8 .1 1.8.2 3.9.2 4.6 0 .7.1 2.2.2 3.2.2 1 .3 2.8.3 4 0 1.3.1 3.2.3 4.2.2 1.1.2 2.7.2 3.6-.1.9-.1 1.7 0 1.8.2.2.4 2.4.6 4.9.2 2.5.3 5.8.4 7.3 0 1.6.1 3.1.2 3.5.1.3.3 2.4.4 4.7.2 2.2.4 5.4.4 7 .1 1.6.2 3.1.3 3.2.1.2.2 2.1.4 4.3.1 2.2.3 5.5.5 7.3.2 1.8.4 5 .5 7.1.2 2.1.4 5.4.5 7.4.2 2.1.4 5.6.6 7.8.2 2.2.3 6.3.3 9s.2 5 .3 5.1c.1.1.2 3.5.2 7.5 0 6.3 0 7.3.4 7.3.2 0 .3-.3.3-1 0-.5.2-1.7.3-2.6.1-.8.5-3.8.8-6.5.3-2.8.6-6.4.8-8 .1-1.7.4-4.7.5-6.6.1-1.9.4-6.1.5-9.2.2-3.1.4-15.3.4-27.2.1-12 .1-27.3-.1-34.8-.2-7.3-.4-15.5-.5-18.3-.2-2.9-.4-7.2-.6-9.6-.1-2.5-.3-6.1-.5-8.2-.1-2-.4-5.2-.5-7.1-.1-1.8-.4-4.9-.5-6.8-.2-1.9-.4-4.8-.6-6.6-.1-1.7-.4-5.2-.6-7.7-.2-2.5-.5-5.7-.7-7.1-.1-1.4-.3-3.7-.5-5.2-.1-1.6-.5-5-.8-7.7-.3-2.6-.6-5.9-.8-7.3-.1-1.4-.4-3.6-.5-5-.2-1.4-.4-3.3-.5-4.3-.2-.9-.3-2.2-.3-2.8 0-.6-.1-1.6-.2-2.3-.2-.7-.4-2.6-.6-4.2-.1-1.7-.4-3.8-.5-4.8-.1-.9-.4-2.9-.5-4.4-.2-1.6-.5-4.4-.7-6.3-.2-2-.5-5-.6-6.6-.2-1.7-.4-4.6-.6-6.4-.1-1.9-.4-5.2-.5-7.3-.1-2.1-.4-6.3-.5-9.3-.2-3-.4-8.7-.5-12.6-.2-3.9-.4-14-.5-22.6-.1-8.5-.2-18.6-.1-22.5.1-5.7.3-7.1.6-7.4.3-.3.5-.4 1.7.2v6c0 3.4.1 9.9.3 14.4.2 4.6.5 11.1.6 14.6.1 3.4.4 8.4.5 11 .1 2.6.4 6.9.5 9.5.2 2.6.4 6.5.6 8.8.1 2.2.4 5.4.5 7.2.2 1.7.4 4.6.5 6.3.2 1.7.4 4.3.5 5.6.2 1.4.4 3.6.6 4.9.1 1.3.4 3.3.5 4.6.1 1.2.4 3.3.5 4.6.2 1.3.4 3.2.5 4.3.2 1.1.4 3 .6 4.3.1 1.4.4 3.3.5 4.4.1 1.1.3 2.9.5 4.2.2 1.2.4 3.2.6 4.4.1 1.3.3 3.4.5 4.8.1 1.3.3 3.5.5 4.7.1 1.2.4 3.2.5 4.3.2 1.2.4 4 .7 6.2.2 2.2.5 5 .6 6.2.2 1.1.4 3.4.5 5 .2 1.5.4 4.3.6 6.1.1 1.8.4 4.4.5 5.8.1 1.4.4 4.3.5 6.4.2 2.2.4 5.2.6 6.7.1 1.6.3 4.6.5 6.9.1 2.2.4 5.7.5 7.8.1 2.1.4 6.1.5 8.8.2 2.8.4 8 .6 11.7.1 3.7.2 19.5.2 35.1 0 16.2-.1 30.8-.2 34-.2 3.1-.5 8.3-.7 11.5-.3 3.3-.5 7.1-.7 8.4-.1 1.4-.3 3.7-.5 5.2-.1 1.4-.3 3.5-.5 4.7-.1 1.1-.3 3.1-.5 4.4-.2 1.4-.4 3.5-.6 4.8-.1 1.3-.3 3.5-.5 4.8-.1 1.4-.4 4-.5 5.8-.2 1.8-.4 4.9-.6 6.8-.1 2-.3 6.7-.4 10.4-.1 3.8-.1 8.2 0 9.9.2 2.3.3 3.1.7 3.4.2.3 1.2.6 2.1.8 1 .1 6 .3 11.2.5 5.2.1 12.6.2 16.5.2 4 0 7.2.1 7.3.2 0 0 8 .2 17.6.3 9.6.2 21.3.4 26.1.5 4.8 0 15.2.2 23.1.4 8 .1 21.7.4 30.5.5 11.3.2 23.1.3 40.6.1 13.5-.1 32.9-.2 43.2-.2 10.2 0 23.7.1 29.9.3 6.2.2 16.9.4 23.8.5 6.8.1 15.8.1 19.9 0 4.2-.1 9.4-.3 11.6-.4 2.2-.2 5.5-.4 7.3-.6 1.9-.1 5.5-.4 8.2-.6 2.7-.1 6.5-.3 8.6-.3 2.9 0 3.9-.1 4.1-.3.2-.3 1.3-.4 3.8-.4 2 0 4.1.1 4.9.3.7.1 3.2.7 5.5 1.2s5.1 1.1 6.3 1.4c1.2.2 3.7.3 5.7.3 2.2.1 4.1-.1 5-.3.9-.2 1.7-.5 1.8-.6.1-.2-.6-1.2-2-2.6-1.2-1.4-3.3-3.6-4.6-5.1-1.4-1.5-2.8-3-3.2-3.3-.6-.4-1.1-.6-2.4-.6-1.3 0-2 .2-3.8 1.1-1.3.6-3.1 1.6-4.1 2.3-1 .6-2.4 1.6-3.1 2.1-.7.5-1.5 1.1-1.9 1.2q-.7.3-1.2 0c-.3-.1-.6-.5-.8-.8-.1-.3-.2-.7-.1-1 .2-.3 1.2-1.3 2.2-2.1 1.1-.9 3.2-2.4 4.5-3.2 1.5-.9 2.6-1.8 2.5-2 0-.2-1.2-.9-2.6-1.5-1.5-.7-3.5-1.5-4.5-1.9-1-.3-2.9-.9-4.2-1.3-1.7-.4-2.5-.8-3-1.3-.3-.3-.6-.8-.6-1 0-.1.2-.6.5-.9q.5-.6 2.4-1.1c1.1-.3 2.8-.7 3.8-.8 1-.2 2.6-.4 3.6-.5.9-.2 3.6-.4 5.8-.6 3.2-.3 4.3-.4 4.4-.7.1-.2.9-2.3 1.7-4.5.8-2.2 1.8-5 2.2-6 .5-1.1.9-2.3.9-2.8 0-.4.1-1 .3-1.2.2-.3.7-.6 1.1-.7.5-.2 1-.2 1.2 0 .3.1.4.8.6 2.2.1 1.2.3 2.8.4 3.8.2.9.4 2.6.6 3.7.1 1 .3 2.5.5 4.3l6.1-.1c3.4 0 6.2-.1 6.3-.2.1-.2.3-3.6.6-7.7.2-4.1.5-8.5.6-9.9.2-1.3.4-3.8.6-5.6.1-1.8.4-4.3.5-5.5.1-1.3.4-4.9.7-8.2.2-4.1.3-7.5.2-11.1 0-2.9-.2-11.8-.3-19.8-.1-8.1-.2-14.7-.2-14.8-.1 0-.2-2.7-.2-6-.1-3.2-.3-6.5-.4-7.2 0-.7-.2-4.2-.3-7.8-.2-3.5-.4-9-.6-12.2-.1-3.1-.3-8.2-.5-11.3-.1-3-.3-8.5-.5-12.3-.1-3.8-.4-10.2-.5-14.4-.2-4.2-.4-11-.6-15.1-.1-4.2-.3-11.7-.5-16.8-.1-5.2-.4-13.2-.5-17.9-.2-4.7-.4-11.9-.5-16-.2-4.1-.4-10.9-.6-15-.1-4.1-.3-10.9-.5-15.1-.1-4.2-.4-12.7-.5-18.9-.2-6.2-.4-18-.5-26.1-.1-8.2-.1-19.6 0-25.4.1-5.7.3-11.2.6-13.8l-4.8.2c-2.7 0-8.7.2-13.3.4-5.9.2-10.4.2-15.1 0-3.7-.2-8.3-.4-10.2-.5-2-.2-6.9-.5-10.9-.7-4.3-.3-8.7-.4-10.4-.3-1.7.1-4.1.3-5.4.4-1.3.2-3.5.4-5 .6-1.4.1-4 .3-5.6.5-1.7.1-4.7.4-6.6.5-1.9.2-5.3.4-7.4.5-2.1.2-6.4.4-9.5.5-3.2.2-7.8.4-10.2.4-2.3.1-8.7.2-14 .3-5.3.1-17.2.2-26.3.3-9.1.1-18.4.2-20.6.4-2.2.1-6.1.3-8.5.5-2.5.2-6.5.4-9 .5-2.4.1-6.6.4-9.4.5l-11 .6c-3.3.1-9 .3-12.5.5-3.6.2-14.4.3-24.2.4-10.8.1-22.6.1-30.4-.1-7.1-.2-15-.4-17.6-.6-2.7-.1-7.1-.3-9.8-.5-2.6-.1-6.7-.4-8.9-.5-2.2-.2-5.7-.4-7.7-.5-2.1-.2-5-.4-6.6-.6-1.6-.1-4.1-.3-5.6-.5-1.6-.1-3.5-.3-4.4-.4-.8-.1-2.3-.3-3.3-.4-.9-.1-2.7-.4-4-.5-1.3-.2-3.2-.4-4.2-.5-1.1-.2-3.8-.6-6.1-1s-4.7-.8-5.2-.9c-.6-.1-2.8-.5-4.9-1-2.5-.6-4.7-.9-6.4-1-1.5 0-2.9-.2-3.3-.2-.3-.1-.5-.3-.5-.5 0-.3-.3-.4-.6-.4-.4 0-1.3-.2-2.1-.4-.7-.3-1.6-.6-1.9-.9q-.5-.4-1.8-.4c-.8 0-2 0-4.3.3l1.5-.4c.8-.2 2-.5 2.7-.7.8-.3 2-.6 2.7-.7.8-.1 2.1-.4 2.9-.5.8-.2 2.5-.4 3.8-.6 1.2-.1 3.4-.3 4.8-.5 1.5-.1 4.1-.3 5.9-.5 1.8-.1 5.5-.3 8.2-.5 2.6-.1 7.1-.4 9.9-.5 2.9-.2 8.3-.4 12.3-.5C58.7.9 66.4.7 72 .6 77.6.5 82.2.3 82.2.2 82.2.1 93.4 0 107 0zm175.5 11c-3.8.2-9.2.4-12 .6-2.8.1-6.7.3-8.7.4-2.8.1-3.7.2-3.6.5 0 .3.8.4 4.3.3 2.3 0 8-.1 12.6-.2 4.6-.2 10.6-.4 13.3-.5 2.7-.2 6.6-.4 8.8-.5 2.1-.2 4.6-.4 5.4-.4 1.1-.1 1.5-.3 1.5-.6q0-.4-.7-.3c-.4 0-3.7.1-7.4.2s-9.8.3-13.5.5zm92.3 338.4c-.2.5-.7 1.3-1.1 1.5-.5.5-.9.6-4.9.5-2.4-.1-4.8 0-5.4 0-.5.1-1 .4-1 .5 0 .2 1.6 1.1 3.4 2 1.8.9 3.7 1.9 4.2 2.3.7.6 1.2.8 1.9.7.5 0 1.9.2 3.1.6 1.2.3 2.2.7 2.2.8 0 .2.8 1 1.9 2 1.1 1 2.1 1.8 2.3 1.8.1 0 .1-.3 0-.7 0-.4-.2-1.3-.3-1.9l-.1-1.2c-3-.2-3.7-.4-3.8-.7-.2-.2-.1-.7.1-1.3.1-.5.7-1.4 1.3-1.9.6-.6 1.8-1.6 2.8-2.2 1-.6 1.8-1.3 1.7-1.4q-.1-.4-2.3-.5c-1.2-.1-2.5-.3-2.8-.5-.3-.1-.7-.5-.8-.8-.2-.3-.3-1.8-.3-3.3 0-1.5-.1-2.8-.2-2.8s-.5 1.2-.8 2.7c-.4 1.5-.9 3.2-1.1 3.8zm16 2.7c-.8.5-2.8 1.8-4.5 2.8-1.6 1-3 2-3.1 2.2-.1.1.3.6.8 1.1.5.5 1.6 2.2 2.5 3.8.8 1.6 1.8 3.8 2.2 5 .5 1.3.7 2.2.5 2.6-.1.3-.1.7-.1.9.1.1.3.3.5.3s.8-.4 1.3-.9c.5-.4 1.1-1.4 1.3-2 .2-.7.5-1.9.7-2.6.1-.8.4-2.3.5-3.3.2-1 .4-2.9.6-4.1.1-1.2.4-3 .5-4.1.2-1 .2-2.2.2-2.7s-.2-.9-.3-1c-.2 0-.7.2-1.2.5s-1.6.9-2.4 1.5zm-27.1 22.3c.4 0 .6-.1.5-.3-.1-.2-.4-.4-.7-.4q-.6-.1-.5.3c.1.2.4.3.7.4zM141 377.2c.1.1 1.2.2 2.5.4 1.3.1 3.4.4 4.6.5 1.3.2 3.3.4 4.5.6 1.2.1 3.5.3 5.1.5 1.6.1 4.1.4 5.7.5 1.5.2 3.9.4 5.3.5 1.5.2 3.3.3 4.1.4.8.1 2.9.3 4.6.4 1.7.2 4.5.4 6.2.5 1.6.2 4.9.4 7.2.6 2.3.1 6.9.3 10.3.5 3.3.1 12.4.3 20.2.4 8 .1 17 0 20.7-.2 3.6-.1 8.1-.3 9.9-.5 1.8-.1 4.6-.3 6.3-.5 1.6-.1 4.5-.4 6.4-.5 1.9-.2 4.6-.4 6.1-.6 1.4-.1 3.7-.3 5.1-.5 1.3-.1 3.6-.3 5-.5 1.3-.2 3.6-.4 5-.6 1.3-.1 3.6-.3 5.1-.5 1.4-.1 2.9-.2 3.3-.2.5 0 .7-.1.7-.4 0-.4-.8-.4-5.8-.5-3.2-.1-10.9-.3-17.1-.5-6.9-.2-21.6-.3-37.6-.3-14.4 0-35.1 0-46 .1-10.8.1-25.9 0-33.6-.1-10.1-.2-14-.1-14 .1 0 .1.1.3.2.4zM349.9 0c7.9 0 10.2.1 10.3.3.1.3-2.2.4-10.4.4-9.2.1-10.4 0-10.3-.3.1-.3 1.5-.4 10.4-.4zm-14.2.9c1.5 0 2.1 0 1.3.1h-2.8c-.7-.1-.1-.1 1.5-.1zm-9.6.2c.3 0 .8.1 1.3.2.6.2.4.2-.9.2-1 .1-2.4.1-3.2.2-1.4.1-1.3.1.4-.2 1-.2 2.1-.4 2.4-.4zm4.3 0c1.8 0 1.9 0 .8.2-.7.1-1.5.1-2 0-.6-.1-.3-.2 1.2-.2zm-8.5.6-1.9.1c-1 .1-2.4.2-4.4.2l1.3-.2c.7-.1 2.1-.1 5-.1zm-9.5.4c1.1 0 2 .1 2 .1-.1.1-3.4.3-7.2.6-3.9.2-7.5.4-7.9.3-.5-.1.8-.2 2.7-.3 2-.1 4.6-.3 5.9-.4 1.4-.1 3.4-.2 4.5-.3zm66.8 14.2.6.2c.3.2.5.5.5.8 0 .2-.5 1.2-1.1 2.1-.6.9-1.6 2.5-2.1 3.4-.5 1-1.6 3-2.3 4.5-.7 1.4-1.3 2.8-1.3 3 0 .2.2.6.6.7.3.2 1.2.9 2.1 1.5.8.7 2.5 1.9 3.8 2.8 1.6 1 2.5 1.7 2.7 2.2.1.4.2 1 .1 1.4-.1.3-.4.9-.7 1.2-.4.3-1 .7-1.4.8-.5 0-1.6-.1-2.6-.3-1-.3-3.1-.9-4.5-1.3-1.4-.5-2.7-.9-2.8-.8-.1 0-.2.6-.2 1.2s-.1 1.8-.3 2.7c-.2.9-.5 2.5-.7 3.6-.2 1-.5 2.6-.6 3.5-.1.9-.4 2-.6 2.4-.3.5-.8 1.1-1.3 1.5-.8.6-.8.6-.6 2.3.1.9.3 3.5.4 5.6.2 2.2.4 5.8.5 8 .2 2.3.4 5.9.6 8.2.1 2.2.3 5.9.5 8.1.1 2.2.4 5.9.5 8.2.1 2.3.4 6 .5 8.3.2 2.3.4 5.9.6 8.1.1 2.2.3 5.8.5 7.9.1 2.1.4 5.8.5 8.1.2 2.3.4 6.3.5 8.9.2 2.6.4 7.2.6 10.2.1 3.1.4 8 .5 10.9.1 3 .4 9.2.5 13.8.3 5.6.4 18.1.4 37.3 0 18.1-.2 33.1-.4 40.2-.2 6.2-.3 18.3-.3 26.8 0 9.8.1 17.1.3 19.8.2 2.4.4 6.1.4 8.3.1 2.9.1 4.1-.2 4.6-.2.4-.6.6-1 .6-.3 0-.8-.3-1.1-.7-.5-.6-.6-1.3-.8-4-.1-1.7-.3-5.2-.5-7.6-.2-2.5-.3-11.1-.3-19.6 0-8.3.1-18.7.3-23.2.2-4.5.5-13.5.6-20 .2-6.5.4-17.1.4-23.6s-.2-17-.4-23.3c-.2-6.2-.4-13.8-.6-16.9-.1-3-.3-7.9-.5-10.8-.1-2.8-.4-7.3-.5-9.9-.1-2.6-.4-6.9-.5-9.6-.1-2.7-.4-7-.5-9.6-.2-2.6-.4-6.6-.6-9-.1-2.3-.4-6.2-.5-8.6-.2-2.5-.4-6.5-.5-9.1-.2-2.5-.4-6.7-.5-9.4-.2-2.7-.4-7.3-.6-10.2-.1-3-.4-7.8-.5-10.7-.1-2.9-.4-8.3-.5-11.9-.2-3.7-.4-7.4-.5-8.2-.1-.8-.4-1.7-.5-2.1-.2-.3-.2-.7-.1-.8.1-.1 0-.7-.2-1.4-.1-.6-.5-2.1-.8-3.3-.3-1.2-.7-2.9-.8-3.8-.2-.8-.6-1.6-.8-1.8-.2-.2-1-.2-3.1 0-1.5.2-3.3.4-3.9.5-.5.1-1.5.3-2.2.4-.6.1-1.9.3-2.7.5-.9.1-1.8.3-1.9.4-.2.1-.4.2-.4.3 0 .2 1 .3 2.3.4 1.3.1 3 .3 3.8.5.8.1 1.9.4 2.6.7.8.4 1.1.6.8.7-.2.1-2.2.1-4.4 0-2.1 0-10.7-.2-19-.3-8.3-.2-20.8-.4-27.7-.6-7.9-.2-19-.4-29.8-.3-9.5.1-28.9.1-43.2.1-14.3.1-30.9-.1-36.8-.2-5.9-.2-19.3-.5-29.8-.7-15-.2-22.3-.2-34.4.1-8.5.1-17.5.4-20.1.5-2.6.1-6.9.3-9.5.5-2.6.1-6.4.4-8.5.5-2.1.2-5.3.4-7.2.6-1.9.1-4.8.3-6.4.5-1.7.1-4.4.4-6.1.5-1.6.1-4.4.4-6.2.5-1.7.2-4.5.4-6.1.6-1.7.1-5.7.3-9 .5-3.2.1-7.5.2-9.5.1-2.3-.1-4.1-.3-4.6-.5s-1.1-.3-1.3-.3c-.2.1-.4.7-.4 1.4-.1.7-.3 2.3-.4 3.5-.2 1.2-.4 3.1-.6 4.2-.1 1.1-.3 2.6-.5 3.4-.1.8-.3 2.1-.5 2.9-.1.8-.4 1.9-.6 2.4-.1.5-.4 1-.6 1.2-.1.2-.6.6-1 .8-.6.3-.8.3-1.5-.1-.4-.2-1-.8-1.2-1.2-.4-.8-.4-1.6-.3-6.3.1-2.9.3-6.8.4-8.5.2-2.2.2-3.2-.1-3.3-.1-.1-.4-.1-.6 0-.2.2-1.7.8-3.2 1.5-1.5.7-3 1.4-3.4 1.6-.4.3-2 1.1-3.7 2-3 1.5-3 1.5-3.7 1-.4-.2-.8-.7-1-1-.1-.3-.2-.9-.1-1.2.1-.3.9-1.6 1.7-2.8.9-1.3 2.2-3.1 2.9-4.1.7-1 2-2.9 4.5-6.6l-.4-1c-.2-.6-1-2.3-1.6-3.9-.7-1.6-1.7-4.1-3.1-8.1l.7-1.1c.5-.9.8-1.2 1.3-1.2.3 0 .9.2 1.3.5.4.2 3.2 2.3 6.1 4.5 3 2.3 5.5 4.2 5.7 4.2.1 0 1.7-1.3 3.5-2.9 1.7-1.6 3.8-3.5 4.7-4.2 1.3-1 1.7-1.2 2.7-1.2.9 0 1.2.1 1.7.7.4.5.5.9.4 2.1-.1 1.1-.5 2.2-1.6 4.6-.9 1.7-1.9 3.8-2.4 4.8-.5.9-1.3 2.1-1.8 2.6-.5.6-.9 1.2-.9 1.3.1.2.4.3.6.3.3 0 .6-.1.8-.2.1-.2.7-.3 1.3-.4.5-.1 1.7-.3 2.6-.4.9-.1 1.7-.3 1.9-.4.2-.1 1 0 1.7.1.8.2 2 .4 2.7.6.7.1 2.5.6 4.1 1.1 2.3.8 2.9 1.1 3.7 2 .8.8 1 1.2 1 1.9-.1.4-.1 1 0 1.2 0 .4.3.4 1.6.2.9-.1 3.1-.3 4.8-.5 1.8-.1 4.4-.3 5.8-.5 1.5-.1 3.9-.3 5.4-.5 1.5-.1 4.2-.4 5.9-.5 1.7-.1 4.6-.4 6.4-.5 1.8-.2 5.1-.4 7.3-.6 2.1-.1 5.6-.4 7.6-.5 2-.1 6.9-.4 10.9-.6 4.9-.2 15.6-.3 33.2-.3 16.8 0 30.8.1 39.5.4 9.6.3 22.3.4 43.9.3 16.7 0 38.1 0 47.5-.1 10.7-.1 21.5.1 28.5.3 6.2.2 16.8.4 23.5.5 6.7.1 12.3.2 12.4.1.2 0 0-.5-.2-.9-.4-.8-.4-.9-.1-1.5.3-.4 1.3-1 2.9-1.8 1.4-.6 3.9-1.7 5.6-2.4 1.8-.8 4.1-1.8 5.1-2.3 1-.5 1.9-1 1.9-1.1 0-.2-1.2-1.1-2.7-2-1.5-1-3.2-2.2-3.9-2.8-.6-.5-1.3-1.3-1.5-1.8-.3-.7-.3-1.1-.1-1.5.2-.3.7-.8 1.2-1 .8-.3 1.2-.3 2-.1.5.1 1.4.2 1.9.2s1.2.1 1.7.3c.4.1 2.3.7 4.3 1.2 1.9.6 3.7 1 3.9 1 .2 0 1.9-.9 3.7-1.9 1.8-1.1 3.6-2.1 4.1-2.4.4-.2 1.1-.6 1.6-.9.4-.3 1.6-1 2.6-1.5 1-.6 1.8-1 1.9-1zm-13.5 12h-1.3c-.4-.1-.7-.1-.8.1-.1.1.2.4.5.6.3.2.7.7.9 1.1.2.4.3 1.1.2 1.5-.1.4-.4.8-.7.9-.4.2-1 .2-1.7 0-.5-.1-1.4-.3-1.8-.4-.6 0-1.4.2-2.9 1-1.1.7-2.1 1.3-2.1 1.5-.1.2.5.3 2.5.1h3.2c.4.1 1.2.6 1.7 1.1.7.7 1.1 1.4 1.7 3.4.5 1.4 1 2.6 1.2 2.6.2 0 .4-.4.5-.8.1-.4.4-1.4.7-2.3.2-.9.6-1.7.7-1.8.2-.1.4-.4.5-.8.2-.4.8-.8 1.4-1.1.5-.3 1-.6 1-.8 0-.2-.3-.5-.7-.8-.3-.2-.8-.7-1.1-1.1-.2-.4-.4-1.1-.3-1.5 0-.5.3-1.4.6-2 .3-.6.9-1.5 1.2-2.1q.7-1 .4-1.2c-.1-.2-1 .2-2.5 1.2-1.2.7-2.5 1.5-3 1.6zM24.6 31.6c1.5 3.1 2 4.2 1.8 4.8 0 .4-.7 1.6-1.5 2.6s-1.7 2.3-2.2 2.9c-.6.7-.7 1-.4 1.2.2.3.7.1 2.2-.6 1.1-.5 2.8-1.3 3.8-1.8 1-.4 2.3-.8 2.8-.8s1.2.1 1.4.3c.4.3.6.1 1.5-.7.6-.5 1.4-1 1.8-1 .4-.1.8-.4.9-.6q.3-.5-.2-1.4c-.3-.7-.4-1.1-.2-1.7.2-.4.4-1.2.7-1.7.2-.6.2-1 0-1.2q-.2-.3-1.7 1.2c-1.3 1.3-1.6 1.4-2.6 1.4-.9 0-1.3-.2-3-1.5-1.1-.9-3-2.5-4.2-3.7-1.2-1.1-2.4-2-2.6-2-.2 0-.3.1-.3.2s.9 2 2 4.1zM37 43.5c0 .2.2.4.5.5.2 0 2.1.1 4 .2 1.9.2 4.1.2 4.8.1.7-.1 1.2-.3 1.2-.4 0-.2-.4-.3-.9-.3-.6 0-1.5-.1-2-.2-.5-.2-2.1-.3-3.5-.4-1.4-.1-2.9-.1-3.3 0-.5 0-.8.2-.8.5zm2.2 4.2c.1.2.4.5.5.6.1.1.4 1.1.6 2.4.2 1.2.5 4.3.6 6.8.2 2.5.4 13.3.6 23.8.1 10.6.2 19.3.2 19.5-.1.1 0 10.1.1 22.2.1 12.2.4 24.3.5 27.1.1 2.7.4 7.4.5 10.3.2 3 .4 7.4.5 9.8.2 2.3.4 6 .5 8.1.2 2.1.4 5.6.6 7.7.1 2.2.4 5.3.5 6.9.2 1.6.4 4.2.5 5.7.2 1.6.4 4.2.5 5.7.2 1.5.4 4.1.6 5.8.1 1.6.4 4.2.5 5.7.2 1.6.4 3.9.5 5.3.1 1.4.4 3.7.6 5.1.1 1.5.4 3.9.5 5.4.1 1.5.4 3.8.5 5.1.1 1.3.4 3.6.5 5 .2 1.5.4 3.8.6 5.3.1 1.4.3 3.7.5 5.1.1 1.3.4 3.7.5 5.2.1 1.6.4 3.8.5 5 .2 1.3.4 3.4.6 4.7.1 1.4.3 3.9.5 5.4.1 1.6.4 4.2.5 5.8.2 1.6.4 9.2.5 16.8.1 7.7.1 14.1 0 14.4-.2.3-.3.4-.7.2-.4-.2-.7-.7-.9-1.5-.1-.7-.4-5.8-.5-12-.1-5.9-.3-12.2-.5-14-.1-1.7-.4-4.5-.5-6.3-.2-1.7-.4-4.1-.5-5.3-.2-1.3-.4-3.3-.6-4.6-.1-1.3-.4-3.4-.5-4.8-.1-1.2-.4-3.3-.5-4.6-.1-1.2-.4-3.2-.5-4.5-.2-1.3-.4-3.4-.6-4.6-.1-1.3-.4-3.4-.5-4.8-.1-1.3-.4-3.5-.5-4.7-.2-1.2-.4-3.2-.6-4.5-.1-1.2-.3-3.3-.5-4.7-.1-1.4-.3-3.6-.5-5-.1-1.4-.4-3.8-.5-5.2-.2-1.4-.4-3.7-.5-5-.2-1.4-.4-3.8-.6-5.3-.1-1.6-.4-4.1-.5-5.7-.1-1.5-.4-4.2-.5-6-.2-1.7-.4-4.5-.5-6.3-.2-1.7-.4-5-.6-7.3-.1-2.3-.4-6.2-.5-8.5-.1-2.4-.4-6.7-.5-9.5-.2-2.8-.4-7.2-.5-9.8-.1-2.6-.4-8.6-.6-13.2-.2-5.6-.4-15.9-.3-30.8 0-12.4.1-28.6.2-36.2.2-12.9.2-13.7-.2-13.8-.4-.2-.4-.2-.1-.8.4-.5.4-1.1.1-5.3-.1-2.6-.2-5.4-.1-6.3.2-1.3.2-1.5.5-1zM385.4 49l.2 23.7c.1 13.1.3 29.2.5 35.7.1 6.6.2 13.7.2 15.8 0 2.9-.1 2.1-.2-3.3-.2-3.9-.4-14-.5-22.4-.2-8.5-.3-23.1-.3-32.5zm1 82 .4 8.9c.2 4.9.5 12.7.6 17.2.2 4.5.4 10.6.4 13.5.1 3.4 0 4.6-.1 3.4-.1-1-.2-3.5-.2-5.5s-.2-7.7-.5-12.6c-.2-4.9-.4-12.5-.5-16.9zm1.9 50.1c.1 2.5.3 8.5.5 13.3.2 4.9.3 9 .2 9.1-.1.1-.2-.4-.2-1.2 0-.8-.2-5.5-.4-10.4s-.4-10.4-.4-12.1c.1-3.1.1-3.1.3 1.3zm1.2 29.7c.2 2.6.4 5.4.4 6.2.1.8.2 2.6.3 4 .1 2.1.1 2.4-.1 1.1-.1-.9-.4-4.2-.7-7.4-.2-3.1-.3-6.4-.3-7.2 0-.8.2.7.4 3.3zm-48.3 91.8c1.9 0 5.4.1 7.9.2 2.5.2 5.4.5 6.5.6 1 .1 2.9.5 4.2.8 1.3.3 2.7.6 3.2.7.5.2 1.3.5 1.6.7.5.4.6.7.4 1.3 0 .3-.3.8-.6 1.1-.4.3-1 .4-3.7.3-1.8-.1-6.1-.3-9.6-.4-4.4-.2-10.5-.2-20.1 0-7.6.1-16.3.3-19.3.5-3 .1-7.6.3-10.2.5-2.6.1-7.9.4-11.7.6-3.9.1-14 .3-22.5.3s-19.6-.2-24.7-.4c-5-.2-11.3-.4-13.9-.5-2.6-.1-8.9-.4-13.9-.6-5.7-.2-16.8-.3-29-.3-10.9 0-24.1.1-29.2.3-5.1.2-12.9.5-17.2.6-4.3.1-11.8.3-16.5.5-4.8.1-12 .4-16.1.5-4 .2-10.2.4-13.7.6-3.6.1-8.3.3-10.6.5-2.2.1-7.6.3-11.9.5-4.3.2-9.1.2-10.6.2-1.6-.1-3-.2-3.3-.3-.2-.1-.4-.3-.4-.6 0-.2.1-.4.3-.5.2-.1.8-.3 1.3-.5.5-.1 2.5-.3 4.4-.4 2-.1 5.5-.4 7.9-.5 2.4-.2 6-.4 8.1-.5 2.1-.2 5.5-.4 7.5-.6 2.1-.1 5.7-.4 8-.5 2.4-.2 6.5-.4 9.1-.5 2.6-.2 7.5-.4 10.9-.5 3.4-.2 9-.4 12.5-.6 3.4-.1 9-.3 12.3-.5 3.3-.2 8.2-.4 10.9-.5 2.7-.2 8.3-.4 12.5-.6 4.6-.2 15.1-.3 26.7-.3 11.7 0 22.2.1 27.3.3 4.5.2 10.2.5 12.6.6 2.4.1 8.9.3 14.4.5 5.6.2 14.4.4 19.6.4 5.2 0 12.6-.2 16.5-.3 3.9-.2 9.2-.5 11.7-.6 2.5-.2 6.6-.4 9-.5 2.3-.2 6.9-.4 10-.6 3.1-.1 5.8-.3 5.9-.3.1-.1 3.9-.2 8.3-.2 4.5-.1 9.5-.2 11.1-.3 1.6-.1 4.3-.2 6.1-.2zM40 325c.4.2.9.7 1.2 1.2.1.3.9 1.8 1.7 3.3.8 1.4 2 4.2 4.2 9.4h1.1c.6-.1 1.6-.2 2.3-.4.7-.1 2.5-.7 4.1-1.2 1.6-.5 4.1-1.4 5.5-2.1 1.5-.6 3-1.1 3.3-1.1.3 0 .8.1 1.2.2.3.2.8.7 1 1.3.4.9.4 1-.1 2-.3.6-2.3 2.7-4.4 4.7-2.2 1.9-4.6 4.1-5.4 4.7-.9.6-1.5 1.2-1.5 1.3 0 0 .5.3 1.2.6s2.1 1.2 3.2 2.1c1.1.9 2.8 2.4 3.7 3.3.9.9 1.9 2.1 2.2 2.5.2.4.5 1.2.5 1.7s-.3 1.3-.6 1.8c-.4.6-.8.9-1.9 1.3-1.3.4-1.5.4-3.7-.2-1.3-.3-3.3-1-4.4-1.4-1-.4-3-1.2-4.3-1.8-1.3-.6-2.9-1.3-3.5-1.6-.7-.3-1.6-.6-2.1-.7-.6-.1-1.2 0-1.6.3-.4.2-1.3 1.4-2 2.6-.7 1.2-1.7 3-2.2 4-.5 1.1-1.1 2.1-1.3 2.3-.2.3-.7.5-1 .5-.4 0-.8-.3-1.1-.7-.4-.7-.4-.7.2-2.3.3-.9 1-2.6 1.4-3.8.4-1.2.7-2.4.7-2.7 0-.5-.1-.5-8.2-.5h-8.5c-.2 0-.5-.3-.8-.7-.2-.4-.4-1-.4-1.4 0-.4.3-.9.7-1.3.3-.3 1.1-.9 1.9-1.4.7-.4 2-1.2 2.9-1.7.8-.6 3.5-2.2 5.8-3.5q4.3-2.5 4.4-3c.1-.3.1-1 .1-1.5s.1-1.5.3-2.1c.1-.6.4-2.1.5-3.3.2-1.3.4-2.9.6-3.7.1-.8.4-2.1.5-2.9.2-.8.5-2 .7-2.6.2-.7.5-1.3.7-1.5.4-.3.6-.3 1.2 0zm.3 15.4c-.2 1.9-.4 4-.6 4.6-.1.6-.5 1.3-.9 1.7-.3.4-1.6 1-2.7 1.4-1.1.4-2.5 1-3.1 1.3-.6.4-1.1.8-1.1 1 0 .1.2.2.5.3h5c3.5-.1 4.5 0 5.1.3.4.3 1 .4 1.3.4.3 0 1.7.4 3.2.8 1.4.4 4.1 1.3 6 2.1 1.9.7 3.5 1.2 3.6 1.1.2-.1-.2-.9-.9-1.8-.6-.8-1.4-2.3-1.8-3.2l-.8-1.6h-2.9c.8-2.8 1.3-3.7 1.9-4.4.6-.6 1-1.3 1-1.4-.1-.2-.2-.4-.3-.3-.1 0-.6.1-1.2.2-.5.1-1.7.2-2.7.4-.9.2-2.2.2-2.7.1-.7-.1-1.4-.5-1.9-1-.6-.6-.9-1.3-1.1-2.5-.2-1-.7-2.9-1.1-4.3-.4-1.4-.9-2.6-1-2.6-.2 0-.3.9-.4 2-.1 1-.3 3.4-.4 5.4z" fill="#f17906"/>
</svg>
