<svg width="800" height="98" version="1.2" xmlns="http://www.w3.org/2000/svg">
  <path fill="#f17906" fill-rule="evenodd" d="M157.597 5.5h-.1zm4.2 3.8c2.1 2.2 5.6 6.8 7.8 10.2 2.3 3.5 4.9 7.5 5.9 9s2.1 3.5 3.6 6.1l2.5-2.2c1.4-1.2 4.7-3.8 7.3-5.7 2.6-1.9 7.4-5.3 10.7-7.4 3.2-2.2 6.5-4.4 7.2-4.9.8-.5 1.7-.9 2-.9.3 0 1.2.6 1.8 1.3 1 .9 1.2 1.5 1 2.3-.3.6-1.9 2.3-3.7 3.7-1.8 1.4-6 5.8-9.5 9.8-3.5 3.9-7.7 8.6-9.4 10.4-1.7 1.8-3.1 3.6-3.1 4 0 .5.9 1 2.4 1.4 1.3.4 3.6 1.2 5.1 1.9 1.5.7 5.5 3.1 9 5.5 3.5 2.2 7 4.8 7.8 5.7.9 1 1.5 2.1 1.5 3 0 .8-.5 1.8-1 2.5-.6.5-1.6 1.2-2.3 1.5-.8.2-2.8 0-5.8-.6-2.5-.5-6.7-1.2-9.4-1.6-2.8-.4-7.4-.8-10.3-.8-4.5 0-5.6.2-7.5 1.2-1.2.6-3.1 2.1-4.2 3.3-1 1.3-2.7 4-3.7 6-1.4 3-2.1 5.3-3.2 12.3-1.1 6.3-1.7 8.9-2.6 10-.7 1.1-1.5 1.7-2.2 1.7-.6 0-1.6-.5-2.1-1.1-.5-.6-1.1-1.7-1.3-2.4-.1-.7.1-3.7.5-6.7.5-3 1.7-8 2.6-11 1-3 2.6-9.3 3.5-13.8.9-4.5 1.5-8.3 1.4-8.5-.1-.1-1.7.5-3.5 1.4-1.9.8-6.4 2.7-9.9 4.1-3.6 1.5-9.6 3.7-13.4 5-3.8 1.4-7.4 2.5-8 2.5-.6 0-1.6-.3-2.2-.7-.7-.5-1.2-1.3-1.2-2.1 0-.7.2-1.6.4-2.1.3-.4 3.2-3 6.4-5.6 3.3-2.6 9.5-7.4 13.7-10.5 4.3-3.2 9.4-7 11.4-8.5 3-2.3 3.7-3 3.6-4.1 0-.8-.4-3.3-1-5.8-.6-2.4-1.3-5.7-1.7-7.3-.4-1.7-1.2-5-1.8-7.5-.6-2.5-1.1-4.9-1.3-5.4-.1-.5.2-1.2.6-1.6.4-.4 1-.7 1.3-.8.5.1 2.4 1.9 4.3 3.8zm5.2 21.1c.4 1.3.8 3.3.8 4.4 0 1.2-.4 2.6-1.1 3.7-.7 1-3.3 3.4-5.9 5.3-2.6 1.9-6.8 5-9.3 6.7-2.6 1.8-4.7 3.5-4.9 3.9-.2.4 1.6-.1 4.4-1.1 2.5-.9 5.5-2 6.6-2.5 1.1-.5 3.2-1.1 4.7-1.3 2.1-.3 3-.8 3.7-1.7.4-.8 1.1-1.3 1.5-1.3.3.1 1 .6 1.6 1.3.5.6.8 1.3.6 1.6-.2.2-.6 2.5-.8 5-.3 2.5-.5 4.9-.3 5.1.1.3 1.4-.1 2.9-1 1.4-.8 4-1.8 5.8-2.2 1.8-.5 4.8-.7 6.8-.7 1.9 0 4.7.2 6.1.3 1.5.2 2.8.3 2.9.1.1-.1-.5-.9-1.4-1.7-.8-.9-2.6-2.9-4-4.5-1.4-1.7-2.8-3.2-3.2-3.4-.4-.2-1.4.2-2.5 1.3l-1.9 1.6c1.7-2.8 2.2-3.9 2.2-4.4 0-.5.5-1.7 1-2.7.5-1.1.8-2.1.6-2.3-.2-.2-.8.3-1.3 1-.6.7-1.8 1.6-2.6 2-1.4.5-1.9.5-3.2-.1-.8-.4-1.9-1.4-2.4-2.1-.5-.8-2.2-3.9-3.8-6.9-1.6-3-3-5.7-3.2-5.9-.2-.2-.6-.3-.8-.1-.3.2-.2 1.2.4 2.6zM654.197 0c.6 0 1.3.5 1.6 1 .3.6.5 1.8.5 2.8 0 .9-.8 3.9-1.8 6.6-1 2.7-2.3 6.1-2.9 7.6-.7 1.5-2.9 6.2-5 10.4s-3.6 7.7-3.4 7.8c.2.1 3.1.4 6.6.5 3.5.2 9.4.6 13.3.8 3.8.3 7.7.7 8.6 1 .9.3 1.9 1 2.1 1.6.5.9.4 1.4-.4 2.4-.5.7-1.7 1.4-2.7 1.6-.9.1-3.9.5-6.7.9-2.7.3-6.1.7-7.5 1-1.3.2-5.8.9-10 1.5-4.1.6-7.8 1.2-8.2 1.3-.7.2-.7.3 0 1.1.4.4 1.4 3.4 2.2 6.6.7 3.1 1.8 9.3 2.3 13.5.5 4.3 1.1 9.8 1.3 12.3.2 4 .1 4.7-.8 6.1-.7 1.2-1.4 1.6-2.4 1.6-.9 0-1.9-.5-2.7-1.3-.7-.8-2-2.8-2.8-4.4-.8-1.7-2.6-6.5-4.1-10.8-1.4-4.2-3.4-9.3-4.5-11.2-1.4-2.8-2.3-3.8-4.1-4.8-2-1.1-2.7-1.2-8.2-1.2-3.3 0-8.2.4-11 .9-2.7.4-7.7 1.5-11 2.3-3.3.9-7.6 2.2-9.5 3-1.9.8-4.3 1.8-5.2 2.2-1.6.7-1.9.7-2.9.1-.6-.5-1.1-1.3-1.1-1.9-.1-.6.3-1.5.8-2s3.3-2 6.2-3.3c2.9-1.4 10.8-5.6 17.5-9.4 6.8-3.8 13.5-7.5 14.9-8.2 1.4-.7 2.6-1.4 2.6-1.6 0-.2-.9-.7-1.9-1.2-1-.4-3.6-1.9-5.6-3.3-2.1-1.5-7.1-5-11.3-8-4.1-2.9-8.7-6-10.2-6.8-1.5-.8-3-1.8-3.3-2.1-.3-.4-.7-1.2-.9-1.8-.2-.9 0-1.5.9-2.4.7-.7 1.7-1.3 2.4-1.3.6 0 2.6.7 4.4 1.6 1.8.8 8 3.2 13.7 5.2 5.8 2.1 13.2 4.8 22.3 8.5l3.9-4.3c2.1-2.3 7.2-7.7 11.3-11.9 4.1-4.2 8.4-8.3 9.5-9.1 1.1-.8 2.5-1.5 3.2-1.5zm-17.3 24.8c-2.6 3.3-5.5 6.8-6.5 7.8s-2.3 2-2.9 2.2c-.8.1-3.3-.8-6.9-2.4-3.2-1.4-5.9-2.5-6.1-2.3-.3.2 1 1.9 2.7 3.7 1.8 1.9 3.5 4 3.9 4.8.7 1.4.7 1.4-.8 1.2-1.2-.3-2 .1-3.8 1.5-1.4 1-3.4 2.2-4.4 2.8-1.1.6-2.8 1.7-3.8 2.4-.9.7-3.1 2.1-4.8 3.1-1.8 1-3.2 2-3 2.2 0 .1 2.5-.1 5.5-.5 2.9-.4 6.8-.8 8.7-.8 1.9 0 4.8.4 6.6.8 1.8.4 4.1 1.2 5 1.9 1 .6 2.8 2.4 4 4.1 1.5 1.9 2.9 4.7 4 7.8 1 2.7 2.1 4.9 2.4 4.9.5 0 .6-.9.3-3.6-.1-2-.3-4.1-.4-4.7-.1-.5 0-3.8.2-7.2.3-4.7.3-6.4-.1-6.7-.4-.2-1.2-.2-2-.1-.8.2-1.4.2-1.4 0 0-.1.7-.5 1.5-.7.9-.3 1.6-1 1.8-1.5q.2-1-1.3-2.5c-.9-1-1.5-2-1.5-2.9 0-.8 1.2-3.4 2.6-5.9 1.4-2.5 4.2-7.4 6.1-11 2-3.6 4.2-7.7 5-9.1.7-1.4 1.1-2.7.9-2.9-.3-.1-1.9 1.5-3.6 3.7-1.8 2.1-5.3 6.5-7.9 9.9zm-228 11.1c.6.2 1.3.6 1.5.9.3.2.5 1.2.6 2.2.1 1.6.2 1.8 1.8 2 1.8.1 1.8.1 1.4-1.4-.3-1.3-.2-1.8.9-2.8.6-.7 1.6-1.3 2.2-1.3.6 0 1.6.6 2.3 1.3.7.7 1.2 1.6 1.2 2.1s-.4 1.6-1 2.5c-.5.9-1.7 2.1-2.6 2.6-.9.6-2.6 1.3-3.7 1.5-2.2.5-2.2.5-1.4 1.8.7 1.1.6 1.3-.4 2.4-.6.6-1.4 1.2-1.7 1.4-.3.1-.4 1.2.1 5.6l2.6-3.1c2.5-3 2.6-3.1 1.9-4.3-.7-1.2-.7-1.4 0-2 .6-.6 1.9-.8 4.6-.8 2.5 0 4.2.3 4.9.7.9.7.9.8.2 1.9-.7.9-.9 2.7-1 7.3-.2 5.9-.2 6.1.9 6.9.6.3 1.1 1 1.1 1.5 0 .4-.5 1-1.1 1.5q-1.1.7-4.7.7c-2.6 0-3.9-.2-4.4-.7-.4-.5-.8-1-.8-1.3 0-.2.5-1 1-1.5.7-.7 1-1.7 1-3.4 0-1.3-.1-2.5-.3-2.7-.3-.2-1.3.5-2.5 1.5-1.1 1-2.4 2.1-3 2.4-.9.5-.9.6 0 2.1.8 1.5.8 1.6-.2 2.6-.8.8-1.6 1-4.7 1-2.7 0-4-.2-4.5-.7-.5-.5-.6-1.1-.4-1.6.2-.4.8-1 1.3-1.2.7-.4.8-1.3.8-13l-1.3-.6c-.8-.4-1.5-1.1-1.6-1.6-.1-.6.2-1.3.5-1.7.4-.3 2.2-.8 4-1 3.4-.3 3.4-.3 2.4-1.3-.5-.6-1.2-1.7-1.5-2.5-.3-.9-.4-2.2-.2-2.9.1-.8.8-1.9 1.5-2.4.8-.6 1.6-.8 2.3-.6zm-86.4 1.1c.2 0 .8.4 1.3 1 .8.8.9 1.2.5 2-.2.5-1.2 1.5-2.1 2.2-.9.7-2.5 1.5-3.6 1.8-1.1.3-3.3.5-4.9.5-2 0-3.3.3-4.4 1-.8.5-1.5 1.4-1.5 1.8 0 .3.1.7.3.7.1 0 1.1-.5 2.1-1.2q1.9-1.3 3.9-1.3c1.1 0 3 .5 4.5 1.3 1.4.7 3 1.8 3.6 2.4.7.5 1.5 2.3 1.9 3.8.7 2.3.7 3.1.2 5.2-.6 2.2-1.1 2.9-4 5.2-1.9 1.5-3.9 2.7-5 2.9-.9.2-3.1.2-4.8.2-2.2-.2-3.4-.5-4.2-1.2-.6-.6-1.8-2.5-2.6-4.3-1.5-2.9-1.6-3.7-1.6-7.5 0-3 .3-5.2 1.1-7.5s1.6-3.7 3-5c1-1 3-2.2 4.4-2.7 1.8-.6 3.4-.8 5-.6 1.4.2 3.4.1 4.5-.1 1.1-.3 2.1-.5 2.4-.6zm-12.2 17.8c0 1.5.3 3.7.7 5 .5 2.2.6 2.3 2.1 2 .8-.2 1.8-.6 2.1-1 .4-.3.7-1.6.6-2.9 0-1.4-.2-3.5-.5-4.9-.4-2.1-.7-2.5-1.6-2.5-.6 0-1.7.3-2.3.7-1 .7-1.2 1.2-1.1 3.6zm236.7-16.8c2.8 0 3.5.1 4.4 1.1 1 1 1 1.4.3 7.7l1.4-.5c.8-.3 2.8-.5 4.3-.5 2.3 0 3.1.2 4.2 1.2.7.7 1.8 2.1 2.3 3.3.5 1.1.9 3.1.9 4.6 0 1.4-.4 3.5-.8 4.5s-1.8 3-3 4.5c-1.5 1.8-2.8 2.8-4.1 3.1-1 .3-2.5.5-3.2.3-1.3-.3-1.4-.2-1.4 1.2 0 .8.4 2 1 2.5s1.2 1 1.5 1c.3 0 .6.3.7.7.1.3 0 .9-.1 1.2-.3.4-2 .7-5.4.9-3.5.2-5.4 0-6.2-.5-.7-.3-1.3-1-1.4-1.5-.1-.6.2-1.4.6-1.8.4-.4.9-1.5 1.1-2.5.4-1.6.4-1.7-1.3-1.5-1 .1-2.4.1-3.3 0-1 0-2-.7-3.2-1.9-1.2-1.3-2.1-2.9-2.7-5.1-.6-2.2-.8-4-.6-5.3.2-1.1.9-2.9 1.6-4.1.6-1.2 1.9-2.6 2.8-3.2 1.2-.9 2.4-1.2 7.1-1.3l.2-1.7c.1-1.4-.1-1.8-1.4-2.5-.8-.5-1.6-1.4-1.6-1.9-.1-.5.3-1.2.9-1.5.5-.3 2.4-.5 4.4-.5zm-6.1 21.8c.1 1.1.5 1.5 1.3 1.6 1 .1 1.1-.1 1.1-2.8 0-1.6.2-3.7.5-4.7.3-1.4.2-2.1-.2-2.4-.3-.3-.9-.5-1.4-.5-.6 0-.9.7-1.1 3.6-.2 2-.3 4.3-.2 5.1zm10.4-2.5v3.3c2.5 0 3.1-.4 3.5-1 .3-.5.6-2.4.6-4.1.1-2.9 0-3.2-1-3.3-.6-.1-1.5.3-2.1.9-.8.8-1 1.6-1 4.2zm-302.5-18.7c3.2 0 7.2.2 9 .5 2.3.3 3.6.8 4.4 1.6.6.6 1.2 1.6 1.4 2.3.1.6 0 1.7-.3 2.5-.3.7-1.2 2.3-3.5 5.6l2.5 2.5c1.6 1.6 2.6 3.1 2.8 4.1.2.9.2 2.4 0 3.4-.1 1-.8 2.2-1.4 2.9-.6.5-2 1.3-3.1 1.6-1.1.2-6 .5-10.9.6-5.4.1-9 0-9.4-.3-.3-.3-.5-1-.4-1.5.1-.7.6-1.1 2.9-1.3v-4.8c0-2.7.2-7.3.4-10.3.3-4.9.3-5.4-.5-5.4-.5 0-1.2-.3-1.6-.7-.5-.5-.6-1.1-.4-1.6.2-.5.8-1 1.4-1.2.5-.2 3.6-.4 6.7-.5zm.3 5.8c.1 1 .2 2.5.2 3.1 0 .7.3 1.1 1 1.1.6 0 2.3-.5 3.8-1 2.3-.9 2.7-1.2 2.7-2.2 0-.8-.4-1.5-1-1.8-.5-.2-2.3-.6-4-.9l-3-.2zm.6 13.3c.2 1.9.4 3.7.5 3.8.2.2 1 .3 2 .1.9 0 2.2-.3 2.8-.7.6-.3 1.3-.8 1.5-1.1.2-.3.4-1.4.4-2.4 0-1.7-.2-1.9-2-2.6-1.1-.4-2.8-.8-3.8-.8h-1.7zm44.3-12.6c1.9 0 4.1.3 5.1.7 1.3.6 1.8 1.1 1.8 1.9 0 .6-.4 1.5-.9 2s-1.2.9-1.6 1c-.5.1-.7 1.5-.7 6-.1 5.7-.1 5.9 1 6.1.7.2 1.3.7 1.4 1 .1.5 0 1.3-.2 1.8-.3.5-1.3 1.2-2.2 1.3-.9.2-2.5.3-3.6.3-1.1-.1-2.4-.2-2.9-.4-.4 0-1-.7-1.1-1.3-.2-.6.1-1.8.5-2.6.5-1.1.8-3 .8-12l-1.6-.5c-.9-.3-1.8-.9-2.1-1.4-.4-.6-.4-1.1 0-1.7.3-.5 1-1.2 1.7-1.5.7-.4 2.7-.6 4.6-.7zm93.6.1c.8-.1 2.7.5 4.3 1.1 1.9.8 3 1.7 3.7 2.9.8 1.4.9 2.5.9 7-.1 4.2 0 5.5.6 6 .4.4 1.1.9 1.5 1.3.4.3.8.8.8 1.1 0 .3-.5 1-1.2 1.6-.9.8-1.5 1-2.8.7-1-.1-2.4-.7-3-1.2-1.3-.9-1.3-.9-2.8 0-1.2.7-2.2.9-4.7.8-2.4-.1-3.7-.5-4.9-1.3-.9-.6-1.8-1.6-2.1-2.2-.2-.7-.2-1.9.1-2.9.2-1 1.2-2.5 3.6-4.9l-1.4-1.2c-1-.8-1.4-1.6-1.5-2.7 0-1.1.5-1.9 2-3.2 1.1-1 2.7-2 3.7-2.3.9-.3 2.4-.6 3.2-.6zm-2.2 9.1c.1.1.9 0 1.8-.4.9-.3 1.7-.7 1.7-.9 0-.2-.3-.9-.5-1.4-.3-.6-.8-1-1.2-1-.3 0-.9.8-1.3 1.8-.5.9-.7 1.8-.5 1.9zm-.1 5.7c0 .2.4.7.8 1.1.7.6 1 .6 2 .1s1.3-1 1.3-2.6c0-1.1-.2-2.1-.4-2.2-.3-.2-1.3.5-2.2 1.5-.8.9-1.5 1.9-1.5 2.1zm82.3-14.5c.8.1 2.4.5 3.5.9s2.4 1.2 2.9 1.6c.5.5 1.2 1.9 1.6 3.1.4 1.2.8 4.4.9 7 .1 4.6.1 4.7 1.5 5.4.7.3 1.4.9 1.4 1.3 0 .5-.9 1.1-1.9 1.6-1.2.5-2.5.6-3.4.4-.8-.2-2-.6-2.6-1-1-.6-1.4-.6-3.8.7-1.4.7-3.2 1.3-3.9 1.3-.8 0-2-.4-2.8-1-.8-.6-1.8-1.8-2.3-2.9-.5-1-.7-2.4-.6-3.2.2-.7.7-2 1.2-2.9.7-1.2 1.7-1.7 5.5-3 4.2-1.4 4.5-1.5 4.5-2.8.1-1-.2-1.5-1.1-1.7-.6-.2-1.4-.2-1.8-.1-.4.1-.8.7-.9 1.4-.1.7-.5 1.6-.9 1.9-.3.4-1.3.7-2.1.7s-1.8-.4-2.3-1.1c-.4-.5-.9-1-1.1-1-.1 0-.8.6-1.5 1.2-.9.9-1.6 1.2-2.4 1-.6-.2-1.4-.6-1.7-.9-.4-.3-.8-1.2-.9-1.9-.2-1-.5-1.4-1.1-1.3-.8.1-.9.9-1.1 12.4l1.2.2c.6.2 1.5.7 1.8 1.3.3.7.3 1.2-.3 1.7-.7.6-2 .8-5.5.8-2.7 0-5.2-.2-5.7-.5-.6-.3-1-.9-1-1.4 0-.5.6-1.4 1.2-2 1.1-1 1.3-1.4 1.3-12.1h-1.5q-1.6 0-1.5.7c0 .5-.5 1.2-1 1.8-.6.5-1.4 1-1.8 1-.4 0-1.1-.3-1.5-.8-.4-.4-.7-1.6-.7-3.1 0-1.3.1-2.6.3-3 .2-.3 1.2-.8 2.2-1 1.1-.3 3.1-.3 4.8 0 1.6.3 5.3.4 8.2.2 3.7-.2 5.5-.1 6 .3s1.2 1.4 2.3 4.1l.5-1.2c.3-.7 1.1-1.7 1.7-2.3.7-.6 2-1.3 3-1.6.9-.3 2.3-.4 3.2-.2zm-1.8 15.2c0 .2.3.5.6.6.2.2 1 .1 1.7-.2 1-.4 1.3-.9 1.3-2 0-1-.3-1.5-.8-1.5-.4 0-1.2.6-1.8 1.3-.6.7-1 1.5-1 1.8zm-134.1-15c4 .1 4.7.3 5.6 1.3 1 1.1 1.1 1.1 2.4.2.9-.5 2.8-.9 4.9-1 3.1-.2 3.7-.1 4.8.8 1 1 1.1 1.3.6 2.1q-.6 1.1-.6 7.2c0 3.8.2 6.4.5 6.5.2.2.7.8 1 1.3.3.8.2 1.2-.5 2-.9.8-1.7 1-4.8 1-2.1 0-4.3-.2-5-.5-.7-.3-1.2-.8-1.3-1.3 0-.5.6-1.4 1.3-2 1.1-1 1.3-1.6 1.3-7.7l-2.9 2.6c-1.6 1.4-3.1 2.9-3.3 3.3-.2.4.1 1.1.9 1.9.9.8 1.1 1.5.9 2.1-.2.4-.9 1-1.5 1.2-.6.3-2.5.4-4.3.4-1.7 0-3.7-.3-4.3-.6-.7-.3-1.4-1.1-1.4-1.6-.1-.6.3-1.5.8-2 1-.9 1.1-1.6 1.1-12.5l-1.5-.6c-.9-.4-1.6-1.1-1.6-1.6 0-.6.5-1.4 1.1-1.8 1-.6 2.2-.8 5.8-.7zm3.9 7.4.3 2.2 4.6-4.5c-1.7-1.7-2.3-2.2-2.5-2.2-.2.1-.9.6-1.5 1.2-1 .9-1.1 1.4-.9 3.3zm23.3-7.3c1.7.2 3.5.3 4 .3.4 0 1.9-.1 3.5-.3 2.4-.3 3-.2 5.1 1 1.3.7 2.8 1.9 3.3 2.7.5.7 1.3 2.6 1.8 4.1.8 2.4.8 3 .3 5-.5 1.6-1.4 3-3.3 4.9-1.8 1.7-3.5 2.8-4.9 3.2-1.4.4-2.7.4-4 .1-1-.2-2-.3-2.1-.2-.2.2-.3 1-.2 2 0 1.2.5 2.3 3.1 5.2l-1.2 1c-.7.5-1.6.8-2.2.6-.5-.2-2.5-.3-4.4-.3-2.3 0-3.6-.2-4.1-.8-.4-.4-.7-.9-.7-1.2 0-.3.7-1.2 1.5-2.1 1.6-1.6 1.6-1.7 1.3-5.4-.2-2-.3-6.3-.3-9.4 0-4.6-.2-5.6-.8-5.6-.4 0-1.2-.5-1.7-1-.7-.7-.9-1.3-.7-1.8.2-.5 1.1-1.1 1.9-1.5 1-.4 2.6-.6 4.8-.5zm3.7 6.9c.1.6.3 2.9.5 5l.3 3.9c2.5 0 3.7-.3 4.3-.8 1-.6 1.2-1.1 1.1-3.6 0-1.6-.3-3.6-.6-4.6-.6-1.5-.9-1.8-2.4-1.9-.9 0-2.1.1-2.6.4-.5.3-.8.9-.6 1.6zm131-7.1c.6 0 2.4.4 4 1 1.7.6 3.5 1.5 4.2 2.1.6.6 1.4 2 1.9 3.1.3 1.1.8 3.3.8 4.8.1 2.1-.2 3.4-1.1 5.2-.7 1.4-1.9 2.9-2.5 3.4-.7.5-2.6 1.1-4.3 1.5-2.3.4-3.4.4-4.9 0-1.4-.5-1.8-.5-1.8 0-.1.4-.2 1.1-.4 1.6-.2.7.2 1.5 1.3 2.7.9.9 1.5 1.9 1.3 2.2-.1.4-.6.8-1.1 1.1-.5.2-2.7.5-4.9.7-3.6.2-4.1.1-6.5-1.9l3-2.7-.6-5.5c-.4-3.1-.6-7.6-.6-10.2 0-4.5-.1-4.6-1.3-4.9q-1.2-.2-1.2-1.2c0-.6.5-1.3 1.1-1.6.7-.3 2.7-.5 5.4-.3 2.8.2 4.7 0 5.7-.4.8-.4 2-.7 2.5-.7zm-3.8 11c.1 2.6.4 5 .7 5.4.4.4 1.4.6 2.6.5l2-.2c.6-6.1.6-7.8.1-9.1-.5-1.4-.9-1.9-1.8-1.9-.7-.1-1.9 0-2.5.2-1.3.4-1.3.4-1.1 5.1zm20.8-11c1.4 0 3.3.4 4.3.9 1.1.5 1.8 1.3 1.8 2 .1.7-.2 1.3-.8 1.6-.8.4-1 1-1 2.7 0 1.3.1 2.4.3 2.5.2.2 1.4-.8 2.5-2.2 1.9-2.2 2.1-2.6 1.4-3.1-.4-.4-.8-1-.8-1.5s.5-1.1 1.1-1.4c.5-.3 2.9-.5 5.2-.5 3.1 0 4.5.2 5 .7.5.5.6 1.1.4 1.6-.2.5-.8 1-1.3 1.3-.8.4-.8 1-.5 6.3.3 4.9.5 5.9 1.2 6.5.5.3 1 1 1 1.6 0 .5-.5 1.2-1 1.5-.6.3-2.8.5-4.9.5-2.3 0-4.3-.2-4.8-.6-.9-.6-.9-.7.2-2.2.8-1 1.2-2.3 1.3-4.1.1-1.8 0-2.6-.5-2.6-.3 0-1.7 1-3 2.3-1.3 1.2-2.4 2.5-2.4 2.8 0 .4.4 1 .8 1.4.4.4.8 1 .8 1.4 0 .3-.5.9-1.2 1.2-.6.3-2.7.5-4.6.5-1.9-.1-3.9-.2-4.4-.3-.4-.2-1-.6-1.1-1.1-.1-.4.2-1.2.7-1.8.7-.9 1-2.4 1.5-13.2l-1.4-.6c-1-.4-1.6-1-1.6-1.6-.1-.8.4-1.3 1.6-1.8.9-.3 2.8-.7 4.2-.7zm-236.7.8c2.3.2 4.6.5 5.1.7.5.3.9.9.9 1.5s-.6 1.3-1.3 1.6c-1 .5-1.3 1-1.3 2.3.1 1.5.1 1.6 1.9 1.5 1.1 0 3.1.3 4.7.6 1.5.3 3 .8 3.4 1.1.4.4 1 1.4 1.4 2.3.4.9.7 2.2.7 2.8 0 .7-.4 2-.8 2.8-.4.8-1.4 1.8-2.2 2.2-1.1.6-3.1.8-6.9.8-3.4 0-6.2-.3-7.8-.7-1.3-.5-2.3-.9-2.3-1.1 0-.1.1-.5.2-1 .1-.4.7-.7 1.1-.7.8 0 .9-.3.5-1.9-.2-1-.3-3.9-.3-11.1l-1.8-.8c-1-.4-1.7-.9-1.7-1.1 0-.2.1-.6.3-.9.2-.3.7-.7 1.2-.9.4-.1 2.6-.2 5 0zm4.3 16.5c.5.2 1.6-.1 2.6-.6q1.6-1 1.6-2.1c0-.6-.5-1.4-1.2-1.8-.6-.4-1.7-.9-2.4-1.1-1.3-.3-1.3-.3-1.4 2.5 0 2.2.1 2.9.8 3.1z"/>
</svg>
