<svg version="1.2" xmlns="http://www.w3.org/2000/svg" width="1098" height="196" preserveAspectRatio="xMinYMin">
    <path fill-rule="evenodd" d="M64.3 11c.7 0 4.5 3.5 8.6 7.7C76.9 23 84 32.1 88.5 39s9.8 15 11.7 18c1.9 3 4.3 7 7.3 12.2l5-4.4c2.8-2.4 9.3-7.5 14.5-11.4 5.2-3.8 14.8-10.6 21.3-14.9 6.5-4.4 13-8.8 14.5-9.7 1.5-1 3.3-1.8 4-1.8.6 0 2.3 1.1 3.7 2.5 1.9 1.9 2.3 3 1.8 4.7-.5 1.2-3.7 4.5-7.3 7.3-3.6 2.8-12.1 11.6-19 19.6-6.9 7.9-15.3 17.3-18.7 20.9-3.4 3.6-6.3 7.2-6.3 8 0 1 1.7 2 4.7 2.8 2.7.7 7.3 2.4 10.3 3.8 3 1.4 11.1 6.3 18 10.9 6.9 4.6 13.9 9.8 15.5 11.5 1.9 2 3 4.2 3 6 0 1.5-.9 3.7-2 4.9-1.1 1.2-3.1 2.5-4.5 3-1.6.5-5.7.1-11.5-1.1-5-1-13.5-2.5-19-3.3-5.5-.8-14.7-1.5-20.5-1.5-8.9 0-11.2.4-14.9 2.3-2.5 1.2-6.2 4.2-8.4 6.7-2.1 2.5-5.5 7.9-7.4 12-2.9 6.1-4.2 10.7-6.5 24.5-2.1 12.7-3.4 17.8-5.1 20.2-1.4 2.1-3 3.3-4.4 3.3-1.3 0-3.2-1-4.3-2.2-1-1.3-2.2-3.4-2.5-4.8-.3-1.4.1-7.5 1-13.5s3.3-16 5.2-22c2-6 5.1-18.4 6.9-27.5 1.7-9.1 3-16.7 2.8-17-.2-.3-3.4.9-7.1 2.7-3.7 1.7-12.7 5.5-19.8 8.3-7.1 2.9-19.2 7.4-26.7 10.1-7.6 2.7-14.8 4.9-16 4.9-1.3 0-3.3-.7-4.5-1.5-1.4-.9-2.3-2.5-2.3-4.1 0-1.4.4-3.3.8-4.2.5-.9 6.3-6 12.8-11.3 6.5-5.2 18.9-14.7 27.4-21 8.5-6.4 18.8-14 22.8-17 6-4.5 7.3-5.9 7.2-8.2 0-1.5-.9-6.6-2-11.5-1.2-4.8-2.7-11.4-3.5-14.7-.8-3.3-2.3-10-3.5-15-1.2-5-2.3-9.8-2.6-10.8-.2-.9.3-2.4 1.2-3.2.8-.8 2.1-1.5 2.7-1.5zm19 49.8c.9 2.6 1.7 6.5 1.7 8.7 0 2.5-.9 5.3-2.3 7.5-1.3 1.9-6.6 6.7-11.8 10.5-5.2 3.9-13.5 10-18.6 13.5-5.1 3.6-9.4 7.1-9.7 7.8-.4.7 3.2-.2 8.7-2.2 5-1.8 11-4.1 13.2-5.1 2.2-.9 6.5-2.1 9.5-2.6 4.1-.6 5.9-1.5 7.3-3.4.9-1.4 2.3-2.5 3-2.5.6.1 2.1 1.2 3.2 2.5s1.7 2.7 1.3 3.2c-.4.4-1.2 5-1.7 10.1-.6 5-.9 9.7-.6 10.2.3.6 2.8-.3 5.8-2 2.8-1.6 8.1-3.6 11.7-4.4 3.6-.9 9.6-1.5 13.5-1.5 3.9 0 9.4.4 12.3.7 3 .4 5.5.5 5.7.2.3-.3-1-1.8-2.7-3.5-1.7-1.7-5.3-5.7-8.1-9-2.7-3.3-5.6-6.3-6.3-6.7-.9-.5-2.8.4-5.1 2.5l-3.7 3.2c3.4-5.4 4.4-7.8 4.4-8.7 0-1 .9-3.5 2-5.5 1-2.1 1.6-4.1 1.2-4.5-.4-.4-1.6.5-2.7 1.9-1.1 1.5-3.5 3.2-5.2 4-2.8 1.1-3.8 1.1-6.3-.2-1.6-.8-3.8-2.7-4.8-4.2-1-1.6-4.5-7.8-7.6-13.8-3.2-6-6.1-11.3-6.5-11.8-.4-.4-1.1-.5-1.6-.2-.6.4-.3 2.5.8 5.3zM1057.7 0c1.3 0 2.7.9 3.3 2 .5 1.1 1 3.6 1 5.5s-1.6 7.9-3.6 13.3c-2 5.3-4.7 12.2-5.9 15.2-1.3 3-5.7 12.4-9.9 20.8-4.2 8.3-7.3 15.4-6.8 15.6.4.2 6.3.7 13.2 1.1 6.9.3 18.8 1.1 26.5 1.6 7.7.5 15.5 1.4 17.3 1.9 1.7.6 3.7 2 4.3 3.3.9 1.8.7 2.7-.9 4.7-1 1.4-3.4 2.8-5.3 3.2-1.9.3-7.9 1.1-13.4 1.8-5.5.6-12.2 1.5-15 2-2.7.5-11.7 1.8-20 3-8.2 1.3-15.7 2.4-16.5 2.6-1.3.4-1.3.6.1 2.2.8.9 2.8 6.9 4.3 13.2 1.5 6.3 3.6 18.5 4.7 27 1 8.5 2.2 19.5 2.5 24.5.5 8 .3 9.4-1.5 12.3-1.5 2.3-2.9 3.2-4.8 3.2-1.8 0-3.8-1-5.4-2.7-1.5-1.6-4-5.5-5.6-8.8-1.7-3.3-5.3-13-8.2-21.5-2.9-8.5-6.9-18.7-9-22.5-2.9-5.5-4.7-7.5-8.2-9.5-4-2.2-5.5-2.4-16.4-2.4-6.6 0-16.5.8-22 1.7-5.5.9-15.4 3.1-22 4.7-6.6 1.7-15.2 4.4-19 5.9-3.8 1.6-8.6 3.6-10.5 4.4-3.1 1.4-3.8 1.4-5.7.2-1.3-.8-2.3-2.5-2.3-3.7-.1-1.3.7-3 1.7-4 1-.9 6.5-3.9 12.3-6.6 5.8-2.8 21.6-11.3 35.1-18.9 13.5-7.6 26.9-14.9 29.7-16.3 2.9-1.4 5.2-2.8 5.2-3.2 0-.5-1.7-1.5-3.7-2.4-2.1-.8-7.2-3.9-11.3-6.7-4.1-2.9-14.2-10-22.5-15.9-8.2-5.9-17.5-12.1-20.5-13.7-3-1.6-6-3.5-6.6-4.2-.6-.8-1.4-2.4-1.8-3.6-.4-1.7.1-3 1.9-4.8 1.3-1.4 3.4-2.5 4.7-2.5 1.3 0 5.2 1.4 8.8 3.1 3.6 1.7 16 6.4 27.5 10.5s26.3 9.6 44.6 16.9l7.7-8.5c4.2-4.7 14.4-15.4 22.6-23.9 8.3-8.4 16.9-16.6 19-18.2 2.2-1.6 5-2.9 6.3-2.9zm-34.5 49.5c-5.2 6.6-11 13.7-13 15.7-2.1 2.1-4.7 4-5.9 4.3-1.5.3-6.5-1.4-13.8-4.7-6.3-2.9-11.8-5-12.2-4.6-.5.4 2 3.8 5.5 7.5s7 8 7.8 9.6C993 80 993 80 990 79.5c-2.4-.4-4 .3-7.7 3.1-2.7 2-6.6 4.5-8.8 5.7-2.2 1.1-5.6 3.2-7.5 4.7-1.9 1.4-6.3 4.3-9.7 6.3-3.5 2-6.2 3.9-6 4.2.1.3 5-.1 11-1 5.9-.8 13.7-1.5 17.5-1.5 3.7 0 9.6.7 13.2 1.6 3.6.8 8.1 2.5 10 3.8 1.9 1.2 5.5 4.9 8 8.2 2.9 3.8 5.7 9.4 8 15.7 1.9 5.3 4.1 9.7 4.8 9.7.9 0 1.1-1.8.6-7.2-.3-4-.7-8.2-.9-9.3-.2-1.1 0-7.6.5-14.5.6-9.3.5-12.7-.3-13.3-.7-.4-2.4-.5-3.9-.2-1.6.3-2.8.3-2.8 0s1.3-1 3-1.5 3.2-1.9 3.5-3q.5-2-2.5-5c-1.9-1.9-3-4-3-5.7 0-1.6 2.3-6.8 5.1-11.8 2.9-5 8.4-14.8 12.3-22 4-7.2 8.4-15.4 9.9-18.2 1.5-2.9 2.3-5.5 1.8-5.8-.5-.2-3.8 3-7.2 7.3-3.5 4.2-10.6 13.1-15.7 19.7zM567.1 71.8c1.2.4 2.6 1.2 3.1 1.7s1 2.6 1.1 4.5c.2 3.2.5 3.5 3.7 3.9 3.5.3 3.5.3 2.8-2.8-.7-2.5-.4-3.5 1.7-5.6 1.3-1.4 3.3-2.5 4.5-2.5 1.1 0 3.1 1.1 4.5 2.5s2.5 3.3 2.5 4.3c0 .9-.9 3.2-2 5-1.1 1.7-3.5 4.1-5.2 5.2-1.8 1.1-5.2 2.5-7.5 3-4.3 1-4.3 1-2.8 3.5 1.4 2.3 1.3 2.7-.7 4.8-1.3 1.3-2.8 2.5-3.4 2.8-.6.2-.8 2.4.1 11.3l5.3-6.2c5-6 5.1-6.3 3.7-8.7-1.3-2.2-1.3-2.7.1-4 1.1-1.1 3.8-1.5 9.2-1.5 5 0 8.4.5 9.7 1.4 1.9 1.3 1.9 1.5.4 3.7-1.3 1.8-1.8 5.4-2 14.6-.4 11.8-.3 12.3 1.9 13.8 1.2.8 2.2 2.2 2.2 3 0 .8-1 2.2-2.2 3-1.5 1-4.7 1.5-9.5 1.5-5.2 0-7.7-.4-8.8-1.5-.8-.8-1.5-2-1.5-2.5s.9-1.9 2-3c1.4-1.4 2-3.4 2-6.7 0-2.7-.3-5.1-.7-5.5-.5-.4-2.6.9-4.9 3-2.2 2-4.9 4.2-6 4.8-1.8 1.1-1.8 1.3-.1 4.3 1.6 3 1.6 3.2-.3 5.1-1.6 1.6-3.3 2-9.5 2-5.3 0-7.9-.4-9-1.5-.9-.9-1.2-2.1-.7-3.1.4-.9 1.5-2.1 2.5-2.5 1.5-.8 1.7-2.5 1.7-25.9l-2.7-1.3c-1.6-.7-2.9-2.1-3.1-3.2-.2-1.1.3-2.6 1-3.3.7-.7 4.3-1.6 8-2 6.7-.7 6.7-.7 4.8-2.7-1-1.1-2.4-3.3-3-5-.6-1.7-.8-4.2-.5-5.7.3-1.6 1.6-3.7 3-4.7 1.6-1.2 3.2-1.7 4.6-1.3zm-172.8 2.3c.4 0 1.6.8 2.7 1.9 1.6 1.6 1.8 2.4 1 4-.5 1.1-2.5 3.1-4.2 4.4-1.8 1.3-5.1 2.9-7.3 3.5-2.2.6-6.6 1.1-9.7 1.1-4.1 0-6.7.6-8.8 2-1.6 1.1-3 2.7-3 3.5 0 .8.2 1.5.5 1.5s2.2-1.1 4.3-2.5q3.7-2.6 7.7-2.5c2.3 0 6.1 1.1 9 2.6 2.8 1.5 6 3.6 7.3 4.8 1.3 1.1 3 4.6 3.8 7.6 1.4 4.7 1.4 6.2.3 10.5-1.1 4.3-2.2 5.7-7.9 10.3-3.9 3.1-7.9 5.5-10 5.8-1.9.4-6.3.5-9.6.3-4.4-.3-6.8-1-8.4-2.4-1.2-1.1-3.6-4.9-5.3-8.5-2.9-5.8-3.2-7.4-3.2-15 .1-5.9.7-10.5 2.2-15 1.6-4.6 3.3-7.5 6-10.1 2.1-1.9 6.1-4.3 8.9-5.3 3.5-1.2 6.7-1.6 10-1.2 2.7.3 6.7.2 8.9-.3s4.3-.9 4.8-1zm-24.4 35.5c0 3 .7 7.5 1.4 10 1.1 4.4 1.3 4.6 4.2 4 1.7-.4 3.6-1.2 4.3-1.9.7-.7 1.3-3.3 1.2-5.9 0-2.7-.4-7-1-9.8-.8-4.2-1.4-5-3.2-5-1.3 0-3.4.7-4.7 1.5-2 1.4-2.3 2.3-2.2 7.1zM843.3 76c5.7 0 7 .3 8.8 2.3 2 2 2.1 2.8.6 15.2l2.9-1c1.6-.5 5.5-1 8.6-1 4.6 0 6.1.4 8.4 2.5 1.4 1.4 3.5 4.3 4.5 6.5s1.9 6.3 1.9 9.3c0 2.8-.7 6.9-1.6 9-.8 2-3.5 6.1-6 9-3 3.5-5.6 5.5-8.1 6.3-2.1.6-5 .8-6.5.5-2.6-.6-2.8-.3-2.8 2.4 0 1.7.9 3.9 2 5s2.5 2 3 2c.6 0 1.2.6 1.4 1.3.2.6.1 1.8-.2 2.5-.5.8-4 1.4-10.7 1.7-7 .4-10.8.1-12.5-.8-1.4-.7-2.6-2.1-2.8-3.2-.2-1.1.4-2.7 1.2-3.5.8-.8 1.9-3 2.3-4.9.8-3.3.8-3.4-2.7-3.1-1.9.2-4.8.2-6.5.1-2-.1-4.1-1.4-6.5-3.9-2.4-2.5-4.1-5.7-5.4-10.2-1.2-4.3-1.6-7.9-1.2-10.5.4-2.2 1.8-5.9 3.2-8.2 1.3-2.4 3.9-5.3 5.7-6.5 2.3-1.7 4.7-2.3 14.2-2.5l.3-3.4c.2-2.9-.2-3.7-2.8-5.1-1.6-1-3.1-2.7-3.2-3.8-.1-1 .7-2.4 1.8-2.9 1-.6 4.9-1.1 8.7-1.1zm-12.1 43.5c.2 2.2.9 3.1 2.6 3.3 2 .2 2.2-.2 2.2-5.5 0-3.2.4-7.5.9-9.6.6-2.7.5-4.1-.3-4.8-.6-.5-1.9-.9-2.8-.9-1.3 0-1.8 1.4-2.3 7.3-.4 3.9-.5 8.5-.3 10.2zm20.8-5v6.5c5 0 6.3-.7 7-2 .6-1.1 1.1-4.8 1.3-8.2.2-5.8 0-6.3-2-6.6-1.2-.2-3.1.6-4.2 1.7-1.7 1.7-2.1 3.3-2.1 8.6zM247 77.1c6.3 0 14.4.4 18 .9 4.5.7 7.2 1.7 8.7 3.2 1.3 1.3 2.5 3.3 2.8 4.6.3 1.2 0 3.4-.6 5-.6 1.5-2.4 4.6-6.9 11.2l5 5c3.2 3.2 5.2 6.2 5.6 8.3.3 1.7.4 4.8 0 6.7-.3 1.9-1.6 4.5-2.8 5.7-1.3 1.1-4.1 2.6-6.3 3.2-2.2.6-12 1.2-21.7 1.3-10.8.2-18.1-.1-18.8-.7-.6-.5-1-1.9-.8-3 .2-1.4 1.2-2.1 5.8-2.5v-9.7c0-5.4.3-14.6.7-20.6.7-9.8.7-10.7-.9-10.7-1 0-2.5-.7-3.3-1.5-.9-.9-1.2-2.1-.7-3.2.4-.9 1.6-2 2.7-2.4 1.1-.4 7.2-.8 13.5-.8zm.5 11.5c.3 2.1.5 4.9.5 6.2 0 1.5.6 2.2 2 2.2 1.1 0 4.5-.9 7.5-2 4.7-1.7 5.5-2.4 5.5-4.5 0-1.5-.8-2.9-2-3.5-1.1-.5-4.7-1.3-8-1.7l-6-.6zm1.1 26.6c.4 4 .9 7.5 1.1 7.8.3.3 2 .4 3.9.2 1.9-.1 4.4-.7 5.7-1.4 1.2-.6 2.5-1.6 3-2.2.4-.6.7-2.8.7-4.9 0-3.4-.3-3.8-4-5.2-2.2-.8-5.6-1.5-7.5-1.5H248zM337.2 90c3.8-.1 8.3.6 10.3 1.4 2.5 1.1 3.5 2.2 3.5 3.8 0 1.2-.8 3-1.7 3.9-1 .9-2.5 1.8-3.2 2-1.1.3-1.5 2.9-1.5 12-.1 11.4-.1 11.8 2.1 12.3 1.3.3 2.5 1.2 2.8 2 .2.9 0 2.4-.5 3.5-.6 1.1-2.5 2.3-4.3 2.7-1.8.3-5 .6-7.2.5-2.2-.1-4.8-.4-5.8-.7-.9-.2-2-1.5-2.3-2.7-.3-1.2.2-3.6 1-5.3 1.1-2.1 1.6-6 1.6-24l-3.2-1c-1.7-.5-3.6-1.7-4.2-2.7-.8-1.3-.8-2.2 0-3.5.6-1 2.1-2.3 3.5-3 1.3-.7 5.4-1.2 9.1-1.2zm187.3.1c1.6-.1 5.4 1 8.5 2.3 3.8 1.6 6 3.3 7.4 5.7 1.6 2.8 1.9 5.1 1.8 14.1-.2 8.4.1 11 1.2 12 .8.7 2.2 1.8 3 2.5.9.7 1.6 1.7 1.6 2.2 0 .6-1 2-2.3 3.2-1.8 1.7-3 2-5.7 1.5-2-.3-4.7-1.5-6-2.5-2.5-1.8-2.6-1.8-5.5.1-2.4 1.4-4.5 1.8-9.5 1.5-4.8-.2-7.4-.9-9.8-2.5-1.8-1.3-3.6-3.3-4.1-4.5-.5-1.3-.4-3.7.1-5.8.5-1.9 2.4-4.9 7.3-9.8l-2.9-2.3c-2-1.7-2.8-3.3-2.9-5.4 0-2.2 1-3.8 4-6.5 2.1-1.9 5.4-4 7.3-4.6 1.9-.6 4.8-1.2 6.5-1.2zm-4.5 18.3c.2.2 1.9-.1 3.7-.8 1.8-.6 3.3-1.5 3.3-1.9 0-.4-.5-1.7-1-2.8-.6-1.1-1.6-1.9-2.3-1.9-.7 0-1.9 1.6-2.7 3.5-.9 1.9-1.3 3.6-1 3.9zm-.2 11.3c0 .4.8 1.4 1.7 2.2 1.3 1.3 2 1.3 4 .3s2.5-2.1 2.6-5.2c0-2.2-.4-4.2-.9-4.5-.6-.3-2.5 1-4.3 3-1.7 1.9-3.1 3.8-3.1 4.2zm164.7-29c1.6.2 4.8 1.1 7 1.9 2.2.8 4.8 2.3 5.8 3.2.9.9 2.4 3.7 3.2 6.1.8 2.5 1.6 8.8 1.7 14 .3 9.3.3 9.5 3 10.8 1.5.7 2.8 1.9 2.8 2.7 0 .9-1.7 2.2-3.8 3.1-2.3 1-4.9 1.3-6.7.9-1.7-.4-4-1.3-5.3-2.1-2-1.2-2.8-1.1-7.5 1.4-2.9 1.4-6.4 2.7-7.9 2.7s-4-.9-5.5-2c-1.6-1.2-3.6-3.7-4.6-5.8-1-2.1-1.5-4.8-1.2-6.4.3-1.5 1.3-4.1 2.3-5.8 1.5-2.4 3.4-3.5 11-6 8.5-2.8 9.1-3.1 9.1-5.7.1-2-.5-2.9-2.2-3.4-1.2-.3-2.9-.4-3.6-.2-.8.2-1.6 1.5-1.8 2.8-.2 1.4-1 3.2-1.8 3.9-.7.8-2.6 1.4-4.2 1.4s-3.6-.9-4.6-2.2c-.9-1.1-1.9-2.1-2.2-2.1-.2 0-1.6 1.2-3 2.5-1.8 1.8-3.2 2.4-4.8 1.9-1.2-.3-2.8-1.1-3.5-1.7-.7-.7-1.5-2.4-1.8-3.9-.3-1.9-1-2.7-2.2-2.5-1.5.2-1.8 1.7-2.2 24.7l2.5.5c1.3.3 2.9 1.4 3.5 2.5.7 1.5.6 2.4-.6 3.5-1.2 1.2-4 1.5-11 1.5-5.2 0-10.3-.4-11.4-1-1.1-.5-2-1.7-2-2.7 0-1 1.2-2.8 2.5-4 2.3-2.1 2.5-2.8 2.5-24.3h-3q-3 0-3 1.5c0 .9-.9 2.4-2 3.5s-2.7 2-3.5 2c-.9 0-2.2-.6-3-1.5-.9-.9-1.5-3.3-1.5-6.2 0-2.6.3-5.3.7-6 .4-.7 2.4-1.7 4.4-2.1 2.1-.5 6.1-.5 9.5.1 3.2.5 10.6.7 16.4.4 7.4-.4 11-.2 12.1.6 1 .7 2.4 2.8 4.6 8.2l1-2.5c.6-1.3 2.1-3.4 3.4-4.6 1.3-1.2 3.9-2.6 5.9-3.1 1.9-.6 4.8-.8 6.5-.5zm-3.6 30.4c0 .5.5 1.1 1.1 1.3.5.3 2.1.1 3.5-.5 1.9-.7 2.5-1.7 2.5-4 0-1.9-.5-3-1.5-3-.8 0-2.4 1.2-3.6 2.7-1.2 1.4-2.1 3-2 3.5zm-268.2-30c8 .3 9.4.6 11.2 2.6 2 2.2 2.2 2.2 4.8.5 1.7-1 5.6-1.9 9.8-2.1 6.1-.4 7.3-.2 9.5 1.7 2.1 1.9 2.3 2.5 1.2 4.2-.8 1.3-1.2 6.2-1.2 14.4 0 7.4.4 12.7 1 13 .5.3 1.4 1.4 2 2.5.7 1.6.5 2.5-1 4-1.7 1.7-3.4 2-9.5 2-4.2 0-8.7-.4-10-1-1.4-.5-2.5-1.7-2.6-2.7 0-1 1.2-2.8 2.5-4 2.3-2 2.6-3.1 2.6-15.3l-5.8 5.2c-3.1 2.8-6.1 5.7-6.5 6.5-.5.8.2 2.3 1.8 3.8 1.7 1.7 2.2 3.1 1.7 4.2-.4.9-1.7 2-3 2.5-1.2.5-5 .8-8.5.8-3.4 0-7.4-.6-8.7-1.2-1.4-.7-2.7-2.2-2.8-3.3-.2-1.1.6-2.9 1.7-4 1.9-1.8 2.1-3.1 2.1-25l-3-1.2c-1.8-.7-3.1-2.1-3.2-3.2 0-1.1 1-2.7 2.3-3.6 1.9-1.2 4.4-1.5 11.6-1.3zm7.8 14.8.6 4.5 9.1-9c-3.3-3.4-4.6-4.4-5-4.4-.4.1-1.8 1.1-3 2.3-2 1.8-2.2 2.8-1.7 6.6zM467 91.4c3.5.3 7.1.6 8 .6.8 0 3.9-.3 7-.7 4.8-.6 6-.4 10.2 2 2.6 1.4 5.6 3.9 6.6 5.4 1.1 1.5 2.7 5.2 3.7 8.2 1.6 4.8 1.6 6.1.5 10-.9 3.3-2.8 6-6.6 9.8-3.6 3.4-6.9 5.6-9.7 6.4-2.9.8-5.4.9-8 .3-2.1-.5-4-.7-4.3-.5-.3.3-.5 2.1-.4 4 0 2.5 1 4.6 6.2 10.5l-2.3 1.9c-1.4 1-3.3 1.6-4.4 1.2-1.1-.3-5.1-.5-8.8-.5-4.6-.1-7.2-.5-8.2-1.6-.9-.8-1.5-1.9-1.5-2.5 0-.5 1.4-2.4 3.1-4.2 3.1-3.2 3.2-3.3 2.5-10.8-.3-4.1-.6-12.5-.6-18.7 0-9.3-.3-11.3-1.5-11.3-.9 0-2.4-.9-3.5-2-1.3-1.3-1.8-2.5-1.3-3.6.4-1 2.1-2.3 3.8-3.1 2-.8 5.2-1.1 9.5-.8zm7.4 13.8c.3 1.2.7 5.7 1 10l.6 7.7c5 .1 7.5-.6 8.7-1.5 1.9-1.2 2.3-2.3 2.2-7.2 0-3.2-.6-7.3-1.3-9.3-1.1-2.9-1.8-3.5-4.7-3.7-1.9-.1-4.2.2-5.2.7-1.1.7-1.6 1.8-1.3 3.3zM736.5 91c1.1-.1 4.7.8 8 2 3.3 1.1 7 3 8.3 4.2 1.2 1.2 2.9 4 3.8 6.2.8 2.2 1.6 6.5 1.7 9.5.1 4.2-.5 6.8-2.3 10.5-1.4 2.7-3.7 5.7-5 6.7-1.4 1-5.2 2.3-8.5 3-4.7.9-6.9.9-9.8 0-2.9-.9-3.7-.9-3.7.1-.1.7-.3 2.1-.7 3.2-.4 1.4.4 3 2.6 5.3 1.7 1.8 2.9 3.8 2.6 4.5-.2.7-1.3 1.6-2.2 2.1-1 .5-5.4 1.1-9.8 1.4-7.2.4-8.3.3-13-3.8l6-5.3-1.3-11.1c-.7-6.1-1.2-15.2-1.2-20.3 0-9.1-.1-9.3-2.5-9.8q-2.5-.5-2.5-2.5c0-1.1 1-2.5 2.2-3.1 1.4-.7 5.4-1 10.8-.7 5.7.4 9.4.1 11.5-.8 1.6-.7 3.9-1.3 5-1.3zm-7.7 22c.2 5.2.9 10 1.5 10.8.7.8 2.7 1.2 5.2 1l4-.4c1.2-12.2 1.1-15.6.2-18.2-1-2.9-1.8-3.8-3.7-3.9-1.4-.1-3.7.1-5 .5-2.5.7-2.5.8-2.2 10.2zm41.7-22c2.8 0 6.5.7 8.5 1.7 2.2 1.1 3.6 2.6 3.7 4 .2 1.4-.5 2.6-1.7 3.2-1.6.8-2 2-2 5.5 0 2.5.3 4.8.7 5 .4.3 2.7-1.7 5-4.5 3.7-4.3 4.1-5.1 2.7-6.2-.8-.7-1.5-2-1.5-3s1-2.2 2.1-2.8c1.1-.5 5.8-1 10.5-1 6.2 0 8.9.4 10 1.5.9 1 1.2 2.2.7 3.2-.4.9-1.5 2-2.5 2.5-1.6.8-1.7 2-1.1 12.6.6 9.8 1 11.9 2.5 13 1 .7 1.9 2.1 1.9 3.2s-.9 2.5-2 3c-1.1.6-5.5 1-9.8 1.1-4.6 0-8.5-.5-9.5-1.3-1.8-1.2-1.8-1.4.4-4.3 1.6-2 2.4-4.6 2.6-8.2.2-3.7-.1-5.2-1-5.2-.7 0-3.4 2-6 4.5-2.6 2.4-4.8 5-4.8 5.7 0 .7.7 1.9 1.6 2.7.8.9 1.5 2.1 1.5 2.8 0 .7-1 1.8-2.3 2.4-1.2.7-5.4 1.1-9.2 1-3.9-.1-7.8-.4-8.8-.6-.9-.3-2-1.2-2.2-2.1-.3-.8.3-2.5 1.3-3.7 1.5-1.8 2-4.7 3.1-26.3l-2.9-1.2c-1.9-.8-3.1-2.1-3.2-3.3-.1-1.5.9-2.5 3.3-3.5 1.8-.7 5.6-1.4 8.4-1.4zM297 92.5c4.6.4 9.3 1 10.2 1.5 1 .5 1.8 1.8 1.8 2.9 0 1.2-1.1 2.6-2.6 3.3-1.9 1-2.5 2-2.5 4.5.1 3.1.2 3.2 3.8 3.1 2.1 0 6.2.5 9.3 1.1 3 .6 6.1 1.7 6.9 2.3.7.7 2 2.7 2.7 4.5.8 1.8 1.4 4.4 1.4 5.7 0 1.4-.7 3.9-1.5 5.5-.9 1.7-2.9 3.7-4.5 4.5-2.1 1.1-6.2 1.5-13.8 1.6-6.8 0-12.4-.6-15.5-1.5-2.6-.9-4.7-1.8-4.7-2.1 0-.2.2-1.1.5-2 .2-.8 1.3-1.5 2.2-1.4 1.5 0 1.7-.6 1-3.8-.4-2.1-.7-7.9-.7-22.3l-3.5-1.5c-2-.8-3.5-1.8-3.5-2.2 0-.4.3-1.3.7-1.9.4-.6 1.4-1.3 2.3-1.7.8-.3 5.3-.4 10-.1zm8.7 33.1c1 .4 3.2-.2 5.1-1.3q3.2-1.9 3.2-4.1c0-1.2-1-2.9-2.3-3.7-1.2-.8-3.4-1.7-4.8-2.1-2.6-.7-2.7-.6-2.8 4.9-.1 4.5.2 5.8 1.6 6.3z" style="fill:#f17906"/>
</svg>
