<svg version="1.2" xmlns="http://www.w3.org/2000/svg" width="1298" height="284" preserveAspectRatio="xMinYMin">
    <path fill-rule="evenodd" d="M1193.5.1c.5 0 1.9 1 3.1 2.2 1.6 1.7 2.2 4.2 2.8 11.2.4 5 1.2 11 1.8 13.5.6 2.5 1.1 10.5 1.2 17.7 0 7.3 0 13.3-.1 13.3-.2 0-.8-1.8-1.3-4s-2-5.5-3.3-7.2c-1.3-1.9-3.4-7.9-4.8-13.6-1.3-5.6-2.6-10.2-2.9-10.2-.3.1-2.3 3.7-4.5 8.2-2.2 4.5-5.5 10.4-7.4 13.2-1.8 2.8-4.3 7.1-5.6 9.6-1.3 2.5-4 6.1-6.1 8-2.6 2.5-3.5 2.9-2.9 1.5.4-1.1 1.5-4 2.5-6.5.9-2.5 3.5-8.8 5.8-14 2.2-5.2 6.5-15.1 9.4-22 3-6.9 6.1-13.6 6.8-15 .7-1.4 2-3.3 2.9-4.2.9-.9 2.1-1.7 2.6-1.7zM90.3 14c1.2-.1 3 .7 3.9 1.7.9 1 4.6 8.1 8.2 15.8 3.5 7.7 7 16 7.6 18.5.7 2.5 1.3 5.8 1.4 7.5.2 1.7.6 3.9 1 5 .7 1.9.6 1.9-.6.1-.7-1-3.1-3.7-5.3-6-2.2-2.3-5.3-7-7-10.4-1.7-3.6-3.6-6.2-4.5-6.2-1.3 0-1.4 1.7-.8 12.7.5 7.1.8 15.7.9 19.3v10.8c-.1 2.3-.4 4.2-.8 4.2-.5 0-1.3-1-1.9-2.2-.6-1.3-1.8-5.7-2.7-9.8-.8-4.1-2-12.2-2.6-18-.6-5.8-1.4-16.6-1.8-24-.6-11.8-.5-13.8 1-16.3 1-1.6 2.6-2.7 4-2.7zm132 25c.9 0 1.9.5 2.2 1 .3.5-.2 2.5-1.1 4.3-.9 1.7-5.3 6.8-9.8 11.3-4.4 4.4-9.2 8.7-10.6 9.4-1.9 1.1-1.4 0 2.5-4.9 2.8-3.5 5.5-6.9 6-7.7.7-1 .6-1.8-.5-2.8-1.3-1.2-2.4-.9-8.5 2.6-3.8 2.2-11.9 6.7-18 9.9-6 3.2-11.3 5.9-11.7 5.9-.5 0-.6-.3-.4-.7.2-.5 5.2-3.7 11.2-7.3 6-3.6 11.6-7 12.5-7.5 1-.5 5.7-3.2 10.6-5.9 4.8-2.8 9.9-5.6 11.3-6.3 1.4-.7 3.3-1.3 4.3-1.3zm967.1 15.3c1.2.8 2.2 2.3 2.4 3.3.1 1.1.5 3.7.8 5.9.3 2.2.1 10.3-.5 18-.7 7.7-1.5 18.4-2.6 33.4l4-.9c2.2-.5 10.5-1 18.5-1s19.3.5 25.3 1c5.9.6 11.8 1.5 13.2 2 1.6.6 2.8 2.1 3.3 4 .4 1.7 1 3 1.5 3 .4 0 3.5-1.9 7-4.2 3.4-2.4 8.8-5.6 12-7.3 3.1-1.7 5.7-3.2 5.7-3.5 0-.3-4.8-1-10.7-1.7-6-.7-14.4-1.5-18.8-1.8-4.4-.3-8.9-1.2-10-1.9-2-1.3-2-1.4.5-2.7 1.9-1.1 7.5-1.4 24.5-1.3 13 .1 23.7.6 26.3 1.3 2.6.7 4.6 1.9 5.3 3.4.9 1.8.7 2.7-.8 4.6-1 1.2-7.9 5.4-15.3 9.2-7.4 3.9-16 7.7-19 8.5-3 .9-7.4 2.3-9.7 3-2.8.9-4.8 1.1-5.5.5-.9-.6-4.3-.1-9.8 1.4-4.7 1.3-15.1 3.7-23.3 5.2-8.1 1.5-14.7 3.3-14.7 3.8s1.8 3 3.8 5.5c2.1 2.5 5.4 7.2 7.3 10.5 2 3.3 5.6 10.3 8.1 15.5 2.5 5.2 5 11.1 5.7 13 .6 1.9 1.3 4.9 1.4 6.7.1 2.2-.6 4-2.3 5.8-2.2 2.4-3 2.6-7 2.1-3.5-.4-6.1-1.8-11.8-6.3-3.9-3.2-9.6-7.7-12.5-10-2.8-2.4-8.8-6.4-13.2-9-4.4-2.6-10.2-5.6-13-6.7-3.6-1.4-7.5-2-14-2-8.5-.1-9.6.1-16.5 3.6-5.6 2.7-10.1 6.1-17.5 13.2-5.5 5.2-10.8 9.7-11.7 10-1 .4-2.7-.2-3.9-1.1-1.6-1.4-2-2.5-1.5-4.8.4-1.9 3.3-5.7 8.4-10.6 4.2-4.2 10.4-9.5 13.7-11.7 3.3-2.3 12.1-10.2 19.5-17.6 8.4-8.5 13.1-13.9 12.5-14.4-.5-.5-6.8-2.3-14-4.1-7.2-1.7-16.4-4-20.5-5.1-4.1-1.1-10.5-2.5-14.2-3-3.8-.6-7.9-1.6-9.3-2.2-1.4-.7-2.8-1.9-3-2.5-.3-.7-.2-2 .3-3 .4-.9 1.6-1.9 2.7-2.3 1.1-.4 4-.3 6.5.1 2.5.5 8.1 1.3 12.5 1.9 4.4.6 16.3 1.3 26.5 1.7 15.2.5 18.7.4 19.7-.8.6-.8 2.7-5.9 4.6-11.4 1.9-5.5 5.6-15.4 8.2-22 2.6-6.6 5.8-14 7.2-16.5 1.4-2.5 3.3-5.5 4.1-6.8 1.4-2.1 1.7-2.2 3.6-.9zM1175 99.5c-3.2 10.3-5.8 16.8-7.2 18.3-1.3 1.3-4 2.8-6 3.5-3.2 1-3.6 1.4-2.4 2.7.7.8 1.5 2.2 1.9 3 .3.8-.2 2-1.1 2.6-1 .7-1.6 2.1-1.4 3.5.3 1.8-1.3 4.4-5.7 9.7-3.4 3.9-6.1 7.9-6.1 8.7 0 1.1 1.2 1.5 4.8 1.5 2.6 0 7.4.7 10.7 1.6 3.3.9 8.6 2.7 11.8 4 3.1 1.3 8.3 4.1 11.5 6.1 3.1 2.1 9.1 6.3 13.2 9.3 4.1 3.1 8.1 5.9 8.8 6.3.8.5.7-.5-.5-3-.9-2.1-3.5-8.5-5.9-14.3-2.4-5.8-5-13.4-5.9-17l-1.6-6.5c-15.7-2.1-16.1-2.2-13.1-3.1 1.8-.5 3.2-1.1 3.2-1.4 0-.3 2.5-1.5 5.7-2.7 3.2-1.2 8.3-2.8 11.3-3.6 3-.8 8.4-2 12-2.7 3.6-.7 7-1.7 7.5-2.3.7-.6-3.8-.7-13-.3-7.7.3-15.8.9-18 1.3-3.5.5-4.4.3-6.7-2-2.2-2.1-2.8-3.6-2.8-6.9 0-2.4.5-7 1-10.3.5-3.3 1.9-12.4 3-20.2 1.1-7.9 2-14.8 2-15.3s-.4-1-.9-1-1.8 3.3-3 7.3c-1.2 3.9-4.4 14.4-7.1 23.2zM109.1 73c.5 0 3.2 2.1 6 4.8 2.9 2.6 8 8.3 11.4 12.7 3.4 4.4 8.3 11.4 11 15.5 2.7 4.1 5.2 8 5.6 8.5.5.6 3.6-1.6 7.6-5.2 3.7-3.5 8-7.1 9.4-8 1.5-1 7.4-5.1 13.3-9 5.8-4 11.8-7.8 13.4-8.3 1.5-.6 3.5-.8 4.5-.5.9.3 1.9 1.2 2.2 2 .3.8.1 2.5-.4 3.8-.5 1.2-7.3 9.6-15.1 18.7-7.9 9.1-17.7 20.3-21.9 24.9-4.2 4.6-9.1 9.2-10.9 10.2-1.7 1-3.2 2.4-3.2 2.9s1.6 1 3.5 1 6.1.7 9.3 1.5c3.1.8 8.6 2.6 12.2 4 3.6 1.4 6.7 2.3 7 2 .3-.3-1.6-3.2-4.3-6.5-2.6-3.3-4.7-6.2-4.7-6.5 0-.3 2.8.5 6.3 1.8 3.4 1.2 8.2 3.4 10.7 4.9 2.5 1.4 7.6 5 11.5 8 3.9 3 7.8 7 8.7 8.9 1.4 3 1.5 3.7.2 6.2-.8 1.5-2.6 3-4.1 3.4-1.7.4-4.7-.1-7.8-1.2-2.7-1-11.1-4.3-18.5-7.5s-15.3-6.3-17.5-6.9c-2.2-.6-5.9-1.1-8.2-1.1-3.4 0-4.9.6-7 2.8-1.6 1.5-4.5 6.6-6.5 11.3-2 4.6-5.8 15.8-8.3 24.9-2.6 9.1-5.7 19.4-6.9 23-1.6 4.8-2.8 6.8-8.1 10l-1.7-3.2c-1.5-3.1-1.5-3.7.1-9.8 1-3.6 2.8-10.8 4-16 1.3-5.2 3.1-13.1 4.2-17.5 1-4.4 2.8-12.3 3.9-17.5 1.1-5.2 2-10.7 2-12.2 0-1.6-.4-3-1-3.3-.6-.3-2.2.4-3.7 1.5-1.6 1.1-7.5 4.1-13.3 6.6-5.8 2.5-19.4 8.1-30.3 12.5-10.8 4.3-21.6 8.1-23.9 8.3-3.8.4-4.3.2-4.5-1.7-.2-1.2-.3-3.1-.3-4.2-.1-1.1.9-2.8 2.2-3.9 1.3-1 9.4-6 18.1-11.2 8.6-5.2 22.4-12.8 30.7-16.9 8.3-4.1 15.2-8.1 15.6-8.7.3-.7-.4-8-1.5-16.3-1.1-8.2-2.5-19.3-3.1-24.5-.6-5.2-1.3-11-1.5-12.7-.3-2.2 0-3.8 1.1-4.8.8-.8 2-1.5 2.5-1.5zm7.4 24.3c.8 3.9 2.3 12.2 3.4 18.2 1 6 2.2 12.6 2.5 14.5.3 2.4-.1 4.8-1.5 7.5-1 2.2-1.7 4.6-1.4 5.3.3.6 2.4 1.3 4.8 1.5l4.2.2.5 12c4.7-4.7 6-6.7 6-7.5-.1-.8.6-2.2 1.5-3 .9-.8 1.6-2.1 1.5-2.7 0-.7.8-2.5 1.7-4 .9-1.6 3.5-5 5.8-7.6 3-3.7 3.7-5.1 2.9-6-.9-.9-1.3-.9-1.8.1-.3.6-1.6 1.2-2.8 1.2-1.3 0-3.2-1-4.4-2.2-1.1-1.3-4.2-6.1-6.9-10.8-2.6-4.7-7.2-12.3-10.3-17-3-4.7-5.9-9-6.4-9.5-.5-.6-.8-.3-.8.8 0 .9.7 5 1.5 9zm223-3.3c2.8 0 7 .7 9.5 1.6 2.5.8 5.4 1.6 6.6 1.7 1.1.1 2.8.8 3.7 1.5 1.4 1 2 .8 3.6-1 1.9-2.3 2.1-2.3 23.8-1.9 16.1.2 22.5.7 24.6 1.7 1.6.8 3.1 2.7 3.7 4.7.6 1.7 1 4.2 1 5.5 0 1.2-1.1 3.4-2.4 5-2.3 2.6-2.4 2.7-5 1-1.4-1-3.1-3-3.7-4.5-.6-1.6-1.6-3.1-2.2-3.5-.7-.4-2.7-.8-7.7-.8l.8 6.8c.4 3.7.7 12.7.7 20 0 13.1 0 13.3 2.4 14 1.3.4 2.7 1.4 3.2 2.2.5.9.3 2.3-.6 3.5-1.2 1.8-2.6 2-14.4 2.3-11.6.2-13.2 0-14.1-1.5-.6-1.3-.5-2.5.5-4 .8-1.3 2.5-2.4 3.8-2.5 2.1-.3 2.2-.7 2.1-7.8-.1-4.1-.4-13-.9-32.1l-3.4.3c-3 .3-3.6.8-4.3 3.6-.4 1.7-1.8 3.8-3 4.6-1.3.8-2.9 1.3-3.5 1-.7-.2-2.2.7-3.3 2.1-1.2 1.5-3 2.5-4.5 2.5-1.6 0-3.3-1-4.5-2.7-1.2-1.6-2.1-3.9-2-5.3 0-1.4-.4-3-.8-3.6-.4-.6-1.7-1.6-3-2.3-1.2-.6-3.6-1.1-5.2-1.1s-4.3.8-6 1.8c-1.6.9-3.9 3.3-4.9 5.2-1.4 2.4-2 5.4-2.1 9.8 0 3.4.4 8.3 1 11 .6 2.8 2.1 5.9 3.7 7.6 2.5 2.6 3.3 2.9 7.3 2.5 2.5-.3 6.1-1.3 8-2.3 1.9-.9 5-2.6 6.8-3.7 3.2-1.9 3.2-1.9 5.2.1 1.8 1.8 1.9 2.4.8 5.1-.8 1.9-3.4 4.6-6.3 6.6-2.7 1.9-7.3 4.1-10 4.9-2.7.8-6.8 1.4-9 1.4s-5.4-.8-7.2-1.8c-1.7-.9-5.1-2.8-7.5-4.1-2.3-1.3-5.8-3.7-7.6-5.5-1.7-1.7-3.4-4.3-3.7-5.8-.3-1.6-1-3-1.5-3.3-.5-.3-1.7 1.2-2.6 3.3-.9 2-2.5 4.8-3.6 6.2-1.1 1.4-3.2 3.3-4.6 4.2-1.5 1-5.6 2.6-9.2 3.7-3.6 1.1-9.6 2.1-13.5 2.2-4.3.2-8-.2-9.5-1.1-1.4-.7-5.2-3.6-8.5-6.5-3.6-3.1-7-7.1-8.4-10.1-1.9-3.8-2.5-6.4-2.4-11.9 0-4.1.8-8.6 1.7-11 1-2.2 2.9-5.3 4.4-6.8 1.5-1.6 6.1-4.5 10.2-6.4 7.2-3.4 7.9-3.6 17.5-3.4 5.5.1 11.5.6 13.3 1.1 1.8.6 4.9 3 7.2 5.8 2.3 2.6 5.1 7.1 6.3 10 1.2 2.9 2.5 5.2 2.9 5.2.5 0 1.9-2.4 3.2-5.2 1.5-3.3 4.6-7.3 8.3-10.7 3.2-2.9 7.6-6.2 9.8-7.2 2.2-1 6.2-1.9 9-1.9zm-72.4 20c-1.3 2.8-2.1 6.6-2.1 10 0 4.1.8 7.1 3 11.8 1.7 3.4 3.9 6.7 5 7.2s3.8 1 6 1c3.9 0 4.1-.2 6.7-5.7 2.3-4.9 2.7-7.2 2.8-14.3 0-6.5-.5-9.5-2-12.8-1.5-3.3-2.9-4.6-6-5.8-2.2-.9-4.5-1.8-5.1-2.1-.6-.2-2.3 1.1-3.7 2.9-1.4 1.8-3.5 5.3-4.6 7.8zm485.4-19.9c1.7-.1 5.4 1.1 8.4 2.6 3 1.6 6.1 3.7 6.8 4.8.7 1.1 1.6 4.7 1.9 8 .5 4.4.2 7.1-1 10-.9 2.2-1.6 4.1-1.6 4.3 0 .1.7.2 1.5.2s2.8 1.6 4.5 3.5c1.9 2.2 3 4.6 3 6.5 0 1.7-.7 4.5-1.5 6.3-.8 1.7-3.6 5.3-6.2 7.8-3.4 3.2-6.7 5.2-11.3 6.7-3.6 1.2-7.6 2.2-9 2.2-1.4 0-4.7-.6-7.5-1.4-3-.9-6.2-2.8-8.1-4.8-1.8-1.8-3.7-5-4.3-7-.8-2.6-.8-4.9-.1-7.3.5-1.9 2.2-4.4 3.8-5.5 1.5-1.2 3.8-2.1 5.2-2 1.4 0 3.5.7 4.8 1.5 1.2.8 2.7 2.6 3.2 4 .7 1.8.6 3.3-.5 5.8-1.2 2.5-1.3 3.4-.3 3.9.7.4 3.2.8 5.6.8 3.5 0 4.5-.5 6-2.7 1-1.7 1.7-4.7 1.7-12.8l-6.2-.7c-4.9-.6-6.6-1.3-7.8-3-1-1.5-1.2-3-.8-4.2.5-1.1 3.1-2.9 5.8-4.1 2.8-1.2 5.6-2.8 6.3-3.6.7-.8 1.1-2.7 1-4.4-.3-3-.4-3-5.8-2.8-3 .1-6.8.8-8.3 1.5-2.1 1-2.8 2-2.7 4.1 0 1.5-.4 3.5-.9 4.5-.4.9-1.6 2-2.5 2.5-.9.4-2.5.2-3.6-.3s-2.5-2.7-3.1-4.7c-.6-2.2-.9-6.2-.5-9.3.3-3 1.2-6.1 2-6.8.7-.7 2.9-1.1 4.7-1.1 1.9.1 5.9-.5 8.9-1.4 3-.9 6.8-1.6 8.5-1.6zm-255 1.7c6 .2 12.6.8 14.5 1.4 1.9.5 5.2 2.1 7.3 3.4 2.6 1.7 3.9 3.3 4.3 5.7.4 1.7.4 4.4 0 6-.3 1.5-1.9 4.3-6.6 9.7l2.8 1.7c1.5.9 3.9 2.8 5.5 4.2 1.5 1.4 3.2 4.1 3.7 5.9.7 2.1.7 4.3 0 6.5-.5 1.7-2.4 4.6-4.2 6.3-1.8 1.8-4.4 3.8-5.8 4.5-1.8 1-7.8 1.4-21 1.5-15 .2-19-.1-21-1.3-2.3-1.4-2.8-1.3-5.5.2-2.4 1.4-4.9 1.6-12.7 1.3-7.7-.2-10.1-.7-11.5-2.1-1.7-1.7-1.7-1.9.6-3.5 1.9-1.4 2.2-2.3 1.7-5.2-.3-1.9-1-4-1.4-4.7-.4-.6-3.7-1.3-14.7-1.7l-1.8 3.5c-1 1.8-1.6 4.3-1.4 5.4.3 1.1.8 2.7 1.1 3.5.4.9 0 2.2-.9 3.3-1.2 1.2-3.2 1.7-7.6 1.7-3.2 0-6.8-.5-7.9-1-1.1-.5-2-1.9-2-3s1-2.6 2.3-3.3c1.2-.8 3.6-4 5.3-7.3 1.7-3.2 3.9-9.3 4.8-13.4.9-4.1 3.6-11.3 5.9-16 2.3-4.6 5.3-9.3 6.7-10.3 2-1.5 3.1-1.7 5.5-1 2.3.7 3.7 2.2 5.7 6.3 1.5 3 5 11.3 7.8 18.5 2.8 7.2 5.6 14.1 6.3 15.4.7 1.3 2.4 3.6 3.9 5s3.6 3.4 4.7 4.4c2 1.6 2.2 1.6 5-1 1.6-1.6 3.5-3.3 4.2-3.9 1.1-.8 1.3-3.4.8-12.5-.4-6.2-1-14.5-1.5-18.3-.8-6-1.2-7-3.6-8.2-1.7-.8-2.8-2.2-2.8-3.4 0-1.1.6-2.3 1.3-2.7.6-.3 3.5-.9 6.2-1.3 2.8-.3 10-.4 16-.2zm-1.3 15.1c-.2 5.9-.1 6.1 2.3 6.1 1.4 0 3.2-.2 4-.5.8-.3 2-2.4 2.6-4.7.5-2.4.6-4.6.2-5-.4-.4-2.6-1-4.9-1.4l-4.1-.7zm-58.5 13.4c-.5 1.4-.1 1.8 2.4 1.8 2.4 0 2.8-.4 2.3-1.8-.3-.9-.7-2.5-.8-3.5-.1-.9-.7-1.7-1.3-1.7-.6 0-1.3.8-1.5 1.7-.3 1-.8 2.6-1.1 3.5zm58.4 18.8c8.9-1 12-1.8 12.7-2.4.9-.8 1-1.9.2-4.1-.5-1.7-2.4-4-4.2-5.2-1.8-1.2-4.4-2.5-5.9-2.9l-2.6-.6zm311.7-48c.7 0 2.4 1 3.8 2.2 1.4 1.3 4.3 7.2 6.9 13.8 2.4 6.3 4.8 12.8 5.2 14.5.4 1.6 2 6.4 3.6 10.7 2.3 6.2 3.5 8.1 6.1 9.7 3.1 1.9 3.3 1.9 5.7.1 1.4-1 2.9-3.3 3.3-5.2.5-1.8 2-5.8 6-14.3l-2.5-3.5c-1.4-2-3.1-5.3-3.7-7.5-.7-2.2-1-5.2-.7-6.5.3-1.4 2.2-4 4.1-5.8 1.9-1.8 5-3.5 6.8-3.7 1.8-.3 5.9-1 9.2-1.5 3.3-.6 9.9-1.1 14.5-1.1 5.9 0 9.2.5 10.8 1.5 1.2.9 2.2 2.1 2.3 2.8 0 .7-1 2.2-2.2 3.3-2 1.9-2.1 2.5-1.7 20 .4 16.8.6 18.1 2.7 21 1.5 1.9 2.1 3.7 1.7 5.2-.3 1.2-1.6 2.9-2.8 3.8-1.8 1.2-4.1 1.3-11.8.7-6.2-.5-10.2-1.3-11.3-2.2-1-.9-1.7-2.8-1.7-4.3 0-2 .9-3.2 3-4.5 2.9-1.7 3-2 3-9 0-5.1-.3-7.2-1.2-7.3-.7 0-2.3.7-3.5 1.5-1.3.9-3.1 3.2-4.2 5.3-1 2.1-2.6 6.2-3.4 9.3-.9 3-2.5 6.7-3.6 8.2-1.2 1.5-3.3 3-4.8 3.3-1.5.3-4.7.1-7-.5-2.4-.6-4.5-1.7-4.8-2.5-.4-1.4-.8-1.4-3.2-.1-1.8 1-5.6 1.5-11 1.5-6 .1-8.7-.4-9.8-1.4-.8-.9-1.3-2.1-1-2.8.2-.7 1.6-2 5.5-4.7l-3.7-9.5h-14.6l-1.4 3.5c-1.2 2.9-1.2 3.8-.1 5.7 1.1 1.8 1.1 2.4-.2 3.8-.8 1-2.5 2.1-3.7 2.6-1.3.5-4.6.9-7.5 1-4.2.1-5.6-.3-7-2-1.3-1.6-1.5-2.6-.8-4.1.6-1.1 2.2-2.4 3.6-2.8 1.8-.5 3-2 4.1-5.2.9-2.5 3.8-9.9 6.4-16.5 2.5-6.6 5.8-14.3 7.1-17 1.4-2.8 3.8-6.1 5.3-7.3 1.6-1.2 3.4-2.2 4.2-2.2zm50.3 17.5c0 2 .9 4.3 2 5.5 1.1 1.1 3.4 2 5 2 3 0 3-.1 3-5.5 0-3.1.3-6.2.5-7 .4-1.2-.3-1.5-3.4-1.5-2.2 0-4.6.6-5.6 1.5-.9.9-1.6 3.1-1.5 5zm-56 11.7c0 .4 1.2.8 2.5.8 1.4 0 2.5-.5 2.5-1 0-.6-.4-1.9-1-3-.5-1.1-1.4-2-1.9-2s-1.1 1-1.5 2.2c-.3 1.2-.5 2.6-.6 3zm164.3-28.8c5.3.3 10.6 1 11.7 1.6 1.1.5 2.5 1.9 3 3 .6 1.1.7 2.7.2 3.7-.5 1-2.1 2.1-3.5 2.5-2.4.7-2.6 1.1-2.1 4.5.3 2.1.7 5 1.4 9.3l3.5-2.3c1.9-1.2 4.7-4.5 6.2-7.2 1.5-2.8 4.1-6.6 5.8-8.5 1.7-1.8 4.9-4.2 7.3-5.2 2.3-1 5-1.6 6-1.2.9.4 2.4 1.3 3.3 2 1.3 1.2 2 1.1 4.5-.1 1.9-.9 6.7-1.6 13.3-1.8 9.3-.2 10.4-.1 11.7 1.8.8 1.1 1.5 2.3 1.4 2.7 0 .4-1.1 1.9-5 5.8l5 8.5c4.5 7.6 5.2 8.3 6.4 6.7.7-1 3-4.7 5-8.2 2-3.6 3.6-7 3.6-7.5.1-.6-1.3-1.4-2.9-1.8-2.2-.5-3.1-1.4-3.1-2.7 0-1.1.9-2.5 2-3 1.1-.6 3.5-1 5.3-1 1.8 0 5 .3 7.1.7 2.7.5 4.2 1.4 4.8 3 .4 1.2 1.3 2.5 1.8 2.8.6.2 7.7-.8 15.8-2.2 8.1-1.5 19-2.8 24.2-3 8.9-.2 9.3-.2 6.5 1.2-1.6.7-3.9 1.4-5 1.4s-2.5.5-3 1c-.5.6-4.1 1.2-8 1.5-3.8.3-11 1-16 1.7-4.9.6-10.3 1.4-12 1.8-1.6.4-3 1.2-3 1.7 0 .6 3.6 3.9 8 7.3 4.4 3.5 8.5 6.7 9 7.2.6.4.7 1.1.3 1.3-.4.3-2-.4-3.5-1.5s-6.1-4.7-10.3-8c-4.1-3.2-8.1-5.9-9-5.9-.9 0-2.7 2.8-4.7 7.2-1.8 4-5.8 11.3-8.8 16.3-3.1 4.9-8 11.4-10.8 14.3-2.8 2.9-6.6 6-8.4 6.7-2.9 1.3-3.7 1.3-7.8-.5-3.3-1.5-4.9-3-6-5.5-1.1-2.7-1.2-4.3-.5-6.5.6-1.7 1.9-3.5 3-4 1.1-.6 3-1 4.3-1 1.2 0 3.7 1.1 5.5 2.5 2.7 2 3.5 2.2 4.8 1.2.8-.7 1.5-1.7 1.5-2.2 0-.6-1.5-3.6-3.3-6.6-1.8-3.1-5.5-10.2-8.3-15.7-4.4-9-5.3-10.2-7.8-10.4-2.2-.3-3.1.2-4.3 2.4-.7 1.5-2.7 3.4-4.4 4.3-2.6 1.3-3.3 1.3-6.2-.1-2.6-1.2-3.4-1.3-3.7-.2-.3.7-2 3.5-3.8 6.3-1.8 2.7-3.2 5-3 5.1.1 0 2 1.2 4.2 2.5 2.2 1.4 5 4 6.2 5.9 1.1 1.9 2.7 5.3 3.4 7.5.7 2.2 2.8 5.4 4.6 7.2 2.7 2.7 3.2 3.6 2.3 5.3-.5 1.1-2 2.5-3.2 3.1-1.5.7-4.4.9-8.3.4-3.3-.4-6.9-1.2-8-1.9-1.1-.7-2.6-3.5-3.3-6.2-.8-2.7-1.6-5.7-1.8-6.7-.2-1-2.2-3.5-4.4-5.7s-4.3-4.1-4.7-4.1c-.4 0-1.1 1.7-1.5 3.8-.4 2.1-.8 5.1-.8 6.8 0 1.9.7 3.4 2 4.2 1.1.7 2 1.9 2 2.8 0 .8-1 2.1-2.2 2.9-1.3.8-6.3 1.8-11.3 2.2-8.4.6-9.1.5-11.2-1.5-1.3-1.2-2-2.8-1.8-3.6.3-.9 1.5-1.8 2.8-2.1 2-.5 2.3-1.4 3-8.2.4-4.3.7-9.9.7-12.5 0-2.6-.5-7.9-1.2-11.8-1.1-6.1-1.6-7.2-3.7-7.8-1.3-.3-3-1.5-3.7-2.6-1-1.6-1-2.5-.1-3.9.6-.9 2.1-2.2 3.2-2.7s6.4-.7 11.8-.5zm-423.1.9c7.1.4 13.5 1 14.4 1.4.8.4 1.7 1.3 2 2 .2.7.1 1.9-.3 2.8-.4.8-2 2-3.5 2.5-1.9.7-2.8 1.7-2.8 3.2 0 1.2.4 5.7.8 10s1 7.8 1.2 7.8c.3 0 1.9-1.9 3.7-4.3 1.7-2.3 5.4-6.9 8.2-10.2 2.8-3.3 5.1-6.4 5.1-6.8 0-.4-1.1-1-2.5-1.2-1.9-.4-2.4-1.1-2.2-2.8.2-1.6 1.3-2.6 3.7-3.4 2-.7 6.9-1.1 11-.9 4.2.2 8.5.8 9.8 1.4 1.2.7 2.2 2.1 2.2 3.2s-.7 2.3-1.6 2.7c-1.3.7-1.5 3.4-1.5 20.8 0 19 .1 20 2.1 21.2 1.1.7 2 1.9 2 2.8 0 .8-1 2.1-2.2 2.9-1.4.9-5.7 1.5-11.3 1.7-4.9.2-9.5 0-10.2-.4-.7-.4-1.3-1.6-1.3-2.7s.8-2.3 1.8-2.5c1.5-.4 1.8-2.3 2.5-11.8.4-6.2.7-13.3.7-20.2l-2.2 3c-1.3 1.6-5.4 6.6-9.3 11-3.9 4.4-8 9.2-9 10.7-1.1 1.6-1.7 2.9-1.5 3.1.3.1 1.8 1 3.3 2 1.5.9 2.7 2.6 2.7 3.7s-.9 2.4-2 3c-1.1.5-6 1-11 1-4.9 0-9.9-.5-11-1-1.1-.6-2-1.8-2-2.8 0-1 .9-2.4 2-3.2 1.9-1.4 2.1-2.6 2.2-12.5.1-6.1-.2-15.1-.7-20-.9-8.3-1.1-9.1-3.2-9.3-1.3-.1-2.9-1.3-3.7-2.5-1.2-1.7-1.2-2.7-.3-4.1 1-1.8 2-1.9 13.9-1.3zm82 .2c22.2 0 23.7.1 25.8 2 1.9 1.7 2.3 1.7 3.1.5.6-1.1 3.3-1.7 8.6-2.2 4.6-.3 9.7-.1 12.3.5 3.6.9 4.6 1.6 4.8 3.4.2 1.6-.5 2.6-2.3 3.5-1.4.7-2.7 2.4-2.9 3.8-.2 1.3-.5 4.1-.6 10l6.3-.7c3.4-.3 7.8-.3 9.7 0 2 .3 5.8 2.3 8.5 4.5 3 2.2 5.6 5.2 6.3 7.2.7 1.9 1.3 5.3 1.2 7.5 0 2.2-.8 5.5-1.7 7.4-1 1.9-2.9 4.3-4.3 5.3-1.4 1.1-5.8 2.4-10.5 3-4.4.7-13.3 1.1-19.7 1-6.5-.1-12.9-.7-14.3-1.2-1.7-.8-2.4-1.7-2.2-3.3.1-1.5 1.4-2.8 6.9-5.2l-.6-8c-.3-4.4-.9-13.2-1.2-19.5-.4-6.6-1.1-11.9-1.8-12.3-.6-.4-1.6-.7-2.3-.7-.7 0-1.7 1.1-2.3 2.5-.5 1.3-1.9 2.9-3 3.5-1.5.7-2.5.5-4.5-1-1.6-1.4-4-2-11.5-2l.5 39 2.4.7c1.3.4 2.8 1.4 3.2 2.3.5.9.3 2.2-.5 3.5-1.1 1.6-3 2.1-9.2 2.5-4.3.4-9.9.3-12.4-.1-2.6-.5-5-1.5-5.7-2.6-.7-1.1-.9-2.5-.4-3.3.5-.9 1.9-1.9 5.6-3v-19c0-16.3-.2-19-1.5-19-.8 0-2.8-.3-4.5-.6-2.7-.6-3-.3-3.7 2.5-.4 1.7-1.7 3.5-2.8 4.1-1.5.7-2.4.5-4-1-1.1-1.2-2-3.4-2-5 0-1.7-.2-3.7-.5-4.5-.2-.9.5-2.6 1.8-3.8 2.2-2.2 2.7-2.2 25.9-2.2zm50 38.1c-.1 2.7-.5 6-.9 7.3l-.8 2.4c9.3-1.1 12.4-2 12.8-2.6.4-.7.7-2.7.7-4.5 0-2.3-.6-3.7-2.2-4.7-1.3-.9-3.9-1.8-5.9-2.2l-3.6-.6zm243.9-37.3c12.2.3 18.6.9 21 1.9 1.9.8 4.2 2.3 5 3.3.8 1 1.5 3 1.4 4.4 0 1.4-1.2 4.9-2.7 7.8-1.5 2.9-2.7 5.7-2.7 6.3 0 .5 1.1 1.2 2.5 1.5 1.4.2 4 2.4 5.8 4.7 2.7 3.6 3.2 5 3.2 9.9 0 5-.4 6.1-3 8.8-1.9 1.9-5.5 3.9-9.5 5.2-5.6 1.9-7.9 2.1-16.5 1.5-5.5-.3-13-.2-16.8.2-3.7.3-7.6.3-8.7-.1-1.1-.4-2.2-1.6-2.5-2.7-.3-1.1 0-2.9.5-4 .6-1.1 2.4-2.5 7-4v-12.8c0-7 .3-15 .6-17.7.5-4.8.4-5.1-2.5-6.8-1.7-.9-3.2-2.6-3.3-3.7-.1-1 .7-2.4 1.8-3q1.9-1.1 19.4-.7zm2 18.7c.6 0 2.8-.7 5-1.5 2.8-1.1 4-2.1 4-3.5 0-1.3-.8-2.2-2.2-2.5-1.3-.3-3.5-.5-5-.5-2.6 0-2.8.3-2.8 4 0 2.2.5 4 1 4zm-1.8 22.9-.7 5.4c8.5-1 12-2 13.3-2.8 1.3-.9 2.2-2.5 2.2-4s-1.5-4.1-3.7-6.6c-3-3.1-4.5-4-7-4-3 .1-3.3.3-3.3 3.3 0 1.8-.4 5.7-.8 8.7zm-878.3 9.1c.3 0 .3 1.1-.1 2.5-.5 1.3-2.3 4.5-4 7-1.8 2.5-5.2 7.1-7.6 10.2-2.3 3.2-4.3 6.1-4.2 6.5 0 .4-2.2 3.6-5 7-2.7 3.5-4.8 6.5-4.5 6.8.2.2 4.4-.9 9.2-2.7 4.8-1.7 10.8-3.3 17.8-4.2l-5 4.5c-2.7 2.5-9.3 6.6-14.5 9.1-5.2 2.5-11.3 5.2-13.5 5.9-2.2.8-4.6 1.4-5.2 1.4-.7 0-2-.7-2.8-1.5-.9-1-1.3-2.4-.9-3.8.4-1.2 5-7.3 10.3-13.5 5.3-6.2 12.9-15.2 16.8-20 4-4.8 8.4-10.2 9.9-12 1.4-1.8 2.9-3.2 3.3-3.2zm1057.4 14c.9 0 2 .5 2.3 1.2.3.7-.1 3.5-1 6.3-.8 2.7-4.1 9.2-7.2 14.5-3.1 5.2-7.1 11.7-8.9 14.5-1.8 2.7-3.7 6-5.5 9.5l4.8-2.4c2.6-1.3 8.8-4 13.7-6 5-2 10.6-3.8 12.5-4 1.9-.2 4.5-.9 5.8-1.5 1.2-.6 2.5-.9 3-.6.4.3.1.5-.5.5-.7 0-3.9 1.9-7 4.3-3.2 2.4-11.2 7.2-17.8 10.7-6.6 3.5-14.8 8.1-18.2 10.2-3.5 2.1-7.2 3.8-8.3 3.8-1.1 0-2.4-.8-2.9-1.8-.6-1-.5-2.7.1-4.2.5-1.4 3.6-6.1 6.7-10.5 3.2-4.4 8.9-12.8 12.8-18.5 3.9-5.8 8.3-13 9.8-16 2.1-4.4 2.4-5.7 1.3-6.2-1-.6-.8-1.1.7-2.3 1.1-.8 2.8-1.5 3.8-1.5zm-875.4 3.3c1.9.7 6.1 4.2 9.8 8.2 3.5 3.8 7.3 8.9 8.4 11.2 1.7 3.9 1.8 4.5.4 6.8-1 1.7-2.4 2.5-4.2 2.5-1.6 0-6.2-1-10.3-2.1-4.1-1.1-7.9-2.5-8.5-2.9-.5-.5-3.7-1.6-7-2.6s-6.3-1.7-6.7-1.6c-.5.1-.6-.2-.4-.6.3-.4 2.6-.4 5.3.1 2.6.4 6.8.9 9.3 1.1 2.5.2 6.2.7 8.3 1 2.2.3 3.7.2 3.7-.4 0-.6-1.5-3.2-3.3-5.8-1.9-2.6-4.1-6.1-4.9-7.7-.8-1.7-1.9-4.2-2.4-5.7-.8-2.6-.8-2.6 2.5-1.5zm1020.4 18.2 1.6 3.5c.9 1.9 1.8 3.7 2.1 4 .3.2 1.6 1.8 2.7 3.5 1.2 1.6 4.2 7.9 6.8 14 2.5 6 6.7 15.2 9.3 20.3 4.5 8.9 4.6 9.4 3.2 12-1.1 1.8-2.5 2.8-4.5 3-2 .1-5.2-1-9.5-3.4-3.6-2.1-11.7-6.6-18-10.2-6.3-3.6-12.4-7.3-13.5-8.2-1.1-1-4.7-3.2-8-5-3.3-1.9-8.2-4.5-11-5.9-2.7-1.4-4.5-2.7-4-2.9.6-.2 3.3.4 6 1.3 2.8.9 5.5 2 6 2.4.6.5 5.5 2.7 11 5 5.5 2.4 14.7 6.5 20.5 9.2 5.8 2.7 10.6 4.8 10.7 4.6.2-.1-1.3-4.2-3.2-9-1.9-4.8-4.4-12-5.4-16s-2.1-10.6-2.4-14.7zM90.3 219.1c.4.8 1 7.5 1.4 15 .4 7.4 1.1 15.3 2.3 21.5l2-4.5c1.1-2.5 4.6-8.1 7.8-12.5 4.4-6.1 5.6-7.3 5.1-5-.4 1.6-1.1 5.3-1.7 8.2-.5 2.9-2.7 9.7-4.8 15-2.1 5.4-4.6 12.9-5.6 16.8-.9 3.8-2.2 7.6-2.9 8.3-.6.7-1.9 1.2-2.9 1.2-.9 0-2.2-1-2.9-2.3q-1.1-2.2-1.2-30.3c-.1-21.9.2-28.6 1.3-30.5 1.1-2 1.5-2.1 2.1-.9z" style="opacity:1;fill:#f17906"/>
</svg>
