<svg version="1.2" xmlns="http://www.w3.org/2000/svg" width="1203" height="276" preserveAspectRatio="xMinYMin">
    <path fill-rule="evenodd" d="M1132.2.1c.4-.1.6 4.1.4 9.2-.3 7-1.2 11.9-3.9 20.7-2 6.3-7.2 22.3-11.6 35.5-4.5 13.2-8.1 24.1-8.1 24.3 0 .1 1.7.5 3.7.8 2.1.3 13 3.2 24.3 6.4s28.4 7.7 38 10c9.6 2.3 19.3 4.8 21.5 5.4q4 1.2 5.2 3.9c1.1 2.2 1 3.1-.2 5.2-.8 1.4-3 2.9-4.8 3.5-1.7.5-8.4 1.4-14.7 2-6.3.5-21 1.7-32.5 2.5-11.6.8-23.9 1.5-27.5 1.5-3.6 0-9.4-.6-13-1.3-3.6-.8-7.4-1.9-8.5-2.5-1.1-.6-2.3-.8-2.7-.4-.4.4-1.6.3-2.5-.2-1.4-.6-.9-1.1 2.7-2.1 2.5-.7 8.1-2.1 12.5-3.3 4.4-1.1 13.8-2.5 21-3.1 7.2-.6 15.6-1.1 18.7-1.1 4.5 0 5.8-.3 5.8-1.5 0-.9-1.3-1.7-3.3-2.1-1.7-.3-12.4-3.2-23.7-6.4-11.3-3.3-22.3-6.1-24.5-6.4-2.2-.3-4.8-1.4-5.8-2.3-1-1-1.8-2.5-1.7-3.3 0-.8.8-4 1.8-7 1.1-3 4.3-11.1 7.2-18 2.9-6.9 8.6-21.3 12.6-32s7-19.8 6.6-20.2c-.4-.5-4.5 4.2-9.2 10.3-4.7 6.1-12.6 16.3-17.5 22.7-5 6.5-11.7 15.5-15 20.1-3.3 4.6-7.3 9.5-9 10.8-2.7 2.3-3.6 2.5-8.8 1.9-3.1-.3-9-1.5-13-2.6-3.9-1-11-3.2-15.7-4.8-4.7-1.6-14.1-5.2-21-8-6.9-2.7-15.2-6.2-18.5-7.6-3.3-1.5-6.4-2.5-6.9-2.4-.5.2 6.1 6.2 14.5 13.4 8.5 7.2 17.7 14.8 20.4 17 2.8 2.1 9.7 6.8 15.4 10.4 5.7 3.6 10.8 7.3 11.2 8.2.5 1 .7 2.7.4 3.8-.3 1.1-1.6 2.7-3 3.5-1.4.8-3.3 1.3-4.3 1-1.1-.3-2.7.9-4.9 3.8-1.7 2.3-10.3 11.6-19.1 20.7s-16.4 16.9-16.9 17.4c-.4.5.3.5 1.7.1s7.2-3.3 13-6.5c5.8-3.1 14.1-7.1 18.5-9 6-2.4 8.9-3.1 11.5-2.7 2.5.4 4.9 2.1 8 5.4 2.5 2.6 8.1 10.4 12.5 17.3 4.3 6.9 10.9 17 14.7 22.5 3.7 5.5 8.2 12.1 10 14.6 1.8 2.6 4.9 6.8 6.8 9.3 1.9 2.6 4.6 6.1 6 7.7 1.4 1.7 2.8 2.7 3.2 2.2.4-.4-.9-6-2.8-12.3-1.9-6.3-4.5-16-5.8-21.5-1.4-5.5-2.7-13.1-3.1-17-.3-3.9-.8-10.6-.9-15-.3-5.9-.1-7.3.6-5.5.5 1.4 1.6 3.6 2.4 5 .8 1.4 3.8 7.5 6.8 13.5 3.4 6.9 10.1 25 18 48.3 9.7 28.7 12.4 37.8 11.8 39.9-.4 1.4-2 3.7-3.7 5-2.2 1.8-3.7 2.3-5.5 1.8-1.4-.4-4.5-2.5-7-4.7s-6.8-7-9.5-10.7c-2.8-3.8-10.4-14.6-17-24.1-6.6-9.5-15.3-22.2-19.3-28.4-4-6.1-11-17.2-15.5-24.6-4.5-7.4-9.1-14.6-12.2-18.3l-14.5 7c-8 3.9-23.1 11.7-33.5 17.5-10.5 5.7-25.1 13.4-32.5 17.2-9.8 4.9-14 6.5-15.3 5.9-1-.4-2-1.3-2.2-1.8-.2-.5-.2-1.9.1-3 .2-1.1 6-6.2 13.1-11.6 7.1-5.3 20.2-16.1 29.3-24.1 9.1-8 22.7-20.4 30.2-27.6 7.6-7.3 14.5-13.2 15.3-13.2.8 0 1.5-.8 1.5-1.7 0-1-1.7-2.7-3.8-3.9-2-1.2-7.5-5-12.2-8.5-4.7-3.5-14.6-11.6-22-18s-20.5-18.7-29-27.3c-8.5-8.6-16.1-16.9-16.8-18.6-1.1-2.8-1-3.2 1.8-6 2.1-2.1 3.7-2.9 5.2-2.6 1.3.3 11.1 4.7 21.8 10 10.7 5.2 23.1 10.9 27.5 12.6 4.4 1.8 13.8 5.4 21 8.1 7.2 2.7 17.8 6.3 23.7 7.9 6 1.7 11.4 3 12 3 .7-.1 3.3-2.7 5.8-5.8 2.5-3.1 6.3-7.9 8.5-10.6 2.2-2.7 8.9-10.5 14.9-17.5 5.9-6.9 14.3-16.8 18.6-21.8 4.3-5.1 8.3-9.3 8.8-9.3.6 0 2.3-1.3 3.9-2.9 1.5-1.7 3.1-3 3.5-3zM97.5 9.4c1.1.7 3.2 3.1 4.7 5.2 1.6 2.1 6.3 10.4 10.7 18.4 4.3 8 10.7 19.9 14.1 26.5 3.4 6.6 7.4 14 8.8 16.5 1.4 2.5 5.7 9.7 9.6 16 3.9 6.3 8.2 12.8 12.1 17.2l10-9.8c5.5-5.4 14-12.8 19-16.4 5-3.7 11.9-8.7 15.5-11.2 3.6-2.4 10.5-6.9 15.5-10 5-3 12.8-7.7 17.5-10.5 4.7-2.8 9.5-5.3 10.7-5.7 1.7-.4 3 .1 4.8 1.9 1.4 1.4 2.5 3.1 2.5 3.8.1.6-4.6 5.9-10.2 11.7-5.7 5.8-14.6 15.7-19.9 22-5.2 6.3-12.2 14.9-15.6 19-3.4 4.1-9.2 10.7-13 14.6-3.7 3.9-8.7 8.1-11.1 9.3-2.3 1.1-4.2 2.4-4.2 2.9-.1.4 2 2.6 4.5 5 2.5 2.3 5 4.2 5.5 4.2s2.2.8 3.7 1.9c1.6 1 5.4 3.3 8.7 5.2 3.2 1.9 10.4 7.2 16.1 11.9 5.6 4.7 17.5 15.3 26.4 23.5 8.9 8.3 17 16.2 18.1 17.8 1.1 1.5 2.3 3.9 2.6 5.5.5 2.1-.1 3.5-2.2 6-1.6 1.8-4.4 3.7-6.2 4.3-2.4.7-4.8.4-9.5-1-3.4-1-9.8-2.8-14.2-4.1-4.4-1.2-16.8-5-27.5-8.5s-29.4-10-41.5-14.5c-12.1-4.5-24.9-8.9-28.5-9.8-5.6-1.3-6.8-1.3-8.9-.1-1.3.8-4.4 5-6.8 9.4-2.5 4.4-6.4 12.5-8.8 18-2.3 5.5-5.4 13.4-6.8 17.5-1.4 4.1-3.9 12.5-5.7 18.5-1.7 6-4.8 15.7-6.8 21.4-2.5 7.1-4.4 11-6 12-1.9 1.3-2.7 1.4-4.8.4-1.3-.7-2.9-2.5-3.4-4q-1.1-2.8-.1-7.8c.5-2.7 3-11.3 5.4-19 2.5-7.7 6.3-19 8.5-25s4.8-12.8 5.7-15c.9-2.2 2.5-5.8 3.5-8s3.1-7.1 4.8-11c1.6-3.9 3.4-8.4 4.1-10 .6-1.6 2.2-6.8 3.5-11.5 1.4-4.7 2.4-8.6 2.3-8.7-.1-.2-2.2.4-4.7 1.3-2.5.8-10.4 3-17.5 4.9-7.1 1.8-16.6 4.3-21 5.5-4.4 1.2-14.1 3.9-21.5 6s-20.3 6.2-28.5 9c-9.3 3.2-15.9 4.9-17.3 4.6-1.2-.3-2.6-1.6-3.1-2.8-.4-1.3-.5-3.1-.2-4.2.3-1 4.2-4.5 8.6-7.7 4.4-3.2 11.6-8.3 16-11.3 4.4-3.1 14.6-10 22.6-15.3 8.1-5.4 17.3-11.4 20.5-13.4 3.3-2 10.2-5.9 15.4-8.6 5.2-2.6 10.9-5.3 12.6-5.8 3-.9 3.2-1.3 2.8-5-.2-2.2-.8-9.4-1.3-16-.6-6.6-1.5-17.9-2.1-25-.6-7.1-1.5-17.5-2.1-23-.5-5.5-1.1-16.4-1.4-24.2-.4-12.8-.3-14.4 1.2-15.2 1.2-.7 2.4-.6 3.8.3zm4.5 35.1c.6 3.3 2.2 15.2 3.6 26.5 1.3 11.3 3.2 26.1 4 33 1.1 9.5 1.2 13.2.4 15.5-.6 1.6-1.9 3.8-2.8 4.9-.9 1-5.7 3.7-10.7 6-5 2.3-13 6.5-18 9.3-5 2.8-14.8 8.8-21.9 13.4-7 4.6-12.4 8.5-12 8.7.5.1 7.9-1.7 16.4-4.2 8.5-2.4 19.8-5.4 25-6.6 5.2-1.2 10.9-2.6 12.5-3 1.6-.5 5.9-1.4 9.5-2.1 4.5-.9 7.6-1 10-.3 3.4 1 3.5 1.2 3.2 5.5-.1 2.4-.8 6.3-1.5 8.6-.6 2.4-.9 4.5-.5 4.8.5.3 2.3 0 4-.5 1.8-.6 4.9-1 6.8-1 1.9 0 11.8 2.6 22 5.9 10.2 3.2 29.1 9.5 42 14 12.9 4.4 26.2 8.7 29.5 9.5 3.3.9 6.3 1.3 6.7 1.1.5-.3-6.3-7.8-15-16.8-8.6-9-18.5-20.2-22-25-3.4-4.8-6.2-9-6.2-9.4 0-.5-2.2-3-5-5.8-4.5-4.5-5.3-4.9-7-3.7-1.1.6-2.3 1.2-2.8 1.2-.4.1-.2-.5.4-1.2.7-.7 2.6-4.7 4.4-8.8 1.8-4.2 6-11.2 9.8-16 3.6-4.7 8.3-10.4 10.4-12.7 2.1-2.4 3.6-4.7 3.3-5.3-.3-.6-4.7 2.3-9.8 6.2-5 4-13.6 11.8-19.1 17.3-8.5 8.7-10.3 10-13.2 10-2.4 0-4.3-.9-6.9-3.5-2-1.9-6.7-7.8-10.3-13-3.7-5.2-9.2-14-12.2-19.5-3.1-5.5-10.4-20.1-16.4-32.5-5.9-12.4-11-22.7-11.2-23-.3-.3-.4 1.1-.4 3s.5 6.2 1 9.5zm502 19.8c4.1 0 5.7.2 3.5.4s-5.6.2-7.5 0c-1.9-.2-.1-.4 4-.4zM416.7 75.5c.2 1.6.2 4.8 0 7s-.4.9-.4-3 .2-5.6.4-4zm302 1c.2 2.2.2 5.6 0 7.5-.2 1.9-.4.1-.4-4s.2-5.7.4-3.5zm-432 9c.2 2.2.2 6 0 8.5s-.4.7-.4-4 .2-6.7.4-4.5zM485.6 100c.2 0 .4 3.1.4 7s-.3 7-.8 7c-.4 0-.6-3.1-.4-7 .2-3.8.5-7 .8-7zm14.7 5.5.4 4.3c.2 3.5.7 4.3 2.5 4.6 1.9.3 1.8.4-.5.5-2.6.1-2.7-.1-2.5-4.6zm-138.9 43.1c6.6.3 14.7 1.2 18 1.9 3.4.8 6.6 2.2 7.3 3.2.7 1 1.3 3 1.2 4.5 0 1.5-.4 3.9-1 5.3-.5 1.3-1.9 2.9-3 3.5-1.4.7-2.7.5-4.5-.5-1.3-.9-2.8-2.9-3.2-4.6-.6-2.4-1.2-3-2.8-2.6-1.1.3-5.5.9-17.6 2.2l.6 3c.3 1.6.8 4.5 1.7 10l8.2-.5c5.2-.2 9.9.1 13 1 3.3 1 6 2.7 8.3 5.2 1.9 2.2 3.6 5.3 3.9 7.5.4 2.1.2 5.3-.4 7.3-.6 1.9-2.8 5.1-4.9 7.1-2.1 2-5.8 4.3-8.3 5.1-3.4 1.1-7.7 1.4-18.5 1-9.4-.3-14.7-.9-16.2-1.9-1.3-.7-2.3-2.2-2.3-3.3 0-1.2.9-2.6 1.9-3.3 1.8-1.1 2-3.1 3.4-38.2l-4.1-.8c-2.8-.5-4.8-1.6-6.2-3.5-1.1-1.5-2-3-2-3.2 0-.3.8-1.4 1.7-2.4 1.1-1.2 3.9-2.2 7.8-2.7 3.3-.4 11.4-.5 18-.3zm-3.6 36.7c.1 1.7-.2 5.4-.5 8.2l-.7 5c12.4-1.3 14.2-2 15.6-3.8 1.1-1.3 1.7-3.4 1.5-5.2-.2-2.2-.9-3.2-2.8-3.7-1.3-.4-4.9-1.4-7.9-2.2l-5.3-1.5zM662.4 149c.5 0 2.1.8 3.5 1.8 1.6 1.2 3.8 5.3 6.1 11.3 2 5.2 5.3 14.6 7.3 20.9 2 6.3 4.5 12.8 5.6 14.5 1.1 1.6 2.6 4 3.5 5.2 1.4 2.1 1.3 2.5-.5 4.3-1.6 1.6-3.3 2-8.8 2-3.7 0-8.4-.5-10.5-1-2-.6-3.9-1.7-4.2-2.5-.3-.8-.3-2.1 0-2.8.2-.6 1.6-1.8 3-2.5 2.3-1.1 2.4-1.5 1.5-4.5-.6-1.7-1.4-3.6-1.8-4-.4-.4-1.8-.4-3.2.1-1.4.5-4.6.7-7.3.5-4.4-.3-4.8-.1-5.8 2.4-.6 1.6-.8 4.5-.5 6.5.5 3 .2 4.2-1.4 5.8-1.1 1.1-2.8 2-3.8 2.1-.9.1-3.1 0-4.7-.1-1.7-.1-4.2-1-5.8-2.1-1.5-1-2.9-1.9-3.2-1.9-.3 0-1.4.9-2.5 2-1.8 1.8-3 1.9-10.5 1.5-4.7-.3-9.6-1-11-1.5-1.4-.6-2.7-1.5-3-2-.3-.6.2-1.8 1-2.8 1.4-1.5 1.5-4.3 0-40.2h-2.5c-2.3 0-2.6.4-3.2 5.7-.4 3.2-2.3 10.7-4.3 16.8-2.2 6.7-4.9 12.8-7.1 15.7-1.9 2.7-4.6 5.6-6.1 6.5-1.5 1-4.2 1.8-5.9 1.8-2.1 0-4.2-.9-5.9-2.5-1.4-1.4-2.8-4.1-3.1-6-.3-2.2 0-4.3.8-5.5.8-1.1 2.8-2.4 4.4-2.8 2.2-.6 3.5-.3 5.6 1.2 1.8 1.3 3.2 1.8 4 1.2.7-.5 2.3-3.2 3.5-6 1.4-3 2.7-8.9 3.3-14.4.5-5 1-10 1-11 0-1.1-1-1.9-2.8-2.3-1.5-.3-3.3-1.1-4-1.7-.7-.7-1.3-2-1.3-3 .1-.9 1-2.2 2.1-2.7 1.1-.6 10.5-1 21.5-1 18.2 0 19.6.1 21.5 2 1.1 1.1 2 2.6 2 3.2 0 .7-.5 2-1.2 3-.7.9-2.4 1.8-3.8 2-2 .2-2.4.8-2.1 2.8.2 1.4.4 9.8.6 35h3.2c2 0 3.5.6 3.8 1.5.3.8 1.2 1.5 2 1.5s1.7-.7 2-1.5c.3-.8 1.8-2 3.5-2.5 2.7-.9 3.3-2 6.1-10.8 1.7-5.3 4.7-13.8 6.6-18.7 1.9-5 4.6-11.1 6-13.7 1.4-2.6 3.3-5.2 4.2-5.7.9-.6 2-1.1 2.6-1.1zm-7.5 34c7 0 9-.3 9-.8 0-.4-.6-3.1-1.4-6-.7-2.8-1.8-5.2-2.4-5.2-.6 0-2 2.7-3.1 6zm-172.3-32.9c1.8-.1 4.5.4 6 1s4.1 1.1 5.8 1c1.6-.1 3.5.4 4.1 1.1.7.7 1.9 3.9 2.8 7 .8 3.2 1.3 6.7 1.1 7.8-.3 1.1-1.7 2.7-3 3.5-1.9 1.1-3.1 1.2-4.5.5-1.1-.6-2.8-2.5-3.7-4.3-.8-1.7-2.3-4-3.2-5-1.1-1.1-3.1-1.8-5.6-1.8-2.2 0-6.1 1.1-8.5 2.4-3.3 1.6-5.2 3.5-6.8 6.7-1.6 3.1-2.3 6.2-2.2 10.2 0 3.2.4 6.9 1 8.3.5 1.4 2 3.2 3.2 4 1.3.8 5.9 1.8 19.3 2.8l3.5-3.7c2.1-2.3 4.2-3.6 5.4-3.4 1.1.2 2.5 1.4 3.2 2.8.8 1.6.9 3.4.3 5-.5 1.4-2.6 4.1-4.6 6.1-2.2 2-6.3 4.3-9.3 5.3-4.2 1.4-7.5 1.8-13.5 1.4-5.3-.3-9.7-1.2-13-2.7-2.8-1.2-6.5-3.6-8.3-5.4-1.8-1.8-3.4-3-3.6-2.7-.2.3-.8 1.8-1.3 3.5-.6 1.6-2.1 3.8-3.4 4.7-2 1.5-5.6 1.9-20.9 2.4-15.9.6-19.1.4-22.3-1-2.3-1-3.7-2.3-3.8-3.4 0-.9.6-2.3 1.3-3 .9-.9 1.3-5.8 1.3-17 .1-8.6.4-17.2.8-19 .6-2.8.4-3.3-1.8-4.2-1.4-.6-2.9-1.8-3.5-2.8-.5-1-.5-2.4 0-3.5.6-.9 2.4-1.9 4.2-2.2 1.8-.2 11.5-.7 39.8-1.5l2.5 2.5c1.6 1.6 2.5 3.6 2.5 5.7 0 1.8-.7 4.3-1.5 5.5-1 1.5-2.4 2.2-3.8 2-1.5-.1-2.9-1.5-4.2-4.1-2-3.8-2.1-3.9-6.3-3.2-2.3.3-6.3.9-8.7 1.3-4 .7-4.5 1.1-4.4 3.3 0 1.4.4 3.8.7 5.5.6 2.7 1.1 3 5.5 3.5 4.5.5 5 .3 6.3-2.3.7-1.5 2.2-3.1 3.1-3.7 1.2-.6 2.3-.5 3.6.3 1 .7 2 3 2.3 5.2.4 2.2.1 5.7-.5 7.7-.6 2.1-1.9 4.2-2.9 4.7-1.1.7-3.6.5-7.2-.5-3.1-.7-6.3-1.4-7.3-1.4-1.2 0-1.7.8-1.7 2.5 0 1.4-.6 4.5-1.3 7.1-1.1 3.9-1 4.7.3 5.5.8.5 4.2.9 7.5.9s7.6-.4 9.7-.8c3.1-.6 3.8-1.2 4.3-3.5.2-1.5 1.5-3.4 2.7-4.2 1.3-.8 2.9-1.5 3.8-1.5 1.1 0 1.6-1.6 2.1-5.7.4-3.2 1.6-8.3 2.7-11.3s3.8-7.5 5.9-10c3-3.5 5.6-5.2 11.3-7.4 4.1-1.6 8.8-3.3 10.5-3.7 1.6-.4 4.4-.7 6.2-.8zm41.8.5c7.7.3 18.9.6 25 .5 8.1 0 11.5.3 13.2 1.4 1.4.9 2.3 2.5 2.3 4 0 1.7-1 3-3 4.2-3 1.8-3 1.9-2.4 7.8.4 3.3.7 6.4.6 7 0 .5-.4 5.6-.9 11.2-.8 10-.8 10.3 1.4 11.8 1.3.8 2.3 2.5 2.3 3.7 0 1.3-.9 3.2-2.1 4.3-1.7 1.6-3.5 2-8.4 2s-6.8-.4-8.5-2c-1.1-1.1-2.1-2.8-2.1-3.8 0-.9 1.1-2.4 2.3-3.2 2.2-1.5 2.2-1.6 1-10.3-.7-4.8-1.2-12.9-1.2-27.2h-21l.7 6.2c.4 3.5.7 11.7.5 30.3l2.6.1c1.5.1 3.2 1 3.9 2 .8 1.3.9 2.5.2 3.6-.5 1-2.6 2.3-4.7 2.9-2 .6-6.4 1-9.6.8-4.4-.3-6.1-.9-7.2-2.4-1.2-1.7-1.2-2.3.1-4.3 1.2-1.8 1.5-6.1 1.5-41.2l-2.8-1.3c-1.9-.8-2.7-2-2.7-3.7 0-1.6.8-2.9 2.5-3.8 1.9-1 5.7-1.2 16.5-.6zm318 0c2.7.2 7.9 1.2 11.4 2.2 4.3 1.1 7.7 2.8 10.5 5.3 2.2 1.9 4.9 5.5 5.9 8 1.1 2.4 1.9 6.6 1.9 9.4 0 3.1-1.2 8.3-3.3 14-2.2 5.9-4.5 10.3-6.9 12.8-3.4 3.7-3.9 3.9-12.5 4.8-6.5.7-10.3.7-13.5-.1-2.5-.6-6.7-2.4-9.4-3.8-2.7-1.5-6.6-4.6-8.8-7-2.1-2.3-4.3-5.9-4.8-8-.6-2-1-5.2-1-7 0-1.7 1-6.2 2.2-9.9 1.7-5.2 3.5-8 7.3-11.9 3.2-3.3 6.9-5.8 10.5-7.2 4-1.6 6.8-2 10.5-1.6zM832 169.7c-.6 1.3-1.1 5.3-1.1 9 0 5.5.5 7.8 2.7 12 2 3.9 3.7 5.7 6.3 6.7 1.9.8 4.8 1.7 6.5 2 1.9.4 3.8.1 5.2-.9 1.3-.8 2.9-3.1 3.8-5 .8-1.9 1.5-5.5 1.5-8s-.7-6.9-1.4-9.8c-.8-2.8-1.9-6.3-2.4-7.7-.5-1.4-2.6-4-4.6-5.8-2-1.7-4.4-3.2-5.4-3.2s-3.7 1.9-5.9 4.2c-2.3 2.4-4.6 5.3-5.2 6.5zm-106.6-17.9c6.6.2 13.1.7 14.5 1.1 1.6.6 3.3.4 5-.5 1.6-.9 6.1-1.3 12.7-1.4 5.7 0 11 .3 11.9.7.9.5 2 1.6 2.5 2.5.5 1.1.5 2.6-.1 3.8-.6 1.1-2.4 2.2-4 2.5-2.8.5-3 .8-2.5 3.7.3 1.8.5 4.9.5 10.3l9.2-.4c5.1-.2 9.5-.6 9.8-.8.2-.3.5-3.5.6-7.1.2-6.7.2-6.7-3-7.7-2.4-.8-3.1-1.7-3.1-3.5 0-2 .6-2.6 3-3.1 1.6-.4 6.2-.7 10.2-.8 4-.1 8.2.3 9.3.9 1.1.5 2 1.9 2 3s-.7 2.3-1.5 2.7c-1.3.7-1.5 4.1-1.6 20.8-.1 19.1 0 20 2 21.2 1.1.7 2.1 2.2 2.1 3.3 0 1.1-.9 2.4-2 3-1.1.5-5.4 1-9.5 1-4.2 0-8.4-.5-9.5-1-1.1-.6-2-1.9-2-3s.9-2.5 2-3c1.7-.9 2-2 2-16h-5.3c-2.9 0-7.5-.3-15.1-1.5l.8 9c.4 4.9 1.4 9.9 2.2 11 1.2 1.7 1.2 2.3-.1 4-1.2 1.8-2.5 2-12 2-9.6 0-10.8-.2-12.1-2-.8-1.2-1-2.6-.5-3.5.4-.8 1.9-1.8 3.2-2.2 2.3-.7 2.4-1 2.4-11.5 0-6 .4-14.9.9-19.8.9-8.7.8-9.1-1.3-10.3-1.2-.6-2.5-1.2-2.9-1.2-.4 0-1.1 1.8-1.5 4-.5 2.5-1.5 4.4-2.7 5-1.6.8-2.5.5-4.3-1.4-1.2-1.3-2.8-3.1-3.5-4-.8-1-2.8-1.6-9.7-1.6v9.2c0 5.1-.4 13.8-1.8 29.3l3.9 2c2.2 1.1 4 2.9 4.2 4 .2 1.1-.5 2.7-1.4 3.5-1.3 1.1-3.8 1.4-10.3 1.2-4.8-.2-10.3-.7-12.4-1.3-2-.5-3.9-1.5-4.1-2.2-.3-.6-.2-1.8.2-2.5.4-.6 2-1.6 3.7-2 2.8-.8 3-1.2 3.3-6.3.2-3 .1-11.8-.8-33.9l-5.7.2c-5 .3-5.7.6-6.4 2.8-.5 1.4-1.4 2.8-2.1 3.2-.8.3-1.9.3-2.5 0-.7-.4-1.7-1.9-2.3-3.5-.6-1.5-1-3.7-1.1-5 0-1.2.7-3.1 1.5-4.2 1.2-1.7 2.9-2.1 12.2-2.5 6-.3 16.3-.4 22.9-.2z" style="fill:#f17906"/>
    <path fill-rule="evenodd" d="M681.5 65.2c2.7.4 6.3 1.2 8 1.8 1.7.5 5.6 3.6 8.7 6.7 3.1 3.2 6.2 7 6.7 8.5.6 1.6 1.1 6.7 1.1 11.5-.1 5.1-.7 10.5-1.6 12.8-.8 2.2-2.2 4.9-3.2 5.9-.9 1-4.5 3.2-7.9 4.8-4.6 2-8 2.8-12.5 3-3.5 0-8.6-.6-11.5-1.5-2.9-1-5.5-2.1-5.8-2.7-.3-.6-1.3-1-2.2-1-1 .1-3-.8-4.5-2-1.9-1.3-3-3.2-3.4-5.8-.3-2-1.2-5.2-2-7-.8-1.7-1.4-5.2-1.4-7.7s.7-6.2 1.6-8.3c.8-2 2.8-5.3 4.3-7.2 1.6-1.9 5.2-5.2 8.2-7.3 3-2.1 7-4.1 8.9-4.5 1.9-.5 5.7-.4 8.5 0zm-11.1 14c-.8 1.6-2.1 5.8-3 9.5-.9 3.8-1.3 8.4-1 10.3.3 1.9 1 5.2 1.6 7.2.7 2.7 1.9 4.3 4 5.3 1.7.8 5 1.5 7.5 1.5 4 0 4.7-.3 6.4-3.3 1-1.7 2.4-5.5 3.2-8.2.7-2.8 1.3-7.5 1.3-10.5q0-5.5-2.2-10c-1.2-2.5-3.2-5.7-4.4-7.2-1.3-1.4-3.3-2.9-4.4-3.2-1.6-.5-2.8.1-4.9 2.6-1.5 1.8-3.4 4.5-4.1 6zM375 65.5c3.6.2 9 1.3 12 2.5 3 1.1 7.3 3.5 9.4 5.3 2.1 1.7 4.7 4.9 5.7 6.9 1.5 2.9 1.9 6 1.9 13 0 6.8-.5 10.4-1.9 13.3-1 2.2-3.5 5.5-5.7 7.4-2.1 1.9-6.2 4.5-8.9 5.8-2.8 1.2-5.7 2.3-6.5 2.3-.8 0-2.4-.6-3.5-1.5-1.2-.8-4.2-1.4-7.5-1.5q-5.5 0-10-2.2c-3.6-1.9-5.2-3.5-8-8.8-3.3-6.1-3.5-7.1-3.5-15.5 0-7.9.3-9.6 2.6-13.5 1.5-2.5 4.2-5.8 6-7.4 1.9-1.6 5.2-3.7 7.4-4.7 3-1.4 5.6-1.8 10.5-1.4zm-8.2 16c-1.8 4.1-2.3 7.1-2.5 16.2L364 109c5 3.1 7.8 4.3 9.5 4.6 2.1.5 4.1.1 6.5-1.2 2.4-1.3 4.4-3.7 6.2-7.4 1.5-3 3.3-8.1 4-11.2 1-4.6 1.1-6.7 0-10.3-.6-2.5-2-5.7-3-7.2-.9-1.4-3.6-3.4-6-4.5-2.3-1-4.6-1.8-5-1.8-.5 0-2.2 1.5-4 3.2-1.7 1.8-4.1 5.5-5.4 8.3zm196.7-16c8 .3 9.5.7 13 3.2 2.2 1.6 5.5 5.1 7.3 7.8 1.8 2.8 3.7 6.6 4.2 8.5.6 1.9 1 5.9 1 8.7 0 3.2-.8 7-2 9.5-1.1 2.6-4.4 6.4-8.2 9.6-3.8 3.2-8.3 5.9-11.3 6.9-3.4 1.1-6.6 1.4-10 .9-2.8-.3-7.5-1.8-10.5-3.3-4.2-2.2-6.4-4.2-9.6-8.8-2.9-4.3-4.3-7.6-4.8-11.5-.5-3-.8-7.8-.7-10.5.1-3.2.9-6.4 2.3-8.9 1.3-2.2 3.4-4.8 4.8-5.8s5.4-2.9 9-4.2c5.5-2 7.9-2.3 15.5-2.1zm-12.6 14c-1.7 3.7-2.4 7.6-2.7 15-.3 7.8-.1 10.8 1.2 13.7 1.4 3.4 2.1 3.9 6.8 4.9l5.3 1c5.1-5.9 6.7-9 7-10.6.2-1.6.7-8.2 1-14.5.5-11 .4-11.6-1.7-13.6-1.3-1.2-3.8-2.9-5.6-3.8-1.7-.9-3.9-1.6-4.7-1.6-.8 0-2.1 1-2.9 2.2-.8 1.3-2.5 4.5-3.7 7.3zm65-14c11.3.4 21.4 1.1 22.3 1.6 1.4.7 1.8 2.2 1.8 7.4 0 6.1-.1 6.5-2.3 6.2-1.5-.1-2.8-1.5-5.7-7.7h-9c-8.7 0-9 .1-9 2.2 0 1.3.3 4.5 1.2 12.3l7.9.7c4.3.5 10.7 1.8 14.1 3 5.5 2 6.5 2.8 8.2 6.3 1.2 2.6 1.6 5.1 1.3 7-.4 1.6-1.7 4.6-2.9 6.5-1.4 2.1-4.3 4.5-7.3 6-4.5 2.2-6.6 2.5-20.5 2.8-8.5.3-16.7.2-18.3-.2-1.8-.4-2.7-1.2-2.7-2.6 0-1.4.9-2.2 3-2.8 2.1-.5 3.1-1.4 3.5-3.5.3-1.5 0-7.1-.6-12.5-.6-5.3-.9-13.4-.7-18 .3-7.6.1-8.3-1.7-8.7-1.1-.3-2.6-1.2-3.3-2-.6-.8-.9-2.2-.6-3.1.6-1.5 2.6-1.6 21.3-.9zm-1.6 35.7c-.7 6.5-.6 7.2 1.4 9.4 1.5 1.5 3.4 2.4 5.3 2.4 1.7 0 4.1-.8 5.5-1.8 1.4-.9 2.8-2.8 3.1-4.2.3-1.4-.1-3.8-.8-5.4-.7-1.5-2.6-3.6-4.3-4.6-1.7-.9-4.4-2-6.2-2.3l-3.1-.6zm237.5-35.7c21.9.5 24.8.7 26 2.3.8 1.2 1.1 3.2.6 6.2-.3 2.5-1.2 5.2-2 6-.8 1-2 1.3-2.9.8-.9-.4-2.4-2.5-5.1-8.7l-12.5-.1.6 12.3c.3 6.7.2 16-1.1 28.7l2.5.1c1.4 0 3.5.9 4.8 2 1.2 1.1 2.1 2.5 1.9 3.2-.3.9-4 1.3-13 1.5-10.6.2-12.9 0-13.9-1.3-.9-1.2-1-2.1-.2-3.3.7-.9 2.5-1.9 6.9-2.7l.5-38.5h-12.5l-1 3.8c-.8 3.1-1.4 3.7-3.5 3.7-2.3 0-2.5-.5-3.5-6.1-.9-5.5-.8-6.4.9-8.3 1.9-2 2.6-2.1 26.5-1.6zm42-.4c5.8 0 11.2.3 12 .7.7.4 1.1 1.6 1 2.7-.3 1.5-1.3 2.1-6.9 2.5l.5 18.1 10.6.2c8 .2 11.2.7 13.2 2 1.5 1 3.5 3.4 4.5 5.3 1.5 3.2 1.6 4.2.5 9.3-.7 3.1-2.3 6.7-3.5 8-1.3 1.3-3.6 3-5.3 3.9-1.6.8-5.7 1.7-9 1.9-3.3.3-11.1.6-17.5.7-9.1.2-11.8-.1-13.3-1.3-1-.9-1.5-2.3-1.2-3.3.3-1.2 1.6-1.8 6.5-1.8l-.6-6.2c-.4-3.6-.2-7.7.4-9.8.6-1.9 1.4-8.5 2.2-26l-2.7-.4c-1.5-.3-3.3-1.2-4-2-1-1.3-1-1.8.3-3.1 1.2-1.1 4.1-1.4 12.3-1.4zm7.1 43.2v3.7c9.2-.4 9.6-.7 11.8-5 2-3.6 2.2-4.9 1.3-6.7-.6-1.2-2.5-2.9-4.3-3.6-1.8-.8-4.2-1.7-5.3-2.1-1.9-.5-2.1-.1-2.8 4.7-.3 2.9-.6 6.9-.7 9zM299.7 66.2c8.1-.1 20.7.1 28 .3 12.4.5 13.2.7 13.2 2.5 0 1.4-.8 2.2-5.5 3.2l.1 19.2c.1 10.5.4 19.9.8 20.9.3 1 1.8 2.1 3.2 2.5 1.4.4 2.7 1.4 3 2.2.2.9-.1 2.1-.8 2.9-1 1-4.1 1.2-12.8.8-9.2-.4-11.7-.8-12.5-2.1-.7-1.3-.5-2 .8-2.9 1.3-.8 1.8-2.9 2.2-7.7.2-3.5.9-12.1 1.5-19 .6-6.8 1.3-13.2 1.6-14.2.4-1.5-.3-1.8-4.8-1.7-2.9 0-8-.3-17.3-1.3l1.2 7.4c.7 4 1.3 10.3 1.3 13.8 0 3.6-.6 9.4-1.2 12.8-1.1 5.4-1 6.5.2 7.7.9.7 2.5 1.6 3.8 1.9 1.4.4 2.1 1.3 2 2.4-.3 1.6-1.7 1.7-13.1 1.7-10.2 0-12.9-.2-13.7-1.5-.5-.8-.8-1.9-.6-2.5.2-.5 1.6-1.6 3.2-2.5 1.6-.8 3-1.5 3.2-1.5.1 0 .3-9.2.4-20.5.2-18.5 0-20.5-1.5-20.7-.9-.1-1.7-.9-1.8-1.6-.1-.7.1-1.6.5-1.8.4-.3 7.3-.6 15.4-.7zm140-.2c23.1 0 30 .2 31 1.3.7.7 1 2 .7 3-.2 1-1.5 2-2.7 2.3-2.2.5-2.3 1-2.3 10.2 0 5.4-.3 14.1-1.5 29.2l3 2c1.7 1.1 3 2.8 3 3.8 0 1.5-1.4 1.8-11.2 2.4-8.7.5-11.6.3-12.8-.7-.9-.8-1.2-2-.7-2.9.4-.9 1.5-1.8 2.5-2.1 1.4-.5 1.7-1.8 1.8-7.3 0-3.6.6-9.4 1.2-12.7.7-3.3 1.2-9.4 1.2-21.5l-4.7.1c-2.6 0-7.7.2-17.8 1.2l.7 5.6c.4 3.1.7 11.6.8 32.1l3.5 2c2 1.1 3.5 2.7 3.5 3.5 0 .9-.9 2-2 2.5-1.1.6-6.4.9-11.7.8-5.4-.2-10.3-.7-11-1-.7-.4-1.3-1.5-1.3-2.5s1.2-2.4 5.5-4.4l-.7-14.2c-.4-7.8-.8-16.7-.8-19.9 0-4.8-.2-5.7-1.7-5.7-1 0-2.8-.8-4.2-1.8q-2.4-1.8-1.7-3.5c.5-1.6 2.9-1.8 30.4-1.8zm61.7.7c6.6.2 13.8.8 16 1.3 2.2.6 5.2 1.8 6.5 2.8 1.4 1 3.3 3.5 4.3 5.6 1.4 2.9 1.5 4.4.8 7.4-.5 2.1-2 4.8-3.3 6-1.2 1.3-5.4 3.2-9.3 4.3-3.8 1.1-9 2.4-11.5 2.9-2.4.6-4.5 1.1-4.6 1.3-.1.1-.3.9-.4 1.7-.1.9-.1 4.6 0 15h3c2.5 0 3 .4 2.8 2.3-.2 1.3-1.2 2.4-2.8 2.9-1.3.3-5.6.7-9.5.7-3.8.1-8.7-.3-10.7-.9-3.1-.8-3.7-1.4-3.5-3.2.2-1.7 1-2.3 6.2-2.8l.8-12.7c.4-7 .7-16.9.7-22 0-7.6-.2-9.3-1.5-9.3-.8 0-2.7-.5-4.2-1.2-2.7-1.1-2.6-1.2 2.7-1.9 3.1-.3 10.9-.5 17.5-.2zm-.8 17.1.8 6.3c5.8 0 7.7-1 10.1-3.3 3.1-3 3.3-3.5 2.4-6.8-.6-1.9-1.3-3.7-1.7-4-.4-.4-3.4-1.6-6.5-2.8-3.2-1.2-6-2.2-6.4-2.2-.3 0-.4 1.5 0 3.3.3 1.8.9 6.1 1.3 9.5zm230.8-17.7c13.8-.1 15.6.1 22 2.5 3.9 1.4 7.6 3.3 8.3 4.2.6 1 1.2 3.1 1.2 4.7 0 2.1-1.3 4.6-8 12.5l2.5 2c1.4 1.1 3.4 3.8 4.5 6s2.1 5.3 2.1 6.8-1 4.3-2.3 6.2c-1.4 2.1-4.3 4.5-7.3 6-4.3 2.1-6.8 2.4-19.5 2.9-7.9.2-16.2.2-18.2-.2-3.2-.5-3.8-1-3.8-3.2 0-1.9.7-2.6 3.2-3.2 3.2-.7 3.2-.8 3.2-6.8.1-3.3 0-12.7-.3-36l-3-.7c-1.7-.4-3.2-1.2-3.3-1.7-.1-.5.7-1.1 1.7-1.4 1.1-.2 8.8-.5 17-.6zm2.1 14.4c.4 4.4.8 8.2 1 8.3.3.1 2.3-.6 4.7-1.6 2.3-.9 5.2-2.7 6.5-4 1.2-1.2 2.2-2.7 2.3-3.4 0-.7-.6-2.1-1.3-3.1-.8-1.1-3.7-2.2-7.6-3l-6.3-1.2zm-.7 23.7.2 8.8c9.8 0 11.5-.4 13.5-2.2 1.4-1.3 2.8-3.8 3.1-5.8l.5-3.5c-12.5-5.6-16.5-7-16.8-6.7-.4.3-.6 4.6-.5 9.4zm64.5-38.1c1.5 0 3.2 1.5 5.4 4.7 1.8 2.6 4.1 7 5.2 9.7 1.1 2.8 4 10.6 6.5 17.3 2.5 6.7 4.6 13.1 4.6 14.2 0 1.5.6 2 2.2 2 1.3 0 2.9.7 3.8 1.6 1.3 1.4 1.3 1.7-.3 3.2-1.5 1.5-3.5 1.7-12 1.4-6-.2-10.8-.8-11.5-1.5-.7-.6-1.3-1.5-1.3-1.9.1-.4 1.4-1.2 3.1-1.8 1.6-.5 3-1.4 3-2 0-.5-.6-3.2-2.5-11.1l-3.5.7c-2 .4-6.9.8-18.3.9l-1.3 3.5c-.7 2-1.3 3.9-1.4 4.3 0 .4 1 .7 2.2.7 1.3 0 3.1.6 4.1 1.3 1.3.9 1.7 1.9 1.3 3.5-.5 1.6-1.6 2.4-4.4 2.9-2 .3-6.3.4-9.4.2-3.3-.2-6.4-1-7.3-1.9-1-.9-1.3-2.1-.8-3.3.4-1 1.9-2.1 3.3-2.3 1.4-.3 3.6-2.1 5-4.2 1.5-2 3.2-5.2 3.9-7.2.8-1.9 4.3-9.3 7.8-16.5 3.6-7.1 7.4-14.2 8.5-15.7 1.1-1.6 2.8-2.8 4.1-2.7zm-9.2 23.4c-2.3 4.7-4.1 8.7-4.1 8.8 0 .1 1.9-.1 4.2-.5 2.4-.3 6.2-.7 8.5-.7l4.3-.1c-4.2-6.5-6.1-10.2-7-12.2l-1.7-3.8z" style="fill:#000"/>
</svg>
