<svg version="1.2" xmlns="http://www.w3.org/2000/svg" width="1000" height="100">
    <path fill-rule="evenodd" d="M103.5 37.1c4.5-.1 6.6.3 8.2 1.6 1.7 1.3 2 2.2 1.3 3.3-.6 1-2.2 1.4-8.5.9l-.8 6.3c-.4 3.5-.7 7.5-.7 9 0 2.1.5 2.8 2 2.8q2 0 2 2c0 1.2-.9 2.2-2.2 2.6-1.3.3-4.3.4-6.8.2-3.4-.2-4.5-.7-4.7-2.1-.2-1 .5-1.9 1.7-2.2 1.5-.4 2-1.3 2-3.8 0-1.7-.4-5.6-.8-8.5-.6-4.5-1-5.2-2.9-5.2-1.4 0-2.3.6-2.3 1.5 0 .8-.9 1.5-2 1.5-1.5 0-2.1-.8-2.4-3.3-.2-1.7.1-3.8.8-4.5.6-.7 3.1-1.4 5.6-1.5 2.5-.2 7.2-.4 10.5-.6zm52.2-.1c4.3 0 8.8.2 10 .5 1.5.3 2.3 1.2 2.3 2.5 0 1.1-.4 2-1 2s-1 3.8-1 9.5.4 9.5 1 9.5 1 .9 1 2c0 1.3-.8 2.2-2.3 2.5-1.2.3-3.3.5-4.7.5-1.4 0-3.2-.4-4-1-1.2-.7-1.3-1.3-.3-3.2.7-1.3 1.3-6.1 1.5-10.8.3-8.2.2-8.5-2-8.8-1.8-.2-2.3.4-2.8 3.6-.3 2-1.2 6.2-2.1 9.2-.8 3-2.4 6.5-3.6 7.8-1.2 1.2-3.2 2.2-4.5 2.2-1.2 0-2.6-.9-4.2-4l-2 2c-1.1 1.1-3.7 2.3-5.8 2.6-2 .4-6.4.4-9.7.1-3.3-.4-6.5-1.1-7-1.7-.7-.8-.4-1.6 1-2.6 1.8-1.3 2-2.4 1.7-10.2-.2-4.8-.5-9-.8-9.4-.2-.5.2-1.5.8-2.3 1-1.2 3.2-1.6 8.8-1.6 4.3.1 8.3.6 9.4 1.3 1 .7 1.6 1.8 1.2 2.4-.4.7-3.2 1.4-6.1 1.8-5 .5-5.5.8-5.5 3.1 0 2.4.2 2.5 4.5 2 4.4-.5 4.5-.4 4.2 2.3-.2 2.5-.5 2.7-4.2 2.4-2.5-.2-4.3.2-4.7 1-.4.7-.8 2.5-.8 4.1 0 2.6.2 2.7 4.7 2.7 3.1.1 5.3-.5 6.3-1.5 1.2-1.2 1.8-1.3 2.8-.3 1.1 1.1 1.6 1 2.3-.4.6-1.2 1.7-1.6 3.1-1.3 2.1.4 2.5-.3 4.5-7 2.1-6.9 2.2-7.6.6-8.7-.9-.8-1.4-2-1-3 .5-1.5 1.9-1.8 8.4-1.8zm35.8.1c.6-.1 1.7.5 2.5 1.2.9.8 1.5 2.6 1.3 4-.2 1.9-.9 2.7-2.3 2.7-1.1 0-2.2-.5-2.5-1-.3-.5-2.3-1-4.5-1-3.9 0-4 .1-4 3.5 0 3.1.3 3.5 2.5 3.5q2.5 0 3-2c.3-1.1 1.2-2 2-2s1.7.5 2 1c.3.5.6 2.6.7 4.5.2 1.9-.3 4-1 4.7-1 1-1.6 1.1-3.2.1-1.1-.7-2.9-1.3-4-1.3-1.6 0-1.9.6-1.8 2.8.3 2.5.7 2.7 4.8 3 3.7.2 4.8-.1 6-1.9.8-1.2 2.1-1.9 2.7-1.5.7.3 1.3 2 1.3 3.6q0 3-2 4c-1.1.5-6.4.9-11.8.8-9.2-.3-9.7-.4-9.9-2.5-.2-1.3 0-2.3.5-2.3.4 0 1-3.8 1.5-8.5.6-6.9.4-8.8-.8-10-.8-.8-1.3-2-1-2.5.3-.5 2.9-1.1 5.8-1.1 2.8-.1 6.5-.5 8.2-.9 1.7-.4 3.4-.8 4-.9zm21.5 1.2c3.6.4 7.1 1.3 7.8 2 .7.6 1.3 2 1.2 3 0 .9-.7 1.9-1.5 2.2-.8.3-1.7 0-2-.5-.3-.5-2.5-1-5-1-4.2 0-4.5.2-4.5 2.8 0 1.5-.3 4.7-.6 7.2-.6 3.9-.4 4.8 1.7 6.7 1.6 1.5 2.1 2.8 1.7 3.8-.6 1.1-2.4 1.5-6.8 1.5-4.8 0-6.1-.4-6.7-1.8-.4-1.1.1-2.2 1.3-3 1.5-1 2-2.9 2.4-9.1.5-7.5.4-8-2-9.9q-2.5-2.1-1.5-3.1c.6-.5 2.6-1.1 4.5-1.3 1.9-.2 6.4 0 10 .5zm49.2-.8c.7.3 1.9 1.4 2.5 2.5.7 1.1 2.4 5 3.8 8.8 1.3 3.7 2.4 7.4 2.4 8.2 0 .8.7 2.2 1.6 3 .9.8 1.6 2.3 1.5 3.3 0 1.4-.8 1.7-4.8 1.5-4.5-.3-4.7-.4-4.7-3.3 0-2.8-.2-3-4.5-3.3-2.5-.1-4.9.3-5.5.9-.7.8-.6 1.3.2 1.5.7.2 1.3 1.3 1.3 2.4 0 1.1-.7 2.2-1.5 2.5-.8.3-2.8.5-4.5.5-1.8 0-3.3-.7-3.8-1.6-.5-1.1 0-2.1 1.5-3.3 1.3-.9 3.6-4.3 5.1-7.6 1.6-3.3 3.4-7.7 4-9.8.7-2 1.9-4.4 2.7-5.2.8-.8 2.1-1.2 2.7-1zm-4.2 14c0 .8.9 1.5 2 1.5s2-.7 2-1.5-.2-2.2-.5-3c-.3-.8-.9-1.5-1.4-1.5-.5 0-1.2.7-1.5 1.5-.3.8-.6 2.2-.6 3zM535.5 37c1.1 0 3.6 1 5.5 2.3 1.9 1.2 3.6 3.1 3.7 4 .2.9-.4 1.9-1.2 2.2-.8.3-2.9-.4-4.5-1.5s-4-2-5.3-2c-1.2-.1-2.7.5-3.4 1.2-.7.7-1.3 4-1.4 7.3-.2 3.9.2 6.8 1.2 8.3.8 1.2 2.2 2.4 3.1 2.7 1 .3 2.7.7 3.8 1q2 .5 4.5-2.3 2.6-2.7 2.6-1.2c0 .8-.8 2.2-1.8 3.1-1 .9-3.2 2.1-4.8 2.8-2.2.9-4.2.9-7.5.1-2.5-.5-5.2-1.6-6-2.4-.8-.8-2.1-3.2-2.8-5.5-.6-2.3-.9-5.3-.6-6.9.4-1.5 1.6-4.2 2.8-6.1 1.2-2 3.8-4.2 6.1-5.3 2.2-1 4.9-1.8 6-1.8zm25 0c1.6 0 4.9.9 7.2 2 2.4 1.1 4.9 3.2 5.7 4.7.7 1.6 1.6 4.3 2 6 .4 2.3 0 4.7-1.4 7.8-1.5 3.3-3 5-6 6.5-2.4 1.2-5.9 2-8.8 2-4.3-.1-5.1-.5-8.5-4.3-3.1-3.5-3.7-4.9-3.7-8.5 0-2.3.8-5.8 1.7-7.9 1-2 3.4-4.7 5.3-6 1.9-1.3 4.9-2.3 6.5-2.3zm-5.3 15c-.4 4.7-.2 5.8 1.6 7.7 1.4 1.5 3.2 2.2 4.9 2 1.9-.1 2.9-.9 3.4-2.7.4-1.4.7-5.1.8-8.3.1-3.1-.1-6.4-.4-7.2-.3-.9-1.8-1.5-4-1.5-2.6 0-3.7.6-4.6 2.3-.7 1.2-1.4 4.7-1.7 7.7zm91.1-14.4c.7.2 2.3 3.5 3.5 7.2 1.3 3.7 3.7 9.4 5.3 12.7 1.5 3.3 2.9 6.2 2.9 6.5 0 .3-1.8.8-4 1.3-2.2.4-4.7.5-5.5.2-1.1-.4-1.4-1.5-1-4 .4-3 .2-3.6-1.7-4.1-1.3-.3-3.2-.4-4.3-.2-1.5.3-2 1.1-2 3.3 0 1.7-.3 3.6-.8 4.3-.5.8-1.9 1-4.6.5-3.8-.8-4-.7-4.5 2-.3 1.5-1.3 2.7-2.1 2.7s-1.7-.9-2-2c-.5-1.8-1.3-2-10.5-2s-10 .2-10.5 2c-.3 1.1-1.2 2-2 2s-1.7-.7-2-1.5c-.3-.8-.5-2.4-.5-3.5s1.8-4.1 4.1-6.7c2.2-2.7 4.2-5.8 4.5-7 .2-1.3.9-2.3 1.4-2.3.5 0 1-1.1 1-2.5 0-1.6-1-3.1-2.6-4.2s-2.4-2.3-2-3c.4-.9 3.5-1.3 9.9-1.3 7.1-.1 9.5.3 10.5 1.5.8 1 .9 1.9.2 2.8-.5.6-.9 5.2-.5 19.2h3c2.7 0 3.3-.7 6.6-7.5 2.1-4.1 4.3-9.1 4.9-11 .7-1.9 1.9-4 2.7-4.7.7-.6 1.9-1 2.6-.7zm-34 11.4c.2 1.4-.2 4.3-.9 6.5-.8 2.2-1.2 4.6-.9 5.3.3.7 2 1.1 4.3 1l3.7-.3c1.4-11.6 1.5-15.8 1.1-16.7-.4-1.2-1.7-1.8-3.6-1.8-2 0-3.3.6-3.7 1.8-.3.9-.3 2.8 0 4.2zm129.6-11.4c2.5.4 5.6.6 6.9.5 1.2 0 2.7.6 3.2 1.4q1 1.5 0 2c-.6.3-1 4.5-1 9.8.1 7.3.4 9.4 1.7 10.2 1 .6 1.4 1.7 1 2.8-.5 1.2-1.8 1.7-4.4 1.7-2.1.1-4.3-.5-5-1.2-.9-1-.9-2.1 0-5 .9-3 .9-4.1 0-5-.7-.8-1.9-1-2.8-.5-.8.4-2.5 2.9-3.7 5.7-1.3 2.7-3.1 5.2-4 5.5-1 .3-2.7.3-3.8 0-1.1-.3-2-1-2-1.5s1.6-3.2 3.5-6c3.4-4.9 3.5-5 1.5-6.2-1.4-.9-2.1-2.5-2.3-5.1-.2-3.3.3-4.3 3.2-6.9 3.1-2.7 3.8-2.9 8-2.2zm-4.1 8.1c.1 1.5 1.2 2.7 3 3.3 1.5.6 2.8.9 2.8.8.1-.2.4-2 .8-4 .5-3.5.4-3.8-1.9-4.2-1.4-.1-3.1.2-3.7.7-.7.6-1.1 2.1-1 3.4zM774 37c1.4 0 3.4.6 4.5 1.4 1.6 1.2 1.8 1.7.7 2.8-.7.7-1.2 3-1.2 5.1q0 3.7 1.3 3.4c.6-.2 2.2-1.9 3.4-3.8 1.2-1.9 3.1-4.6 4.2-6.1 1.2-1.6 2.7-2.8 3.4-2.8.6-.1 2.3.7 3.6 1.7 1.7 1.3 2.2 2.4 1.7 4.1-.3 1.2-1.5 2.4-2.6 2.7-1.1.3-2.7 0-3.5-.5-1.2-.8-1.9-.3-5 6l3.1 3.2c1.8 1.8 3.5 4.3 3.8 5.6.3 1.2 1.1 2.2 1.6 2.2s1 .7 1 1.5c0 1.1-1.1 1.5-4 1.5s-4.2-.5-4.6-1.7c-.3-1-1.1-2.9-1.7-4.2-.7-1.3-2.2-2.9-3.4-3.5-1.3-.6-2.6-.7-3-.3-.5.4-.2 2.7.5 5 1.1 3.5 1.1 4.3 0 4.9-.7.4-3.4.8-6 .8-3.9 0-4.8-.3-4.8-1.7.1-1 .7-2.3 1.6-2.8 1-.7 1.7-3.8 2.2-9.7.6-8 .5-8.9-1.3-10.3-2-1.5-2-1.5 0-3 1.1-.8 3.1-1.5 4.5-1.5zm43.7 0c.7 0 2 .2 2.8.5.8.3 1.5 1.4 1.5 2.5s-.3 2-.7 2c-.5 0-1.5 1.4-2.4 3.2-.9 1.8-3.7 6.5-6.1 10.3-2.5 3.9-5.2 7.5-5.9 8.1-.8.6-2.5 1.4-3.9 1.8-1.4.3-3.3 0-4.3-.7-1.1-.6-1.7-2.1-1.5-3.1.1-1 1.1-2.4 2-3 1.3-.8 2.3-.8 3.8.2 1.1.6 2.3 1 2.8.7.4-.3-1.2-4.3-3.5-9-2.4-4.7-4.3-9.2-4.3-10 0-.8 1-1.8 2.3-2.1 1.2-.4 3-.4 4 0 .9.3 1.7 1.4 1.7 2.4.1.9 1.1 3.7 4.7 10.7l2.5-4.5c2.3-4 2.4-4.7 1.1-6-1.4-1.3-1.3-1.6.3-2.7 1-.7 2.4-1.3 3.1-1.3zm46.3.4c1.9.2 4.4.6 5.5.9 1.1.3 2.3.6 2.8.6.4.1.7 1.9.7 4.1 0 2.2-.6 4.3-1.2 4.6-.8.4-2-.4-3-2-1.2-1.8-2.7-2.6-4.5-2.6-1.6 0-3.3.4-3.9.8-.6.4-1.6 1.7-2.3 3-.6 1.2-1.1 4.1-1.1 6.5 0 2.3.5 5 1.2 6.1 1 1.4 2.1 1.7 5.3 1.3 2.2-.3 5.4-.9 10-2.1l-2 2.7c-1.1 1.6-3.6 3.3-5.5 3.9-2.5.7-4.5.7-7 0-1.9-.6-4.9-2.3-6.6-3.9-1.9-1.7-3.3-4.2-3.7-6.5-.5-2.9-.1-4.9 1.6-8.5 1.6-3.2 3.6-5.5 6.3-7.1 2.7-1.6 5-2.1 7.4-1.8zm-629.4.8c6.5.2 8.6.7 10.3 2.3 1.4 1.3 2.2 3.2 2.1 5.3 0 1.9-.8 3.9-2 5-1.1.9-4.2 2.2-6.8 2.7-4.2 1-4.7 1.4-5 4-.1 1.7.2 3.6.8 4.3.7.8.6 1.7-.2 2.7-.7.9-2.5 1.6-4 1.5-1.6 0-3.5-.2-4.3-.5-.8-.3-1.5-1.1-1.5-1.7-.1-.7.6-1.9 1.5-2.5 1.2-1.1 1.4-2.8.9-9.5-.4-4.6-1-9-1.5-9.8-.5-.9-.3-2 .4-2.8.9-1 3.4-1.3 9.3-1zm-1.8 7.7c.1 1.4.5 2.9.9 3.3.5.3 1.6.3 2.7 0 1-.4 2.3-1.5 2.7-2.4.6-1.2.4-2.3-.6-3.3-.8-.8-2.1-1.5-2.8-1.5-.8 0-1.7.3-2.2.7-.5.3-.8 1.8-.7 3.2zm49.4-7.9c2.4 0 4.8.4 5.5.8.6.4 1.8 3.2 2.7 6.2.9 3 2 6.2 2.5 7 .6 1.1 1.4.1 2.9-4 1.2-3 2.9-6.3 3.9-7.2 1-.9 3.4-1.8 5.3-1.9 1.9-.2 4.1 0 4.8.4.9.5.8 1.1-.4 2.5-1.2 1.4-1.4 3.8-.9 23.2h-3.7c-2.1 0-4.1-.6-4.4-1.2-.3-.7-.1-1.7.5-2.3.6-.6 1.1-4 1.1-7.7 0-4.2-.4-6.6-1-6.3-.5.3-2.2 3.7-3.7 7.6-1.6 3.9-3.6 7.5-4.5 8-1.4.7-2 .3-2.9-1.8-.6-1.6-2-5-3.2-7.6-1.2-2.6-2.5-4.4-2.9-4-.4.4-.3 3.7.1 7.3.6 4.4.5 6.9-.3 7.8-.6.7-1.8 1.3-2.6 1.3-.8-.1-2.3-.6-3.4-1.3-1.8-1.3-1.8-1.3 0-3.2 1.5-1.5 2-3.9 2.3-10 .3-7 .1-8.3-1.5-9.3-1.2-.8-1.6-1.8-1.2-2.8q.7-1.5 5-1.5zm59.5.4c6.4.1 9.4.5 9.8 1.4.3.6.3 1.9 0 2.7-.3.8-.8 1.5-1.2 1.5-.5 0-1.9-.9-3.3-2s-3.2-2-4-2c-.9 0-2.1.6-2.8 1.3-.7.6-1.2 2.7-1.2 4.5 0 3.1.2 3.2 4 3.2 2.2 0 5 .5 6.3 1 1.2.6 2.8 2 3.5 3.3.7 1.2 1.2 3.5 1 5.2-.2 2-1.2 3.5-3.3 4.7-1.6.9-5.7 2.1-9 2.4-3.8.5-7.2.3-9.2-.4-2.9-1.1-3.1-1.4-1.8-2.7 1.1-1.1 1.5-3.8 1.5-10.5 0-4.9-.4-9.9-1-11-.7-1.4-.7-2.1.3-2.4.6-.2 5.4-.3 10.4-.2zM342 61q3 0 4-2c.6-1.1.8-2.7.5-3.5-.3-1-1.8-1.5-4-1.5-3.3 0-3.5.2-3.5 3.5 0 3.2.2 3.5 3 3.5zm29.3-22.9c2.6-.1 5.6.4 6.7.9 1.1.5 3.1 2.9 4.5 5.3 1.3 2.3 2.5 5.8 2.5 7.7 0 1.9-.8 4.9-1.8 6.5-1 1.7-3.8 4-6.2 5.2-2.5 1.3-5.7 2.3-7.2 2.3-1.6 0-3.8-.5-5-1.1-1.3-.6-3.8-2.5-5.6-4.3-2.5-2.4-3.2-3.9-3.2-6.8 0-2.1.7-5.4 1.5-7.3.8-1.9 2.2-4.2 3-5 .8-.8 2.5-1.9 3.8-2.4 1.2-.6 4.3-1 7-1zM364.5 51c-.7 5.2-.6 5.7 2.1 8.3 1.6 1.5 3.6 2.7 4.4 2.7.8 0 2-.4 2.6-.8.7-.4 1.7-2.6 2.3-5 .6-2.3.8-5.9.5-8-.4-2-1.2-4.3-1.8-5-.6-.7-2.5-1.3-4.3-1.2-2 0-3.6.7-4.2 1.8-.5.9-1.2 4.2-1.6 7.2zm37.3-12.8c7.4-.2 9.3.1 9.7 1.3.3.8.3 2.6 0 4Q411 46 409 46t-2-2c0-1.5-.7-2-2.5-2-2.5 0-2.5 0-2.5 9.5 0 8.7.2 9.5 2 10 1.2.3 2 1.3 2 2.5 0 1.8-.7 2-7 2-4.6 0-7.2-.4-7.7-1.2-.3-.7.1-1.8.9-2.3 1.2-.7 1.6-3.4 1.9-10.5.4-8.9.3-9.5-1.6-9.8-1.3-.2-2.3.4-2.7 1.7-.5 1.2-1.5 2.1-2.3 2.1-.8 0-1.7-1-1.9-2.2-.2-1.3 0-2.8.5-3.5.5-.6 2.1-1.3 3.6-1.5 1.6-.1 7-.4 12.1-.5zm35.1-.1c4.9.2 9.3.7 9.8 1.2.4.5.2 1-.4 1.2-.9.3-1.3 3.4-1.3 10.9 0 9.3.2 10.5 1.8 10.5.9 0 2.2-1 2.7-2.2.6-1.5 1.9-2.3 3.5-2.4 1.4-.1 3.1-.2 3.8-.3.6 0 1.4-1.1 1.7-2.3.3-1.3.8-4.7 1-7.5.3-3.2.1-5.3-.5-5.3-.5 0-1-.7-1-1.5 0-1.2 1.7-1.5 9.5-1.5 6.6 0 9.7.4 10.1 1.3.3.6.1 1.7-.5 2.2-.7.6-1.1 4.7-1.1 10.3 0 5.4.4 9.2 1 9.2s1 .7 1 1.5-1.2 1.8-2.7 2.1c-1.6.4-4.3.4-6 0-1.8-.3-3.3-.9-3.3-1.3-.1-.5.6-1.5 1.5-2.3 1.2-1.2 1.6-3.5 1.5-19l-2.7.3c-2.3.2-2.9.8-3.1 3.2-.2 1.6-.7 3.5-1.2 4-.4.5-1.5 3.5-2.4 6.5-.9 3-2.4 6.3-3.4 7.3-.9 1-2.7 1.8-3.9 1.7-1.7 0-2.4.6-2.5 2.2-.2 1.3-1 2.4-1.8 2.6-.8.1-1.9-.8-2.5-2-.6-1.5-2-2.4-3.7-2.5-1.6-.2-2.8-.9-2.8-1.6 0-.9-1.5-1-6.4-.5-5.2.6-6.8 1.2-11.5 6.3l-.9-2.5c-.5-1.4-.6-3.4-.3-4.4.3-1.1 1.2-2.2 2-2.5.7-.3 2.2-2.6 3.2-5.1 1.1-2.5 2.4-6.2 2.9-8.3.7-2.4.7-4.2 0-5.2-.5-.8-.8-2.2-.5-3.1.5-1.2 2.1-1.4 9.4-1.2zm-7 17.1c-1.2 2.3-2.8 4.5-3.5 5-.8.4-1.2 1.2-.9 1.7.3.5 3.2 1 6.5 1h6v-21c-5.9 0-6 .2-6 4.5 0 2.6-.9 6.3-2.1 8.8zM589.8 38c3.4-.1 5.7.4 6.7 1.4.8.8 1.6 2.1 1.6 2.7.1.7 0 2.2-.1 3.3-.1 1.1-.7 2.6-1.3 3.3-.9 1-.7 1.6 1.1 2.7 1.6 1.1 2.2 2.5 2.2 5s-.8 4.3-2.7 6.3c-2 2.1-4.2 3.1-7.8 3.6-2.7.4-5.9.4-7 0-1.1-.3-2.8-1.4-3.8-2.3-1-.9-1.8-2.6-1.7-3.9 0-1.2.2-2.9.5-3.7.3-.9 1.7-1.5 3.5-1.5 2.1 0 3 .5 3.1 1.7.1 1 .1 2.4 0 3 0 .7.5 1.5 1.2 1.8.6.3 2.4.1 4-.5 1.5-.6 2.7-1.7 2.7-2.8 0-.9-.8-2.5-1.8-3.5-.9-1-2.5-1.8-3.4-1.7-1.1 0-1.8-.7-1.8-2 0-1.5.8-2.1 2.8-2.3 2.3-.2 2.7-.7 2.7-3.2s-.4-3-2.7-3.3c-2.2-.1-3.2.5-4.5 2.8-1 1.6-2.6 3-3.5 3-1.5 0-1.8-.8-1.5-4.2.2-3.9.5-4.4 3.2-4.9 1.7-.4 5.4-.7 8.3-.8zm79.5-.1c3 0 3.7.4 3.7 2 0 1.1-.7 2.2-1.5 2.5-1 .3-1.5 1.8-1.5 7.5h10l-.5-11.5 4 .2c2.2.1 4.4.6 4.9 1.1.4.6.3 1.9-.3 3.1-.6 1.2-1.1 5.6-1.1 9.8-.1 5.9.3 8.2 1.5 9.3.9.8 1.2 1.9.8 2.3-.4.4-2.7 1-5 1.3-3.2.3-4.6 0-5.5-1.3-1-1.3-1-1.7 0-2 .6-.2 1.2-1.8 1.2-3.8 0-2.1-.5-3.5-1.2-3.5s-3.1-.4-9.2-1.5l.7 5.7c.7 5.4.6 5.8-1.5 6.4-1.3.3-3.3.3-4.5 0-2-.5-2.2-1-1.5-3.4.4-1.5.7-7.2.7-12.7 0-5.5.4-10.3 1-10.7.5-.4 2.7-.8 4.8-.8zm29 .1c1.2 0 3.1.3 4.1.7 1.6.6 1.9 1.6 1.8 7.4-.1 3.8.3 7 .8 7.3.5.3 2.8-2 5-5s3.8-6.2 3.5-7c-.3-.9.4-1.9 1.9-2.6 1.4-.5 3.5-.8 4.8-.5 2.2.5 2.3.8 2 10.8-.3 7.3 0 10.9 1 12.5.7 1.3 1.1 2.5.8 2.7-.3.2-2.1.7-4 1-1.9.3-4 .2-4.7-.2-.9-.5-1-2.2-.3-6.7.6-3.3 1-6.9 1-8 0-1.5-1.3-.5-5.5 4-4 4.4-5.3 6.5-4.9 8 .4 1.7-.1 2.1-4.3 2.7-3.4.6-5 .4-5.5-.5-.4-.6-.3-1.7.3-2.2.5-.6.9-5.3.9-10.5 0-5.8-.4-9.9-1.1-10.5-.6-.6-.8-1.6-.5-2.3.4-.6 1.7-1.2 2.9-1.1zm130.7-.1c.3 0 1.5.4 2.8.8 1.7.5 2.3 1.4 2.1 3.2-.1 1.4-.1 4-.1 5.7.1 2.1.7 3.3 1.6 3.3.8 0 2.2-.7 3-1.5 1-1 1.4-2.3 1-3.8-.4-1.2-1.1-2.8-1.5-3.5-.5-.6-.7-1.7-.4-2.2.3-.6 1.4-1 2.5-1s3.2 1 4.6 2.2c2.2 1.9 2.6 2.9 2.1 5.8-.3 1.9-1.2 4.1-1.9 4.7-.7.7-3.3 1.6-10.3 2.9l.3 5.2c.2 4.7 0 5.3-2 5.8-1.3.3-3.2.3-4.3 0-1.8-.5-2-1.3-1.7-7.3.2-3.8 0-9.4-.5-12.6-.6-4.8-.5-6 .7-6.7.8-.5 1.7-.9 2-1zm60.3 0c2 0 4.7.4 6 .9 1.2.5 3.4 2.1 5 3.5 2.2 2.1 2.7 3.5 2.7 7.3 0 2.7-.8 6.4-1.8 8.3-.9 2-3.4 4.4-5.7 5.7-2.2 1.3-5.1 2.3-6.5 2.3-1.4 0-4.4-.9-6.7-2-2.6-1.2-4.9-3.2-5.8-5-.8-1.7-1.5-4.5-1.5-6.3 0-1.7.9-5 1.8-7.2 1.2-2.6 3.1-4.6 5.3-5.7 1.9-1 5.1-1.8 7.2-1.8zm-5.6 12c-.2 3.3.1 6.8 1 8.7 1 2.5 1.9 3.3 3.8 3.3 1.4 0 3.4-.5 4.5-1 1.7-.9 2-2 2-8s-.3-7.3-2.2-9c-1.3-1.1-3.3-2-4.4-2-1.2 0-2.6.6-3.2 1.2-.6.7-1.2 3.8-1.5 6.8zm24.2-12h6.8c3.7 0 8.3.4 10.1 1 1.7.5 3.7 1.9 4.2 3 .6 1.1 1 2.8 1 3.7 0 1-.8 2.6-1.8 3.5-1.6 1.7-1.6 1.9 1.1 3.8 1.6 1.2 2.7 2.9 2.7 4.2 0 1.3-.9 3.4-2 4.8-1.8 2.3-2.5 2.5-22 3l.7-3.8c.4-2 .7-6.6.6-10.2-.1-3.6-.5-8-.8-9.8zm8.6 8.8c.3 1.2 1.2 2.2 2 2.2s2-1 2.6-2.2c.6-1.2.8-2.8.5-3.5-.3-.7-1.7-1.3-3.1-1.3-1.4 0-2.5.6-2.5 1.3 0 .7.2 2.3.5 3.5zm3.7 14c2.4-.2 3.4-.8 3.6-2.3.2-1.1-.5-2.8-1.5-3.7-1-1-2.6-1.8-3.5-1.8-1.4 0-1.8.9-1.8 4 0 3.9.1 4 3.2 3.8zm-414-21.3.3 25.4-4 .5c-2.2.2-4.6.3-5.2.1-.7-.3-1.3-1.1-1.3-2 0-.8.5-1.5 1-1.5.6 0 1-1.8 1-4s-.4-4-1-4c-.5 0-1.8 1.1-2.7 2.5-1 1.3-2.6 3.7-3.5 5.5-1.3 2.1-2.5 3-4.3 3-1.4 0-2.7-.4-3-1-.3-.5.5-2.6 1.6-4.7 1.2-2.1 2.5-4.3 3-5q.9-1.2-1.6-3.8c-1.4-1.3-2.5-3.4-2.5-4.5.1-1.1 1.2-3.2 2.5-4.5 2.3-2.4 3.1-2.5 19.7-2zm-12.7 9c.8 1.4 2.2 2.5 3 2.5 1.1 0 1.5-1.1 1.5-4.5 0-3.8-.3-4.5-2-4.5-1.1 0-2.4.9-3 2-.7 1.5-.6 2.7.5 4.5zM319 52c.8 0 2.5.2 3.8.5 1.4.3 2.2 1.2 2.2 2.4 0 1.4-.7 2.1-2.2 2.2-1.3.1-3.4.1-4.8-.1-1.4-.1-2.8-.7-3.2-1.4-.4-.6 0-1.7.9-2.4 1-.7 2.4-1.2 3.3-1.2z" style="opacity:1;fill:#f17906"/>
</svg>
