<svg version="1.2" xmlns="http://www.w3.org/2000/svg" width="1118" height="218" preserveAspectRatio="xMinYMin">
    <path fill-rule="evenodd" d="M996.1 0c.5 0 1.2 1.7 1.4 3.8.3 2 .5 8.3.5 13.9 0 10 .1 10.3 2.2 10.3 1.3-.1 5-.7 8.3-1.4 3.3-.7 7.2-1.2 8.7-1 1.7.2 2.8 1 2.8 1.9 0 .8-1.7 2.6-3.8 3.9-2 1.3-7.6 4.4-12.5 7-5 2.6-8.7 5.2-8.7 6.1 0 .8 1.1 2.5 2.4 3.7 1.3 1.3 3.5 4.1 4.8 6.3 1.4 2.2 2.8 5 3.2 6.3.4 1.4 0 2.8-.9 3.7-1.3 1.3-1.9 1.3-4.3.1-1.5-.8-3.7-2.8-5-4.5-1.2-1.7-3.4-3.7-5-4.5-2.4-1.3-3-1.3-5.7.3-1.7.9-5.7 5.1-9 9.2-3.4 4.1-7 7.5-8 7.7-1.1.2-2.3-.4-2.8-1.2-.5-1.1 1.1-4.3 4.7-9.8 3-4.6 7-10.3 8.8-12.7 1.8-2.3 4.1-5.3 5-6.5 1.7-2.1 1.7-2 1 1.7-.7 3.6-.6 3.7 2.3 3.7 2.4 0 3.2-.6 4-2.7.7-1.7 3.3-4.1 6.8-6.3 3.4-2.1 5.6-4.1 5.4-5-.2-1.1-1.3-1.4-4-1.3-3 .3-3.8-.1-4.2-1.7-.3-1.2-1.2-1.9-2.2-1.8-.9.2-2 1.4-2.3 2.8-.6 2.5-.8 2.5-11.5 2.8-6.1.1-12.7-.1-14.8-.5-2.1-.4-3.9-1.2-4-1.7-.1-.4 1.7-1.4 4-2.2 2.4-.8 4.6-1.3 5-1.2.5.1 4.4-.2 8.8-.6 6.1-.6 8.5-1.3 10.3-2.9 1.2-1.2 2.2-3.1 2.2-4.2s1.2-6.4 2.6-11.8c1.5-5.3 3-9.7 3.5-9.7zm106.1 24.1c.5-.1.8.7.8 1.6 0 1-1.6 5.6-3.5 10.3-1.9 4.7-3.5 9.3-3.5 10.2 0 1.2 1 2 2.7 2.4 1.6.3 3.9.9 5.3 1.4 1.4.4 4.7 1.4 7.4 2.2 2.7.7 5.4 1.9 6 2.6q1.1 1.3.1 2.2c-.5.6-4.8 1.4-9.5 2-4.7.6-11.1.7-14.2.3-3.1-.5-5.4-1-5.2-1.3.3-.3 2-1 3.7-1.5 1.8-.5 3.2-1.7 3.2-2.5s-.7-1.5-1.5-1.6c-.8-.1-2.1-.2-2.8-.2-.6-.1-1.2-1-1.2-2 0-.9.9-3.4 2-5.5 1.1-2 2-4.4 2-5.2 0-.8-.6-1.5-1.3-1.5-.6 0-3.1 1.8-5.5 4q-4.2 4-4 6.2c.1 1.5-1.4 3.9-4 6.8-2.3 2.5-4.2 5.3-4.2 6.2 0 1.1 1 2 2.7 2.4 1.6.3 4 1.4 5.5 2.5 1.6 1 3.3 1.7 3.8 1.4.5-.3 2.3.7 4 2.2 1.6 1.6 4.3 5.7 5.9 9.3 2.2 4.8 2.7 7 2.1 8.2-.6 1-1.9 1.8-3 1.8-1.2 0-2.7-1.3-3.8-3.1-.9-1.7-3.2-5.1-5-7.5-1.7-2.4-5.1-5.8-7.5-7.4-3.1-2.3-5.3-3-8.5-3-3.5 0-5.2.8-10.5 5-3.4 2.8-6.7 5-7.2 5-.5.1-1.6-.6-2.3-1.5-1-1.2-.6-2.2 2.5-5.6 2.1-2.2 6-5.1 8.8-6.4 2.7-1.2 7.4-4.5 10.4-7.1 3-2.7 5.2-5.4 4.9-5.9-.3-.5-4.4-2.9-9.2-5.3-4.7-2.3-9.1-4.2-9.6-4.2s-2.5-1.4-4.3-3.1c-3-2.9-3.1-3.2-1.5-4.5q1.8-1.5 5-.8c1.8.3 8.3 2.6 25.3 9.3l9-9.4c5-5.1 9.3-9.4 9.7-9.4zM140.1 46c.5 0 .6 1.5.4 3.3-.3 1.7-.7 8.5-1 15-.3 6.4-.2 11.9.2 12.2.5.2 4.4-.7 8.8-2 4.4-1.4 9.2-2.5 10.7-2.5 1.6 0 3 .6 3.3 1.5.3.8-.1 2.2-.8 3.1-.6.9-3.5 3.1-6.2 4.9-2.8 1.8-6.8 4-9 4.8-2.2.8-4.9 1.8-6 2.2q-2 .7.9-1.6c1.7-1.4 2.6-2.9 2.3-3.6-.4-.8-1.6-1-3-.7-1.2.4-2.7.9-3.2 1.1-.5.2-1.8-.4-2.8-1.4-1.4-1.4-1.7-2.7-1.3-5.5.4-2.7.2-3.8-.7-3.8-.6 0-2.1 2.1-3.2 4.7-1.9 4.3-2.6 5-6.9 6.3-2.7.8-5 1.8-5.2 2.3-.2.4.6 1.6 1.8 2.7 1.3 1 3 1.9 3.8 1.9.8 0 1.8.4 2.2.8.4.5.1 2-.7 3.6-1.2 2.2-1.3 3-.3 4.3.7.8 1.8 1.3 2.3 1.1.5-.2 3.5-.1 6.5.3s8 .4 11 0c3.9-.5 7-.3 10.5.8 2.8.8 6.2 2.8 7.8 4.3 1.8 2 2.5 3.4 1.9 4.5-.4.9-1.5 2.1-2.4 2.5-1.2.6-6.2-.4-15.6-3.2-7.5-2.3-15.3-4.4-17.2-4.6-2-.3-5.1.2-7.3 1.1-2.6 1.1-4.3 2.8-5.8 5.9-1.2 2.3-3.1 5.2-4.3 6.5-1.1 1.2-2.4 2.2-2.9 2.2-.4 0-.7-.8-.7-1.7 0-1 .8-3.4 1.7-5.3 1-2 3.4-5.4 5.3-7.7s4.3-5.4 5.2-7c.9-1.5 1.4-3.4 1-4-.4-.7-1.6-1.4-2.7-1.7-1.1-.2-7.2-.9-13.5-1.5-6.3-.7-13-1.4-14.8-1.7-1.9-.2-3.6-1.2-4.2-2.4-.7-1.4-.6-2.4.2-3.3.7-.7 4.4-1.6 8.3-2 3.9-.5 10.1-1.5 14-2.3 3.9-.9 8.4-1.5 10-1.5 1.6 0 3.5-.4 4.2-.7.6-.4 3.7-5.9 6.8-12.2 3.1-6.3 6.6-13.4 7.8-15.8 1.1-2.3 2.4-4.2 2.8-4.2zm882 32c1 .6 2.1 1.6 2.3 2.3.2.6.9 4.8 1.5 9.2.7 4.4 1.6 9.8 1.9 12 .6 3.2 1.1 4 2.7 3.8 1.1-.1 5.7-.7 10.3-1.3 4.5-.5 8.9-.7 9.7-.2.9.4 1.8 1.2 2 1.7.2.5-.3 2-1.1 3.3-.8 1.2-5 4-9.4 6.2s-9.4 4-11.2 4c-2.5 0-2.9-.3-2-1.2.7-.7 1.2-1.6 1.2-2 0-.5-.9-.8-2-.8s-3.3-1.3-5-3c-2.9-2.9-3.1-2.9-6-1.5-1.7.8-3 1.8-3 2.3-.1.4.6 1.4 1.5 2.2.9.8 1.9 3.2 2.3 5.3.4 2 1.2 3.7 1.7 3.7s2.1.6 3.5 1.3c1.4.7 3.7 2.1 5.2 3 2.7 1.6 2.8 1.6 3.6-.5.8-2.2 1.1-2.1 6 3q5.2 5.2 5.2 7.7c0 1.4-.8 2.9-1.8 3.4-.9.4-2.4.6-3.2.3-.8-.3-5.4-3.1-10.3-6.4-4.8-3.2-9.5-5.7-10.5-5.5-.9.1-4.7 4.7-8.4 10.2-5.2 7.7-7.3 10-9 10-1.4 0-2.4-.7-2.5-1.7-.2-1 3.1-7.1 7.3-13.5 4.2-6.5 7.8-12.3 8.1-12.8.2-.6-5.4-1.6-13.8-2.5-11.4-1.2-14.4-1.9-15.3-3.2-.8-1.3-.8-2.3 0-3.5.7-1.1 6-3.3 13.5-5.5 6.8-2.1 13.2-3.8 14.2-3.8s2.4-1.5 3.4-3.7c.9-2.3 1.7-7.3 1.9-12.3.3-6.4.8-8.8 2-9.7 1.1-.8 2.2-.9 3.5-.3zm-800.4 22c4.9 0 10.4.5 12.3 1 1.9.6 3.8 1.6 4.2 2.3.4.6.3 1.9-.1 2.7-.5.8-1.9 1.8-5.6 2.9l.2 39.6 2.3.5c1.2.3 2.8 1.3 3.4 2.2.9 1.4.7 2.1-.7 3.5-1.4 1.5-3.9 1.9-13 2.1-9.9.3-11.3.1-12.5-1.5-.7-1-1.2-2.1-1.2-2.5 0-.5.7-1.5 1.6-2.3.8-.8 2.6-1.5 4-1.5 2 0 2.4-.5 2.4-2.7 0-1.6-.3-4.9-1.5-12.2l-2.5 1.6c-1.4.9-5.2 2.1-8.5 2.8-4.1.8-6.9.9-9 .2-1.6-.5-4.2-2.1-5.8-3.6-1.5-1.4-3.5-4.8-4.4-7.6-1-3.3-1.4-7.3-1.2-11.8.4-6.4.3-6.8-2-7.5-1.3-.4-2.7-1.4-3.1-2.2-.5-.8-.4-2.3.1-3.2.8-1.5 2.4-1.8 10.9-1.8 8.7 0 10.3.3 12 2 1.7 1.7 1.8 2.3.8 3.9-.7 1.1-1.6 2.2-2 2.5-.5.3-.8 2.9-.8 5.6 0 2.8.8 6.6 1.7 8.5 1.5 2.9 2.4 3.5 4.8 3.5 1.6 0 4.5-.9 6.2-2 3-1.8 3.3-2.4 2.8-5.7-.3-2.1-.5-5.3-.5-7 0-2.9-.4-3.4-3-3.8-1.6-.3-3.5-1.4-4-2.5-.8-1.6-.6-2.4 1-4 1.7-1.7 3.3-2 10.7-2zM48 110c.6 0 1.3 1.2 1.6 2.8.4 1.5-.1 5.2-.9 8.2-.9 3-2 7.5-2.6 10-.5 2.5-1.2 5.6-1.5 7-.3 1.4-.8 3.2-1.1 4-.4.8.1 2.3.9 3.3 1.5 1.6 1.9 1.6 7.3.1 3.2-.9 8-1.8 10.8-2.1 2.7-.2 5.6-.2 6.2.1.7.3 1.1 1.2.8 1.9-.2.6-2.8 2.2-5.7 3.4-2.9 1.2-6.9 2.6-8.8 3.1-1.9.6-5.6 1.3-8.3 1.6-4.3.6-4.7.8-4.7 3.4 0 1.5 1.1 5.9 2.6 9.7 1.4 3.8 3.2 9.8 4 13.3.8 3.4 1.2 7.3.9 8.7-.4 2.1-.8 2.3-2.5 1.5-1.3-.7-2.8-3.7-4.6-9.2-1.4-4.6-3-11.7-3.5-15.8-.6-4.1-1.3-7.8-1.5-8.2-.2-.5-.7-.8-1.2-.8-.4 0-3.6 3.4-7.2 7.6-3.6 4.3-7.9 9.3-9.6 11.3-1.7 2-4.1 3.9-5.2 4.4-1.7.5-2.4.2-3-1.5-.7-1.7-.2-3.8 1.6-7.8 1.3-3 4.1-8 6.1-11 2.1-3 4.1-6.3 4.4-7.2.5-1.3-.6-3.2-3.7-6.5-2.4-2.7-7.8-7.3-12-10.3-4.1-3-7.5-5.8-7.5-6.2-.1-.5.2-.8.6-.8.5 0 8 2.4 32.8 10.8l2.2-2.4c1.3-1.3 2.8-4.3 3.3-6.6.6-2.4 2-6.8 3.1-9.8 1.1-3 2.7-6.5 3.5-7.7.8-1.3 1.9-2.3 2.4-2.3zm-31.9 29.3c1.3 1 4.1 3.4 6.1 5.2 2 1.9 4 4.8 4.5 6.6.4 1.7 1.2 3.4 1.8 3.6.5.3 2.2 0 3.7-.6 1.9-.7 3.3-.8 4.3-.1.8.5 1.9.8 2.5.5.5-.3 1-1.3 1-2.2 0-1-.5-2.4-1.2-3.1-1-1-1-1.2-.1-1.2.7 0 1.2-.9 1-2.1-.1-1.6-1.7-2.7-6.2-4.4-3.3-1.2-8.1-3.2-10.8-4.4-2.6-1.1-5.4-2.1-6.2-2.1-.7 0-1.7.6-2.1 1.3-.4.7.3 2 1.7 3zm561.9-25c4.6.2 6.3.8 9.9 3.7 2.4 1.9 4.7 4.4 5.1 5.5.5 1.1 1.2 7.3 1.6 13.7.8 10.8 1.1 11.8 3.1 12.8 1.3.5 2.3 1.9 2.3 3s-1.2 2.8-2.8 3.7c-1.5 1-4.4 1.7-6.4 1.8-2.6 0-4.5-.7-6.5-2.7-2.7-2.5-2.9-2.6-5.8-1.1-1.8.9-5.8 1.6-9.8 1.7-6.5.1-7-.1-9.8-3.1-1.6-1.8-2.9-4.4-2.9-5.8 0-1.4.6-4 1.4-5.7.7-1.8 2.2-4 3.2-4.9 1.1-.9 3.5-1.9 5.4-2.3 1.9-.3 5.9-1.6 8.8-2.9 4.6-1.9 5.3-2.5 5-4.7-.2-1.8-1-2.6-2.8-2.8-2-.3-2.7.2-3.3 2.2-.4 1.4-2.2 3.5-4 4.6-1.7 1.1-4.1 2-5.2 2-1.1 0-2.8-.8-3.8-1.8-1-.9-1.8-2.8-1.7-4.2 0-1.6 1.5-4 4.2-6.7 2.4-2.3 5.4-4.7 6.8-5.2 1.4-.6 5-1 8-.8zm-5.5 27.5c-.3.6-.3 1.9 0 2.7.3.9 1.7 1.5 3.5 1.5q3 0 4-2c.5-1.1 1-3.1 1-4.5s-.6-2.5-1.3-2.5c-.6 0-2.4.8-3.9 1.8-1.6.9-3 2.3-3.3 3zm-311.5-26c8.5.1 17 .5 18.7.7 2 .3 3.7 1.3 4.3 2.5.5 1.1 1 3.7 1 5.8.1 2.2-.5 4.2-1.5 5-.8.6-2.2 1-3 .7-.8-.3-2.1-1.8-2.7-3.5-1.1-2.5-1.8-3-8.3-3l.3 11.3c.3 10.5.5 11.3 2.8 13 1.4 1 2.4 2.7 2.4 4.2s-.9 3.1-2.3 4c-1.2.8-3.8 1.5-5.7 1.5-1.9 0-5.3-.5-7.5-1s-4.6-1.7-5.2-2.7c-1-1.5-.9-2.4.5-4.8s1.7-5.1 1.2-24.5h-2.8c-1.5-.1-3.6.9-4.7 2s-2.8 2.1-3.8 2c-.9 0-1.9-.7-2.2-1.5-.3-.8-.5-3.1-.5-5 0-2 .7-4.2 1.7-5.2 1.6-1.6 3.6-1.8 17.3-1.5zm51.2-.8c1 0 3.4.8 5.5 1.8 2 .9 4.8 3 6.3 4.7 1.4 1.7 3.4 5.6 4.3 8.8.9 3.1 1.7 7.3 1.7 9.2 0 1.9-.5 4.7-1.1 6.3-.5 1.5-2.5 4.2-4.2 6-1.8 1.8-4.6 3.4-6.2 3.7-1.6.3-7.3.6-22 1.1l-3.8-3.5c-2.2-2.1-4.4-5.5-5.3-8.1-.8-2.5-1.4-5.7-1.4-7.2 0-1.6.9-5.2 2-8 1-2.9 3.4-6.7 5.2-8.4 1.8-1.8 4.4-3.7 5.7-4.4 1.3-.6 3.8-.9 5.5-.6 1.7.3 3.8.1 4.6-.4.8-.5 2.3-1 3.2-1zm-11.3 20.3c.1 5.3.6 8.1 2.1 10.5 1.5 2.3 2.7 3.2 4.7 3.2 1.6.1 3.7-.9 4.8-2.1 1.6-1.7 2-3.4 1.9-8.8 0-4.3-.7-7.8-1.9-10.1-1-1.9-2.5-4-3.4-4.7-.9-.7-1.9-1.3-2.3-1.3-.3 0-1.8 1.4-3.3 3.1-2.5 2.7-2.7 3.8-2.6 10.2zM375 115l1.5 3.5c.8 1.9 1.5 4.7 1.6 6.3 0 1.5.4 3.6.8 4.7.7 1.7 1.3 1 4-4.2 1.7-3.5 3.9-6.7 4.8-7.2 1-.5 4-1.3 6.8-1.6 2.9-.5 6.5-.3 8.5.3 1.9.6 4.2 1.8 5 2.8 1.4 1.5 1.2 1.8-1.3 3.5-2.7 1.9-2.7 2.1-2.7 22.9l3 1c1.6.5 3.5 1.9 4 3 .8 1.5.6 2.5-.8 4.1-1.2 1.6-3.2 2.3-7.2 2.6-3 .3-7.4 0-9.8-.6-2.5-.7-4.4-1.8-4.7-2.8-.3-1 .2-2.8 1-4 1-1.6 1.5-4.7 1.5-9.5-.1-6.7-.2-7.1-1.6-5.3-.8 1.1-2.6 5.5-3.9 9.8-1.8 5.6-3.2 8.1-5 9.2-2.2 1.3-2.8 1.3-4.7.1-1.3-.8-3.4-4.1-4.8-7.3-1.4-3.3-3-6.2-3.5-6.4-.5-.2-1.1 1.4-1.3 3.6-.2 3.2.3 4.4 2.3 6.3 1.5 1.3 2.3 2.9 2 4-.3.9-1.5 2-2.8 2.4-1.2.4-4.6.8-7.4.8-4.3 0-5.5-.4-6.3-2-.8-1.6-.6-2.4 1-4 1.1-1.1 2.3-2 2.8-2 .4 0 .6-5.5.5-12.3-.3-11.1-.5-12.3-2.3-13.2-1.1-.5-2.3-1.6-2.5-2.2-.3-.7.6-2.4 2-3.8 2.2-2.3 3.2-2.5 19.5-2.5zm50.3.1c4.4-.1 6.1.3 7.7 1.9 1.9 1.9 1.9 2.1.3 5-1.7 2.9-1.7 3.1.5 7.5 1.2 2.5 2.5 4.5 3 4.5.4 0 1.9-2.3 3.5-5 2.6-4.9 2.7-5.1.9-7-1.1-1.1-1.7-2.6-1.5-3.5.1-.8 2.1-2 4.2-2.6 2.2-.5 5.2-.8 6.8-.5 1.5.3 3.4 1.2 4.1 2.1 1.1 1.3 1.4 1.3 3.5 0 1.3-.9 4.5-1.5 7.7-1.5 3 0 6.4.6 7.5 1.3 1.7 1.2 2.7 1.1 7-.6 3.5-1.3 6.2-1.8 8.8-1.3 2.1.3 5.2 2 7.2 3.9 2.4 2.1 4.2 5.2 5.6 9.2 1 3.3 1.9 6.7 1.9 7.5 0 .8-.7 3.9-1.5 6.8-.9 3.2-2.9 6.8-5.2 9.3-2.2 2.3-5.7 4.7-8.3 5.6-3.4 1.3-5.4 1.4-8.3.7-2.1-.5-4-.7-4.3-.4-.2.3-.4 2-.4 3.8 0 1.7.5 3.2 1 3.2s1.2.7 1.5 1.5c.3.8-.4 2.4-1.5 3.5-1.3 1.3-3.9 2.2-7.7 2.6-3.5.4-6.7.2-8-.5-1.3-.6-2.3-2-2.3-3.1s.9-2.6 2-3.2c1.8-1.2 2-2.4 2-14.8 0-7.4-.3-16.4-.6-20-.5-5.8-.9-6.7-3.5-8.2-2.8-1.7-3-1.7-5.4 0-1.4.9-2.8 2.4-3.1 3.2-.3.8-1.7 4.7-3.1 8.5-1.4 3.8-5.1 12.2-8.4 18.5-4.8 9.6-6.7 12.2-11.1 15.8-4.2 3.4-5.8 4.2-7.8 3.7-1.4-.4-3.5-1.3-4.7-2.1-1.3-.8-2.6-2.6-2.9-4.1-.4-1.6-.3-3.9.2-5.3s2.3-3.1 3.9-3.9c2.5-1.1 3.4-1.1 5.5 0 1.4.7 2.8 1.5 3.3 1.6.4.2 1.5-1.2 4.2-6.6l-5.2-10.3c-2.8-5.7-5.9-12-6.7-14-.9-2.1-2.5-4.3-3.6-4.8-1.3-.7-1.9-1.7-1.6-3.2.3-1.5 1.6-2.7 3.8-3.5 1.8-.6 5.9-1.2 9.1-1.2zm50.3 14.9c.4 14.2.5 14.6 3.4 16.3 1.6.9 3.9 1.7 5 1.7s2.5-.9 3-2 1-3.2 1-4.7c0-1.6-.4-5.6-.8-9-.6-4.4-1.3-6.3-2.3-6.3-.8.1-3.2 1-5.3 2.1zm62.3-14.4c2 .2 5 .6 6.8.9 1.8.2 3.6 1.2 4.1 2.2.6 1.1.6 2.5-.1 3.7-.5 1.1-1.1 7.1-1.1 13.4-.2 11.3-.2 11.3 2.6 13.2 1.5 1.1 2.7 2.8 2.7 3.9s-.9 2.5-2 3c-1.2.6-5.2.7-10.5.3-8.1-.7-8.6-.9-9.1-3.3-.4-1.7-.1-2.8 1-3.5.8-.5 1.6-1.8 1.6-2.7 0-1-.3-1.8-.7-1.8-.4 0-2.3.5-4.3 1-1.9.5-5.3.7-7.5.3-2.4-.4-5.3-1.9-7.2-3.7-2.3-2.2-3.6-4.6-4.4-8.1-.6-2.7-.8-6-.5-7.2.5-1.8.2-2.3-1.4-2.3-1.1 0-2.9-.9-4-2-1.5-1.5-1.7-2.4-1-4 .9-1.8 2-2 10.8-2 7.8.1 10.1.4 11.6 1.8 1.7 1.6 1.9 1.6 3 0 .7-1 2.3-2.1 3.7-2.6 1.3-.5 4-.7 5.9-.5zm-14.1 12.6c.1 2.6.8 4.2 2.4 5.2 1.2.9 3.5 1.5 5 1.5 2.6 0 2.7-.1 2.7-5.5 0-5-.2-5.5-2.5-6-1.3-.3-2.5-.9-2.5-1.5 0-.5-.4-1-.8-1-.5 0-1.7.8-2.7 1.8-1.2 1.2-1.8 3.1-1.6 5.5zm84-12.8c2.5.4 10.6 1.1 18 1.4 12.7.6 13.4.7 15.3 3.1 1.4 1.7 1.8 3.3 1.3 5-.3 1.4-1.2 3.5-2 4.8-1 1.6-2.3 2.1-4.2 2-2.2-.2-3-1-3.8-3.5-.6-2.1-1.6-3.3-2.7-3.3-1.6 0-1.8 1.2-1.8 11.3 0 10.7.1 11.3 2.5 13.7 1.4 1.4 2.6 3.3 2.6 4.3-.1.9-1 2.2-2.1 2.7-1.1.6-6 1-11 1-7.6 0-9.3-.3-11-2-1.5-1.5-1.7-2.4-1-4 .6-1.1 2-2.3 3.3-2.6 2.1-.6 2.2-1 1.5-6.8-.4-3.3-.8-8.2-.8-10.8 0-4.1-.2-4.8-2-4.8-1.1 0-2.4.9-3 2-.5 1.1-1.9 2.5-3 3-1.5.8-2.4.6-4-1-1.4-1.4-2-3.3-1.9-6.5 0-3.5.6-5.2 2.6-7.2 2.3-2.3 3-2.5 7.2-1.8zm259.6-.4c1.1 0 3.4.3 5 .9 1.7.5 3.4 1.6 3.8 2.5.4.8.5 2.2.2 3-.2.8-.9 1.5-1.5 1.5-.5 0-1 2-1 4.5 0 3.4.4 4.5 1.5 4.5.9 0 3.3-2.3 5.4-5.2 2.2-2.9 5.2-6.5 6.8-8 1.5-1.4 4-2.9 5.3-3.3 1.8-.4 3.4 0 5.3 1.5 1.8 1.3 2.7 3 2.8 4.8 0 1.5-.8 3.6-1.9 4.7-1.4 1.5-2.9 2-6.5 1.8-4.2-.3-4.8 0-5.7 2.2-.8 2.2-.5 2.9 2.8 5.9 2.2 2 4.2 5 5 7.5.7 2.3 2 4.4 3 4.8.9.3 2.5 1.2 3.5 2 1.5 1.1 2.1 1.1 4.2-.4 2.4-1.7 2.5-2.1 2.5-14.5 0-12-.1-12.8-2-13.3-1.1-.3-2-1.3-2-2.5 0-1.1.6-2.2 1.3-2.4.7-.2 4.4-.7 8.2-1.1 4.7-.5 7.8-.4 9.3.4 1.2.6 2.3 1.9 2.3 2.9 0 .9-.7 2.4-1.6 3.2-1 1-1.5 3.2-1.5 6.8 0 2.9.4 5.4.8 5.6.4.2 3.3-2 12.2-10.4l-2.7-1.3c-1.5-.8-3.1-2.1-3.5-3-.5-1.1-.2-2.2.8-3.2 1.2-1.1 3.9-1.5 10.5-1.5s9.3.4 10.4 1.5c1.4 1.4 1.3 1.9-.5 5.3-1.6 3-2 5.6-2 14.2 0 9.4.2 10.6 2 11.8 1.2.7 2 2.3 2 3.7 0 1.5-.8 2.9-2 3.5-1.1.6-4.8 1.1-8.3 1.3-4.5.1-6.8-.2-8.1-1.3-.9-.8-1.6-2.3-1.6-3.2 0-1 .7-2 1.5-2.3 1.2-.4 1.5-2.1 1.5-13.5l-4.1 3.3c-2.2 1.8-5.2 4.2-6.7 5.4-2.5 2-2.6 2.4-1.4 5.2 1.1 2.8 1 3.4-.8 5.1-1.6 1.7-3.1 2-8.8 1.8-3.8-.2-7.5-.8-8.2-1.5-1.2-1-2.1-1-4.5.2-2 1.1-4.4 1.3-7.5.9-2.4-.3-5.3-1-6.2-1.5-1-.5-3.1-3.7-4.6-7.1-1.6-3.5-3.7-7-4.6-7.8-1.1-1-2-1.1-2.6-.5-.5.6-.5 3.7.2 8 .9 6.4.8 7.1-.8 8.3-1.1.7-5 1.2-9.6 1.2-6.4 0-8.1-.3-9.8-2-1.5-1.5-1.7-2.4-1-4 .6-1.1 1.8-2.2 2.8-2.5 1.4-.4 1.8-1.8 1.9-7.7.1-4 .5-9.5.9-12.3.6-5 .6-5-2.7-6-2.1-.6-3.5-1.7-3.7-3-.2-1.1.2-2.4.8-3 .6-.5 3.5-1.3 6.3-1.6 2.9-.3 6.1-.7 7.2-.8zm-195 1.1c3.9 0 8.1.3 9.4.7 1.3.3 3 1.6 3.8 2.9 1.2 2 1.1 2.4-1.1 4.5-1.4 1.2-2.5 3.2-2.5 4.5 0 1.2.4 2.4.9 2.7.6.3 1.9-.5 3-1.7 1.1-1.3 3-3.8 4.3-5.7 1.2-1.9 3.8-4.6 5.7-5.9 2.6-1.7 4.3-2.2 6.5-1.7 1.7.3 3.5 1.1 4.2 1.8.6.7 1.4 2.2 1.7 3.5.5 1.6-.2 3-2.4 5.2-2.6 2.6-3.5 2.9-6.7 2.4-3.4-.5-3.8-.3-4.5 2-.7 2.2-.2 3.2 3.3 6.4 2.4 2.1 4.6 5.4 5.3 7.6.7 2.5 2.1 4.3 3.9 5.2 1.5.8 2.7 2.2 2.7 3.2 0 .9-.8 2.5-1.7 3.5-1.3 1.3-3.3 1.8-8 1.8-5.2-.1-6.4-.4-7.3-2.1-.5-1.1-1-3.3-1-5 0-1.6-.5-4.2-1.2-5.6-.7-1.4-2.5-3.2-4-4-1.5-.8-3.2-1.2-3.8-.9-.5.3-1 2.3-1 4.5s.5 4.8 1 5.8c.7 1.2.6 2.3-.3 3.6-.9 1.5-2.6 1.9-8.2 2.1-3.8.1-7.6-.1-8.4-.4-.7-.3-1.7-1.4-2.2-2.3-.6-1.3 0-3.1 2.2-6.5 2.7-4.4 3-5.5 2.9-22.3l-3.5-1c-1.9-.5-3.9-1.8-4.4-2.7-.7-1.2-.6-2.3.2-3.4.7-.9 1.9-1.9 2.7-2.2.9-.3 4.7-.5 8.5-.5zm105.7.5c10.1.3 19.1 1 20.1 1.5 1.1.5 3 .3 5.2-.7 2-.8 6.5-1.5 10.5-1.5 4.9 0 7.5.5 8.5 1.5.9.8 1.5 1.9 1.6 2.3 0 .4-.9 2-2 3.5-1.6 2.1-2 4-1.8 8.2.1 3 .5 5.5.7 5.5.3 0 3-2.4 6-5.4 3.9-3.9 5.3-5.9 4.8-7-.4-.9-1.2-1.6-1.8-1.6-.5 0-1-.9-1-2 0-1.2 1-2.4 2.5-3 1.4-.5 5.7-1 9.5-1 4.9 0 7.5.5 8.5 1.5.9.8 1.2 2.1.9 2.8-.4.7-1.4 2.1-2.3 3.1-1.2 1.4-1.7 4.6-2 13-.3 10.3-.2 11.3 1.8 13.4 1.7 1.7 1.9 2.7 1.1 4.2-.8 1.7-2 2-7.5 2-3.5 0-7 .3-7.7.6-.7.3-2.1-.1-3-1-1.7-1.5-1.7-1.7.2-4.8 1.5-2.4 2-5.1 2-17.3l-13.5 13.3 2.3 2.6c1.5 1.7 2 3.2 1.5 4.3-.4.9-1.8 2-3 2.5-1.3.4-5.2.8-8.8.8-5.1 0-6.9-.4-8.5-2-1.1-1.1-2-2.4-2-3 0-.5 1.3-2.4 2.8-4.2 2.7-3.1 2.7-3.4 2.4-13.7-.2-6.7-.8-10.9-1.5-11.3-.6-.4-1.7-.8-2.4-.8s-1.3.7-1.3 1.5-1.1 2.6-2.4 4c-1.4 1.4-2.9 2.5-3.5 2.5-.6 0-2.2-1.1-3.6-2.5-1.3-1.4-3.3-2.4-4.2-2.2-1.5.2-1.8 1.6-2 10.5-.2 9.3-.1 10.5 2 13.2 1.9 2.6 2.1 3.3 1 5.5-.7 1.4-2.3 2.8-3.5 3.1-1.3.3-5.4 0-9.3-.5-4.8-.7-7.3-1.6-8.2-2.8-.6-1-1-2.3-.7-3 .2-.7 1.6-1.6 5.7-2.8l-.7-11c-.4-6.6-1.2-11.3-1.9-11.7-.6-.4-2-.8-2.9-.8-1 0-2.1 1-2.6 2.3-.5 1.2-1.5 2.5-2.3 2.9-.7.4-2.4 0-3.6-.7-1.3-.8-2.3-1.1-2.4-.7 0 .4 0 1.8.1 3.2.1 1.4-.6 5.2-1.6 8.4-1.3 4-3 6.9-5.4 9.1-2.5 2.3-5.5 3.6-11 5-6.6 1.6-8.1 1.6-13 .5-3.4-.8-6.8-2.5-8.9-4.4-1.9-1.7-4-4.5-4.7-6.3-.8-1.8-1.4-5.4-1.4-8 0-3.3.9-6.5 2.8-10.3 1.8-3.6 3.9-6.1 6.2-7.5 2.9-1.6 5.3-2 13.5-1.9 9 0 10.5.3 14.8 2.7 2.6 1.5 5.2 3.6 5.7 4.7.6 1.1 1.5 1.8 2 1.5.6-.3 1-1.8 1-3.5 0-1.6.9-3.8 1.9-4.9 1.8-1.8 3.2-1.9 20.3-1.4zm-50.2 20.1c0 2.9.5 6.1 1 7.2.7 1.4 2 2 4.5 2 3.2 0 3.6-.3 4.5-3.7.6-2.1 1-5.5 1-7.5 0-2.1-.4-4.7-1-5.8-.5-1.1-2.3-2.7-4-3.5-1.6-.8-3.4-1.5-3.9-1.5-.4 0-1.1 1.7-1.4 3.8-.4 2-.6 6.1-.7 9zM140 143.9c.5 0 1.6.7 2.4 1.5.9.9 1.3 2.3.9 3.3-.4.9-1.8 3.7-3.3 6-1.4 2.4-4.5 7.4-6.8 11-2.4 3.7-4.3 6.9-4.3 7.2 0 .3 3.7 1.1 8.3 1.7 4.5.7 9.2 2 10.5 2.8 1.2.8 2.2 2.4 2.2 3.5s-.5 2.2-1.2 2.4c-.7.1-3.3-.3-5.8-1.1-2.4-.7-7-1.4-10.1-1.5-4.5-.2-6.1.1-7.7 1.7-1.6 1.5-2.4 4.1-3.2 10-.5 4.4-1.2 10.3-1.4 13-.3 2.8-.6 5.7-.6 6.5-.1.8-.3 2.5-.5 3.8-.3 1.4-1.2 2.2-2.5 2.2-1.1 0-2.2-.8-2.5-1.7-.3-1-.5-8.3-.4-16.3.2-11.7 0-14.5-1.2-14.8-.7-.1-3.4.9-5.9 2.3-2.4 1.4-5.3 3.1-6.4 3.8-1.1.7-5.6 3.5-10 6.3-4.4 2.7-8.6 5.3-9.3 5.7-.7.4-1.2.2-1.1-.3 0-.6 6.7-7.6 14.7-15.6 11.1-10.9 14.5-14.9 14-16.2-.4-.9-2.1-5.5-3.9-10.2-1.7-4.7-3.8-9.8-4.6-11.5-.8-1.6-1.3-3.1-1.1-3.2.1-.2 2.9 2.9 6.2 6.9 3.3 4 7 8.2 8.3 9.5 1.2 1.3 2.8 2.3 3.5 2.3.7-.1 2.7-2 4.6-4.3 1.8-2.3 6.5-7 10.3-10.4 3.8-3.5 7.3-6.3 7.9-6.3zm-28.5 28.8c.2.7-1.4 3-3.6 5.2-2.3 2.4-3.8 4.6-3.5 5.5q.5 1.5 2.8.9c1.2-.3 4-1.6 6.2-2.9 2.2-1.2 4.4-2.3 4.8-2.4.4 0 1.2-.1 1.7-.1.6 0 1.7-1.4 2.6-3.2.8-1.8 1.5-3.8 1.5-4.5-.1-.7-.6-1.6-1.2-1.9-.7-.3-1.7-.1-2.2.5-.6.6-2 1.1-3.1 1.1s-2.5-.4-3.1-1c-.7-.7-1.4-.6-2.2.3-.6.7-.9 1.8-.7 2.5z" style="fill:#f17906"/>
</svg>
