<svg version="1.2" xmlns="http://www.w3.org/2000/svg" width="460" height="88">
  <path fill="#f8d0ba" d="M0-1h461v89H0V43.5z" />
  <path fill="#fff" d="M288.4 15.1c23.2 0 57.9.4 77.3.7 34.8.7 35.2.7 37.2 3 2 2.1 2.8 2.2 16.9 2.2 12.8-.1 14.9.2 16.5 1.7q1.9 1.8 1.3 4.3c-.4 1.8 0 2.9 1.4 3.8 1.1.6 2 2.3 2 3.7 0 1.4-.4 2.7-1 3-.5.3-1 2-1 3.8.1 1.7-.5 3.7-1.2 4.4-.7.7-2.8 1.6-4.5 2q-3.3.8-2.3 1.8c.6.5 1 2.2 1 3.8 0 2.2-.9 3.2-4.5 5.2-2.9 1.6-6.1 2.5-9 2.5-2.7 0-4.3.4-4 1 .3.5 2.2 1 4.3 1 2 0 4.5.6 5.4 1.3 1 .7 1.7 1.5 1.8 2 0 .4-1.3.7-3 .7-1.6 0-7.2.7-12.2 1.5-7.1 1.1-23.2 1.6-67.8 2.1-32.2.4-79 .7-104 .7-25 .1-76.5 0-114.5-.1-37.9-.2-72.4.1-84 1.1L39 69.4c-1.4-2.7-2-2.9-8.6-3.4-4.2-.3-7.8-1.1-8.8-2-1-.9-1.6-2.5-1.4-4 .2-1.4 1.3-3 2.8-3.7 1.4-.7 2.5-1.7 2.5-2.3 0-.5-.1-1.5-.2-2-.2-.5-1.4-1.2-2.8-1.5-1.5-.3-2.8-1.4-3.1-2.8-.4-1.2-.4-3 0-4 .3-.9 1.8-2.3 3.3-3 1.5-.6 2.9-2 3-3 .2-.9-.6-2.5-1.7-3.5-1.1-.9-2-2.8-2-4.2 0-1.4.8-3.3 1.8-4.3 1.3-1.3 3.3-1.8 8.2-1.7 4.3 0 6-.3 5-.9-.9-.6-1.2-1.5-.7-2.5.5-1.2 2.3-1.6 7.5-1.6 3.7-.1 11.2-.5 16.7-1s49.4-1.2 97.5-1.6c48.1-.4 87.7-.8 87.9-1 .2-.2 19.4-.4 42.5-.3z" />
  <path fill="#f17906" d="M74.3 29c.9 0 3.5.6 5.7 1.3q4 1.2 4 3c0 .9.5 1.9 1 2.2.6.3 1-.8 1-5.5h10.8c7 0 11.3.4 12.5 1.2 1.2.8 1.7 2.2 1.5 3.8-.2 1.4-1 2.6-2 2.7Q107 38 107 36c0-1.1-.5-1.8-1-1.5-.5.3-1 0-1-.5s-.9-1-2-1c-1.9 0-2 .5-1.4 10.3.5 7 1.1 10.4 2 10.9.8.5 1.2 1.3.9 1.8-.3.5-3.4 1-7 1-3.7 0-6.5-.4-6.5-1 0-.5 1-1.2 2.3-1.5 2.1-.4 2.2-.7 1.5-5.7-.4-2.9-.8-7.4-.8-10.1 0-4.3-.2-4.7-2.5-4.7-1.8 0-2.5.5-2.5 2 0 1.2-.7 2-1.7 2-1 .1-2.3.8-2.8 1.6-.6.8-1.8 1.3-2.7 1-1-.4-1.8-1.5-1.8-2.6s-.6-2.9-1.2-3.9c-1.1-1.5-1.9-1.7-4.3-1-1.7.5-3.8 1.9-4.8 3.1-1 1.3-1.8 3.9-1.7 6 0 2.1.7 5.4 1.5 7.3 1.3 3 2 3.5 4.8 3.5 1.7.1 4.4-.8 6-2 1.5-1.1 2.9-2 3.2-2 .3 0 .4 1 .3 2.2-.2 1.7-1.7 3-5.3 4.7-4.4 2.1-5.4 2.3-8.7 1.3-2.1-.7-5.1-2.3-6.8-3.7-2.5-2-3-3.3-3-6.8 0-2.3.6-5.8 1.4-7.7.8-1.9 2.2-4.3 3.3-5.2 1-.9 3.1-2.4 4.8-3.2 1.7-.9 3.8-1.6 4.8-1.6zm203.2.6c1.6.3 3.8 1.3 4.9 2.2 1.4 1.3 1.7 2.8 1.5 6.5-.3 3.6 0 5.2 1.4 6.5 1 .9 1.8 2.5 1.7 3.4 0 1-.8 3-1.7 4.4-1 1.5-3 3.3-4.5 4-1.6.8-4.8 1.4-7.3 1.4-3.5 0-5.1-.6-7-2.5-1.4-1.4-2.5-3-2.5-3.5s.5-2.1 1-3.5c.8-1.9 1.6-2.4 3.8-2.3 2.4.3 2.7.7 2.7 4 0 3.5.2 3.8 2.8 3.8 1.8 0 3.2-.8 4.2-2.5.8-1.4 1.3-3.4 1-4.5-.3-1.4-1.6-2.2-4-2.5-1.9-.3-3.5-1.1-3.5-1.8 0-.6 1.3-1.8 3-2.5 2.2-.9 3-1.9 3-3.7 0-2.2-.4-2.5-3.3-2.5-1.8 0-3.8.6-4.5 1.2-.7.7-1.2 2.1-1.2 3 0 1.1-.8 1.8-2 1.8-1.7 0-2-.7-2-4.3 0-4.2 0-4.2 4.7-5.3 2.7-.7 6.2-1 7.8-.8zM46 30.7c2.5.2 5.4.9 6.5 1.4 1.1.5 2.8 2.3 3.8 3.9 1 1.8 1.7 5 1.7 8 0 2.7-.4 5.9-1 7-.5 1.1-2.9 2.9-5.2 4-2.4 1.1-6.3 2-8.8 2-3.4 0-5.4-.6-8.2-2.7-2.2-1.6-4.2-4.3-4.9-6.3-.6-1.9-.9-5.1-.5-7 .3-1.9 1.6-4.5 2.8-5.7 1.3-1.2 3.9-2.8 5.8-3.6 2-.8 5.4-1.2 8-1zm102.9-.7c4.2 0 9.1.4 10.9 1 2.3.7 3.4 1.8 3.8 3.7.4 2 0 3.6-1.5 5.5-1.3 1.8-1.7 2.8-.8 2.8.6 0 2 .8 3 1.8 1 .9 1.8 3.1 1.8 4.7s-.8 3.7-1.8 4.6c-1.4 1.3-4.3 1.8-12.2 2-7.7.3-10.5.1-10.8-.9-.1-.6.5-1.4 1.5-1.8 1.5-.4 1.7-1.6 1.4-9.7-.3-7.7-.7-9.4-2.3-10.7-1.1-.8-1.7-1.8-1.3-2.3.4-.4 4.1-.7 8.3-.7zm25.5.5c3.4.3 6.3.9 6.6 1.2.3.2-.4 1.1-1.5 1.9-1.8 1.3-1.9 2.1-.5 12.4l4.9-6.3c3.1-4 4.3-6.3 3.5-6.5-.8-.1-1.4-.7-1.4-1.2 0-.6 1-1.2 2.3-1.4 1.2-.2 3.3-.3 4.7-.1 1.4.2 3.4.4 4.5.4 1.8.2 1.8.3.3 1.4-1.4 1-1.6 2.7-1.2 11.2.2 6.7.8 10.2 1.6 10.7 1 .6 1 1-.2 1.8-.8.5-3.4 1-5.7 1-2.4 0-4.3-.5-4.3-1s.4-1 1-1 1.1-3.7 1.3-8.5c.1-4.7 0-8.5-.3-8.5s-3.1 3.2-6.4 7.2c-5 6.2-5.6 7.4-4.3 8.3.9.5 1.7 1.7 1.7 2.5 0 1.2-.6 1.3-3.2.7-1.8-.4-4.6-.7-6.3-.7-2.6-.1-2.8-.2-1.3-1.3 1.1-.8 1.7-2.6 1.8-5.2 0-2.2-.3-6.8-.7-10.2-.6-4.6-1.2-6.4-2.5-6.8-1-.3-1.5-1-1.1-1.6.4-.8 2.6-.9 6.7-.4zm39.2.1c9.8.1 12.1.4 12.9 1.7.7 1.2.6 2-.2 2.9-1.1 1.1-1.5 1.1-2.5 0-.7-.7-2.5-1.2-6.8-1.2v10c0 9.2.2 10 2 10.5 1.1.3 2 .9 2 1.5s-2.8 1-6.5 1c-5.1 0-6.5-.3-6.5-1.5 0-.8.4-1.5 1-1.5s1-4 1-20h-2.5q-2.5 0-3 2c-.3 1.1-1.1 1.9-1.7 1.7-.7-.2-1.4-1.4-1.6-2.8-.2-1.3-.1-2.9.1-3.4.3-.6 5.3-1 12.3-.9zm23.2 0c.6.2 1.6.4 2.2.4.6 0 1 .4 1 1 0 .5-.7 1-1.5 1-1.1 0-1.4 1-1 7.3l5.1.1c4.3.1 5.6.6 7.8 2.8 1.5 1.6 2.6 4 2.6 5.5.1 1.6-.7 3.8-1.7 5-1.5 1.9-3.2 2.4-9.8 2.9-4.4.4-9.2.4-10.7 0-1.6-.3-2.8-1.1-2.8-1.6s.9-1.2 2-1.5c1.9-.5 2-1.1 1.4-10.3-.5-7.3-1.1-9.9-2.3-10.7-1.3-.8-.8-1.1 2.4-1.6 2.2-.3 4.6-.4 5.3-.3zM303 30c1.4 0 2.5 1.2 3.6 3.7.8 2.1 2.7 7.2 4.1 11.3 1.4 4.1 3.1 8.1 3.9 8.7.8.7 1.2 1.8.9 2.3-.3.5-2.7 1-5.5 1-2.7 0-5-.5-5-1s.7-1.3 1.5-1.8c1.3-.6 1.3-1.1.3-3.4-1.1-2.4-1.9-2.8-9.8-2.8v8h-4.5c-2.5 0-4.5-.5-4.5-1 0-.6.9-1.5 2-2 1.2-.6 2.7-3.2 3.6-6.3.9-2.8 3-7.8 4.6-11 2-4.1 3.4-5.7 4.8-5.7zm77.3.2c5 .2 6.2.6 6.4 2 .2 1.1-.3 1.8-1.2 1.8-1.2 0-1.4.8-.9 3.7.4 2.1.8 4 1 4.3.2.3 1.6-.9 3.1-2.7 1.5-1.7 3.7-4.4 4.8-5.9 1.9-2.5 2.5-2.7 11.8-3 6.4-.3 10 0 10.5.7.4.6 0 1.5-.8 2-1.3.7-1.1 1.5 1 5.4 1.4 2.5 2.8 4.5 3.3 4.5.4 0 1.8-2.1 3.2-4.8 1.4-2.6 2.5-4.8 2.5-5 0-.1-.7-.2-1.5-.2s-1.5-.5-1.5-1c0-.6 1.8-1 4-1s4 .4 4 1c0 .5-.3 1-.7 1-.5 0-2.8 3.9-5.3 8.6-2.5 4.8-6 10.2-7.7 12.1-1.8 1.8-4.2 3.3-5.3 3.3-1.1 0-2.7-.2-3.5-.5-.9-.3-1.5-1.7-1.5-3.5 0-2.4.4-3 2.3-3 1.2 0 2.8.5 3.5 1.2.9 1 1.5 1 2.5.1.9-1 .3-3-3-9.8-3-5.8-4.9-8.5-6-8.5-1 0-2.4.9-3 2-.9 1.4-2 1.8-3.5 1.5-1.7-.4-3 .3-4.8 2.7-2.3 2.8-2.4 3.2-.7 3.9.9.5 2.6 1.9 3.7 3.1 1.1 1.3 2 3.2 2 4.3 0 1.1.9 2.6 2 3.2 1.7 1.1 1.8 1.6.8 2.8-1 1.2-2.2 1.4-4.8.9-1.9-.4-3.8-1.2-4.2-1.8-.4-.6-.8-2-.8-3.1s-1.2-3.2-2.5-4.8c-1.4-1.5-2.9-2.7-3.5-2.7-.6 0-1 1.7-1 3.7 0 2.1.5 4.4 1.2 5 .7.7 1.1 1.5.8 1.7-.3.3-2.9.6-5.9.8-3.7.2-5.5-.1-5.7-1-.2-.6.3-1.2 1.1-1.2 1.2 0 1.5-1.6 1.3-9.5-.2-7.2-.7-9.8-1.8-10.5-.8-.5-1.9-1.1-2.4-1.2-.6-.2-.6-.9-.2-1.6.5-.9 2.7-1.2 6.9-1zm-256 .8c1.8 0 2.8 1.4 5.4 7.7 1.8 4.3 3.3 8.4 3.3 9 0 .7 1.4 2.8 3.1 4.5 2.2 2.5 2.7 3.5 1.7 4-.7.4-2.4.8-3.8.8s-3.6-.3-5-.6q-2.5-.6-1.2-1.3c.9-.4 1.2-1.7.8-3.9-.6-3-.8-3.2-5.1-3.2-4 0-4.5.3-4.7 2.2v4.5c.2 2-.3 2.3-3.1 2.3-1.7 0-3.9-.5-4.7-1-1.3-.8-1.3-1 0-1.4.8-.3 2.5-2.6 3.7-5.1 1.3-2.5 2.2-5.2 2.1-6.1-.1-.8 1-4 2.5-7 2.1-4 3.4-5.4 5-5.4zm211.4.1c4.3-.1 7.3.3 7.3.9 0 .5-.7 1.3-1.6 1.7-1.3.7-1.5 2.4-1.2 10.1.2 6.9.7 9.5 1.8 10.1.9.6 1.2 1.5.7 2.5-.5 1.1-2.1 1.6-5.2 1.6-2.5 0-5.2-.2-6-.5-.8-.3-1.5-1.2-1.5-2s.7-1.7 1.5-2Q333 53 333 49c0-3.1-.4-4-1.8-4-.9 0-2.3 1-2.9 2.2-.7 1.3-1.8 4.1-2.5 6.3-1.1 3.4-1.8 4-4.3 4.3-1.7.2-3.5-.2-4-.8-.7-.8-.5-1.5.5-2.3.9-.7 2.2-2.8 3-4.7.7-1.9 1.7-4.1 2.2-4.8.5-.7 0-2-1.2-3.5-1.1-1.2-2.1-3.1-2.1-4.2s.6-2.6 1.3-3.2c.7-.7 2.6-1.7 4.3-2.2 1.6-.5 6.3-1 10.2-1zm22-.1c6.6 0 10.2.4 11.1 1.2.7.7 1.2 2.3 1.2 3.5 0 1.3-.5 2.5-1 2.8-.6.3-1 1.2-1 2s1.1 2.4 2.5 3.5c1.8 1.4 2.5 3 2.5 5.5 0 2.7-.6 3.9-2.8 5.2-2.1 1.4-5 1.8-13.1 1.8-7.5 0-10.5-.3-10.8-1.3-.1-.6.6-1.4 1.7-1.7 1.8-.5 2-1.3 2-10 0-5.3-.4-9.7-1-10-.6-.3-1-1-1-1.5 0-.6 3.9-1 9.7-1z" />
  <path fill="#fff" d="M44.3 33c.9 0 2 .8 2.4 1.8.4.9 1.3 2.3 1.9 3.1.9 1 1.1 3.4.8 7-.3 3.1-.8 5.9-1.2 6.2-.4.4-1.9.9-3.4 1.3-2.1.5-3.3.1-4.8-1.7-1.5-1.6-2-3.6-2-7.2 0-3.7.6-5.7 2.3-7.7 1.2-1.5 3-2.8 4-2.8zm110 1.3c.4.1.7.5.7.9V38q0 2-2 2c-1.1 0-2-.7-2-1.5s.6-2.2 1.3-3c.6-.8 1.5-1.3 2-1.2zm177.4-.2c.8-.1 1.3 1.2 1.3 3.1 0 2.9-.3 3.3-2.5 3-1.8-.1-2.6-.8-2.7-2.6-.1-1.4.4-2.7 1.3-2.9.7-.3 2-.6 2.6-.6zm28.3.9c1.1 0 2.3.5 2.7 1.1.5.6.1 1.5-.7 2-.8.5-2.1.9-2.8.9-.6 0-1.2-.9-1.2-2q0-2 2-2zm-236.7 6.2c.5.2 1.2.9 1.3 1.5.2.7-.3 1.3-1.1 1.3s-1.4-.7-1.4-1.6c.1-.9.6-1.4 1.2-1.2zm178.2-.2c.8 0 1.5.7 1.5 1.5s-.7 1.5-1.5 1.5-1.5-.7-1.5-1.5.7-1.5 1.5-1.5zm57.7 3c.7 0 2.3.7 3.5 1.7 1.2 1 2.2 2.8 2.3 4 0 1.3-.7 2.5-1.5 2.8-.8.3-2.6.5-4 .5-2.1 0-2.4-.4-2-2.3.3-1.2.5-3.2.5-4.5 0-1.2.6-2.2 1.2-2.2zm-206.4 1c.4 0 1.5.6 2.4 1.3 1 .7 1.7 2.2 1.8 3.4 0 1.9-.5 2.3-3 2.3-1.7 0-3-.5-3-1.3 0-.6.3-2.2.6-3.5.3-1.2.9-2.2 1.2-2.2zm86.2 0c.6 0 1.7.2 2.5.5s1.5 1.4 1.5 2.5.6 2.3 1.2 2.6c1 .5.9.9-.2 1.5-.8.5-2.5.9-3.8.9-1.9 0-2.2-.5-2.2-4 0-2.2.4-4 1-4z" />
</svg>
