<svg width="400" height="120" version="1.2" xmlns="http://www.w3.org/2000/svg">
  <path fill="#f8d0ba" d="M0 0h400v120H0V60z"/>
  <path fill="#fff" d="M321.6 11.6c11.1.1 11.2.1 12.6 1.5.8.8 1.6 2.2 2.1 5.1l7.5.3c4.2.2 12.3.5 18.1.8 6.9.3 11.1.7 12.2 1.2.9.5 2.1 1.6 2.5 2.5.5 1.2.6 2.3.3 3.4-.3.9-1.2 2.1-1.9 2.7-.9.7-3.1 1.3-5.7 1.6-2.4.3-6.1.7-8.3.9-3.2.3-3.8.5-3 1 .5.4 1.3 1.4 1.8 2.4.4.9.7 2.3.4 4.2l-1.9-1.2c-1.6-1.1-2.6-1.3-12.3-1.3l-.1-4.7c0-4.6.1-4.7 1.5-4.7.9 0 1.4-.3 1.4-.9 0-.4-.1-1.2-.3-1.7-.2-.6-1.4-.8-5.6-.8-3.5 0-5.5.2-6 .7-.3.4-.6 1.2-.6 1.7 0 .7.6 1.1 3.7 1.7l-.5 6.3c-.3 3.5-.6 8-.6 10.1-.1 3.4-.2 3.7-1.5 3.9q-1.4.3-1.4 1.5c0 .9.5 1.2 2.5 1.5 1.5.2 5.3.2 14.4-.4l-.4 1.6c-.2 1.2 0 1.7.8 2.1.7.3 1.4 1.4 1.8 2.4.3 1 .5 2.3.5 2.9 0 .5-.7 1.7-3.1 4.2l2 .4c1.1.2 3.6.3 5.5.3 3.2 0 3.8.2 5.4 1.7 1.2 1.1 1.7 2.1 1.7 3.1-.1.8-.8 2.2-1.7 3.1-1.4 1.5-2 1.7-6.5 2-4.5.3-5 .5-5.3 1.7-.2.7-.3 1.3-.2 1.3.1.1 4 .7 8.6 1.3 4.6.7 8.9 1.4 9.6 1.8.6.3 1.4 1.4 1.9 2.4.6 1.4.6 2.2.1 3.7-.3 1.1-1.1 2.4-1.7 2.9-.9.8-2.4.9-23.4.5l.4 1.4c.3.7.4 1.5.4 1.9 0 .3.8 1.5 1.8 2.8 1.4 1.8 1.7 2.6 1.4 4-.2.9-.9 2.3-1.6 3-1 1-2.2 1.4-5.8 1.8-2.5.2-36.9.5-76.5.5-39.6.1-93.6-.2-120.1-.5-26.4-.3-57.3-.8-68.6-1.1-11.2-.3-25.7-.9-32.1-1.2-6.4-.3-12.6-.9-13.7-1.2-1.1-.4-2.4-1.2-3-1.8-.5-.7-1-2-1-2.9 0-1.3-.5-2.1-1.7-3.2-1.6-1.2-1.8-1.7-1.7-3.8 0-1.3.2-2.7.3-3 .2-.3 1.1-.9 2-1.4 1.1-.5 4.4-1 8.6-1.3 3.9-.2 7.3-.7 7.7-1 .4-.3.9-1.2 1.4-3.4l-9.3.2c-5.2.1-10.2-.1-11.5-.4-1.5-.4-2.5-1.1-3-2-.4-.8-.7-2.1-.7-2.9 0-.8.2-1.9.6-2.6.3-.6 1.5-1.5 2.7-2 1.1-.5 5.6-1.4 9.8-2 4.2-.6 7.9-1.2 8.1-1.4.2-.1.4-1 .4-2 0-1.4-.2-1.7-1.4-1.7-.8 0-2.2-.4-3.1-.8-1-.5-2-1.4-2.3-2-.3-.6-.6-1.8-.6-2.6s-.5-2.4-1.1-3.7c-1-1.9-1.1-2.5-.5-4.1.6-1.7.5-1.9-1.1-3.3-1-.7-2.6-2.6-3.5-4.1-1-1.5-1.9-3.3-2.1-4-.1-.7-1.2-1.8-2.3-2.4-1.2-.6-2.3-1.5-2.5-2-.3-.4-1-2-1.6-3.4-.7-1.4-1.2-3.2-1.2-4 0-.8.7-2.5 1.5-3.8 1-1.5 2.3-2.6 3.3-3 1-.3 3.1-.7 4.9-.9 2.1-.2 3.5-.8 4.5-1.7 1-1 2.5-1.5 5.1-1.9 2.1-.3 9.7-.9 17.1-1.2 7.4-.4 28.6-.7 47.5-.7 21.7 0 44 .4 88.2 2l46.1-1.5c25.3-.8 51.8-1.7 58.9-2 7-.3 17.8-.4 24-.4z"/>
  <path d="M342.8 24.6c5.4.1 5.7.2 5.8 1.4.2 1-.1 1.3-1.4 1.4-1.5.2-1.5.2-1.5 9.2l3.7-.1c2-.1 4.6 0 5.6.1 1.1.2 2.8 1.1 3.7 1.9 1.5 1.5 1.6 1.8 1.4 4.8-.2 2.7-.5 3.6-1.9 5-1 1-2.6 2-3.7 2.3-1.1.3-4.6.6-7.7.8-3.1.1-6.8.1-8.3-.1-2-.3-2.5-.6-2.5-1.5q0-1.2 1.4-1.5c1.3-.2 1.4-.5 1.5-3.9 0-2.1.3-6.6 1.1-16.4l-1.9-.3q-1.8-.4-1.9-1.4c-.1-.6.1-1.3.4-1.5.2-.2 3-.3 6.2-.2z"/>
  <path fill="#fff" d="M347.1 38.7c.3 0 1.6.5 2.8 1.1 1.3.6 2.4 1.4 2.6 1.7.1.3.1 1.3 0 2.1-.2.9-.7 2-1 2.5-.4.5-1.7 1.1-5 1.7v-4.6c0-2.6.3-4.5.6-4.5z"/>
  <path fill="#f17906" d="M67.6 35c.1.9.1 2.7 0 4-.2 1.2-.3.4-.3-1.7 0-2.2.1-3.3.3-2.3zm8.8 31c3.7 0 8.5.3 10.8.6 2.3.3 4.5.9 4.9 1.3.4.3.7 1.4.7 2.3 0 1-.4 2.2-.8 2.8-.4.6-1.2 1-1.8.8-.5-.1-1.2-.5-1.5-1-.2-.5-.6-1.3-.7-1.9-.3-.8-.9-.9-5.6-.6-2.9.2-5.4.5-5.6.6-.1.1.1 1.9 1.4 7.8l5.3-.1c4-.1 5.8.1 7.3.9 1.3.6 2.4 1.8 3.1 3.2.8 1.6 1 2.9.8 4.3-.2 1.1-.8 2.7-1.3 3.6-.5.9-2 2.1-3.2 2.7-1.9.9-3.5 1.1-10.3 1-4.3 0-8.2-.1-8.6-.2-.4-.2-.7-.8-.7-1.4 0-.6.4-1.3 1-1.4.8-.3 1-1.5 1.4-9 .3-4.8.4-9.3.3-10.1-.1-1.1-.6-1.4-2.5-1.8-1.2-.2-2.5-.8-2.9-1.4-.4-.6-.5-1.3-.4-1.7.2-.4.8-.8 1.3-.9.5-.2 3.9-.3 7.6-.4zm152.8.1c.5.1 1.5 1.2 2.2 2.4.7 1.3 2.7 6.7 4.4 12 1.8 5.3 3.7 10.2 4.3 10.8.6.6 1.1 1.6 1.1 2.1 0 .6-.5 1.1-1.2 1.3-.7.2-3.2.1-5.6-.1-3-.4-4.3-.7-4.4-1.3-.1-.5.5-1.2 1.3-1.6 1.2-.6 1.4-1 1.1-2.6-.2-1-.4-2.2-.6-2.8-.1-.6-.6-.9-1.1-.7-.4.1-2.4.3-7.7.3l-.6 2.4c-.3 1.3-.4 3-.3 3.7.2.7.1 1.7-.3 2.1-.5.6-1.6.9-3 .9-1.3 0-2.8-.3-3.3-.7-.6-.4-1-1.2-.9-1.9.1-.6.8-1.2 1.6-1.4.7-.1 1.5-.7 1.7-1.1.2-.5 1.1-3.1 2-5.7.9-2.7 2.6-7.3 3.8-10.3 1.2-2.9 2.7-6 3.4-6.7.6-.7 1.6-1.2 2.1-1.1zm-88.9.5c.9 0 2.3.3 3.1.7.9.5 1.8.6 2.4.3.8-.4 1.2-.1 2 1.1.5.8 1.1 2.7 1.2 4.1.1 1.9 0 2.7-.7 3.3-.5.4-1.4.6-1.9.4-.6-.1-1.5-1.3-2-2.5-.6-1.3-1.6-2.6-2.3-3-.7-.3-2.2-.5-3.3-.3-1.1.2-2.8.9-3.9 1.7-1.1.7-2.4 2.1-3 3.2-.7 1.3-1 3.2-1.1 5.4 0 2.6.3 3.8 1.2 5 .6.9 1.5 1.6 2 1.6s.9.2 1 .6c.1.3 1.8.7 7.5 1.3l2-2.1c1.1-1.2 2.5-2.1 3-2.1.8 0 1 .5 1 2 0 1.4-.5 2.6-1.6 3.8-.8 1-2.2 2.1-3.1 2.5-.8.5-3.3 1-5.4 1.2-2.8.2-4.8.1-7.1-.6-2-.6-4.1-1.7-5.4-2.8-1.5-1.3-2.4-2.8-2.9-4.7-.5-1.7-.7-3.8-.5-5.2.2-1.4 1-3.8 1.7-5.4.7-1.6 2.2-3.8 3.4-4.8 1.4-1.2 3.7-2.4 6.5-3.3 2.5-.8 5.2-1.4 6.2-1.4zm19 .3c3 .2 8.6.3 12.4.3 5.5-.1 7.1.1 7.8.8.5.4.8 1.1.7 1.5-.1.4-.8 1-1.5 1.3-1.2.6-1.2 1-1.5 9.8-.2 8.8-.2 9.3.9 9.8.7.4 1.1 1.1 1 1.9-.1.7-.8 1.6-1.6 2-.9.4-2.3.6-4 .4-1.4-.2-2.8-.6-3.3-1-.4-.4-.7-.9-.7-1.1 0-.3.6-1 1.3-1.6 1.3-1.2 1.3-1.3.6-5.9-.4-2.5-.7-6.7-.7-14H159l.5 2.7c.2 1.5.4 6 .4 9.9 0 7.2 0 7.3 1.3 7.3.7 0 1.6.3 2 .7.5.6.5.9-.3 1.6-.5.4-2 .9-3.3 1-1.2.2-3.2.1-4.4-.1-1.2-.2-2.2-.7-2.2-1.1 0-.4.4-1.1.9-1.5.8-.8.9-2.4.6-21.1l-1.6-.7c-.9-.4-1.6-1-1.7-1.4 0-.4.6-1 1.3-1.3.8-.3 3.8-.4 6.8-.2zm157.6-.1c1.1.2 3.3.6 4.9.9 1.5.3 3.7 1.1 4.8 1.8 1.1.7 2.5 2.2 3.3 3.3.7 1.1 1.4 3 1.6 4.3.3 1.7-.1 3.6-1.5 7.6-1.3 3.9-2.3 5.9-3.6 7.2-1.6 1.5-2.3 1.8-6.1 2.1-2.6.2-5.1.1-6.5-.3-1.3-.3-3.4-1.3-4.8-2.1s-3.2-2.4-3.9-3.5c-.7-1.1-1.6-3-2-4.2-.4-1.7-.4-3 .1-5.1.3-1.6 1.4-4.2 2.5-5.7 1.4-2.2 2.7-3.3 5.5-4.7 2.9-1.5 4.2-1.9 5.7-1.6zm-200.4.4c2.8-.1 3 0 3.6 1.5.3.8.5 2 .3 2.7-.2.6-.6 1.5-.9 2-.4.6-.8.7-1.6.2-.5-.4-1.1-1.3-1.3-2-.3-1.3-.6-1.4-3.7-1.2-1.9 0-4.2.2-5.2.4-1.8.3-1.9.4-1.6 2.4.2 1.2.5 2.7.6 3.4.2 1.2.6 1.3 3.1 1.3 2.6 0 2.9-.1 3.6-1.5.4-1 1.1-1.6 1.8-1.6 1 0 1.2.4 1.3 3.1.1 2-.1 3.5-.6 4.3-.7 1-1 1-2.5.4-.9-.3-2.6-.8-6.1-1.3l-.7 4.4c-.4 3.2-.4 4.6 0 4.9.4.2 2.8.4 5.5.4 3.2 0 5.1-.3 5.6-.7.4-.4.7-1.2.6-1.9 0-.6.5-1.5 1-2.1.9-.8 1.2-.9 2.1-.3.9.6 1 1.2.8 3.9-.2 1.7-.7 3.4-1.1 3.8-.6.6-3.6.8-11.1.9-9.4.1-10.5 0-11.4-.9-1-1-1-1.1.1-2 1.1-.9 1.2-1.7 1.2-10.8 0-9.6-.1-9.8-1.3-10.1-.9-.2-1.3-.6-1.2-1.6.2-1.2.4-1.2 8.1-1.5 4.4-.2 9.4-.4 11-.5zm143.1.3c1.5.1 4 .3 5.7.4 1.7.2 3.1.6 3.3 1 .2.4.2 1.7-.1 2.9-.3 1.5-.8 2.1-1.5 2.1-.5 0-1.4-.7-2-1.7-.5-.9-1.4-1.7-1.8-1.7h-4c-.7 0-.9 1.1-.8 6.4 0 3.5-.2 7.3-.4 8.4-.2 1.1-.2 3 0 4.1.2 1.7.6 2.2 1.5 2.2.6 0 1.5.3 2 .8.6.7.7 1 .1 1.7-.5.7-1.7.9-5 .8-2.3 0-5-.2-6-.4-.9-.2-1.7-.8-1.7-1.2 0-.4.9-1 1.9-1.3 1.5-.3 1.8-.7 1.9-2 0-.9 0-5.4-.1-10.1 0-4.7-.2-8.7-.4-9-.2-.2-1.9-.2-3.7 0-2.4.4-3.3.7-3.2 1.3 0 .5-.4 1.2-.9 1.6-.7.6-.9.5-1.3-.3-.2-.5-.4-2-.4-5.5l7.1-.3c3.9-.2 8.3-.2 9.8-.2zm16-.4c4 0 6 .2 6.5.7.5.6.5.9-.3 1.6-.5.5-1.4 1.1-1.8 1.2-.6.1-1 1-1.1 2.2-.1 1.1 0 2.8.5 5.7l10.5-.3.3-8-1.8-.5c-1.1-.3-1.9-.9-1.9-1.2 0-.3 1.9-.8 4.3-1 2.3-.3 4.9-.4 5.8-.2.8.2 1.6.8 1.6 1.2 0 .5-.5 1-1 1.2-.9.2-1 1.2-1 10.8 0 9.6 0 10.5 1 10.5.5 0 1.1.4 1.2.8.2.5.2 1.2 0 1.5-.1.3-2.2.5-4.5.5-2.4 0-4.7-.1-5.1-.2-.5-.2-.9-.7-.9-1.2s.5-1 1.1-1.1c1.1-.3 1.2-.8 1.2-9.4l-5.3-.2c-3.4-.1-5.4 0-5.6.4-.2.4-.3 2.6-.1 4.9.2 2.4.7 4.7 1.1 5.1.4.5.5 1.2.3 1.6-.2.4-1.9.8-3.8 1-1.9.1-4.3 0-5.4-.2-1.2-.3-2-.8-2.1-1.4-.1-.7.3-1.1 3.2-1.5l-.3-4.2c-.2-2.2-.1-6.5.3-9.5.3-3 .5-6 .3-6.7-.1-.7-.6-1.2-1-1.2s-1.2-.4-1.8-.7c-.6-.5-.9-1.1-.6-1.5.2-.5 2.1-.7 6.2-.7zm-75.5.6c5.6 0 10.5.2 10.9.4.4.2.7.9.6 1.6q-.2 1.1-1.9 1.4c-1.5.3-1.7.5-1.6 1.7.1.8.3 5.3.4 18.7l1.7.2c1.3.1 1.7.4 1.7 1.3 0 1-.3 1.1-5.5 1.1-3.7 0-5.7-.2-6.2-.7-.6-.6-.5-.8 1.9-1.6l-.2-9.9c-.1-5.7-.4-10.1-.8-10.4-.3-.2-1.2-.4-2.1-.4-1.5 0-1.6.2-1.9 3.3-.2 1.8-1.2 6-2.3 9.3-1.5 4.9-2.4 6.6-4 8.4-1.8 1.9-2.6 2.3-4.3 2.3-1.7 0-2.4-.3-3.3-1.6-.9-1.1-1.1-2-.9-3.2.2-1 .7-2.1 1.1-2.5.4-.5 1.3-.6 2.2-.4.9.2 1.7.8 1.9 1.5.1.6.5 1.1.8 1.1.3 0 1.3-1.2 2.2-2.7.8-1.5 1.8-4.2 2.2-6.1.4-1.9.7-4.8.7-6.4.1-2.9 0-3-1.7-3.4-1-.3-1.9-.7-2-.9-.1-.2-.1-.8 0-1.3.3-.7 1.9-.8 10.4-.8z"/>
  <path d="M237.3 24.4c1.1.1 2.7.5 3.7.9.9.3 2.7 1.4 3.9 2.3 1.2.9 2.7 2.5 3.4 3.4.6.9 1.3 2.7 1.6 4 .2 1.2.1 4.2-.1 6.5-.4 3.2-.9 4.6-1.8 5.6-.8.8-2.7 2-4.3 2.7-2.1 1-4.1 1.4-6.4 1.4-2.1 0-4.6-.5-6.4-1.2-1.7-.6-3.7-1.5-4.4-1.9-.8-.3-1.7-1.4-1.9-2.3-.3-1-.8-2.5-1.2-3.4-.3-1-.6-3.2-.6-5 0-2.7.2-3.6 1.7-5.6 1-1.4 3.3-3.6 5.1-4.9 1.8-1.3 3.9-2.5 4.5-2.6.6-.1 2.1-.1 3.2.1zm-151.5.1c1.3 0 4.1.6 6.2 1.4 2.1.8 4.6 2 5.4 2.6.9.6 2.1 2.1 2.7 3.3.9 1.7 1.2 3.4 1.2 6.4 0 2.8-.4 5-1.1 6.4-.5 1.3-1.9 3-2.9 3.8-1.1.8-2.8 1.9-3.8 2.4-1.1.5-2.6 1-3.5 1-.8 0-1.8-.3-2.1-.5-.3-.3-2.1-.7-4.1-.8-2.4-.1-4-.5-5.1-1.4-.9-.6-2.3-2.5-3.2-4.2-1.2-2.4-1.6-3.9-1.5-6.7 0-1.9.4-4.5.9-5.6.4-1.2 1.4-2.8 2.1-3.5.7-.8 2.4-2.1 3.8-3 1.8-1.2 3.3-1.6 5-1.6zm45.2.1c.2-.1 1.1.1 1.9.4.8.4 1.4 1 1.4 1.7s-.5 1.3-1 1.4c-.9.3-1.1 1.5-1.9 19.4l1.4 1c.8.5 1.5 1.4 1.5 1.8 0 .7-1 .9-4.6 1-2.5.1-5.1.2-5.8.2-.9 0-1.3-.4-1.4-1.3-.1-.8.3-1.5 1-1.9.9-.4 1.1-.9.8-2.9-.2-1.4-.1-3.4.2-4.5.3-1 .8-4.3 1.2-12.5H123c-1.4 0-3.9.2-8.3.7l.3 17.8 1.7 1.4c.9.8 1.7 1.8 1.7 2.2 0 .4-.6.8-1.3 1-.7.1-3.4.2-5.9 0-2.5-.1-4.7-.2-4.9-.3-.3 0-.5-.5-.5-1.2 0-.6.5-1.2 1.2-1.4.9-.2 1.1-.7 1.1-3 0-1.4-.2-5.9-.7-16.9l-1.8-.8c-1-.5-1.8-1.3-1.8-1.7 0-.8 2-.9 13.4-1.2 7.4-.2 13.6-.3 13.8-.4zm18.1.6c3.3.2 6.9.7 8.1 1 1.2.3 2.9 1.3 4 2.2 1.6 1.4 1.8 2 1.7 4.1-.1 1.7-.5 2.9-1.4 3.8-.7.7-3 1.8-5 2.4-2.1.6-4.4 1.1-5.1 1.1-.8 0-1.8.2-2.2.4-.5.3-.7 1.7-.6 4.4.2 3.5.3 4 1.3 4.2.7.1 1.3.4 1.6.6.2.2.1.7-.2 1.2-.3.6-1.7.9-4.6 1.1-2.3.1-5.1-.1-6.2-.4-1.4-.3-2-.8-2-1.6 0-.7.5-1.1 1.5-1.2 1.4-.2 1.4-.3 1.8-6.3.3-3.3.5-8.2.4-15.5h-1.7c-.9 0-1.8-.2-2-.5-.1-.4.7-.6 2-.6s2.4-.2 2.5-.5c.1-.2 2.8-.2 6.1.1zm30.4-.5c3.9.2 4.9.5 6.8 1.9 1.3.9 3 2.8 3.9 4.1 1.1 1.8 1.7 3.7 1.9 6 .2 1.9.1 4.3-.2 5.4-.4 1.1-2 3.2-3.7 4.9-2.1 2-3.9 3.2-6.1 3.9-2.2.7-3.9.9-5.4.6-1.3-.2-3.5-.9-4.9-1.6-1.4-.7-3.3-2.4-4.4-3.7-1-1.3-2-3.1-2.1-4-.2-.8-.6-2.6-.9-4-.4-1.6-.3-3.1.1-4.8.3-1.3 1.1-3.1 1.6-3.9.6-.8 2.1-1.9 3.5-2.4 1.4-.6 3.2-1.4 3.9-1.8 1-.5 2.9-.7 6-.6zm26 0c5.6.2 10.5.5 11 .6.6.2.9 1.2.9 3.7 0 2.9-.2 3.4-1 3.3-.5-.1-1.4-.9-1.9-1.9-.9-1.6-1.1-1.7-9.9-2l.5 7.1 4.3.5c2.3.3 5.5 1 7.1 1.6 1.9.6 3.1 1.5 3.6 2.5.3.8.7 2.1.7 3 0 .8-.7 2.5-1.5 3.7-.7 1.2-2.3 2.5-3.5 3.1-1.6.7-4.2 1-10.7 1.1-6.4.2-8.7.1-9.2-.5-.6-.6-.6-.9 0-1.5.4-.4 1.1-.7 1.7-.7q1 .1 1.2-1.5c.1-.9-.1-3.1-.3-5-.2-1.9-.4-5.8-.4-8.7-.1-5-.1-5.3-1.5-5.8q-1.4-.6-1.3-1.8c0-1.2.1-1.2 10.2-.8zm116.4 0c11.3.2 12.4.3 12.9 1.3.3.6.3 2.1 0 3.6-.4 1.7-.8 2.6-1.5 2.7-.7.1-1.3-.6-3-4.5l-6.2.4V38c-.1 8.3.1 9.8.8 9.8.5 0 1.4.3 2.1.8.7.5 1.3 1.2 1.3 1.6 0 .5-1.6.7-5.8.8-3.2.1-6.3 0-6.9-.1-.5-.2-.9-.7-.9-1.1 0-.5.8-1.3 3.9-2.6V29h-3c-2.8 0-3 .1-3.8 1.8-.5 1.1-1.2 1.9-1.7 1.9-.6 0-1-.9-1.3-2.8-.4-1.9-.3-3.3.1-4.2.6-1.2.6-1.2 13-1zM56 25.2c7.2.1 13.5.4 13.8.6.6.3.6.5 0 1.2-.3.5-1.1.9-1.7.9-.9 0-1 .8-1 9.4 0 8.3.2 9.4 1.1 10.3.6.6 1.5 1.3 2.1 1.7 1 .5 1 .7.3 1.5-.8.9-1.7 1-6.3.7-3-.2-5.6-.3-5.8-.3-.3 0-.5-.3-.4-.7 0-.4.3-1.1.8-1.6.5-.6.9-3.6 1.3-9.7.4-4.8.8-9.2 1-9.6.2-.7-.7-.9-5.3-1.3-3-.2-5.6-.3-5.6-.3-.1.1.1 1.8.4 3.8.3 2.1.5 5.9.3 8.6-.2 2.6-.5 5.3-.7 6-.3.8.1 1.4 1.7 2.4 1.1.7 1.9 1.5 1.8 1.8-.2.3-2.7.6-5.9.6-3.5 0-5.9-.3-6.6-.7-.6-.4-.9-1.1-.7-1.4.2-.4 1-1 3.2-1.9v-7.8c-.1-4.3.1-8.8.4-10 .4-2 .3-2.2-.8-2.4-.7-.2-1.3-.5-1.4-.7 0-.3.1-.7.4-.9.2-.2 6.4-.3 13.6-.2zm206.6-.1c6.2-.1 7.9.1 10.5 1.1 1.7.7 3.6 1.6 4.2 2.1.5.6 1 1.5 1 2.1 0 .7-.9 2.3-4 6.3l2 2.3c1 1.2 2 2.9 2.2 3.7.1.7-.2 2.4-.7 3.6-.8 1.6-1.6 2.4-3.5 3.3-2.1 1-4.1 1.3-10 1.5-4.1.1-8.1.1-9-.1-1-.3-1.5-.7-1.5-1.5 0-.7.4-1.3 1.2-1.5 1-.2 1.4-.8 1.6-2.1.2-1 .2-5.7 0-19.2h-1.4c-.8 0-1.5-.2-1.5-.5-.1-.3.2-.6.7-.8.4-.2 4.1-.3 8.2-.3zm32.7.1c.5 0 1.6 1.3 2.6 2.7.9 1.4 2.2 3.8 2.8 5.4.6 1.5 1.9 5.1 2.9 7.8 1.1 2.7 1.9 5.5 1.9 6.1 0 .8.4 1.1 1.5 1.1.8 0 1.6.4 1.8.9.3.5.1 1.2-.3 1.6-.5.4-2.3.6-5.4.5-2.6-.1-5.1-.3-5.7-.4-.5-.2-1-.5-1-.9 0-.3.7-.8 1.5-1.1 1.3-.5 1.4-.8 1.1-3.3-.2-1.4-.5-2.8-.8-3.1-.2-.2-1.5-.1-2.9.2-1.4.4-3.7.5-5 .4-1.4-.1-2.7.1-2.9.4-.3.3-.7 1.3-.9 2.1-.2 1.3-.1 1.7 1 1.9.7.1 1.6.6 2 1.1.6.7.5 1-.2 1.7-.6.6-2.1.9-4.3.9-1.8 0-4-.3-4.8-.6-.8-.3-1.3-.9-1.2-1.5 0-.6.7-1.1 1.4-1.2.7-.1 1.9-1 2.6-2 .8-1 2-3.2 2.6-5 .7-1.7 2.6-5.5 4.2-8.5 1.5-3 3.2-5.8 3.7-6.4.5-.6 1.3-.9 1.8-.8z"/>
  <path fill="#fff" d="M88.7 27.6c.8.2 2.1.7 2.8 1.2.7.4 1.7 1.6 2.2 2.6.7 1.4.8 2.8.6 5.6-.2 2.1-.9 5-1.7 6.8-.9 2-1.9 3.4-2.9 3.8-.8.4-1.9.7-2.4.7-.4 0-1.9-.5-5.6-2.2v-5.3c.1-2.9.5-6.2.9-7.3.4-1.2 1.6-3.1 2.7-4.2 1.6-1.7 2.2-2 3.4-1.7zm88.2-.3c.7 0 2 .4 3 .9 1.1.5 2.1 1.2 2.3 1.6.2.3.4 3.6.5 7.2 0 5.9-.2 6.7-1.3 8.4-.7 1.1-1.7 2.2-2.2 2.5-.5.4-1.7.3-3.2-.1-1.9-.4-2.6-1-3.1-2.2-.3-.9-.5-3.7-.4-6.6.2-4.1.6-5.9 1.8-8.4 1.1-2.5 1.8-3.3 2.6-3.3zm59.8 0c.4 0 1.7 1 2.7 2.2 1 1.1 2.2 3 2.5 4.1.4 1.2.5 3.4.3 5.6-.2 2.1-.9 4.8-1.5 6.2-1.1 2.3-1.2 2.4-3.9 2.4-1.4 0-3.2-.4-3.9-.9-.9-.6-1.5-1.8-2-4.1-.5-2.6-.5-4 .1-6.4.4-1.7 1.1-3.9 1.6-4.8.4-1 1.3-2.3 2-3 .6-.7 1.6-1.3 2.1-1.3zm-87.9.6c.3 0 1.8.4 3.3 1 2.1.7 2.8 1.3 3.2 2.7.5 1.5.4 1.9-1 3.2-1 1.1-2.1 1.6-3.4 1.6-1.5 0-1.8-.2-1.9-1.3 0-.7-.2-2.6-.4-4.2-.3-2-.2-3 .2-3zm117.4.8c1.5.2 3.1.8 3.7 1.4.5.5 1 1.2 1 1.5 0 .3-.6 1.1-1.3 1.8-.7.7-2.2 1.6-5.3 2.9l-.4-2.6c-.3-1.5-.4-3.3-.4-4 .1-1.3.2-1.4 2.7-1zm26.3 3.8 3.7 7-3.3.6c-1.8.3-3.4.4-3.5.3-.2-.2.4-2 1.4-4.1zM207 39c.8.2 1.9.6 2.4.8.4.3 1.3.9 1.8 1.4.6.5 1 1.7 1 2.9 0 1.6-.3 2.2-1.8 3.1-1.1.6-2.1 1.1-2.3 1.1-.3.1-1.2-.7-2.1-1.5-1.7-1.5-1.7-1.6-1.1-4.8.6-3.2.6-3.3 2.1-3zm57-.3c.3 0 2.1.8 4.1 1.9 3.3 1.7 3.6 2 3.4 3.5-.1.9-.7 2.2-1.4 2.7-.9.7-2.2 1-6.7 1v-4.6c0-2.6.3-4.5.6-4.5zM317.4 70c.2 0 1.2.5 2.2 1.1 1 .6 2.2 1.7 2.7 2.4.4.7 1.2 2.9 1.7 4.9.5 1.9.9 4.3.9 5.4 0 1-.6 2.9-1.2 4.2-.8 1.8-1.5 2.5-2.7 2.8-.9.2-2.6-.1-4-.6-2.1-.8-2.6-1.4-4.1-4.5-.9-2-1.7-4.4-1.7-5.6 0-1.2.3-2.9.6-3.7.3-.9 1.7-2.7 3-4 1.3-1.3 2.5-2.4 2.6-2.4zm-89.9 5.8c.2.2.7 1.4 1.1 2.8.5 1.3.7 2.8.5 3.2-.2.4-1.2.7-2.2.7-1.8 0-1.9-.1-1.5-1.9.2-1 .7-2.5 1-3.4.4-.9.9-1.5 1.1-1.4zM79 81.9c.2 0 1.8.3 3.7.7 1.8.4 3.5 1 3.8 1.4.3.5.3 1.5-.2 2.6-.3 1-1 2.2-1.5 2.5-.5.4-2.2.7-3.9.8-2.7 0-3-.1-3-1.3 0-.7.2-2.5.4-4s.5-2.7.7-2.7z"/>
</svg>
