<svg version="1.2" xmlns="http://www.w3.org/2000/svg" width="2048" height="2048">
    <path fill-rule="evenodd" d="M346 0h21l.5 14.8c.3 8.1 1.2 23.7 2 34.7.8 11 2.2 23.4 3.1 27.5.9 4.1 3.2 12.4 5.1 18.5 1.9 6 5.1 15 7 20 1.9 4.9 5.1 12.2 7 16 2 3.8 6 11.1 9.1 16 3 4.9 8 12.4 11 16.5 3.1 4.1 11.9 13.8 19.6 21.4 7.8 7.6 17.2 16.4 21.1 19.5 3.9 3.1 11.1 8.2 16 11.2 4.9 3.1 11.8 7 15.2 8.8 3.5 1.7 8.9 3.8 12 4.6 3.2.8 8.5 1.5 11.8 1.5 4.6 0 7.5-.7 12.5-3.1 3.7-1.8 9-5.6 12.4-8.8 3.2-3.1 7.5-8.1 9.6-11.1 2-3 5.6-9.3 8-14 2.3-4.7 5.5-11.9 7-16s4.4-13.8 6.3-21.5c2-7.7 4.5-18.7 5.6-24.5 1.1-5.8 4.1-24.9 6.6-42.5s6.6-41.4 9.1-53c2.4-11.6 5.2-24.4 7.9-36l9.8-.3c7.2-.1 9.7.1 9.7 1 0 .7-2.1 11.7-4.5 24.3-2.5 12.6-6.6 37.2-9.1 54.5-2.5 17.3-5.6 38.3-7 46.5-1.4 8.2-3.6 19.9-5 26-1.3 6.1-3.8 15.5-5.5 21-1.7 5.5-4.2 12.9-5.6 16.5-1.4 3.6-4.1 9.7-6 13.5-1.9 3.8-5.9 10.6-8.8 15-2.9 4.4-7.9 10.7-11.1 14-3.3 3.3-8.2 7.6-10.9 9.5-2.8 1.8-7.7 4.6-11 6.1-3.3 1.6-9 3.3-12.8 3.9-4.4.6-9.4.7-14.5.1-4.2-.5-11.3-2.3-15.7-3.9-4.4-1.5-12.9-5.7-19-9.2-6.1-3.4-14.3-8.6-18.4-11.4-4.1-2.8-13.3-10.5-20.5-17.2-7.2-6.6-17.1-16.5-22-22-4.9-5.4-12.7-15.7-17.4-22.9-4.8-7.2-10.8-17.1-13.3-22-2.6-4.9-6.8-14.4-9.4-21-2.6-6.6-6.1-17-8-23-1.8-6.1-4-14.6-4.9-19-.8-4.4-2-12.5-2.6-18-.5-5.5-1.4-17.7-2-27-.5-9.4-1-21.2-1-26.3zm342.5 0-.8 4.8c-.4 2.6-1.8 12.8-3.1 22.7-1.4 10-3.2 26.6-4 37-.9 10.5-2.1 26.3-2.6 35-.6 8.8-1.3 31.4-1.6 50-.4 20.5-.2 45 .5 61.5.7 15.2 1.9 36.1 2.7 46.5.8 10.5 2.1 25.1 2.9 32.5.9 7.5 2.2 18 3 23.5.8 5.5 2.7 16.6 4.1 24.5 1.4 8 5.9 27.8 10 44 4 16.3 10.5 39.4 14.3 51.5 3.9 12.2 9.3 27.4 12.1 34 2.8 6.7 6.7 14.9 8.6 18.3 1.9 3.4 4.9 7.3 6.7 8.6 1.7 1.3 4.6 2.6 6.2 2.9 1.7.3 5.3.1 8-.4 2.8-.6 8.2-2.5 12-4.3 3.9-1.7 9.7-5 13-7.4 3.3-2.3 6.3-4.2 6.8-4.2.4 0 11.2-10 24-22.2s26.6-25 30.7-28.3c4.1-3.4 9.8-7.6 12.5-9.5 2.8-1.8 7.4-4.4 10.3-5.6 2.8-1.3 8.5-3.3 12.5-4.5 6.7-2 10.4-2.2 51.2-2.9 24.2-.4 62.2-1.2 84.5-1.8 22.3-.6 49.5-1.6 60.5-2.2 11-.6 28.6-1.9 39-2.9 10.5-1.1 28-2.5 39-3.1 11.8-.7 29.4-1 43-.6 12.7.3 27.5 1.2 33 2.1 5.5.8 12.5 2.4 15.5 3.4s7.5 3.2 10 4.9c2.5 1.7 6.6 5.3 9.1 7.9 2.5 2.7 8.2 9.3 12.7 14.8 4.4 5.5 12.9 15.9 18.7 23 5.9 7.2 13.5 15.9 16.9 19.4 4.3 4.5 8.2 7.4 13.1 9.8 3.9 1.8 9.9 4 13.5 4.9 4.5 1.2 8.2 1.5 12 1 3-.4 7.8-1.9 10.5-3.3 2.8-1.5 8.8-6.6 13.5-11.2 4.7-4.7 11.1-12.4 14.2-17.1 3.1-4.6 7.3-12.5 9.3-17.5 2-4.9 5.1-15.3 7-23 1.9-7.6 4.6-20.9 6-29.5 1.4-8.5 4.5-30.5 7-49 2.4-18.4 6.1-46.3 8-62 1.9-15.6 5.3-42.4 7.5-59.5 2.2-17 4.6-37 5.5-44.5.8-7.4 2.2-22.5 3-33.5.8-11 1.9-43.3 2.5-72 .6-31.8 1.5-54.8 3.5-66.5h19l-1 4.8c-.6 2.8-.8 22.7-.6 49.2.1 24.5-.2 53.8-.8 65-.6 11.3-1.8 28-2.7 37-.8 9.1-3 28.9-4.9 44-1.9 15.2-5.7 45.8-8.5 68-2.8 22.3-6.6 52.5-8.6 67-1.9 14.6-4.6 34-5.9 43-1.3 9.1-3.6 22.4-5 29.5-1.5 7.2-4.2 18.4-6.1 25-1.9 6.7-5.8 16.9-8.9 23-2.9 6.1-8.3 14.9-11.8 19.5-3.5 4.7-9.9 11.8-14.1 15.8-4.2 4-10.4 9.1-13.8 11.3-3.5 2.2-8.5 4.8-11.3 5.7-3.6 1.3-8.1 1.7-16 1.7-8.6 0-12.6-.5-18.5-2.4-4.1-1.2-10.2-3.6-13.5-5.3-3.3-1.6-8.2-4.6-10.9-6.6-2.7-2-8.2-7.5-12.2-12.2-3.9-4.6-15.9-19-26.5-31.9-10.7-12.9-21-24.4-22.9-25.7-1.9-1.2-6.9-2.9-11-3.8-4.1-.9-16.7-2.1-28-2.7-14.9-.8-26.6-.7-43 .1-12.4.6-31.3 2-42 3-10.7 1.1-27.1 2.4-36.5 3-9.3.6-35.2 1.5-57.5 2.1-22.3.5-52 1.4-66 1.9-14 .6-33.4.7-43 .4-14.4-.5-19-.3-26 1.1-4.7 1-11.2 3-14.5 4.5-3.3 1.5-9.6 5.4-14 8.8-4.4 3.3-14.1 11.8-21.5 18.8-7.4 7.1-21.8 21-32 31.1-14.9 14.6-19.2 18.3-22 18.8-1.9.4-4.7.2-6.2-.4-2.2-.8-3.6-.7-7 .9-2.4 1.1-7.2 2.7-10.8 3.6q-6.5 1.7-13 1.2c-3.6-.3-8.7-1.5-11.5-2.7-2.7-1.2-6.6-3.5-8.5-5-1.9-1.5-5.6-5.9-8.2-9.7-2.6-3.7-7.4-12.9-10.6-20.4-3.2-7.4-7.5-18.2-9.5-24-2-5.7-5.9-18.1-8.7-27.5-2.8-9.3-7.8-27.5-11-40.5-3.3-12.9-7.3-30.2-8.9-38.5-1.7-8.2-4.1-22.8-5.5-32.5-1.4-9.6-3.2-24.2-4.1-32.5-.8-8.2-2.2-24.6-3.1-36.5-.9-12.1-1.8-40.8-2.1-66-.3-27.7-.1-53.3.6-68 .7-12.9 2.1-34.3 3.1-47.5 1.1-13.2 3.1-32.5 4.5-43 1.5-10.4 2.9-20 3.1-21.2.6-2.2 1-2.3 21.9-2.3zm803.3 0h21.2l.5 5.3c.2 2.9.7 11.1 1 18.2.3 7.2 1.3 22.5 2.1 34 .8 11.6 2.1 26.9 2.9 34 .9 7.2 2.7 17.8 4 23.5 1.4 5.8 3.3 12.8 4.2 15.5.8 2.8 3.1 9.1 5 14 2 5 5.6 13.1 8.1 18 2.4 5 6.6 12 9.1 15.5 2.5 3.6 7.8 9.9 11.7 14 5.1 5.4 8.8 8.3 13 10.3 3.3 1.5 9.3 3.1 13.4 3.7 4.1.5 14.5 1 23 1 11 0 17.3-.4 21.5-1.5 3.3-.9 8.2-2.8 10.9-4.3 2.7-1.4 7.7-5 11.2-7.9 3.5-2.9 9.3-9 12.9-13.5 4-5.1 9-13.2 13-21.3 3.5-7.1 8.7-19.5 11.6-27.5 2.8-7.9 10.1-28.6 16.1-46 6.1-17.3 13.8-40 17.3-50.5 3.4-10.4 6.9-20.3 7.7-22 .8-1.6 1.8-4.5 2.2-6.5.4-1.9 1.2-4 1.9-4.7.8-.9 3.8-1.3 8.5-1.3 6 0 7.3.3 7.7 1.8.3 1-.1 4.9-1 8.7-1 3.9-3.5 13.6-5.7 21.5-2.1 8-6.1 21.3-8.8 29.5-2.6 8.3-6.9 21.6-9.5 29.5-2.6 8-8.5 25.1-13.2 38-4.7 13-10.2 27.4-12.2 32-2.1 4.7-5.5 11.7-7.8 15.5-2.2 3.9-6.7 10.6-10 15s-8.9 10.8-12.4 14.1c-3.5 3.3-9.1 7.8-12.4 10.1-3.3 2.2-7.8 5-10 6.1-2.2 1.1-6.5 2.8-9.5 3.7-3 .9-9.8 2-15 2.5-5.2.5-17.1.5-26.5 0-10.8-.5-19.5-1.5-24-2.7-3.8-1-9.9-3.5-13.5-5.5-4-2.2-9.5-6.7-14.6-11.9-4.4-4.6-10.7-12-14-16.4-3.3-4.4-8.2-12.5-11.1-18-2.8-5.5-7.1-15.1-9.6-21.5-2.4-6.3-5.6-15.5-7-20.5-1.4-4.9-3.5-13.5-4.6-19-1.1-5.5-2.7-17.2-3.5-26-.8-8.8-2.2-26.1-3-38.5-.8-12.3-1.8-28.2-2.2-35.2zm-412.5 63c1 0 3.3.7 5 1.5 1.8.8 3.9 2.6 4.5 4 .7 1.4 1.3 3.5 1.2 4.7 0 1.3-1.6 3.8-7.4 9.1l-.7 31.2 4.3 1.2c2.4.6 6 2.4 8.1 4 2 1.5 4.5 4.4 5.7 6.3 1.1 1.9 2.5 6.9 3.1 11 .9 5.6.9 8.8.1 12.7-.6 3.1-2.3 6.6-3.9 8.5-1.5 1.7-4.5 4-6.7 4.9-2.2 1-4.9 1.9-6 1.9-1.1 0-3.8-.5-6-1.1-2.7-.8-6.2-3.3-10.8-7.8-6-5.9-7-7.4-9.2-14.4-1.4-4.2-2.5-8.8-2.5-10.2 0-1.4.8-4.1 1.7-6.2 1-2 3.6-5.2 9.8-10.7l.4-16.6c.2-10.8 0-17.6-.8-19.8-.8-2.4-.8-4.1.1-7 .9-2.6 2.3-4.2 4.8-5.4 1.9-1 4.3-1.8 5.2-1.8zM899.1 79.1c3.2 0 7.2.7 9.5 1.7 2.2 1 5 3.2 6.3 4.8 1.3 1.6 2.7 4.7 3.3 6.9.6 2.2.7 6.7.3 10-.3 3.3-1.2 6.9-1.8 8-.7 1.1-3.2 3-5.7 4.2-3.1 1.6-6.2 2.3-10.4 2.3s-7.5-.7-11-2.3c-2.8-1.3-7-4.1-9.3-6.3-2.6-2.3-4.7-5.3-5.3-7.4-.5-1.9-.5-4.8-.1-6.5.5-1.7 1.7-4.3 2.8-5.9 1-1.5 3.5-3.8 5.4-4.9 1.9-1.2 5.1-2.7 7-3.4 1.9-.7 6-1.2 9-1.2zM888.6 96c-.3.5.1 1.7.7 2.7.7.9 3.2 2.5 5.5 3.5 2.9 1.2 5.2 1.6 6.9 1 1.5-.4 3-1.5 3.5-2.5.5-.9.9-2.7.9-4 0-1.2-.5-2.8-1.2-3.5-.7-.7-3.1-1.2-5.3-1.2-2.2.1-5.5.7-7.3 1.5-1.7.8-3.4 1.9-3.7 2.5zm487.2-10c.2 0 2 .7 4 1.5 2.1.9 8.5 2.5 14.3 3.6 5.8 1.2 14.8 2.2 20.1 2.3 6.9.1 10 .5 11.3 1.6.9.8 1.7 2.7 1.6 4.2 0 1.6-1 3.7-2.3 4.8-1.2 1.1-4.2 2.3-6.7 2.6-2.5.4-8.1.1-12.5-.6-4.4-.6-12.1-2-17-3.1-5-1.1-10.9-2.9-13.3-4-2.3-1-4.6-2.9-5.1-4.2-.5-1.2-.5-3.1-.1-4.2s1.8-2.6 3.1-3.2c1.3-.7 2.5-1.3 2.6-1.3zm-83.7 1.1c.8-.1 3.2.4 5.2.9 2.2.6 5.3 2.6 7.3 4.7s4.3 5.9 5 8.5c1.1 3.7 1.3 6 .5 9.8-.7 3.4-2.1 6.1-4.3 8.4-1.7 1.8-5 3.9-7.2 4.5-2.9.8-5.1.8-8-.1-2.5-.6-6-3-9.3-6.2-2.9-2.8-6-6.6-6.8-8.4-.8-1.7-1.4-4.6-1.4-6.2 0-1.7.7-4.4 1.5-6 .8-1.7 3.3-4.1 5.5-5.5 2.2-1.4 5.5-2.9 7.2-3.4 1.8-.5 4-1 4.8-1zm-6.5 16 8.4 8.4c3.2-3.1 4.2-4.5 4.2-5 0-.6-1-2.2-2.1-3.8-1.1-1.5-2.3-2.7-2.8-2.7-.4.1-2.3.7-4.2 1.6zm-89.5-6.7c11.5.3 15.9.8 21.5 2.6 3.8 1.2 9 3.3 11.5 4.5 2.5 1.3 7.2 4.3 10.5 6.8s8 7.1 10.4 10.4c2.4 3.2 6.3 9.9 8.7 14.8 2.3 5 5.8 13.7 7.7 19.5 2 5.8 4.5 15.2 5.7 21 1.6 7.6 2.3 14 2.3 23 0 8.2-.6 15.2-1.8 20.5-.9 4.4-3.1 11.8-4.8 16.5-1.7 4.7-5.4 12.2-8.2 16.8-2.7 4.5-6.7 10.2-8.8 12.7-2 2.5-5.8 5.7-8.5 7.2-3.1 1.7-6.1 2.6-8.7 2.5-2.2 0-8.1 1.2-13 2.8-5 1.5-11.7 3.4-15 4.1-3.3.7-10.1 1.3-15 1.2-7.8 0-10.6-.5-20.5-3.9-6.3-2.1-14.1-5.4-17.2-7.4-3.2-1.9-7.7-5.1-10-7.1-2.4-1.9-6.7-6.6-9.6-10.5-2.9-3.8-6.5-10.3-8.1-14.4-1.6-4.1-3.9-12.7-5.2-19-1.9-10.1-2.1-13.6-1.6-29 .4-13.6 1.1-19.8 3-28 1.3-5.8 3.2-12.7 4.1-15.5 1-2.7 3.2-8.1 5-12 1.9-3.8 6.1-10.5 9.5-14.8 3.4-4.2 8.9-9.8 12.4-12.4 3.4-2.5 8.9-5.8 12.2-7.4 3.3-1.6 8.5-3.5 11.5-4.4 4.1-1.1 9.1-1.4 20-1.1zm-25.5 26.3c-2.2 1.2-6.5 4.6-9.5 7.7-3 3.1-7.1 8.2-9 11.4-2 3.1-4.7 9.3-6.2 13.7-1.5 4.4-3.5 11.8-4.4 16.5-1.3 6.1-1.8 13.1-1.9 24.5 0 12.2.4 17.9 1.9 24 1 4.4 3 10.7 4.5 14 1.6 3.7 4.8 8.2 8.2 11.5 3 3 8.1 6.9 11.4 8.7 3.3 1.7 9.1 4.1 13 5.2 3.9 1.2 9.6 2.1 13 2.1 3.3 0 8.9-.7 12.5-1.5 3.6-.9 9-2.5 12-3.6s6.7-2.7 8.2-3.5c1.6-.8 5.7-4.1 9.3-7.4 3.6-3.3 7.6-6.2 9-6.5 2-.4 2.9-1.7 4.6-6.2 1.1-3.2 2.8-8.5 3.7-11.8 1.3-4.5 1.7-10 1.6-22 0-13.1-.4-17.4-2.2-24-1.1-4.4-3.5-12-5.3-17-1.7-4.9-4.8-12.4-7-16.5-2.1-4.1-5.7-9.4-8.1-11.8-2.4-2.4-6.9-5.7-10.1-7.3-3.1-1.6-8.5-3.6-12-4.4-3.4-.8-9.8-1.4-14.2-1.4-4.8 0-10.2.7-13.5 1.8-3 1-7.3 2.7-9.5 3.8zm-402-20.7c1.6 0 3.6.5 4.3 1.2.7.7 1.2 2.7 1.2 4.3 0 1.7-.7 3.8-1.7 4.7-1 .9-8.3 4.6-16.3 8.2-8 3.5-22.2 9.4-31.5 13-9.4 3.6-17.9 6.6-19 6.6-1.1 0-2.8-.8-3.8-1.8-1-.9-1.8-2.9-1.7-4.4 0-1.8 1-3.6 2.7-5.1 1.6-1.2 5.9-3.4 9.8-4.9 3.8-1.5 11.5-4.3 17-6.4 5.5-2 14.9-5.8 21-8.3 6-2.6 11.9-5.3 13-5.9 1.1-.6 3.3-1.2 5-1.2zm600 1c.5 0 2.6 1.1 4.5 2.4 1.9 1.4 6.4 4.2 10 6.3 3.6 2.1 11 5.7 16.5 8.2 5.5 2.4 10.8 5.1 11.8 6 1 .9 1.8 3 1.8 4.6 0 1.7-.8 3.7-1.7 4.5-1 .8-3.1 1.5-4.8 1.4-1.7-.1-9.9-3.5-18.1-7.7-8.3-4.1-17.4-9.3-20.3-11.6-2.8-2.2-5.4-5-5.7-6.1-.3-1.1-.3-2.9 0-4s1.5-2.4 2.7-2.9c1.3-.5 2.7-1 3.3-1.1zm-394.5 2.1c5.5-.1 11.3.6 16.5 1.9 4.4 1.2 11.4 3.9 15.5 6 4.1 2.2 10.1 6 13.2 8.5 3.2 2.5 7.7 6.9 9.9 9.8 2.3 2.8 5.9 8.8 8 13.2 2.1 4.4 4.9 12.3 6.2 17.5 1.4 5.2 3 14.7 3.7 21 .7 6.3 1 14.4.6 18-.3 3.6-1.7 13.3-3.1 21.5-1.4 8.3-3.1 16.6-3.7 18.5-.6 1.9-2.1 5.6-3.4 8.3-1.3 2.6-2.1 5.3-1.8 6 .4.6.3 2.8-.1 4.7-.5 2.3-2.5 5.2-5.9 8.5-2.9 2.8-8.1 6.5-11.6 8.2-3.6 1.8-11 4.4-16.5 5.8-5.5 1.4-14.5 2.8-20 3.2-7.8.5-11.8.2-18-1.2-4.4-1-10.9-3.3-14.5-5.1-4.1-2.1-9.2-6-13.9-10.6-4-4-9.3-10-11.7-13.3-2.3-3.3-6.1-9.8-8.3-14.5-2.1-4.7-5.1-12-6.5-16.2-1.4-4.3-3.3-11.7-4.1-16.5-.9-4.9-1.5-13.6-1.5-19.5 0-6 .7-14.3 1.6-18.5.8-4.3 3.1-11.6 5-16.3 1.9-4.7 4.9-10.9 6.7-13.9 1.7-3 6.3-8.7 10.2-12.7 3.8-3.9 10.4-9.3 14.5-11.9 4.1-2.7 9.1-5.5 11-6.3 1.9-.8 5.7-2 8.5-2.7 2.7-.8 8.8-1.4 13.5-1.4zm-23.4 29.7c-3.8 2.6-8.6 6.5-10.5 8.8-2 2.2-5 6.7-6.8 10-1.7 3.2-4.4 9.5-5.8 13.9-1.6 4.6-2.9 11.4-3.2 16-.3 4.4 0 12.1.6 17 .7 5 2.4 12.6 3.8 17s4.6 12.1 7.1 17c3.6 7 6.5 10.9 13.2 17.7 7.5 7.6 9.2 8.8 14.5 10.4 4.1 1.2 8.8 1.7 15 1.6 5.3-.1 12.3-1 17-2.2 4.6-1.2 9-3 10.3-4.3 1.3-1.2 4.8-7.1 7.7-13.2 2.9-6 6.3-13.9 7.4-17.5 1.2-3.6 2.8-9.6 3.6-13.5.8-3.9 1.4-12.1 1.4-18.5 0-6.3-.6-14.9-1.3-19-.7-4.1-2.6-11.3-4.2-16-1.8-5.3-4.4-10.7-7.1-14.2-2.5-3.3-7-7.6-10.6-10-3.4-2.3-9.1-5.3-12.7-6.6-3.8-1.4-9.6-2.6-14-2.8-5.9-.4-8.7 0-13 1.6-3 1.1-8.6 4.2-12.4 6.8zm-166.1-12.2c1.1.3 2.6 1.4 3.3 2.3.7.9 1.2 2.7 1.2 4.1-.1 1.6-1.5 3.9-4 6.3-2.4 2.2-9.5 6.4-17.3 10.1-7.2 3.5-19.1 8.7-26.2 11.6-7.2 2.9-14.4 5.3-16.2 5.4-1.9.1-3.9-.7-5.2-1.9-1.2-1.1-2.2-3.2-2.1-4.7 0-1.9.9-3.5 2.7-4.8 1.6-1.1 3.2-2 3.8-2 .5 0 8-2.7 16.5-6.1 8.5-3.3 19.1-7.8 23.5-9.9 4.4-2.1 10.2-5.4 13-7.4 3.3-2.4 5.6-3.4 7-3zm390.7 220.5c1 0 2.5.2 3.4.7.9.4 2.1 1.7 2.5 3 .6 1.4.4 3.1-.4 4.7-.6 1.4-2.6 3.2-4.2 4-1.7.7-5.3 1.9-8 2.5-2.8.7-8.6 1.2-13 1.3-6.2.1-8.9-.3-12-1.8-2.2-1.1-4.7-3.2-5.5-4.6-1.4-2.4-1.3-2.9.5-5.4 1.9-2.6 2.3-2.8 6.5-2 2.5.5 8.1.8 12.5.8 4.4-.1 9.8-.8 12-1.6 2.2-.8 4.8-1.5 5.7-1.6zm-153 13c2-.1 3.2.7 4.3 2.4 1 1.8 1.2 3.3.7 5.3-.5 1.5-2.2 3.5-3.8 4.4-1.6.9-7 2.4-11.9 3.3-5 .9-13.5 1.6-19 1.6-8.5 0-10.7-.3-14.5-2.3-3.8-1.9-4.6-2.8-4.8-5.5-.2-2.6.3-3.6 2.4-4.9 2.2-1.3 3.7-1.4 9.2-.5 4.5.7 10.2.7 17.4.1 6-.6 12.3-1.6 14-2.4 1.8-.8 4.5-1.5 6-1.5zm-229 11.9c3 0 4.3.7 6.3 3 1.4 1.7 2.5 4.2 2.5 5.8 0 1.5-.8 3.8-1.7 5.2-.9 1.4-3.9 5-6.5 8-2.7 3-4.8 6.4-4.8 7.5 0 1.1-1.9 9.7-4.2 19-3.4 14.2-4.6 17.5-6.9 19.8-1.7 1.7-3.8 2.7-5.6 2.7-1.5 0-3.9-.6-5.3-1.3-1.4-.7-3.1-2.9-4-5.3-.8-2.3-3-5.3-4.8-6.8-2.7-2.2-3.2-3.2-3.2-6.8 0-3.2 1.3-6.6 4.9-13.3 2.6-4.9 7-12.4 9.6-16.5 2.7-4.1 6.9-9.7 9.4-12.4 2.5-2.7 5.9-5.7 7.6-6.7 1.6-1.1 4.7-1.9 6.7-1.9zm559.4 2c1.9 0 4.7.7 6.4 1.5 1.6.8 3.8 3.2 4.9 5.3 1 2 2.4 6.2 3.1 9.2.8 3 1.4 9.3 1.4 13.8.1 7.9-.1 8.5-2.7 10.8-1.9 1.7-3.9 2.4-6.7 2.4-3.3 0-4 .3-4 2 0 1.1-1.3 3.4-2.9 5-1.8 1.8-4 3-5.5 3s-3.6-.5-4.9-1c-1.2-.6-2.8-1.9-3.5-3-.6-1.1-2.3-7.5-3.7-14.2-1.3-6.8-2.9-13.5-3.5-15-.5-1.6-1-4.5-1-6.5-.1-2.1.7-5 1.8-6.5s3.1-2.9 5-3.2c1.8-.3 4.1-.1 5.2.4 1.6.8 2.5.5 4.6-1.5 1.8-1.6 3.8-2.5 6-2.5zM979.6 214c2.2 0 5.6.5 7.5 1.1 1.9.7 4.8 2.2 6.4 3.3 1.6 1.2 3.8 4.1 4.9 6.6 1.5 3.5 1.8 5.7 1.2 10-.4 3-1.2 6.7-1.8 8.2-.7 1.5-3 4.1-5.2 5.8-2.2 1.7-5.1 3.1-6.5 3.1-1.4-.1-4.5-.7-7-1.4s-6.2-2.6-8.3-4.2c-2.1-1.7-4.7-4.8-5.7-7s-2.1-6-2.5-8.5c-.4-3.3-.1-5.4 1.2-8 1.2-2.3 3.6-4.5 6.8-6.2 3-1.7 6.6-2.8 9-2.8zm208 6c3.6 0 5.9.6 8.4 2.2 1.9 1.3 4.3 3.6 5.5 5.1 1.4 2 2.2 4.8 2.5 9 .3 5.4 0 6.6-2 9q-2.4 2.7-8.2 4.2c-3.1.8-7.2 1.5-9 1.5-1.7 0-4.7-.9-6.5-2-1.7-1.1-4.1-3.5-5.2-5.2-1.3-2.1-2-5.1-2-8.3 0-3.7.6-5.9 2.5-8.6 1.3-2 3.9-4.3 5.7-5.2 1.8-.9 5.5-1.7 8.3-1.7z" style="fill:#000"/>
</svg>
