<svg version="1.2" xmlns="http://www.w3.org/2000/svg" width="2048" height="2048">
    <path fill-rule="evenodd" d="M1111.5 272c.5 0 1.8.7 2.7 1.7.9 1 3.3 6.1 5.2 11.3 2 5.2 6 16 14.1 38.5h6.5c3.6 0 13.4-1.3 21.8-2.8 11-1.9 15.8-2.4 17.2-1.7 1.2.6 2 2 2 3.5 0 1.7-2.8 5.9-8.6 12.8-4.8 5.6-10.2 11.8-15.4 17.2l4.8 3.6c2.6 2 7.2 6.7 10.3 10.5 3.1 3.8 6.6 8.7 7.8 10.9 1.2 2.2 2.1 5 2.1 6.2 0 1.3-.7 3-1.6 3.8-.8.8-2.7 1.5-4.2 1.5s-10.4-3-19.7-6.6c-12.6-4.9-18.3-6.7-22-6.7-2.8-.1-6.6.7-8.5 1.6-1.9.9-5.5 4.1-8 7.2-2.5 3-9 12.8-14.5 21.8s-10.7 17.1-11.5 18.1c-.8.9-2.3 1.7-3.3 1.6-.9 0-2.4-1-3.2-2.3-1.4-2-1.2-3.1 2.6-13.7 2.2-6.3 5.6-17.4 7.4-24.5 1.8-7.1 3.7-15.4 5-23.5l-16.5-.1c-9.1 0-21-.4-26.5-.9-7.3-.7-10.5-1.4-11.8-2.7-1-1-1.8-2.5-1.8-3.3 0-.8.8-2.2 1.8-3.1 1-.9 9-4.2 17.8-7.3 8.8-3.2 21.5-8.4 28.3-11.7 7.4-3.6 12.4-6.6 12.7-7.7.2-.9.9-9.1 1.6-18.2.6-9.1 1.2-20.2 1.3-24.8.1-6.1.5-8.5 1.6-9.2.8-.5 2-1 2.5-1zm2.4 42c0 4.1-.4 9.5-.9 12-.6 2.7-2 5.6-3.7 7.3-1.5 1.6-7.8 5.2-13.8 8.1-6 3-14.4 6.7-18.5 8.2l-7.5 2.9c23.3.4 32.1.1 34.8-.5q4.7-1 6.7 0c1.1.6 2 1.9 2 3s-.8 2.8-1.8 3.7c-1.1 1.2-2.5 5.8-3.9 13.3-1.2 6.3-2.5 12.4-2.8 13.5-.4 1.4.1 1.1 1.7-1 1.3-1.6 4.8-5.6 7.8-8.8 3.5-3.7 7.1-6.4 10-7.5 2.7-1 7-1.7 11-1.6 5.3.1 8.9 1.1 19.5 5.3 7.2 2.8 13.1 5.1 13.3 5.1.1 0 .2-.4.2-1s-4-5.1-9-10-9.2-9.8-9.5-10.8c-.2-.9-.7-2.6-1-3.7-.5-1.5 1.2-4.1 7.4-11 4.4-4.9 8.1-9.4 8.1-10 0-.6-3.6-.3-9.3.7-5 .9-12.5 1.7-16.4 1.7-6.6.1-7.6-.1-10.1-2.7-1.9-1.8-4.2-6.5-7-14.7-2.3-6.6-4.6-12.9-5.1-14-.7-1.7-.9-1.5-1.4 1.5-.4 1.9-.7 6.9-.8 11zm171.6 129.1c2.8 0 7.9.6 11.5 1.5 3.6.8 9.7 3 13.5 4.8 3.8 1.9 10.6 6.1 15 9.3 4.4 3.3 10.6 8.8 13.7 12.4 3.2 3.5 7.3 9.3 9.2 12.9 1.9 3.6 4.5 9.6 5.9 13.5 1.4 3.9 3.4 11.3 4.5 16.5 1.2 5.2 2.8 16.9 3.6 26 .8 9.1 1.8 22.1 2.2 29 .3 6.9 1.7 22.2 3 34s2.8 32.5 3.4 46c.6 13.5 1.4 40.5 2 60 .5 19.5 1.5 70.4 2.1 113 1 60 1 85 .1 111-.7 18.4-1.2 41.4-1.2 51 0 9.6.7 26.5 1.5 37.5s1.9 27.4 2.5 36.5c.7 9.1 1.4 34.3 1.7 56 .4 26 .2 45.3-.6 56.5-.7 9.3-2.1 23.8-3.2 32-1.1 8.3-3.1 21.5-4.5 29.5s-4.1 21.5-6 30c-1.9 8.5-5.5 21.3-7.9 28.5-2.4 7.2-6.9 18.7-15.5 38.5l6.3.6c3.4.3 37 .6 74.7.7 41.8.1 81-.3 100.5-1.1 17.6-.7 43.5-2.4 57.5-3.7 14-1.3 30.9-2.9 37.5-3.5 9.5-.8 12.3-.8 13.3.2.7.7 1.3 2.3 1.2 3.6 0 1.2-1 2.9-2.2 3.7-1.6 1-9.2 2.1-23.3 3.5-11.5 1-28.2 2.6-37 3.5-8.8.8-28.2 2-43 2.6-14.8.6-43.7 1.3-64 1.6-20.3.3-53.7 0-74-.6-20.3-.6-40.4-1.4-52-2.2l-10 16.1c-5.5 8.9-12.1 18.9-14.7 22.3-2.5 3.4-10.4 11.9-17.5 18.8-8 7.9-16.3 14.9-22.3 18.9-5.2 3.4-15.3 9.1-22.5 12.6-7.2 3.5-15.7 7.3-19 8.4-3.3 1.1-13.9 3.6-23.5 5.6-9.6 1.9-23.3 4-30.5 4.6-8.9.8-14.7.8-18.5.1-3-.6-8-2.2-11-3.7s-6.4-3.6-7.5-4.6c-1.1-1-6-3.9-11-6.3-6.6-3.3-10.5-6.1-14.5-10.4-3.1-3.2-6.6-7.1-7.8-8.8-1.2-1.7-2.4-2.8-2.5-2.5-.2.3-1.1 3.2-2.1 6.5s-3 8.3-4.4 11c-1.4 2.8-2.6 7-2.7 9.5-.2 3.5-.9 5.1-3.1 7.1-1.8 1.5-5.1 3-8.4 3.7-3 .6-14.5 1.6-25.5 2.2-11 .6-27.2.8-36 .5-8.8-.3-25.5-1.3-37-2.1-12.3-.9-26.4-2.5-34-4-7.1-1.4-18-4.2-24-6.1-6-1.9-12.6-4.7-14.6-6.2-2-1.4-4.6-3.7-5.7-5.1-1.1-1.4-2.8-4.5-3.7-7-.9-2.5-2-6.5-2.6-9-.5-2.5-1.4-6.2-2.9-12l-2.7 1.9c-1.6 1.1-6.6 3.7-11.3 6-4.7 2.2-13.9 5.7-32.5 11.6l-20.5-.1c-18.4 0-21.7-.3-32-2.6-8.6-2-15.3-2.8-26.5-3.1-12.7-.4-17.3-1.1-29.5-4-8-1.9-17.9-4.8-22-6.4-4.1-1.6-10.9-4.2-15-5.6-4.1-1.5-11.8-5.4-17-8.8-6.5-4.3-13.3-10-21.5-18.3-6.6-6.6-15-15.9-18.7-20.6-3.6-4.7-11.6-16.6-17.8-26.5-6.3-9.9-12.8-21.2-14.6-25-1.7-3.8-5.3-13.1-7.8-20.5-2.6-7.4-7.1-21.4-10.1-31-2.9-9.6-6.5-21.5-8-26.5-1.4-5-4.3-17.5-6.5-28-2.1-10.5-5-24.2-6.4-30.5-1.3-6.3-3.7-19.6-5.1-29.5-2.1-13.8-2.8-23.3-3.2-41-.4-15.6 0-31.6 1.1-49.5.9-14.6 2.1-33.3 2.6-41.5.6-8.2 1.7-22 2.6-30.5.8-8.5 2.2-20.2 3-26 .8-5.8 3.7-22 6.4-36s5.6-29.9 6.4-35.3c.9-5.3 2.3-17 3.1-25.9.8-9 2-25.8 2.5-37.3.6-11.5 2-30.9 3.1-43 1.1-12.1 2.9-29.4 3.9-38.5 1.1-9.1 3.9-30.2 6.1-47 2.2-16.8 6.5-44.9 9.4-62.5 3-17.6 7-41.2 9-52.5 1.9-11.3 5-26.1 6.7-33 1.7-6.9 5.1-18.4 7.6-25.5 2.4-7.1 5.6-15.3 6.9-18 1.4-2.8 4.6-7.9 7.2-11.5 2.5-3.5 7.5-8.8 11.1-11.8 3.6-2.9 9.2-6.6 12.5-8.3 3.3-1.6 11.4-4.3 18-6 11-2.8 13-3 24-2.6 7.2.3 15.5 1.3 20.8 2.6 4.8 1.2 10.4 2.8 12.5 3.7 2.2 1 6 1.6 9.5 1.5 5.6-.1 5.8 0 13.2 6.1 4.1 3.5 13.2 11.5 20.2 17.9 7.1 6.3 15.8 15.1 19.5 19.5 3.7 4.3 12.7 13.6 20 20.5 7.3 6.9 15.8 15.9 18.9 20 3.1 4.1 7.8 9.8 10.5 12.7 2.7 3 7.1 6.4 9.9 7.8 3.5 1.6 8.7 2.8 17 3.7 7.5.9 14 1.1 17.5.6 3-.4 17.9-1.7 33-2.8 15.1-1.1 37-2.8 48.5-3.8 15.7-1.2 33.7-1.7 121-1.9l4.5-2.6c2.5-1.4 9.5-6.4 15.7-11 6.2-4.6 15.4-11.2 20.5-14.8 5.1-3.5 16.5-12.1 25.3-19 8.8-7 22.5-17.3 30.5-23 8-5.7 22.2-15.4 31.5-21.6 9.3-6.1 19.9-12.6 23.5-14.5 3.6-1.8 8.3-3.9 10.5-4.5 2.2-.7 6.3-1.3 9-1.3zM1255 478c-8.5 5.6-19.8 13.2-25 16.9-5.2 3.6-13.5 9.5-18.5 13.2-5 3.6-14.8 11.2-22 16.9-7.2 5.6-18.2 13.6-24.5 17.7-6.3 4.2-16.5 11.1-22.5 15.3-6 4.3-11.8 9-12.7 10.4-1 1.4-3.3 3.4-5 4.3-3 1.6-7.9 1.8-55.3 1.8-46 0-56.6.3-92.5 2.7-22.3 1.5-46.9 3.2-54.8 3.8-7.8.5-16.6 1.5-19.4 2.1-2.9.7-6.5 2.2-8.1 3.5-1.5 1.3-3.6 2.4-4.7 2.4s-3.1-.6-4.5-1.2c-1.4-.7-3.1-2.5-3.8-4.1-.9-2.1-2.6-3.2-7.8-5-3.7-1.2-9.1-4.2-12.3-6.7-3.2-2.5-9.1-8.5-13-13.3-3.9-4.9-9.8-11.9-13.1-15.6-3.3-3.8-8.9-9.3-12.5-12.2-3.5-3-9.8-9.4-13.9-14.4-4.1-4.9-12.1-13.6-17.8-19.2-9.1-9.1-10.7-10.3-13.8-10.3-2.8 0-4.5-.9-8.8-5-2.8-2.8-8.3-6.7-12.2-8.7-3.9-1.9-10.8-4.4-15.5-5.4-4.7-1-11.6-2.1-15.5-2.4-5.7-.6-9.3-.2-19 2-6.6 1.5-14.3 3.8-17 5.1-2.8 1.2-7.5 4.5-10.5 7.2s-6.9 7.1-8.7 9.8c-1.8 2.7-5 9.6-7.2 15.4-2.2 5.8-5.1 14.5-6.6 19.5-1.4 5-3.5 13-4.6 18-1.1 5-3.6 18-5.5 29s-5.9 34.6-8.9 52.5-7.4 48-9.9 67-5 38.3-5.5 43c-.6 4.7-1.9 18.4-3 30.5-1.2 12.1-2.5 31-3.1 42-.5 11-1.7 28.1-2.6 38-.9 9.9-2.4 23.2-3.3 29.5l-1.7 11.5c3.5 7 6.4 11.2 8.8 13.9 2.7 3.1 11.6 9.7 24.3 18.1 11 7.3 23.1 15 27 17.3 3.9 2.2 15.3 7.5 25.5 11.8 10.2 4.2 23.7 9.8 30 12.4 6.3 2.6 18.5 6.5 27 8.8 8.5 2.3 18.9 4.8 23 5.7 4.1.9 11.8 2.2 17 3 5.2.8 19.2 2.5 31 3.9s30 3.2 40.5 4.1c10.5.8 21.8 1.5 25.2 1.5h6.3c7.3-8.1 11.5-12.4 14-14.8 3.1-3 6.1-4.8 10-5.9 3.2-.9 7-1.3 9-.9 1.9.3 5.1 1.6 7 2.9 1.9 1.3 4.5 4.3 5.8 6.8 1.7 3.3 2.1 5.1 1.5 7.3-.4 1.6-1.8 3.5-3.1 4.3-1.2.7-3.1 1.1-4.2.8-1.1-.3-2.4-1.3-2.9-2.2-.8-1.6-1.8-1.7-6.8-1.1-3.2.4-6.8 1.5-8.1 2.3-1.2.8-2.7 2.5-3.4 3.8-.6 1.2-1.5 3.3-1.9 4.7-.4 1.4-.3 4.2.2 6.3.6 2.6 1.3 3.6 2.4 3.2.8-.3 5.8-.8 11-1.2 7.8-.7 9.6-1.1 10-2.5.3-1 1.5-2.5 2.7-3.4 1.5-1 3.3-1.3 5-1 2.8.6 2.8.5 3.4-5.6.3-3.5.7-7.4 1-8.8.3-1.4 2-4.1 3.7-6.1 1.8-2 4.2-3.9 5.4-4.3 1.7-.4 3 .1 4.8 1.9 1.6 1.6 2.4 3.3 2.1 4.8-.3 1.2-.9 4-1.5 6.2s-1.1 6-1.1 8.5c0 3.2.8 5.8 2.9 9 1.6 2.5 3.7 4.9 4.7 5.3 1.3.6 2.3.3 3.2-1 .7-1 2.1-4.7 3.2-8.3 1-3.6 2.4-9.1 2.9-12.2.6-3.3 2-6.7 3.1-7.8 1.1-1.1 3-2 4.2-2 1.3 0 3.3 1 4.5 2.2 2 2 2.3 3.4 2.3 10.6v8.2c5-1.3 6.3-1.1 7.5 0 1.5 1.4 1.6.7 1.5-8.5v-10c7.2-6.9 9.5-8.2 12.9-8.8 2.5-.4 6-1.1 7.6-1.4 1.6-.3 4.2-.3 5.7.1 1.6.3 4.4 2.1 6.4 3.9 2 1.7 4.5 5 5.6 7.2 1.4 2.8 1.9 5.4 1.7 8.8-.4 4.3-.2 4.7 1.8 4.7 1.3 0 2.9.2 3.5.5 1 .4 1.2-.9.9-5.2-.3-4.6.1-6.8 2-10.7 1.7-3.5 3.3-5.3 5.6-6.3 2.7-1 3.8-1.1 6 0 1.4.6 3.5 2.3 4.5 3.7 1.6 2 1.9 3.9 1.7 10-.2 4.1-.3 10.1-.3 13.3-.1 4.1.3 6.1 1.4 6.7.8.6 2.4.9 3.4.8 1.4-.2 2.6-2.2 4.3-7.3 1.3-3.9 2.8-9.7 3.3-13 .6-3.3 1.7-7.6 2.5-9.5.8-1.9 2.6-4.1 4-4.7 2-1 3-1 5 0 1.4.6 3 2.6 3.5 4.2.6 1.6 1 5.5 1 8.5s-.7 8.6-1.4 12.5c-.8 3.9-1.3 7.1-1.2 7.3 0 .1 3.3.3 7.1.4 4.7.2 10.2-.6 16.7-2.2q9.7-2.5 8.7-3.5c-.6-.5-.9-2.7-.7-4.7.2-2.1-.2-3.8-.7-3.8-.5 0-6 .7-12 1.5s-12 1.5-13.3 1.5c-1.9 0-2.2-.5-2.2-4 0-3.3.4-4.1 2.3-4.5 1.2-.2 6.2-.9 11.2-1.5 5-.6 13.3-2 18.5-3 5.2-1.1 21.2-5.3 35.5-9.4 14.3-4.1 31.8-9.5 39-12.1 7.2-2.6 24-8.5 37.5-13.1s29.2-10.7 35-13.5c5.8-2.8 16.8-8.8 24.5-13.3 7.7-4.5 19-11 25-14.4 6-3.4 14.8-9.1 19.5-12.7 4.7-3.5 9.8-7.5 11.5-8.8l3-2.5c-2.8-141.9-3.9-178-4.5-179.2-.6-1.2-1.2-16.9-1.4-37.8-.3-22.7-1-40.6-2-49.2-.9-7.4-2-18.7-2.5-25-.6-6.3-1.5-19.1-2.1-28.5-.7-9.4-1.8-22-2.6-28-.7-6-2.5-15.3-3.9-20.5-1.4-5.2-4-12.4-5.7-16-1.8-3.6-5.9-9.4-9.3-12.9-3.3-3.5-9.4-8.6-13.5-11.3-4.1-2.7-10.4-5.8-14-6.9-3.6-1-8.1-1.9-10-1.9-1.9 0-6.2 1.3-9.5 2.8-3.3 1.6-13 7.5-21.5 13.2zm65.3 436.9c-9.8 5.7-19.6 11.5-21.8 12.8-4 2.5-4 2.5-1.7 3.9 1.5.9 2.2 2.4 2.2 4.4 0 1.6-.5 3.2-1 3.5-.5.3-1 1-1 1.5s6.6-2.4 14.8-6.5c8.1-4.2 21.5-11.7 29.7-16.8l15-9.2c.4-13.6.2-17.5-.2-17.4-.5 0-4.7 3.1-9.5 6.7-4.7 3.7-16.7 11.4-26.5 17.1zM606.2 911c1.3.8 5.7 4.4 9.8 7.9 4.1 3.5 9.3 7.6 11.5 9.1 2.2 1.5 6.5 4 9.5 5.5l5.5 2.7c3.4-4.6 3.4-4.8.7-7-1.5-1.3-7.2-5.3-12.7-9-5.5-3.6-11.6-7.9-13.5-9.4-1.9-1.5-5.1-4.8-7-7.3-1.9-2.5-3.8-4.5-4.1-4.5-.4 0-1 2.4-1.3 5.3-.6 4.7-.4 5.4 1.6 6.7zm-5.1 12.2c-.6 2.9-2.3 12.5-3.6 21.3-1.3 8.8-3.1 23.9-3.9 33.5-.9 9.6-1.8 21.5-2.1 26.5-.3 5-1.2 20.3-2.1 34-1.1 17-1.5 32.8-1.1 49.5.4 19.7 1 27.9 3.1 42 1.5 9.6 3.8 22.5 5.2 28.5 1.4 6 4.1 18.9 6.1 28.5 1.9 9.6 7 29.2 11.3 43.5 4.4 14.3 9.8 31.4 12 38 2.3 6.6 5.4 14.9 6.9 18.5 1.5 3.6 7.3 13.7 12.9 22.5 5.5 8.8 12.7 19.6 15.9 24 3.2 4.4 10.5 12.9 16.3 18.9 5.8 6 12.8 12.5 15.5 14.6 2.8 2 7.5 5.1 10.5 6.8 3 1.7 11.1 5.1 18 7.7 6.9 2.5 18.4 6 25.5 7.6 10.7 2.5 15.6 3.1 28 3.4 8.5.2 20.9-.3 28.5-1.1 7.4-.8 17.1-1.9 21.5-2.5 4.4-.5 18-3.5 30.3-6.5 12.2-3 24-6.3 26.2-7.4 2.3-1.2 6.8-5.3 10.5-9.7 3.6-4.3 7-9.1 7.4-10.8.5-1.7.5-14 .1-27.5l-.7-24.5c-10.6-10.8-11.3-12-11.3-15.5 0-2.6 1.9-8.5 5.7-17.2 3.6-8.5 5.6-14.6 5.5-16.8 0-1.9-.9-4.6-2-6-1.1-1.4-3.6-2.9-5.8-3.4-2.4-.5-8-.4-14.4.2-5.8.7-12.3 1.4-14.5 1.8-3.1.4-4.5.2-6.1-1.3-1.2-1-5.1-8.1-8.7-15.8-3.6-7.7-8.4-19.2-10.7-25.5-2.3-6.3-5.4-13.5-6.8-16-1.4-2.5-8-11.7-14.5-20.5-6.6-8.8-14.9-19-18.6-22.8-4.3-4.4-7.4-6.7-8.8-6.7-1.3 0-3.4-.6-4.8-1.2-1.4-.7-3-2.4-3.6-3.8-.5-1.4-.8-4.2-.5-6.2.4-2.3.2-3.8-.4-3.8-.5 0-1.2-.9-1.5-2-.3-1.1 0-2.9.5-4 .8-1.5 2-2 5-2 2.9 0 4.3.5 5.3 2 .6 1.1 2.2 2 3.5 2 1.3 0 5.8 3 11 7.3 4.8 4 11 10 13.8 13.3 2.8 3.2 9.1 11.1 14 17.4 5 6.3 10.6 13.8 12.6 16.5 1.9 2.8 4.7 7.3 6 10 1.4 2.8 4 9.2 5.9 14.2 1.9 5.1 3.5 9.2 3.7 9 .1-.1-.5-8-1.3-17.4-.8-9.5-1.2-18.1-.8-19 .3-1 0-9.5-.7-18.8-1.1-13.4-1.1-17.6-.2-19.7.7-1.6 3.8-4.5 7-6.5 3.1-2 10-5.4 15.2-7.6 5.2-2.1 14.9-5.4 21.5-7.3 6.6-1.9 17.2-4.4 23.5-5.4 6.3-1.1 20.3-2.7 31-3.7 10.8-.9 29-1.7 40.7-1.8 13.5 0 21.3-.4 21.3-1 0-.5-1-2.8-2.3-4.9l-2.2-3.9c-16.4-.3-20.2-.9-23.4-2.3-2.4-1-5.5-3.1-6.8-4.6-1.2-1.6-2.3-3.5-2.3-4.3 0-.8.6-2.6 1.3-4 .6-1.4 2.7-3.2 4.5-4 1.7-.8 5.8-1.5 9-1.5 3.9 0 7.3.8 10.7 2.4 2.8 1.2 5.7 3 6.5 4 .8.9 2 1.7 2.5 1.7s1.9-1 3-2.2c1.1-1.2 2.7-4.4 3.5-7.1 1.4-4.5 1.6-4.8 3-3.2 1.3 1.5 1.3 2.3-.3 7.8-1 3.3-2.1 7.4-2.6 9.1-.6 2.3-.2 4.2 1.9 8.5 1.5 3 3 6.7 3.4 8.3.5 2.5 1 2.7 5.4 2.7 2.6.1 8.1.7 12.2 1.5 4.1.7 16.5 3 27.5 5s26.2 5.2 33.8 7.1c10.8 2.7 16.5 4.8 26.7 9.9 12.4 6.2 13.3 6.8 19 14 5.4 6.8 6 8 6 12.3l.1 4.7c12.7-13.4 18.7-19 21.4-21 2.8-2.1 7.9-5.2 11.5-7 3.6-1.8 9-4 12-5 4.4-1.3 6.3-1.4 9.5-.5 2.2.5 5 2 6.3 3.3 1.5 1.4 2.3 3.4 2.3 5.7q-.1 3.5-2.3 5.7c-1.7 1.7-3.5 2.3-7 2.3-3.6 0-6.7 1-12 3.7-4.4 2.3-10.2 6.6-14.7 10.8-4 3.8-9.7 10.2-12.5 14-2.9 3.8-7.7 11-10.7 16-3.1 5-7.7 13.3-10.3 18.5-2.7 5.2-6.4 11.7-8.5 14.4-2 2.8-6.3 7-9.6 9.4-3.3 2.4-10.3 6.4-15.5 8.9-5.2 2.5-11.9 5.7-14.9 7.2-3 1.4-7.9 5.1-11.1 8.1-4.3 4.2-6 6.8-7.3 11-1 3-1.7 7.5-1.7 10s.7 6.8 1.7 9.5c1.1 3.4 3.4 6.8 7.2 10.6 3.1 3.1 8.3 7 11.6 8.6 3.3 1.7 7.2 4.4 8.8 6.2 1.5 1.7 2.7 4 2.7 5.1 0 1.1-.6 3.1-1.2 4.5-.7 1.4-2.6 3.1-4.3 3.7-2.1.8-4.1.8-7 .1-2.9-.7-4.8-.7-7 .2-1.7.7-3.6 2.2-4.2 3.4-.7 1.1-1.8 4.1-2.3 6.6-.7 3.1-.7 5.3.1 7.3.6 1.5 4.5 7.2 8.7 12.7 4.1 5.5 9 13.2 10.8 17 1.8 3.8 4 10.4 4.8 14.5.9 4.1 2.3 8.6 3.3 10 .9 1.4 4.3 5.8 7.5 9.8 5.2 6.5 6.2 7.2 9.3 7.2 1.9 0 5.2.9 7.3 1.9 2 1.1 5.3 3.5 7.2 5.5 2.2 2.2 4.8 3.8 7 4.1 1.9.3 4.8 1.1 6.4 1.8 1.6.7 3.6 2.5 4.4 4.2l1.5 3c14.9-1.2 27.1-3.2 36.7-5.1 9.6-2 20.1-4.4 23.3-5.5 3.1-1 11.1-4.6 17.7-7.9 6.6-3.3 15.2-8 19-10.5 3.8-2.5 11.8-9 17.8-14.6 5.9-5.5 12.6-12.4 15-15.2 2.4-2.9 9.2-12.9 15.1-22.2 6-9.3 12.4-20.2 14.3-24 2-3.8 6.2-13.5 9.3-21.5 3.2-8 7.1-19 8.7-24.5 1.6-5.5 4.5-17.4 6.4-26.5 1.9-9.1 4.9-25 6.5-35.5 1.6-10.5 3.6-26.9 4.5-36.5 1-11.8 1.6-28.3 1.6-50.5 0-18.2-.5-40.9-1.1-50.5-.6-9.6-1.5-24.9-2.1-34-.5-9.1-1.4-23.5-2.1-32-.7-10.1-.9-26.7-.5-47.5.4-17.6 1-35.1 1.3-39l.7-7c-4.6 3-12.9 8.1-21.4 13.3-8.5 5.1-21.3 12.1-28.5 15.5-7.2 3.4-24.7 12.1-39 19.3-16.1 8.1-30.2 14.5-37 16.7-6 2-16.2 5-22.5 6.6-6.3 1.7-18.9 4.7-28 6.7-9.1 1.9-23 4.9-31 6.5-8 1.7-18.8 4.1-24 5.4-5.2 1.3-12.3 2.9-15.8 3.7-3.4.7-6.2 1.6-6.2 2.1 0 .4-.7 1.4-1.6 2.2-.8.8-2.7 1.5-4.2 1.5s-3.2-.4-3.7-.9-2.3-1.2-4-1.6c-2.7-.6-3.2-.3-5.6 3.7-1.4 2.4-3.9 5.3-5.5 6.6-1.6 1.3-4.5 2.8-6.4 3.4-2.6.8-4.6.8-7.7 0-2.4-.7-5.7-2.4-7.5-3.9-1.7-1.6-4.4-5.5-5.9-8.8-1.6-3.3-3.1-7.8-3.4-10-.6-3.9-.7-3.9-2.1-1.7-.8 1.2-2.4 2.2-3.6 2.2-1.3 0-3.1-.6-4-1.3-1-.7-2.1-2.4-2.5-3.9l-.8-2.7-9.5 10.9c12.4 10.5 16.3 14.4 16.8 15.5.5 1.1.6 3 .1 4.3-.5 1.2-2.1 2.7-3.6 3.2-1.9.7-3.8.7-5.8.1-1.7-.6-6.5-4.2-10.7-8.1-4.3-3.8-8.3-7-8.8-7s-1 2-1 4.5c0 3.4-.6 5.1-2.5 7-1.3 1.4-3.1 2.5-4 2.5-.8 0-2.7-1-4.1-2.2-2.3-2-2.7-3.4-3.3-10.1-.6-7.4-.7-7.7-3.1-7.7-1.4 0-3.5-.7-4.7-1.5-1.3-.8-2.5-1.4-2.7-1.2-.2.1-1.1 2.5-2 5.2-.9 2.8-2.9 6.6-4.4 8.5-1.6 1.9-4.5 4.3-6.5 5.3-2 .9-5.5 1.7-7.7 1.7s-5.5-.6-7.2-1.3c-1.8-.8-5.1-3.4-7.2-5.8-2.2-2.4-4.8-6.2-5.8-8.4-.9-2.2-1.8-5-1.8-6.2 0-1.3-.3-2.2-.7-2-.5.1-2.2.9-3.8 1.7-1.6.8-3.1 1.4-3.2 1.5-.1 0 .3 2 .8 4.5.7 3.1.7 5.9-.1 9-.9 3.6-.8 5.2.3 8q1.5 3.5.6 5.8c-.5 1.2-2.4 3-4.3 4-3.3 1.6-3.6 1.6-6 0-1.4-1-3.5-3.3-4.7-5-1.6-2.6-1.9-4.3-1.5-8l.6-4.8c-5.1 1.8-9.5 2.1-13.5 1.8-5.2-.3-8.2-1.1-11.7-3.1-3.7-2.1-5.3-3.8-7-7.6l-2.3-4.9c-37.2-.8-53.2-1.5-59.5-2.2-6.3-.6-15.8-1.7-21-2.5-5.2-.8-13.5-2.6-18.5-4.1-5-1.4-20.2-6.2-34-10.6-13.7-4.4-30.4-10.2-37-13-6.6-2.8-16-6.4-21-8-5-1.7-12.1-4.3-16-5.8-3.9-1.5-11.5-4.2-17-6-5.5-1.8-13.1-4.8-17-6.8-3.9-1.9-11-5.8-16-8.6s-12.1-7.6-16-10.8c-3.9-3.1-8.6-7.1-10.6-8.8l-3.6-3.1zm648.2 26.9c-9.8 3.3-26.3 9.1-36.8 12.9-10.4 3.8-30 10-43.5 13.9-13.5 3.8-26.4 7.5-28.7 8.1-4.1 1-4.3 1.1-3.5 4 .5 2.3.3 3.4-1.3 5-1.5 1.6-1.6 2.1-.5 2.1.8-.1 6-1 11.5-2 5.5-1.1 14.7-3.1 20.5-4.4 7.6-1.8 10.4-2.8 10.1-3.8-.2-.8-.3-2.7-.3-4.4-.1-2.1.8-3.7 2.8-5.3 2.3-1.9 3.6-2.3 6.4-1.8 1.9.4 4.3 1.4 5.4 2.4 1.2 1.2 1.6 2.5 1.2 4.5-.3 1.5-.2 2.7.2 2.7s7.5-1.8 15.7-4c8.3-2.3 18.4-5.2 22.5-6.6 4.1-1.4 19.8-8.7 34.7-16.2 15-7.5 26.7-13.8 26-14.1-.6-.2-2-1.1-3-2-.9-.8-1.7-2.6-1.7-3.8 0-1.3-.3-2.2-.7-2.2-.4.1-4.9 2.1-10 4.5s-17.3 7.1-27 10.5zm-593.5-6.9c.4.4 4.5 1.9 9.2 3.4 4.7 1.5 14.4 4.9 21.5 7.6 7.2 2.7 13.1 4.8 13.3 4.6.1-.1-4.6-2.3-10.5-4.7-5.9-2.4-13.9-6-17.8-7.9-3.8-1.9-8.7-4.5-10.7-5.8-2.1-1.3-4-2.4-4.2-2.4-.2 0-.6 1-1 2.3-.3 1.2-.2 2.5.2 2.9zm120 41.8c1.8 0 3.4-.4 3.7-1 .3-.5-.5-1-1.7-1-1.3 0-7.8-1.3-14.5-3-6.8-1.6-12.6-2.9-13-2.9-.4 0 4.4 1.8 10.7 4 6.3 2.2 13 3.9 14.8 3.9zm237.1 7.4c.1 2 .3 3.6.6 3.6s1.4-.4 2.5-1c1.1-.5 2.7-2.3 3.5-4 .8-1.6 1.6-3.8 1.7-4.9.2-1-.4-2.4-1.3-3-1.3-1-2.1-.6-4.3 2.2-1.9 2.4-2.7 4.5-2.7 7.1zM783 985.6c1.4 1 2.7 2.1 3 2.6.3.4 3.4 1.6 7 2.7s8.5 2.5 11 3c2.5.6 10.4 1.7 17.5 2.6 7.2.8 14.5 1.5 16.3 1.5 2.8 0 3.4-.4 4.2-3.2.6-1.8.9-3.3.8-3.3-.2-.1-12.7-1.6-27.8-3.3-15.1-1.8-29.1-3.5-31-3.8l-3.5-.6zm71.5 13.9c20.9.5 28.9.4 31.3.1 2.8-.4 4.4-1.1 4.7-2.3.3-1 .4-1.9.3-2-.2-.1-8.5-.8-18.6-1.5l-18.3-1.3zm143.5 80.1c3.4.5 4.3.4 3.5-.5-.5-.6-3.2-1.4-6-1.7-3.5-.3-4.5-.2-3.5.5.9.6 3.6 1.3 6 1.7zm-43 40c-9 .8-21.2 2.2-27 3-5.7.8-15.6 2.6-22 3.9-6.3 1.2-16 3.7-21.5 5.3-5.5 1.7-11.2 4-12.7 5.2-1.5 1.1-2.8 2.8-2.8 3.8 0 .9.8 2.5 1.7 3.5 1.4 1.4 2.4 1.6 4.3.9 1.4-.5 6.4-1.8 11-2.9 6.7-1.5 12.6-2 28-2.1 10.8 0 29.2-.6 41-1.3 11.9-.7 39.5-1.2 61.5-1.3 33.5-.1 41.8.2 51 1.7 6.1.9 14.4 2.7 18.5 3.8 4.2 1.1 9.6 3.1 12 4.4 2.5 1.3 5.9 2.8 7.5 3.3 1.7.5 5.2 2.3 7.8 4.1l4.7 3.1c4.3-2.9 7.6-5.8 10-8.3l4.5-4.5c-16.9-8.4-24.6-11.2-32.2-13.1-6.5-1.6-18.3-4.1-26.3-5.6-7.9-1.4-18.7-3.4-24-4.5-5.2-1-13.5-2.3-18.5-2.9l-9-1.1c-3.5 4.7-5.3 6-6.2 6.1-1 0-2.3-.6-3-1.3-.7-.7-1.3-1.9-1.3-2.8 0-1-1.4-1.7-4.7-2.2-2.6-.4-9.5-.7-15.3-.6-5.7.1-12.7.3-15.5.5-2.7.2-12.4 1-21.5 1.9zm.4 42.9c-.8 1.1-1.4 2.3-1.4 2.5 0 .3.4 1 .8 1.7.4.6 4.8 3 9.7 5.2 5 2.2 11.5 4.5 14.5 5.1 3.1.6 14.1 1 24.5 1 10.5 0 20.7-.4 22.8-1 2-.5 5.1-2.1 6.7-3.5 1.9-1.5 3-3.4 3-5 0-1.5-1-3.2-2.7-4.5-1.9-1.4-4.3-2-7.8-2-2.7 0-6 .7-7.2 1.5-1.4 1-2.3 2.5-2.3 4.3v2.7c-28.6-1.1-38.2-1.9-39.7-2.5-2.3-.8-2.5-1.2-1.3-2 .8-.6 4.6-1.2 8.5-1.4 3.9-.1 8.4-.9 10-1.7 1.7-.7 3.1-2.2 3.3-3.1.1-1-.3-2.5-1-3.3-.8-.9-2.7-1.5-4.8-1.4-1.9.1-10.4 1.3-18.8 2.8-12.2 2.1-15.6 3-16.8 4.6zm165.1 15.6c-4.4 2.1-11.8 4.8-16.5 6-4.6 1.3-8 2.5-7.5 2.7.6.2 6.2-.8 12.5-2.2 6.7-1.5 14.6-4 18.8-6.1 5.9-2.8 7.3-4 7.6-6.1.2-1.4.3-2.8.2-3-.1-.2-1.8.8-3.7 2.3-1.8 1.4-7 4.3-11.4 6.4zM877 1193.5c0 1.5 1.6 2.6 6.3 4.4 3.4 1.3 11.2 4.7 17.2 7.4 6.1 2.7 14 6 17.5 7.2 3.6 1.3 11.3 3.2 17 4.4 5.8 1.2 13.9 2.6 18 3.2 4.2.5 15.4 1.4 25 2 11.9.7 24.4.7 39-.1 11.9-.6 30.1-1.7 40.5-2.5 10.5-.8 24.9-2.2 32-3 7.2-.8 16-2.2 19.5-3.1 3.6-.8 7.7-2.4 9-3.5 1.4-1.1 3.1-1.9 3.8-1.9.7 0 2.3-1.4 3.7-3.2 1.3-1.8 3.4-6 4.5-9.3 1.1-3.3 2.1-6.5 2-7.2 0-.9-1.4-.7-5 .7-2.7 1.1-8.9 2.9-13.7 4-4.8 1-15.1 3.1-22.8 4.5-7.7 1.4-24.1 4.2-36.5 6.3l-22.5 3.7c-64.7 0-66.6-.1-81.5-2.7-8.5-1.6-18.8-3.7-23-4.9-4.1-1.1-11.5-3.7-16.5-5.8-4.9-2.2-11.6-4.6-14.7-5.5-3.3-.9-6.1-2.3-6.6-3.3s-3.4-3.2-6.5-5c-3.1-1.8-6-3.3-6.4-3.3-.5 0-.5 3.3-.1 7.3s.7 8.1.8 9.2zm52.5-1.9c5 1.2 15.3 3.3 23 4.6 12.8 2.1 17 2.3 46.5 2.3 32.1 0 32.8-.1 51.5-3.3 10.5-1.8 19.3-3.5 19.5-3.9.3-.3-2.4-.2-6 .1-3.5.4-11.9 1.2-18.5 1.8-6.6.6-28.6 1.1-49 1.2-30.1.1-39.2-.2-49-1.6-6.6-.9-16.2-2.8-21.5-4.2-5.2-1.3-10.4-2.7-11.5-3.1-1.1-.3-.2.4 2 1.6 2.2 1.2 8.1 3.2 13 4.5zm-49.1 27.4c1.2 6 1.5 6.5 3.7 6.2 1.3-.1 5.5.2 9.2.8 3.7.6 8.4 1.9 10.5 2.9 2 1 5.2 3.6 7 5.7 1.8 2.2 4.2 6.4 5.3 9.4 1.6 4.1 2 7.1 1.7 11.5-.3 4-1.8 9.5-4.4 16-4.1 10-4.1 10.1-2.2 12.5 1 1.4 2.5 4.8 3.3 7.5.8 2.8 1.9 10 2.5 16 .6 6.1 1.2 20 1.3 31 .1 11-.2 21.8-.6 24l-.9 4c11.4 1.9 17.4 2.7 20.7 3.1 3.3.3 13 1.8 21.5 3.2 15 2.6 16.8 2.7 53.5 2.7 23.1 0 41-.5 45.5-1.2 4.2-.6 12.4-2 18.3-3 5.9-.9 10.7-2.2 10.7-2.8 0-.5-2.9-4.9-6.5-9.7-3.5-4.8-7.5-10.7-8.7-13-1.5-2.9-2.4-6.6-2.6-11.3-.3-4.9.1-8.7 1.4-13 1.1-3.3 3.4-7.9 5.2-10.2l3.2-4.3c-5.4-6.2-8.3-10.1-10-12.7-1.7-2.6-3.9-7.7-5-11.3-1.2-3.8-2-9.3-2-13.5 0-3.8.7-9.4 1.6-12.5.9-3 2.6-7.3 3.7-9.5s3.6-6 5.6-8.4c2-2.5 6.3-6.4 9.6-8.8 4.1-2.9 5.4-4.3 4-4.3-1.1 0-8.7.7-17 1.5-8.2.7-24 1.9-35 2.6-11.8.7-31.4 1-48 .7-24.1-.5-30-.9-42.5-3.1-7.9-1.4-18.3-3.7-23-5-4.6-1.4-13.4-4.8-19.5-7.6-6.2-2.9-12.4-5.1-14.2-5.1-2 0-3.5-.5-3.8-1.5-.2-.8-1.4-1.5-2.5-1.5-1.5 0-2 .7-1.9 2.8 0 1.5.6 5.7 1.3 9.2zm28.4 160.4c.1.3 1.2 1.9 2.5 3.4 1.4 1.7 2.9 6.1 4 11.3 1 4.6 2.7 11.2 3.8 14.7 1.5 5 2.5 6.5 4.9 7.7 1.7.9 6.3 2.4 10.3 3.5 4 1.1 15.6 3.1 25.7 4.5 10.2 1.4 25.7 3.3 34.5 4.2q16 1.7 43.2 1.8c24.6 0 27.4-.1 28.5-1.7.7-.9 4.4-3 8.1-4.7 6.2-2.8 6.9-3.5 9.2-8.3 1.3-2.9 3.1-8 4-11.3.8-3.3 1.5-7.2 1.5-8.7 0-1.5 1-4.2 2.2-6 1.8-2.8 2-3.9 1.2-7.8-.7-3.1-1.4-4.4-2.4-4.1-.8.1-7.5 1.4-15 2.7-7.4 1.3-20.4 2.9-29 3.5-8.8.7-27.5.9-43.5.7-24.3-.4-29.9-.8-42.5-3.1-7.9-1.4-20.1-3.3-27-4.2-6.8-.9-14.4-1.8-16.7-1.9-3-.2-4.8.2-5.9 1.4-1 .9-1.7 2-1.6 2.4zm110.7 85.4c8.8.2 19.4.8 23.5 1.3 4.2.5 11.8 1.4 17 2 5.3.6 19.7 1.4 54.5 2.5l9.5 5c5.5 2.8 11.7 7 14.7 9.9 2.9 2.9 5.4 6.3 5.8 8 .3 1.7 1.3 5.1 2.1 7.5.8 2.5 2.5 11.1 3.9 19 1.3 8 3.4 23.8 4.5 35 1.2 11.3 2.5 23.6 3.1 27.3.5 3.7 1.8 15.8 2.9 27 1.1 11.1 2.6 26.8 3.4 34.7.8 8 2 25.6 2.5 39 .6 13.5 1.6 43.4 2.2 66.5 1.1 39 1.1 43.4-.7 60.5-1.8 17.9-1.9 18.7-5.1 23.3-2.2 3.1-3.3 5.9-3.3 8.2 0 2.7-.7 4.2-3.2 6.3-1.8 1.6-6.4 3.9-10.3 5.1-3.8 1.2-10.6 3.4-15 4.8-5.6 1.8-9.1 2.4-11.7 2-2.1-.4-12.7.2-23.5 1.3-10.9 1.1-24.7 2.9-30.8 4-6 1.2-19.3 2.9-29.5 4-11.8 1.2-21.9 1.7-28 1.3-6.2-.3-14.3.1-23.5 1.2-9.4 1.2-17.6 1.6-25 1.2-6-.3-15.7-1-21.5-1.6-5.7-.5-17.7-2.8-26.5-5s-19.1-4.4-23-5.1c-4.2-.7-9.5-2.4-13.5-4.5-3.5-1.9-7.6-4.5-9-5.8-1.3-1.3-5.7-4.4-9.7-7-4-2.6-7.7-5.5-8.1-6.4-.5-1-1.9-6.3-3-11.8-1.2-5.5-3-15.1-4.1-21.5-1.1-6.3-2.5-16.4-3.1-22.5-.7-6-1.3-19.1-1.4-29 0-9.9.5-43.2 1.2-74 .6-30.8 1.7-71.3 2.2-90 .6-18.7 1.6-42.3 2.3-52.5.7-10.1 1.2-20.9 1.2-24-.1-3-.7-6.8-1.4-8.5-.9-2.2-1-3.6-.2-5.5.6-1.3 2.8-5.5 4.9-9.1 2-3.7 5.9-8.5 8.5-10.8 3.7-3.2 5.5-4.1 8.5-4.1 2 0 5.3-.4 7.2-1 2-.5 12.3-2.1 23-3.5 13.5-1.8 28.3-2.8 48-3.5 15.7-.6 36-1.1 45-1.2 9.1-.2 23.7-.2 32.5 0zM916 1486c-6.3.6-18.7 2.1-27.5 3.4-15.8 2.2-16 2.2-19.1 5.7q-3.2 3.4-4.4 8.9c-.6 3.1-2 9.1-3 13.5-1.5 6.7-1.9 14.4-2.4 45-.3 20.4-.8 38.4-1 40-.3 1.7-1.1 31.4-1.8 66-.7 34.7-1.2 72.3-1.2 83.5.1 11.3.7 24.8 1.4 30 .6 5.3 2.3 15.4 3.5 22.5 1.3 7.2 3.2 16.6 4.1 21 .9 4.4 2.1 9.2 2.6 10.5.5 1.4 1.7 3.4 2.6 4.4 1 1 3.3 2.6 5.2 3.6 2 1 4.8 2 6.3 2.4 2.3.5 2.8.3 3.2-1.6.3-1.3 1.4-3.2 2.6-4.3 1.1-1.1 2-2.2 2-2.5 0-.2-1.7-1.2-3.8-2.1-2.1-1-6.6-3.8-10-6.3-5.1-3.7-6.6-5.5-8-9.3-1.6-4.4-1.6-7.7-.5-42.8.8-26 .9-46 .2-63.5-.5-14-1.4-57-2-95.5-.7-48.2-.7-74.7 0-85.2.6-8.4 1.7-18.3 2.5-22 .9-4.1 2.7-8.5 4.5-11 1.7-2.4 4.5-5 6.3-5.9 2.2-1.1 4.4-1.4 6.7-.9 2 .4 11 1.1 20 1.6 9.1.5 59.1 1.1 111 1.3 63.8.3 95.8.8 98.5 1.5 2.2.6 5 1.9 6.2 2.9 1.2.9 4.1 3.3 6.5 5.2l4.2 3.5c-1.1-4.7-3.5-7.8-6.1-10.3-2.6-2.4-7.5-5.7-10.8-7.3-5.8-2.8-6.3-2.9-21.5-2.9-8.5 0-19.3-.4-24-1-4.6-.5-14.3-1.6-21.5-2.4-7.1-.8-20.8-1.7-30.5-1.9-9.6-.3-33.7-.1-53.5.4-19.8.4-41.1 1.3-47.5 1.9zm-31 20.8c-1.9 1.8-3.1 2.3-5.2 1.8-2.5-.5-2.9-.2-3.7 3.2-.6 2-1.5 9.6-2.1 16.7-.9 9.6-.9 33.3 0 89.5.6 42.1 1.5 87.8 2 101.5.6 15.8.6 33.7 0 48.5-.5 13-.9 28.9-.9 35.5 0 7.7.4 12.9 1.2 14.5.7 1.4 4.9 4.7 9.2 7.3 5.8 3.4 10.5 5.3 17 6.9 5 1.1 10.4 2.6 12 3.4 1.7.7 10.2 2.1 19 3.1 12.5 1.4 23.1 1.8 48 1.8 17.6-.1 42.2-.6 54.5-1.3 12.4-.7 29.5-2.1 38-3.2 8.6-1.1 21.6-2.3 29-2.6l13.5-.6c12.8-12.2 17.2-17.3 18-19.3 1-2.3 1.5-6.8 1.5-13.2 0-5.4-.4-17-1-25.8-.5-8.8-1.1-40.9-1.4-71.5-.2-32.4-1-67.7-2-85-.9-16.2-2.5-42.1-3.6-57.5-1.2-15.4-2.5-31.1-3.1-35-.7-4.7-1.9-8.2-3.7-10.9-1.5-2.1-3.9-4.8-5.5-6-2.6-1.9-4.7-2.1-23.5-2.8-11.4-.4-42.7-.8-69.7-.8-26.9 0-56.2.3-65 .6-10.9.4-22.1.1-35.2-1-10.6-.8-22.1-1.5-25.5-1.5-3.5.1-6.9.3-7.8.6-.8.3-2.6 1.7-4 3.1zm255.6 114.7c1 16.1 1.7 47.7 2 82.5.2 31.1.8 64 1.4 73 .5 9.1 1 20.2 1 24.8 0 4.5-.5 10.4-1.2 13-.9 3.7-2.7 6.3-7.9 11.7-5.2 5.4-6.7 7.6-6.3 9.3.4 2 .7 2.1 3.2 1.2 1.5-.6 5.1-2.9 8-5 3.9-2.9 5.5-4.9 6.3-7.7.5-2.1 1.6-9.2 2.4-15.8.8-6.6 1.5-17.4 1.5-24 0-6.6-.4-25.9-1-43-.5-17-1.5-43.1-2-58-.6-14.8-1.9-34.6-3-44-1-9.3-2.4-23-3-30.5-.7-7.4-1.6-14.1-2.1-15-.7-1.3-.8-1.3-.8 0 0 .9.7 13.2 1.5 27.5zm-165.8 228.3c-13.1-.2-16.7 0-16.3 1 .3.7.5 1.7.5 2.2 0 .7 9.2.9 26.3.6 15.4-.2 30.6-1 36.7-1.9 5.8-.8 14-1.7 18.3-2.1 4.2-.3 7.7-1 7.7-1.6 0-.5-.5-.9-1.2-.8-.7.1-13.4.7-28.3 1.5-14.8.8-34.5 1.3-43.7 1.1zM636 1364.2c9.7-.1 19 .3 20.8.8 1.8.6 3.7 1.9 4.2 3q1 2 0 4c-.5 1.1-1.5 2-2.2 2-.7 0-14.5.2-30.8.5-16.2.3-36.2 1.2-44.5 2-8.2.9-21.9 2-30.5 2.6-10 .8-30.2.9-57 .5-22.8-.3-51.6-1.1-64-1.7-12.3-.6-28.3-1.4-48.5-2.4v-3.4c0-3.1.4-3.5 3.5-4.4 2.3-.6 14-.5 32.5.3 16 .7 53.1 1.3 82.5 1.4 46.3.1 55.8-.1 70-1.7 9.1-1 23.3-2.2 31.5-2.6 8.3-.4 22.9-.8 32.5-.9zm643.5-852c2.6.3 3.1.8 3.3 3.3.2 1.7-1 6.2-5.8 17.5l2.5-1c1.4-.5 3.7-1 5-1 1.5 0 3.8 1.3 5.5 3 2.9 2.9 3 3.4 2.7 10.3-.2 5.2-1.1 9.3-3.2 14.6-1.6 4.1-4.2 8.8-5.6 10.5-2.4 2.9-2.8 3-5.2 1.9-1.7-.8-2.7-2.1-2.6-3.5 0-1.3 1.5-6.4 3.5-11.5 1.9-5.1 3.4-10.4 3.4-11.8 0-1.3-.4-2.5-1-2.5-.5 0-5 3.9-10 8.5-4.9 4.7-9.5 8.5-10.2 8.5-.7 0-2.3-.7-3.7-1.7-1.8-1.4-2.2-2.4-1.8-4.8.2-1.6 4.1-10.6 8.7-20 4.5-9.3 8.9-17.8 9.8-18.8 1-1.1 2.7-1.7 4.7-1.5zM700.1 519c1.1 0 2.5.9 3.2 2 1 1.7 1.7 1.9 4 1 1.7-.6 3.6-.6 5-.1 1.2.5 3.8 2.7 5.8 4.8 2 2.1 7.6 9.2 12.6 15.8 4.9 6.6 9.2 12.6 9.6 13.3.4.7.3 2.1-.3 3.2-.5 1.1-2 2-3.2 2.1-1.3 0-3.8-1.6-5.9-3.8-2-2.1-6.8-8.2-10.7-13.5-4-5.4-7.6-9.8-8.2-9.8-.5 0-1.2 3.5-1.5 7.8-.3 4.2-1 10.7-1.6 14.2-.5 3.6-1.6 7.5-2.4 8.8-.8 1.2-2.5 2.2-3.7 2.3-1.3 0-3-.8-3.9-1.8-1-1-2.2-5-2.8-9.5-.6-4.3-1.1-13.3-1.2-20 0-10 .2-12.7 1.6-14.5.9-1.3 2.5-2.3 3.6-2.3zM1088 648.6c2.5.3 5.5 1.2 6.8 2q2.2 1.4 2.2 4.4c0 1.7-.7 3.7-1.5 4.5-.9.9-3.3 1.5-5.3 1.6-2 0-6.6.6-10.2 1.3-3.5.8-8.9 2.6-12 4.1-3 1.5-6.4 3.6-7.5 4.7-1.1 1.1-3.1 2-4.5 2.1-1.3.1-3.3-.5-4.3-1.3s-1.8-2.8-1.8-4.5c0-2.2 1.1-3.9 4.3-6.9 2.4-2.2 7.3-5.3 10.8-6.9 3.6-1.6 9.2-3.5 12.5-4.3 3.3-.7 8.1-1.1 10.5-.8zM928.3 653c5.2 0 11.9.7 15.2 1.6 3.3.9 7.6 2.5 9.5 3.7 1.8 1.3 4 3.1 4.8 4.2.8 1.2 1.1 3.2.8 4.8-.4 1.7-1.4 3-2.8 3.3-1.5.4-4.2-.4-7.8-2.3-3.1-1.7-8.7-3.5-13-4.2-4.1-.7-9.5-1-12-.6-3.5.5-4.8.2-6.3-1.2-.9-1-1.7-2.6-1.7-3.5 0-1 .9-2.7 2-3.8 1.7-1.7 3.4-2 11.3-2zm160.7 49.6c5.3.4 12 1.4 15 2.3 3.1 1 7.1 2.8 9 4.1 2 1.3 6.2 4.7 9.5 7.4s8.7 7.5 11.9 10.6c3.2 3 7 7.3 8.4 9.5 1.4 2.2 3.6 6.8 4.9 10.3 1.3 3.4 3.1 10.6 4 16 1.3 7.6 1.5 13.4 1 26.7-.3 9.4-1.3 20.4-2.1 24.5-.9 4.2-2.8 10.7-4.2 14.5-1.4 3.9-4.2 10-6.2 13.5-2 3.6-6.1 9-9.1 12-3.6 3.6-8.8 7.3-14.6 10.2-4.9 2.6-12.6 5.7-17 6.8-4.4 1.1-9.7 2.1-11.7 2-2.1 0-6.6-.9-10-2-3.5-1.1-9.4-3.9-13.3-6.2-3.8-2.3-10.1-7.4-14-11.2-5.6-5.6-8.1-9.1-11.7-16.6-2.6-5.2-5.9-13.5-7.4-18.5-2.6-8.5-2.8-10-2.8-29 0-18.9.2-20.5 2.7-29 1.5-4.9 6.2-15.9 10.4-24.5 6.2-12.4 8.8-16.6 13.3-21.1 3-3 7.4-6.5 9.8-7.7 2.3-1.2 6.6-2.8 9.5-3.7 3.8-1.1 7.8-1.3 14.7-.9zm-20.7 20.9c-1.2 2.2-3.4 4.6-4.8 5.4-1.4.7-4 3.2-5.6 5.5-1.7 2.3-4.6 7.2-6.5 10.9-1.8 3.7-4.6 10.7-6 15.5-2.1 7.1-2.7 11.5-3.1 23.2-.3 9.1-.1 17.2.7 21.5.6 3.9 2.3 10.4 3.7 14.5 1.4 4.2 4 10.2 5.9 13.5 1.8 3.3 5.5 8.1 8.1 10.7 2.7 2.5 7.5 6.4 10.8 8.5 3.3 2.1 8.3 4.5 11 5.3 4.2 1.1 6.1 1.2 11 .1 3.3-.7 9.6-2.9 14-4.9 4.4-2.1 10.2-5.8 12.9-8.2 2.6-2.5 5.8-6.3 7.1-8.5 1.3-2.2 3.8-7.6 5.5-12 1.9-4.9 3.7-12 4.6-18.5.7-5.7 1.4-15.9 1.4-22.5s-.6-15.6-1.4-20c-.8-4.4-2.5-10.7-3.7-14-1.8-4.5-3.9-7.5-8.9-12.3-3.5-3.5-9.4-8.8-13-11.7-3.5-2.9-8.3-6-10.5-6.8-2.2-.7-7.8-1.7-12.5-2-6.6-.5-9.5-.2-13.4 1.1-3.9 1.4-5.5 2.6-7.3 5.7zM913 705.1c3.1 0 8.1.6 11.3 1.4 3.1.9 8.1 2.7 11 4.2 2.9 1.4 7.9 4.4 11.2 6.6 3.3 2.3 9 6.6 12.5 9.8 4.6 4 8.1 8.4 11.8 14.6 3.9 6.6 5.8 11.1 7.3 17.8 1.8 7.7 2.1 10.8 1.5 21-.3 6.6-1.7 17-3 23-1.3 6.1-3.7 14.4-5.5 18.5-1.7 4.2-6 11.8-9.5 17-3.4 5.3-9 12-12.3 15-3.3 3.1-8.6 7-11.9 8.7-3.2 1.8-8.6 4.2-11.9 5.3-3.3 1.1-8.4 2.3-11.5 2.6-3 .3-9-.1-13.5-.9-4.4-.8-11.3-2.9-15.5-4.8-4.1-1.9-9.7-5.5-12.3-7.9-2.7-2.5-6.3-6.3-8-8.5-1.8-2.2-5.1-8.5-7.5-14-2.3-5.5-5.1-13.3-6.2-17.5-1-4.1-2.4-12-3-17.5-.7-6.8-.7-14 0-22.5.6-6.8 2.1-17 3.5-22.5s4.3-13.6 6.5-18c2.4-5 6-10.3 9.7-14.2 3.7-3.9 7.8-7.1 11.3-8.7 3.5-1.6 7.3-2.5 10.3-2.6 2.9 0 6.4-.8 8.9-2.1 2.4-1.2 5.4-2.5 6.8-2.9 1.4-.5 5-.8 8-.9zm-10.2 18.3c-.4.9-2.4 2.4-4.4 3.3-2 .9-4.6 3.2-5.8 5-1.3 1.9-3.8 4.1-5.7 5-1.8.8-4.4 1.3-5.6.9-1.3-.3-2.9-1.8-3.6-3.3l-1.3-2.8c-3.2 4.7-4.9 7.6-5.9 9.5-1 2-2.6 6-3.7 9-1 3.1-2.5 9.4-3.3 14-.8 4.8-1.5 15-1.6 23 0 9.4.5 17.2 1.5 22 .9 4.2 3.4 12 5.6 17.5 2.3 5.5 5.2 11.6 6.5 13.5 1.3 2 4.3 5.1 6.7 7 2.4 1.9 6.7 4.5 9.6 5.7 2.9 1.3 8.3 2.8 12 3.4 5 .9 8.2.9 12.2 0 3.1-.6 8.3-2.4 11.8-4.1 3.4-1.6 8.5-5.1 11.4-7.7 2.8-2.6 7-7.5 9.4-10.8 2.4-3.3 6-9.3 8-13.5 2-4.1 4.7-12.1 6-18 1.3-5.7 2.7-15.4 3-21.5.5-8.4.3-12.6-1-18-.9-3.8-3.4-9.9-5.5-13.5-2.3-3.9-6.4-8.7-10.2-12-3.5-3-8.2-6.8-10.4-8.4-2.2-1.6-6.9-4.3-10.5-5.9-4.5-2.1-8.4-3.1-13-3.4-4.2-.2-7.3.2-9 1.1-1.3.7-2.8 2.1-3.2 3zm100 89.7c3.3-.1 4.9.5 7.1 2.7 2 1.8 3.1 4.2 3.6 7.2.5 3.5.2 5.9-1.5 10.5-1.4 3.6-3.9 7.7-10.1 14l.1 16c0 12.7-.3 16.5-1.5 18.3-.8 1.2-1.2 3.1-1 4.2.3 1.1-.1 3.2-1 4.5-.9 1.6-2.4 2.5-4 2.5-1.3 0-4.7-.9-7.5-2-2.7-1.1-6.7-2-8.7-2-2.2 0-4.5-.7-5.6-1.7-.9-1-1.7-3-1.7-4.5s1-3.7 2.3-4.9c1.8-1.7 3.1-2 7.2-1.6 2.8.3 5.7.8 6.5 1.1 1.3.6 1.6-1.9 2.6-36.9l-3.8-4.2c-2.8-3.2-3.8-5.2-4-8.2-.2-3.5.1-4.3 2.7-5.8 1.6-1 4-2.8 5.2-4 1.3-1.3 3.8-2.9 5.6-3.7 1.8-.8 5.1-1.5 7.5-1.5zm245.2 25c2-.1 4.1.4 4.8 1.1.7.8 1.2 2.7 1 4.3q-.3 3-3.3 5c-1.9 1.3-6.2 2.5-11.7 3.3-4.8.7-8.8 1.7-8.8 2.2 0 .6.8.8 1.8.6.9-.2 6-.7 11.2-1.1 8.5-.6 9.7-.5 11.4 1.2 1.2 1.3 1.6 2.7 1.2 4.6-.4 2-1.6 3.2-4.3 4.3-2.5 1.1-8.9 2-18.3 2.5-7.9.5-15.9 1.1-17.7 1.4-1.8.3-4.2.1-5.3-.5-1.5-.8-1.9-1.8-1.7-5 .1-2.2.2-4 .2-4s-2 .7-4.5 1.5c-2.4.9-5.6 1.6-7 1.6-1.3 0-3-.6-3.7-1.3-.7-.7-1.3-2.4-1.3-3.8 0-1.3.4-3 .8-3.6.4-.6 1.6-1.5 2.7-2.1 1.1-.6 6.5-2.3 12-3.8s16.1-4 23.5-5.5c7.5-1.6 15.1-2.9 17-2.9zm-427 11.1c2.5-.1 5.7.4 7 1.1q2.5 1.3 2.9 4.3c.2 1.9-.3 3.5-1.5 4.4-1.2 1.1-6.2 1.9-16.8 2.7-8.3.6-21.1 1.5-42.1 2.7l-2.7-2.7c-1.5-1.5-2.8-3.1-2.8-3.7 0-.5 1-2 2.3-3.3 1.9-2.1 3.5-2.5 11.7-3 5.3-.3 15.8-1 23.5-1.5 7.7-.5 16.1-.9 18.5-1zm38.2 8.8c1.6 0 4.3.6 6.1 1.4 1.8.7 5 2.8 7.1 4.7 2.1 1.9 4.8 5.2 5.9 7.4 1.4 3 1.8 5.1 1.4 8-.4 2.2-1.3 5-2.2 6.3-.8 1.2-2.9 3.2-4.7 4.3-2.6 1.6-4.6 2-9.6 1.7-5.9-.2-6.6-.5-9.7-4-3.2-3.5-3.5-4.3-3.5-10.5-.1-3.7-.2-8.5-.3-10.7-.1-3.5.2-4.2 3.3-6.3 1.8-1.2 4.7-2.3 6.2-2.3zm2.8 16c-.7 1.4-.9 3.3-.6 4.3q.6 1.7 3.3 1.5c1.5-.2 2.8-.8 3-1.5.2-.7-.8-2.5-2.1-4l-2.4-2.8zm281-12.9c2.8 0 6.3.9 9 2.2 2.5 1.2 5.7 4 7.3 6.2 2.1 3.1 2.8 5.1 2.7 8.5 0 3.9-.6 5.1-3.7 8.2-2.1 2-5.6 4.1-7.8 4.7-2.2.6-5.5 1.1-7.5 1.1-1.9 0-5.4-.9-7.7-2-3.3-1.5-4.7-3-6.3-6.5-1.5-3.4-1.8-5.6-1.3-9.2.3-2.6 1.3-5.8 2.1-7 .9-1.2 3.2-3.1 5.2-4.2s5.5-2 8-2zm-3.7 16.7c.2 1.2 1.3 1.8 3.5 2 1.8.1 4.3-.3 5.5-.9l2.2-1.1c-4.2-3.7-6.1-4.8-6.9-4.8-.8 0-2.1.7-3 1.5-.8.9-1.4 2.3-1.3 3.3zm-336.5-11.7c5 0 6.6.3 8.2 1.9 1.1 1.1 2.1 2.6 2.1 3.3 0 .7-.8 2.3-1.8 3.6-1.5 2.1-3 2.5-11.8 3.2-5.5.5-13.3 1.4-17.5 2-4.1.6-10.2 1.7-13.5 2.5-3.3.8-7.4 1.4-9.2 1.4-2.3 0-3.7-.6-4.8-2.2-1-1.6-1.2-3-.6-4.8.5-1.5 2.3-3.1 4.7-4.1 2.2-.9 6.9-2.2 10.4-2.9 3.6-.6 11.3-1.8 17-2.5 5.8-.7 13.4-1.3 16.8-1.4zm430.5 91.9c1.8 0 3.8.6 4.5 1.3.7.7 1.3 2.4 1.3 3.7 0 1.4-1.2 3.7-2.8 5.3-1.5 1.5-4.6 3.2-6.8 3.8-2.2.6-5.1 1.3-6.5 1.6-1.8.4-2.9 0-4.2-1.8-1-1.3-1.8-3-1.8-3.9 0-.8.9-2.7 2-4.1 1.3-1.7 3.4-2.9 5.8-3.4 2.1-.3 4.2-1 4.6-1.6.4-.5 2.2-.9 3.9-.9zM993 1253.5c2.2.4 4.3 1.6 5.5 3.2 1.1 1.5 4.7 5.6 7.9 9.3 3.2 3.6 7.1 7.1 8.5 7.9 2.3 1.1 3.9 1.1 11.1-.3 4.7-.8 9.9-1.6 11.5-1.6 1.7 0 4.1.7 5.3 1.5 1.7 1.1 2.3 2.5 2.3 5.3 0 2.5-.9 4.9-2.6 7.2-1.4 2-4.7 5.3-7.3 7.4-2.5 2.1-6.4 4.8-8.4 6-2.1 1.2-3.8 2.4-3.8 2.6 0 .3 2 4.8 4.4 10 2.4 5.3 5.3 12.3 6.5 15.8 1.2 3.4 2.2 7 2.2 8 0 .9-.9 2.6-2.1 3.7-1.6 1.6-2.7 1.9-5.3 1.2-1.7-.4-8.1-3.1-14.2-5.9-6.1-2.9-12.9-5.3-15.5-5.6-2.4-.2-6.3.1-8.5.8-2.2.7-6.7 3-10 5.1-3.3 2.2-6.9 3.9-8 3.9-1.1.1-2.5-.5-3.2-1.2-.7-.7-1.3-2.4-1.3-3.8.1-1.3 2.3-7.4 5-13.5 2.8-6 4.9-11 4.8-11.1-.1 0-4.1-1.2-8.8-2.7-4.6-1.4-9.9-3.5-11.7-4.6-1.8-1.2-3.8-3.2-4.5-4.5-1.1-2.1-1-2.8.5-5 1-1.4 3.4-3.3 5.5-4.1 2.1-.9 8.7-3.2 14.6-5.3 8-2.7 11.1-4.2 11.7-5.7.3-1.1.9-6.4 1.3-11.8.3-5.5 1.2-10.6 1.8-11.4.9-1 2.3-1.2 4.8-.8zm1.5 21.5c.3 0 1.2-1.2 2-2.7 1-2.1 1.1-3.2.2-4.5-.6-.9-1.5-1.7-1.9-1.7-.4 0-.8 2-.8 4.4 0 2.5.3 4.5.5 4.5zm6.5 5.7c-1.1 2.4-2 4.6-2 4.8 0 .3 1.1.4 2.3.3 1.2-.1 3.1.5 4 1.3 1.2.9 1.8 2.7 1.8 5.2 0 2-1.3 6.3-2.9 9.5-1.6 3.1-4.3 7.2-6 9-2.9 2.9-3.6 3.2-7.7 2.7l-4.5-.5c-3.8 7.8-4.8 10.2-4.7 10.5.1.2 2.7-.5 5.7-1.5 3.1-1 7.3-1.9 9.5-1.9 2.2-.1 6.6.6 9.8 1.4 3.2.9 8.4 2.9 11.7 4.5 3.3 1.7 6 2.6 6 2 0-.5-2.3-6-5.2-12.2-2.9-6.2-5.9-11.6-6.5-12-.7-.4-1.3-1.6-1.3-2.5 0-1 1-2.7 2.3-3.9 1.2-1.1 4.9-3.7 8.2-5.6 3.3-2 7.8-5.2 10-7.2l4-3.7c-4.6.9-9.6 1.4-14 1.7-7.9.7-8 .6-13.2-2.8l-5.3-3.5zm-27 11.7-9.5 3.4 27.7 8.8c3.6-5.4 4.5-7.1 4.5-7.3-.1-.1-1.4.2-2.9.8q-2.8 1-5.3 0c-1.7-.7-2.5-1.8-2.5-3.5 0-1.4.5-3.4 1-4.5.6-1.1.9-2.2.7-2.4-.2-.2-1.2 0-2.3.5-1 .5-6.2 2.4-11.4 4.2zm12.3 95.7c1.9 0 3.1.7 4 2.4 1.1 2.2.9 3-4.8 11l3-.8c1.7-.4 5.5-1.2 8.5-1.7 3.6-.7 6.6-.7 8.5 0 1.7.6 3.6 2.2 4.4 3.8.7 1.5 1.1 3.6.7 4.5-.3 1-1.4 2.1-2.3 2.4-1 .4-3-.1-4.5-1-2.3-1.3-3.6-1.4-7.5-.6-2.6.6-8.2 2-12.3 3.2-5.9 1.6-7.9 1.8-9.7.9-1.7-.8-2.3-2-2.2-4.4 0-1.8-.7-3.9-1.6-4.7-.9-.8-1.5-2.6-1.3-4 .2-1.8 2.1-3.6 7.3-6.8 3.9-2.3 8.3-4.2 9.8-4.2zm10.2 118.6c2.9.2 6.8 1.5 9.3 2.9 2.3 1.4 4.9 3.5 5.7 4.7.9 1.3 1.5 3.4 1.6 4.8 0 1.4-1 4-2.3 5.9-1.3 1.9-3.6 4.3-5.1 5.5-2.2 1.6-4.7 2.2-11 2.5-8.1.3-8.2.3-12.1-3-2.1-1.9-4.5-4.7-5.2-6.2-.8-1.5-1.4-4.5-1.4-6.7 0-2.8.7-4.8 2.4-6.7 1.8-2.1 3.6-2.9 7.7-3.4 3-.4 7.7-.5 10.4-.3zm-4 15.1c.8 1.3 2.5 2.3 3.8 2.3 1.2.1 3.3-.7 4.6-1.7 1.4-1 2.1-2.4 1.8-3.1-.5-.8-2.7-1.1-6.4-1-3.1.1-5.6.4-5.5.7.1.3.9 1.6 1.7 2.8zm67.8 12.4c18.3-.1 18.8-.1 22.7 2.4 2.2 1.4 4.8 3.7 5.7 5.2 1.5 2.4 1.8 6.3 2 30.3.1 15.1.6 34.2 1.2 42.5.6 8.2 1.8 29.4 2.6 47s2.1 51.3 3 75c.8 23.6 1.7 46.6 2 51 .3 5.4.1 8.6-.8 9.8-.7 1.2-2.1 1.7-3.7 1.5-1.4-.2-3-1.4-3.7-2.8-.7-1.4-1.3-5.4-1.3-9 0-3.6-.9-25.4-2-48.5s-2.6-57.1-3.5-75.5c-.8-18.4-2-40.5-2.6-49-.5-8.5-1.1-27-1.4-66.8l-2.5-2.1c-2.4-2.1-3.1-2.2-20.5-1.7-9.9.3-19.6.9-21.5 1.3-2.3.6-3 1.1-2 1.5.8.3 6.2 1.1 12 1.8 5.8.6 13.7.9 17.5.5 5.1-.4 7.4-.3 8.3.7.7.7 1.3 2.1 1.3 3-.1 1-1 2.6-2.1 3.5-1.1 1-2 2.2-1.9 2.8 0 .5-.6 1.6-1.3 2.2-.7.8-8.5 2.2-17.8 3.3-9.1 1-17.6 1.6-19 1.3-1.4-.3-3.3-1.3-4.3-2.2-.9-.9-1.7-2.5-1.7-3.6s.8-2.8 1.8-3.9c.9-1 1.7-3.4 1.7-5.2v-3.4c0-.1-1.7.6-3.7 1.5-2.7 1.1-4.3 1.2-5.8.5q-2-1-2-4c0-2.3.7-3.4 3.3-4.9 1.8-1 5-2.4 7.2-3.1 2.2-.7 6.3-1.6 9-2 2.8-.4 13.5-.8 23.8-.9zm-133.5 5c.7-.1 2.1.3 3.2.9 1.2.6 2 2 2 3.5 0 2.1.6 2.6 3.8 3.1 2 .3 10.2.8 18.2 1 11.4.2 14.8.6 16 1.8 1.2 1.2 1.3 2 .4 3.8-.6 1.4-2.4 2.6-4.5 3-1.8.5-7 .8-11.4.8-4.4-.1-12.5-.5-18-1-5.5-.6-10.6-1.6-11.3-2.2-.7-.7-1.2-2.1-1.2-3.1 0-.9-.4-1.7-1-1.7-.5 0-2.9.4-5.2 1-2.4.6-5.3 2-6.5 3.2-2.2 2.3-2.2 2.4-.7 11.3.7 4.9 1.9 14.4 2.4 21 .6 6.6 1.7 24.8 2.5 40.5s1.7 39.7 2 53.5c.4 13.7 1.1 32 1.6 40.5s1.9 22.7 3 31.5 2.2 21.8 2.5 29c.3 7.1.2 16.8-.4 21.5-.6 6-.5 8.7.2 9.2.6.4 3.6 1 6.6 1.3 3 .3 8.9 1.5 13 2.6 5.4 1.5 12.9 2.4 26.5 3.1 16.9.9 21.1.8 38-1.1 10.5-1.1 29.1-2.5 41.5-3.1 12.4-.5 25.2-.9 34.4-.5l1.3-5.5c.7-3 1.9-5.9 2.6-6.3.6-.4 2.1-.6 3.1-.5 1.1.2 2.4 1.1 3 2 .8 1.3.8 3.7-.2 9-.7 4-1.9 8-2.8 8.8-1.2 1.2-6 1.6-24.7 2.1-12.7.4-26.8 1-31.2 1.3-4.4.4-16.1 1.6-26 2.7-16.4 1.9-19.9 2-39.5 1-15.7-.8-23.1-1.6-27.5-3-3.3-1.1-9.1-2.2-13-2.6-3.8-.4-8.7-1.6-10.7-2.6-2.1-1.1-4.2-2.8-4.8-3.9-.7-1.4-.6-5.4.2-12.3.6-5.8.8-15.6.5-22.7-.3-6.9-1.3-18.4-2.2-25.5-.8-7.2-2-17.1-2.5-22-.5-5-1.4-24.5-2-43.5-.5-19-1.4-44.6-2-57-.6-12.4-1.7-30.8-2.5-41s-2.2-22.6-3.1-27.5c-.9-5-1.3-10-1-11.3.4-1.2 2.1-3.8 3.9-5.8 2-2.2 5.1-4.1 8.2-5.1 2.8-.9 7-1.9 9.5-2.3 2.5-.4 5.1-.8 5.8-.9zm106.7 32c1.1-.1 3.7.3 5.8.9 2.1.6 4.6 2.2 5.8 3.7 1.1 1.5 2.5 4.5 3 6.5.6 2.5.5 5.9-.2 10-.6 3.5-2.1 9.9-3.4 14.3-1.3 4.4-2.7 10.5-3.8 19l2.9-2.3c2-1.6 4.2-2.3 7.2-2.2 3.3 0 5 .7 7.8 3.2 2 1.8 4.6 5.1 5.7 7.3 1.1 2.2 2.2 6.5 2.5 9.5.2 3-.5 12-1.7 20-1.1 8-2.5 16.1-3.1 18-.5 1.9-2.6 5.7-8.1 13.5l1.2 17c.7 9.3 1 21 .8 26-.4 7.1-1 10.2-3.2 14.7-1.5 3.2-3.9 6.6-5.4 7.7-1.5 1-4.4 2.1-6.3 2.5-2.6.5-4.5.1-7.9-1.6-2.5-1.3-6.3-4.6-12.9-12.3l-10.8-.7c-6-.4-13.1-1.4-15.9-2.2-2.7-.9-6-1.6-7.2-1.6-1.5 0-5.4 3-11.3 8.5-6.7 6.4-10 8.8-13.2 9.6-3.7 1-4.8.8-7.7-.7-1.9-1.1-4.2-3.5-5.3-5.4-1-1.9-2.2-6-2.8-9-.5-3-1.3-13.6-1.6-23.5-.5-12.5-.3-19.2.5-21.8.6-2 1.6-3.7 2.1-3.7.6 0-.3-2.8-2-6.3-1.6-3.4-4.3-11.4-5.9-17.7-1.6-6.3-3.7-16.2-4.6-22-1.4-8.3-1.5-11.3-.6-14.3.6-2 2.1-4.5 3.4-5.5 1.2-1 3.8-2.1 5.7-2.5 2.4-.5 5.5-.2 10 1.2 3.6 1.1 6.6 1.9 6.7 1.8.1-.1-1.8-6.3-4.4-13.7-3.4-10-4.6-15.1-4.6-19.5 0-3.4.8-8.4 1.9-11.5 1-3 3.1-6.8 4.6-8.3 1.6-1.5 4.1-3 5.6-3.3 1.5-.3 4.1-.3 5.7 0 1.9.4 6.4 3.7 12.3 9.1 5.1 4.7 10.3 8.9 11.7 9.5 1.4.5 3.6 1 5 1s4.2-.8 6.3-1.8c2-.9 4.9-3.1 6.4-4.7 1.4-1.7 4.6-5.2 7-7.9 2.4-2.6 5.2-5.3 6.3-5.9 1.1-.6 3.4-1.4 5-1.8 1.7-.4 3.9-.8 5-.8zm-12.5 19.3c-3.3 4.4-6.7 7.6-10.2 9.6-2.9 1.6-7.3 3.2-9.8 3.6-2.5.3-6.8.1-9.7-.5-4.6-1-6.5-2.3-15-10.2-5.4-4.9-10-9-10.3-9-.3 0-1.3.8-2.2 1.8-.9 1-2.1 4-2.6 6.8-.6 3-.6 6.6 0 9 .5 2.2 2.8 9.6 5.1 16.5s4.7 12.8 5.4 13.2c.8.5 1.3 2.7 1.3 5.5 0 2.6-.5 5.3-1.2 6-.6.7-2.4 1.3-4 1.3-1.5 0-7.2-1.6-12.5-3.6-5.4-2-10.3-3.3-11-3-.7.3-1.3 1.8-1.3 3.3 0 1.5 1.4 9.8 3 18.3 1.7 8.5 4 18.2 5.2 21.5 1.2 3.3 2.7 6.9 3.5 8 1.1 1.6 1.2 3.5.4 9.7-.6 4.3-1.1 12.6-1.1 18.5s.5 14.8 1.1 19.8c.6 4.9 1.5 10 2 11.2.5 1.3 1.7 2.3 2.7 2.3.9 0 4.4-2.7 7.7-6.1 3.3-3.3 8-7.4 10.5-9 2.7-1.8 5.8-2.9 7.8-2.9 1.8 0 6.9.9 11.5 2 4.5 1.1 11.7 2 16 2 4.2 0 8.7.4 10 .8 1.2.5 5.3 4 9 7.8l6.7 6.9c3.3-3.1 4.9-5.5 5.7-7.3.9-2.3 1.3-8 1.3-19.5 0-8.9-.5-21.2-1.1-27.2-1.1-10.4-1.1-11.1.6-12 1.1-.6 2.9-1.9 4.1-3 1.2-1.1 2.6-3.8 3.3-6 .6-2.2 1.8-9.6 2.7-16.5.9-6.9 1.5-14.8 1.2-17.5-.2-3-1.3-6.3-2.6-8.3-1.2-1.8-2.7-3.2-3.4-3.2-.7-.1-3.4 2.6-6 6-2.6 3.3-5.8 6.4-7 6.9-1.3.4-3 1.6-3.8 2.5-.8.9-2.5 1.7-3.7 1.6-1.4 0-2.8-1-3.5-2.5-1.1-2-1-2.8.5-5 .9-1.4 1.7-3.3 1.7-4.3 0-.9.6-2.4 1.5-3.2 1.2-1.1 1.6-3.4 1.6-9-.1-5.4.9-11.5 3.4-21.5 2-7.7 3.5-15 3.5-16.3 0-1.2-.7-2.9-1.5-3.7-.8-.8-2.3-1.5-3.2-1.5-1 0-3.3.7-5.1 1.4-2 .8-5.1 3.9-8.2 8zm-33.3 194.6c2 0 3.8.7 4.6 1.7.7 1 2.1 2.3 3.2 2.9 1.2.6 2.1 2.3 2.3 4 .1 1.6-.3 3.5-1 4.3-.7.7-2.2 1.7-3.3 2.2-1.1.4-3.6.4-5.5-.1s-4.3-1.7-5.2-2.7c-1-1-1.9-3.2-2-5-.2-1.9.4-3.9 1.6-5.2 1.2-1.4 3.1-2.1 5.3-2.1zm81.3 1.1c.8-.1 2.1.4 2.8 1.1.7.7 1.2 2.3 1.2 3.5 0 1.3-1 3-2.2 3.8-1.6 1.1-7.7 2-19.8 3-10.3.9-21.6 1.2-27.5.8-5.5-.3-10.6-1.1-11.3-1.7-.7-.6-1.3-1.8-1.3-2.6s.9-2.2 1.8-3.1c1.5-1.4 5.7-1.8 25.3-2.3 12.9-.3 24.9-1 26.5-1.5 1.7-.5 3.7-1 4.5-1zm-115.5 5.9c.6 0 1.7.5 2.6 1.2.9.7 1.9 2 2.2 2.8.3.8-.1 2.5-.8 3.7-1 1.5-2.5 2.3-4.2 2.3-1.5 0-3.4-.5-4-1.2-.7-.7-1.4-2.3-1.4-3.5-.1-1.3.8-2.8 2.2-3.8 1.3-.8 2.9-1.5 3.4-1.5zm-37.4-992.8c3.2.2 5.6 1.1 8.4 3.3 2.1 1.6 4.5 4.6 5.3 6.5.8 2.1 1.1 4.7.7 6.5-.4 1.6-1.3 3.9-2.1 5-.7 1.1-3 3-5.1 4.2-2.2 1.3-5.5 2.2-8 2.3-2.4 0-6.1-.9-8.5-2.1-2.4-1.2-5.1-2.9-6.1-3.8-1.2-1.2-1.7-3.1-1.7-6.9 0-4.1.6-6 2.8-8.9 1.5-2 4.3-4.2 6.3-5 1.9-.7 5.5-1.2 8-1.1zm172.9 4.4c1.4.3 3.8 1.3 5.4 2.2 1.6.9 3.9 3 5 4.5 1.5 2 2.1 4.3 2.1 8s-.6 6.1-2.2 8.4c-1.5 2.2-3.6 3.6-6.5 4.4-3.2.9-5.2.9-7.8.1-3-.9-3.8-.8-6 .9-2 1.6-3 1.8-5.2.9-1.5-.5-3.3-2.2-3.8-3.8-.8-1.9-.8-4.1 0-7.5.5-2.6 1.7-6 2.4-7.5.8-1.5 2.7-3.9 4.3-5.4 1.5-1.5 4.4-3.4 6.3-4.2 1.9-.9 4.6-1.3 6-1zm-93.5 887.4c1.7-.1 4.3.8 5.8 2 1.5 1.1 2.7 2.5 2.7 3.2 0 .7.6 2 1.5 2.8.9.8 1.6 2.5 1.6 3.7-.1 1.3-1.1 3-2.3 3.8-1.3.8-3.3 1.5-4.5 1.5-1.3 0-3-1-3.8-2.3-.8-1.2-1.5-3-1.5-4 0-1.3-.5-1.6-2.2-1.1-1.4.3-3 0-4-1-1-.9-1.8-2.2-1.8-2.9 0-.7.4-1.7.8-2.2.4-.6 1.7-1.6 2.8-2.2 1-.7 3.3-1.3 4.9-1.3zm21 15.6c1.1.3 3 1.6 4.3 3 1.3 1.4 2.2 3.7 2.3 5.6 0 2-.7 3.9-1.8 4.8-1 .8-2.8 2-4 2.7-1.3.7-3.1 1.3-4 1.3-1 0-2.8-1.1-4.1-2.3q-2.2-2.2-2.2-5.7c0-1.9.7-4.6 1.6-5.8.9-1.3 2.6-2.7 3.8-3.2 1.2-.5 3-.6 4.1-.4zm-29.5 2.4c1.1 0 3.1 1.1 4.5 2.5 1.7 1.7 2.5 3.6 2.5 6 0 2.5-.6 3.9-2.2 5-1.3.8-3.1 1.5-4 1.5-1 0-3.1-1.4-4.8-3-1.6-1.7-3-3.9-2.9-5.1 0-1.1 1.1-3.1 2.4-4.5 1.3-1.3 3.3-2.4 4.5-2.4z" style="fill:#000"/>
</svg>
