<svg version="1.2" xmlns="http://www.w3.org/2000/svg" width="2048" height="2048">
    <path fill-rule="evenodd" d="M1920.3 505.1c3.7-.1 8.8.4 11.5 1 2.6.7 8.3 2.2 12.7 3.5 4.4 1.3 12.1 4.3 17 6.7 5 2.4 13.7 7.6 19.5 11.5 5.8 3.9 14.8 10.8 20 15.5 5.2 4.6 12.2 11.5 15.6 15.3 3.3 3.8 9 10.7 12.6 15.4 3.6 4.7 9.3 12.8 18.8 27.5l.1 20.5c0 19-.1 20.4-1.7 19-.9-.8-4.1-6.5-7.2-12.5-3.1-6-8.6-15.5-12.2-21-3.7-5.5-10.4-14.7-15.1-20.5-4.6-5.7-12.5-14.5-17.4-19.5-5-4.9-13.3-12.2-18.5-16.1-5.2-3.9-13.3-9.3-18-12-4.7-2.7-12.3-6.2-17-7.8-5.6-1.9-11.4-3-17-3.3-4.7-.3-10.3 0-12.5.6-2.2.6-5.8 2.2-8 3.6-2.2 1.5-5.2 4.3-6.7 6.3-1.4 2-3.4 5.7-4.3 8.2-.9 2.5-1.9 8.3-2.2 13-.3 5.7 0 11.6 1.1 18 .9 5.2 3 13.5 4.7 18.5 1.6 5 5.6 14.4 8.9 21 3.2 6.6 9.6 17.6 14.1 24.5 4.5 6.9 13.2 19.5 19.4 28 6.1 8.5 16.8 23.6 23.6 33.5 6.9 9.9 29.1 42.6 85.9 127.5l-.5 33.5-5.5-5.5c-3.6-3.6-20.8-28.4-49.5-71-24.1-36-49.1-72.9-55.5-82-6.4-9.1-15.9-22.4-21-29.5-5.2-7.1-12.7-18.2-16.8-24.5-4.1-6.3-10.4-17.6-14.1-25-3.7-7.4-8.1-17.8-9.8-23-1.7-5.2-4-13.3-5-18-1.3-6-1.8-12.7-1.8-22.5 0-10.6.5-15.5 1.9-20 1-3.3 3.2-8.7 4.9-12 1.8-3.3 5.7-8.5 8.7-11.5 3.1-3 7.8-6.7 10.5-8.2 2.8-1.5 8.2-3.6 12-4.6 3.8-1.1 10-2 13.8-2.1zm-362.8 232.2c3.8.3 9.7 1.4 13 2.6 3.3 1.2 8.9 4.1 12.5 6.5 3.6 2.4 9.2 7.2 12.5 10.7 3.3 3.5 8.1 9.6 10.7 13.4 2.5 3.9 7.6 12.6 11.3 19.5 3.7 6.9 8.9 17.2 11.5 23 2.6 5.8 6.3 14.1 8 18.5 1.8 4.4 5.7 14.7 8.7 23 3 8.2 10.2 28.5 16 45 5.7 16.5 10.5 30.1 10.6 30.3.1.1 9.9-4.6 21.7-10.6 11.8-5.9 28.7-13.9 37.5-17.6 8.8-3.7 24.6-9.7 35-13.2 10.5-3.6 25.5-8.3 33.5-10.5 8-2.2 21.1-5.3 29.3-6.9 8.1-1.7 21.6-3.9 30-5 8.3-1 24.2-2.4 35.2-3 14.1-.8 25.6-.8 39-.1 10.5.6 23.5 1.7 29 2.5 5.5.9 14.3 2.4 19.5 3.5 5.2 1.1 14.2 3.1 20 4.6 5.8 1.5 16.1 4.5 23 6.7 6.9 2.2 14.9 4.9 23 7.8v24l-7.2-2.9c-4-1.6-13.8-5-21.8-7.6-8-2.6-20.8-6.2-28.5-8.1-7.7-1.8-19.4-4.2-26-5.3-6.6-1.1-19.4-2.5-28.5-3.1-9.9-.8-22.7-1-32-.6-8.5.4-22 1.4-30 2.2-8 .8-21 2.6-29 4-8 1.3-21 4-29 6s-23.5 6.5-34.5 10.1c-11 3.6-28.8 10.1-39.5 14.3-10.7 4.3-25.3 10.5-32.5 13.8-7.2 3.2-16.8 7.8-21.5 10.2-4.7 2.3-8.7 4.4-9 4.6-.3.3 1.2 6.2 3.2 13.2 2.1 7 6.2 22.6 9.2 34.7 3 12.1 7.1 29.7 9.1 39s3.3 18.2 3 19.7c-.3 1.7.1 3.7 1 5 .8 1.3 1.5 3.2 1.5 4.3 0 1.1-2.3 7.7-5 14.7-2.8 7.1-5 13.4-5 14 .1.7 1.7-1.9 3.7-5.7 1.9-3.8 4.3-7.8 5.2-8.8.9-1 2.9-1.8 4.6-1.8 1.7 0 3.5.6 4.2 1.3.6.7 1.4 2.4 1.8 3.8.5 1.9-1.2 6.2-7.4 18.5-4.4 8.8-12.2 22.5-17.1 30.5-5 8-12.7 19.5-17 25.5-4.4 6-12.3 16.4-17.6 23-5.2 6.6-15.5 18.7-22.7 26.9-7.3 8.2-20.9 22.3-30.2 31.5-9.4 9.1-22.7 21.3-29.5 27-6.9 5.8-16.8 13.7-22 17.5-5.2 3.9-15.1 10.6-22 14.9-6.9 4.3-19.5 11.4-28 15.7-8.5 4.3-21.6 10.3-29 13.5-7.4 3.1-21.8 8.3-32 11.5-10.2 3.2-21.2 6.7-24.5 7.7-4.5 1.3-6.1 2.3-6.3 3.8-.1 1.1-.7 4.2-1.2 7-.5 2.7-2.3 6.9-4 9.2-1.6 2.4-4.8 5.2-7 6.3-2.2 1.1-5.9 2-8.2 2-2.9 0-6-1-9.3-2.9-2.8-1.5-6.6-5-8.7-7.7-2-2.7-5-7.8-6.7-11.4-1.7-3.6-4.1-10.5-5.3-15.5-1.5-6.4-1.9-9.7-1.2-11.5.5-1.3 2.1-3.1 3.6-4 2.5-1.4 2.9-1.4 5.5.6 2.2 1.7 3.2 3.9 4.9 10.5 1.2 4.6 3.6 11.2 5.3 14.6 1.7 3.5 4.7 7.9 6.6 9.8 1.9 1.9 4.1 3.5 4.8 3.5.6.1 1.9-.7 2.8-1.7.9-1 1.9-2.8 2.3-4.1.5-2 .2-2.2-2.6-2.2-1.8.1-4.5-.8-6-2-1.6-1.1-2.8-2.9-2.8-4s.5-2.9 1-4c.6-1.1 3-2.9 5.5-4 2.9-1.3 4.5-2.6 4.5-3.8-.1-.9-.9-5.5-1.9-10.2-1-4.7-1.6-9.8-1.2-11.4.3-1.6 1.5-3.5 2.6-4.3 1.1-.7 3-1.3 4.3-1.3 1.2 0 3.2 1 4.5 2.2 1.6 1.6 2.9 4.8 4 10 1.7 7.7 1.7 7.8 4.5 7.2 1.5-.4 6.8-2.2 11.7-4.1 5-2 14.6-6.4 21.5-9.8 6.9-3.4 20.2-10.6 29.5-16 9.3-5.3 23.5-14 31.5-19.2 8-5.3 20.3-13.9 27.5-19.2 7.2-5.4 18.4-14.2 25-19.6 6.6-5.4 17.8-15 25-21.3 7.2-6.4 22.7-21.2 34.5-33.1 11.9-11.9 25.3-26.3 30-32.1 4.6-5.8 11-14.5 14.3-19.5 3.2-5 7.6-12.6 9.8-17 2.1-4.4 6.3-14.8 9.2-23 3-8.3 7-18.8 8.9-23.5 3.5-8.5 3.5-8.5 1.6-11-1.2-1.6-4-12-7.8-28.5-3.2-14.3-7.7-33.2-10-42-2.3-8.8-6.2-23-8.7-31.5-2.5-8.5-8.6-27-13.5-41s-12.7-36.3-17.5-49.5c-4.7-13.2-11.2-30.3-14.5-38-3.3-7.7-8.9-19.6-12.5-26.5-3.6-6.9-9.3-16.8-12.8-22-3.5-5.4-9-12-12.6-15.3-3.5-3.2-8.9-7-11.9-8.5-3.2-1.5-7.8-2.8-11-3-3.7-.3-7 .2-10 1.4-2.9 1.1-7.1 4.4-12 9.3-4.1 4.2-13.6 16.2-21 26.6-7.4 10.5-16.9 23.3-21.1 28.5-4.2 5.2-11 12.7-15 16.6-4.1 3.9-10.3 9-13.9 11.3-3.6 2.3-9 5.1-12 6.3-3.8 1.4-8.7 2.2-16 2.5-6.8.3-14.7-.1-22.5-1.1-6.6-1-19.9-3.2-29.5-5.1-9.6-1.9-22.7-4.3-29-5.4-6.3-1.1-16.2-2.5-22-3.2-5.8-.7-19.7-1.2-31-1.2-12.3 0-25.7.7-33.5 1.6-7.2.9-19.5 3-27.5 4.7-8 1.7-22.4 5.3-32 8.1-9.6 2.7-18.6 5.5-20 6.2-1.4.7-2.6 2.1-2.7 3.2-.2 1.1-1.5 3.1-2.9 4.5-1.8 1.8-3.7 2.5-6.4 2.5-2.4 0-4.6-.7-6-2-1.2-1.1-6.6-7.9-12-15s-14-18-19.2-24c-5.2-6-15.5-17.1-22.9-24.6-7.6-7.8-16.2-15.5-19.9-17.8-3.6-2.3-9-4.9-12-5.8-3.7-1-7-1.3-10-.8-2.5.4-6.7 1.9-9.5 3.3-2.7 1.4-7.1 4.6-9.6 7.1s-6.8 8-9.4 12.1c-2.7 4.1-6.3 10.6-8.1 14.5-1.8 3.9-4.8 11.7-6.8 17.5-1.9 5.8-4.6 15.7-6 22-1.4 6.3-3.2 17.8-4.1 25.5-1.4 12.3-1.6 23.1-1 89.5.6 63.3.4 82.6-1 119.5-1 24.2-1.8 63.1-1.8 86.5-.1 25.2.4 48.6 1.1 57.5.7 8.2 1.5 16.3 1.7 18 .4 2.5 2.4 4.3 11.3 10.6 5.9 4.2 17.2 11.6 25.2 16.4 8 4.8 20.8 11.8 28.5 15.5 7.7 3.8 19.6 9.2 26.5 12.1 6.9 2.8 17.5 7 23.5 9.1 6.1 2.2 16 5.2 22 6.8 6.1 1.5 15.1 3.5 20 4.4 5 .9 10.8 1.6 13 1.6 2.8.1 4.6-.6 6-2.1 1.1-1.1 4.3-3.5 7-5.3 2.8-1.8 7.5-4.1 10.5-5.1 3.8-1.2 7.3-1.6 11.5-1.3 3.3.3 8.3 1.5 11 2.7 2.8 1.2 6.2 3.4 7.8 4.9 1.5 1.5 3.2 3.9 3.7 5.4.8 2.1.6 3.4-.5 5.3-.8 1.4-2.7 2.8-4.2 3.1-1.8.3-3.5 0-4.8-1-1.1-.9-3.1-2.5-4.5-3.7-1.5-1.2-4.6-2.3-7.5-2.6-2.7-.3-6.6-.1-8.5.5-1.9.6-5.3 2.4-7.5 4s-4.7 4.1-5.5 5.6c-1.4 2.5-1.4 2.7.8 4.1 1.5 1.1 2.1 2.3 2 4.2-.2 2.3-.8 2.8-3 3-2.5.3-2.8.7-2.8 3.8 0 2.6.8 4.3 3 6.5s3.9 3 6.5 3c1.9 0 4.5-.5 5.8-1.1 1.2-.7 4.1-2.9 6.5-5 2.7-2.5 5.2-3.9 7-3.9 1.5 0 3.7.7 5 1.5 1.2.8 2.6 3 3.1 4.7.5 1.8 1.8 11.4 2.7 21.3 1 9.9 1.4 19.2 1.1 20.7-.4 1.6-1.7 3.5-2.9 4.4-1.5 1-3.3 1.3-5 1-1.6-.3-3.5-1.6-4.3-2.9-.9-1.2-2.3-8.1-5-29.4l-4 1.8c-2.2 1-6.2 1.9-9 1.9-2.7 0-6.8-.6-8.9-1.3-2.1-.6-5.7-2.8-7.9-4.7-2.2-1.9-4.9-5.3-6-7.5-1.1-2.2-2.3-6.7-3.2-15.9l-8.2-2.3c-4.6-1.3-16.5-5.6-26.5-9.7-10.1-4-30.9-11.5-46.3-16.6-15.4-5-34.7-11.7-43-14.7-8.2-3.1-19.4-7.5-24.7-9.9-7.4-3.3-9.8-4-9.8-2.9 0 .8 1.5 7.7 3.4 15.2 1.9 7.6 5.7 23.5 8.5 35.3 2.8 11.8 6.7 30.3 8.6 41 2 10.7 5.1 30.3 7 43.5 1.9 13.2 5.3 39.3 7.5 58 2.2 18.7 4.9 40.8 6 49 1.2 8.2 3.4 23.1 5.1 33 1.7 9.9 4.3 24.3 6 32 1.6 7.7 4.7 21 7 29.5 2.2 8.5 6.7 23.8 10.1 34 3.3 10.2 9.2 26.4 13.1 36 3.8 9.6 11.3 26.3 16.8 37 5.4 10.7 13.5 25.1 18 32 4.5 6.9 10.8 15.7 13.9 19.5 3.2 3.8 9.1 10.3 13.1 14.2 4.1 4 9.7 8.9 12.4 10.9 2.8 2 7.3 4.7 10 6 2.9 1.4 6.9 2.4 9.5 2.4 2.9 0 6.4-.9 10-2.7 3-1.5 8.4-5.7 12-9.3 3.6-3.6 9.1-10.3 12.2-15 3.1-4.7 8.2-13.9 11.4-20.5 3.3-7 9.6-23.8 15.1-40.5 5.2-15.7 10.7-31 12.3-34 1.7-3 4.9-7.8 7.1-10.5 2.3-2.8 6.9-7.2 10.3-9.9 3.3-2.7 9.7-6.6 14.1-8.7 4.4-2.1 12.1-4.9 17-6.4 5-1.4 13.5-3.3 19-4.1 7.9-1.3 15.9-1.5 38-1.1 19.4.3 31.2 1 38.5 2.2 5.8.9 14.2 2.8 18.8 4.1 4.5 1.3 10.8 3.7 14 5.3 3.1 1.5 8.4 5 11.7 7.8 3.6 2.9 8.2 8.2 11.6 13.3 3.1 4.7 7 11.2 8.7 14.5 1.6 3.3 7.8 18.2 13.7 33 5.9 14.8 12.8 31.5 15.5 37 2.6 5.5 7.6 14.3 11 19.5 3.5 5.2 9 12.2 12.4 15.6 3.4 3.4 8.5 7.3 11.4 8.8 2.8 1.4 8.7 3.6 13 4.8 6.1 1.8 10.3 2.3 20.2 2.3 11.9 0 12.8-.1 18.3-3 3.3-1.7 6.7-3.9 7.6-5 .9-1.1 2.3-4.3 3-7 .7-3 7.8-16.4 18-34 9.3-16 20.3-35.1 24.4-42.5 7.6-13.4 7.7-13.7 15.1-41.5 6.2-23.3 7.5-29.1 7.3-34.7-.2-6 .1-6.9 2.5-9.5 2.2-2.3 3.5-6.2 7.8-23.8 2.7-11.5 5.6-22.3 6.3-23.9.6-1.6 2.4-4 4-5.3 1.8-1.5 4-2.3 6.5-2.3 2.8 0 4.4.7 9.7 6.1l.3 14c.1 7.6.4 13.9.7 13.9.3 0 4.9-1.9 10.3-4.1 5.3-2.3 16.2-6.3 24.2-8.9 8-2.6 20.1-6.2 27-7.9 6.9-1.6 18.6-4.1 26-5.5 7.4-1.4 19.1-3.3 26-4.2 8.1-1.1 22.6-1.8 41-2.1 24.7-.4 31.1-.2 47.5 1.6 10.5 1.2 28.5 3.7 40 5.6 11.6 1.9 28.7 5 38 7 9.3 1.9 25 5.5 52.5 12v11.3c0 6.1-.1 11.2-.2 11.2-.2 0-11.1-2.5-24.3-5.6-13.2-3-32.8-7.3-43.5-9.4-10.7-2.2-28.9-5.3-40.5-6.9-11.5-1.7-25.9-3.5-32-4.1-6-.6-20.4-1.1-32-1.1-11.5 0-25.3.5-30.5 1.1-8.3 1-9.9 1.5-12.7 4.1-1.8 1.6-5.7 3.5-8.5 4.3-2.9.8-16.1 4.4-29.3 8-13.2 3.6-33 9.4-44 13.1q-20 6.5-22.7 9c-2.2 1.9-3.9 2.5-7.5 2.5-2.7 0-5.9.6-7.2 1.3-2 1-2.9 3.2-5.6 14.2-1.8 7.2-4.7 17-6.5 22-1.8 5-7.2 16.9-12 26.5-4.8 9.6-10.4 22-12.4 27.5-2.1 5.5-7.7 18.1-12.6 28-4.9 9.9-12 22.7-15.7 28.5-3.8 5.8-9.8 13.9-13.4 18-3.5 4.1-9.1 9.4-12.4 11.8-3.3 2.5-8.5 5.6-11.5 7-3 1.4-8.9 3.4-13 4.4-4.1 1-10.3 1.8-13.7 1.8-3.5 0-8.2-.4-10.5-1-2.4-.5-8.3-1.8-13.3-3-5.3-1.2-12.9-3.9-18.5-6.7-7.9-3.9-10.9-6.1-18-13.2-4.7-4.7-11.4-12.9-14.9-18.1-3.5-5.2-9.2-15.3-12.7-22.5-3.5-7.2-10.6-24-15.9-37.5-5.3-13.5-12.1-29.2-15.1-35-3-5.8-6.8-12-8.4-13.7-1.7-1.8-5.1-4.9-7.7-6.9-2.7-2-8-4.6-12.3-5.9-4.1-1.2-11.8-3.1-17-4-6.7-1.2-17.1-1.9-35.5-2.2-21.2-.5-27.9-.2-36.5 1.1-5.8.9-14.3 3-19 4.5-4.7 1.6-11.2 4.5-14.5 6.4-3.3 2-7.8 5.5-10.1 7.9-2.2 2.4-5 5.9-6.2 7.8-1.2 1.9-6.3 16.3-11.5 32s-11.4 33-13.9 38.5c-2.4 5.5-6.9 14.3-10 19.5-3.1 5.2-8.7 13.3-12.5 18-3.7 4.6-10 11.1-13.8 14.3-3.8 3.2-9.9 7.3-13.5 9-5.4 2.6-8 3.2-15.5 3.5-7.1.3-10.2 0-15-1.6-3.3-1.1-8.9-3.7-12.5-5.8-3.6-2.1-10.3-7-15-10.9-4.7-3.9-12.1-11.3-16.5-16.4-4.4-5.1-10.6-12.9-13.8-17.4-3.3-4.5-8.4-12.2-11.5-17.2-3.1-5-9.9-17.5-15.2-28-5.3-10.5-13.2-28.2-17.7-39.5s-10.8-28.8-14.1-39c-3.3-10.2-8-26.6-10.6-36.5-2.5-9.9-6.1-25.9-8-35.5-1.9-9.6-5.1-28.1-7-41-1.9-12.9-5.4-39-7.6-58-2.2-19-5.2-42.8-6.6-53-1.3-10.2-3.8-26.8-5.5-37-1.7-10.2-4.4-25-6-33-1.7-8-6.6-29.1-10.9-47-4.3-17.9-8.8-37.2-9.9-43-1.1-5.8-2.7-15.9-3.6-22.5-1.7-11.8-1.7-12-5.3-15-2.1-1.6-5.2-4.4-6.9-6.2-1.8-1.8-3.2-4.1-3-5 .1-1 1.2-2.2 2.3-2.8 1.2-.5 3.1-1.9 4.3-3 1.3-1.3 2.7-1.7 3.6-1.3 1.3.7 1.5-4.7 1.4-46-.1-27.7.6-64 1.6-89.2 1.3-33.1 1.6-61.2 1.3-126.5-.3-82.8-.3-84.2 1.9-98 1.2-7.7 3.6-19.2 5.2-25.5 1.6-6.3 4.5-16 6.6-21.5 2.1-5.5 5.6-13.6 7.8-18s5.8-10.9 8.2-14.5c2.3-3.6 6.4-9 9.2-12 2.7-3 8.1-7.6 11.9-10.2 3.8-2.7 9.6-5.7 12.9-6.9 3.3-1.1 8.9-2.3 12.5-2.6 4.2-.3 8.9.1 13.3 1.1 3.7.9 9.7 3.1 13.5 5 3.7 1.8 10.1 6 14.2 9.3 4.1 3.3 11.8 10.4 17 15.9 5.2 5.5 13.3 14.4 17.9 19.9 4.6 5.5 12.2 15.2 17 21.6 4.7 6.4 9.5 12.8 12.6 16.9l10-3.6c5.5-1.9 17-5.5 25.5-8s22-5.8 30-7.4c8-1.6 19.7-3.4 26-4.1 6.3-.7 20.5-1.3 31.5-1.2 11 0 24.5.5 30 1.2s15.2 2.1 21.5 3.2c6.3 1.1 19.4 3.5 29 5.4 9.6 1.9 22.9 4.1 29.5 5 6.9 1 16.1 1.5 21.5 1.3 8.2-.3 10.4-.8 16-3.5 4-1.9 9.6-6 14.4-10.5 4.3-4 11.3-11.6 15.5-16.8 4.2-5.2 13.7-18 21.1-28.4 7.4-10.4 16.2-21.9 19.6-25.5 3.3-3.6 8.7-8.4 11.9-10.6 3.2-2.2 8.1-4.8 10.9-5.8 3.6-1.2 7.1-1.6 12.1-1.4zm-23.1 538.7c-6.6 4.7-13.1 9.3-14.4 10.3-1.4 1-.2.6 2.5-.9 2.8-1.5 10.1-6.3 16.4-10.8 6.3-4.4 16.8-12.7 23.5-18.2 6.7-5.6 12.9-11.1 14-12.3 1-1.1 1.7-2.1 1.5-2-.2 0-7.4 5.8-16 12.7-8.6 7-20.9 16.5-27.5 21.2zm-508.7 3.2c.6 3 1.5 3.7 9.7 7.4 5 2.3 16.5 6.9 25.6 10.3 9.1 3.4 16.6 5.9 16.8 5.6.1-.3-1.9-1.6-4.5-2.9-2.7-1.3-10-5.4-16.3-9.1-6.3-3.7-16.1-9.8-21.7-13.6-5.7-3.8-10.6-6.9-10.9-6.9-.3 0-.3 1.3 0 3s.9 4.5 1.3 6.2zm152.3 59.1c1.9.8 5.4 1.7 7.8 2.1 3.3.5 4.2.3 4.2-.9 0-.9-.9-1.5-2.2-1.5-1.3 0-4.8-.2-7.8-.5l-5.5-.5zM1560.8 787c.6-.1 2.2 1.1 3.5 2.5 1.4 1.6 2.2 3.6 2.1 5.2-.1 1.5-4.7 11.7-10.1 22.7-7.9 16.1-10.3 20.3-12.5 21.3-2.3 1-3.3 1-5.5 0-1.5-.7-3.1-2.6-3.6-4.3-.9-2.7.1-5 9.8-24 6.7-13.3 11.5-21.5 12.9-22.2 1.1-.6 2.7-1.2 3.4-1.2zm16 9.1c1.4.2 3.3 1.5 4.2 3 1.7 2.6 1.6 3.2-1.1 15.2-1.6 7-3.6 14.2-4.4 16.1-.8 1.9-2.6 4-4 4.5-1.7.7-3.2.7-4.7-.1-1.3-.7-2.6-1.7-3-2.3-.4-.6-.8-2.5-.8-4.3 0-1.8 1.6-9 3.5-16 2.5-8.7 4.3-13.4 5.7-14.6 1.2-1 3.3-1.6 4.6-1.5zm-487.3 31.8c1.1 0 3 .7 4.2 1.7 1.4 1.2 3.6 6.3 6.3 14.8 2.3 7.2 4.5 15.1 4.8 17.7.6 3.9.4 5-1.3 6.8a6.93 6.93 0 0 1-5.2 2c-2.3 0-3.8-.7-4.8-2.2-.8-1.3-2.1-4.8-3-7.8-.9-3-2.5-8.6-3.6-12.5-1.6-5.5-2.3-6.6-3-5.2-.5 1-.5 5.6.1 11.5.5 5.3 1.3 13.5 1.6 18.2.6 7.5.4 8.8-1.2 10.7-1.1 1.2-2.8 2.4-3.9 2.8-1.2.3-3-.2-4.7-1.5-2.1-1.5-3-3.3-3.8-7.2-.5-2.9-1.3-11.6-1.9-19.3-.6-8.2-.6-15.6-.1-18 .5-2.2 1.9-4.8 3.2-5.8 1.3-1 2.9-1.7 3.6-1.7.6 0 2.3.5 3.7 1 2.2.9 2.6.7 3.2-1.5.4-1.4 1.4-2.9 2.3-3.5.8-.5 2.4-1 3.5-1zm266 52.7c1.1.3 2.9 1.4 3.9 2.6 1.5 1.6 1.8 2.9 1.3 5.2-.4 1.6-1.5 3.7-2.5 4.5-1 .8-6.5 4.2-12.2 7.4-5.8 3.3-11.7 6-13.1 6-1.5.1-3.7-.8-4.8-1.9-1.2-1.1-2.2-2.9-2.1-4 0-1.1.7-3 1.5-4.2.8-1.3 6.3-5.1 12.3-8.7 5.9-3.5 11.4-6.6 12.2-6.9.8-.3 2.4-.3 3.5 0zm-88.5 20c1.4.2 3.3 1.2 4.3 2.1 1 1 1.8 3.1 1.7 5 0 2.3-.7 3.8-2.7 5.2-1.8 1.3-6.6 2.7-12.8 3.8-7.4 1.2-10.8 2.3-13 4.1-1.7 1.4-4.1 2.5-5.5 2.4-1.4 0-3.5-1.2-4.7-2.7-1.5-1.6-2.3-3.9-2.3-6.1 0-2.6.7-4.1 2.8-5.8 1.7-1.5 6.2-3.1 12.2-4.5 5.2-1.2 11.3-2.6 13.5-3.1 2.2-.5 5.1-.7 6.5-.4zm119.5 61.3c2.8 0 7.6.7 10.8 1.5 3.1.8 8.7 3 12.5 4.7 4.7 2.3 8.9 5.5 14.2 10.8 4.4 4.4 8.9 10 10.7 13.5 1.7 3.3 4.2 9.6 5.4 14 1.9 6.5 2.3 10.3 2.3 20-.1 9-.7 14-2.3 20-1.2 4.4-3.9 11.6-6 16-2.2 4.4-6.6 11.1-9.8 15-3.2 3.8-9 9-12.8 11.7-3.8 2.6-10.2 5.9-14 7.3-3.8 1.5-10.2 3.1-14 3.7-5.6.8-8.5.7-15-.6-4.4-.8-10.7-2.9-14-4.5-3.3-1.6-8.4-5.3-11.3-8.3-2.9-2.9-6.7-8-8.3-11.3-1.6-3.3-3.7-9.4-4.6-13.5-1.2-5.7-1.5-10.4-1-20 .4-8.1 1.3-15.1 2.7-20 1.1-4.1 3-9.8 4-12.7 1.1-2.9 3.3-7.9 4.9-11 2.3-4.4 2.8-6.6 2.4-9.3-.3-1.9 0-4.5.6-5.7.6-1.3 3.7-4 6.9-6.1 3.1-2.1 8.4-5.3 11.7-7.2 3.3-1.9 8.9-4.4 12.5-5.7 3.6-1.2 8.8-2.3 11.5-2.3zm-16.4 22.6c-1.4 1.3-3.1 2.4-3.8 2.4-.7 0-2.7 1.7-4.3 3.8-1.7 2-4.4 7.1-6.1 11.2-1.6 4.1-4.1 9.8-5.4 12.5-1.3 2.8-3.1 8.5-3.9 12.8-.9 4.2-1.6 12.6-1.6 18.5s.6 13 1.4 15.7c.7 2.8 2 6.4 2.9 8 .8 1.7 3.3 4.7 5.4 6.7 2.1 2 5.4 4.4 7.3 5.3 1.9 1 6.2 2.2 9.5 2.7 4.1.6 8.1.6 12.5-.2 3.6-.6 9.4-2.5 12.9-4.3 3.6-1.8 9-5.7 12.1-8.7 3.1-3 7.2-8.4 9.2-12 2-3.6 4.6-9.6 5.7-13.5 1.2-3.8 2.4-10.8 2.7-15.5.4-5.9.1-10.7-1-16-.9-4.1-2.7-9.7-3.9-12.5-1.3-2.7-4.1-7-6.3-9.4-2.1-2.4-5.7-5.6-7.9-7.1s-6.6-3.7-9.7-4.8c-3.2-1.2-7.9-2.2-10.5-2.1-2.7 0-7 .9-9.8 2-2.7 1.1-6.1 3.1-7.4 4.5zM1221 966c5.4-.1 11.3.6 16 1.8 4.1 1 9.8 3 12.5 4.4 2.8 1.4 7.3 4.5 10 6.9 2.8 2.5 6.4 7.2 8.2 10.4 1.7 3.3 3.9 8.6 4.9 11.9 1.2 4.1 1.8 9.3 1.8 16.5 0 7.7-.6 12.9-2.3 19.5-1.3 5-3.8 12.4-5.5 16.5-1.8 4.1-4.9 10.2-7.1 13.5-2.1 3.3-5.4 8-7.4 10.3-2 2.4-6.3 6.4-9.6 8.9s-8.6 5.8-11.7 7.4c-3.2 1.6-8.6 3.6-12 4.4-3.5.8-8.7 1.5-11.5 1.5-2.9 0-7.7-.5-10.5-1.1-2.9-.6-7.3-2-9.8-3.1-2.5-1.1-6.7-3.6-9.3-5.6-2.6-2-6.5-6.2-8.7-9.2-2.1-3-5-8.4-6.3-12-1.4-3.6-3-10.1-3.7-14.5-.7-4.6-.9-10.7-.5-14.5.4-3.6 1.3-9.6 2.1-13.5.8-3.8 2.6-10.4 4-14.5s4.4-11.1 6.7-15.4c2.3-4.4 6-10.1 8.3-12.7 2.5-3 5.1-4.9 7-5.3 1.6-.3 4.7-1.9 6.9-3.7 2.2-1.7 5.7-3.9 7.8-5 2-1 5.4-2.3 7.5-2.8 2-.5 7.5-.9 12.2-1zm-24 26.6c-4.1 3.9-8.5 7.3-9.7 7.7q-2.3.6-4.9 6.4c-1.4 3.1-3.7 10-5 15.2-1.3 5.2-2.7 12.9-3 17-.4 4.2-.1 10.8.5 15 .7 4.1 2.3 9.8 3.6 12.5 1.3 2.9 4.6 7.1 7.7 9.8 3.7 3.4 6.9 5.3 10.8 6.4 3.8 1.1 7.8 1.4 13 1 5.9-.4 9-1.3 14.5-4 4.8-2.4 9.1-5.7 13.6-10.4 3.6-3.7 8.2-9.7 10.2-13.3 1.9-3.6 4.7-9.9 6.1-14 1.3-4.1 3-11.3 3.6-16 .9-6.4 1-10.3.1-15.7-.6-4-2.2-9.4-3.5-12-1.3-2.6-3.8-6.1-5.7-7.7-1.9-1.6-5.9-4-8.9-5.4-4.6-2.1-7.3-2.6-16.5-2.9-9.3-.3-11.6-.1-15 1.6-2.2 1-7.4 5-11.5 8.8zm408.1 26.3c1.6 0 3.6.7 4.4 1.5.8.8 1.5 2.5 1.5 3.8 0 1.2-1 3.2-2.2 4.3-1.3 1.2-11.1 7.2-21.8 13.4-10.7 6.2-21.3 12.5-23.5 14-2.2 1.5-5 3-6.2 3.4-1.3.3-3.2.2-4.3-.4-1.1-.5-2.2-1.9-2.5-3-.3-1.1 0-2.9.5-4s3.6-3.7 6.8-5.8c3.1-2.2 14.4-9.1 25.1-15.5 12.7-7.7 20.4-11.7 22.2-11.7zm12.7 26c2.2 0 3.6.7 4.7 2.3.9 1.4 1.2 3.1.7 4.6-.4 1.2-1.7 2.9-2.9 3.7-1.3.8-9.6 4.6-18.5 8.5-9 3.9-21.9 9.3-28.8 12.1-7.9 3.1-13.3 4.7-14.7 4.4-1.3-.3-2.9-1.7-3.5-3-1.1-2.1-1-2.8.3-4.8 1-1.4 6.1-4.2 13.5-7.2 6.6-2.8 19.6-8.5 28.9-12.8 10-4.6 18.3-7.8 20.3-7.8zm-315.9 1c3.6 0 5.8.8 10.1 3.5 3 2 6.1 4.8 6.9 6.3.9 1.7 1.2 4.7.9 8.2-.2 3-1.6 8.2-3 11.5-1.4 3.3-3 7.7-3.7 9.8-.9 2.9-.8 5.3.4 11.2.8 4.1 1.6 7.5 1.7 7.5.2 0 2.1-.6 4.3-1.3 2.2-.7 5.8-2.6 8-4 2.3-1.6 5.4-2.7 7.2-2.7 2.4 0 3.7.7 4.8 2.5 1.2 2.1 1.3 3.1.3 5.8-.6 1.8-1.2 6.4-1.3 10.2 0 4.9-.7 8.4-2.3 11.8-1.2 2.6-3.4 5.5-4.8 6.5-2.1 1.3-3.2 1.5-5.3.7-1.4-.6-3.2-2.4-4-4-1.2-2.6-1.2-3.6.3-7.7.9-2.6 1.3-4.8.8-4.8-.4-.1-1.4.7-2.2 1.6-.8.9-2.4 2.1-3.5 2.6-1.4.7-2.9.6-4.8-.3-1.5-.8-3-2.2-3.3-3.1-.2-1-1.5-2-2.9-2.3-1.4-.3-3.1-1.7-3.9-3.2-.8-1.5-2.6-8.5-4-15.5-2.2-11-3.1-13.4-6-17-1.9-2.4-4.4-6.5-5.6-9.3-1.6-3.6-2.1-6.1-1.6-9 .3-2.2 1.8-5.5 3.2-7.5 1.5-1.9 4.1-4.5 5.7-5.7 2.1-1.6 4.4-2.3 7.6-2.3zm-271.3 2c1.6 0 7.7 4.3 17.1 11.9 8.2 6.5 16.5 13.7 18.5 16 2.6 2.8 3.8 5 3.8 7.1q0 3-2.3 4.5c-1.2.9-2.5 1.5-3 1.5-.4 0-3.3-2.4-6.5-5.3-3.1-2.9-10.9-9.3-17.2-14.2-6.3-5-12.5-10.1-13.8-11.5-1.2-1.4-2.3-3.3-2.4-4.4-.1-1.1.7-2.7 1.7-3.8 1-1 2.9-1.8 4.1-1.8zm.5 34.4c1.6.3 10.4 4.7 19.6 9.8 9.3 5 17.8 9.7 19 10.5 1.5.8 2.3 2.3 2.3 4.1.1 1.5-.7 3.4-1.7 4.2-1 .8-2.7 1.4-3.8 1.4-1.1 0-10.1-4.2-20-9.3-9.9-5.1-19-10.3-20.3-11.7-1.2-1.3-2.2-3.1-2.2-3.9 0-.8 1-2.4 2.1-3.6 1.6-1.5 2.9-1.9 5-1.5zm447.4 3.8c2.2-.1 6 .3 8.5.9 2.5.6 5.7 2.2 7.3 3.7 1.5 1.5 3.2 4.1 3.8 5.7.8 2.3.7 4.4-.5 8.5-.9 3.4-3 7.2-5.3 9.9-2.1 2.5-5.6 5.3-7.8 6.3s-6.1 1.8-8.7 1.8c-2.7 0-6-.5-7.5-1-1.6-.6-3.9-2.1-5.1-3.3-1.3-1.2-3.3-3.9-4.3-5.9-1-2.1-1.9-5.7-1.9-8 0-3.7-.4-4.5-3-6-2.3-1.4-3-2.5-3-4.8q0-3 2.3-4.5c1.3-.9 6.1-1.9 11.7-2.4 5.2-.4 11.3-.9 13.5-.9zm-11 18c3.3 6.4 3.9 6.8 7.6 6.8 3.4 0 4.7-.6 7.5-3.5 2-2.1 3.4-4.5 3.4-6 0-2.4-.2-2.5-6.2-2.5-5.3.1-6.8.5-9.3 2.6zm-348.5 1c1.9-.1 6.4.6 10 1.4 3.6.9 8.3 2.6 10.5 3.9 2.4 1.3 4.7 3.8 5.8 5.9.9 2 1.7 5.6 1.7 7.9 0 2.4-1 6.2-2.3 8.7-1.2 2.4-3.8 5.5-5.7 6.8-1.9 1.3-5.7 2.6-8.5 2.9-3.3.4-6.4 0-9-1-2.3-.8-5.9-3.6-8.3-6.3-2.3-2.7-4.9-6.9-5.7-9.3-.9-2.5-1.5-6.5-1.5-8.8 0-2.3.6-5.4 1.3-6.7.6-1.4 2.8-3.2 4.7-3.9 1.9-.8 5.1-1.5 7-1.5zm-.2 18.4c1 2.2 2.9 4.7 4.3 5.7 1.3 1 3.6 1.8 5.2 1.8 1.5 0 3.6-.9 4.7-2 1.2-1.3 1.9-3.1 1.8-4.8-.3-2.3-1-3-5.3-4.4-2.7-.9-6.7-1.8-8.8-2.1-2.7-.4-3.8-.2-3.8.6.1.6.9 3 1.9 5.2zM609.2 1176c7 0 8 .2 9.3 2.2.8 1.2 1.2 3.3 1 4.5-.4 1.6.1 2.6 1.5 3.3 1.3.6 2.7 3.4 4.1 8.2 1.2 4 2.8 10 3.5 13.3.7 3.3 2.1 14.6 3.1 25.1 1.7 18 1.7 19.3.1 22.5-1.7 3.3-1.6 3.4.8 5.9 1.3 1.3 2.4 3.6 2.4 5 0 1.3-.9 3.4-2 4.5-1.8 1.9-1.9 2.9-1 21 .5 10.4.9 32.5.9 49 .1 16.5-.4 37.6-.9 47-.5 9.3-1.9 21.9-3 28-1.1 6-2 11.1-2 11.2 0 .1.7.3 1.5.3s2.1 1.1 2.8 2.4c1 2 .9 2.8-.4 4.7-1.6 2.2-1.5 2.5.3 4.9 1 1.3 1.9 3.1 1.8 4 0 .9 2.3 2.3 6.2 3.7 3.5 1.2 7.8 3.2 9.6 4.3 1.8 1.1 3.9 3.6 4.8 5.7.8 2.1 1.3 5 1 6.5-.3 1.5-1.9 3.9-3.6 5.3-1.6 1.3-3.5 2.5-4 2.5s-4.7 2.1-9.2 4.6c-4.6 2.6-9.4 5.7-10.8 6.9-1.4 1.2-5 3.8-8 5.6-3 1.8-6.5 4.4-7.7 5.6-1.3 1.2-3.5 2.5-5 2.9-1.6.3-6.4 2.7-18.8 9.7l1.8 3.6c.9 1.9 1.7 4.9 1.7 6.6 0 1.6-.9 4.8-1.9 7-1 2.2-2.9 4.9-4.2 6.1-1.3 1.2-4.2 3-6.4 4.2-2.8 1.4-3.5 2.2-2.5 2.5.8.3 2.7 1.1 4.3 1.6q2.7 1 2.7.1c0-.6.9-2.4 2-4 1.5-2.3 2.8-3 5-3 1.7 0 5.4 1.1 8.3 2.6 2.8 1.4 7.2 4.2 9.6 6.2 2.5 2 5.3 5.5 6.3 7.7.9 2.2 1.8 5.3 1.8 7 0 1.8.9 3.7 2.4 5 1.3 1.1 6 6.3 10.5 11.7 4.4 5.4 8.2 10.3 8.2 11 .1.7.1 1.9-.1 2.8-.1.8-.9 2-1.8 2.7-.9.7-2.3 1.3-2.9 1.3-.7 0-3.1-1.7-9.5-7.5l.7 3c.4 1.6.9 3.5 1.1 4.2.2.7 1.2 1.3 2.2 1.3.9 0 4.4 1.2 7.7 2.8 3.3 1.6 7 4 8.2 5.3 1.2 1.3 2.6 3.6 3.2 5.1.6 1.5 1.1 4.6 1.1 6.8 0 3 .5 4.2 2 5 1.1.5 3.4 2.9 5 5.2 2.3 3.2 3 5.3 3 8.5 0 2.3-.5 5.2-1 6.3-.5 1.1-2.6 2.6-4.5 3.5-3.1 1.3-4.1 1.3-9 0-3-.9-7.3-2.4-9.5-3.5s-4.2-2.8-4.5-3.8c-.2-1-1.8-2.1-3.5-2.5-1.6-.4-4.6-2.2-6.6-4-2-1.8-4.3-4.6-5.2-6.2-.8-1.7-1.5-5.1-1.6-7.6-.1-3.6-.4-4.5-1.6-4.2-.8.3-2.4 0-3.5-.5-1.4-.7-3.1-4.1-5.2-10.6-1.8-5.3-3.3-10.3-3.3-11.1 0-.9.9-3 2-4.8 1.3-2.1 1.9-4.2 1.5-6-.3-1.5-1.1-2.7-1.7-2.7-.7 0-3-1.2-8.8-5l-1.2 3.1c-.7 1.7-3.3 5-5.8 7.4-2.5 2.3-6.3 4.7-8.5 5.3-2.2.6-5.2 1.1-6.7 1.1-2 .1-2.7.5-2.5 1.7.1 1.1 2.2 2.2 6.2 3.3 3.3.9 7.4 2.4 9 3.3 1.7.9 4.2 2.9 5.7 4.4 1.5 1.6 3.2 4.1 3.7 5.6.6 1.5 1.1 4.9 1.1 7.5 0 2.6-.6 6.6-1.3 8.8-.6 2.2-3.2 6-5.7 8.6-3.2 3.3-5.9 5.1-9.3 6-2.6.8-5 1.9-5.2 2.6-.3.7-1.2 1.3-2 1.3s-1.5.3-1.5.7c0 .4 1.7 1.4 3.7 2.1 2.1.8 7 2.8 10.8 4.6 3.9 1.7 8.2 4.6 9.8 6.4 1.5 1.7 3.2 5.1 3.8 7.4.8 3.2.8 5.3-.1 8.3-.7 2.2-2.9 5.6-4.9 7.6-2.2 2.2-5.3 4.1-8.1 4.8-2.5.7-5.6 1.1-7 .9-2.2-.3-2.5 0-2.2 2.2.2 1.9 1.8 3.2 7.4 6 3.8 1.9 8.5 5 10.2 7 1.8 1.9 3.8 5.3 4.5 7.5.8 2.3 1 5.4.6 7.5-.3 1.9-1.6 5-2.9 7-1.2 1.9-3.9 4.2-5.9 5.2-2 1-5.3 1.8-7.2 1.8-1.9 0-3.7.3-4 .7-.2.4 1.8 3.5 4.5 6.8 2.8 3.3 5.4 7.1 5.9 8.5.7 1.7.5 3.4-.5 5.5-.8 1.6-1.4 3.1-1.4 3.2 0 .1.8.2 1.8.2.9 0 3.1 1.5 4.8 3.3 1.8 1.8 3.7 4.3 4.3 5.5.6 1.2 1.1 3.7 1 5.5 0 1.8.2 4.5.5 6 .4 1.5 0 3.5-.6 4.3-.7.9-3.1 2.1-5.3 2.7-2.2.5-5.3 1.9-7 2.9-1.9 1.2-4.9 1.8-8.2 1.9-3 0-6.9-.8-9-1.8-2-1-5-3.5-6.5-5.7-1.6-2.2-3.1-5.8-3.5-8-.4-3 0-5.2 1.5-8.5 1.2-2.6 3.4-5.3 5.2-6.3 1.6-1 3.8-1.7 4.8-1.7s2.2-.4 2.5-.8c.4-.4-.5-1.6-2-2.7-1.4-1.1-3.7-3.8-4.9-6-1.4-2.3-2.7-6.5-3-9.5-.4-4.2-.1-6.4 1.3-9.2 1.7-3.5 1.7-3.8.1-6-1-1.3-2.7-4.7-3.8-7.6-1.3-3.3-2-7.6-2-11.7 0-3.7-.4-6.5-1-6.5-.5 0-1.8-1.2-2.7-2.6-1.5-2.2-1.6-2.9-.5-5 1-2.1 1.9-2.4 6-2.5 2.6 0 5.4-.4 6.2-.9 1.2-.7.7-1.7-3-5.2-2.4-2.4-5.5-6.8-6.9-9.8-1.3-3.1-2.6-8.2-2.9-11.5-.3-3.3 0-8.1.7-10.5.6-2.5 2.3-6 6.1-11l-3.6-4.8c-1.9-2.6-4.3-7.2-5.1-10.2-1.1-3.8-1.4-8.1-1.1-13.5.3-4.9 1.2-9.8 2.4-12.5 1.1-2.5 3-5.6 6.4-9l-2.2-1.9c-1.3-1-3.8-4.7-5.6-8.2-2.7-5.4-3.2-7.5-3.2-19.9l-5.2.6c-4.5.5-5.8.2-8.8-1.8-1.9-1.3-4.5-3.9-5.7-5.8-1.3-2-2.9-5.3-3.5-7.5-.5-2.3-.8-6.8.2-16.5l-4.7-2.1c-2.7-1.1-8.2-3.3-12.3-4.8-5.5-2-8.7-3.9-12.6-7.6-3.9-3.8-5.4-6-5.9-9-.5-2.8-.2-5.4.9-8.3 1-2.7 3-5.3 5.4-7 2.1-1.5 6-3.7 8.8-4.9 2.7-1.2 5.7-2.4 6.7-2.8.9-.3 1.5-.9 1.3-1.3-.3-.4-1.2-7.3-2-15.2-.8-8-1.8-25.1-2.2-38-.3-13-.1-40.2.5-60.5.6-20.4 2-53 3.1-72.5 1.1-19.6 2.7-43.4 3.4-53 1.2-15.7 1.6-17.7 3.5-19.3 1.1-1 1.9-2.4 1.6-3.2-.3-.9.4-2.7 1.5-4 1.3-1.6 3-2.5 4.8-2.5 1.5 0 11.2-3.2 21.7-7.1 10.5-4 24-8.9 30-11.1 6-2.2 14.2-4.9 18-5.9 3.9-1 10.5-1.9 14.8-1.9zm-36.8 30.9c-5.5 2.4-13.5 6-17.7 8.2-4.3 2.1-8 4.4-8.3 5.1-.2.7-1.4 10-2.5 20.8-1.1 10.7-2.2 21.9-2.5 25l-.6 5.5c13.6 5.4 19 8.2 20.8 9.7 3.1 2.6 3.6 2.7 8.1 1.7 2.6-.6 10.6-2 17.7-3.1 7.6-1.1 14.2-2.6 16-3.7 2.7-1.6 3-2.3 3-6.7 0-2.7.3-5.5.8-6.2.4-.7 1.6-1.2 2.7-1.2s3.2-1.1 4.8-2.3c1.5-1.3 3.3-2.5 3.9-2.8 1-.3.9-3.9-.2-16.4-.8-8.8-2-18.5-2.6-21.5-.5-3.1-1.7-7.8-2.6-10.5-.9-2.8-1.7-5.4-1.9-5.8-.2-.4-1.3-.2-2.4.5-1.5.9-2.5 1-3.8.2-.9-.7-1.8-2.3-1.8-3.8-.1-1.9-.7-2.6-2-2.6-1.1 0-5.7 1.3-10.4 2.8-4.7 1.6-13 4.8-18.5 7.1zm-49.2 9.6c0 2.2-.4 10.3-1.1 18-.6 7.7-2.2 33.5-3.4 57.5-1.7 33.2-2.2 56.2-2.2 97.5-.1 38.5.3 57 1.2 64.5 1 8.3 1.7 10.8 3.3 12 1.1.8 2 2.1 1.9 3 0 .8.5 2 1.2 2.7.7.7 2 1.3 2.8 1.3 1.3-.1 1.3-1.5-.2-11.8-.9-6.5-2.6-19.8-3.7-29.7-1.1-9.9-2.6-24.6-3.2-32.5-.7-9.1-.9-25-.6-42.5.4-15.4 1.5-39.3 2.7-53 1.1-13.8 3.1-35.2 4.4-47.5 1.4-12.4 3-27.6 3.7-33.9.6-6.2.9-11.4.7-11.5-.3-.1-2.1.3-4 .8-3.3 1-3.6 1.3-3.5 5.1zm89.1 66.5c-1.6 1.4-4.9 3.3-7.4 4.2-2.5.9-9.9 2.4-16.5 3.2-6.6.8-14.4 2.2-17.2 3-4 1.2-5.6 2.2-6.6 4.3-1 2.3-1.9 2.8-5.7 3.1-3.2.2-4.9-.1-5.7-1.3-1.2-1.4-1.6-1.2-3.8 1.5-1.8 2.1-3.4 3-5.5 3h-3c.8 60 1.6 92.5 2.1 111 .6 18.4 1.4 36.8 1.8 41 .5 6.7.8 7.4 2.6 7.1 1.1-.1 9-3 17.5-6.4 8.5-3.4 23.2-10 32.5-14.7 12.3-6.2 17.3-9.3 18.1-11.1.7-1.3 2.4-9 4-16.9 2.7-14.3 2.7-15.2 3.2-62 .2-26.2.1-54.9-.3-63.8-.3-8.9-1-16.2-1.5-16.2s-1.9 1.9-3.3 4.2c-1.3 2.3-3.7 5.4-5.3 6.8zm-70.9 11c.3 0 1.9-2 3.5-4.3l3-4.2c-5-2-6.6-2.6-6.7-2.6-.2 0-.3 2.5-.3 5.6 0 3 .2 5.5.5 5.5zm35.8 174.5c-5.7 3-10.2 5.7-10 6 .1.3 3.7-.9 8-2.5 4.2-1.7 13.2-5.8 20-9.2 10.6-5.3 12.7-6 16.2-5.5l4 .5c-4.3-3-5.5-4.7-5.5-5.8 0-1.1-.3-2-.7-2-.5.1-5.5 3-11.3 6.6-5.8 3.5-15.1 8.9-20.7 11.9zm-16.8 51.1c5.4 3.3 8.6 4.3 10.5 4.3 2.2.1 4.4-.7 5.8-1.9 1.2-1.1 2.4-3 2.5-4.1.2-1.1-.1-2.7-.7-3.5-.6-.9-1.8-1.5-2.6-1.4-.8.1-4.6 1.6-8.5 3.3zm-25.5 16.2c1.2 1.9 2.8 3.2 4 3.2 1.1 0 2.9-.9 4-2s2-2.6 2-3.4c0-.8-1.5-1.6-3.7-2-2.1-.4-4.7-1-5.9-1.2-1.4-.4-2.2-.1-2.3.8 0 .7.8 2.8 1.9 4.6zm22.7 11.1c-.6 1.4-1.1 5.1-1.1 8.1 0 3.8.6 6.6 2 9 1.1 2 3.6 4.6 5.5 5.9 2.5 1.7 4.2 2.1 6.4 1.7 1.7-.4 4.1-1.6 5.3-2.9 1.3-1.2 3-3.4 3.8-4.9.8-1.5 1.4-4.5 1.4-6.5.1-2.2-.7-4.8-1.7-6.1-1.3-1.6-4.4-2.9-11.2-4.6l-9.4-2.4zm37.3 4.7c1 2.2 2.8 5 3.9 6.2 1.2 1.3 3.1 2.3 4.2 2.3 1.6 0 2-.7 2-3.3 0-1.8-.7-4.2-1.5-5.5-.9-1.2-3.3-3.4-5.5-4.7-2.2-1.4-4.3-2.5-4.5-2.5-.3 0-.5.8-.5 1.7 0 1 .8 3.6 1.9 5.8zm-36.4 47.6c-.3 1.6-.1 5.1.5 7.9.5 2.7 1.6 6.2 2.4 7.7.7 1.5 2.3 3.7 3.6 4.8 1.3 1.2 3.6 2 5.7 2 2.5 0 4.1-.8 6.2-3 1.5-1.7 3-4.7 3.4-6.8.4-2.3.2-4.8-.6-6.5-.7-1.5-2.4-3.2-3.7-3.9-1.4-.7-5.8-2.1-9.8-3.2l-7.2-1.9zm55.5 2.4c0 .2 1.3-.1 3-.8 1.6-.7 3-1.6 3-2 0-.4-1.7-.7-3.7-.7-2.9 0-3.5.3-3 1.5.4.8.7 1.7.7 2zm9.8 7.6c-2.1 1.5-2.2 2-1.1 4.3.7 1.4 2.4 3.2 3.8 4.1 2.2 1.3 2.8 1.3 5 0 1.4-.9 3-2.8 3.5-4.3.6-1.5.8-3.8.5-5-.3-1.2-2-3.1-3.8-4.2-1.8-1.1-3.7-2-4.3-2-.7 0-1.2 1.2-1.2 2.7 0 1.7-.9 3.4-2.4 4.4zm-61.6 43.1c.4 2.3 1.9 5.9 3.3 8 1.3 2.1 3.5 4.5 4.7 5.3 1.3.8 4.1 1.5 6.3 1.5 2.5 0 4.6-.6 5.8-1.7.9-1 1.7-2.6 1.7-3.6s-.4-2.5-.8-3.4c-.4-.9-3-2.8-5.7-4.1-2.8-1.4-7.5-3.4-10.5-4.4l-5.5-1.9zm5.2 48.3q1.4 5 5 8.2c2.3 2.2 4.6 3.3 6.6 3.3 2.2 0 3.3-.7 4.2-2.6.9-1.8 1-3.3.2-5.2-.6-1.7-3.1-4-6.5-6-3-1.8-6.7-3.7-8.3-4.2-2-.7-2.8-.6-2.7.3 0 .6.7 3.4 1.5 6.2zm773.1-386c2.2.3 5.7 1.6 7.7 2.8 2.1 1.2 4.5 3.6 5.3 5.4.8 1.9 1.2 4.3.8 6-.3 1.5-1.5 4.5-2.5 6.5-1 2.1-3.6 5.2-9.6 10.3l14 13.5c12.1 11.6 14.1 13.9 14.2 16.7 0 1.8-.7 3.9-1.7 4.9-.9.9-3 1.7-4.7 1.8-2.5 0-4.6-1.5-12.3-8.9-5.1-5-11.4-11.1-18.7-18v14.2c0 5.9-.4 7.6-2 9.3-1.1 1.1-3.3 2-4.8 2s-3.5-.8-4.5-1.8c-1.3-1.2-2.5-6.2-4.2-17.7-1.8-12.1-2.3-18.4-1.9-25.5.4-5.8 1.1-10.4 2-11.7.8-1.1 2.7-2.4 4.2-2.8 1.4-.4 3.6-1.6 4.7-2.6 1.1-1.1 3.8-2.6 6-3.4 2.4-1 5.5-1.3 8-1zm-40.5 7.5c.8 0 2.5.6 3.7 1.5 1.2.8 2.7 3.2 3.2 5.2.6 2.4.7 7.6.1 14.3-.5 5.7-1.4 12.5-2.1 15-.7 2.4-2 6.4-3.1 8.7-1 2.4-3.5 6.1-5.6 8.4-2.1 2.3-5.5 5-7.7 6.2-2.3 1.1-6 2-8.5 2-3 .1-6.1-.8-9-2.4-2.5-1.3-5.8-4.2-7.6-6.4-1.7-2.2-4-6.6-5.2-9.8-1.3-3.1-2.7-9-3.3-13-.6-4-.8-9.3-.4-11.7.3-2.5 1.5-6.2 2.6-8.3 1-2 2.8-4.2 3.9-4.7 1.1-.6 3.2-1 4.7-1s3.7.6 4.8 1.3c1.1.7 2.5 2.7 3.2 4.3 1 2.1 1.1 3.6.3 5.6-.6 1.5-2.3 3.2-3.8 3.8-2.7 1-2.7 1.2-2 6.3.4 2.8 1.4 7.4 2.2 10.2.8 2.7 2.8 6.4 4.5 8.2 1.7 1.8 3.9 3.3 5 3.3 1 0 3.2-1.3 4.7-2.9 1.6-1.5 3.7-5.2 4.8-8.2 1.2-3.6 2.1-9.6 2.5-17.4.4-7.2 1.2-12.9 2-14.2.7-1.3 2.1-2.7 2.9-3.3.9-.5 2.3-1 3.2-1zm-776.2 225c1.8 0 3.8.6 4.7 1.5.8.8 1.5 2.5 1.5 3.7 0 1.3-.4 2.7-1 3.3-.6.6 1 2.5 4.7 5.5 3.1 2.4 6.5 5.7 7.7 7.3 1.5 2.1 2.1 4.3 2.1 8.6 0 5.1-.5 6.4-3.1 9.7-1.9 2.3-4.8 4.5-7.3 5.4-3.2 1.1-5.1 1.2-8.1.5-3.3-.9-4.2-.8-5.5.7-.9 1-1.4 1.9-1.3 2 .1.2 2.4 1.4 5.1 2.8 2.8 1.4 5.5 3.7 6.3 5.2.7 1.5 1.3 4 1.3 5.5 0 1.8-1.3 4-3.7 6.4-2.4 2.2-5.1 3.8-7.5 4.2-2.1.4-5.5.2-7.7-.3-2.2-.6-5.5-2.3-7.2-3.8-1.8-1.5-4-4.5-5-6.7s-1.8-5.3-1.8-6.8-.5-3-1-3.2c-.6-.3-1-1.5-1-2.8 0-1.3 2-4.5 4.7-7.4 3.9-4.3 5.5-5.3 9-5.8 4.1-.5 4.2-.6 3.3-3-.6-1.4-1-5.7-1-9.5 0-3.9.4-8.9 1-11.3.5-2.3 2.5-5.9 4.4-8 2.5-2.8 4.1-3.7 6.4-3.7zm-.1 29.9c1 1.9 2.6 3.9 3.6 4.5 1.4.9 2.2.6 3.8-1.4 1-1.4 1.9-3 1.9-3.5-.1-.6-2.1-2.9-4.6-5.3-2.4-2.3-4.9-4.2-5.4-4.2-.6 0-1 1.4-1 3.2 0 1.8.7 4.8 1.7 6.7zm-28.3 36c1.7 0 3.6.6 4.3 1.3.7.7 1.3 2.2 1.3 3.3 0 1.1-1.6 3.4-3.5 5.2-2 1.8-3.5 3.7-3.5 4.3 0 .5 2.5 1.7 5.7 2.5 3.2.9 7.6 2.6 9.8 3.9 2.3 1.4 4.7 3.7 5.7 5.9 1 2 1.8 4.7 1.8 5.9 0 1.3-1 3.8-2.3 5.7-1.2 1.8-3.5 4.3-5.1 5.5-1.8 1.3-4.8 2.2-8.5 2.4-3.5.3-6.6-.1-8.1-.9-2.4-1.2-2.5-1.2-1.7.6.5 1.1 1.2 4.7 1.7 8s.9 9.3.9 13.5c.1 5-.4 8.2-1.4 9.7-1.2 1.7-2.9 2.4-7.3 2.9-5.7.6-5.7.7-3.3 2.3 1.3.8 3.9 3.6 5.7 6.1 2.6 3.4 3.4 5.4 3.4 8.5 0 2.2-.9 5.3-1.9 7-.9 1.6-3.3 3.9-5.2 5.2-1.9 1.2-5.5 2.5-7.9 2.9-2.5.3-4.9 1.2-5.2 1.8-.4.6.2 2.2 1.3 3.6 1 1.3 1.9 3 1.9 3.7 0 .7 2.2 3.5 5 6.3q5 5 5 7.5c0 1.5-.8 2.9-2 3.5-1.1.5-3.6 1-5.5 1-3 0-3.6.3-3.6 2.2 0 1.3-1.7 3.9-3.7 5.9-2.5 2.4-5.1 3.9-7.7 4.4-2.5.4-5.6.2-8-.6-2.2-.6-5.2-2.4-6.7-3.8-1.4-1.5-2.9-4-3.3-5.6-.4-1.7-2-5.7-3.6-9-2.4-4.9-3-7.3-3-12.5.1-4.7.7-8 2.4-11.5 1.3-2.8 3.7-6.3 5.5-7.8 1.7-1.5 4.3-3 5.7-3.2 2.2-.5 2.5-1 2.5-5.5 0-2.8.6-6.5 1.3-8.3.7-1.8 3.1-4.8 5.2-6.6 3.4-2.9 4.5-3.3 8.2-3 2.3.2 4.3.3 4.3.1 0-.1-.7-1.5-1.4-3-1-2-2.8-3.2-6.2-4.2-2.7-.9-5.9-2.3-7.2-3.3-1.3-1-2.2-2.8-2.2-4.2 0-1.5.9-3.2 2.2-4.1 1.8-1.2 3.1-1.3 6.3-.5 2.2.5 4.3.8 4.7.5.4-.2.8-1.1.8-1.9 0-.9.8-3.2 1.8-5.3 1.1-2 2.9-4.6 4.1-5.7 1.6-1.4 3.7-2 6.7-2 2.4 0 4.4-.1 4.4-.3 0-.1-.9-1.7-2-3.5s-2.4-5.4-2.8-8.1c-.5-3.1-1.4-5.2-2.7-6-1.1-.7-2.3-2.2-2.7-3.2-.4-1.1-.1-2.9.7-4.2.9-1.3 2.4-2.2 4-2.2 1.8 0 2.9-.9 4.1-3.3.8-1.8 3-4.7 4.7-6.5 2.1-2.3 4-3.2 6.1-3.3zm-.6 33.3c.9 1 3 1.8 4.7 1.8 1.6 0 3.5-.6 4.2-1.5.7-.8 1-2 .8-2.5-.3-.6-2.7-1.7-5.3-2.5-2.6-.9-5.4-1.6-6.1-1.5-.9 0-1.1.6-.6 2.2.4 1.3 1.4 3.1 2.3 4zm-15.6 24.5c.2 1.7.9 2.8 2 3 1.4.2 1.8-.5 1.9-4.2 0-2.4-.4-4.7-1-5-.5-.3-1.5.3-2.1 1.4-.6 1.2-.9 3.3-.8 4.8zm-15.1 30c-.6 1.3-.9 3.6-.6 5.3.2 1.6 1.8 4.1 3.5 5.5 1.6 1.3 4.2 2.5 5.7 2.5s3.8-.7 5-1.5c1.2-.9 2.3-2 2.3-2.5 0-.6-2.1-3.1-4.5-5.5-2.5-2.5-4.5-5.2-4.5-6 0-.9-.8-1.5-1.8-1.5s-2.2.3-2.8.7c-.7.4-1.7 1.8-2.3 3zm176.2-58.8c2 0 3.9.8 5.3 2.3 1.1 1.2 2.6 3.3 4.4 6.8l3.7-2.6c2.7-1.9 4.5-2.4 6.5-2 1.5.3 3.2 1.5 3.8 2.6.5 1.2.6 2.9.1 4.2-.5 1.3-2.1 3.1-3.5 4-1.5 1-2.6 2.2-2.6 2.8 0 .5.7 2 1.7 3.2 1 1.3 2.9 2.4 4.3 2.5 1.3.2 3.3 1.3 4.3 2.5 1.3 1.6 1.7 3.3.9 9.3h6.1c3.9 0 7.1.7 8.7 1.7 1.3.9 3 2.9 3.6 4.4.6 1.6 1.6 5 2.2 7.6.6 2.6 1.2 5.9 1.2 7.3 0 1.3-1.4 3.9-3 5.7-2.5 2.9-3.5 3.3-7.8 3.3-4.5 0-5.2.3-6.9 3-1.1 1.6-3.8 3.8-5.9 4.8-3.2 1.6-5.2 1.8-10.4 1.3-3.6-.4-8.4-.8-10.6-.9-2.3-.1-4.9-.9-5.8-1.7-1.5-1.3-1.6-2.7-1.1-9.5.4-4.4 1.3-9.3 2.1-10.8.7-1.5 3.4-4.1 5.9-5.7 2.4-1.7 4.5-3.5 4.5-4 0-.6-.5-1-1-1-.6 0-2.1-1.7-3.4-3.8-1.3-2-2.9-6.7-3.5-10.2-.9-4.7-1.9-7.2-3.8-9-1.4-1.4-3.2-3.9-4.1-5.5-.8-1.7-1.5-4.6-1.4-6.5 0-2 .6-4.1 1.2-4.8.7-.7 2.6-1.2 4.3-1.3zm725.7-623.9c1.3 0 5.2 1.2 8.5 2.8 3.3 1.5 7.2 4.2 8.7 6 1.5 1.7 3.3 4.9 3.9 6.9.9 2.8.9 4.8.1 7.8-.7 2.4-2.5 5.3-4.7 7.2-2.3 2.2-5 3.5-7.8 3.9-3.2.4-5.5 0-9.2-1.6-2.8-1.2-5.9-2.9-6.9-3.8-1-1-2.7-3.4-3.8-5.5-1-2-1.8-4.7-1.8-6 0-1.2.9-3.8 1.9-5.7 1-2 2.3-4.9 2.9-6.5.6-1.7 2.1-3.6 3.4-4.2 1.2-.7 3.4-1.2 4.8-1.3zm-168.3 1c.1 0 1.7.6 3.5 1.3 1.8.8 5 3.3 7.2 5.8 2.1 2.4 4.5 5.8 5.2 7.6.8 1.8 1.3 4.5 1.3 6s-.8 4.6-1.8 6.8-3.5 5.3-5.6 7c-3.2 2.4-4.8 3-9.1 3-3.8 0-6.1-.6-8.1-2.1-1.6-1.1-3.7-3.8-4.8-6-1.1-2.2-2-5.8-2-8 0-2.3.6-5.3 1.5-6.8.8-1.4 2.3-3 3.3-3.4 1.1-.4 2.1-2 2.3-3.7.2-1.7.8-3.6 1.4-4.4.6-.7 2.1-1.7 3.3-2.2 1.2-.4 2.3-.8 2.4-.9zM593.3 1207c1.2.4 2.8 1.9 3.7 3.3 1.3 2.3 1.3 2.8-.3 5.1-1 1.5-3.7 3.6-6 4.6-2.3 1.1-5.5 2-7 2-1.7.1-3.3-.8-4.3-2.2-1-1.4-1.4-3.3-1-5 .3-1.5 1.6-3.3 2.8-4 1.2-.7 4-2 6.1-2.9 2.4-.9 4.7-1.3 6-.9zm-29.7 9.1c1.3 0 3.3.9 4.4 2 1.1 1.1 2 2.9 2 4s-.9 2.9-2 4-2.8 2-3.8 2-2.8-.7-4-1.5c-1.3-.9-2.3-2.7-2.4-4.2-.1-1.5.6-3.5 1.6-4.5s2.9-1.8 4.2-1.8zm12.9 86.9c.5 0 3 1.3 5.5 2.9 2.4 1.6 5.9 4.4 7.7 6.3 1.8 1.9 3.7 5.1 4.2 7.4.6 2.4.6 5.5 0 8-.5 2.2-1.7 5.1-2.8 6.5-1 1.3-3.4 3.5-5.2 4.7-2.1 1.4-4.9 2.3-7.2 2.3-2.1 0-5-.7-6.5-1.4-1.5-.8-3.7-2.5-4.9-3.8-1.2-1.3-2.9-4-3.8-6.1-.8-2-1.5-5.3-1.5-7.2 0-2 .4-4.4 1-5.5.5-1.1 1.9-2.5 3-3 1.4-.8 2.6-.6 4.5.5 2.1 1.3 2.4 2 1.9 5.2-.4 2.4-.1 4.9.8 6.8.8 1.6 2.1 3.3 2.9 3.7.7.3 1.7.5 2.1.2.4-.2.1-1.1-.7-1.9-.9-.9-1.6-2.5-1.6-3.8 0-1.2.9-3.4 3.9-7.2l-4.4-3.3c-3-2.2-4.5-4-4.6-5.7-.1-1.5.7-3 2.3-4 1.3-.8 2.8-1.6 3.4-1.6zm26.4 0c1.4 0 3.9 1 5.6 2.2 1.6 1.3 4.1 2.5 5.5 2.9 1.4.3 2.9 1.7 3.5 3.2.7 2 .6 3-.5 4.3-.9 1-1.5 3.5-1.5 5.7 0 3-.6 4.4-2.5 5.9-1.4 1.1-3.7 1.9-5 1.9-1.4 0-3.6-.8-5-1.8-1.3-.9-3-3.2-3.7-5-.8-1.8-1.4-6.3-1.5-10-.2-4.8.2-7.2 1.2-8 .7-.7 2.5-1.3 3.9-1.3zm-4.9 29.1c.8-.1 2 .5 2.7 1.2.7.7 1.3 2.7 1.3 4.5 0 1.8.5 4.3 1.1 5.5.8 1.7.8 3.2-.3 6.1-.7 2.2-2.1 4.3-3.1 4.8s-2.6.6-3.7.4c-1.1-.3-2.7-1.5-3.5-2.8-1-1.5-1.4-4-1.2-7.7.2-3.1 1-6.7 1.7-8 .7-1.4 1.7-2.9 2.4-3.3.6-.4 1.7-.7 2.6-.7zm5 40c1.3 0 3 .5 3.7 1.2.7.7 1.3 2.3 1.3 3.5 0 1.3-.7 2.9-1.5 3.8-.9.8-5.7 2.8-10.8 4.4-5.1 1.6-11.8 3.1-15 3.5-5.6.6-5.7.6-5.2 3.3.4 1.9-1.3 8.2-5.5 20.3-3.4 9.6-6.7 18-7.3 18.8-.7.7-2.5 1.2-4 1.2-2 0-3-.7-3.7-2.5-.8-1.8-.7-3.7.3-6.8.8-2.3 3.5-10.1 6.1-17.2 2.6-7.2 5.1-13.8 5.6-14.8.7-1.2.5-2.3-.5-3.5-.8-.9-1.5-2.4-1.6-3.2 0-.9.8-2.3 1.8-3.2 1.1-1 4.4-1.8 8.8-2.1 3.8-.3 11-1.9 16-3.6 4.9-1.6 10.1-3 11.5-3.1zm5.5 10c.8 0 3.5 1.9 6 4.2 2.5 2.4 4.8 5.1 5 6 .2 1 0 2.7-.5 3.8-.7 1.2-2.1 2-3.8 2-2 0-3.9-1.2-7-4.5-2.3-2.5-4.3-5.4-4.3-6.5-.1-1 .6-2.6 1.6-3.5.9-.8 2.2-1.5 3-1.5zm-24.4 22c3.2 0 7.4.6 9.4 1.5 1.9.8 3.9 2.4 4.5 3.5.5 1.1 1 3.5 1 5.5 0 1.9-.7 4.7-1.4 6.2-.8 1.5-2.8 4-4.5 5.5-2.6 2.3-4.1 2.8-8.4 2.7-4.7 0-5.6-.4-9-3.7-3.2-3.2-3.7-4.4-3.7-8.5 0-3.9.4-5.1 2.5-6.7 1.3-1.1 2.4-2.6 2.3-3.4-.1-.7.2-1.6.7-2 .4-.3 3.4-.6 6.6-.6z" style="fill:#000"/>
</svg>
