<svg version="1.2" xmlns="http://www.w3.org/2000/svg" width="2048" height="2048">
    <path fill-rule="evenodd" d="M1029.9 262.1c.3-.1 3 .4 6 1 3.1.5 8.5 1.9 12.1 3.1 3.6 1.1 9.7 3.6 13.5 5.6 3.8 1.9 10.6 6 15 9.1 4.4 3 14.7 11 23 17.6 12.1 9.7 17.8 15.3 30.3 29.5 8.5 9.6 21.3 25.4 28.6 35 7.2 9.6 17.6 24.2 23.1 32.5 5.5 8.2 14.6 23.1 20.2 33 5.6 9.9 15.4 28.6 21.7 41.5 6.7 13.7 16.9 37 24.4 56 7.1 17.9 14.4 36.3 16.2 41 1.8 4.7 7.5 18.8 12.8 31.5 5.2 12.6 11.2 27 13.3 32 3.3 8.1 4.1 9.1 7.1 10 2.4.8 4.7 3 9 9 3.2 4.4 6.5 10.2 7.3 13 .8 2.7 1.5 6.8 1.5 9s-1.4 7.3-3 11.2c-2.9 7.1-2.9 7.3-1 7.8 1.1.3 3.2 2.6 4.7 5.1 1.6 2.6 5.5 7.4 8.9 10.8 3.4 3.4 7.9 9.2 10.1 13.1 2.3 3.9 7.1 13.1 10.8 20.5 3.7 7.4 10.4 19.6 14.8 27 4.5 7.4 17.7 33.1 29.3 57 13 26.6 22.6 47.8 24.9 54.5 2 6 4.5 14.8 5.6 19.5 1.1 4.7 2.6 12.8 3.4 18 .7 5.2 1.6 12.9 2 17 .5 4.9 1.3 8.2 2.5 9.5.9 1.1 5.3 7.6 9.7 14.5 4.4 6.9 10.6 16.8 13.8 22 3.2 5.2 7.5 13.1 9.7 17.5 2.3 4.4 7.8 14.5 12.3 22.5 4.5 8 11.8 21 16.1 29 4.3 8 10.3 19.9 13.4 26.5 3.2 6.6 7.5 16.3 9.8 21.5 2.2 5.2 5.6 14.2 7.7 20 2 5.8 5.2 16.3 7 23.5 1.9 7.2 4.3 18 5.4 24 1.1 6 2.5 17.7 3.2 26 .7 9.5 1 22.7.6 36-.4 11.5-1.5 27.7-2.6 36-1.1 8.2-3.1 20.8-4.6 28-1.4 7.2-3.9 18-5.5 24s-4.1 14.4-5.6 18.5c-1.4 4.1-4.4 11.8-6.6 17-2.2 5.2-8 17.6-12.9 27.5-4.8 9.9-11.5 22-14.7 27-3.3 5-11.6 15.1-18.4 22.5-6.9 7.4-15.3 16.1-18.9 19.4-3.5 3.2-9.3 7.6-12.9 9.7-3.6 2.1-9.2 5-12.5 6.4-3.3 1.3-7.5 2.5-9.3 2.5-1.9 0-3.2.5-3.2 1.2s.7 5.8 1.5 11.3c.8 5.5 1.5 13.4 1.5 17.5q0 7.5-2.6 17c-1.5 5.2-5 14.7-7.8 21-2.9 6.3-7.2 14.7-9.7 18.5-2.5 3.8-8.1 10.8-12.5 15.4-4.3 4.6-12.6 12.5-18.4 17.4-5.8 5-15.2 12.2-21 16-5.8 3.7-17.9 10.6-27 15.2-9.1 4.6-24.4 11.5-34 15.3-9.6 3.9-20 7.7-23 8.6-3 .9-9.8 2.4-15 3.5-5.2 1.1-16.3 2.9-24.5 4-8.3 1.2-22.9 2.8-32.5 3.6-9.6.9-28.3 1.8-41.5 2.2-17.2.4-31.5.1-50.5-1.1-14.6-.9-35.3-2.6-46-3.7-10.7-1.1-25.1-2.9-32-4-6.9-1.2-20.2-3.9-29.5-6-9.4-2.2-19.5-4.6-22.5-5.5-3-.8-10.5-3.1-16.5-5.1-6.1-1.9-16.4-5.8-23-8.5-6.6-2.8-18.3-8.2-26-12-7.7-3.8-18.3-9.8-23.5-13.2-5.2-3.4-12.9-9-17-12.3-4.1-3.4-10.2-9.2-13.6-13-3.3-3.7-12.1-14.5-19.5-23.8-7.5-9.3-15.8-20.2-18.6-24-2.8-3.8-11.4-16.7-19.1-28.5-7.7-11.8-18.1-28.7-23.2-37.5-5.1-8.8-9.5-16.1-9.7-16.3-.1-.1-2.9 1.1-6.1 2.7-3.1 1.5-12 4.9-19.7 7.4-7.7 2.5-16.7 5.3-20 6.1-3.3.8-11.9 2.5-19 3.7-9.7 1.6-17.5 2.2-31 2.3-12.7 0-21.4-.5-29.5-1.7-6.3-1-17.1-3.1-24-4.8-6.9-1.6-16.8-4.3-22-6.1-5.2-1.7-14.5-5.4-20.5-8.2-6.1-2.9-15.1-7.6-20-10.6-5-3-11.5-7.2-14.5-9.4s-9.6-7.4-14.5-11.6c-5-4.3-12-10.9-15.8-14.9-3.7-3.9-8.8-9.9-11.3-13.4-2.5-3.4-7.7-11.4-11.4-17.7-3.8-6.3-8.7-15.4-10.9-20.3-2.3-4.8-5.3-13.1-6.7-18.5-2.1-7.6-2.7-12.9-3.1-24.7-.5-13-.2-16.2 1.6-24 1.2-5 4.1-13 6.6-18 2.4-5 6.8-12.2 9.8-16 2.9-3.8 8-9.2 11.3-11.8 3.2-2.7 10.4-7.1 15.9-9.7 5.5-2.7 12.9-5.7 16.5-6.6 3.8-.9 8.2-1.4 10.5-1.1 2.2.4 5.1 1.5 6.5 2.7 1.4 1.1 4.7 3.2 7.5 4.6 2.7 1.5 7.5 4.4 10.5 6.4 3 2.1 9.5 7.3 14.5 11.6 4.9 4.4 14.3 12.4 20.7 17.9 6.5 5.5 15.5 12.4 20 15.2 4.6 2.9 12.8 7.2 18.3 9.6 5.5 2.4 13.8 5.6 18.5 7.1 4.7 1.4 12.1 3.4 16.5 4.3 5.2 1 10.4 1.4 15 1 3.8-.3 7.8-.8 8.7-1.1 1-.3 1.8-1.2 1.8-1.9 0-.6-2-6.2-4.5-12.2-2.6-6-7.3-18.9-10.6-28.5-3.3-9.6-8.7-26-12.1-36.5-3.3-10.5-8-25.5-10.4-33.5-2.5-8-5.6-18.8-6.9-24-1.3-5.2-3.7-16.3-5.4-24.5-1.6-8.3-4.1-24.2-5.5-35.5-1.4-11.3-3.5-31.5-4.6-45-1.1-13.5-2.4-34.4-3-46.5-.5-12.1-1-32.1-1-44.5 0-12.4.3-24 .7-25.9.5-1.9 1.8-4.4 5.2-7.6l-4.9-5c-2.9-3.1-5-6.3-5.5-8.5-.4-2.1-.2-5.8.6-9 .7-3.3 2.2-6.3 3.5-7.5 2.2-1.9 2.3-2.6 2.4-17.5 0-8.5-.7-22.9-1.5-32-.8-9.1-2.1-21.7-3-28-.8-6.3-2.6-17.4-4-24.5-1.3-7.1-4.3-20.9-6.5-30.5-2.2-9.6-4.9-20.2-5.9-23.5-1-3.3-2.9-9.4-4.1-13.5-1.2-4.1-4.4-14.5-7-23-2.7-8.5-6.7-21.4-9-28.5-2.3-7.1-7.7-23.8-12-37s-9.2-28.7-11-34.5c-1.7-5.8-4.1-15.5-5.3-21.5-1.9-9.5-2.2-14.2-2.2-35 0-18.8.4-25.7 1.7-32 .9-4.4 2.6-10 3.6-12.5 1.1-2.5 3.3-5.8 4.8-7.3 2.6-2.5 4.1-2.9 14.9-4.2 6.6-.8 14.9-1.4 18.5-1.5 3.6 0 16.2 1.1 28 2.4 11.8 1.4 28.6 3.8 37.2 5.5 10.4 2 18.8 3.1 24.5 3.1 4.9 0 13.3-.7 18.8-1.5 5.5-.7 16.7-2.8 25-4.6 8.2-1.7 19.5-4.5 25-6.1 5.5-1.6 14.5-4.5 20-6.5 5.5-1.9 13.8-5.3 18.5-7.5 4.7-2.2 16.6-7.3 26.5-11.3 9.9-4 21.6-8.5 26-10 4.4-1.6 20.8-7.9 36.5-14.2 15.7-6.3 32.3-13.5 37-16 4.7-2.5 11.6-6.6 15.5-9.1 3.8-2.4 9.4-6.5 12.4-9.1 3.2-2.7 8.4-9.1 12.7-15.6 4-6.1 9.2-15.3 11.4-20.5 2.3-5.2 8.7-23 14.1-39.5 5.5-16.5 11.9-34.1 14.3-39 2.4-5 5.9-10.8 7.8-13 1.9-2.2 5.9-5.3 8.9-7 3-1.6 7.9-3.5 10.9-4.1 3-.7 5.7-1.3 5.9-1.3zm-10.6 26.4c-1.2 1.7-3.6 6.1-5.3 10-1.7 3.9-5.4 14.2-8.2 23-2.8 8.8-7.9 24.1-11.5 34-3.6 9.9-8.8 22.5-11.7 28-2.9 5.5-8 13.8-11.3 18.5-3.3 4.7-8.9 11.2-12.4 14.4-3.5 3.3-10 8.3-14.4 11.2-4.4 2.8-13.2 7.9-19.5 11.2-6.3 3.4-22.1 10.3-35 15.5-12.9 5.2-29.4 11.6-36.5 14.2-7.2 2.6-19.5 7.3-27.5 10.5s-19 7.9-24.5 10.5c-5.5 2.6-17 7.2-25.5 10.2-8.5 3-21.6 6.9-29 8.8-7.4 1.9-19.6 4.6-27 6-7.4 1.4-19.1 3.1-26 3.8-9.7.8-14.7.8-22.5-.1-5.5-.7-15.2-2.3-21.5-3.6-6.3-1.4-19.8-3.6-30-5.1-10.2-1.5-23.2-2.8-29-2.8-9-.2-11.2.1-15 2-2.6 1.2-4.9 3.2-5.3 4.5-.5 1.3-1.1 10.4-1.4 20.3-.5 14.1-.2 20.7 1.2 30.5.9 6.9 3 17.5 4.5 23.5s7.6 25.9 13.5 44 12.9 39.7 15.6 48c2.6 8.2 7.9 25.6 11.8 38.5 3.8 12.9 7.6 26.4 8.5 30 .8 3.6 2.6 11.5 4 17.5s3.6 17.3 5.1 25c1.4 7.7 3.4 21 4.5 29.5 1 8.5 2.4 23.4 3.1 33 .6 9.6 1 23.7.8 31.2l-.4 13.8c13.2 4.8 23.5 8.2 31.5 10.7 8 2.4 20.3 6 27.5 7.8 7.1 1.8 20 4.8 28.5 6.5 8.5 1.7 21.7 4 29.2 5.1 7.6 1 23.1 2.8 34.5 3.9 11.5 1.1 30.8 2.5 43 3 14.8.7 27.1.7 36.5 0 7.9-.5 19.7-1.5 26.3-2 6.6-.6 16.5-1.8 22-2.6s14.9-2.5 20.8-3.7l10.9-2.2c3.4-9.3 5.7-14.3 7.3-17 1.6-2.8 4.7-6.8 7-9 2.2-2.1 6.5-5 9.5-6.3 4.4-2 6.6-2.4 11-2 3 .3 7.3 1.5 9.5 2.6s5.2 3.3 6.7 4.9c1.5 1.5 3.2 4 3.7 5.5.6 1.6 1.1 4.3 1.1 6 .1 1.8-.8 4.5-2 6-1.5 2.1-2.8 2.8-5.5 2.8s-4-.7-5.5-2.8c-1.2-1.5-2.1-3.7-2-5 0-1.6-1-2.6-3.5-3.7-3-1.3-4-1.3-6.8-.1-1.7.7-4.4 2.6-5.9 4.2s-3.9 5.6-5.5 8.9c-2.5 5.4-2.8 7.1-2.8 16.5 0 9.2.3 11.1 2.5 15.4 1.4 2.7 4.2 6 6.5 7.7 2.2 1.5 5.2 3 6.7 3.4 2.3.4 3.5-.2 6.5-3.3 2-2 5.3-7.3 7.4-11.7 2.1-4.4 4.7-8.9 5.9-10 1.3-1.1 3.6-2 5.4-2 1.8 0 4.4.8 5.9 1.7 1.9 1.3 3.6 4.2 5.8 10 1.7 4.6 4.8 12.7 7 18 2.1 5.4 3.9 11.3 3.9 13 0 2.1-.8 4.1-2.2 5.5-1.3 1.3-3.6 2.3-5.3 2.3-1.7 0-3.9-.6-5-1.3-1.1-.8-3.7-5.6-5.8-10.8-2.1-5.2-4.3-9.9-4.8-10.4q-.9-1-.9.2c0 .7-2.1 3.6-4.8 6.4-2.6 2.8-6.4 6-8.5 7-2.3 1.2-5.8 1.9-9.2 1.9-3.7 0-7.2-.8-10.8-2.4-2.8-1.4-7-4-9.2-5.9-2.2-1.8-5.4-5.6-7.2-8.3-1.7-2.7-3.8-7-4.5-9.5-1.2-4.4-1.4-4.6-3.3-3.3-1.1.8-7.9 3.2-15 5.4-7.2 2.2-17.1 4.9-22 5.9-5 1.1-13.7 2.5-19.5 3.1-5.8.5-20 1-31.5 1-11.6 0-29.3-.4-39.5-1-10.2-.5-25.7-1.7-34.5-2.6-8.8-.8-30.6-4-48.5-6.9-17.9-3-39.9-7-49-8.9-9.1-1.9-21.9-4.8-28.5-6.5-6.6-1.7-14.7-3.9-18-5.1-3.3-1.1-6.1-2-6.3-2-.1 0 0 8.7.3 19.2.3 10.6 1 28.8 1.6 40.3.5 11.5 2.1 34.5 3.4 51 1.4 16.5 3.4 37.4 4.5 46.5 1.1 9.1 3.2 22.8 4.6 30.5 1.4 7.7 4.3 20.7 6.4 29 2.1 8.2 8.1 28.5 13.4 45 5.2 16.5 11.7 36.5 14.4 44.5 2.8 8 6.4 18.1 8 22.5 1.7 4.4 4.2 10.7 5.6 14 1.4 3.3 3.9 10.5 5.5 16 1.7 5.5 4.6 13.8 6.6 18.5 2 4.7 6 14.1 9 21 2.9 6.9 7.1 16.8 9.5 22 2.3 5.2 5.6 12.7 7.4 16.5 1.8 3.8 7.2 14 12.1 22.5 4.8 8.5 12.4 22 16.8 30s12.1 21.2 17 29.5c4.9 8.2 10.6 17.5 12.7 20.5 2.1 3 8.9 13.4 15.3 23s19 26.7 28 38 19.7 23.7 23.8 27.5c4.1 3.9 12.3 10.3 18.4 14.4 6 4 15.7 9.7 21.5 12.6 5.8 2.9 16.5 7.8 23.7 10.9 7.3 3.1 18.1 7.2 24 9.1 6 2 18.9 5.5 28.8 8 9.9 2.4 22.9 5.3 29 6.4 6 1.1 16.2 2.7 22.5 3.5 6.3.9 19.4 2.2 29 3 9.6.9 24.5 2 33 2.6 8.5.5 25.2 1 37 1s30.5-.7 41.5-1.5 24.3-2 29.5-2.5c5.2-.6 16-2.2 24-3.6 8-1.3 17.8-3.3 21.7-4.4 4-1.1 14.4-4.8 23-8.2 8.7-3.4 23.4-10.1 32.8-14.8 9.3-4.7 21.3-11.5 26.5-15 5.2-3.5 14.9-11.2 21.4-17 6.6-5.8 14.4-13.4 17.3-17 3.3-3.9 7.8-11.3 11.3-18.5 3.2-6.6 7-15.8 8.5-20.5 2.5-7.9 2.7-9.4 2.1-20-.3-6.3-1.5-15.5-2.6-20.5s-3.2-11.5-4.6-14.5c-1.4-3-4.5-8.2-6.8-11.5-2.4-3.3-6.2-7.7-8.5-9.8-2.2-2-6-4.7-8.4-5.8-2.3-1.2-8.3-3.1-13.2-4.2-7.3-1.7-12.7-2.1-28.5-2.1-10.7-.1-32.3.2-48 .6-15.9.4-32.2.3-37-.2-4.7-.5-13-1.7-18.5-2.5-5.5-.9-14.7-2.8-20.5-4.2-5.8-1.4-14.1-4.1-18.5-5.8-4.4-1.8-11.8-5.2-16.5-7.5-4.7-2.4-11-5.9-14-8-3-2-9.3-7-14-10.9-4.7-4-9.5-8.3-10.8-9.7-1.2-1.4-2.2-3.7-2.2-5.4 0-2 1-4 2.9-6 2-2.1 3.9-3 6-3 1.7 0 4.4.7 6.1 1.5 1.6.8 5.1 3.4 7.7 5.8 2.7 2.3 7.7 6.3 11.3 8.9 3.6 2.6 10.8 6.7 16 9.1 5.2 2.5 13.8 5.8 19 7.5 5.2 1.7 15.3 4.2 22.5 5.6 7.1 1.3 17.7 3 23.5 3.6 5.8.5 18.7 1 28.7 1 10.1 0 18.9-.2 19.5-.5.9-.4 1.2-2.4.9-6.8-.2-3.4.2-9.4.9-13.2.6-3.8 2.9-12 5-18s6.2-17.1 9-24.5c2.9-7.4 6.3-17.3 7.6-22 1.8-6.2 2.8-14.1 3.9-29 .9-11.3 2-23.9 2.6-28 .5-4.1 1.7-11.1 2.5-15.5.9-4.4 3.4-12.7 5.7-18.4 2.3-5.8 5.4-11.7 6.9-13.3 2.2-2.1 3.7-2.8 6.8-2.8 3.3 0 4.4.6 6.6 3.2 1.9 2.5 2.5 4.1 2.1 6.3-.3 1.7-2.1 7-4 12s-4.2 13-5.1 18c-.9 5-2.1 18-2.7 29-.5 11-1.6 24.5-2.4 30-.7 5.5-2.8 14.5-4.6 20-1.7 5.5-5.4 15.6-8.1 22.5-2.8 6.9-6.4 16.5-8 21.5-1.7 5-3.3 11.9-3.6 15.5-.2 3.6-.2 7.6.1 9l.6 2.5c26 1.1 37.5 2.1 42.3 2.9 4.9.9 12.1 2.7 16 4.1 4 1.4 9.5 4.1 12.3 5.9 2.7 1.9 7.7 6.3 11.1 9.8 3.3 3.5 7.8 9 10.1 12.3 2.2 3.3 4.8 7.6 5.8 9.5 1 1.9 1.8 3.6 1.9 3.7 0 .1 3.7-1.1 8.1-2.7 4.4-1.7 11.1-5.1 14.9-7.7 4.2-2.9 12.4-10.7 20.9-19.8 7.7-8.3 16.2-18.4 18.9-22.5 2.7-4.1 8.4-14.5 12.7-23 4.3-8.5 10.1-20.7 12.9-27 2.7-6.3 6.3-15.5 7.9-20.5 1.7-5 4.7-16.2 6.8-25 2-8.8 4.8-23.4 6.2-32.5 1.9-12.8 2.6-22 3-41.5.4-16.2.1-29.2-.6-37-.7-6.6-2.1-16.7-3.2-22.5-1.1-5.8-3.9-17-6.1-25-2.3-8-6.9-21.5-10.3-30-3.4-8.5-10.6-24.3-16-35s-14.5-27.8-20.3-38c-5.8-10.2-12.7-23.2-15.4-29-2.7-5.8-7.5-14.8-10.6-20l-5.7-9.5c-.4 10.9-.9 21.4-1.5 30.5-.6 9.1-1.7 21.2-2.6 27-.8 5.8-2.6 15.7-4 22-1.5 6.3-4.4 16.9-6.5 23.5-2.1 6.6-5.9 17.2-8.4 23.5-2.6 6.3-6.9 15.8-9.7 21-2.7 5.2-7.2 12.4-9.8 16-2.7 3.6-7.7 9.2-11.2 12.6-3.4 3.3-9.2 8.1-12.8 10.6-3.6 2.5-9.9 6.4-14 8.6-4.1 2.2-11.3 5.4-16 7-4.7 1.6-12.8 3.9-18 5-5.2 1.1-12.7 2.3-16.5 2.7-4.2.4-9.8.2-14-.6-3.9-.6-8.8-1.8-11-2.5l-4-1.4c-30 29.1-43.7 42.2-49.8 47.9-6.2 5.7-21.6 20.6-34.2 33.1-17.7 17.4-24 23.1-27.5 24.5-2.5.9-5.3 1.5-6.3 1.1-.9-.3-3.1.2-4.7 1.1-1.7 1-3 2.4-3 3 0 .7-1.3 2.8-2.9 4.5l-2.9 3.3c-21.3-.2-32.8-1.1-41.7-2.4-8.3-1.2-22-2.8-30.5-3.6-8.5-.7-20.5-1.5-26.5-1.6l-11-.2c-10.1 9.9-16.2 15.2-20 18-3.9 2.9-10.4 7.2-14.5 9.5-4.1 2.4-11.9 5.8-17.3 7.5-5.3 1.8-11.8 3.8-14.5 4.4-2.6.6-9.7 1.9-15.7 3-6.1 1.1-17.8 2.2-26 2.6-9.5.3-18.3.1-24-.6-5-.7-13.3-2.1-18.5-3.1-5.2-1.1-15.8-3.9-23.5-6.4-7.7-2.5-18.3-6.7-23.5-9.4-5.2-2.6-13.5-7.5-18.5-10.7-4.9-3.3-13.9-10.5-20-16.1-6-5.5-13.9-13.2-17.5-17.1-3.6-3.9-8.1-9.9-10-13.3-1.9-3.3-4.7-8-6.2-10.3-1.8-2.8-2.8-5.6-2.8-8.2 0-2.6.6-4.8 2-6.3 1.1-1.2 3.2-2.5 4.7-2.8q2.8-.7 6.3 1.2c2.5 1.4 4.8 4.3 8.5 10.9 3.6 6.4 7.4 11.4 13.5 17.5 4.7 4.7 12.9 12.1 18.1 16.5 5.3 4.4 13.4 10.3 18 13.2 4.6 2.8 12.2 7 16.9 9.2 4.7 2.2 14.6 5.7 22 7.9s18 4.8 23.5 5.8c7 1.2 14.7 1.8 25.5 1.7 11.4 0 18.9-.6 28.5-2.3 7.1-1.2 16.4-3.3 20.5-4.5 4.1-1.3 9.9-3.2 12.7-4.4 2.9-1.2 9.5-4.9 14.5-8.3 5.1-3.4 12.6-9.4 16.5-13.5 5.4-5.4 7.2-7.8 6.8-9.3-.3-1.2.6-3.4 2.4-5.8 1.6-2 4.2-6.4 5.9-9.7 1.6-3.3 4-9.4 5.2-13.5 1.8-6 2.2-9.1 1.8-15.5-.4-6.9-.9-9-4.4-15.3-3.7-7-4.1-7.3-7.4-7.2-2.6.1-4.2-.7-6.3-2.7-2.6-2.7-2.7-3.2-2.5-11.8.2-6.3-.3-10.7-1.5-14.8-.9-3.2-2.9-6.9-4.5-8.4-2.7-2.7-2.7-2.7-13.7-2-6.1.3-13.5 1.1-16.5 1.8-3 .6-10.5 1.1-16.5 1.1-7 0-13.7-.7-18.5-1.8-4.1-.9-10-2.7-13-3.9-3-1.1-10.5-5.1-16.5-8.7-6.1-3.6-14.6-9.2-19-12.3-4.4-3.2-10.4-7.8-13.4-10.4-3.6-3-8.1-8.7-13.2-16.6-4.3-6.6-9-13.6-10.4-15.5-2.4-3.3-2.6-4.2-2.5-14.8 0-6.1.3-11.4.7-11.7.5-.2 3.2 3.1 6.2 7.3 3 4.2 5.6 7.2 5.8 6.7.2-.5-.3-5.3-1.2-10.5-.8-5.2-1.8-13.8-2.1-19-.6-8.5-.4-9.8 1.3-12 1.1-1.4 3.8-3 5.9-3.7 3.1-1 5.4-.9 11.4.3 4.1.7 7.8 1.4 8.2 1.4.5 0 .5-2.1.2-4.8-.4-2.6-1.2-6.7-2-9.2-.9-3.2-.9-5.5-.2-8 .5-1.9 1.9-4.3 3.1-5.3 1.2-1 3.2-1.8 4.4-1.7 1.3 0 3.5 1.3 5 2.9 1.6 1.6 4.1 3.4 5.8 4 1.6.6 3.1 1 3.3.9.2-.2-.1-2.3-.6-4.8-.7-3.3-.6-5.4.4-7.8 1-2.1 2.3-3.4 4.1-3.8 1.8-.4 6 .3 11.3 1.9 4.7 1.4 13.7 4 20 5.7 6.3 1.8 22.5 6.9 36 11.4 13.5 4.6 35.7 12.7 49.5 18.1 13.7 5.3 31 11.7 38.2 14.1 7.3 2.4 14 4.4 14.8 4.4.9 0 1.5-.9 1.5-2.3.1-1.2 9.4-17 20.7-35.2 11.4-18.1 27.2-42.2 35.1-53.5 7.9-11.3 18.4-25.7 23.4-32 4.9-6.3 9.9-12.1 11.1-12.9 1.5-1 3.4-1.2 6.2-.7 2.2.4 7.1 1.1 11 1.5 4.3.5 7.8.4 9-.2 1.1-.5 3.6-1 5.5-.9 1.9 0 5.2.7 7.2 1.6 3.3 1.4 3.8 1.4 3.8.1 0-.8-.7-4.8-1.6-8.8-.8-3.9-2.2-10.8-3-15.2-.8-4.4-1.9-14-2.4-21.3-.6-8.2-.7-16.3-.1-21.5.5-4.5 1.5-10.2 2.1-12.7.7-2.6 2.6-5.9 4.5-7.8 2.3-2.2 4.2-3.2 6.4-3.2 2.1 0 4.1 1 6.1 3 1.7 1.7 3 4.1 3 5.5 0 1.4-.8 4.9-1.7 7.7-1.4 4.4-1.5 7.8-1 20.3.4 8.9 1.5 19.1 2.7 25 1.2 5.5 4.4 19.5 7.1 31 2.8 11.5 6.1 26.4 7.4 33 1.3 6.6 3.1 17.4 4.1 24 1.2 8.7 1.5 15.4 1 24.5-.4 8.3-1.4 15.9-3.1 22.5-1.4 5.5-4 13.2-5.9 17-1.9 3.8-6.2 10.2-9.6 14-3.4 3.8-7.3 9.1-8.6 11.7-1.3 2.7-2.7 6.7-3.1 9-.6 4.2-.5 4.4 3.8 7.6 2.4 1.8 6.9 4.2 9.9 5.3 3 1.1 7.5 2.7 10 3.6 2.5.9 5.4 2.7 6.5 3.8 1.2 1.3 2.6 5.2 3.4 9.6.8 4.1 2.1 9.6 3.1 12.4.9 2.7 3 7 4.7 9.5 1.7 2.5 6.1 7.4 9.9 11 3.8 3.6 9.6 8.2 12.9 10.1 3.3 2 7.6 4.2 9.5 4.9 2.9 1.1 5.1 1 13-.4 5.2-.9 14.2-3.3 20-5.2 5.8-2 13.4-5.3 17-7.4 3.6-2 9.9-6.4 14-9.7 4.1-3.3 9.1-7.9 11.1-10.4 2-2.4 5.7-7.9 8.3-12.2 2.5-4.2 6.7-12.5 9.2-18.5 2.5-5.9 6.8-17.2 9.4-25.2 2.7-8 6-19.7 7.4-26 1.4-6.3 3.2-16.7 4-23 .8-6.3 2-22.1 2.6-35 .8-17.2.8-28.3 0-41.5-.6-9.9-1.8-23-2.6-29s-2.2-13.9-3-17.5c-.8-3.6-2.8-11-4.5-16.5-1.7-5.5-6.2-16.8-10.1-25-3.9-8.3-14-29-22.5-46-8.6-17-18.3-36-21.8-42-3.4-6-10.6-20-15.9-31-5.4-11-11.2-21.6-12.9-23.5-1.8-1.9-5-6.3-7.2-9.7-2.2-3.4-4.2-6.2-4.5-6.2-.3 0-6 7.5-12.8 16.7-6.7 9.2-18.2 23.7-25.5 32.3-7.2 8.5-19.9 23.4-28.2 33-8.2 9.6-18.1 20.9-22 25.2-3.8 4.4-12.2 12.6-18.5 18.4-6.3 5.9-16.7 14.5-23 19.3-6.3 4.8-15.1 10.8-19.5 13.3l-8 4.7c0 28-.2 30-2.3 34.5-1.3 2.7-3.7 6.5-5.5 8.3-1.8 1.8-5 3.7-7.2 4.3-2.9.7-4.9.7-7.5-.2-1.9-.7-4.9-2.5-6.5-3.9-1.7-1.5-4.4-4.9-6.2-7.6-1.7-2.7-4.6-8.5-6.3-12.9-1.8-4.4-4.5-12-6.1-17-1.6-5-2.9-9.7-2.9-10.5-.1-.8.8-2.7 2-4.3 1.4-1.9 2.9-2.7 5.2-2.7 1.9-.1 4 .7 5 1.7.9 1 2.6 4.3 3.6 7.3 1.1 3 3.6 9.8 5.7 15 2.1 5.2 5 11.3 6.4 13.4 1.4 2.2 3.2 4.1 3.8 4.3.8.2 1.6-1.2 1.9-3.5.4-2 .4-8.2.1-13.7-.3-5.5-1.7-14.7-3.2-20.5-1.4-5.8-2.3-11.7-2-13.3.3-1.5 1.5-3.4 2.7-4.2 1.3-.8 3.9-1.5 5.8-1.5 2.5 0 6-1.5 12-5.2 4.7-2.8 12.1-7.9 16.5-11.3 4.4-3.5 15.7-14.1 25-23.6 9.4-9.6 20-20.8 23.5-25 3.6-4.2 10.7-13.8 15.9-21.5 5.2-7.6 13.6-19.8 18.7-26.9 5-7.1 14.1-21.5 20.1-32 6-10.5 13.5-23.8 16.6-29.8 3.2-5.9 5.7-11 5.7-11.5 0-.4-1.2-1.2-2.7-1.7-1.6-.6-4-2.6-5.4-4.5-1.4-1.9-4.3-7.5-6.4-12.5-2-5-6.2-14.9-9.2-22-3-7.1-10.6-26-16.8-42-6.3-16-14.7-37.3-18.8-47.5-4.1-10.2-9.8-23.7-12.7-30-2.9-6.3-7.7-16.4-10.8-22.5-3-6.1-10-19.1-15.4-29-5.5-9.9-14.3-24.5-19.6-32.5-5.2-8-15.9-23.1-23.7-33.5-7.8-10.4-18.4-23.7-23.5-29.5-5.1-5.8-12.5-13.8-16.4-17.8-3.9-4-12.1-11.3-18.1-16.1-6.1-4.9-14.6-11.5-19-14.6-4.4-3.2-11.2-7.2-15-9-3.9-1.8-9.9-4-13.5-4.9-3.6-.9-7-1.6-7.5-1.6-.6.1-2.6.6-4.5 1.3-1.9.7-4.4 2.6-5.7 4.2zM1277.7 696c-5 9.1-10.9 19.4-13 23-2.2 3.6-9.5 14.4-16.2 24-6.7 9.6-13 18.9-14 20.5-1.4 2.2-1.4 2.6-.3 1.5.9-.8 7.5-8.5 14.8-17 7.2-8.5 18.4-22.2 24.8-30.5 6.4-8.2 13.7-17.9 16.1-21.5 2.4-3.6 6-9.9 7.9-14 1.9-4.1 3.7-9.1 4.1-11 .4-2.6 0-4.3-1.9-7.2-1.4-2.1-2.8-3.8-3.1-3.8-.3 0-2.7 4.4-5.3 9.7-2.6 5.4-8.9 17.2-13.9 26.3zM631.2 911c1.8 1.6 5.8 4.3 8.8 5.9 3 1.6 9.3 4.1 14 5.4 4.7 1.4 19.5 4.8 33 7.6s24.6 5 24.7 4.9c.1-.2-4.8-1.6-11-3.1-6.2-1.6-19.5-5.6-29.7-8.9-10.2-3.3-23.5-8.1-29.5-10.5-6.1-2.5-11.5-4.7-12.1-5-.6-.3-1.2-.2-1.2.1-.1.3 1.3 1.9 3 3.6zm532.9 45.7c-4 5.4-12.6 17.7-19 27.3-6.5 9.6-17.4 26.5-24.3 37.5-6.8 11-13 21.1-13.7 22.5-.7 1.4 1.2 0 4.6-3.5 3.2-3.3 14.8-17.9 25.7-32.5 10.9-14.6 25.5-34.9 32.3-45.3 6.7-10.3 12.2-18.9 12.1-19.1-.2-.2-1.8-.6-3.7-.8-2.8-.3-3.8 0-5 1.9-.9 1.3-4.9 6.7-9 12zm19.8 11c-2.1 3.5-3.7 6.3-3.4 6.3.3 0 3.4-3.7 6.8-8.3 3.5-4.5 7.9-10.7 9.9-13.7 1.9-3 3.7-6.1 4-6.8.3-.6.2-1.2-.2-1.2s-3.6 3.9-6.9 8.7c-3.4 4.9-8 11.6-10.2 15zm.6 29.8c-4.9 5.5-11.4 12.7-14.5 16-3 3.3-9.6 10.3-14.6 15.5-4.9 5.2-18.6 19.3-30.2 31.2-11.7 12-21.2 22.4-21.2 23-.1.7.7 2 1.6 2.8 1.1 1 1.5 2.6 1.2 5-.3 2.5.8 6.9 3.8 15 2.3 6.3 6 18 8.3 26 2.2 8 5.2 19.7 6.5 26 1.4 6.3 5.1 23 8.2 37 3.7 16.9 7.9 32.8 12.6 47 3.9 11.8 7.3 23.3 7.7 25.5l.6 4.1c24.8-26.2 39.2-40.6 48-48.9 8.8-8.3 24.7-23.6 35.2-33.9l19.3-18.8c-8.8-9.7-13.3-15.4-15.6-19-2.8-4.3-5.1-9.7-6.9-16-1.5-5.2-2.8-10-2.9-10.5-.2-.5-2.3-1.6-4.7-2.3-2.4-.8-8-3.3-12.4-5.5-4.4-2.3-9.7-5.9-11.8-7.9-2-2.1-4.4-5.3-5.3-7.1-.9-1.7-1.9-5.7-2.2-8.7-.3-3.4.2-7.9 1.2-11.8.9-3.4 2.9-8.8 4.5-12 1.6-3.1 5.9-9.1 9.6-13.2 3.7-4.1 7.4-8.8 8.2-10.5.9-1.7 2.4-5.7 3.4-9s2.3-9.4 3-13.5c.7-4.3 1-13 .7-20.5l-.5-13c-8-17.4-10.3-22.9-10.2-23.4.1-.6-.3-1.2-.9-1.5-.5-.2-5.4 4.8-10.8 11.2-5.4 6.4-13.9 16.1-18.9 21.7zm-257.3 35c4 .8 9.1 1.7 11.3 2 2.8.4 3.5.3 2.5-.4-.8-.5-4.9-1.9-9-3-4.1-1.2-8.2-2.4-9.1-2.6-.9-.3-1.9.1-2.3 1-.5 1.2.8 1.8 6.6 3zm-26 15.1c.7 2.6 2.1 5 3 5.5 1 .5 7.3 1.3 14 1.8 6.8.6 18.3 1.2 25.5 1.5 8.6.4 13.3.2 13.3-.4 0-.5-4.2-1.9-9.3-3-5-1.1-14.4-3.1-20.7-4.5-6.3-1.3-14.7-3.6-18.5-5-3.9-1.4-7.4-2.5-7.8-2.5-.4 0-.7.5-.7 1s.6 3.1 1.2 5.6zm-25.5 27.9c2 10.8 3.8 19.8 5.4 27l2.8 13c7.4 6.8 12.5 10.8 16.1 13.4 3.5 2.5 11.2 7.4 17 10.9 5.8 3.5 12.7 7.1 15.5 8.2 2.7 1 8.8 2.4 13.5 3 7.4 1 10.7.9 26-1 10.4-1.3 20.4-2.1 24.5-1.8 4.8.3 8.6 1.3 12 3 2.7 1.4 6.8 4.5 8.9 6.9 2.2 2.4 4.7 6.2 5.7 8.4.9 2.2 2.5 7.4 3.4 11.5 1.1 4.5 2.7 8.5 4.1 10 1.2 1.4 5.2 7.7 8.8 14 4.5 7.9 7.1 13.6 8.1 18.2.8 3.8 1.5 10.1 1.5 14 0 4.1-.9 10.9-2 15.3s-2 9.7-2 11.7c0 2.4-1.3 6.3-3.5 10.5-2 3.8-3.5 6.9-3.5 7 0 .2 3.5.3 7.7.3 4.3 0 14.1.5 21.8 1 7.7.6 21.4 2 30.5 3 9.1 1.1 18.2 2 20.2 2h3.8c-2.3-5.4-4.6-13-6.5-20.3-1.9-7.2-5.9-24.2-8.9-37.7-3-13.5-9.6-41.8-14.6-63-4.9-21.2-11.1-45.3-13.6-53.5-2.5-8.3-5.6-17.9-6.8-21.5l-2.4-6.5c-26.9-1.8-40.3-3.1-47.2-3.9-6.9-.9-17-2.1-22.5-2.6-5.5-.6-24.2-1.7-41.5-2.5s-41.4-2.3-53.5-3.5c-12.1-1.1-22.2-2-22.5-2-.3 0-1.8 1.7-3.4 3.7zm-380.5 166.4c-3 2.4-7.3 7.4-10.3 11.9-2.7 4.3-6.3 11.1-7.9 15.2-1.6 4.2-3.4 11.4-4 16-.8 6.3-.8 10.9 0 17.5.6 5 1.9 12.3 3 16.3s4 11.2 6.4 16c2.4 4.8 6.6 12.6 9.4 17.2 2.7 4.7 6.7 10.9 8.8 13.7 2.2 2.8 6.4 7.8 9.4 11s8.7 8.7 12.5 12.3c3.8 3.5 10.1 8.8 14 11.6 3.8 2.8 12.2 8.1 18.5 11.8 6.3 3.6 15.4 8.2 20.2 10.1 4.9 2 14.1 5.2 20.5 7.1 6.5 2 18.3 4.7 26.3 6.1 8 1.4 20.6 2.8 28 3.1 9.5.3 17.3 0 26.5-1.1 7.1-.9 17.5-2.8 23-4.1 5.5-1.3 15.2-4.2 21.5-6.4 6.3-2.2 13.6-4.9 16.2-6 2.7-1.2 4.8-2.4 4.8-2.7 0-.2-4.3-8-9.6-17.2s-11.6-21-13.9-26.3c-2.4-5.2-6.6-14.6-9.3-21-2.8-6.3-8.2-18.9-12.1-28-5.6-13-7.4-16.4-8.8-16.2-1 .1-5.9.7-10.8 1.3-5 .6-11.5.8-14.5.5-3-.4-8.9-1.4-13-2.2-4.1-.8-12.2-3.1-18-5-5.8-1.9-15.7-5.9-22-9-6.3-3-15.1-7.9-19.5-10.7-4.4-2.9-11.2-8-15-11.3-3.9-3.3-13.1-11.6-20.5-18.5-7.4-6.8-16.4-14.4-20-16.8-3.6-2.5-8.1-5-10-5.7-1.9-.7-5.1-1.3-7-1.3-2 0-6.5 1.4-10.5 3.3-3.9 1.8-9.4 5.2-12.3 7.5zM1131 1258c2.8 10.8 5 19.7 5 19.8 0 .1.4 0 1-.3.6-.2.7-2.6.4-5.7-.4-2.9-2.8-12.1-5.4-20.5-2.6-8.4-5.1-15.3-5.4-15.3-.3 0-.6.6-.6 1.3 0 .7 2.3 10 5 20.7zm-71.5-928.4c1.6.3 3.8 1.3 4.8 2.2 1 1 2.2 3.3 2.7 5.2.5 2 1.2 5.2 1.4 7.3.5 3.1 1 3.8 2.8 3.8 1.3 0 4.5 1 7.3 2.3 3 1.4 7 4.5 9.8 7.7 2.7 3 6.7 9 8.8 13.4 2.7 5.4 4.1 9.6 4.2 12.7.2 3.8-.3 5.2-2.3 7.3-1.8 1.8-3.5 2.6-6 2.6-1.9 0-4.5-.7-5.8-1.5-1.2-.9-4.3-5.6-7-10.6-2.6-5-5.7-10-7-11-2.1-1.8-2.4-1.9-5-.3-1.9 1.2-3.7 1.5-6.2 1-1.9-.4-4.3-1.5-5.3-2.4-1-1-2.7-4.5-3.7-7.8s-2.4-10-3-15c-.9-7.2-.9-9.5.2-11.8.7-1.6 2.4-3.5 3.8-4.3 1.4-.8 3.8-1.1 5.5-.8zm-86.7 131.7c7.1.2 8.6.6 9.8 2.2.8 1.2 1.4 3.1 1.4 4.3 0 1.2-1 2.9-2.3 3.8-1.2.8-4.1 1.5-6.5 1.5-2.3 0-7.7.4-12 1-4.2.6-10.9 2-14.7 3.1-5.1 1.5-7.6 1.8-9 1.1-1.1-.5-2.3-1.8-2.7-2.9-.3-1-.1-3 .5-4.4.7-1.3 2.8-3.2 4.7-4.2 1.9-.9 7.8-2.6 13-3.7 5.9-1.2 12.6-1.9 17.8-1.8zm-8.6 36.8c3.6 0 8.1.8 12 2.2 3.5 1.3 8.9 3.8 12.2 5.8 3.2 1.9 8.5 6.4 11.8 9.9 3.7 4.1 7.4 9.6 9.8 14.5 2.1 4.4 4.5 10.2 5.2 12.8.8 2.8 2 4.9 3 5.2 1 .3 2.3 1.6 2.9 2.8.9 1.8.8 3-.5 5.7-.9 2-1.6 5.9-1.6 8.8 0 2.9-.7 8.7-1.6 13-.9 4.3-2.7 10.1-4 13-1.3 2.9-4.8 7.7-7.7 10.8-3.5 3.7-7.7 6.7-12.7 9.2-7 3.5-8.2 3.7-16.5 3.7-8.2 0-9.7-.3-16-3.3-5.1-2.4-8.9-5.3-14-10.5-4.8-4.9-8.2-9.5-10.7-14.7-2-4.1-4.8-11.3-6.2-16-1.3-4.6-2.8-12.1-3.1-16.5-.6-6.6-1.2-8.4-3.4-10.8-2-2.1-2.6-3.8-2.6-7 .1-2.9 1.1-5.9 3.5-10 1.9-3.2 6.2-8.9 9.6-12.5 3.3-3.7 8.5-8.2 11.5-10.1 3-1.9 7.2-4 9.4-4.7 2.2-.7 6.6-1.2 9.7-1.3zm-17.8 22.2c-4.4 4.4-5.4 6.3-7 12.2-1.4 5.5-1.6 9-1.1 16 .3 5 1.8 13.1 3.2 18 1.5 5 3.3 10.3 4.1 11.8 1.2 2.4 2 2.7 5.6 2.7 2.4 0 7.2-.7 10.8-1.5 3.6-.9 10.1-3.5 14.5-5.8 4.4-2.4 12.4-7.2 17.7-10.7 7.5-5 9.8-7 9.8-8.7 0-1.2-1.2-5.7-2.6-10-1.4-4.3-3.8-9.8-5.4-12.3-1.6-2.4-5.4-6.8-8.4-9.7-3.1-2.9-8.2-6.4-11.4-7.9-3.1-1.5-8.2-2.8-11.2-3.1-4.2-.3-6.5.1-9.5 1.7-2.2 1.1-6.3 4.4-9.1 7.3zm48.5 60.2c.2 1.9-.4 4-1.7 5.5-1.1 1.4-3.2 3.4-4.7 4.5-1.5 1.2-4.2 2-6.5 2s-4.6-.7-5.7-1.7c-1.7-1.6-2.2-1.7-7.8-.3-3.3.9-7 1.6-8.3 1.6-1.2 0-2.4.4-2.7.9-.3.6 1 2.2 2.7 3.7 1.8 1.4 4.5 3.2 6 4 1.6.7 4.7 1.6 7 2 2.8.4 6.3 0 9.8-1 3-.9 7.6-3.2 10.2-5.1 3.5-2.6 5.6-5.2 7.8-9.8 1.6-3.4 3.1-8.2 3.4-10.5.3-2.3.2-4.2-.2-4.2s-2.7 1.2-5.2 2.7c-3.9 2.4-4.4 3.1-4.1 5.7zM786.6 530c2.4 0 3.7.6 4.4 2 .5 1.2 1 2.8 1 3.8s-2.9 5.4-6.5 9.7c-3.7 4.4-8.4 10.8-10.6 14-2.1 3.3-4.5 7.1-5.4 8.3-.9 1.3-2.5 2.2-4 2.2-1.4 0-3.2-.6-4-1.5-.8-.8-1.5-3-1.5-5 0-2.6 1.5-5.7 6.2-12.7 3.5-5.1 8.7-11.8 11.6-15 4.5-4.8 5.9-5.8 8.8-5.8zm-181.4 19.1c1 0 3 .6 4.5 1.4 2.4 1.2 3.4 1.2 7.3-.1 2.9-.9 5.9-1.2 8.5-.8 2.2.4 6.2 1.7 9 2.9 2.7 1.2 8.8 5.1 13.4 8.6 4.6 3.6 9.2 7.7 10.2 9.2 1.1 1.5 1.9 4.3 1.9 6.2 0 2.4-.8 4.4-2.5 6-1.7 1.8-3.5 2.5-6 2.5-1.9 0-4.5-.5-5.8-1.1-1.2-.6-5.1-3.3-8.7-5.9-3.6-2.7-6.8-4.9-7.3-4.9-.4 0-.7.8-.7 1.9 0 1.2-.7 3.4-1.5 5-.8 1.7-2.4 3.5-3.5 4-1.1.6-3.5 1.1-5.3 1.1-1.7 0-4.8-1-6.7-2.3-1.9-1.3-5.9-5.7-8.8-9.8-2.9-4.1-5.8-9-6.3-11-.6-2.2-.6-4.6.1-6.7.6-1.9 2.1-3.9 3.7-4.7 1.6-.8 3.6-1.5 4.5-1.5zm226.3 10.1c1.1-.1 4.6.5 7.7 1.3 3.2.9 8.2 2.7 11 4.2 2.9 1.5 7.6 5 10.4 7.8 2.8 2.8 6.5 7.3 8.3 10 1.7 2.8 4.5 9.2 6.1 14.3 1.7 5.1 3.3 12.3 3.6 16 .3 3.7.1 10.4-.5 14.7-.7 5.1-2.4 10.6-4.4 15-1.8 3.9-5.1 9-7.3 11.4-2.1 2.4-5.7 5.6-7.9 7.1s-6 3.5-8.5 4.5c-2.9 1.1-7.1 1.7-11.5 1.7-3.9-.1-9.7-.8-13-1.7-3.3-.9-8.2-2.8-10.9-4.3-2.7-1.4-6.9-4.9-9.3-7.7-2.5-2.7-5.6-7-7-9.5-1.3-2.4-3.6-8.3-5-13-2.3-7.2-2.7-10.4-2.7-22-.1-10 .3-15.1 1.7-20 .9-3.5 3-8.9 4.4-12 1.5-3 4.9-7.7 7.5-10.5 4.6-4.7 5-4.9 8.6-4.3 2 .4 4.8.3 6.2-.3 1.4-.6 4.3-1.4 6.5-1.8 2.2-.5 4.9-.9 6-.9zm-15 18.7c-3.3 1.8-6.6 3.2-7.3 3.2-.6 0-2.1 2.3-3.1 5.2-1 2.9-2.4 8.6-3.1 12.7-.7 4.2-.9 9.8-.5 12.5.4 2.8 1.3 8 2.1 11.5.8 3.6 2.7 9.2 4.2 12.3 1.5 3.2 2.9 5.8 3.2 5.8.3 0 3-.8 6-1.7 3-.8 11.8-4.7 19.5-8.6 7.7-3.8 17-8.9 20.7-11.3 6.2-4.1 6.8-4.7 6.8-8 0-1.9-1.1-6.9-2.4-11.2-1.6-4.9-3.9-9.6-6.4-12.8-2.1-2.7-5.4-6.3-7.3-7.8-1.9-1.6-5.2-3.7-7.4-4.6-2.2-1-5.4-2-7-2.3-1.7-.3-5 0-7.5.7-2.5.6-7.2 2.6-10.5 4.4zm38.3 61.3c.1 1.6-.5 3.5-1.6 4.5-.9.9-2.7 2-4 2.5-1.2.5-3.2.8-4.5.8-1.2 0-2.9-.7-3.7-1.5-1.3-1.2-2.5-1-10 2l-8.5 3.4c4.6 1.9 9.4 2.6 13.5 2.9 6.9.5 7.9.3 12.9-2.3 3-1.7 6.7-4.7 8.4-7 1.6-2.2 3.8-5.9 4.8-8.2 1-2.3 1.7-4.4 1.6-4.7-.2-.2-2.3.8-4.7 2.1-3.7 2.2-4.4 3-4.2 5.5zm327.7-46.1c.5 0 1.9.2 3 .5s2.6 1.6 3.2 3c.9 1.7 1 3.2.3 4.9-.6 1.4-3.1 3.7-5.8 5.2-2.6 1.4-9.2 5.6-14.7 9.1-5.5 3.6-15.9 11-23 16.4-7.2 5.4-14.3 10.8-15.8 12.1-2.6 2.1-3 2.2-5.5.7-2.2-1.3-2.7-2.2-2.7-5.5 0-3.8.3-4.2 11-12.7 6-4.9 16.5-12.7 23.2-17.5 6.7-4.8 15.2-10.4 19-12.5 3.7-2 7.2-3.7 7.8-3.7zm14.7 17c1.9 0 3.3.7 4.3 2.4.8 1.4 1.3 3.4 1 4.5-.3 1.2-2.2 3.3-4.3 4.9-2 1.6-10.2 6.6-18.2 11.2-8 4.5-17.1 10-20.3 12.1-3.1 2.1-6.7 3.9-8 3.9-1.2 0-2.8-.6-3.5-1.3-.7-.7-1.2-2.6-1.2-4.3-.1-1.9.9-3.9 2.7-5.6 1.5-1.5 12.2-8.3 23.8-15.2 13-7.8 22-12.6 23.7-12.6zm-271.2 5c2.8 0 6 .8 8.5 2.2 2.6 1.5 4.7 3.8 6.2 6.8 1.3 2.4 2.3 5.5 2.3 6.7 0 1.2-.8 3-1.8 3.9-1.5 1.4-1.6 2.1-.4 6.7.7 2.8 2 9.9 2.8 15.6.8 5.8 1.6 11.9 1.7 13.5.1 1.7 1 3.6 1.9 4.3 1 .7 1.8 2.4 1.8 3.7 0 1.5-.9 3.2-2.3 4.1-1.2.8-3.8 1.5-5.7 1.4-1.9 0-5.3-.4-7.5-1-2.2-.5-5-1.9-6.2-3.2-1.5-1.5-2.4-4-2.8-7.3-.4-3.9-.2-5.3 1.2-6.7 1-1 2.8-1.8 4-1.8 2.1 0 2.2-.3 1.8-3.7-.2-2.1-.7-6.3-1.5-15.3l-5.8-2.1c-3.1-1.2-7.7-3.4-10.2-4.9-2.5-1.5-5.1-4-5.8-5.6-.8-1.6-1.1-4.2-.8-5.9.3-1.6 1.8-4.2 3.3-5.7 1.5-1.5 4.6-3.4 6.8-4.2 2.2-.8 6-1.5 8.5-1.5zm125.2 50c2.1 0 5.5.7 7.5 1.7s4.5 3.1 5.5 4.7c1 1.7 1.8 4.6 1.8 6.5 0 2-.8 4.9-1.8 6.5-1 1.7-3.8 4.1-6.3 5.3-2.4 1.2-6.1 2.2-8.2 2.2-2 0-5.2-.5-7-1.3-1.7-.7-4.4-2.7-6-4.5-1.8-2.1-2.7-4.3-2.7-6.7 0-1.9.7-4.8 1.5-6.5 1-1.9 3.3-3.8 6.7-5.4 2.9-1.4 7-2.5 9-2.5zM862.4 735c2 0 4.8.7 6.3 1.4 1.6.8 4.5 3.3 6.6 5.8 2.1 2.4 4.2 6 4.7 8.1.7 2.7.6 4.6-.3 7-1 2.3-2.5 3.8-5.5 5-2.3 1-6 1.7-8.2 1.7-2.2 0-5.2-.4-6.8-1-1.5-.6-4-2.3-5.5-3.8-1.5-1.4-3-4-3.4-5.7-.3-1.8.1-4.3 1.1-6.5.9-1.9 1.7-4 1.7-4.8 0-.7 1.3-2.6 2.9-4.2 2.1-2.2 3.8-3 6.4-3zm.1 16c.3.6 1.4 1 2.5 1 1.4 0 1.8-.4 1.2-1.5-.4-.8-1.3-1.7-2-1.9-.7-.3-1.4 0-1.7.5-.3.5-.3 1.4 0 1.9zm-50.3-3.9c1.6 0 3.7.8 4.8 1.9 1.1 1.2 2 2.7 2 3.5 0 .9-1.1 2.7-2.5 4-1.3 1.4-3.1 2.5-4 2.5-.8 0-10.8 4.1-22.3 8.9-11.4 4.9-26.3 10.8-33.2 13.2-10.4 3.5-13.1 4.1-16 3.3-2.2-.5-4-1.9-5-3.6-1.3-2.5-1.3-3 0-5.4 1.2-2.1 2.7-2.9 7.5-3.9 3.3-.7 10-2.7 15-4.5 4.9-1.7 17.8-6.7 28.5-10.9 10.7-4.3 20.2-8.1 21-8.4.8-.3 2.7-.5 4.2-.6zm5 12c1.6 0 3.5.6 4.3 1.4.8.9 1.5 2.6 1.5 3.8 0 1.2-.7 3-1.7 3.9-1 .9-11 6.9-22.3 13.3-11.3 6.5-30.4 16.6-42.5 22.6-12.1 6-23.2 10.9-24.8 10.9-1.5 0-3.4-.6-4.2-1.5-.8-.8-1.5-2.8-1.5-4.5 0-2.1.8-3.6 2.7-5 1.6-1.2 13.1-7.2 25.8-13.3 12.6-6.2 30-15.1 38.5-19.8 8.5-4.8 16.8-9.3 18.5-10.2 1.6-.9 4.2-1.6 5.7-1.6zM1075 859.2c.8-.1 3.4.8 5.7 1.9 2.7 1.2 5.3 3.5 7 6.1 2 3 2.9 5.8 3.2 9.8.2 4.3-.4 7.6-2.8 14.5-1.7 5-3.1 9.8-3.1 10.8s1.9 3.8 4.2 6.4c2.4 2.6 7.2 7 10.8 9.8 3.6 2.9 9.1 6.9 12.2 8.9 4.7 2.9 5.9 4.3 6.3 6.9.4 2.1.1 4-1 5.5-.8 1.2-2.6 2.7-4 3.2-1.7.7-3.8.7-6.3.1-2-.6-7.1-3.6-11.2-6.7s-9.6-7.6-12.3-10c-2.6-2.4-5-4.2-5.3-4.1-.3.1.2 3.5 1 7.5.9 4 1.6 8.7 1.6 10.5 0 2-.9 4.1-2.3 5.5-1.4 1.5-3.4 2.3-5.5 2.3-2.3 0-3.9-.8-5.5-2.8-1.4-1.7-2.9-5.9-3.9-10.8-1-4.3-2.2-10.5-2.8-13.7-.5-3.2-1.3-5.8-1.8-5.8-.4 0-.6 2.4-.4 5.3.2 2.9-.1 8.7-.7 13-.6 4.3-2 9.4-3 11.5-1.1 2.1-3.6 5.3-5.6 7.2-2.9 2.8-4.7 3.6-8.3 4-3.5.3-5.6-.2-8.2-1.7-1.9-1.1-5-4.2-6.7-6.9-1.8-2.7-4.6-8-6.2-11.9-1.6-3.8-4.1-10.8-5.5-15.5-1.3-4.6-2.8-11.8-3.2-16q-.7-7.5.5-9.7c.6-1.2 2.3-2.7 3.8-3.3 1.9-.7 3.6-.7 5.3 0 1.4.5 3 2.2 3.6 3.8.7 1.5 1.7 5.9 2.3 9.7.6 3.9 2 10 3.2 13.5 1.1 3.6 3.7 9.7 5.6 13.5 2.7 5.6 3.7 6.8 4.6 5.7.7-.7 1.4-5.2 1.6-10 .2-5-.4-13.9-1.4-21.2-1-6.8-1.5-13.7-1.1-15.2.3-1.7 1.8-3.3 3.6-4.3 1.6-.8 3.7-1.5 4.5-1.5.8 0 2.8 1.4 4.5 3q3 3 3 1.5c0-.8-.7-4.9-1.5-9.2-.8-4.3-1.5-9.4-1.5-11.5 0-2.6.7-4.5 2.4-6.3 1.4-1.3 3.5-2.5 4.8-2.5 1.3 0 3.2.7 4.3 1.5 1.2.8 2.4 1 3 .5.5-.5 2.3-1.3 4-1.8 1.6-.6 3.7-1 4.5-1zm-4.8 27.4c.5 1.9 1.1 3.3 1.5 3.1.5-.2 1.4-2.4 2.2-4.8.7-2.4 1.1-4.8.7-5.4-.3-.6-1.5 0-2.8 1.3-1.9 1.9-2.2 2.9-1.6 5.8zm139.1 131.4c1.2 0 2.8.6 3.5 1.3.7.7 1.2 2.1 1.2 3.2 0 1.2-5.2 7.2-12.8 14.8-10.8 10.8-12.3 12.8-10.2 12.7 1.4 0 3.1.6 3.8 1.3.7.7 1.2 1.8 1.2 2.5s-5 6.5-11.1 13-13.6 15.4-16.7 19.9c-3.1 4.5-6.5 9.5-7.5 11.2-.9 1.7-2.5 3.2-3.5 3.2-.9 0-2.3-.6-3-1.3-.7-.7-1.2-2-1.2-3s.8-3.4 1.9-5.5c1-2.1 4.5-7.3 7.6-11.8 3.2-4.4 5.1-7.4 4.4-6.8-.8.6-6.4 6.6-12.4 13.3-6.2 6.8-12 12.3-13.3 12.6-1.2.2-2.9-.1-3.8-.8-.8-.7-1.5-1.9-1.4-2.8 0-.8 3.1-4.8 6.7-9 3.7-4.1 9.4-10.4 12.7-14 3.3-3.5 16.3-17.1 28.9-30.2 15.9-16.5 23.5-23.8 25-23.8z" style="fill:#000"/>
</svg>
