<svg version="1.2" xmlns="http://www.w3.org/2000/svg" width="2048" height="2048">
    <path fill-rule="evenodd" d="M1064.5 336.3c4.4.2 7.9 1.2 13 3.6 3.8 1.8 10.3 5.6 14.4 8.4 4.1 2.9 11.3 8.8 15.9 13.2 4.7 4.4 11 11.1 14.2 15 3.1 3.9 7.5 9.7 9.7 13 2.2 3.3 6 9.6 8.5 14s6.4 12.3 8.8 17.5c2.3 5.2 6.4 16 9 24 2.7 8 5.8 18.3 7 23 1.2 4.7 3.9 14.4 6.2 21.5 2.2 7.1 4.3 13.3 4.6 13.7.4.4 4.3 1.1 8.7 1.7 4.4.5 9.2 1.5 10.8 2.3 1.5.7 3.2 2.4 3.8 3.8.8 1.9.7 3.2-.4 5.5-.8 1.6-4.5 5.3-8.3 8.1-3.8 2.8-7.2 5.9-7.6 6.8-.5 1 2.1 10.3 7 24.8 4.2 12.8 7.8 23.5 8 23.8.1.3 3.7-1.4 8-3.7 4.2-2.3 8.5-4.3 9.5-4.3.9 0 2.2.9 2.7 2s.7 2.7.3 3.6c-.5.9-3.7 3.2-7.3 5.2-3.6 1.9-7.5 4.1-8.8 4.8-1.2.8-2 2-1.7 2.6.5 1 2.8.8 10.3-1 5.3-1.3 11.3-2.2 13.2-2 3 .3 3.5.7 3.8 3 .1 1.8-.4 3.1-1.5 3.7-1 .5-6.4 1.9-12.1 3.2-5.6 1.3-10.2 2.7-10.2 3.1 0 .5 2.4 9.2 5.4 19.5 3 10.4 7.9 28.7 10.9 40.8 3 12.1 6.7 27.6 8.1 34.5 1.4 6.9 4.8 25.3 7.5 41 2.8 15.7 6.2 35.7 7.5 44.5 1.4 8.8 3.7 23.9 5.1 33.5 1.4 9.6 4.3 30.8 6.5 47 2.1 16.2 4.8 38.3 5.9 49 1.2 10.7 2.8 28 3.6 38.5.8 10.5 2 35 2.7 54.5.9 27.9.9 43.6 0 73.5-.7 20.9-1.9 46.5-2.7 57-.9 10.5-2.4 26.2-3.5 35s-3.1 22.1-4.4 29.5c-1.4 7.4-4.8 22.5-7.5 33.5s-9.7 36.7-15.6 57c-5.9 20.3-10.8 37.3-11.1 37.7-.2.5-.1.8.3.8.5 0 6-6.4 12.3-14.2 6.3-7.8 15.6-18.7 20.6-24.3 5-5.5 13-13.6 17.8-18 4.8-4.4 12.9-11.2 18-15 5-3.8 12.7-9.1 17.1-11.7 4.4-2.6 11.8-6.5 16.5-8.7 4.7-2.2 12.3-5.1 17-6.4 4.7-1.4 12.5-3 17.5-3.6 5.8-.7 11.5-.7 16-.1 3.8.5 9.9 1.8 13.5 2.9 3.6 1.1 9.4 4 12.9 6.3 3.6 2.4 8.4 6.5 10.8 9.3 2.4 2.7 6.1 8.4 8.2 12.5 2.2 4.1 5.1 11.3 6.4 16 1.4 4.7 3 12.5 3.7 17.5.8 5.9 1.1 15.6.7 28-.3 12.9-1.2 22.9-2.6 31-1.2 6.6-3.7 18-5.6 25.2-1.9 7.3-5.6 19-8.2 26-2.6 7.1-7.9 19.1-11.8 26.8-3.9 7.7-9.8 18.3-13 23.5-3.3 5.2-8.9 13.4-12.5 18.2-3.6 4.7-10.5 13.2-15.5 18.9-5 5.6-13.5 14.3-19 19.3-5.6 5-15.2 13-21.5 17.8-6.3 4.8-17.3 12.3-24.5 16.8-7.2 4.5-22 12.6-33 18s-25.6 12.1-32.5 14.8c-6.9 2.8-18.6 7.1-26 9.7-7.4 2.5-21.2 6.8-30.5 9.4-9.3 2.7-25.5 6.7-36 8.9-10.5 2.3-25.1 5-32.5 6.1-7.4 1.1-19.1 2.7-26 3.6-6.9.8-23.8 2.4-37.5 3.5-14.8 1.2-33.9 2-46.8 2-14.7 0-27.7-.6-40.5-2-10.3-1.1-23.7-2.9-29.7-4s-15.5-3.1-21-4.5c-5.5-1.3-14.3-3.7-19.5-5.3-5.2-1.7-14.5-4.8-20.5-7-6-2.1-17.5-6.7-25.5-10.2-8-3.4-24.2-11.1-36-17-11.8-6-28.5-14.9-37-19.8-8.5-4.8-21.1-12.4-28-16.8-6.9-4.3-17.7-11.6-24-16.3-6.3-4.6-15.3-11.6-20-15.5-4.7-3.9-11.6-10.1-15.5-13.8-4.8-4.6-7.8-6.7-9.5-6.7-1.4 0-3.8-1.1-5.4-2.3-1.6-1.3-6.8-7.9-11.6-14.8s-12.1-17.7-16.3-24c-4.1-6.3-11.1-18.5-15.6-27-4.4-8.5-10-20-12.4-25.5-2.5-5.5-6.7-16.1-9.4-23.5-2.8-7.4-6.7-19.6-8.7-27-1.9-7.4-5.1-21.4-7.1-31-1.9-9.6-4.8-26.5-6.4-37.5-1.7-11-3.7-26.3-4.5-34-.8-7.7-2-23.7-2.7-35.5-.7-13.2-.9-32.5-.5-50 .3-15.7 1.3-37.5 2.1-48.5s2.4-27.9 3.5-37.5c1.1-9.6 3-23.6 4.1-31 1.1-7.4 3.8-22.3 5.9-33 2.1-10.7 5.9-27.8 8.5-38 2.5-10.2 6.9-26.4 9.7-36 2.7-9.6 8.8-29.9 13.5-45 4.6-15.1 10.4-34.5 12.8-43 2.3-8.5 5.2-20.2 6.4-26 1.1-5.8 2.8-15.2 3.6-21 .7-5.8 1.9-18.4 2.5-28 .6-9.6 1.5-24.5 2.1-33 .5-8.5 1.7-22.3 2.5-30.5.8-8.3 2.8-25.6 4.4-38.5 1.6-12.9 3.4-25.2 4-27.3.6-2.3 2.2-4.6 7.5-8.6l-5.5-1.5c-3-.8-7.9-2.1-10.9-2.8q-5.4-1.3-7.3-3.8c-1.4-1.9-1.7-3.1-1-5 .5-1.4 2.7-3.7 4.8-5.2 2.2-1.5 5.9-3 8.4-3.3 2.5-.4 5-1 5.7-1.3.6-.4 2.7-6.8 4.6-14.2 2-7.4 11.7-38.3 21.7-68.5 10-30.3 19.7-59.3 21.6-64.5 1.9-5.2 7.9-18.5 13.4-29.5 6.5-13.2 11-21 13.2-23.1 1.8-1.7 5.5-4.5 8.3-6.2 2.7-1.7 6.6-3.6 8.5-4.2 2.4-.7 5.3-.7 9 0 3 .5 8.8 2.6 12.7 4.5 5.3 2.5 9.8 5.9 16.4 12.2 5.1 4.9 13.1 13.7 17.8 19.8 4.8 6.1 11.4 14.8 14.7 19.5 3.3 4.7 8.7 12.9 12 18.2 3.2 5.3 6.4 9.7 6.9 9.8.5 0 2.1-1.1 3.5-2.6 1.4-1.4 6.1-5.4 10.5-8.9 4.4-3.4 11.8-8.7 16.5-11.8 4.7-3 14.1-8.3 21-11.6 6.9-3.3 17.9-7.8 24.5-10 6.6-2.1 17.4-5.1 24-6.6 6.6-1.4 18.3-3.5 26-4.6 7.7-1.1 21.4-2.4 30.5-2.9 9.1-.5 18.2-1 20.2-1 3.7 0 3.8-.1 5.4-5.3 1-2.8 4.8-13.1 8.7-22.7 3.8-9.6 8.7-20.9 10.8-25 2.2-4.1 5.8-10.1 8.1-13.2 2.3-3.1 5.8-6.6 7.7-7.7 2.7-1.5 5.2-1.9 9.6-1.8zm-12.2 36.7c-2.9 5.8-8.4 18.4-12.3 28-3.9 9.6-7 18.7-7 20.2 0 1.7-1.2 4.1-2.9 6l-2.9 3.3c-31.6 1.1-47 2.1-54.7 3-7.7.9-18.5 2.5-24 3.5-5.5 1.1-14.8 3.3-20.8 5-5.9 1.6-14.9 4.6-20 6.6-5 2-12.7 5.4-17 7.5-4.2 2.2-10.7 5.8-14.5 8-3.7 2.3-9.8 6.5-13.7 9.4-3.9 2.9-9.6 7.5-12.7 10.2-3.1 2.6-7.3 5.8-9.2 7-2 1.3-5.1 2.3-6.9 2.3-2.1 0-3.9-.7-5.3-2.2-1.2-1.3-3.2-4.3-4.4-6.8-1.3-2.5-5.4-9.2-9.3-15-3.8-5.8-9-13.2-11.5-16.5-2.5-3.3-8.5-10.7-13.3-16.5-4.7-5.8-12.2-13.8-16.5-17.9-4.4-4.1-10.2-8.5-12.9-9.8-2.8-1.2-5.8-2.3-6.8-2.3-.9 0-4.1 1.8-7 4-2.8 2.3-6.5 6.2-8.1 8.8-1.6 2.6-5.1 9.4-7.8 15.2-2.7 5.8-14.3 39.2-26.2 75-11.8 35.5-22.6 68.8-24 74-1.4 5.2-3.4 13.3-4.4 18l-1.9 8.5c39.7 10.5 60.7 16.4 72.2 19.9s28.6 8.7 38 11.5c9.4 2.9 20.5 6 24.7 6.9l7.7 1.7c1.6-3.9 3.8-5.8 5.8-6.8 2.1-1 12.8-4.3 23.8-7.3s28.1-7.4 38-9.8c9.9-2.4 19.8-4.8 22-5.3 2.7-.7 3.9-1.4 3.6-2.4-.2-.8-.6-2.3-.8-3.4-.3-1.3 2-5.7 6.9-13 4-6 9.8-13.5 12.8-16.6 3-3 8-6.8 11-8.3 3.5-1.7 7.9-2.9 12-3.3 5.8-.5 7.7-.1 18 3.5 6.3 2.2 14.4 5.1 18 6.6 3.6 1.5 7.5 3.7 8.8 4.9 1.2 1.2 2.2 3.2 2.2 4.4 0 1.3.2 2.3.5 2.3s4.4-1.6 9.2-3.6c5.4-2.2 10.4-3.5 12.8-3.5 3.1.1 4.6-.5 6.5-2.5 1.4-1.4 4.3-3.6 6.5-4.7 3.4-1.8 5.7-2.2 14.6-2.2h10.6c-.2-4.1.7-6.2 1.8-7.4 1.1-1.2 4.5-3 7.5-4.2 4.7-1.7 5.4-2.3 5.1-4.2-.2-1.2.9-4.9 2.3-8.2 1.5-3.3 4.7-8.7 7.1-12 2.3-3.3 6.9-8.5 10.1-11.6 3.3-3.1 8.4-6.9 11.4-8.5 4.5-2.3 6.8-2.8 12.5-2.9 6.1 0 8 .5 15.4 4 4.6 2.2 9.4 5.2 10.7 6.7l2.4 2.8c11.6-5.4 15-7.3 15-7.8 0-.4-1.1-5.4-2.6-11.2-1.4-5.8-4.3-16.6-6.4-24-2.1-7.4-5.5-19.4-7.5-26.5-2-7.1-5.3-17.3-7.2-22.5-2-5.2-6-14.4-9-20.5-3.1-6.1-8-14.8-11.1-19.5-3-4.7-8.1-11.6-11.2-15.5-3.2-3.9-8.6-9.7-12.1-13.1-3.5-3.3-8.9-7.9-11.9-10.1-3-2.3-7.9-5.3-10.8-6.7-2.8-1.4-5.4-2.6-5.7-2.6-.2 0-2.2 2.1-4.2 4.7-2.1 2.7-6.2 9.5-9 15.3zm57.2 166.3c-.5.2-1 2.7-1 5.5v5.2s5.2-2.3 11.5-5.1c6.3-2.9 11.7-5.4 12-5.6.3-.2-.2-.8-1-1.3-.8-.6-2.8-.9-4.5-.9-1.7.1-5.9.5-9.5 1-3.6.5-7 1-7.5 1.2zm-20 18.7c.3.3 3-.6 6-2s5.5-2.8 5.5-3.3c0-.4-.6-.7-1.3-.7-.6 0-1.9-.8-2.8-1.6-1.4-1.4-1.9-1.2-4.7 2.8-1.8 2.3-3 4.5-2.7 4.8zm38 9.2c-6 2.7-11.2 5.1-11.5 5.4-.3.3.8.2 2.5-.1 1.7-.4 8.5-2.9 15.2-5.6 6.8-2.7 13.3-4.9 14.5-4.9 1.7 0 2.7-.9 3.8-3.5.9-1.9 1.3-3.5 1-3.5-.3.1-3.7 1.7-7.5 3.7s-12 5.9-18 8.5zm31.1 12.5c-2.5 3.5-7 8.2-9.9 10.5-2.8 2.2-7.5 5.1-10.2 6.4-2.8 1.3-7.9 3.1-11.5 4-4.9 1.2-8.9 1.5-16.5 1.1-5.8-.3-13.7-1.6-19-3.1-5-1.3-12.4-3.8-16.5-5.4-7.5-3-7.5-3-10-1-1.6 1.2-4.1 1.9-7 1.9-4 0-4.2.1-2 1 1.4.6 3.5 2 4.8 3.2 1.2 1.2 2.5 3.5 2.8 5.2.4 1.8 0 4.3-1 6.2-.9 1.8-2.5 3.9-3.6 4.5-2 1.3-2 1.4.6 8.3 1.4 3.8 2.6 7.1 2.7 7.2.1.1 2.4-.4 5.2-1.1 2.7-.7 6.1-2 7.5-2.8 1.4-.9 3.4-3.5 4.5-5.7 1.1-2.3 2.9-4.3 4-4.5 1.1-.3 3.8-.1 6 .4s4.4 1.3 4.8 1.7c.4.5.7 1.9.5 3.3-.3 2.1-.9 2.5-4.1 2.7-2 .2-3.7.8-3.7 1.3s-2.6 3.5-5.8 6.5c-3.1 3-7.3 6.3-9.2 7.1q-3.5 1.6-7.3 1c-3.4-.5-4.1-.2-7.7 3.4-2.2 2.2-5.8 4.9-8 6-2.2 1.1-5.6 2.1-7.6 2.2-2.5.2-4-.2-4.8-1.5-.7-1.1-.8-2.2-.1-3.3.5-1 2.8-2.3 5-3 2.2-.8 5.5-2.6 7.3-4.1l3.4-2.8c-3.7-12.5-3.8-12.7-10.2-16.2-3.6-2-7.5-4.5-8.8-5.7-1.2-1.1-2.2-3.2-2.2-4.6 0-1.4.9-4.4 2-6.8 1.3-2.7 1.6-4 .7-3.7-.6.3-2.7 3.1-4.6 6.2-1.9 3.2-5 8.2-7 11.2s-9 10.9-15.6 17.5c-6.6 6.7-14.5 13.6-17.5 15.3-3 1.8-8.2 4.4-11.5 5.7-3.3 1.4-10.5 3.7-16 5.3-8.3 2.3-12 2.7-22 2.8h-12L875 646c-8.1 2.5-19.5 6.6-30.5 10.8-11 4.1-22.3 7.7-25 8-3.8.4-7.8-.4-17-3.1-6.6-2-16.7-4.9-22.5-6.6-5.8-1.6-19.5-5.3-30.5-8.1s-28.5-7.6-39-10.5c-10.5-3-23.7-7-29.5-9-5.8-1.9-10.8-3.5-11.3-3.5-.4 0-.2 1.2.5 2.7.9 2.2.6 8.3-1.5 29.8-1.5 14.8-3.4 35.3-4.2 45.5-.8 10.2-2.2 30.6-3 45.5-.9 14.8-2.2 31.7-3 37.5-1.3 9.7-1.2 10.6.3 11.8.9.8 7.8 4.4 15.2 8.2 7.4 3.7 18.5 8.8 24.5 11.3s15 5.9 20 7.7c5 1.7 15.3 4.9 23 7.1 7.7 2.2 19.6 5.3 26.5 7 6.9 1.7 19.5 4.5 28 6.4 8.5 1.9 24 4.9 34.5 6.9 10.5 1.9 25.3 4.4 33 5.5 7.7 1.1 21 2.7 29.5 3.6 9.2.9 25.2 1.5 39.5 1.5 13.2 0 29.4-.5 36-1 6.6-.6 19.2-1.9 28-3 8.8-1.2 23.9-3.4 33.5-5.1 9.6-1.6 24.5-4.6 33-6.5 8.5-2 22.2-5.8 30.5-8.5 8.2-2.7 16.6-4.9 18.5-4.9 2.1 0 4.1.6 5.1 1.7.9 1 3.3 6.8 5.3 12.8 2 6 4.7 12.8 5.9 14.9 1.2 2.2 2.8 4.1 3.4 4.3.8.2 1.9-1.8 2.8-5 .8-2.8 1.5-7.5 1.5-10.2 0-2.8-.8-9.6-1.7-15.3-1.3-7.6-1.5-10.7-.7-12 .6-.9 2.5-1.8 4.3-2 2.6-.2 3.3.3 4.3 2.8.7 1.7 1.5 3 1.8 3 .3 0 0-2.6-.7-5.8-.8-3.8-.8-6.5-.2-8.2.9-2.3 1.3-2.5 5.7-1.7 2.6.4 5.6.7 6.7.7 1.1 0 3.7 1.1 5.7 2.5 2.1 1.4 4 2.5 4.3 2.5.3 0 .5-1.7.5-3.8 0-2 .5-4.3 1.2-5 .7-.6 2.1-1.2 3.3-1.2 1.1 0 2.6.5 3.3 1.2.7.7 1.2 2.4 1.2 3.8s.9 5.6 2.1 9.5c1.1 3.8 3.5 9.6 5.2 12.8 1.8 3.2 3.5 5.8 3.9 5.7.5 0 1-.7 1.3-1.5.3-.8.5-4.5.5-8.3-.1-3.7-.7-9.4-1.4-12.7-.8-3.3-2.2-7.6-3.2-9.5-.9-1.9-2.3-3.8-3.1-4.3-.7-.4-1.3-1.9-1.3-3.5 0-2.1 2.1-4.8 10.1-12.7 5.5-5.5 12.2-12.7 14.8-16 2.7-3.3 7.1-9.5 10-13.8 2.8-4.2 5.1-8.7 5.1-10 0-1.2-1.5-11-3.4-21.7s-4.9-26-6.6-34c-1.7-8-5.3-23.3-8.1-34-2.7-10.7-7.3-27.4-10.1-37-2.8-9.6-5.4-19-5.9-20.8-.6-2.3-1.6-3.3-3.4-3.7-1.4-.3-2.7-1.3-3-2.3-.3-.9.2-2.7 1-4 1.4-2 1.1-3.4-3.1-17.5-2.6-8.3-4.7-15.4-4.8-15.6-.1-.1-2.1 3.2-4.3 7.5-2.2 4.4-6.2 10.7-8.7 14.1zm-210.9 15.4c-1.2.6-1.5 1.6-1 3.1.3 1.3.6 3.2.5 4.3-.1 1.1-1 3.1-2 4.5-1.1 1.4-3 2.8-4.3 3.1-1.3.3-3.5.2-4.9-.3-1.4-.5-3.2-1.8-4-3-1.5-2-1.6-1.9-5.8 3.3-2.3 3-4.3 5.7-4.2 6.1 0 .5.6.6 1.2.4.7-.3 10.8-2.8 22.3-5.6s25.6-6.5 31.3-8.3c5.6-1.7 10.3-3.4 10.3-3.7 0-.3-3.5-2-7.8-3.8-4.5-2-10.1-3.5-13.3-3.8-3.2-.2-7.8.3-11 1.2-3 .8-6.3 2-7.3 2.5zm91.1.6c-1.1 1.5-1 1.6.7.9 1.1-.4 3-.9 4.2-1.2 1.3-.2 2.3-.9 2.3-1.4 0-.5-.3-.9-.8-.9-.4.1-1.7.4-2.9.6-1.2.2-2.8 1.2-3.5 2zm165.4 203.9c-5.1 4.6-8.6 8.3-8.5 9.3.2.9 1 6.1 1.9 11.6.9 6.2 1.3 12.1.9 15.5-.4 3-1.2 6.8-1.9 8.5-.7 1.6-2.6 4-4.2 5.3-1.6 1.2-4 2.3-5.4 2.2-1.4 0-4-.9-5.8-2-1.7-1.1-4.4-3.9-5.9-6.3-1.4-2.3-3.6-6.6-4.7-9.5-1.2-2.9-2.4-4.9-2.9-4.5-.4.4-.7 1.5-.7 2.3 0 .8-.9 3.2-2 5.2-1.1 2.1-2 3.9-2 4-.1.2 4 3.8 9 8 7.2 6.3 9 8.3 9 10.5 0 1.6-.5 3.4-1.2 4-.7.7-2.2 1.3-3.5 1.3-1.3 0-4.4-1.9-7.1-4.2-2.6-2.3-5.8-5.1-7.1-6.3l-2.3-2c1.2 14 1.1 15.2-.5 16.8-1 1-2.5 1.8-3.3 1.8-.8 0-2.2-.8-3.1-1.8-.9-1-1.9-3.6-2.2-5.8-.4-2.2-1.1-7.3-1.7-11.3-.5-3.9-1.3-7.2-1.8-7.2-.4 0-.8 3.6-1 8-.1 4.9-1 10-2.2 13.2-1 2.9-3.2 6.6-4.7 8.1-1.9 1.9-4 2.9-6.4 3-2 .1-4.7-.4-6-1.1-1.3-.7-3.7-3.2-5.4-5.5-1.6-2.3-4.8-9.5-7-16s-4.5-11.8-5-11.8-1.2 1.3-1.3 2.8c-.2 1.5-1.1 3.6-2 4.6-1 1-2.7 1.8-4 1.7-1.2 0-2.9-1-3.6-2.3-1.5-2.1-1.6-2.1-4-.5-1.5 1-3.5 3.3-4.6 5-1.1 1.8-2.2 5.1-2.6 7.3-.3 2.2-.3 5.6 0 7.5.3 1.9 1.7 4.7 3.1 6.2q2.5 2.8 5.5 2.8c2.2 0 4-1.1 6.7-4 2.1-2.2 4.7-4 5.8-4 1.1 0 2.5.4 3.1.8.6.4 1.6 1.6 2.1 2.7.6 1.1 1.8 6.5 2.8 12 .9 5.5 1.4 11 1.1 12.2-.4 1.5-1.6 2.5-3.4 2.9-1.9.4-3.2 0-4.5-1.3-1-1-2.2-4.4-2.7-7.6l-1-5.7c-5.4 2.3-8.5 3-10.3 3-1.7 0-5-.9-7.2-1.9-2.2-1.1-5.2-3.7-6.6-5.8-1.5-2.1-3.2-5.6-3.9-7.8-.7-2.2-1.1-6.8-.9-10.2.2-3.5.4-6.3.4-6.3l-6 2c-3.3 1.2-11.4 3.4-18 5s-18.3 3.8-26 4.9c-7.7 1.1-21.4 2.6-30.5 3.2-11.2.8-32 1-64.5.5-26.4-.3-54.5-.9-62.5-1.3-12.1-.6-14.8-1-16.3-2.5-1.6-1.7-1.7-1.7-2.9.4-1.1 2.2-1.4 2.3-11.2 1.6-5.6-.4-17.5-1.7-26.6-2.8-9.1-1.1-23.3-3.4-31.5-5.1-8.3-1.7-22.4-5.3-31.5-8.1-9.1-2.7-24.6-8.1-34.5-12-9.9-4-25.2-10.8-34-15.3s-18.6-9.8-21.8-11.8L654 812c-.9 4.3-2.1 9.1-3.2 13.5-1 4.4-3.3 12.7-4.9 18.5-1.7 5.8-7.3 24.2-12.4 41-5.2 16.8-11.4 37.7-13.9 46.5-2.5 8.8-6.3 23.2-8.5 32s-5.1 21.4-6.5 28c-1.3 6.6-3.8 20.3-5.5 30.5-1.7 10.2-4 26.2-5.1 35.5-1.1 9.3-2.7 25.5-3.5 36-.9 10.5-1.8 34.5-2.2 53.5-.3 21.7-.1 41.6.6 53.5.6 10.5 2 27.1 3.2 37 1.1 9.9 3.5 27.5 5.5 39 1.9 11.5 5.1 28.2 7 37 2 8.8 5.9 23.2 8.9 32 2.9 8.8 7.4 21 10 27 2.6 6 8.3 18 12.6 26.5 6 11.6 11.1 19.7 20.6 32.5 9.4 12.6 16.7 21 28.2 32.5 8.6 8.6 20.6 19.6 26.6 24.4 6 4.8 19.3 14.3 29.5 21.1 10.2 6.8 25.7 16.4 34.5 21.5 8.8 5 27 14.7 40.5 21.4 13.5 6.7 32.6 15.4 42.5 19.3 9.9 3.9 23.6 8.9 30.5 11.1 6.9 2.2 18.8 5.4 26.5 7 7.7 1.7 19 3.8 25 4.6 6 .9 16.9 2 24 2.6 7.1.6 21.4 1 31.7 1 10.4 0 26.6-.5 36-1 9.5-.6 24.3-1.7 32.8-2.6 8.5-.8 23.2-2.6 32.5-3.9 9.3-1.3 22.8-3.6 30-5 7.2-1.5 20-4.4 28.5-6.5 8.5-2.1 20.9-5.5 27.5-7.5 6.6-2 17.6-5.7 24.5-8.2 6.9-2.5 18.7-7.2 26.2-10.4 7.6-3.3 18.6-8.3 24.5-11.3 6-3 14.6-7.6 19.3-10.3 4.7-2.7 11.7-7 15.5-9.5 3.8-2.5 10.9-7.4 15.6-10.9 4.8-3.5 13.1-10.2 18.4-14.9 5.4-4.7 13.9-13 18.9-18.5 5-5.5 12.5-14.5 16.6-20 4.1-5.5 11-15.8 15.3-23 4.2-7.2 10.1-18.4 13.1-25 2.9-6.6 7-17 9.1-23 2-6 4.9-16.4 6.5-23 1.6-6.6 3.6-17 4.4-23 .8-6 1.8-16 2.2-22 .4-6.5.2-15.5-.5-22-.7-6-2.1-14.3-3.1-18.3-1.1-3.9-3.4-10-5.2-13.5-1.7-3.4-5.2-8.2-7.7-10.7s-6.6-5.5-9.1-6.7c-2.5-1.2-7.7-2.7-11.5-3.3-4.2-.8-9.8-1-14-.6-3.8.4-10.4 1.6-14.5 2.7-4.1 1.2-11.8 4.1-17 6.5-5.2 2.5-14.5 7.8-20.5 11.9-6 4.1-15.5 11.3-20.9 16.2-5.5 4.8-14.5 13.8-20 19.8-5.4 6-14.4 16.5-19.8 23.2-9.5 11.9-9.7 12.3-7.8 13.8 1.1.8 2 2.3 2 3.2.1 1-.9 2.7-2.1 3.8-1.2 1.1-8 6-15.2 11-8.1 5.5-14 10.3-15.3 12.5-1.3 1.9-3 4.3-3.8 5.2-.9 1-2.8 2.1-4.4 2.4-1.5.3-7.4 2.9-13.2 5.9-6.4 3.3-15.4 6.8-23 9-6.9 2-17.5 4.5-23.5 5.6-9.3 1.8-16.5 2.2-47 2.6-19.8.3-37.9.2-40.3-.1-2.3-.3-5.5-1.7-7.2-3.1-1.9-1.6-3-3.4-3-5 0-2-.9-2.9-4.8-4.6-2.6-1.1-5.6-2.8-6.6-3.7-1-.9-5.3-3.2-9.5-5-4.2-1.8-12.2-5.8-17.9-9-5.7-3.1-15.6-9.5-22.2-14.2-6.5-4.7-16.5-12.5-22.2-17.4-5.6-4.8-21.3-19.1-34.8-31.6-13.5-12.5-28.1-25.8-32.5-29.5-4.4-3.8-12.5-9.8-18-13.5-5.5-3.6-12.5-8-15.5-9.7-4.9-2.8-5.7-3.7-6.9-8-.7-2.6-1.5-7.6-1.7-11.1-.2-3.4-.1-6.2.3-6.2.5 0 4.6 2.1 9.3 4.7 4.7 2.5 12.8 7.3 18 10.6 5.2 3.3 12.9 8.5 16.9 11.6 4.1 3.1 11.6 9.2 16.5 13.7 5 4.4 17 15.4 26.6 24.4 9.6 9 22.8 21 29.2 26.7 6.5 5.6 16 13.4 21 17.2 5.1 3.8 13.3 9.3 18.3 12.3 5 3.1 11.9 7 15.5 8.8 3.6 1.8 10.3 4.7 15 6.5 4.7 1.8 13 4.4 18.5 5.8 5.5 1.5 14.5 3.4 20 4.4 7.3 1.2 15.6 1.7 31 1.7 15.2 0 23.8-.5 31-1.8 5.5-.9 11.7-2.1 13.7-2.6 3.2-.9 3.7-1.3 3.3-3.3-.3-1.2-1.4-6.5-2.4-11.7-1.1-5.2-2.5-14.7-3-21-.6-6.3-1.3-26.3-1.6-44.5-.3-18.2-1.1-39.5-1.6-47.5s-2.1-19.9-3.4-26.5c-1.3-6.6-3.6-15.4-5.1-19.5-1.4-4.1-4-10.2-5.8-13.5-1.7-3.3-5.8-8.8-9.1-12.3-4.4-4.7-8.1-7.4-14-10.4-6-2.9-9.6-4-14.5-4.4-3.6-.3-7.5-.7-8.8-1-1.2-.2-3.1-1.3-4.2-2.4-1.2-1.2-2-3.4-2-5.3 0-2 .8-4 2.2-5.5 1.6-1.5 4-2.4 7.8-2.8 3.6-.5 8.1-.1 13 1 4.1.9 11.1 3.4 15.5 5.6 4.4 2.2 8.1 3.8 8.2 3.7.1-.1.9-3.6 1.8-7.7.8-4.1 1.3-8.1 1-8.8-.3-.6 0-2.1.5-3.2.7-1.5 1.8-1.9 4.2-1.8 3.1.3 3.3.6 3.6 4.3.2 2.2-.6 8.4-1.8 13.7l-2 9.8c7.9 8.9 12 14.4 14.1 18 2.1 3.6 5.2 10.3 7 15 1.7 4.7 4.1 13 5.5 18.5 1.3 5.5 3.1 15.6 3.9 22.5 1.1 8.1 1.9 27.1 2.5 54.5.5 23.1 1.4 46.5 2 52 .5 5.5 1.7 13.6 2.6 18 .9 4.4 1.9 8.4 2.2 8.9.4.4 4.9-1.4 10.1-4l9.4-4.9c5.8-20.9 10.2-36 13.5-47 3.3-11 9-30.8 12.7-44 3.7-13.2 8.7-32.1 11.1-42 2.4-9.9 5.5-24.8 6.8-33 1.4-8.3 3.2-21.8 4-30 .9-8.3 2-21.3 2.6-29 .5-7.7 1.5-24.1 2-36.5.5-12.4 1-36 1-52.5s-.5-39.9-1-52c-.6-12.1-1.7-31.2-2.5-42.5-.9-11.3-2.7-30.6-4.1-43-1.4-12.4-4.1-34.2-6-48.5-1.9-14.3-5.1-36.8-7-50-2-13.2-3.9-24.3-4.3-24.8-.4-.4-3 2.2-5.9 5.8-2.9 3.6-9.1 9.9-14 14.1zm-48.2 31.9c.6.6 1.2.1 1.6-1.5.3-1.4.1-3.5-.5-4.8-.6-1.2-1.6-2.2-2.2-2.2-.8 0-.9 1.2-.5 3.7.4 2.1 1.2 4.3 1.6 4.8zm-379.8 20c6.2 1.4 11.5 2.4 11.8 2.1.3-.3-3.8-1.4-9-2.6-5.2-1.1-10.4-2.3-11.6-2.7-1.2-.3-2.2-.2-2.3.1 0 .3 5 1.7 11.2 3.1zM1090.5 383c1.3 0 2.6.7 2.9 1.5.3.8 1.6 1.5 3 1.5 1.5 0 3.1.9 3.9 2.2.8 1.3 2.1 6.8 3 12.3 1.4 8.8 1.4 10.3.1 12.2-.8 1.3-2.3 2.3-3.3 2.3-.9.1-2.2-.5-2.9-1.2-.6-.7-1.6-2.9-3.1-8.3l-.1 4.7c-.1 3-.7 5.4-1.7 6.3-.8.8-2.3 1.5-3.2 1.5-.9.1-2.3-.5-3-1.2-1-1-1.2-5-1-15.9.2-10.5.7-15.1 1.7-16.2.7-1 2.4-1.7 3.7-1.7zm-319.6 74c.8 0 2 .4 2.7.8.7.4 4.8 9.5 9.3 20.2 4.4 10.7 8 20.4 8 21.5 0 1.1-.5 2.6-1.2 3.2-.7.7-2.1 1.3-3.2 1.3-1.2.1-2.6-.5-3.3-1.2-.6-.7-4.5-10-8.7-20.6-4.2-10.5-7.7-20-7.8-21-.1-1 .4-2.3 1.2-3 .8-.7 2.1-1.2 3-1.2zm15.4 6c1.2-.1 2.8.7 3.7 1.7.9 1 4.8 7.2 8.6 13.8 3.9 6.6 7.3 13 7.7 14.2.4 1.6 0 2.9-1.4 4.3s-2.5 1.8-3.7 1.1c-1-.5-2.3-1.5-3-2.2-.6-.8-4.3-7-8.2-13.9-3.9-6.9-7.2-13.7-7.3-15.1-.1-1.4.2-2.9.7-3.2.5-.4 1.8-.7 2.9-.7zm309.8 28c2 0 3.2.7 4.1 2.5.9 1.9.9 3.1.1 4.7-.6 1.3-4.5 6.5-8.7 11.5-6.3 7.6-8.2 9.3-10.4 9.3-1.6 0-3.4-.5-4.1-1.2-.7-.7-1.1-2.4-1-3.7.1-1.3 2.6-5.6 5.6-9.5 3-3.9 6.9-8.6 8.5-10.4q3.1-3.2 5.9-3.2zm-153.4 16.8c.9.3 2.3 1 3 1.6.7.6 1.3 2.3 1.2 3.8 0 2.2-.8 3.1-3.2 4.3-1.8.8-6.7 2.4-10.8 3.6q-7.5 2.2-10 4.9c-1.4 1.5-3.5 3.2-4.7 3.8-1.3.7-3 2.5-3.8 4.2-1.2 2.4-2.1 2.9-4.2 2.7-2.3-.2-2.9-.7-3.1-3.2-.2-2 .7-4.5 2.6-7.5 1.6-2.5 3.6-5.7 4.5-7.3 1-1.5 4-3.8 7-5.1 2.8-1.4 8.5-3.4 12.5-4.4 4.1-1.1 8.1-1.7 9-1.4zm215.9 90.2c1.7 0 2.7.9 3.8 3.5.8 1.9 1.5 5.3 1.5 7.5 0 3.2-.5 4.4-2.7 6-1.6 1.2-4 2.1-5.5 2-1.6 0-3.9-1-5.3-2.3-1.4-1.2-2.8-3.6-3.1-5.2-.5-2.3-.2-3.5 1.5-5.3 1.3-1.4 2.8-2 4.1-1.7 1.5.4 2 0 1.8-1.3-.1-1 .2-2.2.7-2.5.5-.4 1.9-.7 3.2-.7zm-249.3 71.4c2.8.3 6.9 1.5 9.1 2.5 2.2 1.1 4.6 3.1 5.3 4.5.6 1.4 1.2 3.5 1.2 4.6 0 1.1-.8 3.6-1.7 5.6-1 2-3 4.3-4.5 5-1.6.8-4.9 1.4-7.5 1.4-4.2-.1-5.3-.6-8.5-3.8-3.1-3.1-3.7-4.4-3.8-8.2-.1-3.5.5-5.5 2.6-8.4 2.7-3.8 2.8-3.8 7.8-3.2zm-.2 13.4c.7.7 2.1 1.2 3.1 1.2.9 0 2-.7 2.3-1.5.4-.9.5-1.8.3-2-.2-.2-1.8-.7-3.5-1.1-2.2-.5-3.1-.3-3.3.7-.1.8.4 2 1.1 2.7zm-31.2 1.3c3-.1 4.9.3 5.8 1.4.6.8 1 2.6.7 4-.3 1.6-1.3 2.7-2.7 2.9-1.3.3-9.9 1.5-19.3 2.7-9.4 1.2-17.8 1.9-18.7 1.6-1-.4-2.3-1.6-2.8-2.7-.8-1.5-.6-2.5.8-3.9 1.5-1.6 4.9-2.4 16.8-3.9 8.2-1.1 16.9-2 19.4-2.1zm2.3 14c.4-.1 1.6.4 2.7.9 1.2.6 2 2 2 3.5s-.9 3.1-2.2 3.9c-1.3.8-8.5 3.5-16 6-7.6 2.5-15 4.6-16.5 4.6-1.6 0-3.4-.5-4.1-1.2-.7-.7-1.2-2-1.3-2.8 0-.8.8-2.2 1.7-3 .9-.8 8.7-3.8 17.3-6.6 8.6-2.9 15.9-5.2 16.4-5.3z" style="fill:#000"/>
</svg>
