<svg version="1.2" xmlns="http://www.w3.org/2000/svg" width="2048" height="2048">
    <path fill-rule="evenodd" d="M1345.5 355.4c6.6.3 15.2 1.1 19 2 3.8.8 9.9 2.5 13.5 3.8 3.6 1.3 8.8 3.6 11.5 5.2 2.8 1.6 7.9 5.9 11.5 9.5 3.6 3.6 9.8 11.6 13.8 17.6 4 6.1 10.2 16.9 13.9 24 4.1 8.1 8.6 19.2 12 29.5 2.9 9.1 5.8 18.3 6.4 20.5.5 2.2 2 6.3 3.3 9 1.6 3.2 3.7 12.2 6 24.5 2 10.7 4.7 26.3 6 34.5 1.4 8.3 4.1 26.7 6 41 1.9 14.3 4.5 35.2 5.6 46.5 1.2 11.3 3.6 31.3 5.5 44.5s6.3 40.2 9.9 60c3.6 19.8 7.4 41.4 8.5 48 1.1 6.6 3.4 21.2 5 32.5s4.1 30.2 5.5 42c1.4 11.8 3.7 34.5 5 50.5 1.4 16 3.3 42.3 4.2 58.5.9 16.2 1.7 44.6 1.7 63 .1 18.4-.5 40.5-1.1 49-.7 8.5-2.2 24.3-3.3 35-1.1 10.7-3.3 28.5-5 39.5-1.7 11-5 30.8-7.4 44-2.5 13.2-6 31.2-8 40-1.9 8.8-6.5 27.3-10.1 41-3.7 13.8-8.9 31.5-11.7 39.5-2.7 8-8.2 22.4-12.2 32-4 9.6-9.6 22.7-12.5 29-2.8 6.3-7 14.9-9.3 19-2.2 4.1-6.3 11.3-9 16-2.7 4.7-7.6 12.3-10.7 17-3.2 4.7-9 12.8-13 18-4 5.2-14.3 16.5-22.9 25.1-8.6 8.5-21.4 20-28.6 25.6-7.2 5.5-17.3 12.9-22.5 16.5-5.2 3.6-14.9 9.7-21.5 13.5-6.6 3.9-16.7 9.4-22.5 12.3-5.8 2.9-15.9 7.4-22.5 10-6.6 2.6-16.3 6.1-21.5 7.8-5.2 1.7-15.1 4.7-22 6.6-6.9 1.9-17 4.3-22.5 5.4-5.5 1.2-15 2.9-21 3.9-8.4 1.4-16.4 1.8-34 1.8-15.5 0-25.3-.5-30-1.4-3.8-.7-10.9-2.6-15.8-4.2-4.8-1.6-11.3-4.2-14.5-5.9-3.1-1.6-11.2-6.2-18-10.2-8.3-5-12.9-8.3-14-10.3-.9-1.7-1.8-3.1-2-3.2-.1-.2-4.4 1.8-9.5 4.3-5 2.6-17.5 8.2-27.7 12.6s-23 9.3-28.5 10.9c-5.5 1.6-14.7 3.9-20.5 5.1-7.7 1.5-15.7 2.2-30 2.5-16.5.5-21.7.2-34-1.6-8-1.2-19.9-3.5-26.5-5.1-6.6-1.5-16.5-4.3-22-6-5.5-1.8-14.4-5-19.8-7.1-5.3-2.2-12.7-5.4-16.5-7.3-3.7-1.8-11.4-6.2-17.2-9.6-5.8-3.5-14.1-8.8-18.5-11.9-4.4-3-12-8.7-17-12.5-5-3.8-13.3-10.6-18.5-15.2-5.2-4.5-16.7-15.6-25.5-24.5-8.8-9-19.6-21.2-24-27-4.4-5.9-12.5-17.2-18-25.3-5.5-8-13.5-20.3-17.8-27.3-4.3-7.1-11.1-19.5-15.2-27.8-4-8.2-9.7-20.8-12.5-28-2.9-7.2-7-18-9.2-24-2.2-6-5.1-14.4-6.5-18.5-1.3-4.1-4.8-16-7.8-26.5s-7-25.5-8.9-33.5c-2-8-4.7-21-6-29-1.4-8-3.5-21.2-4.6-29.5-1.1-8.2-2.7-22.4-3.6-31.5-.9-9.9-1.8-32.5-2.1-56.5-.4-28.3-.1-52 1.1-81 .9-22.5 2.1-54.7 2.6-71.5.6-16.8 1.7-40 2.5-51.5.9-11.5 2-25.7 2.5-31.5.6-5.8 2.2-19 3.5-29.5 1.4-10.5 3.6-25.7 5-34 1.3-8.2 3.8-21.7 5.5-30 1.7-8.2 4.7-21.5 6.6-29.5 2-8 5.7-22.1 8.4-31.5 2.7-9.4 7.6-27.1 11-39.5 3.4-12.4 7.9-29.9 10.1-39 2.2-9.1 5.4-22.4 7-29.5 1.7-7.1 6.1-28.3 9.9-47 3.8-18.7 8.7-40.5 10.9-48.5 2.2-8 5.7-18.5 7.7-23.5 2-4.9 5.7-13 8.2-18 2.4-4.9 7-13 10-18 3.1-4.9 7.4-11.5 9.5-14.5 2.2-3 9.5-10.8 16.1-17.3 6.7-6.5 15.5-14.6 19.8-18 4.2-3.4 10-7.7 13-9.5 2.9-1.7 7.3-3.9 9.8-4.8 2.6-.9 5.9-1.3 8-1 1.9.3 5.3 1.5 7.5 2.6s4.9 2 6 2c1.1 0 4.9.7 8.5 1.6 3.6.9 11 3.4 16.5 5.5s14 6.2 19 9c5 2.9 13.7 8.6 19.5 12.8 5.8 4.2 13.2 9.9 16.5 12.5 3.3 2.7 9.8 7.5 14.5 10.6 4.7 3.2 11.9 7.4 16 9.5 4.1 2.1 10.4 4.9 14 6.2 3.6 1.4 10.1 3.3 14.5 4.3 4.4 1.1 16.4 3.1 26.7 4.5 10.4 1.4 34.9 3.6 54.5 5 19.7 1.3 45 2.9 56.3 3.5 11.3.5 31.3 1 44.5 1s27.8-.5 32.5-1c4.7-.6 12.8-2 18-3 5.2-1.1 14.9-3.5 21.5-5.4 6.6-1.8 17.6-5.5 24.5-8.1 6.9-2.5 15.4-6.2 19-8.1 3.6-1.9 9.7-5.8 13.5-8.6 3.8-2.9 15.8-13.8 26.5-24.3s22.2-21.2 25.5-23.7c3.3-2.5 9.4-6.4 13.5-8.6 4.1-2.3 9.5-4.8 12-5.7 2.5-.9 8.3-2.5 13-3.6 6.6-1.5 11.2-1.8 20.5-1.5zm-30 29.4c-3.3 1.6-8.3 4.3-11 6.2-2.8 1.9-12.9 11.1-22.5 20.5-9.6 9.3-20.4 19.5-24 22.6-3.6 3.1-9.2 7.6-12.5 10-3.3 2.4-9.6 6.3-14 8.6s-12.3 5.8-17.5 7.8c-5.2 2-12.9 4.8-17 6.1-4.1 1.4-13.3 4-20.5 5.9-7.2 1.9-18.4 4.4-25 5.6-9.3 1.7-17.5 2.3-37 2.6-13.8.3-35.6 0-48.5-.6-12.9-.6-36.8-2-53-3.1-16.2-1.1-36.5-2.7-45-3.6-8.5-.8-21.6-2.4-29-3.5-7.4-1.1-17.1-2.8-21.5-3.9-4.4-1-11.4-3.1-15.5-4.6-4.1-1.4-11.5-4.7-16.5-7.2-5-2.4-13.3-7.3-18.5-10.7-5.2-3.4-13.5-9.5-18.5-13.4-5-3.9-14.2-10.8-20.5-15.2-6.3-4.5-16-10.3-21.5-12.9-5.5-2.6-12.3-5.6-15-6.5-2.8-.9-8.3-2.3-12.3-3.1-3.9-.8-9-1.4-11.2-1.4-3.2 0-5.2.9-9.8 4.4-3.1 2.4-11.1 10-17.8 16.8-6.6 6.7-14 15-16.4 18.3-2.4 3.3-6.2 8.9-8.4 12.5-2.2 3.6-6.5 11.7-9.6 18-3.1 6.3-6.8 14.4-8.3 18-1.5 3.6-4.3 12.4-6.2 19.5-2 7.1-6.5 27.4-10 45-3.6 17.6-9.3 44.4-12.9 59.5-3.5 15.1-9.2 37.9-12.6 50.5-3.4 12.6-8.8 32.2-12 43.5-3.2 11.3-7.9 29-10.4 39.5s-6.1 27.5-8 38c-2 10.5-4.7 27.1-6 37-1.4 9.9-3.2 24.5-4.1 32.5-.8 8-2.1 23.7-3 35-.8 11.3-1.9 34-2.5 50.5-.6 16.5-1.7 48-2.6 70-.8 22-1.6 54.8-1.6 73 0 18.2.5 40.2 1.1 49 .6 8.8 1.8 22.5 2.7 30.5.8 8 2.6 21.7 3.9 30.5 1.4 8.8 3.4 20.7 4.6 26.5 1.1 5.8 3.4 15.9 5 22.5 1.7 6.6 4.8 18.3 7 26 2.2 7.7 5.3 18 6.9 23 1.6 5 4.7 14.2 7 20.5 2.2 6.3 6.6 17.8 9.7 25.5 3.1 7.7 8.9 20.3 12.8 28 4 7.7 10.1 18.7 13.7 24.5 3.5 5.8 11.1 17.3 16.8 25.5 5.7 8.3 13.8 19.5 17.9 25 4.2 5.5 14.8 17.2 23.6 26 8.8 8.9 20.7 19.9 26.5 24.7 5.8 4.7 15.7 12.3 22 16.9 6.3 4.6 16.9 11.6 23.5 15.6 6.6 3.9 17.2 9.5 23.5 12.3 6.3 2.8 16.9 6.8 23.5 8.9 6.6 2.1 17.2 5 23.5 6.5 6.3 1.4 16.5 3.3 22.5 4.2 8.5 1.2 15.6 1.5 31 1.1 16.9-.4 21.6-.9 30.5-3 5.8-1.4 14.3-3.9 19-5.5 4.7-1.6 15.5-6 24-9.7 8.5-3.7 19.5-8.8 24.5-11.2 5-2.5 12.2-6.3 16-8.5 3.8-2.2 13.9-8.6 22.3-14.2 14.7-9.7 15.4-10.3 17.1-15.1 1.1-2.7 2.8-7.9 4-11.5 1.2-3.6 2.6-9.4 3.2-13 .7-4.6.7-9.3-.2-16-.6-5.2-2.2-13.3-3.6-18-1.3-4.7-4.1-11.7-6.1-15.5-2-3.8-6.1-9.5-9.2-12.5-3-3.1-7.1-6.3-9-7.2-1.9-.9-6.2-2.4-9.5-3.3-4-1.1-13.9-1.9-29.5-2.6-12.9-.5-27.8-1.7-33-2.5-5.2-.8-12.8-2.6-16.8-4-3.9-1.3-11.1-4.4-16-6.8-4.8-2.4-12.4-7-16.9-10.2-4.5-3.3-12.1-9.5-16.9-13.9-4.8-4.4-10.8-9.3-13.3-11-2.5-1.7-5.2-4.3-6-6-1-2.2-1.1-4-.5-6.5.6-2.3 2.1-4.2 4.4-5.7 1.9-1.3 5-2.3 6.7-2.3 1.8 0 4.8.7 6.5 1.6 1.8.9 6.4 4.5 10.3 7.9 3.9 3.4 9.9 8.4 13.5 11.2 3.6 2.8 10.1 7.2 14.5 9.8 4.4 2.7 11.4 6 15.5 7.6 4.1 1.5 11.3 3.4 16 4.3 4.7.9 18.9 2 31.5 2.6 12.7.5 26.4 1.6 30.5 2.4 4.1.8 9.7 2.2 12.5 3.1 2.7 1 6.1 2.3 7.5 3 1.4.7 5.3 3.4 8.7 5.9l6.3 4.6c5.8-4.5 10.9-7.6 15-9.8 4.1-2.3 12.7-6.1 19-8.5 6.3-2.4 20.3-7.2 31-10.7 10.7-3.4 24.2-8.5 30-11.4 5.8-2.8 14.5-7.8 19.5-11 6.4-4.2 13.6-10.5 24.5-21.5 12.2-12.3 16.9-16.4 22-19 5.5-2.8 7.2-3.2 11-2.7 2.5.3 5.5 1.3 6.7 2.1 1.3.8 3 3.1 3.8 5 1.1 2.7 1.3 4.3.5 7-.6 2.2-2.2 4.2-4.3 5.5-1.7 1.1-4.4 2-6 2-2.1 0-4.4 1.8-10.4 8.3-4.3 4.5-12.3 12.7-17.8 18.2-5.9 5.9-13.9 12.7-19.5 16.4-5.2 3.5-14.2 8.6-20 11.3-5.8 2.8-21.1 8.5-34 12.8-12.9 4.2-28 9.7-33.5 12.1-5.5 2.4-11.8 5.3-14 6.6-2.2 1.2-5.3 3.3-7 4.6l-3 2.4c4.1 9.2 6.5 15.6 7.9 20.3 1.4 4.7 2.7 10.1 3 12 .3 1.9.8 4.8 1.1 6.5.3 1.7.5 8 .5 14 .1 8.7-.5 13.1-2.5 21-1.5 5.5-3 10.7-3.4 11.5-.5.8-1.1 4-1.5 7-.5 4-1.6 6.7-4 10-1.9 2.5-4.9 5.9-6.8 7.7-1.8 1.7-5.3 4-7.8 5.1-2.5 1-8.5 4.6-13.5 7.9l-9 5.9c18.6 11.1 25.8 15 28 16 2.2.9 7.8 2.8 12.5 4.2 7.3 2.1 11.1 2.5 27.5 3 14.5.3 22.1 0 32-1.3 7.2-.9 17.3-2.6 22.5-3.6 5.2-1.1 14.7-3.3 21-5 6.3-1.7 17.6-5.1 25-7.6 7.4-2.5 18.2-6.6 24-9 5.8-2.5 13.2-5.9 16.5-7.6 3.3-1.6 10.3-5.4 15.5-8.4 5.2-3 15.1-9.2 22-13.8 6.9-4.6 18.5-13.1 25.7-18.9 7.3-5.8 18.1-15.4 24.1-21.3 5.9-6 13.8-14.6 17.5-19.3 3.8-4.7 10.3-13.7 14.6-20 4.3-6.3 11.1-17.3 15.1-24.5 4-7.2 9.6-18.2 12.5-24.5 2.9-6.3 7.7-17.6 10.8-25 3.1-7.4 6.8-16.7 8.2-20.5 1.5-3.8 4-11 5.6-16 1.7-5 4.5-14.4 6.4-21 1.8-6.6 5.2-19 7.4-27.5s5.5-22.9 7.5-32c1.9-9.1 5.3-26.4 7.5-38.5 2.2-12.1 5.6-33 7.5-46.5 1.9-13.5 4.1-31.9 5-41 .8-9.1 2.1-28 2.7-42 1-20 1-32.4 0-57.5-.6-17.6-1.8-41.7-2.6-53.5-.8-11.8-2.1-29.8-3-40-.8-10.2-2.2-24.8-3-32.5-.9-7.7-2.7-22.8-4.1-33.5-1.4-10.7-3.4-25.4-4.5-32.5-1.1-7.1-3.1-19.7-4.5-28-1.4-8.2-5.2-29.6-8.4-47.5s-7.5-43.7-9.4-57.5c-1.9-13.7-4.4-34.2-5.6-45.5-1.1-11.3-3.6-31.7-5.5-45.5-3.2-23.7-3.5-25.1-5.9-27-1.4-1.1-3-3.2-3.6-4.7-.5-1.6-1-6.5-1-11 0-4.6-.6-13.5-1.4-19.8-.8-6.3-2.6-16.9-4.1-23.5-1.4-6.6-3.7-15.8-5.1-20.5-1.5-4.7-4.3-13.7-6.4-20-2.1-6.3-6.2-16.4-9.3-22.5-3-6-8.6-15.7-12.4-21.5-4-6.1-9.5-12.7-12.9-15.8-3.6-3.3-8-6.1-11.4-7.4-3-1.1-9.1-2.6-13.5-3.4-4.4-.8-11.4-1.4-15.5-1.3-4.1 0-10.4.7-14 1.5-3.6.8-9.2 2.7-12.5 4.2zm37.6 54.2c3.1 0 4.4.6 6.4 3 1.4 1.6 2.5 4.1 2.5 5.5 0 1.4-1.3 7.6-2.9 13.8-1.7 6.1-6.2 21.6-10.1 34.2-3.9 12.6-8.2 26.4-9.7 30.5-1.4 4.1-3.6 9.6-4.9 12.3-1.3 2.6-3.4 5.4-4.7 6.2-1.2.8-3.5 1.5-5.2 1.5-1.7 0-4-.7-5.3-1.5-1.2-.8-2.7-3-3.2-4.7-.9-2.8-.5-5.1 2.9-15.8 3-9.3 3.7-12.7 2.8-13.2-.7-.4-1.8-.8-2.5-.8-.6 0-2.5-1.1-4.2-2.5-1.8-1.5-3.2-3.8-3.6-5.7-.3-1.9 1-11.4 3.1-22.3 1.9-10.4 4-20.5 4.5-22.2.6-1.8 2-4 3.2-4.8 1.3-.8 3.6-1.5 5.3-1.5 1.7-.1 4.1.8 5.5 1.8 1.4 1 2.8 3.4 3.3 5.3.4 1.9.3 5.8-.3 8.9-.6 3-.9 5.7-.6 6 .3.3 2-4.4 3.9-10.5s3.8-12.6 4.3-14.5c.4-1.9 1.9-4.7 3.2-6.2 1.8-2.2 3.3-2.8 6.3-2.8zM801 464.7c1.4.3 3.5 1.5 4.6 2.7 1.2 1.1 3.9 6.4 6.1 11.6 2.2 5.2 6.4 15.8 9.3 23.5 2.9 7.7 5.5 16 5.8 18.5.5 3.9.2 4.9-2.1 7.3-2 2-3.5 2.7-6.4 2.7-3-.1-4.5-.8-6.8-3.3-2-2.1-4.4-7-6.9-14.2-2.2-6.1-6.1-16.9-8.8-24-2.6-7.1-4.8-14.6-4.8-16.5 0-2.4.7-4.2 2.2-5.6 1.3-1.2 3-2.4 3.8-2.7.8-.3 2.6-.3 4 0zM784.2 478c2.9 0 4.3.6 6.1 2.8 1.3 1.5 2.7 4.1 3.1 5.7.4 1.6.5 3.9.2 5-.4 1.1 0 4.7.7 8 .8 3.3 2.3 8.6 3.3 11.7 1.3 3.9 2.6 6.1 4.2 6.8 1.2.5 2.9 2.5 3.8 4.3 1.3 2.6 1.4 3.9.5 7-.6 2-2.3 4.6-3.8 5.7-1.8 1.4-4.4 2.1-7.3 2.1-3.9 0-5-.5-8.1-3.8-2.4-2.6-4.3-6.3-6.1-11.8-1.5-4.4-3.3-11.1-4.1-15-.8-3.9-1.8-9.5-2.2-12.5-.3-3.3-.2-6.7.5-8.5.6-1.6 2.1-4 3.2-5.2 1.5-1.6 3.3-2.3 6-2.3zm417.6 78.1c2.3-.1 5.4.4 6.9 1 1.6.6 3.8 2 5.1 3.2 1.2 1.2 2.3 3.3 2.3 4.7 0 1.4-.8 3.2-1.7 4-1.3 1.1-4.4 1.5-12.3 1.6-9.4 0-11.8.4-21.6 3.7-6 2-11.9 4.3-13 5.1-1.1.9-3.2 1.6-4.8 1.6-1.5 0-3.4-.7-4.2-1.5-.8-.8-1.5-2.7-1.5-4.2 0-1.6.9-3.7 2.2-4.9 1.3-1.2 4.1-3.1 6.3-4.1 2.2-1.1 7.6-3.2 12-4.6 4.4-1.5 10.7-3.3 14-4.1 3.3-.8 7.9-1.5 10.2-1.5zm-249.7 26.3c7.9.2 10.5.7 15.2 2.9 4.1 1.9 6.1 3.5 6.8 5.5.8 2.1.7 3.2-.5 5-.8 1.2-2.5 2.4-3.8 2.7-1.2.3-4.2-.1-6.7-1s-6.9-1.8-9.9-2.2c-3-.3-9 0-13.5.8s-9 1.3-10.1 1.1c-1.1-.2-2.8-1.1-3.8-2-1-.9-1.8-2.8-1.8-4.2 0-1.4 1-3.4 2.2-4.5 1.3-1.3 4.7-2.4 9.2-3.2 4-.6 11.5-1 16.7-.9zm-75 109.1c4.4.3 7.4 1.1 9.2 2.5 1.6 1.1 3.3 2 3.8 2s2.1 1.1 3.5 2.5c1.6 1.6 2.5 3.6 2.5 5.8 0 1.7 1.1 5.5 2.4 8.2 1.4 2.8 4.3 6.7 6.5 8.8 2.3 2 6.7 5 9.8 6.6 3.2 1.5 9.4 3.8 13.8 4.9 4.4 1.2 12 2.8 17 3.7 5 .8 12.8 1.5 17.5 1.5 4.9 0 10.8-.7 14-1.6 3-.9 9.3-3.4 14-5.6 4.7-2.1 11.6-5.9 15.5-8.3 3.9-2.4 8.6-6 10.5-8 1.9-2 4.7-4.3 6.2-5.1 1.6-.8 3.9-1.4 5.3-1.4s3.8 1.1 5.5 2.5c2.5 2 3 3.3 3 6.8 0 3.1-.7 5.3-3 8.5-1.6 2.3-6 6.4-9.8 9.2-3.7 2.7-12.3 7.8-19.2 11.4-6.9 3.5-15.4 7.3-19 8.6-3.6 1.2-10.1 2.6-14.5 3.1-5.3.6-11.3.6-17.8-.1-5.3-.5-13.9-1.9-19-3-5-1.1-13-3.4-17.7-5-4.7-1.7-10.9-4.5-13.9-6.2-3-1.8-8-5.8-11.1-8.8-3.5-3.5-7-8.3-9.4-13-2.1-4.2-4.1-9.8-4.4-12.8-.6-4.1-1.1-5.2-2.5-5.2-.9 0-4.7.5-8.5 1.1-3.7.7-7.9.9-9.5.5-1.6-.4-2.9-1.5-3.3-2.8-.3-1.3-.3-3.3 0-4.5.3-1.3 2.1-3 3.8-3.9 1.8-.9 5.3-2 7.8-2.5 2.5-.4 7.4-.6 11-.4zm376.5 4.4c1.1.2 2.6.9 3.3 1.5.7.6 1.3 2.2 1.2 3.6 0 1.4-.4 3-.8 3.7-.4.6-2.3 1.8-4.2 2.6-1.9.8-5.6 1.7-8.3 2.1-2.8.4-5.9 1.6-7.7 3.1-1.7 1.4-3.3 2.5-3.8 2.5-.4 0-.7 2.8-.8 6.3-.1 4.4-.8 7.6-2.5 11.1-1.3 2.7-4.9 7.2-7.9 10s-9.6 7.2-14.5 9.7c-5 2.6-12.6 5.8-17 7.2-4.4 1.4-11.5 3-15.8 3.6-4.2.6-10.7 1.1-14.5 1.1-3.7 0-9.6-.5-13.2-1-3.6-.6-9.4-2-13-3.2-3.6-1.1-9.9-3.8-14-5.9-4.1-2.1-10.2-6-13.5-8.7-3.3-2.6-7.6-6.9-9.5-9.4-1.9-2.5-4.3-7-5.2-10-1-2.9-1.8-6.5-1.8-8 0-1.8 1.1-3.9 2.9-5.8 1.9-1.9 4-3 5.8-3 1.5-.1 3.9.8 5.3 1.8 1.4 1.1 3.5 4.5 4.7 8 1.7 4.7 3.3 7 6.5 9.6 2.4 1.9 7.2 5 10.8 6.9 3.6 2 9.9 4.6 14 5.9 6.3 1.9 9.5 2.3 20 2.2 9.3-.1 14.5-.7 20.5-2.3 4.4-1.2 10.7-3.4 14-4.9 3.3-1.6 8.1-4.3 10.7-6 2.7-1.8 5.4-4.4 6.2-5.9.7-1.6 1.6-4.4 1.9-6.3.4-1.9 1.8-4.7 3.3-6.2 1.9-2 3.7-2.8 6-2.8 2.8 0 3.5-.4 3.9-2.5.3-1.5 2.3-3.8 4.7-5.5 2.4-1.7 6.5-3.5 9.3-4 2.7-.5 6.3-1.1 8-1.2 1.7-.2 3.9-.2 5 .1zM1056.1 740c3.8 0 6.5.6 8.7 2 1.8 1.1 4.4 3.5 5.7 5.3 1.3 1.7 2.9 5 3.6 7.2.8 2.6 1.1 6.6.7 11.5-.4 4.1-1.2 9.1-1.9 11-.7 1.9-2.6 4.2-4.3 5.2-3 1.8-3 1.9-2.6 9 .1 4 .7 8.1 1.2 9.1.5.9 2.6 2 4.6 2.3 2.9.4 5.2-.1 9.5-2 3.2-1.4 6.6-2.4 7.5-2.2 1 .3 2.4 1.2 3 2 .7.9 1.1 2.7.8 4.1-.4 1.9-1.9 3.1-6.3 5.1-3.1 1.4-7.7 3-10.2 3.6-3.4.7-5.5.6-8.5-.4-3.5-1.2-4.7-1.1-9.5.5-3.3 1.1-6.7 1.6-8.5 1.2-1.7-.3-6.3-1.8-10.4-3.3-4.6-1.6-8.1-3.6-9-5-1.3-1.9-1.4-2.7-.4-4.8.9-1.6 2.2-2.4 4-2.4 1.6 0 5.6 1.1 9 2.5 3.5 1.4 7.3 2.5 8.5 2.5 2.3 0 2.3-.2 2-10.3-.2-7-.9-11.3-2-13.7-.9-1.9-3.7-5.8-6.2-8.5-2.5-2.8-5.3-6.7-6.3-8.8-.9-2-1.7-5.6-1.7-7.9 0-2.9.8-5.5 2.5-8 1.4-2.1 2.6-3.8 2.7-3.8.2 0 2.1-.7 4.3-1.5 2.2-.8 6.5-1.4 9.5-1.5zm-297.8 11.1c6-.1 14.3.4 18.6 1 4.2.6 8.8 1.7 10.2 2.4 1.4.6 2.8 2 3.3 2.9.4.9.7 2.7.7 4.1q0 2.5-2.7 4.2c-2.4 1.4-3.3 1.5-6.8.4-2.2-.7-9.4-1.5-16-1.8-6.7-.3-13.8-.1-16 .5-2.2.6-5.4 1.5-7 2-2.1.7-3.7.7-5.5-.2-1.8-.8-2.6-2.1-2.8-4.6-.2-2.6.4-4.1 2-5.8 1.3-1.3 4.3-2.9 6.8-3.7 2.5-.8 9.2-1.4 15.3-1.4zm642.5 4c1.7-.1 4 .3 4.9.8 1 .4 2.1 2 2.5 3.5.5 1.4.3 3.5-.2 4.6-.5 1.1-2.2 2.6-3.8 3.4-1.5.8-7.7 2.4-13.7 3.6-6 1.2-17.5 3.7-25.5 5.6-8 1.9-17.8 4.5-21.8 5.9-6.2 2.2-7.5 2.3-9.5 1.2-1.2-.8-2.5-2.2-2.8-3.3-.4-1-.2-3 .5-4.3.6-1.4 2.4-3.3 4.1-4.2 1.7-1 8-3.2 14-5 6-1.7 19.3-5.1 29.5-7.4 10.2-2.4 20-4.3 21.8-4.4zm-534.8 9c1.4 0 4.3.8 6.5 1.8s6.6 4.7 9.9 8.2c3.2 3.5 6.7 8 7.6 9.9 1 1.9 2.1 5.1 2.5 7 .5 2.5.2 4.8-1.2 8-1.4 3.3-3.3 5.4-6.9 7.8-2.8 1.8-6.8 3.5-9.4 3.8-2.5.4-6.8.4-9.5 0-2.8-.4-7.2-1.9-9.9-3.4s-6.2-4.5-7.8-6.7c-1.5-2.2-3.1-5.6-3.4-7.5-.3-1.9-.1-5.3.5-7.5.5-2.2 2.5-5.9 4.3-8.2 1.8-2.4 4.2-5.7 5.4-7.4 1.2-1.7 3.6-3.7 5.5-4.5 1.9-.7 4.5-1.3 5.9-1.3zm-8.6 24.9c-.4 1.8.1 3.1 1.8 4.8 1.2 1.2 3.9 2.7 5.8 3.3 1.9.6 5.1.8 7 .5 1.9-.3 4.3-1.5 5.2-2.6 1.6-1.8 1.6-2.3.4-4.7-.8-1.6-3.1-4.7-5.3-7-2.2-2.5-4.7-4.2-6-4.3-1.3 0-3.4 1.5-5.3 3.8-1.7 2-3.3 4.8-3.6 6.2zm400.6-17c1.4 0 3.2.7 4.1 1.7.9 1 1.9 2.5 2.1 3.3.3.8-.1 2.6-.8 4-1.2 2.4-1.1 2.7 3.8 6.5 2.8 2.2 6.1 5.8 7.4 8 1.3 2.2 2.4 5.4 2.4 7 0 1.7-1 4.6-2.2 6.5-1.3 1.9-4.1 4.4-6.3 5.4-2.2 1.1-6.3 2.2-9 2.4-3.1.2-6.6-.2-9.3-1.2q-4.2-1.6-7.3-5.8c-1.6-2.4-3.4-6.2-4-8.5-.7-3.5-1.3-4.3-3.2-4.3-1.2 0-3-.8-4-1.8-1-.9-1.8-2.9-1.7-4.4q0-2.8 3.9-6.7c2.7-2.7 5.4-4.3 8.7-5.1 2.7-.7 5.2-1.6 5.7-2.1.4-.5 2.2-1.8 3.9-2.9 1.8-1.1 4.4-2 5.8-2zm-4.8 29.8c.7.7 3 1.2 5 1.2 2.1 0 3.8-.5 3.8-1s-1.7-2.3-3.8-3.8c-2-1.6-4.2-3.2-4.8-3.6q-1.2-.7-1.3 2.6c-.1 1.8.4 3.9 1.1 4.6zM778 779.5c4.4.2 5.9.7 7.3 2.6 1 1.3 1.8 3 1.7 3.7 0 .6-1 2.2-2.3 3.5-1.8 1.9-3.7 2.5-10.2 3-4.4.3-12.7 1.6-18.5 2.8-5.8 1.2-13 3-16 4-3 1.1-6.7 1.9-8.3 1.9-1.7 0-3.3-.9-4.3-2.2-1-1.5-1.3-3.3-1-5 .5-2.2 1.9-3.4 6.8-5.8 3.5-1.6 10.6-3.9 15.8-5 5.2-1.1 12.6-2.4 16.5-2.9 3.8-.5 9.5-.8 12.5-.6zm635.9 6.5c1.4 0 3.6.7 4.8 1.5 1.4.9 2.3 2.5 2.3 4 0 1.4-.5 3.4-1 4.5-.6 1.1-2.9 2.7-5.3 3.5-2.3.8-12.3 2.8-22.2 4.5-9.9 1.7-22.7 4.2-28.5 5.6-5.8 1.5-12.5 3.4-15 4.4-3.1 1.2-5.2 1.5-6.8.9-1.2-.5-2.7-1.9-3.3-3.1-.6-1.3-.8-3.3-.5-4.5.3-1.3 2.1-3.2 3.8-4.2 1.8-1.1 10.3-3.8 18.8-6s23.2-5.4 32.5-7.2c9.3-1.7 17.2-3.3 17.4-3.5.2-.2 1.6-.4 3-.4zM843.5 952.4c2.7.2 9.3 2.2 14.5 4.4 5.2 2.2 13.8 6 19 8.5 5.2 2.4 14.4 6.1 20.5 8.1 6 2 14.8 4.5 19.5 5.6 4.7 1 13.8 2.6 20.2 3.5 6.5.8 14.6 1.5 18 1.5 3.5 0 9.4-.5 13.3-1 4.4-.6 9.6-2.3 14-4.5 3.8-1.9 10.1-6 14-9.1 3.8-3.1 9.7-6.9 13-8.5 3.3-1.6 7.6-3.1 9.5-3.5 2-.3 6.3.1 10 1.1 4.2 1 8.6 3.1 12.5 5.9 3.3 2.4 8.3 7.2 11.1 10.7 2.9 3.5 6.2 8.5 7.5 11.2 1.3 2.6 2.6 4.7 2.9 4.7.3 0 2.3-2.5 4.5-5.5 2.2-3.1 6.5-7.5 9.5-9.9 3-2.5 9.3-6.3 14-8.5 5.7-2.7 11.1-4.4 16.5-5.3 6.2-.9 9.6-1 15 0 3.9.6 9.6 2.5 12.7 4.2 3.2 1.6 8.8 5 12.5 7.3 3.8 2.4 12 6.5 18.3 9 6.3 2.6 15.1 5.6 19.5 6.7 5.4 1.4 11.1 2 17.5 2 5.2 0 14.2-.7 20-1.5 5.8-.9 13.4-2.4 17-3.5 3.6-1 7.6-1.9 9-2 1.4-.1 3.5-.2 4.7-.1 1.3.1 3.6 1.5 5.3 3.1 2.3 2.3 3 3.9 3 7 0 2.2-.8 5.2-1.8 6.6-.9 1.5-3.5 3.7-5.7 5-2.2 1.2-7.6 3.2-12 4.3-4.4 1.1-13.2 2.7-19.5 3.7-8.1 1.1-15.2 1.5-24 1.1q-12.5-.5-19.8-2.6c-3.9-1.2-12.7-4.1-19.5-6.6-8.1-3-15.9-6.8-23.2-11.3-6.1-3.8-12.8-7.4-15-8.1-2.3-.8-6.5-1.2-10-.9-3.7.2-8.3 1.5-12 3.2-3.3 1.5-7.9 4.3-10.3 6.2-2.3 1.9-5.2 5.3-6.3 7.7-1.2 2.3-2.8 7.1-3.6 10.7-.7 3.6-1.6 7.9-1.9 9.5-.3 1.7.6 9.1 2.1 16.5 1.6 8.5 2.5 16.9 2.5 22.8 0 5-.9 14.3-1.9 20.5-1.1 6.1-3.6 16.5-5.5 23-2 6.4-4.7 14.3-6.1 17.5-1.4 3.1-2.4 5.7-2.3 5.8.2 0 1.8.7 3.7 1.5 1.9.8 5.3 3.8 7.7 6.9 2.4 3 6.7 7.6 9.6 10.1 2.9 2.5 7.5 6.1 10.3 7.9 2.7 1.9 11.5 6.4 19.5 10.1 8 3.7 18.5 8 23.5 9.7 4.9 1.6 13.5 3.9 19 5.1 5.5 1.1 16.7 2.6 25 3.2 8.7.7 21.5.9 30.5.5 8.5-.4 19.8-1.1 25-1.7 5.2-.5 13.1-1.9 17.5-2.9 4.4-1.1 12.7-3.5 18.5-5.4 5.8-1.9 12.5-4.2 15-5.1 2.5-1 7.9-3.1 12-4.7 4.1-1.7 9.7-4.2 12.5-5.6 2.7-1.4 7.7-4.5 11-6.9 3.3-2.3 7.2-4.5 8.7-4.8 1.6-.3 4.3.3 6.4 1.3 2.1 1 4.1 3 5 5 1.1 2.6 1.2 4 .3 7.5-.8 2.9-2.8 5.8-6.3 9.3-2.8 2.8-8.3 6.7-12.1 8.6-3.8 2-11.3 5.4-16.5 7.6-5.2 2.2-17.2 6.6-26.5 9.7-9.3 3-21.3 6.4-26.5 7.5-5.2 1.1-14.9 2.5-21.5 3.1-6.6.7-21.5 1.2-33 1.2-11.6 0-25.5-.5-31-1.1-5.5-.7-13.6-1.9-18-2.8-4.4-.9-13.2-3.2-19.5-5.1-7.5-2.2-17.5-6.4-28.5-12-9.3-4.7-19.9-10.6-23.5-13.1-3.6-2.6-11.3-9.5-17.3-15.4-5.9-5.9-11-10.8-11.5-10.8-.4 0-3.2 2.9-6.2 6.6-3 3.6-9.3 10.1-14 14.3-4.7 4.3-11.7 10.2-15.5 13.1-3.9 2.9-11.1 7.3-16 9.8-5 2.4-13.5 5.9-19 7.7-5.5 1.9-15.4 4.3-22 5.4-6.6 1.1-18.3 2.5-26 3.2-7.7.6-20.3.9-28 .6-8.5-.3-19.5-1.6-28-3.1-7.7-1.5-19.4-4-26-5.7-6.6-1.7-17.6-5.1-24.5-7.6-6.9-2.5-19.2-8-27.4-12.2-8.3-4.2-15.8-8.7-16.8-10.1-1-1.4-1.9-3.5-1.8-4.7 0-1.3.7-3.6 1.5-5.3.8-1.7 2.8-3.7 4.5-4.5 1.6-.8 4.3-1.5 6-1.5 1.6 0 6.7 2 11.2 4.4 4.6 2.4 11.8 5.8 16 7.5 4.3 1.7 12.9 4.6 19 6.5 6.2 1.9 17.8 4.8 25.8 6.5 8 1.7 19.4 3.8 25.5 4.7 8.5 1.3 15.1 1.5 29.5 1.1 10.2-.3 23.2-1.3 29-2.2 5.8-.9 14.8-2.7 20-4.1 5.2-1.4 13.5-4.4 18.5-6.8 4.9-2.4 11.7-6.3 15-8.8 3.3-2.4 10.2-8.4 15.4-13.4 5.1-4.9 11.5-11.8 14.2-15.4 2.7-3.6 6.7-9.9 8.8-14 2.1-4.1 5.2-11.8 6.9-17 1.7-5.2 3.9-14.1 5.1-19.7 1.3-6.2 2.1-14.1 2.1-19.8 0-5.2-.7-13.4-1.7-18.2-.9-4.9-2.4-9.7-3.3-10.8-.9-1.1-2-2.5-2.3-3-.3-.5-1.3-4.6-2.2-9-1-4.7-3.6-12.2-6.4-18-2.7-5.6-6.7-12.2-9.3-15-2.4-2.7-5.9-5.6-7.6-6.2-2.9-1.2-3.6-1-7.5 1.2-2.3 1.4-7.4 5-11.2 8-3.9 3-10.2 7-14 8.9-3.9 1.9-10.6 4.2-15 5.2-5.6 1.3-12.2 1.8-22 1.8-7.7 0-17.6-.6-22-1.3-4.4-.7-12.5-2.1-18-3.2s-14.7-3.6-20.5-5.5c-5.8-2-19.7-8-31-13.5-17.3-8.4-21.2-10-25.3-9.9-2.9 0-5.7-.7-7.3-1.7-1.4-1-3-3.4-3.6-5.3-.8-2.7-.6-4.3.6-7.2 1.2-2.8 2.8-4.4 5.8-5.8 3.2-1.5 5.6-2 9.3-1.6z" style="fill:#000"/>
</svg>
