<svg version="1.2" xmlns="http://www.w3.org/2000/svg" width="2048" height="2048">
    <path fill-rule="evenodd" d="M660.5 494.3c4.1.2 7.9 1.2 12 3.1 3.4 1.6 8.6 5.3 11.9 8.5 3.2 3.1 8.5 9.6 11.8 14.6 3.3 5 8.2 13.3 10.8 18.5 2.6 5.2 8.7 18 13.5 28.5 4.8 10.5 10.6 22.4 12.8 26.5 2.2 4.1 5.5 10.1 10.7 19l2.7-2c1.6-1 10-4 18.8-6.5s23-6.4 31.5-8.5c8.5-2.1 22.2-5.3 30.5-6.9 8.2-1.7 22-4 30.5-5.3 12.8-1.8 19.9-2.2 40.5-2.2 19.2-.1 27.6.3 36 1.7 6 1 16.4 3.1 23 4.7 6.6 1.5 19.5 4.2 28.7 5.9 9.3 1.7 17.5 3.1 18.3 3.1.8 0 1.9-1.2 2.3-2.8.5-1.5 3.9-8.1 7.7-14.7 3.7-6.6 11.5-19.2 17.3-28 5.7-8.8 13.2-19.6 16.6-24 3.3-4.4 9-10.9 12.6-14.5 3.6-3.7 8.9-7.8 12-9.3 3-1.5 7.7-3 10.5-3.3 2.7-.4 7.5-.1 10.5.5s8.4 2.8 11.8 4.9c3.5 2 9.6 6.8 13.4 10.7 3.9 3.9 9.2 9.9 11.9 13.5 2.7 3.6 7.1 10.5 9.8 15.5 2.8 5 7.3 14.6 10 21.5s6.3 17.7 8 24c1.6 6.3 3.7 15.3 4.5 20 .9 4.7 2.3 15.7 3.1 24.5.8 8.8 1.8 22.7 2.2 31 .5 11.8 1 15.6 2.4 18 1.2 1.9 5.7 22.4 11.9 54 5.5 28 12.1 61.1 14.6 73.5 2.5 12.4 8.5 41.2 13.4 64 4.9 22.8 11.1 52.7 13.9 66.5 2.7 13.7 6.8 35.8 9 49 2.2 13.2 4.9 31.2 6 40 1.1 8.8 2.5 23 3.2 31.5.7 9.2.9 24.2.6 37-.4 13.7-1.3 26.2-2.5 34.5-1.1 7.2-3 16.8-4.2 21.5-1.2 4.7-3.5 12.1-5.1 16.5-1.6 4.4-5.1 12-12.5 26l4.1 5.6-2.3 33.2c-1.3 18.3-3.6 46.7-5.3 63.2-1.6 16.5-4.1 38.3-5.5 48.5-1.3 10.2-3.4 24.1-4.5 31-1.1 6.9-3.4 19.2-5.1 27.5-1.6 8.2-4.7 21.7-6.8 30-2.1 8.2-6.1 22.2-9 31-2.9 8.8-8 23-11.3 31.5-3.4 8.5-11.9 27-18.9 41-6.9 14-20 38.3-29 54-9.1 15.7-26.5 46-38.8 67.5-12.2 21.5-26 44.6-30.5 51.5-4.5 6.9-11 16.1-14.5 20.5-3.5 4.4-6.7 9.5-7.2 11.2-.5 2.2-2.1 4.2-4.9 6-2.3 1.6-6.1 4.6-8.5 6.8-3.1 2.7-4.3 4.6-3.9 5.7.3 1 0 2.7-.5 3.8-.5 1.1-4.5 3.9-8.8 6.2-4.2 2.4-8.8 5.3-10.2 6.4-1.4 1.2-6.8 3.6-12 5.3-5.2 1.7-11.5 3.1-14 3.1s-7.9-.9-12-1.9c-4.1-1-9.5-2.9-12-4.1-2.5-1.3-6.3-3.7-8.4-5.4-2.2-1.7-7-7.1-10.9-12.1-3.8-5-8.4-11.7-10.2-15-1.8-3.3-4.4-9.4-5.9-13.5-1.4-4.1-3.5-12.9-4.7-19.5-1.7-9.5-2.2-17.3-3.1-62l-14.1-4.7c-7.8-2.6-17.6-5.6-21.7-6.7-4.1-1.1-14.3-3.4-22.5-5-8.3-1.7-15.3-2.7-15.7-2.3-.3.4-3.9 8.8-7.8 18.7-4 9.9-9.9 25.9-13.1 35.5-3.6 10.6-9.1 23.8-13.8 33.5-4.4 8.8-10.8 20-14.3 24.9-3.4 4.9-9.4 11.9-13.3 15.5-3.9 3.7-10.1 8.5-14 10.8-3.9 2.3-9.9 5.2-13.5 6.4-3.9 1.3-10.1 2.3-15.5 2.6-5.9.4-11.9 0-17.5-1.1-4.7-.8-13.2-3.2-19-5.2-5.8-2-15.2-6-21-8.9-5.8-3-14.5-8.2-19.5-11.7-4.9-3.5-13.3-10.6-18.5-15.8-5.9-5.8-12.2-13.4-16.3-19.5-3.6-5.5-8.8-14.7-11.5-20.5-2.7-5.8-6.8-16.1-9-23-2.3-6.9-5.9-18.8-8.1-26.5-2.2-7.7-5.6-18.7-7.6-24.5-2-5.8-6.2-15.9-9.5-22.5-3.2-6.6-8.7-16-12.1-21-3.5-5-11.8-14.4-18.4-21-6.6-6.6-15.9-14.7-20.5-18-4.6-3.3-13.2-8.7-19-12-5.8-3.3-19.7-10.3-31-15.5-11.3-5.2-32-15.1-46-22.2-14-7-34.1-17.8-44.5-24.1-10.5-6.2-32.5-20.4-49-31.4s-41.5-28.1-55.5-37.8c-14-9.8-33.4-23.7-43-30.9-9.6-7.2-22.9-17.6-29.5-23.1-6.6-5.5-17.6-15.6-24.5-22.5-7-6.9-16.4-17.2-21-23-4.6-5.8-11.5-15.2-15.2-21-3.8-5.8-9.6-15.9-12.8-22.5-3.3-6.6-8-18.1-10.4-25.5-2.5-7.4-5.6-18.9-7-25.5-1.3-6.6-3-17.2-3.7-23.5-.7-7.2-1-18-.6-29 .3-11 1.3-21.6 2.6-28.5 1.1-6 3.2-15 4.6-20 1.4-5 4.9-13.7 7.7-19.5 4.4-9 6.5-11.8 13.8-19.1 6-6.1 10.4-9.4 15-11.7 3.6-1.7 9.6-3.8 13.5-4.8 5.2-1.2 9.6-1.5 17-1.1 5.5.3 13.6 1.5 18 2.7 4.4 1.1 12.9 4.2 19 6.8 6 2.6 15.9 7.6 21.9 11.2 5.9 3.6 16.3 10.6 23 15.6 6.6 5 18 14.3 25.1 20.5 7.1 6.3 17.7 15.9 23.4 21.4 5.7 5.5 16.3 16.3 23.5 24 7.2 7.7 23.2 25.5 35.5 39.5s31.7 34.7 43 46c11.3 11.3 25.5 24.3 31.4 29 5.9 4.7 15.1 11.3 20.5 14.7 5.3 3.4 9.9 6.2 10.2 6.2.3 0-.9-5.7-2.7-12.7-1.7-7-4.3-19.7-5.7-28.2-1.5-8.5-3.3-22.3-4.1-30.5-.8-8.3-1.8-25.6-2.1-38.5-.4-14.7-.2-30.5.5-42 .7-10.2 2.3-27 3.6-37.5 1.3-10.5 3.8-26.9 5.5-36.5 1.7-9.6 5.1-26.5 7.5-37.5 2.5-11 6.7-28.5 9.5-39s7.2-25.8 9.7-34c2.4-8.3 9.7-30.8 16-50 6.3-19.3 13.2-41.8 15.3-50 2.1-8.3 4.8-20.2 6-26.5 1.1-6.3 2.7-13.1 3.5-15 .8-1.9 5-17.9 9.4-35.5s10.5-41 13.6-52c3.1-11 8.5-29.5 12-41s8.7-30.5 11.5-42c2.8-11.5 6.7-26.9 8.6-34 1.9-7.1 5.1-18.2 7-24.5 2-6.3 5.1-16 7.1-21.5 1.9-5.5 6-15.2 9-21.5 3-6.3 7.1-14.2 9.1-17.5 2-3.3 5.7-8.5 8.2-11.5 2.5-3 7-7.1 9.9-9 2.9-1.9 7.2-4.3 9.5-5.2 2.6-1.1 6.2-1.6 10.1-1.5zm-11.8 25.6c-2.2 2-5.6 6.1-7.7 9.1-2 3-5.8 9.5-8.2 14.5-2.5 5-6.4 14-8.6 20-2.2 6-5.9 17.1-8.2 24.5-2.3 7.4-8.2 29.5-13.1 49s-9.9 37.3-11 39.5c-1.2 2.2-2.6 5.4-3.1 7-.5 1.6-5.1 19.2-10.3 39-5.2 19.8-13 50.6-17.5 68.5-4.4 17.9-9.4 39-11 47-1.6 8-3.8 20.5-5 27.7-1.1 7.3-2 14.9-2 16.8 0 2.8.8 4.2 3.7 6.7 2 1.8 6.8 5.7 10.7 8.7 3.9 2.9 10.9 7.9 15.6 11.1 4.7 3.1 13.9 8.9 20.5 12.8 6.6 3.9 19 10.4 27.5 14.6 8.5 4.1 21.4 9.5 28.5 12.1 7.1 2.6 19.7 6.6 28 9 8.2 2.4 22.9 5.9 32.5 7.9 9.6 1.9 23.8 4.4 31.5 5.5 7.7 1.1 20.3 2.5 28 3.1 7.7.6 22.5 2 33 3.1s20.2 2.2 21.7 2.4c1.8.3 3.2 1.4 3.8 3l1 2.5c38.4 0 60.3-.7 73.5-1.5 13.2-.9 31.2-2.7 40-4 8.8-1.3 22.2-3.4 29.8-4.7 10.3-1.7 14.2-2 15.5-1.2.9.6 1.8 2.1 1.9 3.3.2 1.7.8 2 2.5 1.5 1.3-.4 5.4-2.1 9.3-3.9 3.9-1.7 23.2-12.5 43-24s42.3-24.7 50-29.3c7.7-4.7 20.7-13.1 29-18.6 8.2-5.6 20.4-14.4 27.1-19.6 6.7-5.2 17.4-14 23.8-19.5 6.4-5.5 11.7-10.3 11.6-10.8 0-.4-2-10.3-4.4-22-2.4-11.6-6.9-34.2-9.9-50.2-3.1-16-6.8-35.8-8.2-44-1.4-8.3-2.8-16.2-3-17.8-.4-1.9-1.1-2.7-2.5-2.7-1.1 0-3.1-1.4-4.5-3-1.5-1.8-2.7-4.7-3-7.3-.2-2.3-.7-14.1-1-26.2-.3-12.1-1.4-31-2.5-42-1-11-2.8-24.3-3.9-29.5-1.1-5.2-3.1-13.1-4.4-17.5-1.3-4.4-4.1-12.3-6.2-17.5-2-5.2-5.3-12.4-7.3-16-1.9-3.6-5.8-9.8-8.6-13.9s-8-10.1-11.6-13.5c-3.6-3.4-8.2-6.9-10.3-7.9-2-.9-5.3-1.7-7.2-1.7-1.9 0-4.7.6-6.3 1.4-1.5.7-5.9 4.7-9.7 8.8-3.8 4.1-11.8 14.2-17.6 22.4-5.9 8.2-14.5 21-19.2 28.4-4.7 7.4-9.4 15.5-10.5 18-1.2 2.5-2.3 6.1-2.6 8-.3 1.9-1.3 4.2-2.3 5.1-1 1-4.6 2.4-8.1 3.3-6.1 1.6-6.5 1.6-25.5-1.9-10.5-1.9-23.9-4.6-29.7-6-5.8-1.4-14.1-3.2-18.5-4-4.4-.7-14.8-1.9-23-2.5-11.2-.9-19-.9-31 0-8.8.6-23.4 2.2-32.5 3.6-9.1 1.4-23 3.9-31 5.5s-26.6 6-41.5 9.6c-25.9 6.4-27.1 6.8-29.8 10-2.2 2.7-3.4 3.3-6.5 3.3s-4.4-.8-8.2-4.9c-2.5-2.6-7.6-9.9-11.3-16.2-3.8-6.3-14.2-26.3-23.2-44.4-11.1-22.2-18.2-35.3-21.8-40-2.9-3.9-7.2-8.5-9.5-10.3-3.1-2.3-5.2-3.2-8-3.2-2 0-4.6.6-5.7 1.2-1.1.6-3.7 2.7-5.8 4.7zm523.8 355.7c-6 5.1-16 13.2-22 17.9-6 4.8-18 13.2-26.5 18.9-8.5 5.7-20.2 13.1-26 16.6-5.8 3.5-24.5 14.4-41.5 24.3-17 9.8-31.4 18.3-32 18.8-.5.5-.6.9-.2.9.4 0 5.5-2 11.5-4.4 5.9-2.4 17-7.5 24.7-11.4 7.7-3.8 17.6-9.1 22-11.7 4.4-2.6 13-8 19-12s17.5-12.1 25.5-18.1c8-6 22.8-17.8 33-26.1 10.2-8.4 20.9-17.4 23.8-20 3.5-3.3 5-5.2 4.4-6.1-.6-.9-1.3-.7-2.8.9-1 1.2-6.9 6.3-12.9 11.5zm1.5 12.4c-6.9 5.9-19.9 16.7-29 23.9-9.1 7.3-22.6 17.4-30 22.6-7.4 5.1-18.8 12.5-25.2 16.4-6.5 3.9-18 10.2-25.5 14-7.6 3.8-21.2 9.8-30.3 13.4-9.1 3.6-28 10.1-42 14.6-17.5 5.5-26.2 7.8-27.8 7.3-1.3-.4-2.5-1.4-2.7-2.2-.4-1.2-3.5-1.6-16.2-2.2-8.7-.5-21.9-.8-29.3-.8-10.4 0-14-.3-15.7-1.5-1.9-1.2-4.4-1.4-14.3-.7-6.6.4-12 1-12 1.5 0 .4 3.3.9 7.3 1.2 3.9.3 17.3 1.2 29.7 2 12.4.9 27.2 2.5 33 3.6 5.8 1.2 13.2 3.3 16.5 4.8 3.3 1.5 7.6 4.5 9.6 6.7 1.9 2.1 4.4 6.4 5.5 9.4 1.5 4.5 1.9 8.2 1.9 20 0 8-.6 19.7-1.3 26-.6 6.3-1.7 17.8-2.3 25.5-.5 7.7-1.2 14.9-1.5 16-.4 1.7 1.1 2.8 9.3 7.2 5.4 2.8 12.5 5.9 15.8 6.8 4.2 1.2 8.1 1.6 13 1.3 4.8-.3 8.6-1.3 12-3 2.8-1.4 7.8-4.8 11.3-7.7 3.4-2.8 9.2-8.8 12.8-13.3 3.6-4.6 8.9-12.1 11.8-16.8 2.9-4.7 7.7-13.2 10.7-18.9 3.8-7.4 6.2-10.8 8.2-11.7 1.5-.8 3.4-1.4 4.2-1.4.8 0 2.6.6 4 1.3 1.4.6 2.9 2.2 3.5 3.5.5 1.2 1 3 1 4 0 .9-3.1 8-6.9 15.7-3.8 7.7-10.7 19.6-15.2 26.5-5.5 8.2-11.4 15.6-17.4 21.5-7 7-10.9 10-17.5 13.4-4.7 2.4-11.6 5-15.5 5.8-4.5 1-9.3 1.3-13.5.8-3.6-.3-9.9-1.8-14-3.1-4.1-1.4-12.2-5-18-8-5.8-3.1-11.4-5.4-12.5-5.2-1.1.2-2.5 1.4-3.2 2.8-.7 1.4-1.3 4.3-1.3 6.5s.6 7.6 1.4 12c.8 4.4 2.6 12.5 3.9 18 1.5 6.1 2.2 11.1 1.8 12.9-.3 1.6-1.8 4-3.3 5.3-1.6 1.2-3.5 2.3-4.3 2.3-1.1 0-1.5 1.3-1.5 5.3 0 2.8.7 9.2 1.5 14.2.9 5 5.2 19.8 9.5 33 5.3 15.9 9 25.4 11 28.3 1.6 2.3 5.8 6 9.3 8.2 3.6 2.4 6.8 3.8 7.7 3.4.8-.3 7.8-1 15.5-1.5s19.8-1.4 27-2c7.2-.6 18-1.9 24-2.9s16.2-3.4 22.5-5.4c6.3-1.9 17.1-5.8 24-8.7 6.9-2.9 17.2-7.7 23-10.7 5.8-3 14.8-8.1 20-11.4 5.2-3.3 13.1-8.5 17.4-11.6 4.3-3.2 12.4-10 17.9-15.2 5.5-5.2 12.2-12.4 14.9-16 2.7-3.6 7.3-11.5 10.3-17.5 3-6 6.6-15 8-20 1.4-5 3.4-14 4.5-20 1-6 2.4-18.2 3-27 .7-9.2.9-21.8.6-29.5-.4-7.4-1.1-18.5-1.7-24.5-.5-6-1.6-16.6-2.5-23.5-.8-6.9-3-22-4.9-33.5-1.9-11.5-5-29.5-7-40s-6.7-33.9-10.6-52c-3.8-18.1-6.9-33.1-6.9-33.2 0-.2-.4-.3-.9-.3s-1.5.7-2.2 1.6c-.8.9-7 6.5-13.9 12.4zm-633.8 11.4c-.5 2.3-1.2 4.8-1.6 5.6-.5 1.1 1.8 2.9 9.1 7.2 5.4 3.1 15.9 8.8 23.3 12.6 7.4 3.9 21.4 10.7 31 15 9.6 4.4 23.8 10.3 31.5 13.1 7.7 2.9 14.1 5.1 14.2 4.9.2-.2-5-2.5-11.5-5.2-6.4-2.7-16.4-7.2-22.2-10.1-5.8-2.9-15-7.9-20.5-11-5.5-3.2-15.2-9.3-21.5-13.5-6.3-4.2-15.9-11.1-21.2-15.2l-9.7-7.5zm-32.1 76.1c-2.2 7.7-6 22.1-8.5 32-2.4 9.9-6.3 27-8.5 38s-5.2 27.2-6.5 36c-1.4 8.8-3.3 22.8-4.3 31-1.4 11.9-1.8 23.1-1.8 53.5 0 24.9.5 42.6 1.3 50 .7 6.3 2 16.2 2.8 22 .8 5.8 2.4 14.8 3.5 20 1 5.2 3.7 16 5.9 24s4 15.8 4 17.3-.7 4.2-1.5 6c-.8 1.8-2.8 4-4.5 5-1.6.9-4.7 1.8-6.7 1.9-2.1 0-5.6-.5-7.8-1.2s-6.5-2.5-9.5-4-10.9-6.3-17.5-10.8c-6.6-4.4-17.6-12.7-24.5-18.4-6.9-5.8-19.2-17.2-27.4-25.4s-24.8-26.1-37-39.9c-12.1-13.7-27-30.4-33.1-37-6-6.6-16.8-17.8-24-25-7.1-7.2-17.9-17.5-24-22.9-6-5.4-15.5-13.5-21-17.9-5.5-4.4-15.4-11.5-22-15.9-6.6-4.3-16.5-10.1-22-12.8-5.5-2.7-13.8-6-18.5-7.3-4.7-1.3-11.2-2.8-14.5-3.1-3.5-.4-8.7-.3-12.5.4-3.6.7-9.2 2.6-12.4 4.4-3.4 1.8-8 5.5-10.8 8.6-2.7 3-6.4 8.4-8.2 12-1.9 3.6-4.6 10.3-5.9 15-1.4 4.7-3.3 11.9-4.1 16-.8 4.1-2 13.8-2.7 21.5-.9 10.8-.9 17.4 0 29 .7 8.3 2.1 19.7 3.3 25.5 1.1 5.8 3.9 16.4 6.2 23.5 2.4 7.2 6.8 18.2 9.9 24.5 3.1 6.3 8.6 16 12.3 21.5 3.6 5.5 9.9 14.1 13.9 19 4 5 14 15.6 22.2 23.6 8.1 8 22 20.2 30.8 27.3 8.8 7 25.7 19.6 37.5 28 11.8 8.5 32.5 22.9 46 32.2 13.5 9.2 33.5 22.7 44.5 30 11 7.2 27.7 17.7 37 23.3 9.4 5.6 26.7 15.1 38.5 21 11.8 6 29.6 14.6 39.5 19.1 9.9 4.5 23.2 10.9 29.5 14.1 6.3 3.2 15.6 8.3 20.5 11.4 5 3.1 12.4 8.2 16.5 11.3 4.1 3.1 11.9 9.9 17.4 15.2 5.4 5.2 12.6 12.9 15.9 17 3.3 4.1 8 10.6 10.4 14.3 2.4 3.7 6.5 11.1 9.2 16.5 2.7 5.3 6.5 14.2 8.6 19.7 2 5.5 6.2 18.3 9.2 28.5 3 10.2 7.3 24.1 9.6 31 2.2 6.9 6.2 16.8 8.8 22 2.6 5.2 7 12.8 9.8 16.8 2.8 4 8.6 10.7 12.9 15 4.3 4.2 12 10.6 17.2 14.1 5.2 3.5 12.9 8.1 17 10.1 4.1 2.1 11.6 5.2 16.5 7 5 1.7 13.1 3.8 18 4.6 7.3 1.3 10.4 1.3 16 .4 3.9-.6 9.9-2.5 13.5-4.3 4-2 9.1-5.8 13.6-10.2 3.9-3.8 9.8-11 13-16 3.2-4.9 8.4-14.4 11.5-21 3.2-6.6 8.4-19.9 11.7-29.5 3.3-9.6 9.2-25.5 13.1-35.2 4.1-10.2 6.9-18.6 6.6-19.8-.3-1.1.2-3.6 1-5.5 1.1-2.6 2.5-3.9 5.8-5 3.9-1.5 5.3-1.4 18.2.5 7.7 1.1 17.6 2.7 22 3.6 4.4.9 12.5 2.7 18 4.1 5.5 1.3 17.4 4.9 26.5 7.8 11 3.6 17.4 6.3 19.3 8 1.5 1.4 3 3.8 3.3 5.3.4 1.7-.1 4.2-1.2 6.7-1.6 3.6-1.7 5.9-1.1 23 .4 10.5 1.4 23.7 2.3 29.5.9 5.8 2.7 14.2 4 18.8 1.3 4.5 4 11.5 6.1 15.5 2.1 4.2 5.8 9.3 8.7 12.3 2.9 2.8 6.9 5.6 9.1 6.3 3.3 1.1 5 1.2 9.5.1 3-.7 10.9-3.5 17.5-6.2s16.5-7.1 22-9.7c8-3.8 11-5.8 14.9-10.1 2.7-3 7.5-8.9 10.6-13 3.1-4.1 9.1-12.7 13.3-19 4.1-6.3 17.2-28.4 29-49 11.7-20.6 26.3-46 32.4-56.5 6-10.4 15-26.2 19.8-35 4.9-8.8 13-24.5 18.1-35 5.1-10.4 11.7-25.1 14.7-32.5 3-7.4 7.8-20.7 10.7-29.5 2.9-8.8 6.9-22.7 9-31 2.1-8.2 5.5-22.9 7.4-32.5 1.9-9.6 4.9-26.9 6.5-38.5 1.7-11.5 4.6-35.6 6.5-53.5 2-17.9 4.7-44.9 6.1-60 1.5-15.1 2.5-28 2.3-28.7-.2-.6-4.6 2.6-9.8 7.3-5.2 4.7-13 11.1-17.3 14.2-4.2 3.2-12.6 8.8-18.5 12.5-5.9 3.7-17.4 10.1-25.7 14.2-8.2 4-20.2 9.4-26.5 11.9-6.3 2.5-16.2 5.9-22 7.5-5.8 1.7-15.7 3.9-22 5-6.3 1.2-16.2 2.5-22 3-5.8.6-13.5 1.3-17.2 1.6-6.2.5-6.8.7-6.8 2.8 0 1.2-1 3.2-2.2 4.4-1.3 1.3-3.6 2.5-5.3 2.9q-3 .6-9.5-1.9c-3.6-1.3-10.1-4.2-14.5-6.3-4.4-2.1-8.2-4-8.5-4.1-.3-.2-.8 2.2-1.2 5.2-.5 3-1.7 8.3-2.9 11.8-1.1 3.4-3.6 8.8-5.5 12-1.8 3.1-3.4 6.7-3.4 8 .1 1.2-.7 3-1.7 3.9-1 .9-9.2 3.5-18.3 5.7-12.7 3.2-19.3 4.3-28.5 4.7-7.4.4-20.8 0-35-1-12.6-.9-33.3-2.7-46-4.1-12.6-1.4-24.6-2.9-26.5-3.5-1.9-.5-7.3-1.6-12-2.5-4.7-.9-11-2.6-14-3.8-3.3-1.3-7.6-4.1-10.8-7.1-4.1-4-5.9-6.6-7.9-12.1-2.1-5.4-2.8-9.3-3.1-17.5-.2-5.8-.9-11.3-1.5-12.3-1.1-1.6-1.3-1.6-2.7-.2-.8.9-2.4 1.6-3.5 1.6s-2.6-.6-3.3-1.3c-.7-.7-1.2-2.1-1.2-3 0-1.5-1-1.8-6.5-1.8-3.6 0-7.6-.4-9-1-1.4-.5-3.3-1.8-4.2-2.9-1.6-1.7-3.8-1.9-22.3-2.4-13.7-.3-23-1-28-2.1-4.1-1-12.9-3.5-19.5-5.7s-16.9-6.4-23-9.3c-6-3-15.7-8.5-21.5-12.3-5.8-3.8-15.2-10.7-21-15.2-5.8-4.6-17.7-15.6-26.5-24.5-8.8-8.8-19.7-20.8-24.1-26.6-4.5-5.8-12-16.1-16.6-23-4.6-6.9-9.6-15-11.1-18s-3-7.3-3.4-9.5c-.5-2.9-.2-4.7 1-6.7 1-1.5 2.9-3.2 4.5-3.8 2-.8 3.5-.7 5.6.2 2.2 1 4 3.5 7.1 9.8 2.4 4.7 6.9 12.1 10 16.5 3.1 4.4 9.9 13.2 15 19.5 5.1 6.3 14.2 16.7 20.2 22.9 5.9 6.3 15.8 15.7 21.8 20.9 6.1 5.2 15.3 12.5 20.5 16.2 5.2 3.8 13.6 9.1 18.5 11.9 5 2.9 13.5 6.9 19 9.1 5.5 2.1 14.3 5.2 19.5 6.7l9.5 2.8c78.3 0 88.5.3 89.6 1.3 1.2 1 2 .6 4.9-2.5 2-2.1 5.6-6.7 8.2-10.3 2.5-3.6 5.5-8.4 6.7-10.7 1.2-2.4 2.8-7.3 3.7-11 1.1-4.6 1.9-15.3 2.5-32.8.5-16 1.4-28.9 2.4-33.5.8-4.1 1.5-9.7 1.5-12.5 0-3.2-.7-6.1-2-8.2-1.1-1.8-3.5-4-5.2-5-2.9-1.5-6-1.7-23.8-1.4-14.6.2-23.2-.2-30-1.3-5.2-.8-12.6-2.5-16.5-3.6-3.8-1.2-10.8-4.1-15.5-6.4-4.7-2.3-12.3-6.7-17-9.7-4.7-3-12.5-8.9-17.5-13-4.9-4.2-12.4-11.1-16.5-15.5-4.2-4.3-10.4-11.5-13.9-15.9s-9.6-12.9-13.7-19c-4-6-8.7-14.1-10.5-18-1.8-3.8-3.3-8.6-3.3-10.6-.1-2.7.6-4.5 2.4-6.3 1.5-1.6 3.6-2.6 5.3-2.6 1.5 0 3.6.5 4.7 1 1.1.6 4 5.2 6.5 10.3 2.5 5.2 8.6 14.8 14.2 22.2 5.8 7.8 15.1 18.4 23.2 26.5 7.5 7.4 17.9 16.6 23.1 20.3 5.2 3.7 14.5 9.2 20.5 12.2 6.1 3 13.7 6.1 17 7 3.5 1 12.5 2 21.3 2.3l15.2.7c0-13.5 1.1-31.2 2.5-48s2.2-32.2 1.9-34.2c-.5-3 0-4.8 2.3-8.8 1.6-2.7 3.2-5.7 3.5-6.5.3-.8 4.3-3.4 8.9-5.7 5.9-3 10.2-4.4 14.4-4.8 3.3-.3 7.4-.2 9 .3 1.9.5 5.3.4 9-.4 3.3-.6 8.1-1.5 10.8-1.8 2.6-.3 4.7-1 4.7-1.6 0-.6-8.3-1.2-21.7-1.5-12-.3-28.1-1-35.8-1.5-7.7-.6-20.3-1.7-28-2.6-7.7-.8-20.1-2.4-27.5-3.5-7.4-1.1-20.9-3.5-30-5.5-9.1-2-23.4-5.5-31.7-8-8.4-2.4-21.3-6.6-28.5-9.3-7.3-2.7-18.7-7.3-25.3-10.1-6.6-2.8-20.8-9.6-31.5-15-10.7-5.5-25.9-13.8-33.7-18.4-7.9-4.7-14.5-8.6-14.7-8.6-.2 0-4 11.6-8.4 25.8-4.5 14.1-9.9 32-12.1 39.7zm445.7 11.7c.1.4 3.9.9 8.5 1.1 7.4.2 8.4 0 10.3-2 1.2-1.3 2.9-2.3 3.8-2.3.9 0 1.6-.4 1.6-1 0-.5-.1-.9-.2-.9-.2.1-5.7 1.1-12.3 2.2-6.6 1.1-11.9 2.4-11.7 2.9zm-153 43.8c-3.9 5.7-4.8 7.8-4.7 11.3v4.2c5.6-10.8 9.4-16.1 12.1-18.7 2.6-2.6 4.8-5 4.8-5.3 0-.3-.3-.4-.7-.4-.5.1-2.1.5-3.8 1-2.2.6-4.3 2.8-7.7 7.9zm25.2-5.9c-.4 1.8-1.5 2.7-4.4 3.4-2.3.6-5.7 2.7-8.1 5-2.2 2.2-5.3 6.5-6.7 9.5-1.4 3-3.3 8.7-4.1 12.5-.9 3.9-2.1 14.7-2.7 24-.6 9.4-1.3 18-1.5 19.3-.3 1.2-1.3 2.5-2.2 2.7-1 .3-2.7-.1-3.8-.9-1.8-1.2-2.1-1.1-3.2 1.5l-1.3 2.9c8.9 1.8 13.5 3.3 16 4.6 2.5 1.2 6.2 4 8.2 6.1 2 2.1 4.8 6.3 6.2 9.3 1.4 3 2.8 7.8 3.2 10.5.4 3.3-.2 9.3-1.6 17.5-1.7 9.3-2.4 19.1-3 38-.7 21.2-1.2 26.9-2.9 33.5-1.2 4.4-4 11.4-6.2 15.5s-6.4 10.7-9.4 14.5c-2.9 3.9-8.2 10.1-11.7 13.9l-6.3 6.8c1.9 5.7 5.1 11.8 8.4 17.3 3.2 5.5 7.9 12 10.3 14.5 2.4 2.5 6.3 6.2 8.8 8.3 3.8 3.2 5.6 3.9 11.5 4.7 3.9.5 14.9 1.4 24.5 2 9.6.6 27.4 2 39.5 3.2 12.1 1.2 23.6 1.8 25.5 1.5 2.2-.4 7.9-3.8 15.5-9.5 6.6-4.9 13.3-10.4 14.9-12.3 1.6-1.8 3.7-5.2 4.7-7.4s2.7-7.4 3.8-11.5c1.1-4.1 2.8-9.3 3.9-11.5l1.9-4c-9.8-29.4-13.8-42.9-15.4-49-2.3-9.5-2.7-13-2.7-26.5-.1-13.5.2-16.3 2.2-22l2.2-6.5c-3.1-15.9-4-24.1-4-28.5 0-5.6.6-9.5 2-13.2 1.1-2.9 3.1-6.5 4.3-8 1.2-1.5 4.7-4 7.7-5.7 3-1.7 4.9-3.1 4.3-3.1-1 0-1.3-3-1.3-11.5V1085c-6.4 2.4-13.5 3.3-21.7 3.6-8 .4-18.3.2-24.5-.5-6-.6-12-1.7-13.5-2.5-1.6-.8-3.9-2.6-5.3-4.1-2.4-2.6-2.5-3-2.8-21.3-.2-10.3 0-20.7.4-23.2.4-3 1.6-5.4 3.5-7.2 2.3-2.3 3.6-2.8 7.8-2.8 2.8 0 5.1-.4 5.1-.8 0-.5-10.4-1.2-23.2-1.5-12.8-.4-29.8-1-37.8-1.3l-14.6-.7zm95.8 1.9c8.1 0 17.2.3 20.3.6 4.7.5 5.2.4 3.5-.7-1.4-.9-7.7-1.4-20.2-1.7-12.8-.3-18.1-.1-18.2.7-.1.8 4.4 1.1 14.6 1.1zm16.1 11.7c2 1.2 4.8 3.4 6.2 4.8 1.8 2 2.5 3.8 2.5 6.7 0 3.2-.6 4.5-3.3 6.9-2.3 2.1-4.3 2.9-6.7 2.9-3.5 0-3.5 0-3.3 4.3.1 2.6-.5 5.3-1.5 7-1 1.5-3.2 3.6-5 4.7l-3.2 2c24 0 24.5-.1 25.3-2.2.5-1.3 1.2-10 1.5-19.5l.7-17.3c-5.1-2.5-8.6-3.4-11.1-3.7-2.5-.3-4.8-.1-5.2.4-.4.4 1 1.8 3.1 3zm-23.8-.4c1.9 1.2 4.3 3.8 5.3 5.7 1.2 2.4 1.6 4.7 1.2 7.3-.5 3.2-.3 3.7 1.5 3.7 1.6 0 1.8-.3 1-2-.6-1.1-1-3.4-1-5.2 0-2.6 1-4.1 4.8-7.5l4.7-4.3h-21zm-20.4 4c-.4 2-.3 3.7.1 3.7s1.6-1.4 2.6-3.2c1.1-1.8 1.6-3.8 1.3-4.5-.4-.7-1.1-1.3-1.6-1.3s-1.1.4-1.4.8c-.2.4-.7 2.4-1 4.5zm9.2 10.5c.8 1.6 2.1 2.2 4.2 2.2 2 0 3.4-.7 4.4-2.2.8-1.3 1.1-3.1.7-4.1-.3-1.1-1.1-2.3-1.6-2.7-.6-.4-2.2-1.1-3.6-1.5-2.2-.5-2.7-.2-3.9 2.7-1 2.6-1 3.9-.2 5.6zm27.8-2.9c.6.9 2.4 1.6 3.9 1.6s3-.5 3.1-1.2c.2-.7-.9-2.2-2.5-3.3-2.7-1.8-3.1-1.8-4.3-.4-1 1.2-1.1 2-.2 3.3zm-33.8 22.1c1.3 2.7 2.6 3.8 5.7 4.7 2.2.6 6.7 1.2 10 1.3 5.9 0 6 0 3.5-1.7-1.4-.9-3.1-2.4-3.8-3.2-.7-.9-1.1-3.5-1-5.8l.3-4.3c-6.6 0-9.8-.6-11.3-1.3-1.5-.8-3.1-2.1-3.5-3-.4-.9-1.2-1.7-1.7-1.7-.7 0-.8 2.2-.4 5.8.3 3.1 1.3 7.3 2.2 9.2zm22.2-4c0 .6.5 1.2 1.2 1.5.7.2 2.1-.1 3.2-.8 1.2-.8 1.6-1.8 1.2-2.9-.3-1-1.2-1.8-1.9-1.7-.7 0-1.8.7-2.5 1.5s-1.2 1.9-1.2 2.4zM648.4 558c.6 0 1.9.8 2.9 1.7 1.2 1.3 2.7 7.4 4.7 19.6 1.7 9.7 3.1 19.2 3.1 21 0 1.8-.5 3.8-1.2 4.5-.7.7-1.9 1.2-2.8 1.3-.8 0-2.3-.8-3.2-1.8-1.2-1.3-2.6-7.5-4.8-21.3-1.7-10.7-3.1-20-3.1-20.6 0-.7.7-1.9 1.6-2.8.9-.9 2.1-1.6 2.8-1.6zm13.7 7c1.1 0 2.6 1 3.4 2.3.7 1.2 3.3 9.1 5.7 17.4 3.8 13.3 4.2 15.6 3.1 17.8-.8 1.6-2.1 2.5-3.5 2.6-1.2 0-2.8-.6-3.4-1.3-.7-.7-3.3-8.7-5.8-17.8-2.5-9-4.6-16.8-4.6-17.1 0-.4.7-1.4 1.6-2.3.9-.9 2.5-1.6 3.5-1.6zm427.3 10.2c2.5.3 3.2.8 3.5 2.8.1 1.4-1.9 8.6-4.5 16-2.6 7.5-5.6 14.3-6.6 15.3-.9.9-2.1 1.7-2.5 1.7-.4.1-1.6-.5-2.6-1.2-1.2-.8-1.9-2.4-1.8-4.3 0-1.6 1.9-7.9 4.2-14 2.3-6 4.8-12.2 5.7-13.8 1.2-2.3 2-2.7 4.6-2.5zm11.3 1.8c.2 0 1.3.5 2.4 1 1.3.7 2 2 1.9 3.8 0 1.5-2.2 10.6-4.9 20.2-2.7 9.7-5.5 17.9-6.2 18.3-.7.4-2.5.6-3.8.5-2.1-.2-2.6-.9-2.9-3.8-.1-2 1.7-10.5 4.3-20 3.3-11.6 5.3-17 6.7-18.2 1.2-1 2.3-1.8 2.5-1.8zM948 638c.3 0 1.6.7 2.8 1.5 1.3.9 2.3 2.3 2.3 3.3 0 .9-.8 2.5-1.7 3.3-1 .9-8.1 4.7-15.8 8.4-10.4 5-14.4 6.5-15.5 5.8-.9-.5-1.6-2.2-1.8-3.6-.2-2 .6-3.3 3-5.1 1.8-1.3 8.4-4.9 14.7-8 6.3-3.1 11.7-5.6 12-5.6zm-119.4 13.1c1.1-.1 5.8.6 10.5 1.5 4.6.8 10.2 2 12.2 2.5 2.1.5 4.2 1.8 4.8 2.9q1 2 0 4c-.8 1.6-2 2-5.3 2-2.3 0-8.1-.9-12.7-1.9q-8.5-1.8-11.3-.9c-2.1.6-3.3.4-5-1.1-2.1-1.7-2.1-2.1-.8-4.5.8-1.4 2.4-3 3.5-3.5s3-1 4.1-1zm-9.5 35c2.4-.1 7.2.6 10.5 1.5 3.3.8 8.2 2.8 10.9 4.2 2.6 1.5 7.4 5.4 10.5 8.8 3 3.3 6.8 8.5 8.2 11.5 1.5 3 3.7 9 5 13.4 1.8 6.4 2.2 10.5 2.2 20.5 0 8.8-.7 15.5-2.1 22.5-1.2 5.5-3.3 13.4-4.8 17.5-1.5 4.2-4.6 11.4-7 16-2.7 5.3-6.8 11.2-10.8 15.5-3.5 3.9-8.8 8.5-11.8 10.2-2.9 1.8-8.3 4-11.8 4.9-4.1 1.1-8.6 1.5-12 1.1-3.1-.2-8-1.4-11-2.5-3.1-1.1-8.3-4.1-11.8-6.6-3.4-2.5-8.3-7.2-10.8-10.3-2.5-3.2-6.5-9.8-9-14.8-2.4-4.9-5.4-13-6.6-18-1.6-6.8-2.1-11.9-2.1-21 0-9.6.6-13.9 2.7-22 1.4-5.5 4.1-13.1 6-17 2-4.1 4.8-8.2 7-10 2-1.6 6.9-5.8 10.8-9.4 4-3.5 10-7.7 13.3-9.3 3.3-1.7 9.1-3.8 13-4.8 3.8-1 9-1.9 11.5-1.9zm-16.8 21.3c-1.5.8-4.5 2.9-6.7 4.6-2.2 1.8-7.2 6.2-11.1 9.9-6.2 5.9-7.4 7.6-10.3 15.1-2.1 5.5-3.5 11-3.8 15.5-.3 4.2.1 10.9 1.1 16.8.9 5.3 2.8 13 4.4 17 1.5 4 4.5 9.9 6.7 13.2 2.2 3.2 6.2 7.8 9 10.2 2.7 2.4 7 5 9.5 5.8 2.4.9 6 1.6 8 1.6 1.9 0 5-.6 7-1.2 1.9-.6 5.7-2.8 8.4-4.8s6.9-6.6 9.5-10.6c2.6-3.8 6.1-10.7 7.9-15.2 1.7-4.6 3.9-11.3 4.7-15 .9-3.7 2.3-7.4 3-8.3 1-1 1.4-4 1.4-9.5 0-4.4-.4-11.1-1-15-.5-3.8-1.3-7.9-1.9-9-.5-1.1-1.9-4.4-3.3-7.5-1.3-3-4.1-7.3-6.3-9.5s-5.7-4.9-7.9-5.9c-2.2-1.1-6.5-2.1-9.5-2.2-3.1-.2-7.9.3-10.8 1.1-2.9.9-6.5 2.2-8 2.9zm155.3-21.3c1.1 0 4.9.7 8.5 1.5 3.5.9 9.1 3 12.4 4.7 3.2 1.8 8.4 5.9 11.5 9.2 3.1 3.3 7.4 9.2 9.6 13 2.1 3.9 5.1 10.9 6.6 15.5 1.5 4.7 3.3 12.4 3.9 17 .8 5.1 1 12.7.7 19-.4 5.9-1.7 14.7-3 20-1.4 5.3-4.2 13.1-6.3 17.5-2.5 5.1-6.1 10.3-9.9 14.4-4.1 4.3-8.1 7.3-12.5 9.4-5.1 2.5-8.2 3.2-14 3.5-5 .3-9.7-.1-14-1.3-3.6-.9-9.7-3.3-13.5-5.3-4.6-2.3-9.6-6.2-14.6-11.1-5.2-5.2-8.6-9.6-10.8-14.1-1.7-3.5-4.1-10.3-5.3-15-1.8-7.4-2-10.4-1.6-23 .5-11.6 1.2-16.8 3.5-26 1.7-6.3 4.4-14.8 6.1-19 1.7-4.1 4.5-9.6 6.1-12.2 2.7-4.2 4.3-5.4 13.3-9.7 5.7-2.8 12.7-5.6 15.8-6.5 3-.8 6.4-1.5 7.5-1.5zm-14 22.1c-2.8 1.3-6.5 3.7-8.2 5.4-1.8 1.6-4.1 5-5.1 7.4-1.1 2.5-2.9 7.9-4.1 12-1.1 4.2-2.5 10.7-3.1 14.5-.7 4.4-.8 12.4-.3 21.5.8 13.4 1.1 15 4.1 21.3 1.7 3.7 5.3 8.9 7.9 11.5 2.6 2.7 7.7 6.3 11.3 8.1 4.5 2.3 8.5 3.4 13 3.8 3.5.3 8.3.1 10.5-.5 2.3-.6 5.8-2.8 8.5-5.3 2.8-2.7 6-7.3 8.3-11.9 2-4.1 4.3-10.8 5.2-15 .9-4.1 2.1-8.4 2.6-9.5.6-1.1.9-5.8.6-11-.3-4.9-1.5-13.2-2.7-18.5-1.4-5.7-3.9-12.7-6.4-17.4-2.3-4.4-6-9.9-8.4-12.3-2.3-2.3-6.1-5.1-8.5-6.2-2.3-1-6-2.1-8.2-2.4-2.3-.3-5.8 0-8 .7-2.2.8-6.3 2.5-9 3.8zm-60.5 76.1c3.2.1 5.9 1.2 8.9 3.2 2.6 1.9 5.2 4.9 6.7 8 2.1 4.2 2.4 5.8 1.8 10-.5 4.2-1.4 5.7-9.4 13.5l.7 5.7c.7 5.4.9 5.7 4.8 7.3 2.2 1 5.2 3.1 6.7 4.9 1.5 1.7 3.2 4.8 3.8 6.9.5 2 1 5.1.9 6.7 0 1.7-.8 4.8-1.8 7-.9 2.2-3.3 5.2-5.2 6.7-2 1.6-5.4 3-7.9 3.4-3.1.5-6.1.2-9.5-.9-3.2-1.1-6.5-3.2-9.2-5.9-2.3-2.4-4.9-6-5.8-8-.8-2.1-1.5-5.3-1.5-7.3 0-1.9.6-4.9 1.3-6.7.7-1.8 2.6-4.3 4.2-5.6 1.8-1.3 4.3-2.2 6.2-2.2 1.8 0 3.3-.4 3.3-1 0-.5-.7-1.2-1.5-1.5-1.1-.3-1.5-1.9-1.5-5.2 0-4.2-.5-5.2-3.5-8-2.3-2.1-3.8-4.6-4.2-7-.4-2.1-.7-6.2-.8-9.3 0-3 .7-7 1.5-8.9.8-1.8 2.6-4 4-4.7 1.4-.8 4.5-1.3 7-1.1zm-6.6 62.5c.3 1.5 1.4 4 2.5 5.5 1.2 1.5 3.4 3.4 5.1 4.2 1.6.9 4.2 1.5 5.7 1.5s3.8-.6 5-1.5c1.3-.8 2.5-2.9 2.8-4.7.4-1.9.1-4.5-.7-6.2-.7-1.6-2.3-3.2-3.6-3.7-1.2-.5-5.1-1.2-8.6-1.5-5.7-.6-6.4-.4-7.5 1.5-.6 1.2-.9 3.4-.7 4.9zm255.6-62.5c3.1.2 3.5.6 3.8 3.2.2 1.7-.3 3.5-1 4.2-.7.6-5.2 2.3-9.8 3.8-4.7 1.5-13.1 3.8-18.8 5.1-5.6 1.3-11.4 2.4-12.7 2.4-1.5 0-2.9-.8-3.5-2q-1-2 0-4c.5-1.1 2.2-2.9 3.8-4 1.8-1.3 4.5-2 7.7-2 2.7-.1 9.9-1.6 16-3.5 6-1.8 12.5-3.3 14.5-3.2zM653.6 793c.8 0 7.9 2.1 15.7 4.6 7.9 2.6 17.4 6.1 21.3 7.8 3.8 1.8 8 4.2 9.2 5.4 1.3 1.2 2.3 2.7 2.3 3.2 0 .6-.8 1.9-1.8 2.9-.9 1-2.2 2.7-2.8 3.7-.6 1.1-2.2 2.1-3.5 2.2-1.4.2-11.4-1.1-22.4-2.8-11-1.7-21-3.7-22.3-4.5-1.2-.8-2.2-2.3-2.2-3.2-.1-1 .5-2.3 1.2-3 .6-.7 3-1.3 5.2-1.3s7.9.7 12.6 1.5c4.6.9 9.1 1.5 10 1.5.8-.1-4.4-2.1-11.5-4.5-7.2-2.5-13.6-5.3-14.3-6.2-.7-1-1.3-2.3-1.3-2.9 0-.7.7-1.9 1.6-2.8.9-.9 2.3-1.6 3-1.6zm487 6.3c3.7.2 4 .4 4.2 3.5.2 2.9-.1 3.4-4 5.2-2.3 1-17.1 6.1-32.7 11.1-21 6.8-28.9 9-30 8.2-.9-.5-1.5-2.3-1.5-3.9 0-2.2.7-3.2 3-4.3 1.6-.8 15.1-5.7 30-10.7 19.1-6.6 28.1-9.2 31-9.1zm-119 9.4c1.6.3 5 1.1 7.5 1.9 2.7.8 5.6 2.6 7.3 4.6 2.6 3 2.9 3.8 2.4 8.8-.4 4.8-1 6-4.1 8.8-2.1 1.8-4.8 3.3-6.4 3.3-1.5.1-3.6.1-4.7-.1-1.1-.1-3.3-.8-4.8-1.6-1.5-.7-3.6-2.8-4.7-4.6-1.1-1.8-2-4.8-2.1-6.8 0-2 .6-4 1.5-4.7 1.2-1 1.3-1.6.4-3-.7-1.1-.8-2.5-.3-3.5s1.8-2.2 2.9-2.7c1.1-.5 3.4-.6 5.1-.4zm-.5 13.3c.5 2 1.6 3.9 2.2 4.3.7.4 2.1.7 3 .7 1 0 2.3-1 2.9-2.2.8-1.7.7-2.6-.3-3.5-.7-.7-3-1.6-5.1-2l-3.8-.8zm-290.5-6.3c1.7.3 5.2 1 7.9 1.6 3.2.8 5.6 2.1 6.8 3.7 1.1 1.4 1.9 3.4 1.9 4.5-.1 1.1-.9 3.4-1.9 5-1 1.7-3.5 3.8-5.5 4.8-2 .9-4.8 1.7-6.2 1.7-1.4 0-4.2-.8-6.2-1.9-2.1-1-4.6-3.3-5.5-5-1-1.7-1.8-4.3-1.8-5.8s.7-3.8 1.6-5.1c.9-1.3 2.6-2.7 3.8-3.1 1.2-.5 3.5-.7 5.1-.4zm159.9 278.5c1.3.2 2.2 1.1 2.4 2.6.2 1.6-6.8 11.1-25.2 34.5-13.9 17.7-26.2 33-27.2 34s-2.8 1.7-3.9 1.5c-1.2-.2-2.1-1.2-2.3-2.8-.2-1.9 2.2-5.6 10.4-16 6-7.4 18.2-22.6 27.2-33.8 13.2-16.3 16.9-20.2 18.6-20zm3.8 12.9c1 .5 1.9 1.7 1.9 2.5s-12.5 18.4-27.7 39.2c-15.2 20.7-29.2 39.6-31 42-2 2.4-4.2 4.2-5.4 4.2-1.1 0-2.3-.8-2.6-1.7-.3-1-.4-2.7 0-3.8.3-1.1 13.7-19.5 29.7-41 16-21.4 30-39.8 31.1-40.7 1.5-1.3 2.4-1.5 4-.7zm13.1 15.9c.7 0 1.8.6 2.5 1.3.7.7 1.3 1.8 1.2 2.5 0 .7-7.5 10.8-16.7 22.5-9.1 11.7-29.5 37.2-45.1 56.7-15.6 19.6-29.8 37-31.6 38.8-1.9 2-3.9 3.2-5.1 3-1.3-.2-2.1-1.2-2.3-2.8-.2-1.9 3.7-7.5 18.5-26 10.4-12.9 30.1-37.4 43.8-54.5 13.7-17 26.9-33.3 29.3-36.2 2.4-2.9 4.9-5.3 5.5-5.3zm.4 59c1.8 0 2.3.6 2.3 2.5 0 1.8-7.7 12.3-25.7 35.3-14.1 18-31.9 40.5-39.5 50-8.1 10.1-14.7 17.5-16 17.8-1.6.5-2.7.1-3.5-1.2-1-1.5-.9-2.4.5-4.9 1-1.6 18.2-23.4 38.2-48.5 20-25 37.4-46.7 38.8-48.2 1.4-1.5 3.6-2.8 4.9-2.8zm7.1 44c.4 0 1.5.6 2.5 1.3 1.2.8 1.8 2.2 1.5 3.9-.2 1.9-7.6 11-23.3 28.9-12.6 14.4-24 27-25.3 27.8-1.9 1.4-2.7 1.4-4.7.4-1.8-.9-2.4-2-2.2-3.8.1-1.3 1.8-4.4 3.7-6.7 1.9-2.3 11.8-13.5 21.9-24.8 10.1-11.2 19.9-21.9 21.7-23.7 1.9-1.8 3.7-3.3 4.2-3.3zm49.2-457.8c2.8-.1 5.6.5 7.3 1.6 1.5.9 3.6 3.1 4.7 4.7 1.4 2.1 2 4.7 2 8.5 0 4.2-.5 6.4-2.5 9.3-1.3 2-3.5 3.9-4.7 4.2-1.3.2-3 .4-3.8.5-.8 0-4.2.3-7.5.6-4.9.4-6.5.2-9.2-1.5-2-1.3-4.1-3.9-5.4-6.8-1.6-3.7-1.9-5.7-1.3-8.8.4-2.3 2.1-5.4 3.8-7.3 2.3-2.5 4.4-3.6 7.6-4.2 2.5-.4 6.5-.8 9-.8zm-11.5 16.6c3.5 3.3 5.1 4.2 5.8 4.2.7 0 1.8-.3 2.6-.7.9-.5 1.1-1.7.7-3.5-.3-1.5-1.2-2.9-1.9-3.1-.7-.2-2.6.4-4.3 1.4zm-142-13.8c3.3 0 6.6.8 9.5 2.2 2.4 1.3 5.8 4 7.5 6.1 2.3 3 3.1 5.1 3.4 9 .2 3.9-.3 6-1.8 8.4-1.1 1.8-4 4.2-6.3 5.3-2.3 1-5.8 1.9-7.8 2-1.9 0-5.1-.5-7.2-1-2.1-.6-5.2-2.3-6.9-3.8-1.7-1.5-3.7-4-4.5-5.5-.7-1.5-1.3-4.9-1.3-7.5 0-3 .7-5.9 2-8 1.1-1.8 3.4-4.1 5.2-5.2 2.1-1.3 5-2 8.2-2zm-3.5 14c1.2 1.2 1.8 2.8 1.5 4-.2 1.1.2 2.5 1.1 3.2.8.7 1.7 1.1 2 .8.3-.3.1-3.1-.5-6.3-.6-3.5-1.6-5.7-2.4-5.7-.7 0-1.8.4-2.5 1-.9.7-.7 1.5.8 3z" style="fill:#000"/>
</svg>
