<svg version="1.2" xmlns="http://www.w3.org/2000/svg" width="2048" height="2048">
    <path fill-rule="evenodd" d="M1035 249.1c.8-.1 2.4.9 3.6 2.1 1.2 1.3 2.5 3 2.9 3.8.4.8 1.6 9.6 2.6 19.5s2.2 18.3 2.6 18.8c.4.4 2.6 1.2 4.8 1.7 2.2.5 7.6 1 12 1s9.7.5 11.8 1c2 .6 4.6 1.9 5.7 3 1.2 1.2 2 3.3 2 5.3-.1 2.3-1 4-3.4 6.2-2 1.8-9.3 5.4-18.1 9-8.1 3.3-15.7 6.4-16.8 7-1.3.6-2.5 2.9-3.3 6.3-.8 2.8-2.7 7.8-4.3 11-1.5 3.1-4.4 7.1-6.2 8.8-1.9 1.6-5.2 3.6-7.4 4.3-2.4.8-5.4 1-7.5.6-1.9-.4-7.1-2.5-11.5-4.7s-8.6-4.4-9.2-4.9c-.8-.6-5.6.1-13 1.8-6.5 1.4-14.6 2.7-18 2.7-4.7.1-6.7-.3-8-1.7-1-1-1.8-3.2-1.8-5.1 0-2.1 1.1-4.6 3-7.1 1.6-2.2 8.1-8.1 14.3-13.2 6.1-5.1 11.2-9.6 11.2-10 0-.5-6.2-3.9-13.8-7.8-7.5-3.8-15.4-8.5-17.4-10.5-2.5-2.3-3.7-4.4-3.8-6.2 0-1.6.3-3.5.7-4.4.5-.9 2-2.3 3.5-3 1.6-.8 5.3-1.4 8.3-1.4 3 0 9.9.5 15.3 1.1 7.1.8 11.1.8 15.2 0 3-.6 8.8-2.7 12.8-4.6 3.9-1.9 9.1-5.4 11.5-7.7 2.3-2.4 6.8-8.2 10-13 3.2-4.8 6.3-8.9 7-9.2.7-.2 1.9-.5 2.7-.5zm-12.2 31.6c-2.4 2.3-7 5.8-10.3 7.8-3.3 2-8.9 4.5-12.5 5.6-3.6 1.2-10.8 2.4-16 2.8l-9.5.7c16.3 7.7 22 11 23.3 12.2 1.2 1.2 2.2 3.2 2.2 4.5 0 1.4-2 4-5.3 7-2.9 2.7-8.5 7.7-12.5 11-4 3.4-7.2 6.5-7.2 7 0 .4 2.8 0 6.2-.8 3.5-.9 8.5-2.2 11.3-3.1 2.7-.8 6.7-1.4 8.7-1.4 3 0 4.1.5 5.3 2.5.8 1.4 1.3 3.3 1 4.3-.4 1.3.6 2.2 4.5 4 2.7 1.2 5.9 2.2 7 2.2 1.1 0 3-1 4.2-2.2 1.2-1.3 3-4.2 4-6.5 1-2.4 1.6-4.7 1.3-5.3-.3-.6-1.2-1-2-1s-2-1-2.6-2.2c-.6-1.3-.8-3.3-.5-4.5.3-1.3 1.8-2.9 3.3-3.7 1.6-.7 8.6-3.7 15.8-6.6 7.2-2.9 13.5-5.6 14-6.1.6-.4-1.2-1-4-1.4-2.8-.3-7-1.6-9.5-2.8-3.4-1.6-5.1-3.3-6.7-6.7-1.6-3.2-2.5-7.7-3.3-16-.6-6.3-1.2-11.6-1.3-11.8-.2-.2-1.3 1.2-2.5 3-1.1 1.8-4 5.2-6.4 7.5zm227.4 191.8c3.5.3 8.1 1.6 11.5 3.2 3.2 1.6 8.2 5.3 11.3 8.3 3.1 3 7.7 8.9 10.3 13 2.5 4.1 7.1 13.6 10.2 21 3.1 7.4 7.6 19.8 10.1 27.5 2.5 7.7 6.3 21.2 8.5 30s5.5 24.5 7.4 35c1.8 10.5 4.5 26.9 5.9 36.5 1.4 9.6 3.9 28.5 5.5 42 1.7 13.5 3.7 32.1 4.6 41.5.8 9.4 2 25.8 2.5 36.5s1 29.2 1 41-.5 28.9-1 38c-.5 9.1-1.7 23-2.6 31-.8 8-1.4 16.7-.9 24.2l6.2-4.6c3.5-2.5 11.5-9.7 17.9-15.9 6.4-6.1 16-16.2 21.3-22.2 5.4-6 17.1-20.2 26.1-31.5s20.9-25.9 26.5-32.5c5.6-6.6 14.9-16.5 20.6-22 7.1-6.7 12.8-11.2 17.5-13.6 3.8-2 9.1-4.2 11.9-4.7 3.4-.7 6.5-.8 9.5-.1 2.5.6 6.1 2 8 3.3 1.9 1.2 6.4 6 10 10.6 3.6 4.6 7.6 9.1 9 10.2 1.4 1 8.1 3.7 15 6.1 6.9 2.3 14.6 5.5 17.2 7 2.7 1.5 6.5 4.4 8.5 6.6 2.1 2.1 4.8 6 6 8.7 1.2 2.7 4.8 11.4 7.9 19.4 3.1 8 7.3 19.5 9.5 25.5 2.1 6 4.4 14.6 5.1 19 .9 6.3.9 10.5-.1 20-.7 6.6-2.4 19-3.7 27.5-1.3 8.5-3.3 20.5-4.5 26.5-1.2 6-3.5 14.8-5.1 19.5-1.7 4.7-4.8 12.1-7 16.5s-6.5 11.8-9.6 16.5c-3.1 4.7-9.5 13.3-14.2 19.1-4.7 5.9-14.4 17.1-21.6 25-7.2 7.9-19.9 20.9-28.1 28.9-8.2 8-21.4 20.3-29.3 27.4-8 7.1-21.5 18.7-30 25.9-8.5 7.1-22.3 18-30.5 24.2-8.3 6.2-22.2 15.9-31 21.5s-17.8 11.7-20 13.4c-2.2 1.8-5.2 5.7-6.8 8.7-2.4 4.8-2.7 6.5-2.7 14.9 0 5.8 1.1 16.5 3 27.5 1.6 9.9 4.3 27.5 6 39 1.6 11.5 3.7 28.7 4.5 38 .8 9.3 1.5 27.7 1.5 40.8 0 13-.5 30.6-1 39-.6 8.3-1.7 21.7-2.6 29.7-.8 8-2.6 21.9-4 31-1.4 9.1-4.3 25.5-6.6 36.5-2.2 11-6.2 29-9 40-2.7 11-7.5 28.1-10.5 38-3 9.9-9.1 28.1-13.5 40.5-4.4 12.4-11.3 30.8-15.3 41s-10.5 25.7-14.5 34.5c-3.9 8.8-11.4 24.3-16.6 34.5-5.1 10.2-12.6 23.5-16.5 29.5-3.9 6-9.8 14.2-12.9 18-3.2 3.8-8 8.9-10.7 11.1-2.6 2.3-7.7 6-11.3 8.2-3.6 2.2-9.9 5.4-14 7.1-4.1 1.6-11.8 4.1-17 5.5-5.2 1.4-12.2 2.6-15.5 2.6-3.3 0-8.5-.8-11.5-1.8s-7.5-3.2-10-4.9c-2.5-1.6-6.7-5.4-9.4-8.4-2.6-3-11.2-14.9-18.9-26.4-7.7-11.5-17.4-25.5-21.5-31-4.2-5.5-12.1-14.5-17.6-20.1-6.1-6-14.1-12.7-20.1-16.6-5.5-3.7-13.4-8.3-17.5-10.2-4.1-1.9-11.8-4.9-17-6.6-5.2-1.7-14-4.1-19.5-5.3-8.5-1.8-13.1-2.1-30.5-2.1-18.8 0-21.3.3-30 2.6-5.2 1.4-12.4 3.9-16 5.5-3.6 1.7-9.4 5.2-12.9 7.9-3.6 2.7-9.2 8.5-12.6 12.9-3.4 4.4-8.2 11.4-10.7 15.5s-8 13.6-12.3 21c-4.3 7.4-9.6 16.2-11.8 19.5-2.3 3.3-6.8 8.9-10.1 12.4-3.4 3.5-8.8 8.2-12.1 10.3-3.3 2.1-8.9 4.8-12.5 5.9-3.6 1.1-8.8 1.9-11.5 1.9-2.8 0-7.7-.7-11-1.5-3.3-.9-9.6-3.4-14-5.5-4.4-2.2-11.1-6.4-15-9.3-3.8-2.8-9.4-7.4-12.4-10.2-3-2.7-8.8-9-13-14-4.1-5-10-12.8-13.1-17.5-3-4.7-7.9-13.2-10.7-19-2.8-5.8-6.7-15.2-8.8-21-2-5.8-4.5-14.1-5.6-18.5-1.1-4.4-3.1-13.2-4.4-19.5-1.3-6.3-3.3-18-4.4-26-1.1-8-3.2-25.1-4.5-38-1.4-12.9-4.6-46.9-7.1-75.5s-4.7-53.7-5-55.8c-.5-3.5-.6-3.7-3.8-3.3-1.7.3-10.6 1-19.7 1.7-13.1 1-21.1 1-38.5.1-12.1-.7-27.9-2.1-35-3.1-7.1-1.1-18.4-3.1-25-4.6-6.6-1.5-19.2-5.1-28-8-8.8-2.9-22.8-8.2-31-11.9-8.3-3.6-21.8-10.3-30-14.7-8.3-4.5-20.4-11.6-27-15.8-6.6-4.1-17-11.2-23.2-15.6-6.1-4.4-16-12-22-17-5.9-4.9-16.4-14.6-23.4-21.5-6.9-6.9-15.9-16.8-20.1-22-4.1-5.2-10.4-13.8-13.8-19-3.4-5.2-8.2-13.7-10.6-18.8-2.4-5-5.6-13.1-7-17.9-1.9-6.5-2.7-12-3.1-20.8-.4-9.3-.2-13.4 1.1-18.5 1-3.6 2.9-9 4.4-12 1.5-3 5-8 7.8-11s7.8-6.9 11-8.7c3.2-1.7 8.6-3.9 11.9-4.7 3.4-.9 10.1-1.6 15.2-1.6s11.7.5 14.5 1.1c2.9.6 9.6 2.4 14.8 4.2 5.2 1.7 14.2 5.5 20 8.4 5.8 3 14.8 8.3 20 11.8 5.2 3.5 15.4 11 22.5 16.8 7.1 5.7 16.8 14 21.5 18.3 4.7 4.2 19.7 18.4 33.5 31.5 13.7 13 29 27.2 34 31.5 5 4.4 13.3 11.3 18.5 15.3 5.2 4.1 13.3 9.9 18 13 4.7 3.1 13.9 8.4 20.5 11.8 6.6 3.4 16 7.7 21 9.6 5 1.9 12.8 4.4 17.5 5.5 4.7 1.2 11.9 2.4 16 2.8 4.2.4 7.8.3 8.2-.2.3-.5-.9-14.6-2.8-31.4-1.9-16.8-4.5-39.3-5.9-50-1.4-10.7-3.9-27.6-5.6-37.5-1.7-9.9-4.6-23.8-6.4-31-1.8-7.2-4.7-16.6-6.4-21-1.7-4.4-5-11.5-7.4-15.7-2.3-4.3-7.3-11.7-11.2-16.5-3.9-4.8-11.7-12.9-17.5-18-5.8-5.1-20.6-16.9-33-26.3-12.4-9.4-29-22.4-37-29-8-6.5-24.6-20.4-37-31-12.4-10.5-31.9-26.4-43.5-35.3-11.6-8.8-26.2-20.4-32.5-25.6-6.3-5.3-15.6-13.7-20.5-18.7s-11.3-12.4-14.2-16.5c-2.8-4.1-6.5-10.3-8.2-13.9-1.7-3.6-3.8-9.4-4.7-13-1.1-4.3-1.5-8.9-1.2-13.5.3-3.9 1.4-9 2.4-11.5 1.1-2.5 4.8-7.5 8.2-11.3 4.5-4.9 7.5-9.4 11-17 2.7-5.6 6.4-12 8.3-14.1 1.9-2.2 7.2-6.4 11.9-9.4s9.6-6.4 10.9-7.6c1.3-1.1 5.1-6.4 8.6-11.6 3.4-5.2 9.1-12.2 12.6-15.6 3.5-3.4 9.3-8 12.9-10.3 3.6-2.3 9-5.1 12-6.2 3-1.2 8.9-2.3 13-2.6 5.1-.3 9.8 0 14.5 1.1 3.9.9 11 3.6 16 6s12 6.6 15.6 9.3c3.7 2.6 11.8 9.4 18 15 6.3 5.6 17.7 16.6 25.4 24.5 7.7 7.9 18.7 19.5 24.5 25.7 5.8 6.3 13.9 14 18 17.1 4.1 3.1 10 6.4 13 7.5 3 1 8.2 1.9 11.5 1.9 4.3.1 7-.5 9.5-1.9 2.3-1.3 4.4-3.8 5.9-7 2.1-4.4 2.5-6.6 2.7-17.5.1-7.1 1.3-19.6 2.8-29 1.4-9.1 3.5-23.3 4.6-31.5 1.1-8.3 3.8-26.5 6-40.5 2.1-14 4.8-33.1 5.9-42.5 1.2-9.4 2.8-24.4 3.6-33.5.8-9.1 1.5-24.8 1.5-35 0-14.7.6-23.3 3-42 1.7-12.9 4-29.6 5.1-37 1.1-7.4 3.3-19.6 5-27 1.6-7.4 4.5-18.5 6.4-24.5 2-6 5.3-14.6 7.5-19 2.1-4.4 5.9-10.6 8.4-13.8 2.6-3.1 7.4-7.5 10.8-9.7 3.5-2.3 8.7-5 11.5-6 2.9-1.1 8.6-2.5 12.5-3.1 5.4-.8 9.3-.8 14.8 0 4.1.7 10.8 2.3 14.7 3.6 4 1.4 11.8 4.7 17.3 7.5 5.5 2.7 12.6 6.6 15.7 8.7 3.2 2 8.7 5.9 12.3 8.6 3.6 2.8 11.2 9.5 17 14.8 5.8 5.4 13.2 11.9 16.5 14.4 3.3 2.6 8.6 6 11.7 7.6 3.2 1.6 9.1 4 13 5.4 4 1.3 12.5 3.3 18.8 4.4 6.3 1.1 19.8 2.5 30 3.2 11.7.7 28.7.9 46.5.5 15.4-.4 35.4-1.1 44.5-1.6 9.1-.6 27.1-1.9 40-3 12.9-1.2 27.8-2.7 33-3.6 5.2-.8 13.1-2.7 17.5-4.2s11.5-4.8 15.9-7.2c4.3-2.5 11.7-7.4 16.5-11 4.7-3.6 17.6-15.6 28.6-26.8 11-11.2 22.7-22.4 26-24.9 3.3-2.5 8.6-5.8 11.7-7.4 3.2-1.6 7.5-3.3 9.5-3.9 2.1-.5 6.4-.7 9.5-.5zm-17 20.8c-2.3 1.5-6.8 5-10 7.9-3.1 2.8-11 10.8-17.5 17.7-6.4 6.9-15.7 16.1-20.5 20.4-4.8 4.3-12.5 10.4-17.2 13.6-4.7 3.3-12.5 7.9-17.5 10.4s-13 5.7-18 7.2c-5 1.4-13 3.2-18 4-5 .8-20 2.3-33.5 3.4-13.5 1.2-32.2 2.5-41.5 3-9.3.6-27.8 1.3-41 1.6-14.2.4-32.3.2-44.5-.5-11.3-.6-25.9-2-32.5-3.2-6.6-1.1-15.8-3.1-20.5-4.5-4.7-1.3-12.1-4.2-16.5-6.3-4.4-2.1-11.1-6.1-15-9-3.9-2.9-12.4-10.3-19-16.5-6.6-6.1-14.9-13.3-18.5-15.9-3.6-2.6-10.3-6.9-15-9.6-4.7-2.7-12.4-6.4-17.3-8.4-4.8-2-11.7-4.1-15.5-4.8-4.8-.8-8.6-.9-13.7-.2-3.9.6-9.3 2.1-12 3.4-2.8 1.3-7 4.5-9.5 7s-5.9 7.2-7.7 10.5c-1.7 3.3-4.5 10-6.3 15-1.7 5-4.4 14.2-6 20.5-1.5 6.3-3.7 17.1-4.9 24-1.1 6.9-3.7 24.8-5.6 39.7-2.8 22.2-3.5 30.6-3.5 45 0 9.8-.7 25.4-1.5 34.8-.8 9.4-2.4 24.6-3.5 34-1.1 9.4-3.6 27.4-5.6 40-1.9 12.6-5.8 36.7-8.6 53.5-4.6 27.8-5 32-5.1 47.5l-.1 17c38.2 25.6 54.2 35.9 60.1 39.5 5.9 3.6 16.2 9.2 22.8 12.6 6.6 3.3 20.8 9.7 31.5 14.3 10.7 4.6 41 16.9 67.3 27.5l47.7 19.1c3.5-3.4 7-5.5 10-6.9 3-1.4 7.7-2.9 10.5-3.2 3.3-.4 6.9-.1 10.5.9 3 .9 6.3 2.4 7.2 3.4 1 1 2.1 3.4 2.4 5.3.6 2.9.3 3.9-1.9 6.2-2.1 2.2-3.3 2.7-5.5 2.2-1.5-.3-3.4-1.2-4.2-2-.8-.7-3.5-1.4-6-1.4-3.3 0-5.7.8-9.3 3-2.6 1.6-5.4 4.4-6.2 6-.8 1.6-1.5 4.3-1.5 6 0 1.7.6 4.2 1.4 5.7.7 1.6 3.1 3.6 5.2 4.7 2.8 1.3 5.1 1.7 7.9 1.3 2.2-.3 6.6-2 9.7-3.7 3.2-1.6 7.3-3 9-3 1.8-.1 4.5.8 6 2 1.7 1.2 3.2 3.6 3.7 5.7s1.2 6.7 1.6 10.3c.4 3.9.2 7.5-.4 9-.6 1.4-2.2 3.1-3.6 3.7-1.4.7-3.2 1.3-4 1.3-.8 0-2.7-1-4.1-2.3-1.6-1.4-2.8-3.7-3.2-6.5-.6-3.8-1-4.2-2.7-3.7-1.1.4-4.7 1.3-8 2.2-3.5.8-7.5 1.2-9.5.8-1.9-.4-5.5-1.5-8-2.6s-6-3.4-7.8-5.2c-1.9-1.8-4.3-5-5.5-7.2-1.1-2.2-2.3-6.7-2.6-9.9l-.6-5.9c-23.3-6-33.6-8.9-38-10.3-4.4-1.5-12.5-4.4-18-6.4-5.5-2.1-15.2-6.1-21.5-8.8-6.3-2.7-18.9-8.4-28-12.7-9.1-4.2-21.2-10.2-27-13.3-5.8-3-15.9-8.7-22.5-12.5-6.6-3.8-17.2-10.1-23.5-14-6.3-3.9-16.9-10.6-23.5-15-6.6-4.4-15-10.4-18.8-13.3L683 913c-6.6 5.5-10.9 8-13.8 9-3.3 1.3-7.7 2-12 2-3.7 0-9.3-.7-12.5-1.5-3.1-.8-8.3-2.8-11.5-4.4-3.1-1.6-9.1-5.5-13.2-8.8-4.1-3.3-12-10.8-17.5-16.9-5.4-6-18.5-19.5-29-29.9-10.4-10.5-22.8-22.3-27.5-26.2-4.7-3.9-12.1-9.2-16.5-11.7-4.4-2.6-10.9-5.6-14.5-6.7-5.1-1.7-8.1-2.1-14-1.7-5.8.4-8.9 1.2-13.5 3.5-3.3 1.7-9.1 5.9-12.9 9.4-3.9 3.7-9.5 10.3-12.9 15.4-3.2 5-7.1 10.3-8.5 11.9-1.5 1.6-7 5.7-12.2 9.1-5.2 3.4-10.2 7.1-11.1 8.1-.9 1-2.3 3.3-3.2 4.9-.9 1.6-3.2 6.4-5.1 10.5-2.2 5-5.6 9.9-10 14.7-3.6 4-6.9 8.5-7.2 10-.4 1.6-.4 5.9-.1 9.8.4 5.5 1.4 8.7 4.6 15 2.2 4.4 6.9 11.6 10.4 16s10.2 11.4 14.8 15.6c4.6 4.1 12.4 10.8 17.4 14.9 4.9 4 18.2 14.4 29.5 23.1 11.3 8.6 30.6 24.4 43 34.9 12.4 10.6 30.1 25.4 39.5 32.9 9.4 7.5 24.6 19.5 34 26.6 9.4 7 20.8 16 25.5 19.9 4.7 3.8 12.5 11.1 17.5 16.1 5 5 11.8 13.2 15.1 18.1 3.4 4.9 7.7 12.1 9.7 15.9 1.9 3.8 4.9 11 6.7 16 1.7 5 4.4 14.2 6 20.5 1.5 6.3 3.9 17.8 5.3 25.5 1.4 7.7 3.5 20.3 4.7 28 1.2 7.7 3.4 25 5 38.5s4.5 39.8 6.4 58.5c1.9 18.7 5.3 52.5 7.5 75 2.3 22.5 5 52 6.1 65.5 1.1 13.5 3 34.2 4 46 1.1 11.8 3.2 31.6 4.5 44 1.4 12.4 3.9 30.6 5.5 40.5 1.7 9.9 4.3 23 5.9 29 1.6 6 4.6 15.5 6.6 21s5.9 14.3 8.6 19.5c2.8 5.2 7.9 13.5 11.4 18.5s9.7 12.6 13.8 17c4 4.4 11.1 10.9 15.8 14.4 4.6 3.5 11.8 7.9 15.9 9.9 5.7 2.7 9.2 3.7 14.5 4 6.1.4 7.8.1 13-2.3 3.5-1.5 8.4-5.1 11.8-8.4 3.2-3.1 8-8.8 10.6-12.6 2.6-3.8 9.2-14.7 14.6-24s11.9-20.2 14.5-24c2.6-3.8 7-9.7 9.8-13 2.8-3.3 8.1-8.3 11.9-11.1 3.7-2.9 9.9-6.8 13.8-8.7 3.9-1.9 10.6-4.6 15-6 4.4-1.3 11.4-3.1 15.5-3.8 4.6-.9 14.4-1.4 25.5-1.3 15.5 0 19.7.4 30.5 2.6 6.9 1.5 17.2 4.2 23 6.1 5.8 1.9 14.3 5.2 19 7.5 4.7 2.2 13.5 7.3 19.5 11.3 7.4 4.9 14.6 10.9 22 18.4 6.1 6 14.9 16.2 19.6 22.5 4.8 6.3 14.6 20.5 21.9 31.5 7.4 11 15.6 22.4 18.4 25.3 3.2 3.3 6.8 5.9 9.6 6.9 3.3 1.2 6.4 1.5 11.5 1.1 3.8-.3 11.2-2 16.2-3.7 5.1-1.7 11.4-4.2 14-5.5 2.7-1.3 7.7-4.6 11.2-7.2 3.5-2.7 8.8-7.8 11.8-11.4 3-3.6 7.8-10.1 10.7-14.5 2.9-4.4 8-13 11.4-19 3.4-6 10-19.3 14.7-29.5 4.8-10.2 11.5-25.3 15-33.5 3.5-8.3 10.1-24.9 14.5-37 4.5-12.1 10.9-30.1 14.1-40 3.3-9.9 8.5-26.8 11.5-37.5s7.5-28.5 9.9-39.5c2.4-11 5.5-26.1 6.9-33.5 1.4-7.4 3.4-20.3 4.5-28.5 1.2-8.3 2.8-22 3.7-30.5.8-8.5 1.8-30.3 2.1-48.5.4-21.4.1-37.9-.6-47-.7-7.7-2.1-21-3.2-29.5-1-8.5-4-28.3-6.5-44-3.9-24.3-4.5-30-4.2-39 .3-8.4.9-11.6 2.9-16 1.4-3 3.8-7.3 5.4-9.4 1.7-2.1 5.5-5.8 8.5-8.1s12.5-8.6 21-14.1c8.5-5.4 21.6-14.5 29-20 7.4-5.6 19.6-15.2 27-21.4 7.4-6.2 20.5-17.4 29-24.9 8.5-7.4 25.9-23.9 38.5-36.6 12.7-12.6 26.9-27.5 31.7-33 4.7-5.5 12.3-15 16.9-21.1 4.6-6.1 10.7-15.4 13.6-20.5 2.8-5.2 6.3-12.8 7.8-16.9 1.4-4.1 3.7-12.9 5-19.5 1.3-6.6 3.6-20.1 5-30 1.4-9.9 2.8-22.3 3.1-27.5.4-6.8.1-11.6-1-17-.9-4.1-5-15.8-9-26-4.1-10.2-8.2-21-9.2-24-1-3.1-3.2-6.8-4.9-8.4-1.6-1.6-4.6-3.7-6.5-4.6-1.9-1-8.5-3.4-14.5-5.5-6-2-13-4.9-15.5-6.5-2.5-1.6-5.9-4.4-7.6-6.2-1.7-1.8-5-5.9-7.3-9.1-2.2-3.1-5.3-6.2-6.9-6.8-2-.8-3.8-.7-6.7.1-2.2.7-6.3 2.7-9 4.5-2.8 1.9-9.4 7.8-14.7 13.2-5.3 5.4-12.7 13.4-16.4 17.8-3.7 4.4-14.7 17.9-24.3 30-9.6 12.1-22.1 27.2-27.7 33.5-5.6 6.3-14.8 16-20.5 21.5-5.7 5.6-13.6 12.7-17.4 15.8-3.8 3.2-9.3 6.9-12 8.3-3 1.4-6.7 2.4-9.3 2.4-3.8 0-5.4.9-16.5 9.3-6.7 5.1-16.9 12.5-22.7 16.4-5.8 3.8-17 10.9-25 15.7-8 4.8-23.3 13.2-34 18.6-10.7 5.4-28.5 13.7-39.5 18.5-11 4.8-27.2 11.6-36 15-8.8 3.5-25.2 9.3-36.5 13l-20.5 6.7c-2.6 7.2-4.9 11.5-6.7 14.2-1.8 2.7-4.9 5.7-6.8 6.8-2.3 1.3-4.9 1.8-7.5 1.6-2.3-.2-5.6-1.5-7.8-3.1-2-1.5-5.2-5.1-7.1-8-1.9-2.8-4.4-8.1-5.6-11.7-1.2-3.6-2.2-9.5-2.3-13.3-.2-6.3 0-7.1 2.3-8.8 1.4-1.1 3.4-2 4.5-2s3 .8 4.3 1.8c1.7 1.4 2.4 3.4 3.2 9.3.5 4.1 1.5 9.1 2.3 11 .8 1.9 2.8 5 4.3 6.8 2.7 3 3 3.2 4.1 1.5.6-1 1.9-3.8 2.8-6.3 1-2.7 1.9-9.5 2.3-17.2.6-11.3 1-13 2.9-14.9 1.2-1.3 3.5-2.3 5.2-2.3 1.9-.1 3.9.7 5.3 2.2 1.8 1.8 2.3 3.5 2.5 8.7.2 3.6.6 6.5 1 6.5.5 0 3.7-1.2 7.3-2.6 3.6-1.4 13.5-5.8 22-9.6 8.5-3.9 30.8-14.5 49.5-23.7s39.6-19.8 46.5-23.5c6.9-3.8 19-10.7 27-15.4 8-4.7 19.9-12.1 26.5-16.5 6.6-4.4 17-11.7 23-16.2l11-8.2c2.7-27 4-42.7 4.6-52.3.7-10.6.9-30.9.6-51.5-.4-18.7-1.3-42.3-2.2-52.5-.8-10.2-2.6-28.4-4-40.5-1.4-12.1-4.3-34.4-6.5-49.5-2.1-15.1-5.1-33.8-6.5-41.5-1.4-7.7-4.4-21.4-6.6-30.5-2.2-9.1-6.4-23.7-9.4-32.5-2.9-8.8-7-19.8-9-24.5-2-4.7-5.1-11.2-7-14.5-1.8-3.3-5.1-8-7.2-10.5-2.2-2.5-5.9-5.5-8.4-6.7-2.4-1.3-6-2.3-7.9-2.2-1.9 0-5.1.6-7 1.3-1.9.7-5.4 2.4-7.8 3.9zm-540 417.3c3.5 2.8 9.7 7.3 13.8 10.1 4.1 2.7 14.9 9.5 24 15s22.6 13.5 30 17.8c7.4 4.3 21.6 11.8 31.5 16.8 9.9 4.9 26.3 12.7 36.5 17.2s24.6 10.5 32 13.3c7.4 2.8 20.2 6.9 28.5 9.1 8.2 2.3 16.6 4.4 18.5 4.6l3.5.5c-4.6-2.2-26-10.9-50.5-20.6-24.5-9.7-52.4-21-62-25.1-9.6-4.1-23.8-10.7-31.5-14.7-7.7-4-19-10.3-25-14.1-6-3.8-20.8-13.6-32.8-21.7-11.9-8.1-21.9-14.8-22.2-14.8-.3 0-.5.3-.5.7 0 .5 2.8 3.1 6.2 5.9zm590.3 21.8c-7.2 4.6-20.4 12.7-29.5 18-9.1 5.3-31.6 17.2-50 26.4-18.4 9.3-38.2 19-44 21.6-5.8 2.6-10.3 4.9-10 5.1.3.3 7-2.2 15-5.4s21.5-8.9 30-12.6c8.5-3.7 22.3-10.1 30.5-14.2 8.3-4.2 20.6-10.7 27.5-14.5 6.9-3.9 18.6-10.9 26-15.6 7.4-4.7 18.7-12.3 25-16.9 6.3-4.5 12.8-9.2 14.3-10.5 1.9-1.5 2.6-2.9 2.3-4.1-.3-.9-1.2-1.7-1.8-1.6-.7 0-6 3.6-11.8 8-5.8 4.4-16.3 11.7-23.5 16.3zm-920 263.7c-2.7 1.3-6.9 4.3-9.2 6.6-2.4 2.4-5.2 6.1-6.3 8.3-1.1 2.2-2.7 7-3.6 10.7-1.1 4.8-1.4 9.2-1 14.8.3 4.4 1.4 11.2 2.4 15 1 3.8 3.3 10.4 5 14.5 1.7 4.1 5.4 11.3 8.2 16 2.8 4.7 8.3 12.8 12.2 18 4 5.2 14.9 17.2 24.2 26.6 9.4 9.3 21.4 20.4 26.6 24.5 5.2 4.2 13.8 10.6 19 14.3 5.2 3.8 15.4 10.4 22.5 14.9 7.2 4.4 20.7 12 30 16.8 9.4 4.8 21.7 10.8 27.5 13.3 5.8 2.4 15.2 6.1 21 8.1 5.8 2 15.5 4.9 21.5 6.5 6 1.6 15.8 3.8 21.8 5 5.9 1.1 17.8 2.7 26.5 3.5 8.6.8 25.6 1.5 37.7 1.5 12.1 0 25.8-.5 30.5-1.1 4.7-.6 9-1.3 9.6-1.7.8-.5.4-8.5-1.7-29.2-1.6-15.7-2.9-28.8-2.9-29.3 0-.4-3.4-.7-7.5-.7s-11.9-.9-17.2-2c-5.4-1-14.5-3.5-20.3-5.5-5.8-2-15.9-6.2-22.5-9.5-6.6-3.2-17.4-9.4-24-13.7-6.6-4.4-17.6-12.5-24.5-18-6.9-5.6-16.8-14.1-22-18.8-5.2-4.8-20.5-19.2-34-32s-28.5-26.8-33.5-31.1c-4.9-4.3-12.4-10.5-16.5-13.8-4.1-3.2-12.2-9.1-18-12.9-5.8-3.8-14.3-8.8-19-11.2-4.7-2.3-11.9-5.5-16-7-4.1-1.4-10.8-3.3-14.7-4.1-4-.8-9.9-1.4-13-1.3-3.2.1-7.6.5-9.8.9-2.2.4-6.2 1.8-9 3.1zM316 671.8c.8.2 4 .9 7 1.3 3.6.6 8.2 2.5 13.5 5.6 4.4 2.5 11.3 6.8 15.3 9.5 3.9 2.6 7.7 4.8 8.2 4.8.6 0 5.8-3.6 11.8-8 5.9-4.4 12.4-8.5 14.5-9 2.8-.8 4.4-.7 6.7.5 1.7.8 3.4 2.7 3.9 4.2.5 1.7.5 4.9 0 7.8-.5 2.7-2.5 9.9-4.5 16-1.9 6-3.4 11-3.2 11.1.2.1 4.2 1.1 9.1 2.2 4.8 1.2 10.5 3.1 12.7 4.2 2.2 1.1 4.5 2.9 5 4 .6 1.1 1 3.1 1 4.5s-1.2 3.7-2.8 5.2c-1.6 1.6-5.3 3.6-8.3 4.5-3 .9-10.1 2.6-15.9 3.8-5.8 1.1-10.5 2.2-10.6 2.3 0 .1-1.1 5.1-2.2 11.2-1.2 6-3.1 13.9-4.3 17.5-1.2 3.6-3 7.7-4 9.2-1.1 1.7-3.1 3-4.9 3.3-1.7.3-4.3-.2-6-1-1.8-.9-3.8-3.2-5-5.8-1.1-2.3-2.7-8-3.5-12.7-.8-4.7-1.5-9.5-1.7-10.7-.3-2.1-.5-2-9.8 1.9-5.2 2.3-11.3 4.3-13.5 4.6-2.7.3-5.2-.1-7.8-1.4-2.4-1.2-4.4-3.1-5.3-5.2-.8-1.7-1.4-4.4-1.4-6 0-1.5 1.6-7.7 3.6-13.7 3-8.9 3.7-13 4.1-21.5.5-10.4.5-10.7-4.1-24.8-3.7-11.5-4.4-14.7-3.6-16.6.6-1.3 1.8-2.6 2.8-2.9.9-.3 2.4-.2 3.2.1zm10.6 21.7c1.8 4.8 2.7 9.8 3.1 16 .3 4.9 0 12.3-.6 16.2-.6 4-2.4 11.2-4 16-2.8 8.8-2.8 8.8-.7 9.1 1.1.1 7.2-2 13.4-4.8 6.1-2.7 12.4-5 14-5 1.5 0 3.3.5 4 1.2.7.7 1.2 2.5 1.2 4 0 1.6.5 3 1 3.3.6.3 1 2 1 3.7 0 1.8.5 6.2 1.1 9.8.6 3.9 1.4 6.1 1.9 5.5.5-.6 1.9-6.2 3.1-12.5 1.2-6.3 2.5-13.2 3-15.3.6-2.5 1.8-4.1 3.7-5.1 1.5-.8 7.1-2.2 12.5-3.3 5.3-1 9.7-2 9.7-2.3 0-.3-4.4-1.5-9.8-2.7-6-1.4-10.2-2.9-11.2-4-.7-1-1.3-2.9-1.3-4.3.1-1.4 1.2-3.4 2.5-4.5 1.5-1.2 3.6-5.6 5.6-11.5 1.8-5.2 3.2-9.8 3.2-10.3 0-.4-2.1.8-4.7 2.7-2.7 1.8-6.8 4.8-9.3 6.5-2.5 1.7-6.1 3.3-8 3.6-2.1.3-4.4 0-5.7-.7-1.2-.7-6.2-4.1-11-7.4-4.8-3.4-11.3-7.6-14.4-9.4-3.1-1.7-5.7-2.8-5.8-2.3-.1.4 1 3.9 2.5 7.8zM728.5 291c1.4 0 3.9 1.1 5.5 2.5 1.7 1.4 3 3.1 3 3.7 0 .7 2.6 6.7 5.8 13.3 3.2 6.6 7.4 13.7 9.3 15.8 2.1 2.4 4.8 4.2 7.2 4.8 2.9.7 4.9.5 9.5-1.2 3.1-1.2 8-3 10.7-4 2.8-1 6.1-1.5 7.5-1.2 1.4.3 3.5 1.5 4.8 2.7 1.5 1.4 2.2 3.2 2.2 5.6 0 2.9-1 4.4-6.3 9.5-3.4 3.3-9.6 9-21.2 19.2l7.5 5c4.1 2.8 8.5 6.1 9.7 7.4 1.2 1.3 2.5 3.9 2.8 5.6.4 2.8 0 3.9-2.7 6.6-2.6 2.7-4.6 3.6-9.8 4.6-3.6.7-10.8 1.3-25.7 1.6l-8.4 10.5c-4.6 5.8-12.2 14.4-16.9 19.3-7.4 7.6-8.9 8.7-12 8.7-2.1.1-4.1-.6-5.1-1.7-.9-1-1.9-2.9-2.2-4.3-.3-1.4.1-5.4.9-9 .8-3.6 3.9-14.2 6.9-23.5 2.9-9.4 5.3-17.1 5.2-17.2-.1-.1-6.9.9-15.2 2.3-8.2 1.4-16.3 2.2-18 1.9-1.6-.3-4-1.6-5.3-2.8-1.2-1.2-2.3-3.3-2.3-4.7 0-1.4 1.1-3.6 2.3-5 1.3-1.4 5.5-4.6 9.3-7.1 3.9-2.6 10-7.7 13.6-11.5 3.6-3.8 8.5-9.8 10.8-13.4 2.3-3.6 5-9.4 6.1-13 1-3.6 2.5-11 3.4-16.5.8-5.5 2.3-11 3.1-12.3.9-1.3 2.6-2.2 4-2.2zm-2.6 43c-1.7 3.6-5 9.2-7.4 12.5-2.3 3.3-6.7 8.6-9.6 11.7-3 3.1-5.3 5.8-5.2 6 .1.2 5.7-.6 12.5-1.7 11.7-1.8 12.4-1.8 15.1-.2 1.8 1.1 2.7 2.6 2.7 4.2 0 1.4-1 3.5-2.2 4.7-1.5 1.5-4.1 8.1-7.5 19-2.9 9.3-5 16.8-4.5 16.8.4.1 3.5-3.3 7-7.5 5.6-6.8 6.1-7.7 4.7-9.3-.8-.9-1.5-2.8-1.5-4.2 0-1.4.7-3.3 1.7-4.2 1.6-1.5 4.2-1.8 20.6-1.8 10.3 0 18.7-.3 18.7-.8.1-.4-3.1-2.8-7-5.5-3.8-2.6-8-4.7-9.2-4.7-1.3.1-3-.7-3.8-1.7-.7-1-1.4-2.9-1.3-4.3 0-1.8 2.4-4.7 8.7-10.5 4.7-4.4 8.6-8.2 8.6-8.5 0-.3-1.3-.3-2.8-.1-1.5.2-5.2-.4-8.2-1.2-3.4-1-7.2-3-10-5.5-3.2-2.7-5.8-6.5-9-13-2.5-5.1-4.8-9.2-5.1-9.2-.3 0-1 2.8-1.7 6.2-.6 3.5-2.6 9.2-4.3 12.8zm588.9-20c1.7 0 6.6 2.6 13.2 6.9 5.8 3.9 13.2 8 16.5 9.1 3.7 1.3 9.6 2.3 15.5 2.7 8.4.4 10.5.2 17.5-2.1 4.4-1.4 9.6-2.6 11.5-2.6 1.9.1 4.4.8 5.5 1.6 1.1.8 2.8 2.7 3.7 4.2 1 1.5 1.8 4.4 1.8 6.4 0 2.1-.8 5.9-1.8 8.5-1 2.7-3.2 7.2-5 10-1.8 2.9-3.1 5.5-2.9 5.7.1.2 3.4 1.3 7.2 2.6 3.9 1.2 8 3.3 9.3 4.6 1.2 1.3 2.2 3.1 2.2 3.9 0 .8-1 2.6-2.2 4-1.9 2-3.8 2.7-9.8 3.5-4.1.5-10.2.9-19.5 1l-.6 3.7c-.3 2.1-3.9 9.4-8 16.2-4.1 6.7-9.7 15.3-12.4 19-3.4 4.4-6.6 7.4-9.5 8.9-3.7 1.8-5.1 2.1-7.7 1.2-2.1-.6-3.9-2.1-4.8-4-.9-1.8-1.5-5.6-1.4-9.3 0-3.4.6-10.3 1.3-15.2.7-5 1.3-9.1 1.2-9.1 0-.1-10.2.9-22.6 2.2-12.4 1.3-24.5 2.4-27 2.4-3 0-5.4-.6-7.2-2-1.8-1.2-2.8-2.9-2.8-4.5 0-1.4.3-3.2.8-4.1.4-.9 7.4-5.1 15.6-9.3 8.2-4.2 16.6-9.2 18.5-11.1 2-1.9 4.5-5.3 5.5-7.5 1.1-2.2 2.2-6.5 2.4-9.5.3-4-.2-7.4-1.8-12.5-1.6-4.6-3.4-7.9-5.4-9.8-2.7-2.4-3-3.2-2.6-6.9.2-2.3 1-5.2 1.7-6.5.9-1.5 2.3-2.3 4.1-2.3zm15.9 38.5c-.2 4.6-1.2 8.9-2.8 12.5-1.4 3-3.7 7.1-5.1 9-1.5 1.9-4.7 5.1-7.2 7-2.5 1.9-4.5 3.6-4.3 3.8.1.2 6-.3 13.2-1 11.1-1.1 13.3-1.6 15.2-3.6 1.2-1.2 2.6-2.2 3-2.2.4-.1 1.9.7 3.2 1.7 1.8 1.3 2.3 2.7 2.3 5.3-.1 1.9-.8 9.1-1.7 16-.8 6.9-1.5 13.6-1.5 15 0 2.1.8 1.3 4.3-4 2.4-3.6 7-11 10.2-16.5 3.2-5.5 6.5-10.7 7.2-11.5.7-.8 1-2.4.7-3.5-.4-1.1-.4-3 0-4.3.3-1.2 1.8-2.7 3.4-3.2q2.7-1 2.8-3.3c0-1.2 2.1-5.6 4.6-9.7 2.5-4.1 5.5-9.3 6.6-11.5 1-2.2 2.2-4.9 2.5-6 .6-2 .5-2-7.6.3-5.1 1.4-10.9 2.2-15.4 2.2-4 0-10.8-.7-15-1.6-4.3-.9-10.4-2.9-13.5-4.5-3.2-1.6-6.2-2.9-6.7-2.9-.4 0-.2 2.1.6 4.7.9 3 1.3 7.5 1 11.8zM464.5 428c1.4 0 3.3 1 4.3 2.3.9 1.3 2.8 2.6 4.2 2.9 1.8.5 4.3 3.6 9.5 11.8 3.9 6.1 8.6 13.2 10.5 15.8 2 2.7 5.4 5.7 8 7 2.8 1.4 6.3 2.2 9.3 2.2 2.6 0 6.2-.7 8-1.6 1.7-.9 5.2-3.1 7.7-4.8 2.5-1.6 6.2-3.6 8.3-4.3 3.1-1.1 4.3-1.1 7.2.2 2.1.9 3.9 2.6 4.5 4.2.8 2 .7 3.8-.2 6.3-.6 1.9-5.9 9.7-11.7 17.3-6.5 8.4-10.2 14.1-9.6 14.6.6.4 5.9 3.9 12 7.7 6 3.8 13.3 9.1 16.2 11.9 3.3 3.1 5.6 6.2 5.9 8 .5 2.3 0 3.7-1.9 6-2.2 2.7-3.1 3-7.9 2.9-2.9 0-9.1-.2-13.8-.3-6.7-.3-9.7.1-14 1.7-3 1.2-8.4 4.2-11.9 6.9-4.1 3.1-7.7 6.9-10 10.6-2 3.2-4.8 7.6-6.3 9.8-1.6 2.1-4 4.4-5.5 4.9-2.1.8-3.6.7-5.7-.2-1.7-.8-3.5-2.7-4.3-4.6-.7-1.7-1.4-7.1-1.4-12-.1-4.8-.4-11.7-1.4-21.8l-12.5 2.8c-7 1.6-16 3-20.6 3.1-5.6.1-8.9-.3-10.7-1.3-1.5-.8-3.2-2.6-3.8-4-.8-1.7-.8-3.6 0-6 .6-2.2 3.2-5.5 6.8-8.9 3.2-2.9 10.8-8.4 16.8-12.1 6.1-3.8 11.6-7.4 12.3-8.2 1-1 .9-3.5-.3-12.8-.8-6.3-1.9-17.6-2.5-25-.5-7.4-1-16.9-1.1-21-.1-5.6.3-8.1 1.6-9.8.9-1.2 2.7-2.2 4-2.2zm9.6 53.5c1 7.1 1.9 14.5 1.9 16.2 0 1.8-.7 4.6-1.5 6.3-1 2.1-6.1 6-16 12.5-8 5.2-14.5 9.7-14.5 10 0 .3 1.7.2 3.8-.1 2-.3 10.5-2.1 18.7-4 8.3-1.9 16.6-3.4 18.5-3.4 1.9 0 4.1.5 4.8 1.2.7.7 1.2 2.5 1.2 4q0 2.8-2.7 4.8c-2.5 1.9-2.7 2.4-2.1 6.3.4 2.3.8 7.1.8 10.7l.1 6.5c4.1-5.4 7.8-9.4 10.9-12.3 3-2.9 8.7-6.9 12.5-8.9 3.9-2 9.3-4.2 12-5 2.8-.7 7.3-1.3 10-1.3h5c-18.7-12.2-22.8-14.3-24.7-14.2-1.9.1-3.3-.5-4.4-2.1-.9-1.2-1.3-3.3-1-4.7.3-1.4 4.2-7.4 8.8-13.5 5.1-6.8 7.5-10.7 6.3-10.2-1.1.5-4.2 1.3-7 1.8-3.5.8-6.4.7-9.7 0-2.7-.6-6.9-2.2-9.5-3.5-2.7-1.3-6.8-4.6-9.3-7.2-2.5-2.7-6.9-8.8-9.7-13.7-2.8-4.8-5.4-8.7-5.8-8.7-.4 0-.5 4.4-.1 9.7.4 5.4 1.6 15.6 2.7 22.8zM1589.3 492c1.8 0 3.2.8 4.2 2.5 1.3 2.1 1.3 2.9.2 5.2-1.2 2.5-1.2 3 .5 4.5 1 1 1.8 2.7 1.8 3.8 0 1.1-1.5 6.8-3.4 12.7-1.9 6-4.1 13.5-5 16.8-.8 3.3-1.7 6.8-2 7.7-.5 1.4.5 2.3 4.2 3.9 2.6 1.2 10.8 3.6 18.2 5.5 7.5 1.9 14.3 4.2 15.3 5.1 1 1 1.8 2.7 1.8 3.8 0 1.1.6 2.9 1.4 4 .9 1.1 1.5 2.4 1.6 3 0 .5-.8 2-1.8 3.3-1.7 2.1-3.7 2.5-32.3 5.7-16.8 1.9-30.8 3.5-31.2 3.5-.5 0-4.5 3.4-9 7.6-4.6 4.2-10.2 8.5-12.5 9.5-2.9 1.3-5.2 1.7-7 1.1-1.4-.4-3.5-1.8-4.5-3.2-1.1-1.4-2.9-5.1-6.3-14.3l-5 .6c-2.7.3-11.6 1.5-19.7 2.7-8.6 1.1-15.9 1.7-17.4 1.2-1.5-.4-3.1-1.7-3.5-3-.5-1.2-.6-2.9-.1-3.7.5-1.1 0-2.1-1.5-3-1.3-.8-2.3-2.5-2.3-3.8 0-1.2 1-3.2 2.2-4.3 1.3-1.2 5.5-3.8 9.3-5.9 3.9-2.1 11.2-6.5 16.3-9.9 5.1-3.3 9.3-6.4 9.2-6.9 0-.4-4.2-6.9-9.4-14.5-5.1-7.5-10.3-15.6-11.5-18-1.1-2.3-2.1-6-2.1-8.2 0-3.1.7-4.7 2.9-7 2.5-2.6 3.7-3 8-3 4 0 6.7.9 12.9 4.1 4.2 2.3 13.1 7.6 19.7 11.8 6.6 4.2 13.1 8.5 17 11.1l15.5-12.9c8.5-7.1 17.1-14.2 19-15.9 2-1.8 4.6-3.1 6.3-3.2zm-76.8 35.5c7 10.4 11.5 18 11.6 19.5 0 1.4-1 3.4-2.1 4.5s-2.1 2.6-2 3.2c0 .7-4.2 4.2-9.2 7.7-5.1 3.5-11.9 7.8-15 9.5-3.2 1.7-5.8 3.5-5.8 4.1 0 .5 1 .8 2.3.5 1.2-.3 9.4-1.6 18.2-2.9 8.8-1.4 18.5-2.7 21.5-3.1 4.1-.5 6.1-.2 7.8.9 1.4 1.1 2.2 2.6 2.2 4.6 0 2.3-.7 3.4-3.1 4.7-2.6 1.6-2.9 2.2-2.4 4.8.3 1.6.8 3.2 1.1 3.5.2.3 2.7-1.8 5.4-4.5 2.8-2.8 5-5.7 5-6.5 0-.8.7-2.5 1.5-3.8.8-1.2 2.9-2.4 4.8-2.7 1.7-.3 4.8-1.7 6.7-3 1.9-1.4 4.6-2.5 6-2.5 1.4 0 3.4.9 4.5 2 1.9 1.8 2.5 1.9 16 .5 7.7-.8 14.7-1.4 15.5-1.5 1 0 1.1-.3.5-.9-.5-.5-3.7-1.6-7-2.6-3.3-.9-9.7-3.4-14.2-5.6-5.1-2.4-8.7-4.8-9.4-6.2-.8-1.8-.1-5.3 4-18.7 2.7-9.1 5.4-17.7 6-19.3.7-1.7.8-2.7.1-2.7-.5 0-2.7 1.5-4.7 3.3-2.1 1.9-9.8 8.4-17 14.5-9.8 8.2-14 11.2-16 11.2-1.6.1-3.6-.7-4.5-1.7-1-1-1.8-3-1.8-4.6 0-2.4-1.5-3.6-13.7-11.1-7.6-4.5-16.2-9.5-19-11-2.9-1.4-5.3-2.3-5.3-1.9 0 .5 5.2 8.4 11.5 17.8zM1717 663c1.4 0 3.3.8 4.3 1.8 1 .9 1.8 2.7 1.7 3.9 0 1.4-1.4 3.4-3.2 4.9-1.8 1.5-4.5 3.3-6 4-2.8 1.4-2.8 1.4-2.2 9.6.3 4.6 1.1 12.5 1.7 17.7 1.2 9.3 1.3 9.5 4.2 10.3 1.7.5 5.7 2.8 9 5.2 3.3 2.3 7 5.6 8.3 7.2 1.2 1.6 2.3 4 2.3 5.4 0 1.4-1.1 3.8-2.3 5.4-1.3 1.6-5.4 4.7-9.3 6.9-3.8 2.2-10.1 5.3-14 6.9-6.7 2.7-7.1 3-8.1 7.1-.6 2.3-4.6 13.2-8.8 24.2-4.2 11-8.5 20.8-9.4 21.8-1.1 1.2-2.8 1.7-4.7 1.5-2.1-.2-3.5-1.3-4.9-3.8-1.5-2.5-2.6-7.7-3.8-17.5-1-7.7-1.7-16.8-1.8-20.3 0-5.5-.2-6.1-1.7-5.5-1 .3-6.7 2-12.8 3.6-6.1 1.6-14.8 3.1-19.5 3.4-6.9.3-9.2.1-12-1.4-2.1-1.1-4.2-3.3-5.2-5.6-1.6-3.2-1.6-4.1-.5-7 .8-1.7 3.8-5.3 6.8-7.8s8.7-6.9 19.9-14.9l-1.4-3.3c-.8-1.7-3.3-9.5-5.6-17.2-2.3-7.7-5.9-17.6-7.9-22-2.1-4.4-4.5-8.7-5.5-9.5-.9-.8-1.7-2.4-1.7-3.5s.8-2.7 1.8-3.5c1-.7 2.9-1.3 4.3-1.3 1.4.1 3.6 1.1 5 2.2 1.4 1.2 7 4.4 12.5 7.2 5.5 2.9 13.5 6.7 25.5 11.9l13.3-8.8c7.2-4.9 14-9.9 15-11 .9-1.2 2.5-2.2 3.5-2.2.9 0 3.7-1.4 6.2-3s5.6-3 7-3zm-45.2 40c-1.3 0-7.7-2.5-14.3-5.5-6.6-3-12.1-5.4-12.3-5.2-.2.1 2 7.4 4.9 16.2 4.6 14.4 5.1 16.5 4.4 21.5-.4 3-1 6.1-1.4 6.9-.3.7-4.4 4.2-9.1 7.6-4.7 3.5-9.4 7.3-10.5 8.6l-2 2.2c8.5-1 15.3-2.4 20.5-3.8 5.2-1.3 10.9-2.5 12.5-2.5 1.7 0 3.6.5 4.3 1.2.9 1 1.4 1 2.4 0 .7-.6 2.3-1.2 3.8-1.2 1.4-.1 3.1.5 3.8 1.2.7.8 1.7 6.4 2.3 13.8.6 6.9 1.4 13.1 1.7 13.8.4.8 2.6-3.4 5.4-10 3.9-9.7 4.4-11.5 3.2-12.8-.7-.8-1.4-2.7-1.4-4.3 0-1.7.8-3.2 2.3-4.1 1.2-.8 4.7-2.1 7.7-3 3-.9 9.4-3.5 14.3-5.9 4.8-2.3 8.7-4.5 8.7-5 0-.4-2.1-2.2-4.7-4.1-3.6-2.5-5.3-3.2-6.8-2.6-1.1.4-3 .4-4.2-.1-1.3-.5-2.7-1.9-3.2-3.2-.5-1.2-1.6-9.4-2.5-18.2-.9-8.8-1.6-16.3-1.6-16.8 0-.4-.3-.7-.7-.7-.5 0-6.3 3.6-13 8-6.8 4.4-13.3 8-14.5 8zm-425.5-188c.4 0 1.8.4 3.2 1 1.4.5 3 2.1 3.5 3.5.8 2 .4 4-2.5 10.5-1.9 4.4-3.4 8-3.2 8 .1.1 2.2-2.9 4.7-6.5s5.1-6.8 5.8-7c.6-.3 2.4-.5 4-.5 1.5-.1 3.2.5 3.9 1.2.7.7 1.5 2.6 1.8 4.3.5 2.6-1.1 5.7-12.6 23.5-7.2 11.3-13.8 21.3-14.8 22.2-.9.9-2.7 2-4.1 2.3-1.7.4-3.4 0-5.2-1.4-2-1.5-2.8-3-2.8-5.1 0-1.7-.4-3-1-3-.5 0-2.1-1.1-3.5-2.5s-2.5-3.6-2.5-5 4.5-11.5 10-22.5c5.8-11.6 10.9-20.6 12.3-21.5 1.2-.8 2.5-1.5 3-1.5zM771 546c1.1 0 2.9.4 4 1 1.1.5 2.7 2.9 3.5 5.2.8 2.4 3.9 12.7 7 23 3 10.4 5.5 19.9 5.5 21.3 0 1.4-1.1 3.6-2.5 5-1.3 1.4-3 2.5-3.7 2.4-.7 0-2.2-.4-3.3-.8-1.2-.4-3.1-.2-4.7.6-2.3 1.1-3.3 1.1-5.5 0-1.6-.7-3.6-2.8-4.5-4.7-1-1.9-4.9-10.7-8.8-19.5-3.8-8.8-7-16.9-7-18 0-1.1.9-3 2-4.3 1.1-1.2 3.1-2.2 4.5-2.2s3.5 1 4.8 2.3c1.2 1.3 2.8 3.2 3.5 4.3 1.3 1.9 1.3 1.9.6-.1-.3-1.1-.9-4-1.2-6.5-.4-3.7-.1-4.9 1.6-6.8 1.2-1.2 3.1-2.2 4.2-2.2zm148.3 73.1c4.9-.1 8.8.4 10.7 1.4 1.9.9 3.2 2.5 3.6 4.2.3 1.6.1 3.8-.5 5-.6 1.3-2.2 2.7-3.6 3.3-1.4.5-6 1-10.2 1-4.3 0-10.3.6-13.3 1.3-3 .7-6.5 2.3-7.7 3.5-1.4 1.3-3.6 2.2-5.3 2.2-1.6 0-3.7-.7-4.5-1.5-.8-.8-1.7-2.4-2-3.5-.3-1.1.3-3.6 1.3-5.6 1-2.1 3.2-4.4 5.2-5.5 1.9-1 6.9-2.7 11-3.8 4.2-1.1 10.9-2 15.3-2zm159.2 2.3c3.9.2 13.3 2.1 21 4.2 7.7 2 14.8 4.2 15.7 4.8 1 .6 2.2 2.2 2.7 3.6.4 1.4.5 3.4.1 4.5s-1.4 2.6-2.1 3.3c-.8.7-3 1.3-4.9 1.4-1.9 0-9.3-1.6-16.5-3.7-12.2-3.5-13.6-3.7-22-3-4.9.3-10.1.6-11.5.6-1.4 0-3.3-.8-4.3-1.8s-1.8-2.9-1.7-4.3c0-1.4.6-3.4 1.3-4.4.8-1.1 4.3-2.7 8.3-3.7 4.8-1.3 9-1.8 13.9-1.5zM921 669.1c1.9-.1 6.2.6 9.5 1.4 3.3.9 8 2.8 10.5 4.3 2.5 1.4 6.3 4.2 8.4 6.2 2.2 1.9 5.7 6.2 7.8 9.5 2.1 3.3 5 9.4 6.3 13.5 1.3 4.1 2.9 11.3 3.5 16 .9 6.2.9 10.9.1 17.5-.6 4.9-1.8 11.7-2.6 15-.8 3.3-3.5 10.2-6 15.2-3.2 6.6-6.2 11-10.2 15.1-3.6 3.7-8.3 7-12.3 9-3.6 1.7-9.3 3.6-12.7 4.2-5 .8-7.8.7-13.5-.5-4-.9-10-3-13.2-4.8-3.3-1.8-8.6-5.9-11.9-9.2-4-4.1-7.2-8.6-9.8-14-2.1-4.4-4.6-10.7-5.4-14-.9-3.4-1.5-10.4-1.5-16.3 0-5.6.6-13.2 1.4-17 .8-3.7 2.9-10.5 4.6-15.2 1.7-4.7 4.7-11.4 6.7-15 2-3.6 6-8.8 8.7-11.5 2.8-2.8 6.8-5.9 8.8-6.9 2.9-1.3 4.4-1.5 6.5-.8 2 .7 4.3.6 7.8-.3 2.8-.8 6.6-1.4 8.5-1.4zm-16 21.2c-2.5 1.5-5.8 2.7-7.4 2.7-2.7 0-3.2.6-6.7 8.7-2.1 4.9-4.6 11.9-5.5 15.8-1.1 4.4-1.8 11.1-1.8 18-.1 8.9.4 12.3 2.2 18 1.3 3.8 4 9.5 6.1 12.5 2.1 3 6.2 7.2 9.2 9.2 3.6 2.5 7.4 4.2 11.4 4.9 4.6.9 7.2.9 11 0 2.8-.6 7.1-2.7 9.8-4.6 2.6-1.9 6.5-6.3 8.7-9.8 2.3-3.4 5-9.1 6.1-12.7 1.1-3.6 2.5-9.9 3-14 .6-4.2.8-11 .4-15.5-.4-4.4-1.4-10.3-2.2-13-.8-2.8-2.4-6.7-3.4-8.8-1-2-3.6-5.6-5.6-7.8-2.1-2.3-5.6-5-7.8-6.2-2.2-1.1-6.5-2.1-9.5-2.3-3-.2-7.3.2-9.5.9s-6 2.5-8.5 4zm165-20.3c3.9 0 7 .7 10.5 2.4 2.8 1.4 7.3 5 10.4 8.3 2.9 3.2 6.6 8.5 8.1 11.8 1.6 3.3 3.7 9.1 4.8 13 1.1 3.8 2.3 10.4 2.7 14.5.4 4.4.2 11-.5 16-.6 4.7-2.3 11.9-3.6 16-1.4 4.1-4.4 10.6-6.7 14.5-2.3 3.8-6.6 9.5-9.7 12.5-3.4 3.5-8.3 7-13 9.3-4.5 2.3-10.3 4.2-14.5 4.9-5.4.9-8.4.9-13-.1-3.3-.7-8.7-2.7-11.9-4.4-3.3-1.8-8-5.3-10.5-7.8-2.6-2.5-6-7.5-7.8-11-1.7-3.5-3.8-9.1-4.7-12.4-.9-3.3-1.6-10.1-1.6-15 0-5.9.7-11.8 2-17 1.2-4.4 4-12.1 6.3-17 2.4-5 6.2-11.7 8.4-15 2.3-3.3 6.1-7.9 8.5-10.2 2.3-2.2 6.6-5.5 9.3-7.2 3.4-2.1 6.3-3.1 9-3.1 2.2 0 5.8-.7 8-1.5s6.5-1.4 9.5-1.5zm-19.5 23.5c-3.3 2.1-7.3 4.4-9 5-2.3 1-4.1 3.3-7.7 10.1-2.5 4.9-5.5 12-6.6 15.9-1.2 3.8-2.3 9.5-2.7 12.5-.3 3-.1 8.6.5 12.5.6 3.8 2.1 9.2 3.3 12 1.3 2.7 4.3 6.9 6.7 9.3 2.8 2.7 6.4 4.9 9.5 5.9 3.2 1 7 1.4 10.5 1.1 3-.3 7.8-1.5 10.5-2.8 2.8-1.3 7.4-4.8 10.3-7.7 3.3-3.3 6.4-8 8.6-12.6 1.8-3.9 3.9-9.3 4.5-12 .6-2.6 1.4-8 1.7-12 .4-3.9.1-10.5-.5-14.5-.6-3.9-2.1-9.8-3.3-13-1.2-3.1-3.6-7.5-5.3-9.7-1.7-2.2-4.7-5-6.6-6.3-1.8-1.2-3.8-2.2-4.4-2.2-.5 0-3.9 1.1-7.5 2.3-3.6 1.3-9.2 4.1-12.5 6.2zm191.3 47.5c1.9 0 4 .8 5.2 2 1.1 1.1 2 3 2 4.2 0 1.3-.7 3.3-1.6 4.6-.9 1.2-9.7 6.3-19.5 11.2-10.6 5.4-19.1 9-20.9 9q-3 0-4.5-2.3c-.8-1.2-1.5-3.1-1.6-4.2 0-1.1.8-3 1.8-4.2 1-1.2 9.5-6.2 18.8-11.2 11.2-6 18.1-9.1 20.3-9.1zm-493.3 12.7c1.7.3 14.3 3.9 28 8 13.8 4.1 26.6 8.1 28.5 8.9 2.1.8 4.1 2.5 5 4.4 1.4 2.9 1.4 3.3-.6 5.8-1.2 1.5-3.2 2.8-4.5 3-1.3.2-15.4-3.3-31.4-7.8-15.9-4.4-30-8.7-31.2-9.5-1.3-.8-2.6-2.7-2.9-4.3-.4-1.5-.1-3.7.7-5 .7-1.2 2.2-2.7 3.3-3.2 1.2-.5 3.5-.6 5.1-.3zm240 3.4c2.4-.1 5.3.7 7.3 1.9 2.1 1.3 3.6 3.3 4.3 5.7.7 2.1.9 6 .6 8.8-.3 2.7-1.4 6.6-2.6 8.5-1.3 2.3-2.3 6.1-3.3 18.5h8.2c7.8 0 8.3.1 10.4 2.8 1.7 2.2 1.9 3.2 1.1 5.5-.6 1.5-2.5 3.4-4.5 4.4-2 .9-9.9 2.4-18.5 3.3-8.2.9-17 1.4-19.5 1.1-2.5-.3-6.5-1.3-9-2.1s-5.5-2.5-6.8-3.7c-1.6-1.7-2.2-3.2-2-5.8.2-2.5 1-3.8 3-5 2.5-1.4 3.2-1.3 7.5.2 2.7 1 7.1 1.8 14.8 1.8l2.3-22.5-2.8-4.5c-1.6-2.5-3.6-5.2-4.5-6-.9-.8-1.6-2.5-1.5-3.8 0-1.2 1-3.3 2.3-4.7 1.2-1.3 3.8-2.8 5.7-3.4 1.9-.5 5.3-1 7.5-1zm272.6 5c1.9.6 3.2 1.8 3.8 3.6.4 1.6.4 3.8 0 5-.5 1.3-2.4 3.2-4.1 4.3-1.8 1.1-12.9 5.6-24.5 10-12 4.5-22.2 7.8-23.3 7.5-1.1-.3-2.7-1.2-3.5-2-.8-.8-1.5-2.9-1.5-4.5 0-1.7.8-3.8 1.8-4.8.9-.9 10.5-5.3 21.2-9.6 10.7-4.4 21.2-8.5 23.3-9.1 2.5-.8 4.9-.9 6.8-.4zm219.8 10.9c.9 0 2.5.6 3.6 1.5 1.1.8 3.4 1.4 5 1.4 1.8 0 3.9 1 5.2 2.3 1.3 1.3 3 4.5 3.8 7.3.8 2.7 1.5 6.6 1.5 8.5 0 1.9-1 5.5-2.2 8-1.3 2.5-3.9 5.5-5.8 6.8-1.9 1.2-6 2.7-9 3.4-4.8 1-6.1.9-10-.8-2.7-1.2-5.4-3.3-6.8-5.4-1.2-1.9-2.5-5.3-2.8-7.5-.5-2.9 0-5.3 1.6-9 1.2-2.8 3.3-6.3 4.6-7.9 1.3-1.6 4-4.2 6.1-5.8 2-1.5 4.3-2.8 5.2-2.8zm-3 22.9c.1 1.3.8 2.1 1.9 2.1.9 0 2.5-.5 3.5-1.2 1.4-1 1.7-2.2 1.4-5.1-.3-2-1-3.7-1.6-3.7-.5 0-2 1.3-3.2 2.9-1.2 1.6-2.1 3.9-2 5zM740.2 776c1.8 0 13.7 1.8 26.3 4 12.7 2.2 23.6 4.6 24.4 5.3.7.7 1.8 2.2 2.2 3.4.6 1.5.5 3.2-.3 4.8-.7 1.4-2.4 2.9-3.8 3.4-1.7.6-9.9-.3-24.5-2.5-12.1-1.8-23.7-3.8-25.7-4.3-2.1-.6-4.5-2.1-5.3-3.4-.8-1.2-1.5-3-1.5-4 .1-1 1.2-2.9 2.5-4.2 1.6-1.7 3.5-2.5 5.7-2.5zm379.1 6c1.9 0 5.7 1.4 9.2 3.5 3.3 1.9 7.7 5.4 9.8 7.8 2.1 2.3 4 5.5 4.4 7.2.3 1.6.2 4.3-.2 6-.4 1.6-2.3 4.6-4.3 6.6-2.1 2-5.5 4.2-7.7 4.8-2.2.6-4.9 1.1-6 1.1-1.1 0-3.9-.9-6.2-2-2.6-1.2-5.5-3.7-7.3-6.3-1.7-2.3-3.3-6-3.6-8.2-.4-2.2-.1-5.6.4-7.5.6-1.9 2.7-5.6 4.7-8.3 3-3.9 4.1-4.7 6.8-4.7zm5.6 21.7c1.1.2 2.1.1 2.1-.2 0-.3-1-1.4-2.2-2.5-1.3-1-2.6-1.9-3-2-.4 0-.3 1 .1 2.2.5 1.3 1.8 2.4 3 2.5zM856 785.6c1.4.3 3.3 1.3 4.3 2.2 1 .9 3.2 4.4 4.8 7.7 1.7 3.5 2.9 7.6 2.9 9.7 0 2.1-.7 5.1-1.5 6.8-.8 1.7-3.3 3.9-5.5 5s-5.6 2-7.5 2c-1.9 0-5-.6-6.7-1.4-1.8-.7-4.3-2.4-5.5-3.7-1.2-1.3-2.9-4.2-3.8-6.4-1-2.3-1.4-5.3-1.1-7 .3-1.7 1.4-4.2 2.6-5.8 1.1-1.5 3.9-3.7 6.1-5 2.3-1.2 5.1-2.8 6.3-3.5 1.1-.7 3.2-1 4.6-.6zm659.7 20.4c1 0 2.7.6 3.8 1.3 1.1.8 2.8 3.7 3.8 6.5.9 2.9 1.7 6.1 1.7 7.2 0 1.1-1.2 2.9-2.7 4-1.6 1.2-3.5 2-4.3 2-.8 0-2.5-.6-3.7-1.3-1.3-.7-3.2-2.6-4.3-4.2-1.1-1.7-2-4.5-1.9-6.3 0-2.3 1-4.3 2.9-6.3 1.6-1.6 3.7-2.9 4.7-2.9zM488.5 824.5c1.1.2 6.7 2.9 12.5 5.9 8.7 4.5 10.7 6 11.9 8.8 1 2.3 1.1 4 .5 5.7-.5 1.3-2 3.2-3.4 4.3-1.4 1-4.3 2.1-6.5 2.5-2.3.3-5.7 0-8-.8-2.2-.7-5.9-3.1-8.3-5.3-2.9-2.8-4.9-5.8-6-9.3-1.5-4.6-1.5-5.5-.3-7.8.8-1.4 2.4-3 3.5-3.5 1.2-.5 3-.7 4.1-.5zm990.5 5.9c2.5.2 7 1.4 10 2.5s7.5 3.7 10 5.9c2.8 2.4 6.1 6.8 8.7 11.8 2.3 4.3 5.2 11.5 6.3 15.9 1.5 5.5 2.1 11.1 2.2 18 0 6.8-.6 12.4-2 17.5-1.1 4.1-3.5 10.6-5.3 14.4-1.9 3.8-5.2 8.9-7.4 11.4s-5.8 5.4-8 6.3c-2.2 1-5.1 1.9-6.5 1.9-1.4 0-5-1.2-7.9-2.7q-5.5-2.8-9.2-7.8c-2.1-2.8-4.9-7.5-6.3-10.5-1.4-3-3.3-8.9-4.2-13-1.3-5.9-1.6-10.4-1.1-21.5.3-7.7 1.3-18.5 2.2-24 .8-5.5 1.9-11.4 2.5-13 .5-1.7 2.3-4.8 4-7 1.8-2.2 4.1-4.6 5.3-5.3 1.3-.7 4.1-1.1 6.7-.8zm-4.5 33.1c-.8 7.7-1.5 17.1-1.5 21 0 3.8.5 9.7 1.1 13 .6 3.3 2.1 8.2 3.4 11 1.3 2.7 3.7 6.5 5.4 8.2 1.7 1.8 3.7 3.2 4.4 3 .6-.2 2.6-2.1 4.2-4.3 1.7-2.1 4.1-6.5 5.3-9.7 1.2-3.1 2.7-9.2 3.3-13.5.9-5.7.9-9.6 0-15-.6-3.9-2-9.8-3.1-13-1.1-3.1-3.2-7.5-4.8-9.6-1.5-2.2-4-4.8-5.7-5.7-1.6-.9-4.4-2-6.1-2.4-2.5-.5-3.3-.2-3.8 1.2-.3 1-1.3 8.1-2.1 15.8zm66.4-29.5c.9 0 2.6.7 3.9 1.5 1.2.8 2.5 2.7 2.8 4.2.3 1.6.1 4.6-.5 6.8-.5 2.2-2 4.9-3.2 6-1.5 1.4-3.5 2-7 2-4.2 0-5.3-.5-8.1-3.3q-3.3-3.2-3.3-6.1c0-1.6.8-3.8 1.9-5 1-1.2 2.9-2.1 4.2-2.1 1.3 0 3.6-.9 5.1-2 1.4-1.1 3.3-2 4.2-2zM512 862.4c2.5.2 6.3 1.2 8.5 2.2 2.1 1.1 5.2 3.2 6.9 4.9 1.6 1.6 3.9 5 5 7.5 1.7 3.7 2.1 6.5 2.1 15 0 8.9-.4 11.6-2.8 18-1.5 4.1-4.6 10.9-7 15-2.6 4.6-7.5 10.8-12.7 16.2-5.8 5.9-10.2 9.4-14 11.2-3 1.4-7.3 2.8-9.5 3.2-2.5.4-6.2 0-9.7-1-3.5-.9-7.3-2.9-9.4-4.9-2-1.7-4.7-5-5.9-7.2-1.3-2.2-2.8-6.5-3.5-9.5-.8-3.3-1-8.2-.7-12.5.4-3.9 1.6-10.2 2.8-14 1.2-3.9 3.4-9.5 4.9-12.5 1.5-3 4.3-7.1 6.2-9 1.9-1.9 6.3-6 9.9-9.1 3.5-3.1 8.2-6.7 10.4-8.1 2.2-1.4 6.3-3.3 9-4.2 2.8-.8 7-1.4 9.5-1.2zm-14 21.3c-1.9 1.7-4.8 3.7-6.5 4.5-1.6.9-4.8 3.5-7.1 5.9-2.2 2.4-5 7-6.2 10.1-1.2 3.2-2.7 8.8-3.3 12.5-.8 4.9-.8 8.4 0 12.5.8 4.5 1.8 6.4 4.1 8.3 1.7 1.4 4.3 2.5 6 2.5 1.7 0 4.7-.8 6.8-1.9 2-1 6.7-5.1 10.5-9 4.7-5 8-9.8 11.3-16.4 4-8 4.7-10.3 5.1-17.2.3-4.4.3-9.2-.1-10.8-.3-1.5-1.6-3.6-2.8-4.7-1.3-1.1-3.6-2-5.3-2-1.6.1-4.3.7-6 1.4-1.6.7-4.6 2.6-6.5 4.3zM452.4 863c1.7-.1 3.9.7 4.8 1.7 1 1 2.2 4.4 2.8 7.5.8 4.7.7 6.4-.5 8.8-.8 1.6-2.8 3.7-4.5 4.5-1.7.8-4.3 1.3-6 1-1.7-.3-4.1-1.8-5.5-3.5-1.4-1.7-2.5-4.1-2.5-5.5 0-1.4.8-3.3 1.8-4.3 1-.9 2.2-2.8 2.6-4.2.5-1.4 1.5-3.3 2.4-4.3.8-.9 2.9-1.7 4.6-1.7zm1095.3 18c1 0 2.8.7 4.1 1.5 1.2.8 2.7 3.1 3.2 5 .7 2.6.6 4.4-.3 6.7-.8 1.9-2.6 3.9-4.3 4.6-2.4 1.2-3.4 1.2-5.9 0-1.6-.7-3.6-2.4-4.4-3.8-.8-1.4-1.1-3.6-.8-5 .3-1.4 1.9-4 3.5-5.8 1.7-1.7 3.8-3.2 4.9-3.2zM426.9 894.8c.9.3 2.4 1.2 3.4 2.1 1.5 1.3 1.8 2.6 1.4 7.1-.3 3-.8 6.2-1.1 7-.3.8-1.8 2.1-3.3 2.8-2.4 1.2-3.3 1.1-6-.2-1.8-.9-4-2.6-4.8-3.9-.8-1.2-1.5-2.9-1.5-3.7 0-.8 1.3-3.4 3-5.8s4-4.7 5.1-5.1c1.2-.5 2.9-.6 3.8-.3zm3.1 34.3c8.2-.1 10.4.2 12.1 1.6 1.3 1.1 2.2 3.1 2.3 5 0 1.8-.6 3.9-1.4 4.8-.8.8-4.4 2-8 2.6-3.6.5-7.8.8-9.5.5-1.6-.3-4.2-1.4-5.7-2.6-1.9-1.4-2.9-3-3-5.2-.1-1.8.5-3.8 1.5-4.8 1.4-1.4 3.8-1.8 11.7-1.9zm544.4 73.9c1.1 0 3 .6 4.1 1.4 1.7 1.2 2.1 3 2.6 10.8.3 5.1 1.3 11.5 2.3 14.3.9 2.7 2.5 6.1 5.4 10l2.2-2c1.1-1.1 2.9-4.3 3.9-7 1.1-2.8 2.2-7.3 2.6-10 .4-2.8 1.1-6.8 1.7-9 .5-2.2 1.7-4.8 2.6-5.8 1-1 3.1-1.8 5-1.7 2 0 4 .9 5.4 2.2 1.8 1.9 2.3 2 2.7.8.3-.8 1.2-2.1 1.9-2.8.7-.6 2.9-1.2 4.8-1.2 2.7 0 3.8.6 5.2 2.8 1.7 2.8 1.8 2.8 5.5 1.5 3.2-1.1 4.2-1.1 8 .5 2.3 1 5.4 3.4 6.9 5.3 1.4 1.8 3.1 5.2 3.7 7.4.7 2.6.7 5.2.1 7.5-.5 1.9-1.8 4.7-2.9 6.2-1.2 1.6-2 2.9-1.8 3.1.1.2 2.9 1.4 6.2 2.7 3.3 1.3 8.1 3.4 10.8 4.7 2.6 1.2 5.2 3.2 5.7 4.3.6 1.1 1 3.1 1 4.5 0 1.6-1 3.3-2.7 4.5-1.6 1.2-3.6 2.1-4.5 2-1 0-7.8-2.5-15-5.6-7.3-3-14.8-6.4-19.8-9.4v3.2c0 1.8-.4 4.8-1 6.5-.5 1.8-1.9 3.7-3 4.3-1.1.5-3.1 1-4.5 1s-3.4-1-4.6-2.3c-2-2.1-2.1-2.9-1.4-17.2.3-8.3.8-15.8 1.1-16.8.2-.9 0-1.7-.6-1.7-.5 0-1.3 1.7-1.6 3.7-.3 2.1-1.4 6-2.5 8.8-1 2.7-3.3 7.2-5.1 9.9-1.8 2.7-4.6 5.7-6.3 6.7-1.6 1-4.3 2.3-6 2.8-1.9.6-4.4.6-6.7 0-2.1-.5-5-2-6.5-3.3-1.6-1.3-4.2-5-6-8.2-1.7-3.2-3.9-8.8-4.8-12.4-1.2-4.4-1.6-9.1-1.3-14.8.4-7.3.7-8.6 2.7-10.3 1.3-1 3.3-1.9 4.5-1.9zm54.6 24v5c5.5-4.3 7.3-6.3 7.6-7.3.2-.9.2-2.2-.1-2.7-.3-.6-.8-.9-1.2-.9-.5.1-2 .4-3.5.5-2.6.4-2.8.7-2.8 5.4zM913.2 689c1.2 0 3.1.5 4.1 1.2.9.7 2.1 2.6 2.5 4.3.7 2.3 1.5 3.1 3.8 3.3 1.6.2 3.7 1.1 4.7 2 1 1 1.8 2.3 1.7 2.9 0 .7-.6 2.5-1.3 4-.8 1.6-2 4.1-2.8 5.8-.8 1.7-2.6 3.3-4.4 3.8-2.4.8-4.1.4-8.7-1.7-3.2-1.4-6.5-3.6-7.3-4.9-1-1.4-1.5-4.3-1.4-8.1.1-5.1.5-6.2 3.4-9.2 1.9-1.9 4.3-3.4 5.7-3.4zm143.9 6 8.7.2c5.6.1 9.1.7 10 1.5.6.7 1.2 3.3 1.2 5.8s-.7 5.8-1.5 7.5c-.8 1.7-3.3 3.9-5.5 5s-5 2-6.2 2c-1.3 0-3.1-.5-4-1.2-.9-.7-3.1-3.1-4.8-5.3-1.7-2.2-3.1-5.1-3.1-6.4 0-1.3 1.1-3.9 2.6-5.7z" style="fill:#000"/>
</svg>
