<svg version="1.2" xmlns="http://www.w3.org/2000/svg" width="2048" height="2048">
    <path fill-rule="evenodd" d="M828 485.1c1.4 0 5.9.8 10 2 4.1 1.1 11.1 3.9 15.5 6.2 6 3.1 10.2 6.4 17 13.2 5.9 5.8 13.3 15 21 26 7.7 10.9 15.2 20.2 21 26 5.2 5.3 13.2 11.9 19 15.7 5.5 3.7 12.5 7.6 15.5 8.8 3 1.2 9.1 3 13.5 4 4.4 1.1 16.5 3.1 27 4.5 10.5 1.3 35.4 3.8 55.5 5.5 20.1 1.6 50.9 4.1 68.5 5.5 17.6 1.4 37.4 2.5 44 2.5 6.6 0 14.5-.6 17.5-1.3 3-.7 8.2-2.9 11.5-4.8 3.3-2 10-6.2 15-9.3 5-3.2 15.1-8.7 22.5-12.3 7.4-3.6 17.3-7.8 22-9.3 4.7-1.6 12.3-3.4 17-4.1 6.9-1 9.9-1 16 .1 4.1.7 10.2 1.6 13.5 1.9 3.8.4 7.4 1.5 9.9 3.1 2.2 1.4 6.1 5.4 8.8 9 2.6 3.6 6.6 9.9 8.7 14 2.1 4.1 6.1 13.8 8.9 21.5 2.7 7.7 6.6 20.3 8.5 28 2 7.7 4.7 19.6 6.1 26.5 1.4 6.9 3.6 20.1 5 29.5 1.4 9.4 3.4 25.1 4.5 35 1.1 9.9 3.2 32 4.6 49 1.3 17 3.4 43.4 4.5 58.5 1 15.1 2.4 39.9 3.1 55 .6 15.1 1.4 27.8 1.8 28.3.3.4 4.9 1.2 10.1 1.7 6.5.7 17.8.7 36 0 14.6-.6 31-1.5 36.5-2.1 5.5-.6 13.4-1.7 17.5-2.5 4.1-.9 10.2-2.5 13.5-3.6 3.3-1.1 8.1-3.4 10.7-5.1 2.5-1.8 11.1-8.8 18.9-15.7 7.9-6.9 17.1-14.3 20.4-16.6 3.9-2.6 8.1-4.5 12-5.3 4.6-1 7.3-1 11.5-.2 3 .6 7.5 2.1 9.9 3.4 2.5 1.2 6.2 4.2 8.4 6.7 2.1 2.5 4.9 6.7 6.1 9.5 1.3 2.7 3.1 8.4 4 12.5 1 4.1 1.9 8.4 2.1 9.5.2 1.1 1.9 2.9 3.7 4 1.8 1 5.3 3.7 7.7 6 2.3 2.2 5.8 6.5 7.6 9.5 1.8 3 4.7 8.9 6.3 13 1.6 4.1 3.7 11.1 4.7 15.5s3.3 12 5.2 17c1.9 5 4.4 12.6 5.5 17 1.1 4.4 2.4 11.8 2.9 16.5.6 5.6.6 11.8-.1 18-.5 5.2-1.9 12.4-3.1 16-1.1 3.6-3.8 9.9-6 14-2.1 4.1-6.5 10.4-9.6 14-3.2 3.6-9 9.4-12.8 12.8-3.8 3.5-11.3 9-16.5 12.4-5.2 3.4-16.7 9.9-25.5 14.4-8.8 4.6-21.4 10.4-28 12.9-6.6 2.6-17 6.5-23 8.7-6 2.1-21.3 7.1-34 10.9-12.7 3.8-33.6 9.2-46.5 12-16.5 3.6-24.7 4.9-27.5 4.5-2.2-.3-7.4.1-11.5 1-4.1.8-7.8 1.8-8.2 2.2-.4.4-1.8 5.4-3.3 11.2-1.4 5.8-9.4 36.4-17.6 68-8.3 31.6-14.9 57.6-14.7 57.8.2.1 5 1 10.8 1.8 8.4 1.3 12.2 1.4 19 .6 4.7-.5 13.5-2.6 19.5-4.6 6.3-2.1 14.6-5.8 19.5-8.7 4.7-2.8 12.8-8.5 17.9-12.7 5.2-4.2 13.6-11.2 18.5-15.6 5-4.3 12.3-10.1 16.1-12.8 3.8-2.8 10.2-6.6 14-8.4 3.8-1.9 10.6-4.1 15-4.9 4.4-.9 10.3-2.3 13-3.2 4.7-1.5 5.2-1.5 9.5.4 2.5 1.1 7.2 4 10.5 6.5s9.2 7.9 13 12c3.8 4.1 9.1 10.6 11.7 14.4 2.7 3.8 6.4 10.7 8.3 15.4 1.9 4.7 4.1 11.7 5 15.5.8 3.8 1.5 11.6 1.5 17.2 0 5.7-.7 13.8-1.5 18-.8 4.3-2.7 11.4-4.1 15.8-1.4 4.4-4.6 12-7.1 17s-6.8 12.4-9.5 16.5c-2.8 4.1-8.4 11.8-12.6 17-4.1 5.2-14.8 16.7-23.6 25.6-9.7 9.7-20.6 19.4-27.6 24.6-6.3 4.7-16 11.2-21.5 14.5-5.5 3.3-15 8.5-21 11.5-6 3.1-15.5 7.2-21 9.3-5.5 2-14.7 4.8-20.5 6-5.8 1.3-15.7 2.9-22 3.5-6.6.7-15.2.9-20 .5-4.7-.4-11.9-1.3-16-2.1s-13.6-3.5-21-6-16.3-5.9-25.8-10.9l-5 13.5c-2.8 7.4-8.7 23.2-13.1 35-4.3 11.8-11.1 29.2-14.9 38.5-3.8 9.3-11.6 27.3-17.2 40s-14.7 31.8-20.1 42.5c-5.4 10.7-12.8 24.2-16.5 30-3.6 5.8-9.1 13.6-12.2 17.4-3.2 3.8-8.4 9.3-11.7 12.2-3.3 2.9-8.7 6.9-12 8.8-3.3 2-9.6 4.9-14 6.4-7.8 2.6-8.7 2.6-31.5 2.7-22.2 0-24.1-.2-34-2.7-5.8-1.4-15.5-4.3-21.5-6.4-6-2-13.5-4.9-16.5-6.4s-7-4-8.9-5.6c-1.9-1.6-4.3-4.9-5.4-7.4-1.1-2.5-5.1-8.8-9-14-4.6-6.2-9.8-15.3-15.2-26.5-4.6-9.3-10.5-23.1-13.3-30.5-2.8-7.4-7.5-21.8-10.5-32-5-17.3-5.6-18.8-9.3-22.2-2.1-2.1-5.7-4.7-7.9-5.8-2.2-1.1-7.4-2.7-11.5-3.6-4.8-1.1-12.3-1.7-21-1.7-9.8 0-15.3.4-20 1.7-3.6 1-9.2 3.2-12.5 4.9-3.4 1.8-9.3 6.5-13.6 10.7-4.2 4.1-9.9 10.9-12.8 15-2.9 4.1-7.6 12-10.3 17.5-2.8 5.5-7.7 15.8-11 23-3.3 7.2-7.9 15.7-10.2 19-2.4 3.3-6.3 7.7-8.7 9.8-2.4 2.1-7.3 5.6-10.9 7.8-3.6 2.1-10.1 5.2-14.5 6.8-4.4 1.6-11.6 3.6-16 4.4-4.4.9-12 1.9-17 2.2-5 .4-14.4.2-21-.4-10.2-1-13-1.6-18.5-4.3-3.9-2-9.4-6-13.9-10.3-4-3.8-11-12-15.6-18-4.5-6-10.7-14.8-13.8-19.5-3-4.7-8.7-15-12.6-23-3.9-8-8.4-18.1-10-22.5-1.6-4.4-4.8-14.8-7-23-2.3-8.3-6.1-24.7-8.6-36.5-2.4-11.8-6.2-31.6-8.5-44-2.3-12.4-5.5-29.9-7.1-39-1.6-9.1-4.2-26.2-5.9-38-1.6-11.8-4.1-32.5-5.4-46-1.4-13.5-3.5-34.8-4.6-47.5-1.1-12.7-2.9-35.6-4-51-1.2-15.4-4.1-51.4-6.5-80-2.4-28.6-5.1-60.5-6-71-.8-10.5-1.9-23.7-3-39.8l-11.5-6.9c-6.3-3.8-17.1-10.7-24-15.2-6.9-4.5-19.7-13.6-28.5-20.1-8.8-6.6-21.2-16.4-27.5-21.9-6.3-5.4-17.8-15-25.5-21.1-7.7-6.2-19.9-16.6-27-23.2-7.1-6.6-15.9-15.2-19.5-19.3-4-4.5-8-8-10.5-9-2.3-1-7.1-5-11.5-9.6-4.1-4.4-10.9-12-15.1-16.9-4.2-5-10-12.4-13-16.5s-7.5-11.5-10.1-16.5c-2.5-5-5.8-12.8-7.3-17.5-1.4-4.7-2.9-12.1-3.2-16.5-.4-4.9-.1-10.5.7-14.5.7-3.6 3.3-13 5.7-21 4.1-13.2 4.6-15.8 5.3-29 .6-10.6 1.4-16.1 3-20.5 1.1-3.3 3.3-8 4.7-10.5 1.4-2.5 6-8 10.2-12.3 4.2-4.4 10.5-10.2 14-13 4.7-3.9 7.1-6.8 9.6-11.7 1.8-3.6 5.2-9 7.6-12 2.3-3 6.8-8.3 9.8-11.8 3.9-4.3 6.9-6.7 9.9-7.7 3.1-1.1 5.5-1.3 9.5-.6 2.8.5 6.9 2 9 3.2 2.2 1.3 5.7 4 7.9 5.9 2.2 1.9 5.5 5.5 7.1 8 1.7 2.5 5.2 9.2 7.8 15 2.6 5.8 8 17.5 12.2 26 6.1 12.6 8.7 16.8 13.8 22.4 3.5 3.8 9.5 9 13.4 11.6 3.9 2.5 12 6.6 18 9.1 6 2.6 15 6 20 7.7 5 1.7 13.7 4.4 19.5 6.1 5.8 1.6 17 4.3 25 6 8 1.6 19.6 3.7 25.8 4.5 6.1.9 11.7 1.6 12.2 1.6s1.7-3.3 2.5-7.3c.7-3.9 2.8-14.6 4.5-23.7 1.7-9.1 4.9-23.5 7-32 2.1-8.5 5.7-21.4 8-28.5 2.4-7.2 5.9-17.3 8-22.5 2.1-5.2 7.6-19 12.3-30.5 4.6-11.5 13-30.9 18.5-43 5.5-12.1 12.5-26.4 15.6-31.8 3.1-5.3 9.3-15.4 13.9-22.5 4.6-7 10.5-15.4 13.2-18.7 2.7-3.3 10.2-11.9 16.6-19 6.5-7.2 15.1-15.9 19.1-19.5 4-3.6 9.3-7.9 11.8-9.6 2.5-1.6 7.5-3.9 11.2-5 3.7-1.2 7.7-2.3 9-2.6 1.3-.3 3.4-.6 4.8-.7zm-19.5 34.8c-3.9 3.5-11.4 11.1-16.9 16.9-5.4 5.9-12.6 14.1-15.9 18.2-3.3 4.1-9.3 12.5-13.2 18.5-4 6-9.2 14.4-11.7 18.5-2.4 4.1-9.3 18.1-15.2 31-6 12.9-14.7 33-19.4 44.5-4.7 11.5-10.3 25.5-12.4 31-2.1 5.5-6.1 17.2-8.7 26-2.7 8.8-6.3 22.1-8 29.5-1.6 7.4-4.6 22.2-6.6 32.7-1.9 10.6-3.5 19.9-3.5 20.5 0 .7 3.9 6.7 8.6 13.3 4.7 6.6 13 17.8 18.4 25 5.4 7.1 14.4 18.4 20.1 25 5.6 6.6 19.1 20.8 29.8 31.5 10.8 10.7 28.1 26.9 38.5 36 10.3 9.1 23.1 19.8 28.5 23.8 5.3 4 13 9.2 17.1 11.5 4.1 2.3 8.5 4.5 9.7 4.9 1.7.6 2.2 1.4 1.8 2.8-.3 1.1-.2 2 .2 2 .5.1 1.5-.7 2.3-1.6.8-1 4.2-3 7.5-4.5 3.3-1.6 8-3.2 10.5-3.5 3-.4 6.6 0 11 1.2 3.6 1 8.2 3.1 10.2 4.6 2.1 1.6 4.7 4.3 5.8 6 1.1 1.8 2 4.6 2 6.3 0 1.6-.7 3.8-1.7 4.7-1 1-3 1.8-4.6 1.8-1.7 0-3.6-1-5.2-2.8-1.4-1.5-2.5-2.9-2.5-3.2 0-.3-1.5-1.3-3.5-2.3-1.9-.9-5.6-1.7-8.3-1.7-3.1 0-6.1.8-8.7 2.4-2.2 1.3-5 3.8-6.2 5.7-1.2 1.9-2.5 5.4-2.9 7.9-.4 3.1-.1 5.6 1 8.2 1 2.4 2.4 4 3.8 4.2 1.3.3 6.1.7 10.8 1 6.3.4 9.2 1 11 2.4 2.1 1.6 2.5 2.8 2.5 6.8-.1 2.7-.6 8.3-1.3 12.4-.8 5-1.8 8.1-3.1 9.4-1.1 1.1-3.4 2-5 2-1.9.1-3.9-.7-5.3-2.2-2-2-2.3-3.1-2.1-8.7l.3-6.5c-5 0-8.9-.7-11.8-1.5-3.5-1-6.5-2.8-9.2-5.5-2.7-2.7-4.5-5.7-5.5-9.3-.8-2.8-1.5-6.9-1.5-9 0-3.5-.3-3.8-5.1-6-2.8-1.2-5.7-2.8-6.3-3.6-.6-.8-5.6-4.3-11.1-7.9-5.5-3.6-15-10.2-21-14.7s-16.6-13.2-23.5-19.2c-6.9-6.1-16.8-15.5-22-20.9-5.2-5.5-15.6-16.9-23-25.4-7.5-8.5-17.6-20.5-22.6-26.5s-13.9-17.1-20-24.5c-6-7.4-14.4-18.2-18.7-24l-7.7-10.5c-22.9-1.9-37.6-3.8-47.5-5.5-9.9-1.6-23.2-4.4-29.5-6.1-6.3-1.7-17.8-5.3-25.5-8.1-7.7-2.7-19-7.3-25-10.3-6-2.9-13.9-7.5-17.5-10.3-3.6-2.7-9.4-8-12.9-11.8-3.6-3.8-8-9.4-10-12.4-1.9-3-7.5-14-12.4-24.5-7.2-15.3-9.9-20.1-14.1-24.5-2.8-3-5.5-5.6-6.1-5.8-.6-.2-4.6 4.3-9 9.9-4.8 6.2-12.3 14.1-18.9 19.9-5.9 5.2-12.3 11.5-14.1 14-1.9 2.5-4 6.1-4.8 8-.8 1.9-2.5 10-3.7 18-1.2 8-4 20.6-6.1 28-3.1 10.4-4.2 15.9-4.6 24-.5 8.6-.3 11.5 1.2 16l1.9 5.5c1.7-9.7 2.9-13.1 4.1-14.4 1.1-1.1 2.9-2.2 4-2.4 1.1-.3 3.5.2 5.2.9 2.5 1 3.6 2.4 4.4 5.1.7 2.3.8 5.6.4 8.3-.5 2.9-1.7 5.5-3.5 7.2-1.6 1.6-3.8 2.8-4.9 2.8-1.2 0-3-.5-4.1-1-1.1-.5-2.2-.8-2.5-.5-.3.3 1 3.5 2.9 7.2 1.8 3.8 6.1 10.8 9.4 15.8 3.3 5 12.9 16.6 21.4 26 8.5 9.3 17.9 18.9 20.9 21.1 3 2.3 7.7 6.6 10.6 9.5 2.8 3 8.2 8.6 12 12.4 3.7 3.9 13.5 12.4 21.8 19 8.2 6.6 19.3 15.8 24.5 20.4 5.2 4.6 17.4 14.2 27 21.4 9.6 7.2 22.7 16.5 29 20.6 6.3 4.2 17.1 11 24 15.1 12.3 7.4 12.5 7.6 15.7 14 1.8 3.7 3.4 8.8 3.7 12 .4 3 1.5 13.8 2.6 24s2.7 23.7 3.5 30c.8 6.3 3.3 32.9 5.5 59s4.6 57 5.5 68.5c.9 11.5 2.7 34.5 4.1 51 1.4 16.5 3.6 40.8 5 54 1.3 13.2 2.9 27.8 3.5 32.5.5 4.7 2.1 15.9 3.5 25 1.3 9.1 5.2 31.6 8.5 50s7.6 41.2 9.5 50.5c1.9 9.3 5.2 24.2 7.4 33s5.3 20.3 7 25.5c1.7 5.2 6.3 16 10.1 24 3.9 8 9.4 18.1 12.4 22.5 2.9 4.4 10 12.6 15.7 18.3 5.6 5.7 12.8 11.9 15.8 13.8 3 2 7.7 4.7 10.5 6.1 4.8 2.5 5.5 2.5 18.5 2 7.9-.3 16-1.2 19.5-2.2 3.3-.9 9.4-3.3 13.5-5.3 4.6-2.1 9.3-5.4 12-8.2 2.7-2.7 6.4-8.4 9.1-14 2.6-5.2 8.4-17.2 13-26.5 5.6-11.5 10.6-20.1 15.5-26.5 3.9-5.2 10.2-12.4 14-16 3.8-3.6 9.6-8.3 12.9-10.4 3.3-2.2 8.2-5 11-6.2 2.7-1.3 7.7-3 11-3.9 3.3-.9 11.4-1.9 18-2.2 6.9-.3 15.8 0 21 .6 5 .7 11.7 1.9 15 2.7 3.3.8 8.5 2.5 11.5 3.7 3 1.2 9.3 5 14 8.5 4.7 3.5 9.3 7.8 10.3 9.5.9 1.8 4.7 12.4 8.3 23.7 4.1 12.7 10 28.1 15.6 40.5 4.9 11 10.9 23.6 13.1 28 2.3 4.4 6.2 10.7 8.6 14 2.4 3.3 7.4 9.5 11 13.8l6.6 7.8c18.6 6.1 26.9 8.6 30.5 9.4 3.7.9 13.3 1.9 22.5 2.2 10.3.4 18.5.2 23-.6 3.8-.6 9.9-2.6 13.5-4.4 4.2-2 9-5.6 13.5-10.2 3.9-3.8 10.2-11.7 14-17.5 3.8-5.8 10.4-17.3 14.7-25.5 4.2-8.3 10.7-21.5 14.3-29.5 3.7-8 10.6-23.3 15.2-34 4.7-10.7 10.7-24.9 13.3-31.5 2.7-6.6 8.4-21.7 12.8-33.5s10.5-28.3 13.5-36.5c3-8.3 7.8-21.5 10.5-29.5s7.3-21.5 10.1-30 7.3-23.4 10.1-33c2.8-9.6 8.4-30.1 12.5-45.5 4.1-15.4 10.3-39.3 13.8-53 3.6-13.8 9.9-38 14.1-54 4.1-16 10.5-39.3 14.1-52 3.6-12.7 7.6-24.8 8.9-27 1.2-2.2 4.1-5.1 6.2-6.4 2.6-1.7 7.3-3 14.4-4.2 5.8-.9 14.2-2.7 18.7-3.8 4.6-1.2 9.9-2.1 11.8-2.1 1.9 0 10.6-1.6 19.2-3.5 8.7-1.9 25.7-6.5 37.8-10.1 12.1-3.6 30.3-9.7 40.5-13.5 10.2-3.8 26.2-10.7 35.5-15.3 9.3-4.7 21.7-11.6 27.5-15.4 6.8-4.5 13.4-10 18.8-15.6 4.9-5.2 9.4-11 11.2-14.6 1.7-3.3 3.7-8.6 4.5-11.8.8-3.1 1.5-9.9 1.5-15 0-5-.7-12.5-1.5-16.5-.8-3.9-2.9-11.2-4.7-16.2-1.7-5-3.5-9.5-4-10-.5-.6-.8-.3-.8.7s-1.3 3.1-2.9 4.8c-2.4 2.4-3.8 3-7.3 3-2.5 0-5.3-.8-6.6-1.8-1.2-.9-3.4-4.9-4.9-8.7-1.4-3.9-2.7-9.1-2.9-11.8-.4-4.1 0-5.1 2.6-7.7 2.2-2.2 3.9-3 6.8-3 2.4-.1 4.7.7 6.6 2.2 1.7 1.3 3.8 3.6 4.8 5.3 1 1.6 1.8 2.3 1.8 1.5 0-.8-.6-3.5-1.4-6-.7-2.5-2.7-7.3-4.5-10.8-1.7-3.4-3.7-6.5-4.3-6.9-.7-.4-3.9-.8-7.1-.8-5.1 0-6.2-.3-8.3-2.8-1.3-1.5-2.8-4.4-3.4-6.5-.5-2-1-5.2-1-7 0-1.7-.7-6.5-1.5-10.5-.9-3.9-2.6-9-3.8-11.2-1.9-3.4-2.7-4-6-4.3-2.2-.1-4.8.5-6.4 1.5-1.6 1-8.9 7.2-16.3 13.7-7.4 6.5-16.2 13.9-19.5 16.4-3.3 2.5-8.7 5.7-12 7.3-3.3 1.5-9.6 3.6-14 4.7-4.4 1.2-12 2.8-17 3.6-5 .8-15.1 2-22.5 2.6-7.4.5-20.9 1-30 1-9.1 0-22.6-.5-30-1l-13.5-1c-7.7 5.3-15.4 9.8-22 13.5-6.6 3.6-21.2 10.2-32.5 14.6-11.3 4.5-29.7 11.3-41 15.1-11.3 3.8-25.7 8.4-32 10.3-6.3 1.8-18.3 4.7-26.5 6.3-8.2 1.7-22.4 4.2-31.5 5.6-9.1 1.4-35.2 4.8-58 7.5-22.8 2.8-46.2 5.5-52 6.1-5.8.5-17.6 1.4-26.2 1.8l-15.6.7c-3.2 7.7-5.7 11.8-7.5 14-1.8 2.2-5 4.8-7 5.7-2 1-5.4 1.8-7.5 1.8-2 0-5.1-.9-6.7-1.9-1.6-1.1-4.2-3.6-5.7-5.7-1.5-2.2-3.8-6.4-5.2-9.4-1.4-3-3.2-8.2-4.1-11.5-.8-3.3-1.8-8.9-2.2-12.5-.6-6.1-.5-6.7 2-9.3 1.4-1.5 3.4-2.7 4.4-2.7 1-.1 2.8.7 4 1.7 1.8 1.4 2.6 3.8 3.8 10.3.8 4.7 2.1 10.5 3 13 .9 2.5 2.7 6.4 4 8.7 1.4 2.4 3.1 4.2 3.8 4 .6-.1 2.4-2.7 4-5.7 2.3-4.7 2.9-7.6 4-19.8 1.1-13.4 1.4-14.5 3.7-16.3 1.4-1.1 3.4-2 4.5-2s3.1.9 4.5 2c2.3 1.7 2.5 2.7 2.8 10.8l.4 8.8c7.2-.5 16.1-1.3 24.3-2.1 8.3-.8 26.5-3.2 40.5-5.4s49.1-7.8 78-12.4c28.9-4.7 56.1-9.2 60.5-10.1 4.4-.9 13.8-3.1 21-5 7.2-1.9 18.4-5.2 25-7.5 6.6-2.3 17.4-6.8 24-10 6.6-3.2 17-8.8 23-12.5 6-3.6 12.5-7.7 14.3-9.1 2.9-2.2 3.1-2.7 2.5-6.2-.3-2-1.7-5.3-3-7.2-1.8-2.8-2.4-5.3-2.8-12.5-.2-5-.9-19.4-1.5-32-.6-12.7-2-35.1-3-50-1.1-14.9-2.9-37.8-4-51-1.1-13.2-2.7-30.8-3.6-39-.8-8.3-2.9-24.5-4.5-36s-3.9-25.5-5-31-3.7-17-5.9-25.5c-2.1-8.5-5.6-20.9-7.8-27.5-2.2-6.6-5.1-14.6-6.6-17.8-2.1-4.7-3-5.6-4.6-5.2-1.1.3-3.6-.2-5.5-1-2.3-1-4.2-2.8-5.4-5.3-1-2.1-2.9-4-4.2-4.4-1.3-.4-4.9-.8-7.9-.8s-8.9.9-13 2.1c-4.1 1.1-14.5 5.6-23 10-8.5 4.3-20.5 11.1-26.5 15-6 3.9-13.7 8.4-17 10-3.3 1.6-9.4 3.6-13.5 4.5-5 1.1-12.4 1.6-22 1.6-8 .1-23.7-.7-35-1.6-11.3-.9-42.1-3.4-68.5-5.6-26.4-2.2-55.2-4.9-64-6-8.8-1.2-21.6-3.2-28.5-4.6-6.9-1.4-15.9-3.9-20-5.5-4.1-1.7-10.2-4.7-13.5-6.7-3.3-2-10.3-6.9-15.5-10.8-5.2-3.9-12.7-10.4-16.6-14.5-3.9-4.1-9.5-10.8-12.5-14.9-3.1-4.1-8.9-12.2-12.9-18-4.1-5.8-10.6-13.6-14.5-17.5-4.2-4.2-9.4-8.2-13-10-3.9-1.9-7.9-3.1-11.5-3.3-3.9-.2-6.7.3-9.5 1.6-2.2 1.1-7.1 4.7-11 8.1zM667.7 824.2c.4.7 3.9 5.6 7.8 10.8 4 5.2 16.6 20.7 28 34.5 11.5 13.7 27 32 34.5 40.5 7.6 8.5 19.5 21.1 26.6 28 7.1 6.9 17 15.9 21.9 20 5 4.2 13.5 10.7 19 14.6 5.5 3.9 12.7 8.8 16 10.9 3.3 2.1 9.5 5.2 13.7 6.9 4.5 1.8 7.9 2.7 8.1 2.1.3-.5-2.5-2.5-6.1-4.4-3.7-1.8-7.2-4.1-7.8-5-.6-.9-5.3-4.6-10.5-8.3-5.2-3.7-15.3-11.8-22.4-17.9-7.1-6.1-19.2-16.8-26.9-23.7-7.6-7-21.8-20.8-31.5-30.7-9.7-9.9-21.3-22.5-25.9-28-4.6-5.5-13.4-17-19.6-25.5-6.2-8.5-13.4-18.7-16.1-22.5-2.6-3.9-5.1-7.4-5.4-7.8-.4-.4-1.4.3-2.4 1.7-.9 1.5-1.4 3.2-1 3.8zm650.8 137.7c-7.2 3.9-12.7 7.1-12.2 7.1.4 0 5.3-1.8 11-4.1 5.6-2.2 14.9-6.5 20.7-9.6 5.8-3.1 12.3-6.7 14.5-8.1l4-2.4c-3.9-2.1-5.2-2.7-5.5-2.7-.3 0-4.8 2.9-10 6.4-5.2 3.5-15.3 9.5-22.5 13.4zm-115 33.5c-21.4 3.6-51.8 8.5-67.5 11-15.7 2.5-36.4 5.7-46 7.1-9.6 1.4-24.5 3.2-33 4-8.5.8-17.9 1.5-20.7 1.5-2.9 0-5.3.5-5.3 1 0 .6 2.9 1 6.8 1 3.7 0 12.5-.5 19.7-1 7.2-.6 29.7-3.1 50-5.6 20.3-2.4 46.9-5.8 59-7.5 12.1-1.7 29.9-4.6 39.5-6.4 9.6-1.9 23.6-5.2 31-7.4 7.4-2.2 16.7-5.1 20.5-6.5 3.8-1.3 6.1-2.4 5-2.4-1.1.1-6 1.1-11 2.4-4.9 1.3-26.5 5.3-48 8.8zm273.5 273c-3.6 2.5-11.4 9.1-17.5 14.7-6 5.6-15.6 13.8-21.1 18.3-5.6 4.4-13.7 10.1-18 12.6-4.4 2.5-11.8 6.2-16.6 8.2-4.9 2.1-13.2 5-18.5 6.4-6.4 1.6-13.6 2.7-20.8 3-8 .4-13.9.1-21.9-1.3-6.9-1.1-11-1.4-11.2-.8-.2.5-2.6 9.8-5.4 20.5-2.8 10.7-8 29.4-11.5 41.5-3.5 12.1-9.3 31.2-13 42.5-3.7 11.3-6.8 20.8-6.9 21.3 0 .4 4.2 2.7 9.4 5.1 5.2 2.3 13.1 5.5 17.5 6.9 4.4 1.5 11.3 3.3 15.3 4.2 4.2.9 12.3 1.5 19.5 1.5 6.7 0 16.4-.7 21.5-1.5 5-.8 14.7-3.3 21.5-5.5 6.7-2.1 17.2-6.4 23.2-9.5 6.1-3.1 15.1-8.2 20-11.2 5-3.1 13.3-8.8 18.5-12.7 5.2-3.9 14.8-12.3 21.4-18.6 6.5-6.3 15.1-15.3 19.1-20 3.9-4.7 10-12.3 13.5-17 3.4-4.7 8.6-13.5 11.6-19.5 2.9-6 6.3-14.4 7.4-18.5 1.2-4.1 2.4-12 2.7-17.5.3-7.2 0-12.1-1.1-17.5-.9-4.1-3.1-10.6-4.9-14.4-1.7-3.9-4.7-9-6.5-11.5-1.8-2.5-5.8-7.2-9-10.4-4.5-4.6-6.2-5.7-7.9-5.3-1.3.3-4-.1-6-.9-2.1-.9-4.5-1.5-5.3-1.5-.8 0-4 .9-7 2s-8.4 3.9-12 6.4zM824.6 537c.8 0 2.3.9 3.4 2 1.8 1.8 2 3.1 1.8 15.4-.3 11.8-.5 13.7-2.3 15.6-1.2 1.3-2.9 2-4.3 1.8-2.2-.3-2.3 0-1.8 3.9.5 3.2.2 4.7-1 5.8-.8.8-2.3 1.5-3.2 1.5-.9.1-2.4-.7-3.3-1.7-.9-1-1.9-2.7-2.3-3.8-.5-1.1-1.8-8.3-3.1-16-1.9-11.3-2.1-14.5-1.2-16.5.7-1.5 2.2-2.6 3.7-2.8 1.4-.2 3 .2 3.7 1 .6.7 1.7 4.7 2.3 8.8.7 4.1 1.6 8.2 2.1 9 .5.9.8-2.9.7-9.4-.1-9.4.1-11.2 1.7-12.8 1-1 2.4-1.8 3.1-1.8zm122.9 82.8c1.1.2 2.8 1.2 3.8 2.1 1 .9 1.8 3 1.7 4.8 0 2.5-.7 3.7-2.7 5-1.6 1-5.9 2.3-9.8 3-3.8.7-7.9 1-9 .7-1.1-.4-2.8-1.4-3.8-2.3-1-.9-1.8-3-1.8-4.6 0-1.7.8-3.7 1.7-4.5.9-.8 5.3-2.2 9.8-3.1 4.4-.9 9-1.4 10.1-1.1zm312-.7c.5 0 1.8.7 2.8 1.7 1 .9 1.8 2.5 1.7 3.4 0 1.7.2 1.7 2.8.1 1.5-.9 3.5-1.3 4.5-1 .9.4 2.1 1.5 2.6 2.4.6 1.3-.4 5.7-3.3 14.5-2.2 6.9-5 13.6-6.1 14.7-1.2 1.3-3.2 2.2-5 2.1-1.7 0-3.6-.5-4.3-1.2-.7-.7-1.2-2.4-1.3-3.8 0-1.4.8-3.2 1.7-4 .9-.8 2.5-3.3 3.4-5.5 1-2.2 2.3-5.7 2.9-7.8.6-2 .9-3.7.6-3.7-.3 0-3 4.6-6.1 10.2-3.1 5.7-6.7 11.8-8 13.5-1.5 2-3.3 3.3-4.6 3.3-1.3 0-2.9-.5-3.6-1.2-.7-.7-1.2-2.3-1.2-3.6 0-1.2 2.4-6.4 5.4-11.5 2.9-5 6.7-12 8.5-15.4 1.7-3.3 3.7-6.3 4.3-6.6.7-.3 1.8-.6 2.3-.6zm-176 17c1.7-.1 4 .6 5.3 1.4 1.6 1.1 2.2 2.5 2.2 5 0 2.7-.7 4-2.7 5.5-1.6 1.1-5 2.5-7.8 3.1-2.7.6-7.2 1.3-10 1.6-4.2.5-5.3.3-7.2-1.5-1.3-1.2-2.3-3.2-2.3-4.5 0-1.2.7-3.1 1.5-4.1.8-1.2 4.7-2.8 9.7-4.2 4.6-1.2 9.6-2.3 11.3-2.3zM933 648.6c1.4.3 3 1 3.5 1.5s6 1.1 12 1.2c8.7.2 11.8.6 15 2.2 2.2 1.1 5.8 3.8 8 6 2.1 2.2 5.1 6.7 6.7 10 1.5 3.3 3.2 9.4 3.9 13.5.6 4.1.9 10.4.5 14-.3 3.6-1.5 10.1-2.6 14.5s-4.2 12.5-6.9 18-7.3 13.1-10.3 17c-3 3.8-8.1 9.1-11.4 11.6-3.2 2.5-8.1 5.8-10.9 7.2-2.7 1.3-7.7 3.3-11 4.2-4.2 1.2-8.1 1.6-13 1.3-4.9-.3-9-1.4-13.4-3.4-4-1.8-8.1-4.7-11.1-7.9-2.6-2.8-5.6-6.8-6.7-9-1.2-2.2-2.8-6.5-3.6-9.5-.9-3-1.9-8-2.2-11-.4-3-.1-8.7.5-12.5.6-3.9 2-9.9 3.2-13.5 1.1-3.6 3.7-9.7 5.6-13.5 1.9-3.9 5.6-10.2 8.2-14 2.6-3.9 7.6-10.1 11.1-13.9 3.5-3.7 8-7.8 9.9-8.9 1.9-1.2 5.5-2.9 8-3.9s5.6-1.5 7-1.2zm-1.5 20.5c-5 1.1-9.6 1.9-10.4 1.7-.7-.2-3.6 2.5-6.5 6-2.8 3.4-4.8 6.5-4.3 6.7.4.3 1.7-.2 3-1 1.2-.8 3.9-1.5 6-1.5 2 0 4.6.5 5.7 1 1.1.5 2.5 2.1 3 3.5q1 2.5 0 6.5c-.7 3-2.1 4.8-5.2 7-2.4 1.7-6.1 3.3-8.3 3.6-2.7.4-5.1.1-7.2-1-1.8-.9-3.7-2.4-4.2-3.4-.8-1.4-1.2-1.1-2.6 2.3-.9 2.2-2.5 7.4-3.6 11.5s-1.9 10-1.9 13 .7 8.1 1.5 11.2c.8 3.2 2.8 7.7 4.3 10 1.9 2.8 4.6 5.1 7.8 6.7 4.2 2.1 5.9 2.3 12.4 1.9 4.8-.3 9-1.2 11.5-2.5 2.2-1.1 6.4-3.9 9.3-6.2 2.8-2.2 7.3-6.9 9.8-10.4 2.6-3.4 6.2-9.4 8-13.2 1.9-3.9 4.3-10.8 5.5-15.5 1.7-6.6 2.1-10.5 1.7-17.5-.3-7-1-10.1-2.8-13.9-1.4-2.7-3.8-5.8-5.3-7-2-1.4-4.6-2.2-8-2.3-2.9-.1-6.3.1-7.7.3-1.4.2-6.5 1.4-11.5 2.5zm126.6-5.1c1.6 0 3.7.8 4.7 1.7 1 1 2 2.4 2.3 3.1.3 1.1 1.7 1.1 7.4.1 3.8-.6 11.3-1 16.5-.8 7.7.4 10.5.9 15 3.1 3.3 1.6 7.8 5 11.3 8.7 3.5 3.7 7 8.9 9.1 13.3 1.9 4 4.1 10 5 13.3.8 3.3 1.8 8.5 2.1 11.5.4 3 .2 9.1-.5 13.5-.6 4.4-2.6 11.8-4.4 16.5-1.7 4.7-4.9 11.2-7.1 14.5-2.2 3.3-6.7 8.6-10 11.9-3.3 3.2-8.5 7.3-11.5 9.1-3 1.8-8.4 4.3-12 5.5-3.6 1.2-9.4 2.4-13 2.7-3.7.3-9.1 0-12.5-.7-3.3-.7-8.9-2.8-12.5-4.6-4.3-2.1-8.3-5.2-11.8-9.1-3-3.2-6.5-8.3-7.9-11.3-1.4-3-3.2-8.4-3.9-12-.8-3.6-1.4-9-1.4-12s.6-9.3 1.4-14c.8-4.7 3-13.2 4.9-19 1.9-5.8 5.7-15.2 8.4-21 3.7-7.6 6.8-12.3 11.3-17.3 4.9-5.3 6.8-6.7 9.1-6.7zm-.8 23.9c-4 1-4.5 1.6-7.2 7.3-1.6 3.5-3.2 7.4-3.7 8.8-.8 2.5-.7 2.5 1.7.7 1.3-.9 4-1.7 5.9-1.7 2.4-.1 4.2-.8 5.8-2.5 1.7-1.9 3.2-2.5 6.5-2.5 2.7-.1 4.8.5 5.9 1.7 1 1 1.8 2.9 1.8 4.3s-.8 4.7-1.7 7.4c-1.5 4.2-2.5 5.3-5.8 6.8-2.2 1-5.3 1.8-7 1.8-1.7 0-5.1-1.3-7.7-3-3.3-2-5-3.9-5.4-5.8-.3-1.5-.7-3.2-.8-3.7-.2-.5-1.1 1.7-2 5-1 3.3-2.5 9.6-3.3 14-1 5-1.4 11.5-1.1 17.5.3 7 1 10.8 2.7 14.5 1.2 2.7 3.9 6.7 5.9 8.8 2 2.1 5.5 4.8 7.7 6 3.3 1.8 5.7 2.2 14 2.2 9.4 0 10.5-.2 17-3.5 4.4-2.1 9.2-5.6 13-9.5 4-3.9 7.5-8.7 10.1-14 2.6-5.1 4.5-10.7 5.4-15.5.7-4.5 1-10.4.6-14.8-.3-3.9-1.6-9.8-2.7-13-1.2-3.1-3.8-8.1-5.8-11.1s-4.9-6.3-6.6-7.5c-2.6-1.8-4.6-2.1-14.5-2.3-6.5-.1-14.3.4-18 1.1-3.6.8-8.4 1.9-10.7 2.5zm-599.5 29.2c.1-.1 1.7.5 3.5 1.2q3.2 1.4 8.4 8.8c2.8 4.1 6.1 9.4 7.2 11.9 1.1 2.5 2.1 6 2.1 7.7 0 1.8-.8 4.7-1.7 6.3-1 1.7-3.4 3.8-5.3 4.6q-3.5 1.6-7 1c-1.9-.4-4.6-1.5-6-2.5-1.4-1-3.6-4-4.9-6.7-1.6-3.1-2.5-6.5-2.4-9.4 0-2.5.5-5.5 1.2-6.8.9-1.7.8-2.9-.5-5.5-1.3-2.5-1.4-3.8-.5-5.7.6-1.4 2.1-3 3.3-3.7 1.3-.6 2.4-1.2 2.6-1.2zm275.3 4.9c1.6 0 3.9.5 5.2 1.2 1.2.6 8.7 5.9 16.7 11.8 8 5.8 19.9 14.3 26.5 18.9 6.6 4.6 12.6 9.1 13.3 10 .7.9 1.2 2.5 1.2 3.6s-.8 2.8-1.8 3.8c-.9 1-2.9 1.8-4.4 1.7-1.9 0-8.2-3.7-18.5-10.7-8.7-5.8-21.6-14.7-28.8-19.8-7.4-5.3-13.5-10.4-14.2-11.9-.7-1.4-1-3.4-.6-4.4.3-.9 1-2.3 1.6-3 .5-.6 2.2-1.2 3.8-1.2zM986 743.1c.8 0 3.3.8 5.5 1.8 2.2.9 5.3 3.3 6.9 5.2 1.6 1.9 3.5 4.9 4.3 6.6.7 1.8 1.3 5.4 1.3 8 0 2.9-.9 6.8-2.3 9.8-1.3 2.7-3.7 6.1-5.3 7.5-1.6 1.4-3.5 2.8-4.1 3-.8.3-1.6 3.9-2.8 18.3l5.5-.9c3-.5 8.9-.9 13.1-.9 4.9 0 8.6.5 10.3 1.5 1.5.8 3.3 3 4.1 4.7.9 1.9 1.2 4.4.9 6-.4 1.8-4.7 6.7-11.3 13-5.8 5.7-11.7 10.8-13.1 11.3-1.7.8-3.3.8-5.2 0-1.8-.6-3-2-3.4-3.8-.3-1.5-.2-3.6.3-4.7s4.4-4.9 8.6-8.5c6.4-5.5 7.2-6.6 5.4-6.8-1.2-.2-6.1.4-10.9 1.2-6.2 1.1-9.5 1.3-11 .6-1.3-.6-2.9-2-3.5-3.3-.7-1.2-2.2-3.3-3.4-4.7-1.7-2.1-2-3.8-2-11 .1-4.7.4-10.3.7-12.5.3-2.5 0-5.4-1-7.8-.9-2-1.6-6.1-1.6-9 0-3 .9-7.1 2.1-9.7 1.1-2.5 1.9-5.2 1.9-6 0-.8.9-2.8 2-4.3 1.2-1.6 3.1-3.3 4.3-3.7 1.2-.5 2.9-.9 3.7-.9zm-262.9.9c1 0 13 5.7 26.6 12.7 13.7 6.9 25.8 13.5 27.1 14.7 1.2 1.2 2.2 3.2 2.2 4.6 0 1.4-.8 3.3-1.8 4.3-.9 1-2.5 1.8-3.5 1.7-.9 0-12.2-5.1-25-11.3-12.7-6.3-24.9-12.8-27-14.5-2.6-2.3-3.7-4-3.8-6.1 0-1.6.7-3.7 1.6-4.5.9-.9 2.5-1.6 3.6-1.6zm-292.9 9c2.1 0 4.1.7 5.5 2.2 1.8 1.8 2.3 3.7 2.5 9 .3 6.2.1 7-2.4 9.4-1.7 1.7-3.8 2.8-5.7 2.8-2.1.1-3.9-.8-5.8-2.7-2.2-2.2-2.9-3.9-3.2-8.5-.4-5.3-.2-5.9 2.6-9 2.3-2.3 4-3.2 6.5-3.2zm39.3 18.4c8.2.2 10.9.7 14.9 2.7 2.7 1.3 6.2 4 7.8 5.9 1.6 1.9 3.8 6 4.9 9 1.3 3.4 2.3 8.9 2.7 14.5.3 6.4 0 11.5-1.3 17.5-.9 4.7-2.9 11.6-4.3 15.5-1.5 3.8-4.7 10.1-7.3 14-2.5 3.8-6.5 8.8-9 10.9-2.4 2.2-6.2 4.8-8.4 5.8-2.2.9-6.1 1.8-8.8 1.8-2.7 0-6.3-.8-8.5-1.9-2-1.1-4.9-3.2-6.4-4.8-1.5-1.5-3.6-4.8-4.7-7.3s-2.5-7.7-3.1-11.5c-.6-3.9-.8-10.1-.5-14 .4-3.9 1.6-11.3 2.7-16.5 1.1-5.2 3.6-13.8 5.5-19 1.9-5.2 3.7-11.1 3.9-13 .2-1.9 1.5-4.7 2.9-6.2 1.3-1.5 3.5-2.9 4.7-3.2 1.3-.2 6.8-.3 12.3-.2zm-7.5 28.1c-1.6 5.2-3.7 13.9-4.6 19.2-.9 5.8-1.4 12.9-1.1 17.3.2 4.1 1 8.8 1.8 10.4.8 1.6 2 3.1 2.6 3.3.7.2 3.2-1.4 5.4-3.5 2.6-2.3 5.6-6.7 8-11.7 2.1-4.5 4.5-11.7 5.5-16.5 1.1-5.7 1.5-10.6 1-14.8-.3-3.4-1.2-7.4-2-9-.7-1.5-2.4-3-3.7-3.4-1.3-.4-4.1-.8-6.1-.8h-3.7zm376.9-21c2 .3 4.4 1.3 5.4 2.2 1 1 1.8 3.1 1.8 4.8.1 1.6 1.1 4.3 2.2 5.8 1.5 2 2.2 4.7 2.5 9 .2 5-.2 7-2.1 10.7-1.3 2.5-4 5.6-5.8 6.8-2.9 2-4.5 2.3-9.6 2-5.3-.2-6.7-.8-9.4-3.3-1.8-1.7-4-4.8-5.1-7-1-2.2-1.8-5.1-1.9-6.5 0-1.4.7-4.5 1.5-7s3.6-6.9 6.2-9.9c2.7-3 6.2-6 7.8-6.8 1.7-.7 4.6-1.1 6.5-.8zm-7 19.8c-.6 1.2-1 3.5-.8 5.2.3 2.3.9 3.1 2.8 3.3 1.9.3 2.9-.3 3.8-2.2.7-1.4 1.3-3 1.3-3.4 0-.5-1.3-1.8-2.9-2.9l-3-2.2zm-409.3-7.8c.7.3 1.7.5 2.3.5.5 0 1.9.9 3 2s2 3.4 2 5c0 1.7-1.7 6-3.8 9.7-2 3.7-4.9 7.5-6.2 8.5-1.4 1-3.5 1.9-4.8 1.9-1.2-.1-3-.4-3.9-.8-.9-.4-2.2-2-3-3.5-.7-1.5-1.3-3.6-1.3-4.5 0-1 1.2-4.1 2.7-6.8 1.5-2.8 3.5-6.1 4.4-7.3.8-1.1 2.9-2.8 4.5-3.6 1.6-.9 3.4-1.4 4.1-1.1zm808.5 7.6c1.5-.1 3.4.6 4.3 1.4.8.8 1.5 2.8 1.5 4.3 0 1.7-1 3.7-2.8 5.4-1.5 1.5-5.4 3.9-8.7 5.4-3.3 1.4-10.5 4.3-16 6.4-5.5 2.1-12.5 4.5-15.5 5.5-3.1.9-5.3 1.8-5 2 .2.2 6.3.8 13.5 1.5 7.1.6 15.2 1.6 18 2.2 2.7.6 6.2 1.7 7.7 2.4 1.7.9 3 2.5 3.4 4.2.3 1.7-.1 3.6-1 5-1.1 1.5-2.6 2.2-4.9 2.2-1.8 0-6.6-.6-10.7-1.4-4.2-.8-14.3-2-22.5-2.7-8.3-.7-15.6-1.7-16.3-2.3-.7-.6-1.3-2.3-1.3-3.8.1-2.6-.1-2.7-2.9-2-2.3.5-3.4.3-5-1.3-1.2-1.1-2.1-3.2-2.1-4.7.1-1.8 1-3.5 2.8-4.8 1.5-1.1 7.7-3.7 13.8-5.7 6-2 17.3-6.2 25-9.3 7.7-3.1 15.8-6.6 18-7.8 2.2-1.2 5.2-2.1 6.7-2.1zm-96.2 17.4c2.9.3 5.3 1.3 6.8 2.7 1.2 1.3 2.2 2.9 2.2 3.6 0 .7 1.4 3.1 3.2 5.3 2.4 3 3.4 5.5 3.6 8.8.3 3.3-.2 5.8-1.7 8.9-1.2 2.3-3.8 5.5-5.8 7-2.6 1.9-5.2 2.8-8.8 3-3.8.3-6.1-.2-9.5-2-2.5-1.3-5.6-4-6.8-5.9-1.7-2.5-2.3-4.8-2.3-9.1.1-4.1.8-7.2 2.5-10.5 1.3-2.6 3.7-6 5.2-7.4 1.6-1.4 3.8-3.1 4.9-3.8 1.1-.6 3.9-.9 6.5-.6zm-6 22c0 1.1.5 2.6 1.2 3.3.7.7 2.2 1.2 3.3 1.2 1.2 0 2.6-.5 3.3-1.2.7-.7 1.2-2.1 1.2-3 0-1-.7-3.4-1.4-5.3-.8-1.9-1.9-3.5-2.5-3.5-.7 0-2 1.5-3.1 3.3-1.1 1.8-2 4.1-2 5.2zm415.7 75.6c3.6-.1 4.8.5 7.5 3.2 2.9 2.9 3.1 3.7 2.7 8.4-.3 4-1.1 5.8-3.4 8.3-1.7 1.7-4.4 3.5-6 4.1-2.1.7-4.3.7-7 0-2.2-.5-5-2-6.2-3.3-1.1-1.2-2.6-3.4-3.3-4.8-.7-1.4-1-3.8-.7-5.5.4-1.6 1.6-4 2.9-5.1 1.2-1.2 3.8-2.9 5.8-3.7 1.9-.8 5.4-1.6 7.7-1.6zm-17 38.9c3.5 0 8.6.7 11.5 1.5 2.9.8 7.4 2.8 10 4.5 2.7 1.7 6.1 5.1 7.8 7.8 2.6 4.1 3 5.6 3 11.7 0 3.9.7 12.2 1.6 18.5 1 7.5 1.4 14.6 1 20.5-.3 5-1 10.6-1.5 12.5-.6 1.9-2.5 5.8-4.3 8.5-2 2.9-5.4 6.2-8.2 8-4.5 2.7-5.7 3-13.5 3-7.6 0-9.4-.3-15.1-3.1-4-1.9-8.9-5.5-12.5-9.1-3.3-3.3-7.5-8.7-9.2-11.9-1.8-3.2-3.9-8.1-4.8-10.9-.8-2.7-1.8-8.1-2.2-12-.3-4.5 0-9.9.9-15 1-5.1 2.9-10.6 5.4-15.4 2.3-4.4 5.5-8.8 7.9-10.7 2.2-1.8 6.7-4.5 10-5.8 4.2-1.8 7.9-2.5 12.2-2.6zm-10.5 34c-.9 2.6-1.6 7.5-1.6 11.5 0 5.3.6 8.4 2.4 12.4 1.4 3 4.5 7.3 7 9.6 2.6 2.4 6 4.5 8 4.9 2.6.6 3.8.4 5-.8 1.2-1.3 1.5-4.5 1.4-15.4 0-7.5-.6-17.1-1.3-21.2-.7-4.1-1.8-8.1-2.4-8.8-.7-.7-3.3-1.5-5.8-1.8-3.9-.5-4.9-.2-7.8 2.3-1.8 1.5-4 4.8-4.9 7.3zm-607.8 2c1.7 0 3.9.8 4.9 1.7 1.4 1.4 1.7 2.8 1.2 5.8-.3 2.2-.8 7.2-1.2 11-.3 3.9-.3 8.4.7 13l2.1-2c1.2-1.1 3.3-4.5 4.8-7.5s3.8-8.4 5.2-11.9c1.3-3.6 3.5-7.2 4.9-8.3 1.3-1 3.1-1.9 4-1.9.8 0 2.7 1 4.2 2.1 2.1 1.5 2.8 2.9 2.8 5.5 0 1.9-1.6 7.5-3.6 12.3-1.9 4.8-4.8 10.7-6.4 13.2-1.6 2.5-4.7 6.2-6.9 8.3-2.3 2-5.8 4.1-7.9 4.6-2.2.6-5 .6-6.7.1-1.7-.5-4-1.9-5.2-3.2-1.2-1.3-3.1-4.3-4.2-6.8s-2.3-7.2-2.7-10.5c-.4-4.4 0-8 1.5-14 1.2-4.4 2.9-8.8 3.8-9.7.8-1 3-1.8 4.7-1.8zm45.6 1c1.1 0 3.1 1.1 4.5 2.5 1.3 1.4 3.4 2.5 4.5 2.5s3.4.6 5.2 1.3c2.1.9 3.9 2.7 5 5 1 2.1 1.8 5.2 1.8 7 0 1.8-.5 4.9-1 7-.6 2-2.2 5.1-3.5 6.7-1.4 1.7-2.5 3.4-2.5 3.8 0 .4 3.9 4.7 8.7 9.5 7 6.9 8.8 9.4 8.8 11.6 0 1.6-.9 3.9-2 5-1.4 1.5-3.2 2.2-5.5 2.1-3.1 0-4.7-1.3-12.8-9.3-6.3-6.3-9.3-8.7-9.6-7.7-.3.8-.7 4-1 7-.3 3.3-1.3 6.5-2.4 8-1.2 1.6-3.1 2.6-5.1 2.8-2.2.1-3.7-.4-5.1-2-1.5-1.7-2.1-3.7-2-7.3 0-2.7.6-10.2 1.5-16.5.8-6.3 2.4-16.7 3.5-23 1.6-9.8 2.3-11.8 4.5-13.7 1.4-1.3 3.5-2.3 4.5-2.3zm631.4 13c2.3 0 5.1.8 6.5 1.8 1.4.9 3.3 3.5 4.2 5.7 1 2.2 1.8 6.3 1.8 9 .1 3.3-.6 6.1-1.9 8.3-1.1 1.8-3.6 3.9-5.5 4.7-2.3 1-4.5 1.2-6.2.8-1.5-.4-3.6-1.9-4.8-3.3-1.3-1.6-2.6-5.2-3.4-10-.9-5.4-.9-8.3-.2-10.2.6-1.5 2.1-3.7 3.3-4.8 1.4-1.3 3.6-2 6.2-2zm-10.9 37c2.4 0 4.4.9 6.7 2.9 2.9 2.6 3.3 3.6 3.3 7.9 0 4.1-.6 5.7-3.1 8.9-1.9 2.3-4.5 4.2-6.5 4.7-2.6.7-4.2.5-6.7-.7-1.9-1-3.8-3.1-4.7-5.2-1.2-2.6-1.3-4.5-.6-7.7q1-4.3 4.5-7.5c2.6-2.4 4.5-3.3 7.1-3.3z" style="fill:#000"/>
</svg>
