<svg width="200" height="146" version="1.2" xmlns="http://www.w3.org/2000/svg">
  <path fill-rule="evenodd" d="M35.8 0c.1 0 .5.1.9.3.4.1 1 .4 1.3.5.4.2 1.1.6 1.7 1 .5.5 2.4 2.2 4.1 4 1.8 1.8 4.7 4.9 6.5 6.9 1.8 2 3.7 4 4.1 4.4.5.5 1.5 1.2 3.7 2.6l4.6-.2c3.7-.1 5.3-.1 8.4.1 2.1.1 4.8.3 5.9.4 1.1.1 3.4.3 5 .5s4.2.5 5.7.6c1.5.1 3.7.4 4.8.5 1.1.1 3.4.3 5.1.4 1.7.2 3.9.4 4.9.5 1 .1 2.5.3 3.4.4.9.1 3 .4 4.7.6 1.6.3 3.2.5 3.6.5q.5 0 1.3-.4c.4-.2 1.1-.6 1.7-1 .5-.4 1.5-1.2 2.2-1.8.8-.6 2.9-2.4 4.8-4.1 1.9-1.6 4.2-3.5 5.1-4.2.9-.8 2.4-1.9 3.4-2.5.9-.7 2.2-1.4 2.8-1.7.6-.2 1.4-.6 1.9-.7.4-.1 1.3-.2 1.8-.2s1.3.1 1.7.2c.4.1 1.2.4 1.7.7.5.2 1.2.7 1.6 1 .5.3 1.4 1.2 2.2 2 .7.8 1.7 1.8 2.1 2.4.4.5.9 1.3 1.2 1.8.3.5.8 1.3 1.1 2 .3.6.8 1.7 1.1 2.5.3.8.8 2.1 1 3 .3.8 1.1 4 1.9 7.1.8 3 1.6 6.6 1.9 7.9.3 1.3.7 3.3.9 4.6.2 1.2.6 3.6.8 5.3.3 1.7.7 4.1 1 5.4.2 1.2.6 3.4 1.3 7.3l.5.5c.3.2 1.7 1.3 3.1 2.4 1.5 1 2.9 2.2 3.3 2.5.3.3.9.8 1.2 1.2.4.4.5.7.5 1.6l1.4.5c.8.3 2 .8 2.8 1.2.7.3 1.9.9 2.6 1.4.8.4 1.8 1.1 2.4 1.5.5.4 1.4 1.2 2 1.7l2.1 2.1c.5.6 1.5 1.8 2.1 2.6.6.9 1.5 2.1 1.9 2.8.5.8 1 1.9 1.4 2.6.3.7.8 2 1 2.8.3.9.7 2.4 1 3.4.3 1.1.6 2.5.7 3.2.1.6.3 2.5.5 4.1.2 1.6.5 3.8.7 4.9.2 1.1.8 3.4 1.3 5.1.4 1.7 1.1 4.3 1.6 5.7.4 1.3 1.1 3.6 1.5 4.9.4 1.3.9 3.4 1.1 4.6.3 1.2.6 3.1.8 4.1.2 1 .5 2.9.7 4.3.2 1.3.4 3.3.5 4.4.1 1.1.3 3.2.4 4.8.2 2.4.2 3 0 3.4 0 .4-.3.7-.5.9-.2.1-.5.2-.8.2-.5 0-.7-.1-1-.5q-.4-.4-.4-1c-.1-.3-.1-1.1-.2-1.9 0-.7-.1-2.4-.2-3.8-.1-1.3-.4-3.5-.6-4.9-.1-1.4-.4-3.4-.6-4.5-.2-1.1-.5-2.7-.7-3.6-.1-.9-.4-2.2-.6-2.9-.2-.7-.5-2-.8-2.9-.2-.8-.8-2.8-1.3-4.3-.5-1.6-1.1-3.7-1.4-4.7-.3-1.1-.8-3-1.1-4.2-.3-1.3-.7-3-.8-3.9-.2-.9-.4-2.7-.6-4-.1-1.6-.4-3.1-.7-4.2-.2-1-.7-2.5-.9-3.4-.3-.9-.9-2.4-1.4-3.3-.4-.9-1.1-2.1-1.6-2.8-.4-.6-1.2-1.7-1.7-2.4-.6-.6-1.6-1.8-2.3-2.6-.7-.7-2-1.9-2.8-2.6-.7-.6-2-1.6-2.8-2.1-.7-.5-2-1.2-2.8-1.7-.9-.4-2.1-.9-2.9-1.2-.8-.3-1.8-.6-2.4-.7-.6-.2-1.6-.3-2.2-.4-.6-.1-1.3-.2-1.6-.3-.3-.2-.6-.2-1.2-.2-.5.1-1.3.2-1.8.4-.5.1-1.2.4-1.6.6-.4.2-1.4.8-2.1 1.3-.8.5-1.7 1.2-2.2 1.6-.4.4-.8.8-.9 1 0 .1-.1.5-.2.7 0 .3 0 .9.1 1.3.1.5.4 1.5 1.4 3.8l.7-.1c.6-.1.8-.1 1.1.2.2.1.4.4.5.7 0 .3-.1.7-.4 1.5-.4 1.1-.4 1.2-.4 4.6l.5 1.1q.5 1 1.3 1.8c.4.4 1.3 1.2 1.9 1.6.7.5 1.5 1.1 1.8 1.4.4.4 1 1.1 1.4 1.7.6.9.9 1.3 2.6 2.6 1.1.9 2.1 1.7 2.3 2q.4.3.5.9c0 .6 0 .7-.4 1.1-.4.4-.6.5-.9.5-.3 0-.7-.1-.9-.3-.3-.2-1.4-1.1-2.5-2-1.1-.9-2.2-1.8-2.4-2.1-.2-.3-.7-.9-.9-1.3-.5-.7-.9-1.1-2.4-2.2-1.3-1-2.2-1.7-2.7-2.3-.4-.5-1-1.4-1.3-2-.3-.6-.6-1.4-.7-2-.1-.5-.2-1.4-.2-3.5l-.3.6c-.1.3-.3 1-.4 1.5-.2.7-.2 1.4-.2 2.7.1 1.2.2 2.1.4 3 .2.8.6 1.8.8 2.4.2.6.8 1.9 1.3 2.9.8 1.7 1 1.9 2.4 3.5.9.9 2 2.2 2.4 2.8.5.7 1.8 2.5 2.9 4.1 1.7 2.5 2 3.1 2 3.6.1.5.1.6-.3 1-.3.4-.5.5-.9.5-.3 0-.7-.1-.9-.3-.2-.2-.8-.9-1.4-1.7-.6-.9-1.1-1.5-1.1-1.4-.1 0-.2 1-.3 2.1-.1 1-.3 2.9-.5 4.2-.1 1.2-.5 3.5-.9 5-.3 1.5-.9 4-1.3 5.6-.4 1.6-.8 3-.8 3.2-.1.3-.4.6-.6.7q-.3.3-.8.3c-.4 0-.7-.1-1-.4-.3-.3-.3-.5-.3-.9s.3-2.2.8-4.1c.5-1.9 1-4.5 1.3-5.7.3-1.2.5-2.5.5-2.9 0-.4-.1-1.9-.1-3.4-.1-1.9-.1-2.6-.2-2.7-.1 0-.7.2-1.3.6-.6.4-2.3 1.3-3.8 2s-3.6 1.7-4.6 2.1c-1.1.5-3.6 1.4-5.5 2-1.9.7-4.5 1.5-5.7 1.9-1.3.4-3.4 1-4.8 1.4-1.4.3-4 .9-5.7 1.3-1.8.3-4.4.8-5.8 1-1.5.2-3.4.5-4.2.6-.9.1-2.6.3-3.9.4-1.2.1-4.5.3-12.3.4l-.3.7c-.2.4-.7 1.1-1 1.4-.3.3-.9.8-1.3 1-.4.2-1.1.4-1.5.5h-1.3c-.3-.1-.8-.2-1.2-.3-.5-.2-.6-.2-1 0-.3.1-.7.3-.9.5-.3.2-.4.2-.8.1-.3-.1-1.1-.6-1.9-1-.8-.5-1.9-1.2-2.4-1.6-.6-.4-1.2-.9-1.5-1.2-.2-.2-.5-.4-.6-.4-.1 0-.2.3-.3.8 0 .4-.2 1.4-.2 2.1-.1 1-.1 1.3-.4 1.4-.1.1-.4.2-.7.2-.2 0-.5-.1-.7-.2-.2-.1-.5-.3-.6-.4 0-.2-.1-.4-.2-.6 0-.1.1-.9.1-1.7.1-.9.3-2.9.4-4.6.2-2.4.2-3 .1-3.1h-.3c-.1 0-.2.7-.2 1.6-.1 1.1-.2 1.9-.5 2.7-.1.6-.5 1.4-.7 1.9-.2.4-.6 1-.9 1.4-.3.3-.8.8-1.1 1-.4.3-1 .5-1.5.7-.6.1-1.1.1-1.5.1-.3-.1-.9-.3-1.3-.5-.5-.2-1.1-.6-1.4-1-.4-.4-.6-.7-.6-.8 0-.1-.1-.1-.2-.1 0 0-.2.3-.4.8-.1.4-.3 1.2-.3 1.6-.1.4-.3.8-.4.9-.1.1-.5.2-.9.2-.6 0-.7-.1-1.1-.5-.5-.5-.5-.6-.5-1.1.1-.5 0-.6-.1-.6l-1.2.2c-.6.1-1.5.2-1.9.1-.5 0-1.1-.2-1.7-.4-.5-.3-1.1-.7-1.5-1.1-.3-.3-.8-.9-1-1.3-.2-.4-.4-1.1-.5-2.4l-.9-.1c-.5-.1-2-.3-3.4-.4-1.3-.2-3.2-.6-4.3-.8-1-.2-2.9-.6-4.2-.9-1.3-.4-3.4-.9-4.6-1.3-1.3-.3-3.6-1-5.1-1.5-1.6-.4-4-1.2-5.4-1.7-1.5-.5-3.7-1.4-5.1-1.9-1.3-.5-3.2-1.3-4.3-1.8-1-.5-2.9-1.4-4.2-2.1-1.3-.7-3.2-1.7-4.3-2.4-1.1-.6-2.7-1.6-3.6-2.2-1.1-.8-1.6-1-1.7-.9 0 .1-.1.8-.1 1.5 0 .8-.1 3.5-.2 6 0 2.5-.2 5.7-.2 7.1-.1 1.4-.2 3.4-.4 4.6-.1 1.1-.2 3.2-.3 4.5-.1 1.4-.3 4-.3 5.9-.1 2.9-.1 3.5-.3 3.7-.2.1-.6.2-1.5.3-.8.1-1.2 0-1.3 0-.1-.1-.2-1.9-.2-4.6 0-2.5 0-6 .1-7.8.1-1.7.2-6.3.3-10 0-3.7.1-8.1.2-9.8.1-1.7.2-4 .4-5.1.1-1.1.3-3.2.5-4.6.2-1.3.5-3.4.6-4.4.2-1.1.6-3 .8-4.2.3-1.2.7-3.3 1-4.5.4-1.3 1.1-3.8 1.7-5.6.6-1.9 1.6-5 2.3-7.1.7-2 1.5-4.2 1.7-5 .2-.7.6-1.8.7-2.5.2-.7.3-1.3.3-1.3-.1-.1-1-.3-2.1-.5s-3.3-.6-5-.9c-1.7-.3-3.3-.6-3.6-.7-.2-.1-.6-.3-.8-.5-.2-.2-.3-.5-.3-.8 0-.2.2-.8.4-1.2.3-.4.9-1.2 1.4-1.8.6-.5 1.9-1.7 3.1-2.7 1.1-.9 3-2.4 4.1-3.2 1.1-.9 2.4-1.8 2.8-2 .4-.3.9-.6 1.1-.6h.7c.2.1.6.1 1.7 0l.5-1.9c.3-1.2.7-3.4 1.1-5.8.3-2.1.7-4.6.8-5.5.2-.9.6-3.1 1-4.9.3-1.8.9-4.3 1.2-5.7.3-1.3.9-3.3 1.3-4.4.3-1.1.9-2.7 1.2-3.5.4-.8 1.1-2.4 1.8-3.5.6-1.2 1.4-2.7 1.8-3.4.4-.6 1-1.6 1.4-2.2.4-.5 1.2-1.5 1.7-2s1.5-1.3 2.1-1.8c.7-.4 1.7-1 2.2-1.2.6-.3 1.2-.5 1.4-.6.3 0 .6-.1.7-.2.1 0 .2-.1.3-.1zm-1.7 6.9c-.4.2-1.1.5-1.5.8-.5.3-1.2 1.1-1.7 1.7-.6.7-1.4 1.7-1.8 2.4-.6.7-1.1 1.7-1.5 2.7-.4.8-1 2.2-1.4 3.2-.3 1-.9 2.9-1.3 4.2-.5 1.4-1.5 5.3-2.3 8.6-.9 3.4-1.9 7.4-2.3 8.8-.4 1.5-1.1 4.1-1.5 5.8-.8 2.9-.8 3.2-1.2 6.9-.2 2.2-.4 4.3-.5 4.7v.9l.6.2c.4 0 2.1.4 3.8.8 1.8.3 4.7.9 6.5 1.2 1.9.3 4.2.8 5.3.9 1 .2 3.5.6 5.4.8 2 .2 4.9.5 6.4.7 1.6.2 2.9.3 2.9.2.1 0 .1-.2.1-.5s.2-1.2.3-2.1c.1-.9.4-2.3.6-3.2.2-.9.5-2.1.7-2.7.1-.6.6-1.9.9-2.8.4-.9.9-2 1.1-2.4.2-.4.7-1.1 1.1-1.7.4-.5 1.2-1.4 1.7-1.9s1.4-1.3 1.9-1.8c.6-.4 1.5-.9 2-1.2.5-.2 1.4-.6 2-.7.9-.2 1.5-.3 2.6-.3s1.8.1 2.6.3c.6.1 1.4.4 1.8.5.3.2 1 .5 1.5.8.5.2 1.4 1 2.1 1.7.8.7 1.6 1.7 2 2.2.4.6.9 1.5 1.2 2 .3.6.7 1.6 1 2.3.2.6.6 1.8.8 2.6.3.8.5 2.1.6 2.8.1.8.1 2 .1 3.1-.1 1-.2 2.2-.3 2.7-.1.5-.2.9-.2.9s.4 0 .8-.1 1.2-.3 1.8-.4c.8-.1 1.4-.1 2.1 0 .5.1 1.3.2 1.7.3.4.1 1.1.4 1.7.6.5.2 1.3.6 1.7.8.4.2.7.4.8.4 0 0 .1-.2.1-.5 0-.2.1-1.3.2-2.3.1-1.1.3-2.5.5-3.3.1-.7.4-1.7.5-2.2.2-.6.7-1.7 1.1-2.4.3-.8 1.2-2.2 1.8-3.2.6-.9 1.5-2.1 1.9-2.6.4-.6 1.1-1.3 1.6-1.7.6-.4 1.4-1 1.9-1.2.6-.3 1.4-.6 1.8-.7.7-.2 1.3-.3 2.8-.3 1.5 0 2.2.1 2.8.3.5.1 1.7.5 2.6.9.9.4 2.2 1 2.7 1.4.6.4 1.5 1.1 1.9 1.6.5.5 1.1 1.4 1.5 2 .3.5.8 1.4 1 2 .2.5.6 1.6.8 2.4.2.9.5 2.2.6 3.1.1 1 .2 2.5.2 4.4 0 2.2 0 3-.2 3.9-.1.7-.2 1.2-.2 1.2s2.2.1 4.9.2 5 .2 5.1.3c0 0 1 .1 2 .1 1.1 0 2.9 0 4 .1h2.3c.2.1 1.1 0 1.8-.2.8-.1 2.7-.3 4.3-.3 2-.1 3.5-.1 5.4.1 1.4.1 4.4.1 6.6.1 2.2 0 4.3 0 4.7-.1h.8c.1-2.8 0-4.2 0-5-.1-.8-.4-2.6-.6-4-.2-1.5-.6-4.9-.9-7.8-.4-2.8-.9-6.7-1.2-8.7-.2-2-.7-4.8-1-6.2-.3-1.4-.7-3.3-.9-4.2-.1-.9-.6-2.7-.9-3.9-.3-1.3-.8-3.2-1.1-4.4-.4-1.1-.9-2.7-1.2-3.5-.4-.8-1-2-1.4-2.6-.3-.7-1-1.7-1.5-2.2-.4-.6-1-1.3-1.3-1.5-.3-.4-.7-.6-1.2-.7-.4-.1-1.4-.1-2.2-.1q-1.4 0-2.9.2c-.8.2-2.1.5-2.9.8-.7.2-2.1.8-3 1.3-1 .4-2.4 1.2-3.1 1.7-.8.5-1.9 1.3-2.4 1.7-.6.5-2.6 2.3-4.4 4.2-2.1 2-3.6 3.5-4.1 3.8-.4.2-.9.6-1.2.7-.2.2-.7.4-1 .5-.5.1-1.4.1-2.8 0-1.4 0-2.4-.1-3.2-.3-.7-.1-2.1-.5-3.2-.8-1.1-.4-2.9-.8-4-1-1.2-.3-3.1-.5-4.9-.7-1.6-.1-3.9-.3-5.1-.4-1.2-.2-3.9-.4-6.1-.6-2.2-.3-4.5-.5-5.1-.6-.6 0-2.6-.2-4.4-.4-1.8-.2-4.7-.4-6.5-.5-1.9-.1-6.1-.1-10.1-.1-5.9.1-6.9.1-7.2-.1-.3-.1-.8-.5-1.3-.8-.4-.4-1.4-1.5-2.1-2.4-.7-.9-1.8-2.1-2.4-2.8-.5-.6-2.4-2.6-4.1-4.4-1.7-1.9-3.6-3.8-4.2-4.4l-1-1.1c-2 0-2.8 0-3.1.1-.3.1-.9.3-1.3.4zm26.4 38.7c-.6.2-1.5.5-2.1.8-.5.2-1.3.7-1.8 1.1-.6.4-1.3 1-1.6 1.4-.4.3-.9 1-1.2 1.3-.3.4-.6.9-.8 1.3-.1.3-.3.6-.2.7 0 0 .6-.2 1.3-.4.7-.3 1.8-.6 2.5-.8.7-.2 2-.4 2.8-.5 1.1-.2 2.1-.2 3.1-.2.8.1 2.1.2 2.7.3.7.1 1.9.4 2.8.7.8.2 2.3.8 3.4 1.3 1 .5 1.9.9 1.9.9.1-.1 0-.4-.2-.9-.1-.4-.5-1.2-.8-1.9-.3-.6-.8-1.4-1.1-1.8-.3-.4-.9-1-1.3-1.3-.4-.4-1-.9-1.4-1.1-.4-.3-1.1-.6-1.5-.8-.4-.1-1.2-.3-1.9-.4-.6-.1-1.3-.2-1.6-.2-.3 0-.8 0-1.2.1-.4 0-1.2.2-1.8.4zm39 2.8c-.4.1-1.1.4-1.7.7-.6.3-1.5.8-2 1.2-.5.4-1.3 1.3-1.9 1.9-.7.8-1.2 1.6-1.7 2.5-.4.7-.6 1.3-.6 1.4.1 0 .4-.1.7-.3.3-.2.9-.6 1.4-.9.5-.2 1.3-.6 1.8-.7.5-.2 1.1-.3 1.4-.4.4-.1 1.2-.2 2-.3h2.8c.8.1 2 .3 2.8.5.8.1 2 .5 2.7.8.8.3 2 .8 2.8 1.2.8.3 1.5.5 1.5.5.1-.1 0-.5-.1-.9-.1-.5-.4-1.4-.8-2.1-.3-.8-.9-1.8-1.4-2.3-.4-.5-1-1.2-1.4-1.5-.3-.2-1-.6-1.5-.8-.4-.3-1.2-.5-1.6-.6-.4-.1-1.3-.3-1.9-.3-.6 0-1.5 0-1.9.1-.4 0-1.1.2-1.4.3zm-89.1 4.1c-1.9 1.4-3.7 2.7-3.9 2.8-.4.3-.5.4-.4.5.1 0 1 .2 2.1.4 1 .2 2.4.5 3.2.6.8.1 1.5.2 1.5.2.1-.1.2-.6.4-1.3.1-.7.5-2.2.8-3.5.3-1.2.5-2.3.4-2.3 0-.1-.1-.1-.2-.1H14c-.1.1-1.7 1.3-3.6 2.7zm47.7.2c-.7.1-2 .5-3 .8-.9.3-2.1.7-2.6 1l-1 .4c-.4 1.4-.7 2.5-.8 3.3-.2.8-.3 1.9-.3 2.3 0 .4.1.9.2 1.1.1.3.2.6.2.8v.4c.1 0 1.2.1 2.5.3 1.3.2 3.4.4 4.7.6 1.3.1 3.5.3 4.9.4 1.4 0 3.3.1 4.2.1 1 0 2.4.1 3.3.2.8.1 1.6.2 1.7.1v-.2s.5-.9 1-1.9c.7-1.5.9-2.2 1.1-3q.2-1.1.1-2l-.1-.9c-1.8-1.1-3-1.7-3.7-2.1-.8-.3-2-.8-2.7-1.1-.7-.2-1.8-.5-2.4-.6-.7-.1-2-.3-3.2-.3h-2.5c-.2.1-1 .2-1.6.3zm38.4 3.9c-.5.1-1.3.3-1.7.4-.4.2-1.1.4-1.5.5-.3.2-1 .5-1.5.8-.4.3-.9.6-1 .6q-.3 0-.4.5c-.1.2-.2.8-.3 1.3-.2.6-.3 1.6-.3 3.4q-.1 2.7 0 2.8c.1.1 2 .2 8.7.3 4.7 0 9.3.1 10.3.1 1-.1 2-.1 2.2-.1.4-.1.4-.2.5-.6.1-.3.2-.9.3-1.3.1-.5.2-1.4.3-2.1.1-.6.1-1.6.1-2.2 0-.7-.1-1.3-.1-1.5-.1-.4-.3-.5-1.7-1.2-.9-.4-2.4-1-3.3-1.3-.9-.3-2.3-.6-3.1-.7-.8-.2-2-.3-2.7-.3-.7 0-1.9.1-2.5.2-.7.1-1.7.3-2.3.4zM2.9 57.7c.2 0 .8.2 1.3.2.6.1 2 .4 3.2.6 1.2.2 2.6.4 3.2.6l1 .2c.1.1 1.3.3 2.8.5 1.5.3 3.4.6 4.1.6.8.1 1.7.2 2 .2.3.1 0-.1-.7-.2-.8-.2-2.2-.5-3.2-.7-1-.1-2.5-.4-3.4-.5-.9-.1-2.3-.3-3.1-.5-.8-.1-2.5-.4-3.9-.7-1.3-.2-2.6-.5-2.8-.6-.2-.1-.4-.2-.5-.2 0 0-.1.1-.1.2-.2.1-.1.2.1.3zM29.7 62c0 .2.2.3.3.4.2 0 2.1.4 4.2.9 2.1.4 5.2 1 7 1.3 1.7.3 4.3.7 5.7.8 1.4.2 3.9.5 5.5.6 1.6.2 4.1.4 5.7.5 1.6.1 4.4.2 6.3.3 2 .1 4.2.1 5.1.1 1.6 0 1.7 0 1.7-.3 0-.2-.1-.3-.3-.4-.2-.1-1.1-.2-2.1-.2s-2.8 0-4.1-.1c-1.2-.1-2.9-.2-3.6-.2-.8 0-2.7-.2-4.2-.3-1.5-.1-3.7-.2-4.8-.4-1.2-.1-3.1-.3-4.3-.4-1.1-.2-3.2-.4-4.7-.7-1.4-.2-4.6-.7-7.1-1.2s-4.7-.9-5-1c-.3 0-.7-.1-.8-.1-.2 0-.3 0-.4.1-.1 0-.1.2-.1.3zm-13.8 1c0 .1-.5 1.9-1.1 4.1-.6 2.3-1.6 5.9-2.3 8.2-.7 2.2-1.8 6-2.5 8.2-.6 2.3-1.3 5-1.6 6-.2 1-.6 3.2-.9 5.1-.2 1.8-.5 3.7-.5 4.1l-.1.9c2.3 2 3.6 3.1 4.5 3.7.8.6 2.4 1.7 3.5 2.4s3.3 1.9 4.9 2.7c1.5.7 3.9 1.8 5.1 2.3 1.3.5 3.7 1.3 5.3 1.9 1.6.5 4.3 1.3 5.9 1.8 1.7.5 4.3 1.2 5.8 1.6 1.6.5 3.7 1 4.7 1.2.9.3 2.6.6 3.6.8 1 .2 2.7.5 3.7.6 1.1.2 2.6.3 3.4.4 1.1 0 1.4-.1 1.7-.3.2-.1.6-.4 1.1-.7.4-.3 1.1-.7 1.6-.8.6-.2 1.2-.3 2.1-.3.9 0 1.5.1 2.3.3.7.2 1.3.5 1.5.7.3.2.4.4.3.7 0 .2-.2.5-.4.7-.2.2-.5.4-.6.4-.2 0-.6-.2-.9-.3-.3-.2-.8-.4-1.1-.4-.3-.1-.8 0-1.2.1-.4.1-1 .3-1.2.4-.3.1-.7.4-1 .7-.2.2-.6.7-.8 1.1-.2.3-.3.9-.4 1.2 0 .4 0 .6.2 1 .1.2.5.6.8.8.3.2 1 .4 1.5.5.4.2 1 .2 1.4.2.3 0 .9-.2 1.3-.4.5-.2 1.1-.6 1.5-.9l.8-.7c.1-1.9.2-2.8.3-3.3.1-.5.3-1.1.4-1.3.2-.2.5-.5.6-.5.2-.1.6-.1 1-.1.3.1.7.2.9.4.3.4.3.4.2 1.4-.1.5-.1 1.5-.2 2.2 0 .8-.1 1.5-.1 1.7 0 .2 0 .6.1.8.1.2.4.6.6.8.3.3.6.4 1 .4.4.1.8 0 1-.1.3-.1.6-.4.9-.6.2-.3.5-.7.6-.9.2-.3.4-.9.6-1.4.2-.7.3-1.3.3-2.5s0-1.6.2-1.8c.1-.1.3-.2.4-.2.1 0 .4-.1.7-.3.3-.2.6-.2 1.4-.2.6 0 1.4-.1 1.9-.2.7-.1 1.1-.1 1.9 0 .6.1 1.4.3 1.7.5.4.1.9.5 1.2.7.2.3.6.8.8 1.1.2.5.3.9.3 1.5s-.1 1.1-.3 1.4c-.1.3-.4.7-.7 1-.3.3-.8.6-1 .7-.2.1-.3.3-.3.4 0 .1.3.4.7.8.4.3 1 .7 1.3.8.4.2 1 .4 1.4.5.5.1.9.1 1 .1l-.2-1c-.1-.5-.3-1.6-.3-2.5-.1-.8-.1-2-.1-2.7 0-.8.1-1.3.3-1.5q.2-.3.5-.3c.3 0 .6.1.8.3.1.2.4.6.5 1 .1.4.2 1.4.3 2.2.1.8.2 1.8.4 2.2.1.3.3.8.4 1 .2.2.6.5 1 .6l.6.3c-1.3.4-1.4.5-1.5.7v.3c1.7-.1 2.4-.2 2.6-.2.3 0 .6 0 .8-.1.2-.2.2-.2 0-.4-.1-.2-.4-.2-.7-.2-.3 0-.7-.1-.8-.1-.3-.1-.3-.1.2-.4.3-.3.6-.7.8-1.2.2-.4.5-1.4.7-2.1.3-1 .4-1.8.4-2.7 0-1.4 0-1.4.4-1.8.3-.2.6-.3.7-.3.1 0 .4.1.6.2.3.2.5.4.5.5 0 .3-.1.3-.2.1-.2-.1-.3-.2-.4 0-.2.1-.2.4-.2.7 0 .3 0 .6.2.7.1.1.2.1.4-.1l.3-.3c.1.4.1.9.1 1.4q0 .8.2.9c.1 0 1.7 0 3.6-.1 1.9-.1 4.1-.1 4.8-.2.8 0 2.4-.2 3.5-.3 1.2-.1 3.3-.3 4.6-.5 1.3-.2 3.6-.5 5.1-.8 1.5-.2 3.9-.7 5.3-1 1.4-.3 3.7-.9 5-1.2 1.3-.4 3.7-1.1 5.3-1.5 1.6-.5 3.9-1.3 5.1-1.7 1.2-.4 3.2-1.2 4.5-1.7 1.2-.6 2.9-1.3 3.7-1.8.8-.4 2-1.1 2.8-1.5.7-.5 1.8-1.2 2.3-1.6l1-.7c-.1-.9-.2-1.6-.2-2v-.9c-1.8-2-2.6-2.9-3-3.4-.3-.4-.8-1.1-1.1-1.6-.3-.5-.8-1.3-1-1.8-.3-.5-.7-1.5-.9-2.2-.3-.8-.6-1.9-.7-2.4-.1-.6-.2-1.8-.3-2.6-.1-.9-.1-2.1-.1-2.7.1-.6.2-1.6.3-2.2.1-.6.3-1.5.5-1.9.2-.8.3-.9.1-1.1-.2-.1-.4-.5-.5-.8-.2-.3-.4-1-.5-1.5q-.2-.9-.1-1.8c0-.4.2-1.2.4-1.7s.5-1.3.8-1.8c.3-.5.8-1.2 1.2-1.6.4-.4.7-.8.6-.8 0 0-.9-.1-1.9-.2-1.2-.1-3.9-.1-7.3-.1-3 .1-5.8.2-6.2.2l-.7.1c-1 1.5-1.7 2.4-2.1 2.9-.5.6-1.4 1.5-2 2.2-.6.6-1.7 1.6-2.3 2.2-.7.5-1.9 1.4-2.7 2-.8.5-2.2 1.3-3 1.8-.9.4-1.9 1-2.3 1.1-.4.1-1.5.5-2.5.7-1 .3-2.5.6-3.2.7-1 .1-1.9.1-3.1.1-.9-.1-2.3-.2-2.9-.3-.7-.1-1.6-.3-2-.4-.4-.1-1.4-.5-2.3-.8-.8-.4-2.3-1-3.2-1.3-.9-.4-2.2-1.1-2.8-1.4-.7-.4-1.9-1.2-2.8-1.8-.8-.7-2-1.7-2.6-2.4-.6-.6-1.5-1.6-1.9-2.1-.4-.5-1.1-1.5-1.5-2.2-.5-.7-1.2-2-1.7-2.9-.8-1.6-.9-1.8-1.6-2.2-.4-.3-1.1-.7-1.7-.9-.6-.2-1.4-.5-1.9-.6-.5-.1-1.3-.2-1.8-.2s-1.3.1-1.9.3c-.6.1-1.5.5-2 .8-.5.2-1.3.8-1.7 1.2-.5.4-.9 1.1-1.5 2.1-.4.9-1 1.9-1.3 2.4-.4.5-1 1.3-1.6 1.9-.5.5-1.4 1.3-1.9 1.8-.6.5-1.7 1.1-2.8 1.7-1 .5-2.1.9-2.7 1.1-.6.1-2 .4-3.2.5-1.1.1-2.8.3-3.7.3-1.2.1-2.1.1-3.4-.1-1.1-.1-2.8-.3-3.8-.5-1.1-.2-2.5-.5-3.1-.6-.6-.2-1.6-.6-2.2-.8L41 77.8c-.6-.3-1.8-1-2.6-1.5l-2.7-1.6c-.9-.6-1.9-1.3-3.1-2.5-1.1-.9-2.2-2.1-2.6-2.7-.4-.5-1.1-1.4-1.5-2-.5-.6-1-1.5-1.2-1.8-.3-.4-.6-.8-.9-1-.3-.2-.6-.6-.8-.8-.1-.3-.2-.5-.3-.5-.1 0-2-.2-4.3-.5-2.2-.3-4.3-.5-4.5-.6-.3 0-.3 0-.4.3l-.2.4zM28 64.6c.2.4.6 1.1.9 1.6.4.4 1.1 1.4 1.7 2.1.7.7 1.6 1.7 2.2 2.3.6.5 1.6 1.4 2.2 1.9.7.5 1.8 1.2 2.4 1.7.7.4 2.1 1.2 3 1.7 1 .5 2.5 1.2 3.2 1.5.8.3 2.3.8 3.2 1.1 1 .3 2.5.7 3.5 1 1.6.4 1.6.4 1.9.2.1-.2.2-.3 0-.5 0-.1-.3-.3-.6-.4-.3 0-1.4-.4-2.5-.6-1.1-.3-2.5-.8-3.2-1-.8-.3-2-.7-2.8-1-.8-.4-2.1-1-2.9-1.5-.7-.4-1.9-1.1-2.6-1.5-.6-.5-1.7-1.3-2.4-1.8-.7-.6-1.9-1.6-2.6-2.4-.8-.8-1.9-2-2.4-2.7-.5-.6-1.1-1.5-1.4-1.9-.3-.5-.6-.8-.7-.8-.1 0-.2 0-.3.2-.1.1-.1.3.2.8zm49.5.6c.2.2.8.3 3.3.4 1.7.1 3.2.2 3.5.2.4 0 .4 0 .5-.2 0-.3-.1-.4-.4-.5-.2-.1-.6-.3-.9-.3-.3 0-1.8-.1-3.2-.1-2.3-.1-2.7-.1-2.8.1-.2.2-.2.2 0 .4zM44.4 71q-1.2.9-1.2 1.1c0 .1.1.3.2.3s.7-.3 1.2-.7c.6-.4 1.9-1.5 3-2.4 1.2-1 2-1.7 1.9-1.8 0-.1-.1-.2-.2-.3-.1 0-1 .6-2 1.4-.9.8-2.3 1.8-2.9 2.4zm50-2.9c0 .2.2.3.3.4.2.1 2.1.2 4.3.3 2.1 0 5 .2 6.3.2 1.4.1 6.6.2 11.5.2 5 .1 9.3.1 9.5 0 .3 0 .5-.1.6-.3 0-.1-.1-.3-.2-.5-.2-.2-.4-.2-1.2-.2h-7.6c-3.7 0-8.7 0-11.2-.1s-4.9-.1-5.5-.2c-.5 0-2.2-.1-3.7-.1-1.6-.1-2.9 0-3 0 0 .1-.1.2-.1.3zm-47.6 4.3c-.7.6-1.4 1.2-1.6 1.4-.1.1-.2.3-.2.4 0 .1.1.2.3.2.2 0 1.4-.9 3.6-2.8 1.8-1.5 3.3-2.9 3.5-3.1.2-.1.2-.3.2-.4-.1-.2-.2-.2-.3-.2-.1 0-1 .7-2.2 1.7-1.1.9-2.6 2.2-3.3 2.8zm-6.5-1.1c0 .1.1.2.2.2.2 0 1.1-.6 2-1.2 1-.7 1.8-1.4 1.9-1.5 0 0 .1-.2 0-.2 0-.1-.1-.2-.3-.2-.1 0-1 .5-2 1.3-1.4 1-1.8 1.4-1.8 1.6zm49-1.9c.1.1.3.7.5 1.3.2.5.8 1.6 1.3 2.4.5.8 1.1 1.8 1.5 2.3.3.5 1 1.3 1.6 1.9.5.5 1.3 1.2 1.8 1.6.4.3 1.2.8 1.8 1.1.6.4 2 1.2 3.2 1.8 1.2.6 2.3 1.2 2.5 1.2.2 0 .4-.1.4-.2.1 0 .1-.2 0-.3 0-.2-.9-.7-2.1-1.3-1.1-.6-2.8-1.6-3.7-2.1-1.1-.7-2.1-1.4-2.7-1.9-.5-.5-1.3-1.3-1.6-1.7-.3-.5-.9-1.3-1.3-1.8-.4-.6-1.1-1.9-1.6-2.9-.6-1-1.1-1.9-1.2-1.9-.1 0-.2 0-.3.1 0 0-.1.2-.1.4zm45.3.5c-.3.1-.5.2-.5.3 0 .1.2.1.4.1.3 0 .9 0 1.4-.1.5-.1 1.3-.2 1.9-.3l.9-.2c-2.2 0-3 0-3.2.1-.2 0-.6.1-.9.1zm-34.1 5.4c0 .1.2.2.3.2.2.1.9-.6 2.7-2.4 1.3-1.3 2.4-2.5 2.4-2.7 0-.1-.1-.2-.2-.2s-1.4 1.1-2.7 2.4c-1.6 1.6-2.5 2.6-2.5 2.7zM68 74c-.6.5-1.4 1.3-1.9 1.7-.5.3-1.5.9-2.2 1.3-.8.3-2.3.9-3.5 1.3-1.1.4-2.3.8-2.5.8h-.7c-.1.1-.2.2-.2.3 0 .2.1.4.2.4.2.1.7.1 1.2 0 .7 0 1.7-.3 2.9-.7 1.1-.4 2.4-.9 3-1.2.5-.3 1.5-.9 2.1-1.3.6-.4 1.6-1.3 2.2-1.9.6-.6 1.5-1.6 2-2.2.7-.9.9-1.3.8-1.5 0-.2-.1-.3-.3-.3-.1 0-.6.4-1.1 1.2-.5.6-1.4 1.5-2 2.1zm35.9 1c-1 1-1.5 1.6-1.5 1.8l.3.3c.1 0 .7-.5 1.5-1.3.7-.8 1.9-2 2.6-2.8.7-.8 1.2-1.5 1.2-1.6 0-.1-.1-.2-.2-.3-.1 0-.7.5-1.3 1.2-.6.7-1.8 1.9-2.6 2.7zm7.6.7c-.5.4-.9.9-.9 1.1 0 .1.1.2.2.2s.4-.2.7-.4c.2-.2 1.5-1.4 3-2.7 1.5-1.4 2.5-2.4 2.5-2.5 0-.1-.1-.2-.3-.3-.1 0-1 .8-2.2 1.8-1.2 1.1-2.5 2.3-3 2.8zm13.2 3c-.7.6-1.8 1.4-2.4 1.7-.6.4-1.6 1-2.4 1.4-.8.3-1.9.8-2.6 1-.7.1-1.8.3-2.4.4-.7.1-1.9.2-2.8.2q-1.5 0-1.8.1c-.1.1-.2.3-.2.4.1.3.2.3 2.6.3 1.9 0 2.9-.1 3.7-.2.7-.2 1.7-.5 2.3-.7.6-.2 1.6-.6 2.2-.9.7-.4 1.6-.9 2.2-1.3.6-.4 1.5-1.1 2.1-1.6.6-.5 1.4-1.3 1.9-1.7l2.2-2.2c.7-.7 1.3-1.4 1.3-1.5 0-.1-.1-.3-.3-.4-.2-.1-.5.1-2.2 1.9-1.1 1.1-2.6 2.5-3.4 3.1zm-71.4.4c-.3.1-.3.2-.3.4s.1.3.9.3c.7 0 1.1 0 1.3-.2.2-.1.2-.2.1-.4s-.2-.3-.7-.3c-.4 0-.7.1-.8.1 0 0-.3.1-.5.1zM6.5 102.6c0 .3.2.5.9 1 .5.4 1.5 1.1 2.2 1.5.7.5 2.2 1.4 3.3 2 1.1.7 3.1 1.7 4.5 2.4 1.3.6 3 1.5 3.7 1.8.8.3 2 .8 2.7 1.1.7.3 2.4.9 3.7 1.4 1.4.5 3.4 1.2 4.7 1.6 1.2.4 3.5 1.2 5.1 1.6 1.6.5 3.8 1.1 4.8 1.4 1.1.3 2.9.7 4.1 1 1.2.3 2.9.7 3.8.9 1 .1 2.8.4 4 .6 1.3.2 2.5.3 2.7.4h.5c.1 0 .2-.3.4-.5.1-.3.2-.5.2-.5-.1-.1-.8-.1-1.8-.2-.9-.1-2.3-.2-3-.4-.8-.1-2.4-.4-3.7-.6-1.2-.3-3.4-.8-4.8-1.1-1.4-.3-3.8-1-5.4-1.4-1.6-.5-4.1-1.2-5.6-1.7-1.5-.4-3.9-1.2-5.3-1.7s-3.4-1.2-4.5-1.6c-1.1-.5-2.6-1.2-3.3-1.5l-3.2-1.6c-.9-.5-2.4-1.4-3.3-1.9-.9-.6-2.2-1.5-3.1-2.1-.8-.6-2-1.5-2.7-2.1-.6-.6-1.2-1.1-1.3-1.1-.1 0-.1.2-.2.5 0 .3-.1.6-.1.8zm142 10c-1.5.7-3.8 1.7-5.1 2.2-1.2.5-3.4 1.3-4.7 1.8-1.3.4-3.7 1.2-5.4 1.6-1.6.5-4 1.1-5.3 1.4-1.2.4-3.3.8-4.5 1.1-1.1.2-3 .6-4.1.7-1 .2-2.5.5-3.3.6-.7.1-2.1.2-3 .4-.9.1-2.2.2-3 .3-.7.1-2.4.2-3.6.2-1.2.1-3.7.2-5.5.2-2.6 0-3.2 0-3.4.2-.1.1-.1.3-.1.6v.3c2.8 0 5.5 0 7.7-.1s4.6-.3 5.4-.4c.7 0 2.4-.3 3.8-.4 1.3-.2 3.5-.5 4.7-.8 1.3-.2 3.4-.6 4.8-.9 1.3-.3 3.4-.7 4.5-1 1.2-.3 3.1-.8 4.3-1.2 1.2-.4 3.8-1.2 5.7-1.9 2-.7 4.5-1.5 5.5-1.9 1-.4 2.9-1.3 4.2-1.9 1.3-.6 3.1-1.6 4-2.1.9-.5 1.8-1.1 2.1-1.2.3-.3.4-.4.4-.8 0-.3-.1-.5-.2-.4 0 0-.8.4-1.7 1-.9.6-2.8 1.6-4.2 2.4zm-84.5 6c.2.1.6.2 1 .2.3 0 .8-.1.9-.2.2 0 .4-.2.4-.3 0-.2-.1-.3-.2-.4h-1.3c-1 0-1.1 0-1.1.2s.1.4.3.5zm16 1.7-.1 1.6c.6 0 .7-.2.8-.6v-1.7c.1-1.1 0-1.2-.2-1.2-.1 0-.3 0-.3.1-.1.1-.1.9-.2 1.8zm1.6.8c.1.8.1 1.5.2 1.5 0 0 .4-.2.7-.4.4-.2.8-.6 1-.8.1-.2.3-.5.3-.7 0-.1-.1-.4-.3-.5-.1-.1-.4-.3-.6-.4-.2-.1-.5-.2-.7-.3h-.5c0 .1-.1.8-.1 1.6zm1.1 3.5c.1.2.5.7.8 1.2.5.6.8.8 1 .8l.3-.3c0-.1-.2-.4-.4-.7-.1-.2-.6-.7-.8-1-.3-.4-.7-.6-.8-.6-.1 0-.2.1-.3.1 0 .1.1.3.2.5zm-13.1 1c.1.2.6.6 1.2 1s1.1.8 1.3.7q.2 0 .2-.3c0-.1-.3-.5-1.1-1-.7-.5-1.2-.8-1.3-.8 0 0-.1 0-.2.1-.2.1-.2.2-.1.3zm-3 .7c-.1.5-.1.7.1.8.1.1.3.1.4 0 .1 0 .2-.4.2-.7.1-.5.1-.7 0-.8-.1-.1-.2-.2-.3-.2l-.2.2c-.1.1-.1.4-.2.7zM38.8 16.4c.1 0 .3.1.5.3.2.2.9 1.5 1.6 2.9.8 1.4 1.8 3.3 2.3 4.2q.9 1.6.9 2.1c0 .2-.1.5-.3.7-.1.1-.4.2-.6.2-.1 0-.5-.1-.7-.3-.3-.3-1-1.6-2.5-4.6-1.4-2.8-2-4.3-2-4.6-.1-.4 0-.5.2-.7.2-.1.5-.2.6-.2zm-2.7 1.7c.2 0 .4.1.6.1.1.1.3.4.4.8.2.3.8 2.1 1.5 3.9.8 1.8 1.3 3.4 1.3 3.7 0 .2-.1.5-.2.7-.1.1-.4.2-.6.2-.3 0-.5-.1-.7-.3-.2-.2-.8-1.8-1.5-3.6s-1.3-3.6-1.4-3.9c-.1-.3-.2-.6-.2-.8 0-.2.1-.4.3-.6.1-.1.3-.2.5-.2zm102.2 2.6c.2 0 .4.1.6.2.1.2.2.4.2.7 0 .2-.6 1.6-1.7 3.8-1.2 2.3-1.8 3.5-2.1 3.6-.2.2-.5.3-.6.3-.2 0-.4-.1-.6-.3-.1-.1-.2-.4-.2-.6 0-.3.4-1.3 1.4-3.2.8-1.5 1.6-3 1.8-3.4.2-.3.5-.7.7-.8.1-.2.4-.3.5-.3zm2.7 1.6c.1 0 .4.1.5.2.2.1.3.3.3.6s-.5 1.6-1.5 3.8c-.8 1.9-1.6 3.5-1.7 3.7-.2.2-.4.4-.6.5-.3.2-.3.2-.7 0-.2-.1-.4-.3-.5-.5 0-.3 0-.6.5-1.6.3-.8 1.1-2.4 1.7-3.7.6-1.3 1.2-2.5 1.4-2.7.2-.2.4-.3.6-.3zm-35.9 8.1c.3-.1.6 0 .8.1.2.2.3.4.3.6 0 .1-.1.4-.1.5-.1.2-.4.4-.6.4-.3.1-1.3.2-2.3.4-1 .1-2.4.2-3.3.2-.9.1-1.7.2-2.2.4-.4.1-.8.2-1 .2-.2-.1-.3-.2-.4-.4-.1-.1-.1-.4 0-.6 0-.3.2-.4.8-.7.7-.3 1.2-.4 3.5-.6 1.5-.2 3-.3 3.3-.4.4-.1.9-.1 1.2-.1zm-41.6 4.3c1.9.1 3.6.2 3.8.2.2.1.5.3.6.4.2.3.2.4.1.7-.1.2-.3.4-.5.5-.3.1-1 .1-2.4 0-1.1 0-2.9-.1-4-.1-1.9 0-2 0-2.2-.3-.1-.1-.2-.3-.2-.5 0-.1.1-.3.2-.5.2-.1.5-.2.7-.3.3-.1 2-.1 3.9-.1zm-1.9 19.5c.6 0 1.2.1 1.5.1.3.1.8.5 2.4 2l-.1 1.6c0 1.3 0 1.6-.3 2.1-.1.3-.4.7-.7.9-.2.2-.7.6-1.1.7-.5.3-.8.3-1.6.3-.7 0-1.1 0-1.6-.2-.3-.2-.8-.5-1-.7-.2-.2-.6-.7-.8-1-.2-.4-.3-1-.3-1.4-.1-.4 0-1.1.1-1.5 0-.4.3-1 .5-1.4.2-.3.6-.7.8-.9.2-.1.6-.3.9-.4.2-.1.8-.2 1.3-.2zm.3 3.4c.1.2.5.5.8.6.3.2.6.3.7.3 0-.1 0-.3-.1-.6-.1-.2-.4-.5-.6-.6-.2-.2-.5-.3-.6-.3-.1 0-.3.1-.3.2-.1 0 0 .2.1.4zm40.3-.3c.3 0 .8.1 1.2.2.4.2.9.5 1.3.9l.9.9c0 .2.1.7.2 1.3v1.5c0 .2-.2.8-.4 1.1-.2.4-.5.8-.8 1-.3.2-.9.5-1.3.6-.4.2-1 .2-1.4.2-.4-.1-1-.2-1.4-.4-.3-.1-.9-.5-1.1-.8-.3-.2-.7-.7-.8-1-.2-.4-.3-.7-.3-1.5 0-.9 0-1 .6-1.9.4-.9.6-1.1 1.2-1.4.4-.2.9-.4 1.1-.5.2-.1.6-.2 1-.2zm1 4c.1.1.3.2.4.2.1 0 .1-.1.1-.2s-.1-.4-.3-.5c-.2-.2-.5-.4-.6-.4-.3 0-.3 0-.1.4.1.2.4.5.5.5zm-24.3 7.9c.3 0 1 0 1.6.2.7.1 1.5.3 1.9.4.4.2.8.5 1.2.9.5.4.7.8.9 1.3.1.4.2 1 .2 1.3 0 .3-.1.9-.3 1.4-.2.4-.4.9-.6 1.1-.1.2-.6.9-1.1 1.4-.5.6-1 1.1-1.2 1.3-.2.2-.5.3-.5.3-.1 0-.2.1-.3.2-.1 0-.2.7-.4 2.6l.5.2c.4.2.8.3 1.8.3q1.3 0 2.1-.3c.4-.1.9-.4 1.2-.6.2-.3.6-.5.8-.5.1 0 .4.1.6.2.1.2.2.4.2.6 0 .2-.2.5-.6 1-.3.3-.9.7-1.3.9-.3.2-.9.4-1.3.4-.4.1-.9.2-1.3.2-.3 0-1.1-.1-1.6-.3-.6-.1-1.2-.3-1.4-.4-.2-.1-.5-.2-.6-.2-.1 0-.5.3-.9.7-.4.4-1.1.9-1.5 1.1-.9.4-.9.4-2.1.4-.9-.1-1.3-.2-1.5-.3-.1-.2-.2-.4-.2-.5 0-.2 0-.4.1-.4 0-.1.2-.3.4-.3.2-.1.5-.2 1-.1.6.1.7 0 1.6-.4.5-.2 1.1-.7 1.5-1 .5-.6.5-.6.6-1.7q.1-.9.3-2.1l-1-.8c-.7-.5-1.1-.9-1.3-1.4-.2-.3-.4-1-.6-1.5-.2-.6-.3-1.2-.3-1.9 0-.9.1-1.2.3-1.8.2-.4.5-.9.8-1.1.2-.2.8-.4 1.2-.6.3-.1.9-.2 1.1-.2zm2.3 6.5c-.4.3-.9.6-1 .8-.2.3-.2.4-.1.5.1.1.5.3.8.3.4.1.7 0 1.2-.2.4-.2.7-.4.7-.6 0-.1.2-.4.4-.5.2-.2.3-.4.3-1s0-.8-.1-.9c-.2 0-.5.3-.8.6-.3.3-1 .8-1.4 1zm-59.1.4c.4 0 2.7.3 5.1.7 2.4.4 4.7.8 4.9.8.3.1.6.3.6.4.1.2.2.4.2.6 0 .2-.1.4-.3.5-.2.1-.5.2-.7.2-.2 0-2.5-.3-5.1-.6-2.6-.4-4.9-.8-5.1-.8-.3-.1-.5-.3-.6-.5-.1-.2-.2-.5-.2-.5-.1-.1.1-.3.2-.5.3-.3.4-.3 1-.3zm18.6 3.1c.2 0 .8.2 1.3.4.5.3 1.2.7 1.5 1 .3.3.6.7.8 1 .1.4.3.7.6.8q.4.2.5.6c.1.3 0 .6-.1.8 0 .2-.4.6-.7.9-.3.3-1 .7-1.5.9-.7.4-1 .5-1.7.5-.5 0-1-.1-1.4-.3-.4-.2-.9-.6-1.2-.9-.3-.3-.6-.9-.8-1.3-.1-.5-.2-1-.1-1.7 0-.7.1-1.1.4-1.5.2-.4.4-.7.8-.9.2-.1.5-.2.6-.1.1 0 .3 0 .5-.1.1 0 .3-.1.5-.1zm-.3 2.7c-.1.1 0 .4 0 .6.1.2.3.5.5.6.2.1.5.1.7.1.1-.1.3-.2.5-.4s.3-.3.2-.6c-.1-.1-.4-.4-.7-.6-.4-.2-.7-.3-.8-.3-.1 0-.3.1-.3.2s-.1.3-.1.4zm-9.5-.4c.6 0 .8 0 1 .3.1.2.2.5.2.6-.1.2-.2.5-.4.6-.3.2-.8.2-4.7.4-4 .2-4.4.2-4.8 0-.2-.1-.5-.3-.5-.5v-.5c0-.1.2-.4.3-.5.3-.2.8-.3 4.2-.4 2.1 0 4.2-.1 4.7 0zM135 85.7c.5 0 .7.1.9.3q.3.2.3.6-.1.4-.4.7c-.3.2-1.1.4-3.9.8-2 .3-4.1.6-4.7.7-1 .1-1.1 0-1.3-.2-.2-.1-.3-.4-.2-.6 0-.2.1-.5.3-.6.3-.2 1.5-.5 4.3-1 2.2-.4 4.3-.7 4.7-.7zm-16.6.9c.3 0 .5.1.7.4.2.2.6.5 1 .8.4.2.9.5 1.1.7.1.1.4.5.5.7.2.3.3.8.3 1 0 .3-.1.8-.3 1.1-.1.3-.4.8-.6.9-.2.3-.6.6-1 .7-.4.3-.8.4-1.3.4-.4 0-1-.1-1.2-.3-.3-.1-.7-.3-.9-.6-.3-.2-.6-.6-.7-.9-.2-.2-.3-.7-.4-1 0-.3 0-.9.1-1.2.1-.4.3-.9.5-1.2.2-.3.4-.7.5-.9.1-.2.3-.4.6-.4.2 0 .4-.1.4-.1.1-.1.4-.1.7-.1zm-.9 3.4c0 .5.1.7.4 1 .2.2.4.3.7.3.2 0 .5-.1.7-.2.2-.1.5-.3.6-.5.1-.4.1-.4-.1-.7-.1-.1-.5-.4-.9-.6-.3-.2-.7-.3-.9-.3-.1 0-.2.1-.3.2-.1.1-.2.5-.2.8zm18.3-.3c.2 0 .5.2.6.2.2.1.4.3.4.5 0 .1 0 .4-.1.6-.1.2-.3.4-.6.5-.3.1-2.1.2-4.3.3-3.4.1-3.8 0-4.1-.1-.3-.2-.4-.4-.4-.7 0-.4.1-.5.3-.7.2-.1 1.1-.2 3.3-.4 1.7-.1 3.4-.2 3.8-.2h1.1z"/>
</svg>
