<svg version="1.2" xmlns="http://www.w3.org/2000/svg" width="2048" height="2048">
    <path fill-rule="evenodd" d="M938.5 407.1c2.7-.1 6.1.9 10.4 3.1 3.6 1.8 8 5.1 9.9 7.3 1.8 2.2 5.1 6.9 7.2 10.5 2.1 3.6 5.5 11 7.5 16.5 2.5 6.8 4.6 15.6 6.6 27.2 1.6 9.5 3.7 19.4 6.5 26.8l12.9 4.6c7.2 2.5 22.5 8.6 34 13.4 11.5 4.8 26.8 11.6 34 15 7.2 3.5 17 8.9 22 12 5 3.1 14 9.4 20 13.9s16.6 12.9 23.5 18.7c6.9 5.7 17.6 15.3 23.9 21.4 6.2 6 15 15.3 19.6 20.5 4.5 5.2 13.1 15.8 19 23.5 5.9 7.7 12.8 16.4 19.5 24.5l5.7-2.9c3.2-1.6 13.5-7.5 22.8-13.1 9.3-5.7 20.6-12 25-14.2 4.4-2.1 11.2-4.5 15-5.5 5.9-1.4 7.9-1.5 12.5-.5 3 .7 7.2 2.4 9.3 4 2.2 1.5 5.5 5.4 7.5 8.7 2.1 3.3 4.8 9.1 6 13 1.3 3.9 3 11.5 3.9 17 1 6.8 1.3 13.7 1 21.5-.3 6.3-1.5 16-2.6 21.5s-3.4 14-5.2 19c-1.7 5-6.2 16-9.9 24.5s-8.6 21.4-11 28.5c-2.4 7.7-6.4 24.3-9.6 40.5-3 15.1-6.6 32-8 37.5-1.4 5.5-5.3 18.3-8.6 28.5-5.3 15.9-8.4 22.9-22.3 50.5-8.9 17.6-16.5 33-16.9 34.2-.4 1.8.6 4 4.4 9.3 2.7 3.8 4.7 7.2 4.3 7.5-.3.3-4.8.5-19.3.5l-4.5-7c-2.5-3.9-4.5-7.6-4.5-8.3 0-.8-3.9-1.6-12.7-2.5-7.1-.7-18.4-2.2-25.3-3.4-6.9-1.1-20.4-4-30-6.3-9.6-2.4-28.8-7.7-42.5-11.9-13.8-4.1-31.1-9.7-38.5-12.4-7.4-2.8-21.4-8.4-31-12.6-9.6-4.2-17.8-7.6-18.3-7.6-.4 0-2.2 1.6-4 3.6-1.7 2-4.4 4.3-6 5-1.5.8-4.8 1.4-7.5 1.4-4.1-.1-5.2-.6-8.3-3.8-2.4-2.4-4.2-5.7-5.3-9.2-.9-3-1.6-6.6-1.6-8 0-2.1-.6-2.6-3.7-3.3-2.1-.4-6.5-2-9.8-3.6-3.3-1.7-6.1-2.9-6.2-2.8-.1.1 1.9 4.3 4.5 9.4 4.6 9 4.7 9.2 2.9 11.7-.9 1.4-2.5 2.6-3.5 2.6-.9.1-2.4-.7-3.3-1.7-.9-1-3.9-6.4-6.8-12.1-2.8-5.6-5.6-10.2-6.1-10.2s-1.3 1.7-1.6 3.7c-.3 2.1-1.2 4.8-2 6-.9 1.5-2.2 2.2-3.6 2-1.3-.1-2.8-1.3-3.4-2.7-1-2-.9-3.7.2-8 .7-3 1.7-7.1 2.9-12.8l-4.7-.4c-4.6-.3-4.9-.2-7.8 3.9-1.6 2.4-4.8 5.2-7 6.3-2.2 1.1-5.5 2-7.3 2-1.7 0-4.7-.4-6.5-1-2.3-.7-3.7-.7-5.2.2-1.7 1.1-2.3 1-3.9-.7-1.1-1.1-2.8-4.9-3.7-8.5-1-4-1.4-8-1-10.5.7-3.9.5-4.1-3.1-6-2.1-1.1-4-2.1-4.3-2.2-.3-.2-3.2 3.3-6.5 7.8-3.3 4.4-7.2 8.7-8.8 9.5-1.9 1-3.3 1.1-4.7.4q-2-1-2-4c0-1.7 1.3-5.1 5.9-12.5l-5.2-.8c-2.9-.4-7-1.6-9.2-2.7-2.2-1-4.9-3.1-5.9-4.7-1.1-1.5-2.4-4.7-3-7-1-3.7-2.4-5.1-14.6-14.3-7.4-5.6-18.6-14.5-36-29l-12.5 7.7 3.5 2.1c1.9 1.1 3.8 2.7 4.2 3.6.5.9.3 2.5-.2 3.6s-1.8 2-2.8 2c-.9 0-3.2-.9-5-2-1.7-1.1-3.4-2-3.7-2-.3 0-1 1.9-1.6 4.2-.6 2.4-1.7 5.3-2.5 6.5-.8 1.3-2.3 2.3-3.4 2.3s-2.7-1-3.5-2.3c-.8-1.2-1.5-3.9-1.5-9.7h-4.8c-3.2.1-5.5-.5-7.2-1.8-2.3-1.8-2.4-2.2-1.3-4.6.9-1.8 2.6-2.9 9.8-4.8l-.8-6.4c-.4-3.9-.3-7.2.3-8.4.5-1.1 1.9-2 3-2s3 1 4.3 2.2c1.2 1.3 3.2 3.5 6.7 7.8l12-4-9.8-9.8c-5.4-5.3-14.5-15.1-20.3-21.7-5.7-6.6-12.7-14.7-15.5-18-2.8-3.3-9.1-11.3-14-17.8-6.9-9.2-9.1-11.6-10-10.5-.5.7-5 6-10 11.7-4.9 5.8-15.9 18.1-24.4 27.5-8.5 9.5-17.8 19.8-20.6 23.1-2.8 3.3-8.7 10.7-13.1 16.5-4.4 5.8-12 16.6-16.9 24-4.9 7.4-12.3 20.3-16.6 28.5-4.2 8.3-9.7 20-12.3 26-2.6 6-6.2 15.5-8.1 21-2 5.5-5.2 16.1-7.4 23.5-2.1 7.4-5.2 20.2-6.8 28.5-1.7 8.2-3.7 18.8-5.7 32h-18l.3-5c.2-2.8 1.5-11.1 2.8-18.5 1.4-7.4 4.2-20.7 6.4-29.5s6.4-23.2 9.4-32 7.5-21 10.1-27c2.6-6 8-17.5 12-25.5 4.1-8 11-20.4 15.5-27.5 4.5-7.2 11.3-17.3 15.2-22.5 4-5.2 10.6-13.8 14.8-19 4.2-5.2 13.5-15.9 20.6-23.6 7.1-7.8 18.5-20.2 25.3-27.5 6.8-7.4 16.6-18.6 21.7-24.9 8.2-10.1 10-12.9 14.1-23 2.5-6.3 8.5-19.8 13.3-30 4.8-10.2 11.5-23.7 15-30 3.4-6.3 9.9-17.6 14.3-25 4.4-7.4 11.7-19.1 16.2-26 4.4-6.9 12.1-17.9 17-24.5 4.9-6.6 17.9-23.3 29-37 11-13.8 24.3-30.8 29.5-37.9 5.2-7.1 14.2-19.2 19.9-27 5.7-7.7 13.8-17.6 18-22 4.2-4.3 10.3-9.7 13.6-12.1 3.3-2.3 7.6-5.1 9.5-6 1.9-1 5.5-2.6 8-3.6 2.5-.9 6.3-1.8 8.5-1.8zM913.9 442c-6 5.9-14.2 15.9-21.9 26.5-6.8 9.3-15.7 21.5-19.9 27-4.1 5.5-16.3 21-27.1 34.5s-22.3 28.1-25.6 32.5c-3.3 4.4-10.1 14.1-15.1 21.5-4.9 7.4-12.8 19.8-17.5 27.5-4.6 7.7-13.5 23.2-19.6 34.5-6.1 11.3-14.7 28.1-19.1 37.5-4.3 9.3-8.2 18.6-8.7 20.5-.4 1.9-2.3 5.4-4.1 7.7L732 716c4.9 8.9 8.9 15.3 12 20 3.1 4.7 9.4 13.2 14 19 4.6 5.8 17.8 20 29.4 31.6 11.6 11.6 25.6 24.9 31.1 29.6 5.5 4.7 14.3 11.7 19.5 15.6 5.2 3.9 10.5 7.7 11.8 8.4 2 1.2 2.6 1 6-2.4 2-2 6-4.7 8.7-5.9 3.5-1.6 6.9-2.3 11.5-2.3 4 0 7.6.6 9.5 1.6 1.6.9 5 3.7 7.5 6.2l4.5 4.6c-2.9 5.7-4.2 7-5.5 7-1.1 0-3.4-1-5.1-2.3-2.3-1.6-4.7-2.3-9.7-2.5-5-.2-7.6.2-10.2 1.5-1.9 1-4.3 3.4-5.4 5.3-1.6 3-1.7 4-.8 7.2.7 2.2 2.2 4.3 3.5 4.9 1.3.7 4 .9 6.7.5 2.5-.4 6.5-.9 9-1.2 3.7-.5 5.2-.2 8.2 1.7 2.1 1.3 4.2 3.6 4.8 5.1.5 1.6 1.3 2.8 1.8 2.8.4.1 1.5-1.9 2.5-4.2.9-2.4 3.1-6.4 4.7-9.1 1.7-2.6 3.8-4.7 4.8-4.7.9-.1 2.5.7 3.4 1.7 1 1 1.8 2.5 1.8 3.3 0 .8-1.7 4.8-3.7 8.9-2.7 5.4-3.9 9-4.1 13-.3 4.4.1 6 1.5 7.4 1.3 1.4 2.6 1.7 4.8 1.2 1.6-.3 4.2-1.5 5.8-2.6 1.5-1 3.8-3.8 5.1-6.2 1.4-2.3 3.4-7.6 4.6-11.7 1.1-4.1 2.6-8.1 3.3-8.8.7-.7 2.1-1.3 3.2-1.3 1.1.1 2.6.6 3.3 1.3.7.7 1.2 2.9 1.2 4.8s-.7 6.4-1.5 10c-1.2 5.2-1.2 6.8-.2 7.9.6.7 2.1 1.7 3.2 2.1 1.8.7 2.2 0 4-7.3 1.1-4.4 2.7-8.5 3.5-9 .9-.6 2.3-.7 3.5-.2 1.1.5 4 .9 6.5 1 2.9 0 5.6.8 7.5 2.1 1.6 1.2 3.8 4 4.8 6.2.9 2.3 1.7 5.2 1.7 6.4-.1 1.3-.7 3.6-1.4 5.3-1.2 2.9-1.1 3 2.3 4.6 2 .9 4.5 1.9 5.6 2.3 1.8.6 2.1-.1 3.3-5.4.9-4.6 1.8-6.4 3.7-7.5 1.8-1.1 3-1.2 4.5-.5 1.6.8 1.9 1.7 1.5 4.7-.3 2.1-.8 8.3-1.2 13.8-.4 7.6-.2 11.4 1.1 15.7 1.1 4 2.3 6.1 3.9 6.9 1.8.9 2.7.7 4.7-.9 1.4-1 3.1-3.2 3.9-4.8l2.7-5.4c.7-1.4 1.9-6.7 2.6-11.8.8-6 1.8-9.6 2.8-10.2.8-.5 2.2-1 3-1 .8-.1 2.2.7 3 1.6 1 1.2 1.4 3.4 1.3 7-.3 5.1-.1 5.5 3 7.5 1.7 1.1 9 4.9 16.2 8.3 7.2 3.5 18.6 8.6 25.5 11.3 6.9 2.8 20.2 7.6 29.5 10.8 9.3 3.1 25.3 7.9 35.5 10.6 10.2 2.7 25.7 6.5 34.5 8.4 8.8 1.9 19.8 3.9 24.5 4.5 4.7.5 13.7 1 20 1h11.5c18.9-36.8 26.1-52 28.3-57.5 2.2-5.5 5.6-15 7.5-21 1.9-6 4.5-14.8 5.7-19.5 1.2-4.7 4.8-21.5 8-37.5s7.5-34.3 9.4-40.8c2-6.4 7.6-21.2 12.6-32.7 5-11.5 10.1-24.7 11.4-29.3 1.3-4.5 2.9-11.7 3.5-16 .6-4.2 1.1-12.4 1.1-18.2 0-5.8-.6-13.8-1.4-17.8-.8-3.9-2.3-9.7-3.5-12.7-1.1-3-3.1-6.6-4.3-7.9-1.9-2-3-2.3-6.8-1.9-2.5.2-7.4 1.8-11 3.4-3.6 1.7-16 8.7-27.5 15.6s-23.5 13.6-26.5 14.9c-3.1 1.4-7.5 2.4-10.1 2.4-3.2 0-5.6-.7-8.2-2.5-2-1.4-8.1-8.1-13.4-14.9-5.4-6.9-14.3-18.1-19.8-25-5.4-6.9-16.7-19.4-25-27.6-8.2-8.3-20.2-19.4-26.5-24.6-6.3-5.2-15.1-12.2-19.5-15.6-4.4-3.3-12.5-9-18-12.7-5.5-3.6-15.4-9.3-22-12.6-6.6-3.2-20.8-9.6-31.5-14.1s-26.7-10.8-35.5-14c-8.8-3.3-17.5-7.1-19.2-8.4-1.8-1.4-4.4-4.6-5.7-7.3-1.3-2.6-3.1-7.4-4-10.7-.9-3.3-2.5-11.6-3.6-18.5s-2.8-15.4-3.8-19c-1.1-3.6-3-9-4.2-12-1.3-3-3.9-7.9-5.7-10.8-1.8-2.8-4.3-5.9-5.5-6.7-1.3-.8-3.2-1.5-4.4-1.5-1.1 0-4.9 1.5-8.5 3.2-4.4 2.3-9.3 6.2-16 12.8zM726.6 727.7c1 1.6 5.6 7.9 10.3 14.2 4.7 6.2 8.8 11.5 9.1 11.6.3.1-3.5-5.9-8.5-13.5-5-7.5-9.5-14.6-10.1-15.6-.7-1.4-1.2-1.6-1.7-.7-.4.7 0 2.5.9 4zm63.8 74.5c4.2 3.8 7.5 6.5 7.5 6-.1-.4-6.7-7-14.7-14.7-12-11.5-13.3-12.6-7.5-6 3.9 4.4 10.5 11 14.7 14.7zm47.4 40c3.7 2.8 7.3 5.5 8 6 .6.4 1.4.5 1.7 0 .2-.4-3.4-3.3-8.1-6.4-4.6-3.2-8.4-5.6-8.4-5.3 0 .3 3 2.8 6.8 5.7zm112.7 42.1c-.3 2.3-.5 4.3-.3 4.5.2.2 1.9.1 3.8-.2 1.9-.3 4.1-1.1 4.8-1.8.7-.7 1.1-2.7 1-4.3-.2-2.2-.8-3-2.3-3.1-1.1-.1-3 0-4.2.3-1.7.3-2.3 1.4-2.8 4.6zm74.2 36.5c5.4 2.3 9.9 4 10.1 3.7.1-.3-4-2.6-9-5.2-5.1-2.6-9.6-4.9-9.9-5.1-.4-.2-.7.2-.8 1-.1.8 3.9 3.1 9.6 5.6zM922.6 463c1.4 0 2.8.8 3.4 2 .5 1.1.7 2.7.3 3.6q-.8 1.6 1.1 2.8c1.7 1 1.8 1.9 1.2 10.6-.4 5.2-.9 11.4-1.1 13.7-.4 3-1.1 4.6-2.5 5.3q-2 1-4 0t-2-4c0-1.6-.3-3-.7-3-.5 0-1.6 1.4-2.5 3-1 1.7-2.6 3-3.5 3-1 0-2.4-.5-3.1-1.2-.7-.7-1.2-2.2-1.2-3.3 0-1.1 2.3-8.3 5.2-16 2.8-7.7 5.6-14.6 6.1-15.3.5-.6 2-1.2 3.3-1.2zm83.7 113.1c2.9-.1 4.1.4 5.5 2.5 1.5 2.4 1.6 2.9.2 5.3-1.2 2-2.9 2.9-7.5 4q-6 1.4-8.5.5c-1.4-.5-3-2.2-3.5-3.7-.8-2.2-.6-3.1 1-4.7 1.1-1.2 3.6-2.5 5.5-2.9 1.9-.5 5.2-.9 7.3-1zm82 25.9c.4 0 1.6.5 2.7 1 1.1.6 4.2 5.6 7 11.5 2.8 5.8 5 11.6 5 13 0 1.4-.7 3.2-1.6 4-.8.8-2.5 1.5-3.7 1.5-1.2.1-3-.7-3.9-1.7-.9-1-3.7-6.2-6.2-11.5-2.5-5.4-4.7-10.9-4.7-12.2-.1-1.6.7-3 2.2-4.1 1.3-.8 2.7-1.5 3.2-1.5zM979 606.2c13.4.3 14.9.5 20 3 3 1.4 7.3 4.6 9.4 7 2.2 2.3 5.1 6.8 6.5 9.8 1.8 3.9 2.6 7.8 2.9 13.5.3 5.2-.2 10.4-1.2 14.8-.9 3.7-3.3 10.6-5.4 15.4-2 4.9-6.7 13.3-10.3 18.8-4.1 6.2-9.7 12.9-14.6 17.5-4.6 4.4-10.6 8.9-14.4 10.8-3.5 1.8-9.8 3.9-13.9 4.8-6.1 1.2-8.8 1.3-14.5.4-3.9-.6-9.2-2.1-12-3.3-2.7-1.3-7.2-4.3-9.8-6.7-2.8-2.6-6.1-7-7.8-10.5-1.6-3.3-3.3-8.9-3.8-12.5-.5-3.8-.6-9.4-.1-13.5.5-3.9 1.7-9.5 2.6-12.5.9-3 3.2-8.6 5.1-12.5 2-3.9 5.4-9.7 7.7-13 2.2-3.3 6.8-8.9 10.2-12.5 3.4-3.6 8.5-8.2 11.5-10.3 3-2 8.1-4.8 11.4-6.2 5.6-2.4 6.9-2.5 20.5-2.3zm-26.5 19.6-3 2.2c28.3-1.2 29.4-1.1 36.5 1.3 4.1 1.4 10 3.9 13 5.6 3 1.8 5.6 3 5.8 2.9.2-.2-.1-1.9-.7-3.8s-2.3-5.3-3.9-7.5c-1.8-2.6-4.4-4.6-7.2-5.8-3.2-1.3-6.7-1.8-12.5-1.7-4.4.1-9.6-.1-11.5-.4-2.7-.5-4.6 0-8.5 2.1-2.7 1.6-6.4 3.8-8 5.1zm-14.8 15.5c-.4.6-2.7 4.3-5 8.2-2.3 3.9-5.4 10.6-6.9 15-2.2 6.4-2.8 9.8-2.8 17 0 6.9.5 10 2.1 13.5 1.1 2.5 3 5.6 4.2 6.8 1.2 1.3 3.9 3.3 6 4.3 2 1 6.3 2.3 9.5 2.8 3.4.6 7.7.6 10.7 0 2.8-.5 7.5-2.1 10.5-3.6s8.1-5.2 11.4-8.3c3.2-3 7.3-7.5 9.2-10 1.8-2.5 3.3-4.8 3.4-5.3 0-.4-1.6-.7-3.5-.7s-4.9-.7-6.5-1.5c-1.6-.8-3.7-2.9-4.5-4.5-.8-1.6-1.5-4.8-1.5-7s.9-5.8 2-8 3.4-4.9 5-6c1.6-1.1 3.9-2 5-2s2.9.5 4 1 3.7 3.4 5.8 6.4l3.7 5.4c3.8-10.3 4.6-14 4.3-14.8-.3-.8-3.8-3.4-7.7-5.8-3.9-2.3-9.8-5.1-13.1-6.2-4.5-1.5-8.5-2-15.7-1.9-5.4 0-14.1.9-19.3 2-5.2 1.1-9.9 2.5-10.3 3.2zm-122.3.7c1.4 0 6.6 4.7 15.3 13.8 7.3 7.5 13.5 14.7 13.8 15.9.3 1.3-.1 3-.7 3.8-.7.9-2 1.6-2.8 1.6-.8 0-7.6-6.1-15-13.6-7.4-7.4-14-14.6-14.5-15.9-.7-1.8-.6-2.8.4-4 .7-.9 2.3-1.6 3.5-1.6zm266.6 13c1.4 0 4.7.8 7.5 1.7 3.2 1.1 6.8 3.5 10.1 6.8 2.8 2.7 6.7 7.9 8.6 11.5 2 3.6 4.7 9.9 5.9 14 1.8 5.8 2.3 9.9 2.3 18 0 8-.5 12.4-2.2 18.5-1.3 4.4-4.1 11.4-6.2 15.5-2.2 4.1-6.4 10.4-9.3 14-3 3.6-8.3 8.7-11.8 11.4-3.5 2.7-8.9 6-11.9 7.4-3 1.4-7.8 3.1-10.5 3.9-2.8.7-8.4 1.3-12.5 1.3s-10-.7-13-1.6c-3-.9-7.9-3.2-10.8-5-2.8-1.9-6.8-5.5-8.7-8.2-1.9-2.6-4.2-6.7-5-9.2-.9-2.5-1.9-7.6-2.2-11.5-.4-4.7 0-9.8 1.1-15.5 1-4.7 3.3-12.1 5.2-16.5 1.9-4.4 5.9-11.6 8.9-16 2.9-4.4 8.6-11.3 12.7-15.4 4-4 10-9.3 13.3-11.7 3.3-2.3 8.2-5.2 11-6.4 2.7-1.2 7.2-3.3 10-4.6 2.7-1.3 6.1-2.4 7.5-2.4zm-15.4 22.9-3.8 2.6c14.5 1.7 21.2 3 24.2 4s7.2 2.6 9.2 3.6c2.1 1.1 4 1.8 4.3 1.6.2-.1-.7-2.7-2.1-5.7-1.5-3-3.8-7-5.3-8.9-1.4-1.8-3.9-4.2-5.6-5.2-1.7-1-3.7-1.9-4.6-1.9-.9 0-4.1 1.6-7 3.7-3 2-7.1 4.8-9.3 6.2zm-25.1 19.4c-2.6 3.4-6.7 10.2-9.1 15.2-2.4 5-5.2 12.4-6 16.5-1 4.5-1.5 10.1-1.2 14 .3 4.6 1.2 7.9 3.1 11.3 1.5 2.6 4.4 5.8 6.4 7.1 2.1 1.3 5.6 2.9 7.8 3.6 2.4.8 7.2 1.1 12 .8 6.2-.3 9.5-1.1 14.5-3.4 3.6-1.7 8.7-5 11.5-7.4 2.7-2.4 6.7-6.4 8.8-8.9 2.1-2.5 4.9-6.7 6.3-9.4 1.3-2.6 2.3-4.7 2.1-4.7-.1 0-1.8.4-3.7 1-2.8.8-4.3.6-7.5-1-2.4-1.1-4.9-3.4-6.2-5.7-1.5-2.6-2.3-5.5-2.3-9.3-.1-4 .5-6.2 2-8.3 1.1-1.5 2.8-2.9 3.7-3.2 1-.2 2.1-1.3 2.5-2.5.5-1.1 2-2.3 3.5-2.6 1.8-.3 3.6 0 5 1 1.3.9 3.8 3.7 5.5 6.2l3.3 4.6c.5-6.5 0-8.3-1.2-9.5-1-1-4.7-3.3-8.3-5.2-3.6-1.9-10.1-4.3-14.5-5.5-5.7-1.4-10.7-2-17.5-1.9-5.2.1-10.9.4-12.6.6-2.5.3-4.2 1.8-7.9 6.6zm48.1 21.5c.2 1.2.9 2.2 1.4 2.2.5 0 1-1.1 1.1-2.4.1-1.4-.4-2.7-.9-3.1-.6-.3-1.3-.2-1.6.2-.2.5-.3 1.8 0 3.1zM799.2 660c1 0 8.4 2.8 16.5 6.2 8.1 3.5 15.3 6.9 16 7.5.7.7 1.3 1.9 1.3 2.5 0 .7-.4 1.9-.8 2.6-.4.8-1.8 1.4-3.2 1.4-1.4 0-8.8-2.5-16.5-5.6-7.7-3.2-14.8-6.5-15.8-7.4-1-.9-1.8-2.4-1.9-3.2-.1-.9.4-2.1 1.2-2.8.8-.7 2.2-1.2 3.2-1.2zm471.1 13c1.2 0 2.8.5 3.5 1.2.7.7 1.2 2 1.2 2.8 0 .8-3.8 7.2-8.5 14.3-5 7.4-9.3 12.9-10.5 13.2-1.1.3-2.7-.1-3.5-.8-.9-.6-1.6-2.2-1.7-3.5 0-1.3 3.6-7.4 8.6-14.7 6.6-9.5 9.3-12.5 10.9-12.5zm-399.4 6c1.6 0 5.3 1.9 9.3 5 4.4 3.2 7.3 6.3 8.3 8.5 1.1 2.7 1.3 4.3.5 7-.6 2.3-2.2 4.2-4.3 5.5-2.1 1.2-5 1.9-8.5 2-2.8 0-6.4-.6-8-1.4-1.5-.7-3.9-2.7-5.5-4.5-2-2.3-2.7-4.2-2.7-7.1 0-2.2.5-5 1.1-6.3.6-1.2 2.5-3.7 4.2-5.5 1.9-1.9 4.1-3.2 5.6-3.2zm-1.4 15.5c.3 1.5 1.4 2.7 2.7 3.1 1.3.3 3.4.4 4.7.2 1.4-.2 2.6-.8 2.8-1.3.2-.5-1.6-2.5-4.1-4.2-3.8-2.8-4.6-3.1-5.5-1.8-.6.8-.9 2.6-.6 4zm413.5-13.3c1.8.2 2.6 1 2.8 2.8.3 1.9-2 5.5-10.1 15.5-5.7 7.1-11.1 13.3-12 13.8-1 .4-2.6.2-3.7-.3-1.3-.6-1.9-1.9-1.8-3.5.1-1.4 4.3-7.5 10.2-14.7 5.5-6.8 10.4-12.6 11-13.1.6-.4 2.2-.6 3.6-.5zM989.5 719c.8 0 3.6.5 6.2 1.2 3 .8 6.2 2.6 8.5 4.8 3 2.8 3.7 4.2 3.8 7.3 0 3.1-.8 4.6-4.8 8.8-2.6 2.9-6.2 5.8-8 6.5-2.3 1-3.4 2.3-4 4.7-.5 1.7-.9 3.3-.8 3.5.1.1 2.2-.3 4.9-1 3.5-1 5.2-1 6.5-.2.9.6 1.7 2.2 1.7 3.5 0 1.5-1 2.9-3 4.1-1.7 1-5.5 2.1-8.5 2.4-3.3.4-7.7.2-11-.6-3-.7-7.4-2.2-9.8-3.2-2.3-1-4.7-2.7-5.2-3.8-.8-1.6-.6-2.4 1-4 1.1-1.1 2.4-2 3-2 .5 0 3 .9 5.5 2s4.8 1.8 5.2 1.6c.5-.2 1.4-2.3 2.1-4.7 1.1-3.8 1.1-4.8-.2-7.4-1-1.9-1.6-5.7-1.6-10.1-.1-7 0-7.3 3.5-10.3 2-1.7 4.2-3.1 5-3.1zm107.4 78c.9 0 2.8 1.2 4.2 2.7 1.5 1.6 3.6 4.4 4.8 6.3 1.2 2.1 2.1 5.2 2.1 7.8 0 2.3-.7 5.4-1.5 7-.9 1.5-3 3.6-4.8 4.6-1.8 1.1-5 2-7.2 1.9-2.2 0-5.5-.7-7.3-1.6-1.7-1-3.9-3.1-4.7-4.7-.8-1.6-1.5-4.8-1.5-7s.7-5.4 1.5-7c.8-1.6 2.7-3.9 4.2-5 1.6-1.2 3.5-2 4.3-2 .8.1 2.1-.6 2.9-1.5.7-.8 2.1-1.5 3-1.5zm-7.3 15.8q-.6 2.2 1.4 4.2c1.4 1.4 2.7 1.8 4.2 1.4 1.3-.4 2.6-1.2 3-1.8.4-.6.8-1.7.8-2.3 0-.7-.7-2.7-1.5-4.3-.8-1.6-1.9-3-2.4-3s-1.8.8-2.9 1.8c-1.1.9-2.3 2.7-2.6 4zm60.7 9.2c.7 0 10.4 1.1 21.7 2.4 17.7 2.2 20.7 2.8 22.2 4.5 1.4 1.6 1.6 2.6.8 4.1-.6 1.1-2 2.1-3.3 2.3-1.2.1-11.2-.9-22.3-2.3-13.4-1.7-20.6-3-21.8-4-.9-.8-1.7-2-1.7-2.7 0-.6.7-1.9 1.6-2.7.9-.9 2.2-1.6 2.8-1.6zm2.4 11c.2 0 9.9 2.3 21.5 5.1 11.9 2.9 22.1 5.9 23.1 6.8 1 .9 1.8 2.3 1.7 3.1 0 .8-.5 2.1-1.2 2.8-.7.6-2.3 1.2-3.8 1.2-1.4 0-11.3-2.3-22-5.1s-20.3-5.5-21.3-6c-.9-.5-1.8-2-1.9-3.4-.1-1.5.6-2.8 1.8-3.4 1-.6 2-1.1 2.1-1.1z"/>
</svg>
