<svg version="1.2" xmlns="http://www.w3.org/2000/svg" width="2048" height="2048">
    <path fill-rule="evenodd" d="M1540 714.4c3.6.2 9.4 1.4 13 2.6 3.6 1.2 10.1 3.9 14.5 6 4.4 2.2 11.2 6.1 15 8.8 3.8 2.7 10.6 8.2 15 12.3 4.5 4.1 11.4 11 15.4 15.4 4.1 4.4 10.9 12.3 15.1 17.5 4.2 5.2 11.2 14.5 15.6 20.5 4.3 6 10.8 15.7 14.3 21.5 3.5 5.8 9.2 16.1 12.6 23 3.5 6.9 7.5 15.4 9 19 1.5 3.6 4.9 12.5 7.6 19.8 2.7 7.2 7.3 21.6 10.3 32 3 10.3 7.2 26.8 9.5 36.7 2.2 9.9 5.1 24.5 6.5 32.5 1.4 8 3.5 20.6 4.5 28 1.1 7.4 2.9 21.6 4 31.5 1.1 9.9 2.7 25.4 3.5 34.5.9 9.1 2.2 25.7 3.1 37 .8 11.3 2.1 32.9 3 48 .8 15.1 2.2 42.3 3.1 60.5.9 18.2 1.8 57.3 2.1 87 .4 36.3.2 59.6-.6 71-.7 9.3-1.9 23.1-2.8 30.5-.9 7.4-1.5 15.3-1.5 17.5.1 2.2-1 9.8-2.4 17-1.4 7.2-4.6 21.1-7.1 31-2.4 9.9-7.6 27.5-11.5 39-3.8 11.5-9.2 26.6-12 33.5-2.8 6.9-7.5 17.5-10.6 23.5-3 6-7.9 14.8-10.9 19.5-3.2 4.9-9.6 12.5-15.2 18.1-5.3 5.2-13 11.9-17.1 14.8-4.1 2.9-9.5 6.3-12 7.6-2.5 1.3-7.4 3.1-11 4-4.1 1.1-8.6 1.5-12 1.2-3-.2-7.5-1.5-10-2.7-2.5-1.3-6-3.5-7.9-4.9-1.9-1.4-5.4-5.3-7.9-8.6-2.9-4-5.1-8.6-6.7-14-1.3-4.4-4.2-14.7-6.4-23-2.2-8.2-4.5-18.2-5.1-22-.9-5.5-.8-11.8.5-29 .9-12.1 1.7-26 1.8-31 .1-5-.3-9.6-.8-10.4-.8-1.2-3-1.3-11.5-.8-5.8.4-13.2 1.4-16.5 2.2-3.3.9-8.2 2.8-10.9 4.3-2.6 1.5-5.2 3.2-5.6 3.7-.4.5-.3 7.3.1 15 .6 8.5.5 19.2-.1 27.3-.6 8.4-2 17.2-3.9 24.5-1.6 6.1-4.5 15.2-6.5 20.2s-5.6 12.5-8.1 16.8c-2.5 4.2-7.4 10.7-10.9 14.5-3.5 3.7-9 8.5-12.2 10.6-3.2 2.2-7.7 5.2-9.9 6.7s-6.9 4.1-10.5 5.8c-5.5 2.6-7.7 3.1-14.3 3.1-5.6 0-9.8-.7-15.2-2.5-4.1-1.4-9.6-3.6-12.3-4.9-2.6-1.3-7.4-4.4-10.7-6.9-3.3-2.6-11.6-10.2-18.5-16.9-7-6.8-14.6-15.4-17.2-19.3-2.5-3.8-7.6-12.4-11.2-19-3.6-6.6-8.3-16.3-10.4-21.5-2.2-5.2-5.1-14-6.5-19.5-1.4-5.5-3.1-12.9-3.7-16.5-.6-3.6-1.1-6.6-1.3-6.7-.1-.1-3.8.9-8.2 2.2-4.4 1.4-14.8 4-23 6-8.3 1.9-21.8 4.6-30 6-8.3 1.4-22.9 3.4-32.5 4.5-9.6 1-24.5 2.4-33 2.9-8.5.6-23.6 1.3-33.5 1.6-9.9.4-28.6.2-41.5-.4-12.9-.6-30.5-1.8-39-2.7-8.5-.8-23.2-2.6-32.5-4s-23.8-3.8-32-5.5c-8.3-1.6-21.8-4.7-30-6.9-8.3-2.1-23.3-6.6-33.5-9.9-10.2-3.3-18.7-6.1-19-6.1-.3 0-.8 9.1-1.1 20.2-.5 14.9-1.3 24.1-3.2 34.8-1.4 8-5.7 26.9-9.5 42-3.9 15.1-7.8 31.5-8.7 36.5-.9 5-2.6 11.5-3.8 14.5-1.3 3.6-3.8 7.2-7.1 10.6-2.8 2.7-7.7 6.2-10.9 7.7-3.1 1.5-8.7 3.4-12.5 4.3-3.7.9-10.1 1.6-14.2 1.6s-10.9-.7-15-1.6c-4.1-1-10.9-3.1-15-4.7-4.1-1.7-10.9-5.1-15-7.7-4.1-2.6-11.3-7.9-16-11.8-4.7-3.9-11.8-11.1-15.9-16s-10.6-13.9-14.6-19.9c-4-6-11.5-18.6-26-44.7l-7.5 7.8c-4.1 4.4-11.5 12.6-16.5 18.3-5 5.8-12.8 13.8-17.5 17.9-4.7 4.2-12.1 9.9-16.5 12.7-4.4 2.9-10.7 6.6-14 8.3-3.3 1.6-10 4.4-15 6.1-5 1.8-13.5 4.1-19 5.3-7.3 1.5-13.5 2.1-23 2.1-10-.1-14.9-.6-21-2.2-4.4-1.2-10.3-3.2-13-4.5-2.8-1.4-7.4-4.6-10.4-7.3-3.3-3-6.4-7.1-8.3-10.8-1.7-3.5-3.4-9.2-4-13.5-.9-6.2-.8-8.9.6-15.5 1-4.9 3.6-12.2 6.9-19 2.9-6 11-19.3 17.8-29.5 6.9-10.2 15.5-22.5 19.1-27.5 3.5-5 12.3-17.8 19.5-28.5 7.1-10.7 17.2-26.5 22.5-35 5.2-8.5 11.6-19.4 14.2-24.2 2.5-4.9 4.6-9.5 4.6-10.3 0-.8-2.7-7.5-6.1-14.7-3.4-7.3-7.8-17.6-9.9-22.8-2.1-5.2-5.8-15.8-8.3-23.5-2.5-7.7-5.6-19.2-7.1-25.5-1.4-6.3-3.2-15.8-4-21-.9-5.2-2-16.7-3.5-41.5l-8.2-8.5c-4.5-4.7-13.5-14.8-19.9-22.5-6.5-7.7-16.6-20.3-22.5-28-5.9-7.7-15.6-20.7-21.5-29-5.8-8.2-15.6-22.4-21.7-31.5-6-9.1-14.8-22.8-19.5-30.5-4.7-7.7-12.7-21.7-17.8-31-5.2-9.3-12.5-23.5-16.3-31.5-3.8-8-9.8-21.5-13.4-30-3.6-8.5-9.1-23.4-12.3-33-3.2-9.6-7.6-24.7-9.8-33.5-2.2-8.8-5-21.6-6.1-28.5-1.1-6.9-2.5-16.5-3.1-21.5-.5-5-1-17.8-1-28.5 0-12 .6-23.6 1.5-30 .9-5.8 2.5-14.5 3.6-19.5 1.2-5 3.5-12.8 5.1-17.5 1.7-4.7 4.6-11.6 6.5-15.5 1.9-3.8 6-10.8 9.1-15.5 3.1-4.7 9.2-12.1 13.7-16.6 4.6-4.6 11.6-10.2 16.5-13.2 4.7-2.9 12.1-6.4 16.5-7.8 5.3-1.8 11.2-2.8 17.5-3.2 7-.3 11.6 0 17.5 1.3 4.5 1 11.5 3.6 16 5.9 4.4 2.3 10.7 6.2 14 8.7 3.3 2.5 9.1 8 13 12.1 3.9 4.1 9.9 11.7 13.3 16.9 3.5 5.2 9.7 16.2 13.7 24.4 4 8.3 13.2 29.9 20.5 48 7.3 18.2 16.1 40 19.7 48.5 3.6 8.5 9 20.5 12 26.5s7.3 13.7 9.6 17c2.2 3.3 6.1 8.4 8.6 11.4 2.5 2.9 7.3 7.3 10.6 9.7 3.3 2.3 8.9 5.6 12.5 7.3 3.6 1.7 9.9 3.8 14 4.7 5.6 1.3 10.2 1.5 18 1.1 6.5-.3 14.3-1.5 20.5-3.2 5.5-1.4 18.8-5.9 29.5-10 10.7-4 30.1-11.5 43-16.5 12.9-5.1 30-11.4 38-14 8-2.7 19.7-6.2 26-7.9 6.3-1.6 16.9-3.9 23.5-5 6.6-1.1 17.9-2.6 25-3.2 7.9-.7 21.2-.9 34-.5 11.5.3 27.3 1.1 35 1.7 7.7.6 22.8 2.1 33.5 3.5 10.7 1.3 26.3 3.8 34.5 5.5 8.3 1.7 20.8 4.9 28 7 7.2 2.2 18 6 24 8.4 6 2.5 15.6 7.1 21.3 10.3 5.6 3.1 17.1 10.6 25.5 16.5 8.4 5.9 17.6 12.1 20.4 13.8 2.9 1.6 5.5 2.8 5.8 2.7.3-.2-1-7.3-2.9-15.8-2-8.5-4.9-22.2-6.6-30.5-1.7-8.2-4.1-21.5-5.5-29.5-1.3-8-3.1-19.9-4-26.5-.8-6.6-1.5-16.3-1.5-21.5 0-5.2.7-12 1.5-15s2.7-7.2 4.3-9.4c1.5-2.1 4.7-5.1 7.2-6.7 2.5-1.6 7.4-3.9 11-5.1 3.6-1.1 9.4-2.3 13-2.7 3.6-.3 9.9-.3 14 .1s11.1 1.8 15.5 3.2c4.4 1.4 14.3 5.2 22 8.4 7.7 3.3 16.7 6.5 20 7.1 3.3.7 7.3.9 9 .6 1.7-.4 5-1.8 7.5-3 2.5-1.3 10.5-5.9 17.8-10.4 7.2-4.4 18.6-10.8 25.2-14.1 6.6-3.3 15.9-7.6 20.8-9.6 4.8-2 13.2-5.2 18.7-7.1 5.5-1.9 14.7-4.6 20.5-6 9.1-2.2 13.3-2.6 31.8-2.9 20.7-.4 21.2-.5 22.7-2.6.8-1.3 4.8-11.8 9-23.3 4.1-11.5 9.6-25.3 12.2-30.5 3.4-6.7 6.6-11.3 10.8-15.6 4.6-4.7 7.4-6.6 12-8.2 4.5-1.6 7.6-2.1 12.5-1.8zm-21.5 34.1c-2.4 5-6.9 16.2-10 25-3 8.8-6.7 18.7-8 22-1.4 3.3-3.8 7.6-5.3 9.5-1.6 1.9-4.6 4.4-6.8 5.5-3.5 1.7-6.1 1.9-24.4 2-15.3.1-22.7.6-29 1.9-4.7 1-13.7 3.5-20 5.6-6.3 2.1-16.9 6.2-23.5 9.1-6.6 2.8-15.8 7.2-20.5 9.7-4.7 2.5-14.1 8-21 12.3-6.9 4.3-15.7 9.2-19.5 11-4.6 2.1-9.1 3.4-13 3.7-3.6.3-8.4-.2-12-1.1-3.3-.8-13.2-4.4-22-8-8.8-3.5-18.5-7.3-21.5-8.3-4.2-1.4-8.4-1.9-17.5-1.9-11 0-12.5.2-17.8 2.8-3.1 1.5-6.4 3.7-7.2 5-.8 1.2-1.8 5.4-2.1 9.2-.4 4.3 0 12.9 1 22 1 8.3 3 22.7 4.6 32 1.6 9.4 4.3 23.8 6 32 1.7 8.3 6 26.9 9.5 41.5 3.4 14.6 8.2 34.8 10.5 45 2.3 10.2 5.7 23.9 7.6 30.5 1.9 6.6 4.9 14.9 6.7 18.4l3.2 6.5c13.2 5.1 23.5 8.9 31.5 11.7 8 2.7 19.9 6.4 26.5 8 6.6 1.7 17 3.9 23 4.9 6 1 18 2.4 26.5 3.1 9.4.7 22.6.9 33.5.5 9.9-.3 23.8-1.3 31-2.1 7.2-.8 15.8-2 19.3-2.5 3.4-.6 6.4-1.6 6.6-2.2.3-.7.7-2.9 1-4.8.3-1.9 2-5.7 3.9-8.5 2.2-3.1 5.1-5.8 7.8-7.3 2.4-1.2 6-2.2 7.9-2.2 1.9 0 4.6.6 6 1.3 1.5.7 2.6 2.3 2.8 3.7.1 1.4-.3 3.1-1 3.8-.7.7-3.3 1.3-5.8 1.2-2.8 0-5.4.7-6.9 1.7-1.4 1-3.1 3.3-3.8 5.1-.7 1.7-1.3 4.9-1.3 7 0 2.6.6 4.4 2.2 5.9 1.5 1.4 3.6 2.3 5.8 2.3 1.9.1 4-.5 4.6-1.2.6-.7 1.6-3 2.3-5q1.1-3.8 3.4-4.4c1.2-.4 3-.4 4 0 .9.3 3 3.5 4.7 7.1 1.7 3.6 3 7.5 3 8.8 0 1.2-.5 2.8-1.2 3.5-.7.6-2.5 1.2-4 1.2-1.7 0-3.2-.7-3.7-1.7-.8-1.7-1.1-1.7-4.7.1-2.2 1.1-5.9 1.9-8.4 1.9s-6.3-.9-8.5-2.1c-3.4-1.7-4.3-1.8-6-.7-1.1.7-7.2 2.1-13.5 3-6.6 1-20.7 2-33 2.3-11.8.2-31-.1-42.5-.7-11.5-.7-26.2-1.9-32.5-2.7-6.3-.8-16.7-2.6-23-4-6.3-1.4-19.8-5.3-30-8.6-10.2-3.4-20.4-6.9-22.8-7.9-2.3-1.1-4.2-1.7-4.2-1.4 0 .3 1.8 3.8 4 7.8 2.2 3.9 4 7.9 4 8.7.1.8-.6 2.1-1.5 2.8-.8.6-2.4 1-3.5.7-1.3-.3-4.1-4.5-8.4-12.7-3.5-6.8-8.7-17.8-11.5-24.5-2.8-6.8-6.7-17.6-8.7-24-1.9-6.5-6-21.7-9-33.8-3-12.1-5.8-22.2-6.1-22.5-.3-.3-3.3-1.4-6.7-2.5-3.4-1.1-9.5-4.1-13.6-6.7-4.1-2.6-14.2-9.4-22.5-15.2-8.2-5.8-19.3-12.7-24.5-15.5-5.2-2.7-14.2-6.8-20-9.1-5.8-2.3-15.9-5.7-22.5-7.5-6.6-1.8-16.5-4.2-22-5.3-5.5-1.2-16.3-3-24-4.1-7.7-1.1-21.4-2.7-30.5-3.5-9.1-.9-26-2.1-37.5-2.6-15.2-.8-25.5-.8-37.5 0-9.1.6-21.7 2-28 3.1-6.3 1.1-16 3.1-21.5 4.5s-14.3 3.9-19.5 5.6c-5.2 1.7-18.3 6.3-29 10.3-10.7 4.1-29.9 11.4-42.5 16.3-12.6 5-28 10.6-34 12.6s-15.5 4.6-21 5.7c-6.1 1.2-13.9 2-20 2-7.3 0-12.6-.7-19.5-2.4-5.2-1.4-12.4-3.9-16-5.7-3.6-1.8-9-5-12-7-3-2.1-8.8-7.2-12.7-11.4-4-4.2-9.7-11.3-12.7-15.8-2.9-4.6-7.6-12.8-10.4-18.3-2.7-5.5-7.1-15-9.7-21-2.6-6-11.5-27.9-19.7-48.5s-18.1-44-21.9-52c-3.9-8-9.4-18.1-12.4-22.5-2.9-4.4-7.7-10.7-10.6-14-2.9-3.3-7.8-8.1-10.8-10.7-3.1-2.7-8.5-6.3-12.1-8.2-3.6-1.9-9.6-4.2-13.5-5.1-4.8-1.2-9.3-1.5-14.5-1.2-4.1.3-10.2 1.5-13.5 2.6-3.3 1.2-8.4 3.6-11.4 5.4-2.9 1.7-8.6 6.2-12.5 9.8-3.9 3.6-9.4 9.9-12.2 14-2.8 4.1-6.8 10.8-8.9 14.9-2.1 4.1-5.3 12-7.1 17.5-1.8 5.5-4.3 15.4-5.5 22-1.9 10.1-2.3 15.7-2.3 36 0 14.7.4 27.7 1.2 33.5.8 5.2 2.7 16.3 4.3 24.5 1.6 8.3 4.6 21.3 6.8 29 2.2 7.7 5.8 19.4 8.1 26 2.3 6.6 6.6 18.1 9.7 25.5 3 7.4 10.4 23.4 16.3 35.5 6 12.1 15 29.2 20 38 5.1 8.8 13.9 23.4 19.7 32.5 5.8 9.1 15.7 23.9 22 33 6.4 9.1 19.3 26.8 28.8 39.5 9.4 12.7 20.7 27.3 25 32.5 4.3 5.2 10.8 12.8 14.4 16.9 3.9 4.4 8 7.9 10.1 8.7 2 .8 4.1 2.5 4.9 4.1.9 1.8 1.7 8.7 2.2 18.8.5 8.8 1.4 20 2 25 .6 5 2.2 14.4 3.6 21 1.3 6.6 5.3 20.5 8.7 31 3.5 10.5 9.6 26.2 13.5 35 4 8.8 12.7 26.6 19.3 39.5 6.7 12.9 18.4 35.4 26.1 50 7.7 14.6 18.5 34.4 24 44 5.5 9.6 15.6 27.8 22.5 40.5s14.9 26.8 17.7 31.5c2.9 4.7 8.1 12.3 11.5 17 3.5 4.7 9.9 12.1 14.4 16.5s12.1 10.8 17.1 14.1c5 3.3 12.1 7.2 16 8.6 3.9 1.4 10.1 3.2 14 3.8 4.1.8 10 1 14.2.6 4-.3 9.7-1.5 12.5-2.6 2.9-1 6.7-3.4 8.4-5.2 1.8-1.8 3.6-4.2 4.2-5.3.5-1.1 1.9-7.2 3.1-13.5 1.2-6.3 4.9-21.6 8.1-34 3.3-12.4 6.9-27.5 8-33.5 1.1-6 2-13 1.9-15.5-.1-2.5.2-15.1.6-28 .6-17.2.5-25.8-.5-32-.6-4.7-3-14.6-5.2-22s-6.4-19.6-9.5-27c-3-7.4-7.6-18.2-10.2-24-2.6-5.8-7.1-14.7-9.9-19.7-2.9-5.1-4.7-9.5-4.2-9.8.5-.3 3.1.1 5.7.8 3.5.9 6.5 2.8 11.1 7.2 3.6 3.3 9.3 10.3 12.8 15.5 3.4 5.2 8.5 14.2 11.3 20 2.7 5.8 6.3 14.5 8 19.5 1.7 5 4 14.2 5.1 20.5 1.2 6.3 2.4 12.6 2.8 13.9.6 1.9 2.2 2.9 7.7 4.8 3.9 1.3 16.9 5.3 29 8.8 12.1 3.5 29.2 7.9 38 9.9 8.8 1.9 21.4 4.4 28 5.5 6.6 1.1 19.2 2.9 28 4s21.4 2.5 28 3.1c6.6.6 26.2 1.4 43.5 1.7 19.2.3 39.5.1 52-.6 11.3-.7 27-1.9 35-2.7 8-.8 20.6-2.4 28-3.5 7.4-1.1 18.9-3.2 25.5-4.5 6.6-1.3 17-3.7 23-5.3 6-1.6 13.6-3.6 16.7-4.5l5.8-1.6-1.4-24.5c6.9-6.6 9.6-8.5 10.4-8.6.8-.1 2.2 0 3 .1.8.1 2.3.9 3.2 1.8q1.8 1.7 1.2 4.2c-.4 1.6 1.2 8.5 4.4 19 2.8 9.1 7.8 26.2 11 38 3.3 11.8 7.7 26 9.7 31.5 2 5.5 7 16.4 11.1 24.3 4.1 7.8 7.2 14.5 7 15-.3.4 1.7 3.6 4.3 7.2 3.4 4.8 6.9 8 13.1 12.1 4.7 3.1 13.1 8 18.7 10.8 5.7 2.8 11.5 5.1 13 5.1 1.6 0 6-1.6 9.8-3.6 3.8-2 8.7-5.3 10.8-7.3 2.2-2 5.5-6.1 7.4-9.1 2-3 5.7-7.8 8.2-10.6 2.5-2.8 6.1-7.5 7.8-10.5 1.8-3 4.5-8.3 5.9-11.9 1.5-3.6 3.4-9.7 4.4-13.5 1-3.8 2.3-11.5 2.9-17 .6-5.5 1.6-18.1 2.1-28 .6-9.9 1-22.8 1-28.7 0-6-.5-11.9-1-13.3-.7-1.8-.6-3.3.2-5.2 1-2.1 2.2-2.9 5.1-3.3 3.2-.4 4.1-.1 7 2.8 2.5 2.6 3.2 4.2 3.2 7.3 0 2.1.1 3.9.2 3.9.2 0 2.1-.9 4.3-2 2.2-1.1 6.8-2.7 10.2-3.5 3.5-.8 10.6-1.8 15.8-2.1 6.5-.5 11.1-.3 14.5.6 4.8 1.3 5.1 1.3 8-1.1 1.7-1.4 5.7-3.3 9-4.3s11.8-3.3 19-5.2c7.2-1.9 14.6-3.4 16.5-3.4 2.1 0 4.2.7 5.3 1.7 1 1 1.8 3.1 1.8 4.8 0 1.8-.9 3.9-2.3 5.3-1.3 1.2-6.3 3.7-11.3 5.6-5 1.9-13 4.6-18 6-5 1.5-9.1 2.8-9.2 2.9-.1.1-.7 9-1.4 19.7-.6 10.7-.8 25.3-.5 32.5.3 7.2 1.3 17 2.1 22s2.5 12.2 3.9 16c1.3 3.8 3.9 11 5.8 15.8 1.9 5.2 4.5 10.1 6.3 11.9 1.7 1.7 5 4 7.5 5.2 3.4 1.6 6.5 2.1 12.5 2.1 7.2 0 8.8-.4 15-3.5 5.4-2.6 9.2-5.7 16.8-13.5 5.4-5.5 12.4-13.4 15.5-17.5 3.2-4.1 8-12 10.9-17.5 2.8-5.5 6.9-15 9.2-21 2.2-6 5.6-16.4 7.5-23 1.9-6.6 4.8-18.9 6.5-27.2 1.7-8.4 3.1-16.6 3.1-18.3 0-1.7.9-6.5 1.9-10.7 1.1-4.3 3.1-13.9 4.5-21.3s3-17.1 3.6-21.5c.6-4.4 1.7-15.2 2.6-24 .8-8.8 1.7-32.2 2.1-52 .3-21.1.1-49.5-.6-68.5-.6-17.9-1.8-47.1-2.6-65-.9-17.9-2.2-44.2-3-58.5-.8-14.3-2.4-37.2-3.5-51-1.1-13.7-2.9-33.8-4.1-44.5-1.1-10.7-2.7-24.5-3.4-30.5-.8-6-1.5-11.6-1.5-12.2 0-.7-4.2 2.6-9.3 7.3-5 4.7-17.1 14.8-26.7 22.5-9.6 7.7-21.5 16.9-26.5 20.4-5 3.6-16.5 10.3-25.6 14.8l-16.6 8.2c-1 6.2-2.1 9.6-3.1 11.5-1 1.9-3.4 4.6-5.3 5.8-2.6 1.9-4.4 2.3-8.1 2-3.7-.2-5.4-1-8.3-3.8-2-1.9-5.2-6.4-7-10-1.8-3.6-4.1-9.2-5-12.5-.9-3.3-1.4-7-1.1-8.2.3-1.3 1.5-2.8 2.6-3.3 1.3-.6 2.6-.7 3.7 0 1.1.5 3 4.6 4.6 9.7 1.6 4.8 4 10.7 5.5 13.1 1.6 2.5 3.7 4.5 5.2 4.9 1.8.4 2.9 0 3.8-1.3.7-1.1 1.5-3.5 1.9-5.4.3-1.9 0-5.7-.6-8.5-.7-2.7-2.8-8.5-4.7-12.7-2.1-4.9-3.2-8.7-2.9-10.3.3-1.5 1.4-2.8 2.7-3.1 1.3-.4 3.1-.4 4 0 1 .3 3.4 4.1 5.4 8.4 2 4.2 3.8 7.8 4 8 .2.1 6.7-3 14.4-6.8s18.6-9.7 24.2-13.1c5.7-3.4 14.6-9.3 19.8-13.3 5.2-3.9 13.5-11.1 18.5-16.1 5-5 12.3-13.3 16.4-18.5 4-5.2 7.9-10.7 8.7-12.2 1.3-2.5 1-4.7-2.1-20.5-2-9.8-5.3-24.8-7.5-33.3-2.1-8.5-6-22.2-8.5-30.5-2.6-8.2-7.4-22-10.8-30.5-3.3-8.5-8.8-20.9-12.2-27.5-3.4-6.6-9-16.6-12.6-22.3-3.5-5.7-11.9-17.6-18.5-26.5-6.7-8.9-16.8-21.4-22.5-27.7-5.7-6.3-14.5-14.8-19.5-19-5-4.1-12.5-9.4-16.5-11.7-4.1-2.4-10.6-5.4-14.4-6.8-4.6-1.6-9.2-2.5-13.3-2.5-6 0-6.4.2-10.8 4.3-3.2 2.9-6 7-8.9 13.2zm-71.5 377c4.1-.2 10.1-1 13.3-1.7 3.1-.7 5.7-1.6 5.7-2 0-.5-.3-.7-.7-.7-.5.1-6.4 1.2-13.3 2.5-11.8 2.2-12.1 2.3-5 1.9zM672.4 1466c-6.4 10.7-17 27.4-23.6 37-6.5 9.6-17.3 25.2-23.8 34.5s-14.7 21.5-18.1 27c-3.5 5.5-7.6 13.2-9.3 17-2.2 5.1-3.1 9.1-3.4 15-.3 5.1 0 9.4.9 12 .7 2.2 2.9 5.8 4.8 7.9 2 2.2 5.9 4.9 8.6 6.1 2.8 1.2 7.4 2.7 10.3 3.4 2.8.6 9.6 1.1 15 1.1 5.3 0 13.7-.7 18.7-1.5 5-.9 13-3 18-4.6 5-1.7 12.6-4.9 17-7.3 4.4-2.3 10.7-6.2 14-8.6 3.3-2.5 9.3-7.6 13.4-11.5 4-3.8 12.4-12.8 18.6-20 6.1-7.2 13.7-15.2 16.8-18l5.6-5c-17.1-30.2-29.6-53.4-38.9-71-9.2-17.6-18.3-35.5-20.2-39.7-1.8-4.3-3.8-7.8-4.3-7.8-.6 0-2.7 3.3-4.8 7.3-2 3.9-8.9 16-15.3 26.7zm864.3-720q2.3 0 3.3 2.5c.6 1.4 1 4.3 1 6.5s.5 4 1 4c.6 0 1.2-2.1 1.6-4.7.3-2.7.9-5.5 1.3-6.3.5-.8 2.1-1.5 6.6-1.5l-.2 8.8c-.2 4.8-.7 9.6-1.3 10.7-.6 1.2-2 2-3.5 2s-2.8-.7-3.2-1.7c-.5-1.4-.9-1.1-1.8 1.7-.9 2.7-1.8 3.6-3.8 3.8-2.1.1-2.9-.4-3.7-2.3-.5-1.4-1.1-6.9-1.2-12.3-.1-5.4.2-10.2.7-10.5.5-.4 1.9-.7 3.2-.7zm-66.7 81.1c4.7-.1 8.1.3 9.1 1.1.9.7 1.9 2 2.2 2.8.3.8-.2 2.6-1.1 3.9-1.6 2.3-2 2.4-9.7 1.8-4.4-.4-8.6-1.2-9.3-1.9-.7-.7-1.4-2.5-1.4-4-.1-1.5.4-2.8 1.3-3.1.7-.3 4.8-.6 8.9-.6zm-217.5 37.1c1.3.2 2.8 2 4.4 5.3 1.2 2.8 2.4 6.2 2.5 7.7 0 1.5-.6 3.3-1.6 4-.9.7-1.8 2.7-2 4.3-.2 2.5-.8 3-3 3.3-2.4.2-3.8-1-8.9-7-3.4-4-6.6-8.3-7.3-9.5-.9-1.7-.8-2.5.4-3.8.8-.9 2.3-1.6 3.3-1.5.9 0 3.6 1.9 5.8 4.3 2.4 2.5 3.8 3.4 3.4 2.2-.4-1.1-1-3.3-1.2-5-.3-1.9 0-3.3.9-3.8.7-.4 2.2-.6 3.3-.5zm106.6 3.8c1.1 0 2.7 1.2 3.7 2.6 1.7 2.5 1.6 2.7-1.3 8.6-1.7 3.4-4 6.7-5.2 7.4-1.7 1-2.9 1.1-4.3.4-1.1-.5-2.2-1.9-2.5-3-.3-1.1.7-4.4 2.1-7.2 1.5-2.9 3.3-6.1 4.2-7 .8-1 2.3-1.8 3.3-1.8zm171.4 5.7c2.8.2 7.7 1.1 11 2 3.3.8 7.5 2.1 9.3 2.9 1.7.8 3.9 2.4 4.7 3.7 1.2 1.7 1.3 2.8.5 5-.5 1.5-2 3.1-3.2 3.6-1.7.7-4.8.3-11.3-1.5-7-2-10.7-2.4-16.5-2.1-5 .2-8.8 1.1-11.5 2.4-2.2 1.2-6.1 4-8.7 6.3-2.6 2.3-6.2 6.3-7.9 8.9-1.8 2.5-3.6 6.1-4.1 7.9-.4 1.8-1.8 3.7-3 4.3-1.3.6-3.5.8-5 .5-1.8-.4-3.2-1.6-3.8-3.3-.6-1.6-.8-4.1-.4-5.8.4-1.6 2.9-6.1 5.4-10 2.6-3.8 7.4-9.4 10.6-12.3 3.3-2.9 8.6-6.6 11.9-8.2 3.3-1.7 8.5-3.4 11.5-3.9s7.8-.7 10.5-.4zm106.6 1.3c1.7 0 3.1.6 3.4 1.5.3.8.5 2 .5 2.5s-7.5 8.9-16.7 18.5c-12.1 12.6-17.4 17.5-19 17.5-1.3 0-2.6-.8-2.9-1.7-.4-1-.4-2.7-.1-3.8.3-1.1 7.6-9.3 16.2-18.2 13.2-13.8 16.1-16.3 18.6-16.3zm16.6 11.8c.9.4 2 1.5 2.4 2.5.7 1.2.3 2.4-1.3 4.2-1.3 1.3-9.7 7.4-18.8 13.5-9.1 6.1-17.5 11-18.7 11-1.3 0-2.7-.8-3.2-1.7-.6-1.1-.6-2.5 0-3.5.5-1 8-6.7 16.7-12.7 8.6-6 17-11.6 18.5-12.4 1.6-.9 3.5-1.2 4.4-.9zM1572 918c.8.1 3.3.7 5.5 1.6 2.2.8 4.8 2.2 5.8 3.2 1.1 1 1.8 3.1 1.7 5.5 0 2.7-.8 4.6-3.2 7.3-2.7 3-4.2 3.7-8.3 4.1-4.3.5-5.4.2-8.2-2.1-1.8-1.4-3.6-3.8-3.9-5.3-.3-1.6.2-4.5 1-6.5.9-2.1 3-4.7 4.9-5.8 1.7-1.1 3.9-2 4.7-2zm-1 13c.8.5 2.3.5 3.3-.1.9-.5 1.7-1.4 1.7-1.9s-.4-1-1-1c-.5 0-1.6-.3-2.4-.6-.8-.3-1.8.1-2.2 1.1-.6 1.1-.4 1.9.6 2.5zm-161.5-7.9c5.5-.1 12.7.3 16 .9 4.4.7 6.6 1.6 8.3 3.5 1.5 1.7 2 3.2 1.6 4.8-.3 1.2-1.3 2.9-2 3.7-.9.9-3.2 1.5-5.7 1.4-2.3 0-8.7-.4-14.2-.9-8.9-.7-10.8-.6-17.2 1.3-6 1.8-8.4 3.2-13 7.5-3.6 3.4-7.2 8-9.4 12.3-2 3.8-4 8.3-4.4 9.9-.3 1.7-1.2 3.6-1.8 4.3-.7.7-2.3 1.3-3.7 1.2-1.4 0-3.3-.8-4.3-1.8-1.1-1.1-1.8-3.2-1.8-5.7 0-2.7 1.4-6.8 4.3-12.5 2.6-5.2 6.4-10.9 9.9-14.5 3.3-3.5 8.3-7.4 12-9.4 3.5-1.9 8.4-4 10.9-4.7 2.5-.7 9-1.3 14.5-1.3zm58.5 2c2.5 0 6.4.8 8.8 1.9 2.3 1.1 5.1 3.4 6.2 5.3 1.1 1.8 2 4.9 2 7.2 0 2.2-.9 5.5-2 7.3-1.9 3-1.9 3.5-.5 7.2 1.4 3.6 1.8 4 5 4 1.9 0 4.7-.5 6.3-1.1 1.5-.5 4-2.2 5.5-3.7 1.6-1.5 4.3-4.7 6-7.2 1.7-2.5 3.5-4.8 4.1-5.2.6-.4 2.1-.8 3.4-.8 1.3 0 2.7.9 3.3 2.3 1 1.8.7 3.1-1.7 7.6-1.6 2.9-5.1 7.5-7.9 10.1-3.5 3.3-6.6 5.2-10.5 6.4-3 .9-7.3 1.6-9.5 1.7-3.5 0-4.8.7-10 5.7-4.3 4.2-7.6 6.3-11.5 7.6-3.9 1.3-7.5 1.7-12.5 1.5-5-.3-8.5-1.1-12-3-4.3-2.1-5-3-5.2-5.7-.2-2.4.2-3.5 1.7-4.2 1.5-.7 3.2-.5 6.8.9 2.6 1.1 5.9 2.2 7.5 2.5 1.5.3 4.8.2 7.5-.4 3.3-.7 6.1-2.2 14.2-9.5l-2.2-5.8c-1.6-4.1-3-6-4.8-6.7-1.4-.5-4.9-3.4-7.7-6.5-3.2-3.3-5.3-6.4-5.3-7.7 0-1.3 1-3.8 2.2-5.6 1.2-1.8 3.6-3.9 5.2-4.7 1.7-.8 5.1-1.4 7.6-1.4zm-86.7 69.9c3.7 0 7.8.5 9.2 1 1.4.5 3.4 2 4.5 3.3 1.4 1.5 2 3.6 2 6.7.1 3-.7 5.6-2.3 8-1.2 1.9-4.1 4.5-6.2 5.7-2.7 1.5-5.7 2.3-9 2.3s-6.1-.7-8.2-2c-1.8-1.1-4-3-4.8-4.2-.8-1.3-1.7-3.9-2-5.8-.3-2.1.1-5.1 1-7.3q1.5-3.7 5.3-5.7c2.6-1.3 5.8-1.9 10.5-2zm-7.6 12.8c.2.9.8 2.3 1.5 3 .7.7 2.6 1.2 4.3 1.2 1.7 0 4-.9 5.3-2 1.2-1.1 2.2-2.7 2.2-3.5 0-1.1-1.1-1.5-4.7-1.4-2.7.1-5.7.3-6.8.6-1.1.3-1.9 1.2-1.8 2.1zm-43.7 2.5c4.1.2 4.5.4 4.8 3 .2 2.2-.4 3-3 4.1-1.8.8-11 3.8-20.3 6.7-9.3 2.8-19.5 5.9-22.6 6.8-5.1 1.4-5.9 1.4-7.3.1-.9-.8-1.7-2.2-1.7-3 0-.8.6-2 1.3-2.6.7-.7 11-4.4 22.8-8.3 15.8-5.2 22.7-7 26-6.8zm-8.5 13.6c1.1 0 2.6.7 3.3 1.6.6.8 1.1 2.3.9 3.3-.1.9-2.5 2.9-5.2 4.4-2.8 1.5-10.8 5.3-17.8 8.5-10.2 4.6-13.2 5.6-14.5 4.7-.9-.6-1.8-2-2-3-.2-1 .4-2.6 1.4-3.4 1-.8 8.5-4.8 16.8-8.8 8.3-3.9 16-7.2 17.1-7.3zm224.3 47.1c1.7 0 4.5.7 6.2 1.5 1.7.8 3.7 2.8 4.5 4.5.8 1.7 1.5 4.2 1.5 5.8 0 1.5-1 4.7-4.8 11.7l5.7 1.9c3.1 1 6.2 2.3 6.9 3 .7.6 1.3 2 1.3 3.1-.1 1.1-.6 2.6-1.3 3.3-.7.6-2.3 1.2-3.7 1.2-1.5 0-5.4-.9-8.8-2-3.5-1.1-6.5-1.9-6.8-1.7-.3.1.2 2 1.1 4.2 1.2 3.1 1.3 4.5.5 6.3-.8 1.5-2 2.2-4.1 2.2-2.8 0-3.3-.6-9.7-14.5l-.6 5.5c-.4 3-1.5 7.1-2.5 9-1 1.9-3.4 4.5-5.3 5.8-2.1 1.4-4.9 2.2-7.1 2.2-2.1 0-5-.6-6.5-1.4-1.6-.8-3.8-2.5-4.9-3.8-1.2-1.2-3.1-4.2-4.3-6.5-1.1-2.4-2.8-7.6-3.7-11.5-1.4-6.6-1.4-7.5 0-9.5.9-1.3 2.4-2.3 3.4-2.3.9-.1 2.3.5 2.9 1.2.7.7 2 4.1 2.8 7.6.8 3.4 2.2 7.7 3.1 9.5.9 1.7 2.4 4 3.3 5 .9 1 2.6 1.8 3.9 1.7 1.6 0 2.6-1 3.8-3.7.9-2.2 1.4-5.3 1.1-7.3-.2-1.9-1.2-5.1-2.1-7-.8-1.9-2.5-5.1-3.6-7-1.7-3-1.8-3.8-.6-5.5.7-1.1 2.4-2.2 3.7-2.3 1.7-.3 3.2.6 7.9 5.8v-3.2c0-2.4.9-4.2 3.3-6.5 1.7-1.7 4.8-3.8 6.7-4.7 1.9-.8 5-1.5 6.8-1.6zm-5.8 16.8c.6 1.7 1.5 3.2 2 3.2.6 0 2.1-1.3 3.5-3s2.5-3.9 2.5-5c0-1.5-.7-2-2.9-2-1.5 0-3.5.8-4.4 1.8-1.4 1.4-1.5 2.3-.7 5z" style="fill:#000"/>
</svg>
