<svg width="2048" height="2048" version="1.2" xmlns="http://www.w3.org/2000/svg">
  <path fill-rule="evenodd" d="M1211.5 328c4.3 0 9.3.7 13 1.9 3.3 1 7.3 2.1 9 2.5 1.7.4 5.1 2.2 7.8 4.1 3.3 2.5 7.1 7.2 13.1 16.3 4.6 7 10.4 16.8 12.9 21.7 2.4 4.9 7 14.7 10.1 21.8 3.1 7 7.1 17.3 9 22.9 1.9 5.7 5.1 14.6 7.1 19.8 2 5.2 4.5 13.1 5.5 17.5 1.1 4.4 2.9 15 4.2 23.5 2.1 14.4 2.3 18.4 2.1 57.5 0 23.1-.8 57.8-1.7 77-.9 19.3-2.1 41.1-2.7 48.5-.5 7.4-2.1 23.6-3.5 36-1.3 12.4-2.6 24.4-2.9 26.8-.4 3-.1 4.2.8 4.2.6 0 6.2-2.4 12.2-5.3 6-3 14.8-7.7 19.5-10.7 4.7-2.9 14.1-9.8 21-15.4s17.7-14.1 24-18.8c6.3-4.7 14.9-12.1 19-16.5 4.1-4.3 11.1-11.9 15.6-16.8 4.4-5 11.8-11.9 16.5-15.4 4.6-3.5 11.1-7.7 14.4-9.2 3.3-1.6 9.4-3.6 13.5-4.5 4.7-1 9.3-1.3 12.5-.9 2.8.3 6.9 1.5 9.3 2.6 2.3 1 6.5 3.9 14.2 10.9l5.8-1.6c3.5-1 7.6-1.5 10.7-1.1 2.8.2 6.8 1.4 9 2.4 2.2 1.1 5.8 3.9 8 6.2 2.2 2.3 5.7 6.9 7.8 10.4 2.1 3.4 5.1 9.7 6.7 13.9 1.7 4.3 3 8.5 3 9.3 0 .8 1 2.1 2.3 2.8 1.2.7 3.2 3.3 4.5 5.8 1.4 2.8 2.5 7.1 2.9 11.9.3 4.2 0 11.9-.7 17.5-.7 5.5-1.6 10.9-2 12-.4 1.2.1 4.1 1.3 7.5 1.4 3.7 2.2 8.9 2.5 16 .3 7.5-.1 12.9-1.3 19-1 4.7-3 12.1-4.6 16.5-1.6 4.4-4.6 10.7-6.7 14-2.1 3.3-5.3 7.2-7.2 8.7-1.9 1.5-5.2 3.1-7.2 3.5-3.6.8-3.9 1.2-7.9 10.3-2.3 5.2-8.5 17.8-13.9 28s-12.8 23.5-16.5 29.5c-3.7 6-10.3 16.6-14.7 23.5-4.4 6.9-10.7 16.3-14.1 21-3.3 4.7-9.9 13.2-14.6 19-4.6 5.8-11.4 13.8-15 17.9-3.6 4.1-13.1 13.1-21.1 20-8 6.9-19.5 16.4-25.5 21.1-6 4.6-15.7 12.3-21.5 17-5.8 4.8-15 12.1-20.5 16.2-5.5 4.2-15 11.9-21 17.2-6 5.3-12.5 10.1-14.2 10.6-2.8.9-3.6 1.9-5.4 6.8-1.1 3.1-2.9 9.1-4 13.2s-2.4 12.7-2.9 19c-.5 6.3-1.6 23.7-2.5 38.5-.9 14.8-2.3 32.8-3.1 40-.8 7.2-2.3 18.6-3.4 25.5-1 6.9-2.1 17.2-2.5 23-.3 5.8-1.3 16.6-2.1 24-.8 7.4-3.3 25.2-5.5 39.5s-5.5 32.5-7.4 40.5c-1.9 8-4.8 24.4-6.5 36.5-1.7 12.1-4.4 30.3-6.1 40.5-1.6 10.2-4.3 25.5-6 34-1.7 8.5-4.3 20.9-5.9 27.5-1.6 6.6-3.7 14.7-4.8 18-1.1 3.3-3.7 10.3-5.9 15.5-2.2 5.2-5.5 13.8-7.4 19-1.8 5.2-7.4 17.8-12.5 28-5.6 11.3-11.2 21-14.3 25-2.9 3.6-7.1 8-9.4 9.8-2.3 1.9-9.2 6.7-15.2 10.7-6 4-15.7 9.6-21.5 12.4-5.8 2.7-13.4 5.9-17 7-3.6 1.1-10.8 2.6-16 3.2-5.2.7-11.2.9-13.2.6-2.2-.4-5.4-2.1-7.5-4-2.9-2.6-5.4-3.7-10.3-4.6-3.6-.7-9.2-2.1-12.5-3.1-3.3-1.1-8.7-3.7-12-5.8-3.3-2.1-7.7-5.8-9.8-8.3-2-2.4-5.4-8.2-7.4-12.9-2-4.7-4.4-11.4-5.4-15-1.1-3.6-2.8-12.6-3.9-20s-3.2-17.3-4.6-22c-1.3-4.7-3.2-9.8-4.2-11.4-.9-1.6-3.1-3.8-4.7-4.8-1.6-.9-7-2.9-12-4.3s-10.6-3.2-12.5-3.9c-1.9-.8-7.5-3-21.5-8.5l-36.5-.1-2.2 3.3c-1.2 1.7-3.7 4.9-5.5 7-1.8 2-4.8 6.7-6.7 10.5-1.8 3.7-5.7 12.5-8.6 19.7-2.8 7.2-6.8 15.9-8.7 19.5-2 3.6-5.7 9.4-8.4 13-2.6 3.6-7.6 9.2-11.1 12.6-3.4 3.3-8.3 7.4-10.8 9.1-2.5 1.7-7.2 4.4-10.5 6-3.3 1.7-9.6 4.2-14 5.6-4.4 1.4-12.7 3.4-18.5 4.5-5.8 1.2-13 2.4-16 2.7-3.2.4-6.4 1.5-7.5 2.5-1.1 1.1-3.8 2.7-6 3.6-2.9 1.3-6.4 1.8-12.5 1.7-5.5-.1-12-1.1-18.5-2.7-5.5-1.5-15-5-21-7.9-6-2.9-13.8-7.2-17.2-9.5-3.5-2.3-8-6.3-10.1-8.9-2-2.7-5-7.3-6.4-10.3-1.5-3-3.4-8.2-4.3-11.5-.8-3.3-2-13.7-2.5-23s-1.7-22.8-2.5-30c-.8-7.2-3.6-23.6-6.1-36.5-2.5-12.9-8.8-40.6-13.9-61.5-5.2-20.9-11.9-49-15-62.5-3.1-13.5-7.7-32.6-10.1-42.5-2.5-9.9-6.8-27.7-9.4-39.5-4.2-18.4-5.2-21.7-7.2-23-1.2-.8-3.2-2.3-4.3-3.4-1.8-1.7-2.4-1.7-6.5-.6-2.9.9-6.8 1.1-17.5 0l-3.5 4.8c-2.1 2.8-5.3 5.6-8 6.9-2.5 1.3-7.2 2.8-10.5 3.4-3.4.6-9.4.8-14 .5-4.4-.3-10.6-1.3-13.7-2.1-3.2-.8-8.6-2.8-12-4.4-4.1-1.9-9.3-5.7-14.7-10.8-4.6-4.3-12.3-12.5-17-18.3-4.7-5.8-10.4-13-12.6-16-2.2-3-5.2-7.3-6.6-9.5-1.5-2.2-4.2-6.7-6.1-10-1.9-3.3-6.1-11-9.3-17-3.2-6-8.8-16.2-12.4-22.5-3.6-6.3-10.1-19.2-14.4-28.5-4.4-9.3-10.4-24.4-13.4-33.5-3-9.1-7-22.3-8.9-29.5-1.8-7.2-4.1-17.5-4.9-23-.8-5.5-1.5-14.5-1.5-20s.7-14.7 1.5-20.5c.8-5.8 2.6-15 4-20.5 1.3-5.5 3.7-14.3 5.3-19.5 1.6-5.2 5.1-14.7 7.7-21 2.6-6.3 7.8-17.8 11.7-25.5 3.8-7.7 10.7-19.6 15.4-26.5 4.6-6.9 10.9-15.7 14.1-19.6 3.2-4 14.6-16.6 25.4-28 10.8-11.5 24.3-25.4 30-30.9 5.7-5.5 19.4-19.5 30.4-31s24.3-26.2 29.6-32.5c5.2-6.3 11.4-14 13.6-17 2.2-3 5.2-7.7 6.6-10.5 1.3-2.7 3-6.8 3.6-9 .7-2.2 2.3-6.2 3.6-9 1.4-2.7 3.1-9.3 3.9-14.5.9-5.2 2-15.1 2.6-22 .6-6.9 1.7-21.3 2.5-32 .9-10.7 2.4-27.6 3.5-37.5 1.1-9.9 2.9-28.6 4-41.5 1.1-12.9 2.9-34.1 4-47 1.1-12.9 2.9-30.9 4-40 1.2-9.1 3.3-22.1 4.7-29 1.3-6.9 4-17.7 5.8-24 1.8-6.3 5-15.6 7.2-20.5 2.1-4.9 5.9-12.4 8.4-16.5 2.6-4.1 6.8-9.4 9.5-11.8 2.7-2.3 7.7-5.4 11.2-6.7 5.2-2.1 7.9-2.5 17-2.5 5.9 0 13.8.7 17.7 1.5 3.9.8 9.3 2.4 12 3.4 2.8 1.1 13.3 5.8 23.5 10.6s21.2 10.6 24.5 12.9c3.3 2.4 9.6 8.1 14.1 12.7 4.4 4.6 11.6 12.2 16 16.8 4.3 4.6 10.4 10.3 13.4 12.6 3 2.4 8 5.5 11 6.9 4.6 2.2 6 2.4 8.5 1.5 2.2-.7 4.3-.7 7.5.1 2.5.7 7.6 1.4 11.5 1.6 3.9.1 15.5.6 26 1 12.4.4 30.5 0 52-1 18.1-.9 43.6-1.6 56.5-1.5 12.9 0 27.5-.5 32.5-1.1 5-.6 14.4-2.2 21-3.5 6.6-1.3 16-3.6 21-5s14-5 20-7.9c6.1-3.1 14.6-8.3 19-11.8s15.1-14.2 23.7-23.8c8.6-9.6 18.1-19.4 21-21.8 2.9-2.3 8-5.6 11.3-7.2 3.3-1.6 8.5-3.6 11.5-4.4 3-.8 8.7-1.5 12.5-1.6zm-15.5 28.2c-2.5 1.4-8.3 6.6-13 11.5-4.7 4.9-13.5 14.2-19.5 20.7-6 6.6-14.4 14.5-18.5 17.6-4.1 3.1-11.1 7.8-15.5 10.3-4.4 2.6-11.8 6.2-16.5 8-4.7 1.9-13.9 4.8-20.5 6.5-6.6 1.7-17.2 4-23.5 5.1-6.3 1.1-13.1 2.2-15 2.6-1.9.3-25.1 1.1-51.5 1.8-26.4.6-57.9 1.1-70 1.1-12.1-.1-29.4-.8-38.5-1.5-9.1-.7-18.3-1.2-20.5-1-2.2.1-7.6.3-12 .4-7.2.2-8.7-.2-15-3.2-3.9-1.8-10.1-5.7-14-8.6-3.9-2.9-14.7-13.3-24.1-23.1-13.9-14.5-18.7-18.8-25-22.6-4.4-2.5-15.3-8.3-24.4-12.8-13.1-6.4-18.3-8.4-25-9.7-7.8-1.5-8.8-1.5-11.7.1-1.8.9-5.3 1.6-7.8 1.6-4.4 0-4.6.1-8.4 6.3-2.1 3.4-5 8.9-6.4 12.2-1.4 3.3-3.7 10.1-5.1 15-1.4 5-3.9 15.1-5.5 22.5-1.7 7.4-3.9 20.5-5.1 29-1.1 8.5-3.1 28.1-4.5 43.5-1.3 15.4-3.1 36.3-4 46.5-.9 10.2-2.3 24.6-3.1 32-.7 7.4-2.1 20.9-2.9 30-.8 9.1-2.1 25.5-3 36.5-.9 11-2.1 23.8-2.6 28.5-.6 4.7-1.9 13-3.1 18.5-1.1 5.5-3.8 15.2-6 21.5-2.2 6.3-4.1 12.3-4.4 13.3-.3 1.2.9 2.5 4.2 4.5 2.6 1.5 9 5.4 14.3 8.8 5.3 3.3 13.6 8.3 18.6 11.1 5 2.8 15.1 7.9 22.5 11.4 7.4 3.4 17.5 7.9 22.5 9.9 5 2.1 14.4 6.3 21 9.3 6.6 3 19.3 8.9 28.3 13.1 8.9 4.2 16.4 7.6 16.7 7.6.3 0 8.3 3.7 17.8 8.1 9.4 4.5 24 11.2 32.2 14.9 8.3 3.7 22.9 9.5 32.5 12.9 9.6 3.4 18.3 6.6 19.3 7.1 1.3.8 2.6.4 5.5-1.5 2-1.4 5.3-2.8 7.2-3.2 1.9-.3 5.5-.3 8 0s5.6 1.4 7 2.5c1.7 1.3 2.6 3 2.8 5.5.2 3.1-.2 3.9-2.4 5-2 .9-3.2.9-5.7 0-1.8-.7-4.3-1.3-5.7-1.3-1.4-.1-3.5.7-4.6 1.7-1.2 1-2.7 3.4-3.3 5.3-.6 1.9-1.1 4.2-1.1 5 0 .8.5 2.3 1.2 3.3s3.1 2.2 5.3 2.7c3.2.8 5.1.6 9.5-1.1 3-1.1 6.5-2.9 7.8-4 1.7-1.5 2.4-3.6 3.2-10.1.7-5.4 1.6-8.9 2.8-10.1.9-1 2.7-1.8 4-1.7 1.2 0 2.9.7 3.7 1.5.8.8 1.6 2.1 1.6 2.8.1.6.1 5.7 0 11.2-.2 8.5.1 10.5 1.9 13.3 1.1 1.7 2.6 3 3.3 2.9.6-.2 2-1.7 2.9-3.3.9-1.6 2.4-5.6 3.3-8.9.8-3.3 1.5-7.8 1.5-10 0-2.6.7-4.8 2-6.2 1.1-1.3 3.1-2.3 4.5-2.3s3.4.9 4.5 2c1.5 1.5 2 3.3 2 7.8 0 3.1-.9 9.1-2 13.2s-3.2 9.5-4.8 12c-1.5 2.5-4.3 5.5-6.2 6.8-1.9 1.3-4.6 2.6-6 2.9-1.4.3-3.9-.1-5.5-.8-1.6-.8-4.9-3.3-7.2-5.6-3.2-3.2-4.3-3.8-4.3-2.5-.1.9-.5 4.8-1 8.7-.6 3.9-1.4 7.5-1.9 8-.4.5-1.7 1.3-2.7 1.6-1.1.4-3 .2-4.3-.5-1.3-.6-2.9-2.8-3.7-5.1-.8-2.2-1.4-4.9-1.4-6 0-1.7-1.1-2.2-7.7-3.2-5.5-.9-8.8-2-11-3.8-1.8-1.4-4.1-3.7-5-5.2-1-1.6-2.3-5-2.9-7.8l-1.1-5c-22.3-5.6-34-9-40.3-11.3-6.3-2.2-14.6-5.2-18.5-6.7-3.9-1.5-13.3-5.1-21-8.2-7.7-3-20.3-8.4-28-12-7.7-3.6-16.9-7.8-20.5-9.4-3.6-1.6-7.2-3.4-8-3.9-.8-.6-5.9-3.2-11.3-6-5.3-2.7-13.4-6.5-17.9-8.4-4.6-1.9-15.1-6.7-23.3-10.6-8.3-4-19.3-9.6-24.5-12.5-5.2-3-15.4-9.2-22.5-13.9-7.1-4.6-15.6-10.3-18.8-12.5L634 732c-2.7 3.5-7.2 9.2-11.9 15-4.6 5.8-16.6 19-26.5 29.5-10 10.4-25.4 26.2-34.2 35-8.9 8.8-19.5 19.6-23.5 24-4 4.4-10.9 11.8-15.4 16.5-4.5 4.7-10.4 11.4-13.2 15-2.8 3.6-8.3 11.5-12.3 17.5s-10.5 17.8-14.6 26c-4 8.3-8.9 19.3-10.9 24.5-2 5.2-5.1 14.7-7 21-1.8 6.3-4 14.9-4.9 19-.8 4.1-2 12.5-2.6 18.5-.8 7.8-.8 13.8 0 20.5.6 5.2 2.2 14.2 3.6 20 1.3 5.8 4.5 17.3 7 25.5 2.5 8.3 5.7 17.9 7.1 21.5 1.4 3.6 6.3 14.2 10.8 23.5 4.4 9.3 11.1 22.2 14.7 28.5 3.6 6.3 9.1 16.5 12.3 22.5 3.3 6 8.2 14.6 11 19 2.8 4.4 8.8 12.5 13.2 18 4.4 5.5 11.3 13.6 15.5 18 5.7 6.1 9 8.7 13.9 10.9 5.7 2.7 7.5 3 16.8 3l10.4.1c6.4-9.2 9.5-12.8 11-13.9 2.2-1.6 4.3-2.1 9-2.1 3.4.1 8.2.5 10.7.9 4.3.8 4.6.7 5.8-2 1-2.2 1-3.7.2-6.1-.8-2.6-.7-3.9.5-5.8.8-1.4 2.1-2.5 2.8-2.5.6.1 2.1-.9 3.2-2.1 1.1-1.2 4.3-3.6 7-5.4 2.8-1.7 6.7-5.2 8.9-7.6 2.1-2.4 4.7-6.5 5.7-9.1l1.9-4.8c-5.1 0-6.6-.8-8-2.7-1.2-1.6-2-3.9-2-5.3s.4-3 .8-3.6c.4-.6 1.6-1.6 2.7-2.2 1.1-.6 3.6-.9 5.5-.6 3.3.5 3.6.3 6-4l2.5-4.6c-2.9-10.5-4.5-15.7-5.5-18.5-1.1-2.7-2.9-6.3-4.2-7.9-1.3-1.6-7.7-6.7-14.3-11.2-6.6-4.6-15.2-11.6-19.1-15.6-3.9-4-8.3-9.7-9.8-12.5-1.4-2.9-3.1-8.6-3.8-12.5-.8-5.5-.8-11.3 0-23.3.6-8.8 1.9-23.2 2.8-32 1-10.1 1.4-20.1 1-27-.3-6.9-.1-12.5.6-15 .7-2.2 2.8-6.5 4.8-9.5 2.8-4.4 4.3-5.7 7.3-6.5 3.2-.8 4.5-.7 7.5 1 2.7 1.5 4.7 4 7.7 9.6 2.2 4.2 5.1 10.9 6.4 15 2 6.3 2.2 7.9 1.2 11.2-.7 2.2-2.2 4.3-3.8 5.3-2.7 1.5-2.8 1.8-2.5 8.2.2 3.7.8 11.2 1.3 16.7s1.1 11.6 1.2 13.5c.2 2.8-.3 3.7-2.3 4.7-1.4.7-2.9 1.4-3.3 1.5-.4.2-1.2 7.5-1.7 16.3l-1 16c6.6 6.7 13 11.6 18.4 15.3 5.5 3.7 12.3 8.8 15 11.3 3.1 2.7 6.6 7.4 8.7 11.5 2 3.8 4.6 9.6 5.7 12.9 1.1 3.3 2.8 8.9 3.7 12.5 1.1 4.2 1.5 8.2 1.1 11.5-.3 2.8-1.7 7.4-3.1 10.3-1.4 3-4 6.3-6 7.7-2.9 2.1-3.3 2.8-2.5 4.5.5 1.1 1 4.4 1 7.3 0 3.2-.8 6.9-2.2 9.7-1.2 2.5-6 8.4-10.7 13.2l-8.6 8.7c2.6 5.1 5.1 12 7.3 18.6 2.2 6.6 8.3 29.3 13.5 50.5 5.2 21.2 11.9 48.6 14.7 61 2.9 12.4 9.9 41.6 15.6 65 5.6 23.4 11.2 47.5 12.4 53.5 1.2 6 3 15.7 4.1 21.5 1.1 5.8 2.8 18.2 3.9 27.5s2.2 22.4 2.6 29c.3 6.6 1 14.3 1.6 17 .6 2.8 2.2 7.2 3.7 9.8 1.4 2.7 4 5.9 5.6 7.1 1.6 1.2 6.4 4.1 10.5 6.4 4.1 2.2 9.5 4.8 12 5.8 2.5.9 7.6 2.4 11.5 3.4l7 1.7c6.3-4.3 8.3-4.8 13.8-4.7 3.7 0 10.2-.5 14.5-1.1 4.2-.6 12.9-2.4 19.2-4 6.3-1.6 14.6-4.5 18.5-6.4 3.9-1.8 10-5.9 13.8-8.9 3.7-3.1 8.7-8.2 11.2-11.3 2.5-3.2 6.5-9.8 9-14.8 2.4-5 6.8-14.6 9.6-21.5 2.9-6.9 6.9-15.4 8.9-19 2.1-3.6 5.6-8.6 7.9-11.2 2.2-2.7 4.1-5.5 4.1-6.3 0-.8 1-2.7 2.3-4.1 1.5-1.8 4.1-3 8.7-4 3.6-.7 14.8-1.8 25-2.4 13.4-.8 20.1-.7 24.5.1 3.3.6 11.4 3 18 5.4 6.6 2.3 15.8 5.3 20.5 6.5 4.7 1.2 11.2 3.7 14.5 5.5 3.3 1.8 7.9 5.4 10.3 7.9 2.3 2.5 4.8 5.8 5.6 7.4.8 1.5 2.5 6.1 3.9 10.2s3.3 10.7 4.2 14.5c.9 3.8 2.3 12 3.1 18 .9 6 2.9 15 4.5 20 1.7 5 4 10.6 5.3 12.5 1.3 1.9 4.5 4.7 7.2 6.2s8.2 3.4 12.2 4.2c3.9.9 9.2 1.6 11.7 1.6 2.7 0 7.6-1.2 12.3-3.1 5.5-2.2 8.6-2.9 11-2.5 1.9.4 4.2 1.8 5.7 3.6 1.4 1.7 3.2 3 4 3 .8 0 4.3-1.1 7.8-2.5 3.4-1.4 11.8-6.3 18.7-10.9 6.9-4.6 14.4-10.4 16.8-13 2.3-2.5 4.9-6.1 5.8-7.8.9-1.8 1.9-4.6 2.2-6.3.2-1.7 2.2-5.7 4.4-9s5.5-9.2 7.3-13c1.9-3.8 4.9-11.3 6.8-16.5 1.9-5.2 4.9-12.9 6.7-17 1.8-4.1 4.8-12.9 6.6-19.5 1.9-6.6 5-19.9 7-29.5 1.9-9.6 4.6-24.2 6-32.5 1.4-8.2 4.3-27.2 6.5-42 2.1-14.8 6.6-47 9.9-71.5 3.4-24.5 8.3-58 11-74.5 2.7-16.5 5.6-35.4 6.4-42 .8-6.6 2-19.2 2.6-28 .6-8.8 2.4-32 4.1-51.5 1.6-19.5 3.4-37.7 3.9-40.5.7-3.4 2-6 4-8 1.8-1.8 3-4 3-5.5 0-1.4.5-4.2 1-6.2.6-2.3 2-4.4 3.5-5.3 2.1-1.3 2.9-1.3 5.3-.2 2.4 1.2 3.3 1 9.2-2.1 3.6-1.9 9.2-5.8 12.5-8.7 3.3-2.9 11-9 17-13.5 6-4.6 13.5-10.4 16.5-13 3-2.6 12-9.8 20-16 8-6.2 18.8-15 24-19.5 5.2-4.5 12.6-11.3 16.4-15.1 3.7-3.8 9.9-10.5 13.6-14.9 3.7-4.4 10.7-13.4 15.7-20s15.1-21.7 22.5-33.5 18.4-30.5 24.5-41.5c6.1-11 14.7-27.3 19.2-36.2l8.1-16.3c-6.3 3.5-8.5 3.9-10.7 3.6-2-.4-4.2-1.7-5.4-3.3-1.9-2.5-2-3.6-1.4-10.3.5-5.7 1.2-8.3 3.1-10.7 1.4-2 3.9-3.8 6.2-4.4 2.9-.9 4.3-.9 6.7.2 1.6.8 4 3 5.2 4.9 1.3 1.9 2.3 4.7 2.3 6.3v2.7c5-3.1 7.7-4 9.3-4 2.5 0 2.8-.4 4.4-7.2.9-4 1.7-10.2 1.7-13.8.1-6.2 0-6.5-2.9-7.8-1.7-.8-4-2.3-5.2-3.3-2.1-1.7-2.5-1.8-4.5-.4-1.3.8-3.6 1.5-5.3 1.5-1.7 0-4.8-.7-7-1.5s-4.5-2.5-5.2-3.8c-.9-1.7-.8-4 .3-10.2.7-4.4 1.9-8.6 2.6-9.4 1-1 2.6-1.1 6.3-.6 2.8.4 6.2 1.3 7.8 2.1 1.5.8 3.6 2.5 4.7 3.9 1.5 1.9 2.2 2.2 3 1.3.5-.7 1.6-4.4 2.5-8.3.8-3.9 1.5-9.6 1.5-12.7 0-4-.4-5.8-1.2-5.8-.7 0-2.3-1-3.4-2.2-1.2-1.3-3.6-7-5.4-12.8-1.8-5.8-4.3-12.5-5.5-15-1.2-2.5-3.4-6-4.9-7.7-1.9-2.5-3.4-3.3-5.8-3.3-1.9 0-4.1.7-5.1 1.7s-2.8 3.4-4 5.3c-1.2 1.9-4 4.4-6.2 5.4-3.1 1.5-4.8 1.7-7.5 1-2.2-.6-4.3-2.1-5.8-4.4-1.8-2.7-2.3-4.4-1.9-7.5.5-3.6.1-4.4-3-7.5-3.4-3.3-3.8-3.5-8.7-2.9-2.8.4-7.3 1.8-10.1 3.2-2.7 1.3-7.9 4.7-11.4 7.3-3.6 2.7-9.4 8.3-13 12.4-3.6 4.1-10.6 11.7-15.6 16.9-5 5.1-15.1 13.9-22.5 19.4-7.4 5.6-16.4 12.6-20 15.7-3.6 3-9.9 7.9-14 10.8-4.1 3-11.1 7.3-15.5 9.7-4.4 2.4-12.3 6.2-17.5 8.5-5.2 2.4-14.3 6-20.2 8.1-6 2.2-11.7 3.9-12.8 3.9-1.1 0-3 .9-4.2 2-1.3 1.1-3.3 2-4.5 2-1.3 0-2.5.5-2.8 1-.3.5-7 6.2-15 12.5s-18.9 14.8-24.2 18.8c-5.4 4-13.6 9.5-18.3 12.4-4.7 2.8-15 8.6-23 12.9-8 4.2-21.5 12-30 17.2-8.5 5.2-18.2 10.8-21.5 12.5-3.3 1.6-11 4.9-17 7.2-6 2.4-18.2 6.5-27 9.3-8.8 2.8-20.5 5.9-26 7-5.5 1.1-16.3 2.4-24 2.8-12.4.6-14.4 1-17.5 3.1-1.9 1.3-5.5 2.6-8 3-3.1.4-5.5.1-7.7-1.1-2.2-1-4.1-3.2-5.5-6.3-2-4.2-2.3-6.6-2.5-19.5-.3-14.6-.3-14.8 2.2-17.3 1.8-1.8 3.1-2.3 4.8-1.9 1.2.3 2.8 1.3 3.5 2.3.8 1.1 1.2 5.3 1.2 13.1 0 6.3.4 13 1 14.8.5 1.7 1.6 3.1 2.3 2.9.6-.2 2.2-1.9 3.5-3.8 1.3-1.9 2.8-5.2 3.4-7.4.6-2.2 1.1-7.4 1.2-11.6.1-5.2.6-8.1 1.6-9.3.8-.9 2.3-1.9 3.3-2.2.9-.2 2.6.1 3.7.6s2.7 2.6 3.5 4.5c.8 1.9 1.5 5 1.5 6.8v3.2c13.6-2.6 19.5-4 22-4.8 2.5-.8 12.9-4.4 23.3-8.1 10.3-3.6 27.6-10.4 38.5-15 10.8-4.6 26.2-10.9 34.2-14.1 8-3.1 19-7.9 24.5-10.6 5.5-2.6 18.8-10.5 29.5-17.5 10.7-6.9 21.8-14.4 24.5-16.6 2.8-2.1 8.5-7.4 12.8-11.6 4.3-4.2 10.2-10.8 13.1-14.7l5.3-7c4.8-45 6.7-65 7.2-73.5.6-8.5 1.6-26.7 2.2-40.5.6-13.7 1.4-39.9 1.8-58 .3-18.1.3-39.7 0-48-.4-8.2-1.7-21.7-2.9-30-1.2-8.8-3.3-18.3-5-23-1.5-4.4-5.2-15-8.2-23.5-3-8.5-7.3-19.5-9.5-24.5-2.2-4.9-5.5-12.8-7.4-17.5-1.8-4.7-6.4-13.7-10.2-20-3.8-6.3-7.8-12.5-9-13.8-1.6-1.7-2.9-2.1-4.7-1.7-1.4.3-4.5-.1-7-.9-2.5-.9-5.2-1.5-6-1.5-.8 0-3.7.6-6.5 1.3-2.7.6-7 2.3-9.5 3.8zM645.2 729.1c1.8 1.4 8.7 6.1 15.3 10.4 6.6 4.3 18.5 11.6 26.5 16.2s15.2 8.4 16 8.4c.8 0 2.2-.7 3-1.6.8-.8 1.3-1.7 1-1.9-.3-.2-6.4-3.3-13.5-6.9-7.2-3.7-19.1-10.4-26.5-15-7.4-4.5-15.6-9.5-18.1-10.9-2.6-1.5-5.2-2.4-5.8-2-.8.5-.1 1.6 2.1 3.3zm600.8 37.2c-4.1 3.3-13.3 9.9-20.4 14.6-12.2 8.1-12.7 8.6-10 9.2 1.6.4 3.6.7 4.4.8.8.1 6.2-3.3 12-7.5 5.8-4.3 16.1-12.2 23-17.8 6.9-5.5 13.1-10.6 13.8-11.3.8-.9 1-2.5.5-4.9-.5-2-1.1-3.7-1.4-3.9-.3-.1-3.6 3.2-7.5 7.3-3.8 4.1-10.3 10.2-14.4 13.5zm-530.2 2.9c.1.4 2.3 1.9 5 3.2 2.6 1.3 7.2 3.4 10.2 4.6 3 1.2 10.5 4.6 16.5 7.6l11 5.5c3.3-3.4 3.7-4.4 3-5-.5-.6-9.7-4.8-20.2-9.5-10.6-4.8-20.3-8.6-21.6-8.6-1.3 0-2.7.3-3.2.7-.5.3-.8 1-.7 1.5zm54 26.1c.1.4 6.4 3.6 14 7.2 7.5 3.6 22.9 10.2 34.2 14.7 19.9 7.8 20.6 8 22.2 6.2 1.7-1.8 1.3-2.1-9.5-7.1-6.2-2.8-17.3-7.9-24.7-11.3-7.4-3.4-17.4-7.9-22.2-10.1-4.9-2.1-9.2-3.9-9.7-3.9-.4 0-1.6.8-2.6 1.8s-1.8 2.2-1.7 2.5zm416.7 8.8c-6.6 3.1-17.4 7.8-24 10.3-6.6 2.6-13.8 5.4-15.9 6.4l-3.9 1.7c4.9 1.9 6.5 3.4 6.8 4.5.3 1.1.1 2.9-.5 4-.5 1.1-.8 2-.5 2 .3 0 5.6-3.1 11.8-6.8 6.1-3.8 18.6-10.9 27.7-15.9 9.1-4.9 17.5-9.6 18.7-10.4 1.3-.9 2.3-2.6 2.5-4.6.2-1.8.1-3.3-.2-3.3-.3 0-2.7 1.5-5.5 3.2-2.7 1.7-10.4 5.7-17 8.9zm-88.3 36.5c-8.7 3-10.9 4.1-9.5 4.8 1 .5 2.4 1.6 3.1 2.5.7.9 1.2 3.1 1.2 4.9 0 1.7.1 3.2.3 3.2.1 0 5.4-1.7 11.7-3.9 6.3-2.1 14-4.8 17-6 3-1.2 8.9-3.8 13-5.8l7.5-3.6c-5.6-3-6-3.7-6-7.4 0-2.4-.2-4.3-.5-4.2-.3 0-6.3 2.6-13.5 5.8-7.2 3.1-18.1 7.5-24.3 9.7zm-237.7-7c5 1.9 15.3 5 23 6.9 7.7 2 14.2 3.3 14.5 3 .3-.3.3-.7 0-.9-.3-.2-7.5-2.8-16-5.6-8.5-2.9-18.8-6.5-22.7-8.1-4-1.6-7.6-2.9-7.9-2.9-.3 0-.4.9-.2 2.1.2 1.6 2.3 2.9 9.3 5.5zm192.1 21.2c-6.9 1.3-9 2.1-9.3 3.5-.2.9-.7 1.5-1.3 1.2-.5-.3-1.4.9-2 2.5l-1 3c12.8 0 20.1-.6 24.5-1.4 4.4-.8 10.4-2.1 13.3-2.8 4-1 5.1-1.7 4.7-2.8-.3-.8-.9-2.4-1.2-3.5-.3-1.1.2-3.5 1.1-5.2.9-1.8 1.3-3.3.9-3.2-.5 0-5.3 1.6-10.8 3.5-5.5 1.9-14 4.2-18.9 5.2zm155-480.8c2.5 0 3.9.7 5.5 2.8 1.6 2.1 2 3.6 1.5 6.5-.6 3.6-.5 3.7 2.4 3.7 1.7 0 3.9.5 5 1 1.1.6 2.5 2.7 3.1 4.8.9 3.1.7 4.7-1 10-1.2 3.4-3.3 8.1-4.7 10.5-1.5 2.3-3.8 5.4-5.3 7-1.6 1.7-3.6 2.7-5.3 2.7-1.6 0-3.7-1-4.9-2.2-1.6-1.7-2.1-3.2-1.8-5.5.3-2.8 0-3.4-2.4-4.5-1.6-.8-3.2-2.5-3.8-4.3-.7-2.3-.4-5.2 1.6-12.7 1.4-5.4 2.5-10.9 2.4-12.2-.1-1.3.9-3.5 2.1-5 1.5-1.9 3.1-2.6 5.6-2.6zm-483.4 30c.4 0 1.8.5 3.1 1 1.2.6 2.8 2.1 3.5 3.5.6 1.4 1.2 3.2 1.2 4 0 .8.3 1.5.8 1.5.4 0 1.6-.7 2.7-1.5 1.1-.9 3.2-1.5 4.8-1.5 1.5 0 4.4.8 6.5 1.7 2 1 6.1 4 8.9 6.8 4 3.8 5.3 5.7 5.3 8 0 1.8-.8 3.8-2.1 5-1.1 1.1-3.3 2-4.8 2s-4.4-1.2-6.4-2.7c-2-1.6-3.8-2.7-4-2.5-.2.1-1.2 2.2-2.3 4.6-1 2.4-2.8 5-3.9 5.7-1.1.8-3.2 1.4-4.7 1.4-1.7 0-4-1.1-5.7-2.7-2.1-2-3.8-5.4-5.6-11.3-1.5-4.7-2.9-10.7-3.2-13.5-.5-4.6-.4-5.2 2.2-7.2 1.5-1.3 3.2-2.3 3.7-2.3zM886 466.1c2 0 4.3.7 5.3 1.7 1 .9 1.8 2.7 1.7 4 0 1.2-.3 2.9-.7 3.8-.5 1-2.8 2.7-5.3 3.9-2.5 1.3-7.9 3.3-12 4.5-4.1 1.3-11 4-15.2 6.1-7 3.5-8.1 3.8-10.4 2.7-1.4-.7-2.8-2.4-3.2-3.8-.3-1.4-.5-3.2-.3-4 .1-.8 1.2-2.6 2.4-3.8 1.2-1.3 4.5-3.5 7.2-4.9 2.8-1.5 10-4.3 16-6.4 6-2 12.6-3.8 14.5-3.8zm161 4c2.5-.1 7.2.6 10.5 1.5 3.3.8 8.7 3 12 4.7 3.3 1.8 8.8 5.9 12.3 9.2 5.9 5.6 6.3 6.3 6 10-.2 3.2-.8 4.2-3 5.2-1.6.7-3.6 1.1-4.5.8-1-.2-5-3-8.8-6.1-3.8-3.1-9.5-6.9-12.5-8.3-4.3-1.9-7.3-2.5-13.5-2.7-6.6-.1-8.2-.5-9.3-2-.7-1.1-1.2-3-1.2-4.4 0-1.4 1-3.5 2.2-4.6 1.3-1.2 3-2.4 3.8-2.7.8-.3 3.5-.6 6-.6zm-162 39.4c5.5.2 12.7 1.3 17 2.5 4.1 1.2 9.7 3.4 12.5 4.8 2.7 1.5 8 5.6 11.8 9.2 4.7 4.5 7.8 8.4 9.7 12.5 1.6 3.3 3.5 8.7 4.4 12 .9 3.3 1.6 9.4 1.6 13.5s-.5 10.4-1 14c-.5 3.6-1.8 9.4-2.9 13-1.1 3.6-3.7 9.4-5.8 12.9-2.1 3.5-7.4 10-11.8 14.4s-10.9 10-14.5 12.4c-3.6 2.4-9.4 5.2-13 6.3-3.6 1.1-8.7 2-11.5 2-2.7 0-8.1-.9-12-2.1-3.9-1.2-9.5-3.4-12.5-4.9-3-1.5-7.6-4.7-10.2-7.1-2.6-2.4-6.4-7.1-8.3-10.4-2-3.3-4.7-9.6-6.1-14-2-6.3-2.5-10-2.5-17.5 0-5.2.5-13.1 1.1-17.5.5-4.4 1.7-10.5 2.6-13.5.9-3 2.5-7.2 3.5-9.2 1-2.1 4.1-7.1 6.8-11 2.7-4 7-9.2 9.5-11.5 2.5-2.4 6.9-5.4 9.6-6.8 2.8-1.4 6.7-2.9 8.8-3.5 2-.5 8-.7 13.2-.5zm-23.3 24.6c-2.1 2.4-5.5 7.8-7.4 11.9-2.8 5.7-4 10-5.1 18-.7 5.8-2 11.7-2.8 13.3-.8 1.5-1.4 4.6-1.4 7 0 2.3.6 6.5 1.4 9.2.7 2.8 2.5 7.4 3.9 10.3 1.5 2.8 4.2 6.8 6 8.8 1.7 2 5.5 4.6 8.2 5.9 2.8 1.3 7.7 3.1 11 4 4.9 1.4 6.9 1.5 10.5.6 2.5-.6 7.4-3 11-5.3 3.6-2.3 9.4-7.1 13-10.8 3.6-3.7 7.9-9.3 9.7-12.6 1.8-3.2 3.9-9 4.7-12.9.9-3.8 1.6-10.8 1.6-15.5 0-5.7-.6-10.7-2-15.2-1.5-5.2-3.1-8-6.9-12-2.6-2.9-7-6.5-9.7-8-2.7-1.5-7.8-3.4-11.4-4.2-3.6-.9-9.6-1.6-13.5-1.6-5.2 0-8.3.6-12 2.3-2.8 1.3-6.7 4.3-8.8 6.8zm166.5-19.1c2.6 0 6 .6 7.6 1.4 1.5.7 6.3 1.5 10.7 1.8 6.7.4 9 1 14.4 3.9 4.4 2.3 9.1 6.3 15 12.4 5.1 5.4 10 11.7 12 15.5 1.9 3.6 4 8.8 4.8 11.5.7 2.8 1.3 8.4 1.3 12.5s-.7 11.3-1.6 16c-.8 4.7-2.8 11.2-4.4 14.5-1.6 3.3-5.7 10-9.2 14.9-3.5 4.9-8.5 10.9-11.3 13.4-2.7 2.5-8.4 6.1-12.5 8.1-6.2 2.9-8.9 3.6-15.5 3.9-5.4.3-10.1-.1-14.5-1.2-3.6-.9-9.2-2.9-12.5-4.4-3.3-1.6-8-4.6-10.3-6.8-2.4-2.1-6.2-6.7-8.3-10.1-2.1-3.5-5-9.6-6.3-13.5-1.4-4-2.9-10.7-3.4-14.8-.5-4.2-.5-12.2-.1-18 .5-5.8 1.5-14.1 2.4-18.5.8-4.4 3-11.1 4.9-15 2.2-4.5 5.1-8.6 8.3-11.5 2.7-2.5 7.4-5.8 10.4-7.4 3-1.7 7.2-4.2 9.3-5.8 3-2.1 5.1-2.8 8.8-2.8zm-3.7 25.2c-2.7 1.8-6.5 4.5-8.3 5.8-2 1.5-5.3 2.7-8 3-4.5.5-4.6.5-5.8 5.5-.7 2.8-1.8 8.8-2.4 13.5-.5 4.7-1 11.9-1 16 0 4.3.8 10.9 2 15.5 1.1 4.4 3.5 10.4 5.3 13.4 1.7 2.9 5 6.9 7.2 8.8 2.5 2.1 6.7 4.2 11 5.6 3.8 1.1 9.5 2.1 12.5 2.1 3.7 0 7.3-.9 11-2.5 3-1.4 7.3-4.1 9.5-6.1 2.2-1.9 6.7-7.5 10-12.4s6.7-10.9 7.6-13.4c1-2.5 2.2-8.3 2.8-13 .8-5.9.8-10.2.1-14-.6-3-2-7.5-3.2-10-1.2-2.5-5.6-8-9.8-12.4-4.1-4.3-9.2-8.7-11.2-9.7-2.1-1.1-5.7-2.1-8-2.4-2.8-.3-6.5.2-10.3 1.4-3.3 1.1-8.2 3.5-11 5.3zm207 54.9c2.4 0 4.7.6 5.8 1.7 1 1 1.8 3.1 1.7 5 0 2.3-.8 3.9-2.7 5.5-1.7 1.3-15.2 6.3-34 12.5-17.2 5.6-31.3 10.7-31.3 11.2 0 .6.8.8 1.8.6.9-.3 11.2-1 22.7-1.7 11.5-.6 24.8-1.7 29.5-2.4 4.7-.7 9.2-1 10-.7.8.3 2.3 1.2 3.3 2.1 1 .9 1.8 3 1.8 4.6 0 1.7-.8 3.8-1.8 4.7-1 .9-3 2.1-4.5 2.7-1.6.6-5.6 1.5-9 2.1-3.5.5-17.8 1.4-31.8 2-14 .6-28.1 1.5-31.2 2-4.3.7-6.5.7-8.4-.2-1.4-.7-2.8-2.2-3.1-3.3-.3-1.1-.2-3.2.1-4.7.5-2.3.2-3-1.9-3.8-1.4-.5-3.1-2.1-3.7-3.5-1-2-1-3 0-5 .6-1.4 2.2-2.9 3.5-3.4 1.2-.5 11.9-4.4 23.7-8.7 11.8-4.2 29.2-10.3 38.5-13.5 9.5-3.3 18.8-5.8 21-5.8zm-276.5 12c1.9 0 6 1.2 9 2.7 4.1 2 6.4 4 8.8 7.7 2.7 4.1 3.2 5.7 2.7 8.5-.3 1.9-1.6 5-3 6.8-1.4 1.7-3.9 3.9-5.5 4.7-2.6 1.3-3 2-3 5.8 0 2.3-.3 5.7-1.5 11l6.5-.5c3.6-.3 8-1.3 9.8-2.2 2.3-1.2 3.7-1.3 5.2-.6 1.2.6 2 2 2 3.5 0 1.6-1 3.3-2.7 4.5-1.6 1.1-5.3 2.5-8.3 3.1-3.1.7-8.9.9-13.2.5-6.9-.5-8.5-.3-13.8 1.9-3.3 1.4-7.9 2.5-10.2 2.5-2.6 0-6.5-1-9.5-2.5-2.9-1.4-5.8-3.4-6.3-4.5s-.8-2.7-.5-3.5c.3-.8 1.5-1.8 2.8-2.1 1.4-.4 4 .4 7.2 2.1 4.9 2.6 5.1 2.6 10 1.1 2.8-.8 5.5-2.1 6.1-2.8.6-.7 1.4-4.4 2.1-15.3L946 636c-2.3-2.1-4.2-5.1-4.9-7.5-.6-2.2-1.1-5.9-1.1-8.2 0-3 .7-5.3 2.3-7.4 1.3-1.8 3.9-3.8 5.8-4.5 1.9-.7 5-1.3 6.9-1.3zm-240.6 22.5c4.4.7 17.8 1.8 29.6 2.4 11.8.6 22.2 1.4 23 1.7.8.3 2.5 1.5 3.8 2.7 1.4 1.3 2.3 3.3 2.3 5.1 0 1.7-.8 3.8-1.8 4.7-1.6 1.5-3.9 1.6-24.3.7-12.4-.5-26.4-1.3-31.2-1.9-4.9-.5-10-1.6-11.5-2.4-1.6-.7-3.4-2.7-4-4.5-1.1-2.6-1-3.5.3-5.7.9-1.4 2.5-2.8 3.6-3.2 1.1-.5 5.7-.2 10.2.4zm379.1-.6c.5 0 3.2.7 6 1.5 2.7.8 6.5 2.6 8.2 4 1.8 1.4 4.2 4 5.3 5.8 1.1 1.7 2 4.6 2 6.2-.1 1.7-1 4.6-2.1 6.5-1.2 1.9-3.5 4.6-5.2 6-1.8 1.4-4.8 3-6.7 3.7-1.9.7-4.8 1.2-6.5 1.2-1.7 0-4.8-.8-7-1.8-2.2-.9-5.2-3.2-6.8-4.9-1.5-1.8-3-4.4-3.3-5.9-.4-1.6-.4-4.6 0-6.8.4-2.8 1.9-5.4 4.8-8.5 2.3-2.5 5.5-5 7.2-5.7 1.7-.7 3.6-1.2 4.1-1.3zm-1.7 18.7c.1.7 1.2 1.3 2.4 1.3 1.3 0 3-.5 3.8-1 1.3-.9 1.3-1.1 0-2-.8-.5-2.2-1-3.1-1-.9 0-1.9.3-2.4.7-.5.3-.8 1.2-.7 2zm-270.6-11.6c.5-.1 2.9.5 5.5 1.2 2.8.7 6.5 2.8 9.2 5.2 2.4 2.2 5.3 5.8 6.2 8 1 2.2 1.9 5.4 1.9 7 0 1.7-.9 4.8-1.9 7-1 2.2-2.9 5-4.2 6.2-1.3 1.2-4.6 3.2-7.4 4.4-3.7 1.6-6.1 2-9.2 1.5-2.6-.4-5.6-1.7-7.4-3.3-1.8-1.6-3.9-4.1-4.7-5.8-.9-1.7-1.5-5.4-1.4-8.5 0-3 .8-7.5 1.6-10 .9-2.5 1.6-5.2 1.6-6 0-.8.7-2.3 1.7-3.2 1-1 3.2-2.2 4.8-2.7 1.6-.5 3.3-1 3.8-1zm.9 23.3c.1 1.1.9 2.1 1.6 2.3.6.2 2.1-.6 3.2-1.7 1.8-1.8 1.8-2.3.6-4.2-.7-1.3-2-2.4-2.9-2.6-.9-.2-1.8.6-2.2 2-.4 1.3-.5 3.2-.3 4.2zm-76.7-11.1c10.6.2 13.6.5 15.8 2 2 1.2 2.7 2.5 2.7 5 .1 2-.7 3.9-2.1 5.2-1.9 1.8-4 2.1-20.8 2.6-14.9.5-20.9 1.2-30.1 3.3-6.3 1.4-12.6 2.6-14 2.6-1.4.1-3.3-.7-4.3-1.7-1.1-1.2-1.7-3-1.5-5.3.2-2.7 1.1-3.9 3.8-5.7 1.9-1.3 7.5-3.3 12.5-4.4 5-1.1 12.6-2.4 17-2.9 4.4-.4 13.9-.7 21-.7zm704.5 1.4c1.9.3 5.2 1.4 7.3 2.4 2 1.1 4.4 2.9 5.2 4.2.8 1.2 1.5 3.6 1.5 5.2 0 2-.9 4-2.7 5.8-1.6 1.5-4.6 3.1-6.8 3.6-2.4.5-5.3.5-7.2 0-1.8-.5-4.3-2.1-5.6-3.6-1.3-1.6-2.7-4.4-3.1-6.3-.5-2.3-.3-4.5.6-6.4.7-1.6 2.6-3.5 4.3-4.2 1.7-.8 4.5-1.1 6.5-.7zm40.8 12.3c1.2 0 3.1.5 4.2 1 1.1.6 2 1.6 2 2.3 0 .6 1.6 2.2 3.5 3.5 1.9 1.2 4.4 3.7 5.5 5.5 1.1 1.7 2 4.7 2 6.5 0 1.7-.7 4.6-1.5 6.2-.8 1.7-2.5 3.7-3.7 4.5-1.3.8-4.2 1.5-6.5 1.5-3.3 0-5.1-.7-7.5-2.8-1.9-1.7-4.3-5.4-7.9-14.7l2.3-5.7c1.2-3.2 2.9-6.2 3.8-6.8.8-.5 2.5-1 3.8-1zm-48.5 16c2 0 4.7.5 6 1.2 1.2.6 2.8 1.9 3.5 3 .6 1 4.8 3.7 9.3 6.1 4.5 2.3 9.8 5.6 11.8 7.3 2 1.7 5.2 6.2 7.3 10 2 3.8 4.4 9.6 5.3 12.9 1.3 4.4 1.6 8 1.2 13.5-.3 4.2-1.5 10.2-2.8 13.5-1.6 4-4.2 8-8 12-3.4 3.6-8 7.2-11.5 8.9-3.3 1.7-7.7 3.2-9.9 3.4-2.2.3-5.8-.1-8-.9-2.2-.7-5.5-2.7-7.4-4.3-1.8-1.7-4.2-4.8-5.2-6.8-1.1-2.1-2.3-6.4-2.8-9.5-.5-3.2-.7-7.8-.6-10.3.2-2.5.6-11.2 1-19.5.6-11 .5-15.2-.3-15.7-.7-.5-1.2-2.7-1.2-5 0-2.4.9-6.3 2.1-8.8 1.1-2.5 1.9-5.3 1.8-6.2-.1-.9.9-2.4 2.2-3.3 1.3-.8 4.1-1.5 6.2-1.5zm1.8 45c-.2 13.6.1 23.1.8 25.8.7 2.8 2 4.7 3.9 5.9 1.8 1 3.6 1.4 5.5 1 1.5-.4 4.6-2 7-3.6 2.3-1.5 5.4-4.6 6.9-6.7 1.5-2.2 3.2-6.1 3.9-8.9.6-2.7 1-7.2.7-10-.2-2.7-1.8-7.9-3.4-11.4-1.6-3.5-4.2-7.6-5.9-9-1.7-1.4-6.7-4.5-11.2-6.9-4.6-2.3-8.6-4.2-9-4.2-.3 0-.2 1.5.3 3.3.5 1.7.7 12.9.5 24.7zM991.4 833.1c3.4-.1 5.8.5 7.4 1.6 1.4 1 3.1 3.3 3.8 5.1.7 1.7 1.3 4.9 1.3 7 0 2.4-1 5.3-3 8.5-1.6 2.6-3.7 4.9-4.5 5.2-.8.3-1.5 1-1.5 1.5 0 .6 2.3 2.1 5 3.5 3.1 1.6 5.2 3.4 5.6 4.8.4 1.2.4 3 0 4-.3.9-1.6 2.4-2.8 3.2-1.9 1.3-3.1 1.4-6.5.5-2.4-.5-5.6-2.1-7.3-3.5-2.7-2.3-3.1-2.3-3.6-.7-.3.9-1.1 2.8-1.7 4.2-.9 1.8-2.2 2.6-4.7 2.8-2.3.2-4.1-.3-5.2-1.5-1.5-1.5-1.7-3.2-1.4-11.3.3-5.2 1.1-14 1.9-19.5.8-5.5 1.8-10.8 2.1-11.7.3-1 1.6-2 2.9-2.3 1.2-.2 3.3-.6 4.7-.8 1.4-.3 4.8-.5 7.5-.6zm-4.6 16.3.2 3.1c3.8-4.3 4.9-5.9 4.9-6.5 0-.5-.8-1-1.8-1s-2.2.3-2.7.7c-.5.3-.7 2-.6 3.7zm-99.1-287.8c.6.2 2.1.4 3.2.4s3.6 1.5 5.5 3.3c2.5 2.1 4.2 5.1 7.5 15.2l-2.6 5c-1.5 2.8-3.1 5.6-3.8 6.4-.6.8-2.6 2-4.3 2.8-2.1.8-4.7 1-7 .6-2.7-.5-5.1-2-8.1-5.2-2.4-2.5-4.8-6.2-5.4-8.1-.8-2.6-.8-4.6 0-7.7.7-2.4 2.5-5.9 4-7.8 1.7-2 4.3-3.9 6.3-4.4 1.9-.5 4-.7 4.7-.5zm147.5 6.8c2.6.4 5.9 1.4 7.5 2.5 1.5 1 3.5 3.6 4.6 5.7 1.4 2.9 1.7 5.2 1.3 8.9-.4 3.5-1.4 6.1-3.5 8.5-1.6 1.9-4.4 4.6-6.3 5.8-2.8 1.9-4.3 2.3-7.9 1.8-3.1-.3-5.4-1.4-7.4-3.3-1.6-1.5-3.5-4.3-4.2-6-.8-1.8-1.4-5.1-1.4-7.3s.6-5.5 1.4-7.2c.7-1.8 2.2-4.1 3.2-5 1.1-.9 3.2-2.4 4.9-3.3 2.1-1.1 4.4-1.4 7.8-1.1z"/>
</svg>
