<svg version="1.2" xmlns="http://www.w3.org/2000/svg" width="2048" height="2048">
    <path fill-rule="evenodd" d="M457.6 666c2.1 0 4.4.9 6.1 2.4 1.6 1.3 8.7 9.5 15.8 18.2 7.2 8.7 17.9 22.1 23.8 29.7 10.1 12.9 10.8 13.6 12.9 12.5 1.3-.6 5.7-3.7 9.8-6.9 4.1-3.1 15.6-12.5 25.5-20.8 13.6-11.5 18.8-15.3 21.5-15.7q3.5-.5 5.7 1c1.3.9 2.8 2.6 3.4 3.9.6 1.2.8 3.8.5 5.7-.3 1.9-6.7 14.9-14.1 28.8-7.4 13.8-13.5 25.7-13.5 26.2s2.1 1.3 4.7 1.6c2.7.3 13.3 2.8 23.8 5.4 10.5 2.6 22.6 6.1 27 7.8 4.4 1.7 9 4.1 10.2 5.4 1.2 1.3 2.5 3.7 2.8 5.3.4 1.8.2 4.1-.7 5.9-.7 1.5-2.7 3.6-4.3 4.6-1.7 1-8.9 3.6-16 5.8-7.2 2.3-24 7.2-37.5 11s-25.7 7.2-27.3 7.6q-2.7.6-3.1 2.9c-.2 1.2-3.8 17.3-8.1 35.7-4.2 18.4-8.6 35.9-9.6 38.8-1.1 3-3 6-4.7 7.2-1.5 1.2-3.5 2.1-4.5 2-.9 0-2.9-.6-4.5-1.4-1.5-.7-3.3-2.6-4-4.2-.7-1.6-1.6-5.4-2.1-8.4s-1.5-15-3.6-47.8l-3 2.2c-1.6 1.1-11 10-20.9 19.6-9.8 9.6-22.2 22.5-27.6 28.5-5.3 6-13.6 16-18.4 22-4.8 6-13.8 18.6-20.1 28-6.2 9.4-14.6 22.9-18.6 30-4 7.1-10.5 19.7-14.4 28-4 8.2-9.5 20.6-12.3 27.5-2.8 6.9-7.3 19.2-10.2 27.5-2.8 8.2-6.7 20.8-12.2 41l3.7 15.5c2.9 12.5 3.4 16 2.5 18.2-.5 1.6-2 3.5-3.3 4.3-1.2.8-3 1.5-4 1.5-.9 0-3.1-1.1-4.7-2.5-1.7-1.4-3.2-3.8-3.5-5.5-.3-1.9-1-2.8-1.8-2.5-.6.3-2.4.1-4-.5s-3.3-2.4-4.2-4.5c-1.4-3.2-1.3-4.4 2.7-24l-3.2-14c-1.7-7.7-3.5-14.7-4-15.5-.7-1.3-1.1-1.3-3.2.1-1.2.9-6.8 6.5-12.3 12.5-5.5 6-15.7 17.5-22.7 25.4-6.9 8-14.5 16-16.7 17.8-2.3 1.7-5.3 3.7-6.9 4.2-1.5.6-3.9.8-5.5.5-1.5-.3-3.9-2-5.3-3.8-2.5-3-2.6-3.7-2.1-10.2.4-3.8 2.4-14.7 4.6-24 2.2-9.3 3.8-17.2 3.6-17.5-.2-.3-3 1-6.2 2.9s-14.8 8.9-25.8 15.6c-11 6.8-20.7 13-21.5 13.9-.8.9-2.5 1.7-3.8 1.6-1.2 0-3.1-.5-4.2-1s-2.5-2.1-3-3.5q-1-2.5 0-5c.8-2.1.7-2.7-1-3.5-1.1-.5-2.5-2.1-3-3.5-.7-1.7-.7-3.4.1-5.3.5-1.5 5.4-8.5 10.8-15.7 5.5-7.2 15.5-19.5 22.3-27.5 6.8-8 20.1-22.6 29.4-32.5 9.4-9.9 25.6-25.9 36-35.6 10.4-9.7 22.7-21 27.4-25 4.7-4.1 14.4-12.2 21.5-18 7.2-5.8 17.7-14.1 23.5-18.5 5.8-4.5 15.4-11.6 21.5-15.9 6-4.4 18.9-13.1 28.5-19.6 9.6-6.4 25.4-16.3 35-22.1 9.6-5.8 24-14 32-18.3 8-4.3 17.4-8.9 21-10.4 6.3-2.5 6.5-2.7 6.2-5.8-.1-2.6-.6-3.2-2-2.9-.9.3-7.8 2-15.2 4-7.4 1.9-25 6.9-39 11.1-14 4.3-27.8 8-30.5 8.2-4.3.5-5.4.2-8.3-2.1-2.7-2.2-3.2-3.2-3.2-6.8 0-3.9.6-4.8 5.3-9.3 2.9-2.7 17.8-13.5 33.2-24 15.3-10.5 31.2-21.6 35.2-24.7 4-3.2 7.6-6.8 7.9-8 .4-1.6-3.5-12.7-11.9-34.3-6.9-17.6-13.7-35.1-15.1-39-1.5-3.9-2.6-8.4-2.6-10 0-1.6.7-3.8 1.6-4.7.8-1 2.1-1.8 2.7-1.8.7.1 1.8-.6 2.6-1.5.7-.8 2.8-1.5 4.7-1.5zm22.4 57c4.5 10.7 9.1 22 10.1 25 1.1 3 1.9 7.8 1.9 10.5 0 3.7-.7 6.1-2.8 9.5-1.5 2.5-5.9 7-9.7 10.1-3.9 3.1-14.7 10.9-24 17.3-9.4 6.4-16.4 11.6-15.8 11.6.7 0 6.6-1.6 13-3.5 6.5-1.9 20.3-5.5 30.8-8.1 12.8-3.1 20.1-4.4 22.2-4 1.8.3 4 1.6 4.8 2.9.8 1.2 1.5 3.2 1.5 4.5 0 1.2-1.1 3.6-2.5 5.2l-2.5 3c1.5 20.5 2.2 29.2 2.5 32.5.4 3.3.8 5.8 1 5.5.2-.3 2.7-10.4 5.5-22.5 2.9-12.1 6.1-24.3 7.1-27 1.1-2.7 2.9-6 4.2-7.3 1.2-1.2 3.5-2.5 5.2-2.8 1.6-.3 4.2-.1 5.7.5 1.6.6 3.6 2.4 4.5 4l1.8 2.8c38-10.8 49.5-14.3 50-14.7.6-.5-1.6-1.6-5-2.5-3.3-1-12.8-3.5-21-5.6-8.3-2.1-16.6-3.9-18.5-3.9-2.3.1-4.2-.7-5.5-2.1-1.2-1.2-2-3.4-1.9-5.3 0-1.7-.8-4-1.8-5.1-1-1.1-1.8-3.4-1.8-5s2.5-7.6 5.5-13.3c3-5.6 5.4-10.4 5.2-10.7-.1-.2-3.6 2.3-7.7 5.6-4.1 3.4-10.7 8.2-14.5 10.8-3.9 2.6-8.7 5-10.8 5.4-2.5.5-4.9.2-7.5-.9-2-.8-4.5-2.3-5.6-3.2-1-.9-8.5-10.6-16.5-21.5C479 709.9 472 701 471.5 701c-.4 0-.6.6-.2 1.2.3.7 4.2 10.1 8.7 20.8zm243.5 118.1c4.4-.1 10.7.6 14 1.4 3.3.9 9.4 3.2 13.5 5.1 4.1 2 10.2 5.5 13.5 7.9 3.3 2.3 9.9 8.3 14.6 13.1 5.3 5.6 11.8 14 17.5 22.6 4.9 7.5 11.8 18.3 15.4 23.9 4.2 6.5 7.6 10.7 9.5 11.6 2.3 1.2 4.7 1.4 9.7.9 3.8-.3 17.7-2.9 31-5.6 13.4-2.8 31.9-6.4 41.3-8 9.4-1.6 23.7-3.8 32-4.9 8.2-1.1 23.8-2.9 34.5-4s26.7-2.6 35.5-3.3c8.8-.6 28.8-1.2 44.5-1.3 23.1 0 30.3.3 38 1.8 5.2.9 13.8 3.1 19 4.7 5.2 1.6 14.7 5.2 21 8 6.3 2.8 15.3 7.2 20 9.7 4.7 2.5 10.9 6.1 13.7 8 4.8 3 5.5 3.2 7.5 1.9 1.3-.7 9.2-7.6 17.7-15.2 8.4-7.7 19.4-17.2 24.5-21.2 5-4.1 14.5-11 21.1-15.4 6.6-4.4 15.5-9.8 19.7-11.9 4.3-2.2 10.2-4.4 13-5 4.3-.9 6.4-.8 10.8.4 3.1.9 7.7 3.3 10.5 5.4 2.7 2.2 7.3 7.3 10.2 11.4 2.8 4.1 6.7 10.8 8.6 14.9 1.9 4.1 4.6 11.1 6 15.5 1.4 4.4 3.7 12.5 5.1 18 1.4 5.5 5.2 21.9 8.5 36.5 3.3 14.6 7.1 32.6 8.5 40 1.4 7.4 3.4 21.6 4.5 31.5 1.1 9.9 2.5 29.3 3.1 43 .6 13.8 1.5 63.9 2 111.5.6 47.6 1.5 89.4 2 93 .6 3.6 1.5 8.8 2 11.5 1 4.9 1.1 5 4.3 4.6 2.2-.2 3.5.2 4.2 1.3.9 1.4 4 1.7 21 2.3 12.1.3 27.1.1 38-.6 9.9-.7 24.5-2.1 32.5-3.2s21.9-3.6 31-5.4c9.1-1.9 23.7-5.5 32.5-8 8.8-2.6 22.7-7.1 31-10.2 8.2-3.1 22-8.5 30.5-12.1 8.5-3.6 26.1-11.9 39-18.3 12.9-6.5 33.8-17.7 46.5-24.9 12.7-7.1 25.5-14 28.5-15.1 3-1.1 7.7-2.5 10.5-3.1 2.7-.6 7.5-.8 10.5-.6 3 .3 7.7 1.5 10.5 2.7 2.7 1.2 6.9 4.1 9.3 6.4 2.3 2.3 5.4 6.9 6.9 10.2 2.3 5 2.7 7.4 2.8 14.7 0 8.7 0 8.8 2.9 10 1.6.7 4 2.6 5.4 4.3 1.4 1.7 3.5 5.3 4.8 8 1.3 2.8 2.9 8.9 3.6 13.7 1.2 8.1 1.5 8.8 3.8 9.3 1.4.3 3.5 1.5 4.7 2.7 1.1 1.3 3.9 6.3 6.1 11.3 2.2 5 5 12.2 6.1 16 1.2 3.8 2.1 8.7 2.1 10.8 0 2.5-.8 4.6-2.4 6.5-1.8 2-3.4 2.7-5.9 2.7-2.4 0-4.4-.8-6.1-2.5-1.8-1.7-3.1-4.8-4.2-9.5-.9-3.8-2.5-9.4-3.5-12.3-1.1-2.8-2.4-5.2-2.9-5.2s-1 .5-1 1-1.3 1.7-3 2.5-3.9 1.5-5 1.5-3.3-1.3-8-6l.6-14.7c.4-9.7.3-16.3-.5-19.1-.6-2.3-1.6-4.4-2.1-4.7-.5-.3-2.2.4-3.8 1.5-1.5 1.2-4 2.1-5.7 2.1-1.7 0-4.1-.9-5.5-1.9-1.4-1-2.8-3.2-3.2-4.8-.4-1.8.1-5.8 1.2-10.4 1.1-4.1 2-10 2-13 0-3.8-.6-6.5-2-8.7-1.1-1.8-3.7-4-5.8-4.9-2.5-1.1-5.1-1.4-8.2-1-2.5.4-8.1 2.4-12.5 4.5s-16.8 8.9-27.5 15c-10.7 6.2-29.6 16.3-42 22.4-12.4 6.2-29.5 14.3-38 17.9-8.5 3.7-20.9 8.7-27.5 11.1-6.6 2.4-18.3 6.5-26 9-7.7 2.5-20.5 6.2-28.5 8.2-8 1.9-20.6 4.7-28 6.1-7.4 1.3-20.7 3.4-29.5 4.6-13.4 1.8-21.1 2.2-79.4 2.3l-9.2 13.5c-5 7.4-12.2 17.5-15.9 22.5-3.7 5-10.6 13.3-15.2 18.5-4.7 5.2-12.7 13.5-17.9 18.4-5.2 5-13.7 12.4-18.9 16.5-5.2 4.2-14.2 10.8-20 14.7-5.8 3.9-17 10.9-25 15.6-8 4.7-22.8 13-33 18.6-10.2 5.5-23.2 12.3-29 15-5.8 2.7-13.4 6-17 7.2-3.6 1.3-6.8 2.6-7.2 2.9-.4.3 0 3.3.9 6.6.9 3.5 1.5 9.9 1.5 15.5 0 5.2-.5 11.6-1.1 14.3-.6 2.6-2 7.1-3.1 10-1 2.8-3.4 7.2-5.3 9.7-2.1 2.8-5.3 5.5-8.8 7.3-3.7 1.8-6.9 2.7-10.2 2.7-2.6 0-5.9-.5-7.5-1.1-1.5-.5-4.4-2.2-6.5-3.7-2.1-1.5-5.4-4.9-7.3-7.7-1.9-2.7-4.5-8.4-5.9-12.5-1.4-4.1-3.2-11.3-4-16-.8-4.7-1.6-11.9-2-23.8l-3.5.5c-1.9.3-5 .8-10.2 1.8l2 2.5c1.1 1.4 2.6 4.5 3.3 7 1.1 3.8 1 5.2-.4 9-.9 2.6-3.3 6-5.5 8-2.1 1.9-5.1 4.4-9.4 7.5l7.3 5.5c4 3 11 9.1 15.6 13.5 6.5 6.2 8.3 8.6 8.3 10.8 0 1.5-.9 3.6-2 4.7s-3.3 2-5 2c-2.3 0-4.7-1.6-10.8-7.1-4.2-3.9-11.3-10.1-23.6-20.4l.9 4c.5 2.2.9 5.6.8 7.5 0 2.5-.7 4-2.4 5.3-1.3 1-3.2 1.8-4.2 1.7-.9 0-3-1.2-4.5-2.7-2.1-2.1-3.2-4.7-4.6-10.8-1.2-5.7-1.7-13.4-2.1-46.5h-3.3c-3.2 0-3.2 0-2.5 3.8.5 2 .8 7.5.7 12.2 0 5.9-.7 10.8-2.3 16-1.3 4.1-3.6 10.1-5.2 13.3-1.6 3.1-4.6 7.6-6.7 9.8-2 2.3-5.5 5.1-7.7 6.2-2.6 1.4-6 2.1-9.5 2.1-4.1.1-6.6-.6-10-2.5-2.5-1.4-6-4.4-7.8-6.5-1.8-2.1-4.2-6.4-5.3-9.4-1.1-3-2.6-8.9-3.2-13-.8-5.5-.8-9.9 0-16.5.6-5 1.9-10.8 2.9-13 1-2.2 1.9-4.2 2.1-4.5.2-.3-3.2-1.1-7.4-1.8-4.3-.7-8.8-1.5-10.1-1.7-1.9-.4-2.2-.1-2.2 3 0 2.5-.6 3.9-2.3 5-1.2.8-3 1.5-4 1.5-.9 0-3.1-1.5-4.8-3.2-2.7-2.8-3.9-3.3-7.9-3.3-3.4 0-5.5.7-8.1 2.6-1.9 1.4-4.5 4.8-5.8 7.5-1.7 3.5-2.4 6.6-2.5 10.9 0 4.4.6 6.9 2.1 9.5 1.2 1.9 3.9 4.5 6 5.6 2.1 1.2 5.2 2.5 6.8 2.9 1.6.3 4.8.2 7-.4 3-.8 4.4-1.9 5.5-4.3.8-1.7 2.2-3.6 3-4.1.8-.5 2.7-.7 4.2-.3 1.6.3 3.5 1.6 4.3 2.9.9 1.2 1.6 4.2 1.7 6.7 0 2.5.6 11 1.1 19 .9 12 .8 15-.4 17.4-.8 1.7-2.6 3.3-4.2 3.8-1.9.5-3.5.3-5.2-.7-1.5-.9-2.9-3-3.5-5.2-.5-2.1-1-7.5-1-20.3l-6.3.6c-4.3.5-7.9.2-11.7-.9-3-.9-8-3.3-11-5.4-3.6-2.5-6.6-5.8-8.8-9.3-1.7-3-3.7-7.7-4.3-10.5-.7-3.6-.7-6.9.1-11.5.6-3.6 2.2-8.9 6-17l-6.8-1.5c-3.7-.8-13-2.9-20.7-4.6-7.7-1.6-18-4.1-23-5.5-5-1.4-14-4.1-20-6.1-6-1.9-17.8-6.3-26-9.6-8.3-3.3-23.8-10.1-34.5-15.1-10.7-5.1-28.7-14.1-40-20-11.3-6-25.2-13.6-31-16.9-5.8-3.3-16.4-10-23.5-14.8-7.1-4.8-18-12.7-24-17.6-6-4.8-17.9-15.4-41.5-38.3l-3.8 1.2c-2.3.8-9.9 1.2-20.7 1.2-9.4-.1-22.9-.6-30-1.3-7.1-.6-20.4-2.3-29.5-3.7-9.1-1.4-24.1-4.1-33.5-6-9.4-1.9-25.8-5.7-36.5-8.5s-27.1-7.5-36.5-10.6c-9.4-3-24.4-8.4-33.5-12-9.1-3.5-26.9-11.5-39.5-17.8-12.6-6.2-28.9-14.8-36-19.2-7.1-4.3-18.4-11.7-25-16.5-6.6-4.7-14.9-10-18.5-11.7-4.7-2.2-7.9-3.1-11.8-3.1-4.4 0-5.6.4-8 2.8-1.5 1.6-5.5 8.3-9 15-3.4 6.7-7.2 12.9-8.5 13.7-1.2.8-3.6 1.5-5.2 1.5-1.7 0-4-.7-5.3-1.5-2-1.4-2.4-1.3-3.8.3-.9.9-2.5 3.3-3.4 5.2-1 1.9-3.4 8.7-5.3 15-3.2 10.3-4 11.9-7.9 15.4-2.4 2.1-5.1 4.2-6.1 4.7-.9.5-3.4.8-9.1.4l-3.8 8.5c-2 4.7-3.5 9.1-3.2 9.8.2.6-.3 3-1.1 5.2-1.5 3.9-1.4 4.1 2.1 10.8 2 3.7 6 10.3 9 14.7 2.9 4.4 8.3 11.8 12 16.5 3.7 4.7 18.7 20.4 33.3 35 14.6 14.6 34.5 33.3 44.1 41.5 9.6 8.3 23.7 20 31.3 26 7.6 6.1 19.3 15 26 19.9 6.7 4.8 18.1 12.5 25.2 16.9 7.1 4.5 19.7 11.5 28 15.7 8.2 4.2 20.9 10 28 13 7.1 2.9 19.5 7.6 27.5 10.5 8 2.9 21.5 7.3 30 9.8 8.5 2.6 20.9 6 27.5 7.6 6.6 1.6 20.8 4.3 31.5 6 10.7 1.7 21.7 3.6 24.5 4.1 3.2.6 5.9 1.9 7.5 3.6 1.6 1.7 2.5 3.7 2.5 5.9 0 1.9-.8 4.2-2 5.5-1.8 2-2.2 5.5-4.2 31.9-1.3 16.3-3.6 44.2-5.3 62.1-1.6 17.9-3.5 41.5-4.1 52.5-.7 12.3-.9 32.6-.6 52.5.3 17.9 1.5 44.9 2.6 60 1.1 15.1 3.2 39.9 4.6 55 1.5 15.1 3.7 35.2 5 44.5 1.4 9.3 3.8 23.3 5.5 31 1.7 7.7 6 25.4 9.5 39.3 3.6 13.8 6.5 25.7 6.5 26.2 0 .6-3.9 1-19.5 1l-8.2-33.2c-4.6-18.3-9.4-39.8-10.7-47.8-1.4-8-3.2-20.1-4-27-.9-6.9-2.7-24.7-4.1-39.5-1.3-14.8-3.4-40.7-4.6-57.5-1.6-22.2-2.2-40-2.2-65.5 0-24.7.4-41 1.7-55.5.9-11.3 2.8-32 4.1-46 1.4-14 3.6-36.1 4.9-49 1.4-12.9 2.6-25.5 3.1-32.3l-17-2.8c-9.4-1.6-25.3-4.9-35.5-7.4-10.2-2.6-29.8-8.4-43.5-12.9-13.8-4.6-33.1-11.8-43-16.1-9.9-4.2-23.6-10.6-30.5-14.2-6.9-3.7-16.6-9.1-21.5-12.1-5-3-14.4-9.2-21-13.7s-18.3-13.1-26-19.1c-7.7-6-20.8-16.5-29-23.3-8.3-6.9-21.8-18.6-30-26.1-8.3-7.4-22.9-21.4-32.5-31-9.6-9.6-21.3-22.2-25.9-28-4.7-5.8-11.4-15-14.9-20.5-3.6-5.5-8.5-13.8-10.9-18.5-2.4-4.7-5-10.7-5.8-13.5-.9-2.7-1.5-6.1-1.5-7.5 0-1.4 2.9-9 6.5-17s7.8-16.1 9.3-18c1.6-1.9 4.5-4.3 6.5-5.2 2-1 5-1.8 6.7-1.8 2.9 0 3.1-.2 6.7-11.2 2.3-6.9 5.4-13.7 7.8-17.3 2.3-3.4 5.9-7.1 8.5-8.7 2.5-1.6 6.4-3.4 8.8-4.1 4-1.1 4.7-1.8 9-9.6 2.6-4.6 6.3-10.3 8.3-12.5 1.9-2.3 5.5-5.1 8-6.3 2.4-1.3 7.1-2.5 10.4-2.9 4.1-.4 7.9-.1 12.2 1 3.5.9 9.1 3 12.5 4.7 3.5 1.8 11.9 7.1 18.8 11.9 6.9 4.9 17 11.7 22.5 15.1 5.5 3.5 19 10.9 30 16.5s26.3 12.9 34 16.2c7.7 3.3 20.4 8.3 28.2 11.1 7.9 2.8 23 7.6 33.5 10.6 10.6 3.1 28.3 7.6 39.3 10 11 2.5 27.9 5.8 37.5 7.4 9.6 1.7 22.9 3.7 29.5 4.5 6.6.9 19.2 2.1 28 2.6 8.8.6 17.4.9 19 .6 1.6-.2 3.9-.5 5-.5 2-.1 2-.7 1.7-35.4-.3-28.1.1-45.1 2.2-84.7 1.5-27.2 3.1-56.9 3.7-66 .5-9.1 1.7-23.5 2.5-32s2.4-21.6 3.5-29c1-7.4 2.4-16 3-19 .6-3 3.3-15.8 5.9-28.5 2.7-12.6 5.8-28.4 6.9-35 1.1-6.6 3.9-24.6 6.1-40 2.3-15.4 5.5-34.7 7.1-43 1.6-8.2 4.8-20.4 7-27 2.2-6.6 5.7-14.9 7.7-18.5 2-3.6 6.3-9.2 9.6-12.5 3.4-3.3 8.3-7.1 11.1-8.5 2.7-1.3 7-3 9.5-3.6 2.5-.7 8.1-1.3 12.5-1.3zm-325 47.9c-7.7 5.2-22.8 16.1-33.5 24.1s-24.9 19-31.5 24.4c-6.6 5.4-17.2 14.4-23.5 19.9-6.3 5.6-18.9 17.1-28 25.7-9.1 8.6-25.6 25.2-36.6 37-11.1 11.8-24.1 25.9-28.9 31.4-4.8 5.5-11.6 13.6-15.1 18s-6.3 8.1-6.1 8.3c.1.2 6-3.5 13.2-8.1 7.1-4.6 17.5-11.1 23-14.4 5.5-3.3 12.1-6.8 14.7-7.7 4-1.3 5.4-1.4 8.5-.3 2 .6 4.6 2.5 5.7 4 1.3 1.8 2.2 4.8 2.4 8 .3 3.3-.8 10.3-2.8 19.2-1.7 7.7-3 14.1-2.8 14.2.2.2 7.5-7.9 16.3-17.9 8.8-9.9 18.7-20.5 22-23.5 3.3-3 8-6.3 10.5-7.5q4.5-2.1 8-1.6c1.9.3 4.8 1.4 6.3 2.4 1.6 1 3.9 4 5 6.6 1.2 2.6 2.4 4.7 2.7 4.8.3 0 2.7-6.4 5.4-14.3 2.7-7.8 7.4-20.3 10.4-27.7 3.1-7.4 10.6-23.4 16.7-35.5 6.1-12.1 15.2-28.7 20.4-37 5.1-8.2 12.8-20 17.2-26 4.3-6 11.3-15.3 15.4-20.5 4.2-5.2 12.3-14.8 18-21.2 5.7-6.5 10.1-11.8 9.7-11.8-.4 0-7 4-14.7 8.8-7.7 4.8-20.3 13-28 18.2zm307.8-23.5c-1.8 1.4-4.7 4.6-6.5 7.3-1.7 2.6-4.5 7.8-6 11.7-1.6 3.9-4.2 12.2-5.8 18.5-1.6 6.3-4 18.3-5.4 26.5-1.4 8.3-3.7 23.1-5.1 33-1.4 9.9-3.7 24.8-5.1 33-1.4 8.3-4.7 25.5-7.5 38.3-2.7 12.7-6 30.1-7.4 38.5-1.3 8.3-3.1 21.7-3.9 29.7-.8 8-2 21.5-2.6 30-.6 8.5-2.2 36.4-3.5 62-1.4 25.6-3 62.7-3.7 82.5-.6 19.8-.8 38.1-.5 40.8.6 4.3 1.6 5.6 10.4 14.8 5.4 5.6 13.6 13.4 18.3 17.4 4.7 4 15.2 12.3 23.5 18.5 8.2 6.2 22 15.9 30.5 21.5 8.5 5.7 22.2 14.2 30.5 19.1 8.2 4.8 23.1 12.9 33 17.9 9.9 5 23.6 11.5 30.5 14.4 6.9 2.9 21 8.1 31.5 11.7 10.5 3.5 25.1 7.9 32.5 9.8 7.4 2 23 5.6 34.5 8.1s21.5 5 22 5.5c.6.6 1.4.6 2-.1.5-.6 2.8-.9 5-.6 2.2.2 9.6 1.6 16.5 3s18.1 3.3 25 4.2c6.9.9 22.4 1.9 34.5 2.2 12.1.3 29.9 0 39.5-.6 9.6-.6 22.9-2 29.5-3.1 6.6-1.1 22.3-4.7 35-7.9s23.7-5.6 24.5-5.4c.8.3 7.1-2.5 14-6.2s19-10.6 27-15.3c8-4.7 20.1-12.1 27-16.5 6.9-4.4 18.3-12.1 25.5-17.2 7.2-5.1 17-12.5 22-16.5s12.8-10.7 17.4-14.9c4.6-4.2 8.9-8.9 9.6-10.6.7-1.7 7-10 14.1-18.5 7.1-8.6 15.5-19 18.6-23.3l5.8-7.7c-4.8-5.9-5.1-7.2-4.6-10.2.3-2.2-.3-8.9-1.4-15.5-1.2-7.2-2.2-18.7-2.6-29.3-.2-9.6-.9-54.6-1.4-100-.6-45.4-1.4-89.2-2-97.5-.5-8.2-1.5-19.7-2-25.5-.6-5.8-2.5-18.4-4.1-28-1.6-9.6-6.6-33.2-11-52.5-4.5-19.2-9.7-39.5-11.6-45-1.9-5.5-4.4-11.8-5.5-14-1.1-2.2-4-6.8-6.4-10.2-2.4-3.5-5.3-6.8-6.4-7.3-1.1-.5-3.2-1-4.8-1-1.5 0-5.9 1.7-9.7 3.7-3.8 1.9-10.4 5.8-14.5 8.6s-11.1 7.8-15.5 11.1-11.6 9.2-16.1 13.1c-4.4 3.8-13 11.5-19 16.9-6 5.5-12.9 11.2-15.4 12.8-2.5 1.6-6.3 3.3-8.5 3.9-2.9.7-5 .7-7.5-.2-1.9-.7-8-3.9-13.5-7.2-5.5-3.3-15.4-8.6-22-11.8-6.6-3.1-15.4-6.9-19.5-8.3-4.1-1.5-11.1-3.6-15.5-4.6-4.4-1.1-13.8-2.4-21-3.1-9.7-.8-19.3-.8-38 0-13.8.6-32.7 1.8-42 2.6-9.4.8-23.5 2.2-31.5 3-8 .9-22.4 2.7-32 4.1-9.6 1.4-33.5 5.7-53 9.6-19.9 3.9-39.5 7.3-44.5 7.6-7.1.4-10.1.1-14.5-1.4-4-1.3-6.9-3.2-10.5-6.9-2.8-2.9-8.6-11-12.9-18.1-4.4-7.1-10.7-16.9-14-21.9-3.3-5-9.6-12.7-14.1-17.3-4.4-4.6-10.7-10.1-14-12.2-3.3-2.2-8.7-4.9-12-6.1-3.3-1.2-9.2-2.3-13-2.5-4.5-.3-8.6.2-11.5 1.1-2.5.8-6 2.6-7.8 4zm620.6 487.5c-6.9 7.4-18 18.7-24.9 25.2-6.8 6.4-16.9 15.4-22.4 20-5.5 4.5-14.5 11.7-20 15.8-5.5 4.1-17.7 12.4-27 18.6-9.3 6.1-24.2 15.3-33 20.4-8.8 5.1-22.4 12.6-30.3 16.6-7.8 4.1-14.1 7.6-14 7.9.2.4 4.3-1 9.3-3.1 4.9-2 12.2-5.2 16-7.1 3.8-2 16.4-8.7 28-15.1 11.5-6.3 26.6-14.9 33.5-19 6.9-4.1 16.3-10.2 21-13.5 4.7-3.3 12.8-9.4 18-13.6 5.2-4.2 14-11.9 19.5-17.2 5.5-5.3 14.3-14.7 19.5-20.8 5.2-6.2 14.6-18.3 20.7-26.9 6.2-8.6 11.3-16.3 11.3-16.9 0-.7-.4-1.3-.8-1.3-.5 0-3.4 3.7-6.5 8.3-3 4.5-11.1 14.3-17.9 21.7zm-674.2-4.1c6 5.7 16.8 15.1 23.9 20.8 7.1 5.8 20 15.1 28.5 20.8 8.5 5.7 21.4 13.6 28.5 17.5 7.1 4 14.1 7.7 15.5 8.2 1.4.5 2.1.5 1.5 0-.5-.5-7.1-4.6-14.5-9.2s-17.8-11.3-23-14.8c-5.2-3.6-14.5-10.2-20.5-14.6-6-4.5-16.2-12.4-22.5-17.7-6.3-5.2-14.9-13-19.2-17.3-6.5-6.6-7.7-7.5-8.4-5.9-.6 1.4 1.4 3.9 10.2 12.2zm275.4 133.7c1.9.4 3.3.4 3 0-.3-.3-3.4-1.3-6.9-2.1-3.5-.8-6.9-1.5-7.5-1.4-.6.1.9.7 3.4 1.5s6.1 1.7 8 2zm180.5 5.1c.4 13 1.4 21.1 2.5 26.3 1.1 5.2 3.3 12.3 5 15.8 1.6 3.4 4.2 7.1 5.8 8.2 1.5 1.2 3.9 2.1 5.5 2 1.5 0 4-1.2 5.8-2.7 1.7-1.6 4-5.3 5.2-8.3 1.8-4.5 2.1-7.7 2.2-18 0-10.8-.3-13.1-2.2-17-1.2-2.5-2.4-6.4-2.6-8.7-.3-2.4-.9-4.3-1.4-4.2-.4 0-6.4 1.5-13.3 3.3zm-111.3 9.4c-.1 2.4-.4 9.9-.8 16.5-.3 7.2-.2 13.5.5 16 .5 2.2 2.1 5.5 3.3 7.5 1.3 1.9 3.5 4 4.8 4.7 1.9.9 3.2.9 5.3 0 1.6-.7 4.2-3 5.8-5.2 1.6-2.2 3.9-6.7 5-10 1.2-3.3 2.4-9.4 2.7-13.5.2-4.2.2-10-.2-13l-.7-5.5-25.6-2zm62.3 7.5c-1 1-1.3 2.8-1 6 .3 2.4.9 4.5 1.3 4.5s3.2-1.5 6.2-3.3c4-2.3 5.6-3.9 5.9-5.7.2-1.6-.4-3-1.5-3.8-1.1-.7-3.6-1.3-5.6-1.2-2.1 0-3.8.4-3.8 1 0 .5-.6 1.6-1.5 2.5zm710.3-167.5c.7 0 2.2.4 3.5 1 1.2.5 2.8 2 3.6 3.2.9 1.5 1.1 3.9.8 6.8-.3 2.5-2.8 8.9-5.6 14.5-2.8 5.5-7.9 13.8-11.4 18.5-3.5 4.6-10.2 12.7-14.9 18-4.6 5.2-13.5 13.9-19.8 19.3-6.3 5.5-17.3 14.3-24.5 19.7-7.1 5.3-19.3 14-27 19.2-7.7 5.2-20.3 13.2-28 17.8-7.7 4.5-20.3 11.6-28 15.6-7.7 4-20 9.9-27.5 13.2-7.4 3.2-21.3 8.9-31 12.6-9.6 3.7-31.4 11.5-48.5 17.2-17 5.8-38.6 12.7-48 15.3-9.3 2.7-25.1 6.7-35 8.9-9.9 2.3-24.9 5.6-33.3 7.4-8.5 1.8-15.9 3.6-16.5 4-.8.4.2 7.4 3.6 24 2.6 12.8 5.9 30.2 7.2 38.8 1.4 8.5 3.6 25.4 5 37.5 1.3 12.1 3 28.9 3.7 37.5.9 10.4 1.3 34.5 1.3 74 0 35.1-.5 67.8-1.3 82-.7 12.9-2.2 35.8-3.2 51-1.1 15.1-2.7 34.9-3.5 44-.8 9-2 20.1-2.5 24.5-.6 4.4-2.8 20.1-5.1 35-2.2 14.8-4.2 27.8-4.4 28.7-.4 1.5-1.8 1.8-10 1.8-5.6 0-9.5-.4-9.5-1s1.6-11 3.5-23.3c1.9-12.2 4.4-29.2 5.5-37.7 1-8.6 3.1-29.3 4.5-46 1.4-16.8 3.2-42.2 4-56.5.8-14.3 2-40.7 2.6-58.5.7-18.8.9-46.4.6-65.5-.4-18.2-1.1-39.3-1.7-47-.6-7.7-1.9-23-3-34s-3.6-30.8-5.5-44-5-32.7-7-43.3c-3.3-18.5-3.6-19.3-6.7-22.1-2.5-2.3-3.3-3.8-3.3-6.5 0-2.3.8-4.3 2.5-6.1 1.4-1.4 4.1-3 6-3.6 2-.5 12.5-2.9 23.5-5.3 11-2.5 27.7-6.1 37-8.1 9.4-2.1 24.9-6 34.5-8.7 9.7-2.7 28.1-8.5 41-12.8 13-4.3 33-11.3 44.5-15.5 11.6-4.3 27.3-10.5 35-13.7 7.7-3.3 20.6-9.3 28.5-13.4 8-4 22.2-11.9 31.5-17.5 9.4-5.5 22.7-14 29.5-18.7 6.9-4.7 17.7-12.5 24-17.3 6.4-4.8 16.5-13 22.5-18.2 6.1-5.2 14.6-13.2 19-17.9 4.4-4.6 11.1-12.4 14.8-17.4 3.8-4.9 9.1-13.5 11.9-19 2.8-5.6 6-10.6 7.2-11.2 1.2-.6 2.7-1.1 3.4-1.2zM980 480c1.5 0 4.4 1.2 6.6 2.7 2.2 1.4 9.2 7.2 15.5 12.7 6.4 5.5 17.9 16.4 25.6 24.1 7.8 7.7 16.3 17 18.9 20.6 2.6 3.5 6 9.1 7.6 12.2 1.6 3.2 3.9 9.3 5 13.5 1.6 5.6 2 9.6 1.7 14.3-.3 4.4-1.4 8.6-3.4 13-1.7 3.5-5.2 9.1-12.4 18l3 5.2c1.6 2.9 3.7 8.6 4.6 12.8 1.2 6 1.3 8.7.5 14-.6 3.5-2.7 9.8-4.7 14-2.4 4.9-5.7 9.7-9.7 13.8-3.4 3.5-8.6 8.1-11.7 10.1-3 2.1-7.7 4.9-10.5 6.3-2.7 1.4-9 4-14 5.7-4.9 1.7-14.6 4.4-21.5 5.8-11.1 2.4-14.7 2.7-32.5 2.7-16.9 0-21.5-.3-30.2-2.2-5.7-1.2-14-3.6-18.5-5.2-4.6-1.7-12.1-5.2-16.8-7.9-4.6-2.7-9.1-6-10-7.4-1.1-2-1.2-3.3-.4-5.4.5-1.6 2.3-3.5 4-4.2 2.8-1.3 3.5-1.1 13.9 4.2 6.1 3.1 14 6.4 17.5 7.5 3.6 1.1 10.1 2.5 14.5 3.2 4.5.8 15.3 1.3 24.5 1.3 12.1-.1 19.7-.7 28.5-2.3 6.6-1.1 16.1-3.5 21-5.1 5-1.7 12-4.7 15.5-6.7 3.6-1.9 9.7-6.8 13.6-10.6 5.4-5.4 7.6-8.5 9.3-12.9 1.2-3.1 2.1-7.9 2.1-10.5 0-2.6-.6-6.8-1.5-9.2-.9-2.5-2.2-5.3-3-6.3-1.4-1.6-1.7-1.6-5.2.2-2.1 1-6.9 2.8-10.8 4-3.8 1.2-10.8 2.6-15.5 3.2-6.2.8-10.5.8-16-.1-4.1-.6-10.1-2.3-13.4-3.8-3.2-1.5-7.3-4.3-9-6.2-1.8-2-3.8-5.3-4.5-7.5-.7-2.3-1-5.6-.7-7.5.3-2 1.8-5.2 3.1-7.3 1.4-2 4.4-4.8 6.8-6.2 2.3-1.3 6.9-3.1 10.2-4 3.3-.8 9.2-1.5 13-1.5 3.9 0 10.6.8 15 1.9 4.4 1 10.5 3 13.5 4.3 3.1 1.3 7.6 3.7 14.5 8l3.3-3.8c1.8-2.2 4.2-6 5.4-8.4 1.4-2.9 2.2-6.4 2.2-9.5 0-2.8-1.1-8.2-2.4-12-1.3-3.9-4-9.5-6.1-12.5-2-3.1-8.3-10.4-14-16.4-5.7-6-18-17.8-27.4-26.1-9.3-8.3-18-16.5-19.3-18.1-1.2-1.6-2.3-4-2.4-5.4-.1-1.4.8-3.4 2.2-4.7 1.3-1.3 3.5-2.3 4.9-2.4zm-2.2 123.9c-2.3 1-3.7 2.2-3.5 3.2.2.8 2.1 2.4 4.3 3.5 3.3 1.6 6 2 15.5 2 8.2 0 13.3-.6 17.5-1.8 3.7-1.1 5.6-2.2 5-2.7-.5-.5-4.3-2-8.5-3.4-4.1-1.3-10.4-2.6-14-2.9-3.5-.3-7.8-.3-9.5-.1-1.6.2-4.7 1.2-6.8 2.2zm409.2-35.8c.9 0 3 .8 4.6 1.8 1.7 1 7.2 6.5 12.2 12.2 5.1 5.8 12.7 14.7 16.8 20 4.2 5.2 11.5 15 16.3 21.9 4.8 6.8 9.6 13.5 12.7 17.2l5.5-2.9c3.1-1.5 15-9 26.5-16.6 12.7-8.2 22.4-13.9 24.5-14.3 2.3-.4 4.7 0 6.8 1.1 2.3 1.1 3.5 2.7 4.3 5.3 1 3.4.8 4.4-2.4 10.8-2 3.8-7.9 12.9-22.7 33.5l10.3 8.6c5.6 4.7 14 12.3 18.5 16.7 4.6 4.5 9 9.4 9.8 10.9.8 1.5 1.4 4.1 1.4 5.8 0 1.9-1 4-2.7 5.8-1.9 2-4.2 3.2-7.3 3.6-2.4.4-10.8.3-18.5-.3-7.7-.6-20.3-1.1-28-1.1-7.7 0-15 .2-16.2.5-2.2.5-2.2.5-.5 3.2.9 1.5 6.9 8.6 13.3 15.8 6.4 7.1 16.1 18.4 21.5 25 5.5 6.6 14.7 18.3 20.5 26 5.8 7.7 16 21.6 22.6 31 6.7 9.3 18.2 26.2 25.6 37.5 7.4 11.2 18.9 29.5 25.5 40.5 6.6 11 17.2 29.5 23.6 41.2 6.4 11.7 17.4 32.9 24.5 47 7.1 14.2 17 35 22.1 46.3 5.1 11.2 11.8 26.5 14.7 34 4.7 11.6 6.2 14.2 10.8 19 2.9 3 5.8 6.5 6.4 7.7.6 1.3 1.1 3.5 1.2 5 0 1.5-.8 3.5-1.8 4.4-1 .9-2.8 1.9-4 2.3-1.3.3-2.3 1.2-2.3 2.1 0 .8-1 2.1-2.2 3-1.3.8-3.4 1.5-4.8 1.4-1.3 0-3.2-.5-4.1-1.2-.8-.7-2-2.1-2.6-3.2-.6-1.1-2-5.6-3.2-10-1.8-6.6-3-8.8-6.5-12.5-2.4-2.5-9.4-10.8-15.7-18.5-6.2-7.7-15.2-18-19.9-22.8-4.6-4.7-9-8.7-9.7-8.7-1 0-1.1 4.8-.5 22.7.4 12.5.7 26.6.6 31.3-.1 5.3-.8 9.9-1.8 12.2-1 2.3-2.8 4.4-4.8 5.4s-4.3 1.4-6 1c-1.5-.4-4.2-1.9-5.9-3.4-1.8-1.5-7.6-8.8-13-16.2-5.4-7.5-10.9-14.9-14.6-19.5l-.6 5c-.4 2.7-1.1 11-1.7 18.5-.6 7.4-2.2 27-3.5 43.5-1.4 16.5-2.5 31.8-2.5 34 0 2.2-.6 5.1-1.3 6.5-.7 1.3-2.4 3-3.7 3.6-1.6.8-3.4.9-5 .3-1.3-.5-3.1-2.2-4-3.9-1.5-3-1.5-3-3.2-1-1.3 1.4-2.8 1.9-5.4 1.7-2.7-.2-4.2-1-5.8-3.1-2-2.6-2.1-4.4-2.7-35-.4-17.7-1.4-41.6-2.3-53.1-.9-11.6-2.5-29.8-3.6-40.5-1.1-10.8-3.4-29.2-5.1-41-1.6-11.9-4.4-29-6-38-1.6-9.1-4.5-24-6.5-33-1.9-9.1-6.3-27.8-9.8-41.5-3.6-13.8-9.4-34.7-13-46.5-3.5-11.9-10.1-32.1-14.5-45-4.4-13-10.8-30.9-14.3-39.8-3.4-9-6.5-16.3-6.8-16.3-.2.1-2 8.3-3.8 18.3-1.9 10.1-4.7 23.4-6.3 29.8-2.4 9.6-3.3 11.9-5.9 14.2-1.6 1.5-4 2.8-5.2 2.8-1.3 0-3.4-.8-4.7-1.8-1.4-.9-3.1-3.3-3.9-5.2-1-2.5-1.7-10.8-2.3-29-.4-14.1-.8-32.4-.8-40.8-.1-8.4-.4-15.2-.8-15.2-.4-.1-11.6 2.4-24.8 5.5-13.2 3.1-28.1 6.5-33.2 7.5-8.1 1.7-9.7 1.8-12.5.6-1.8-.7-3.9-2.1-4.8-3.1-.8-1-1.5-3.3-1.5-5.1 0-2.3.9-4.3 3-6.4 1.7-1.8 10.7-8.5 20-15 9.4-6.6 20.5-14.8 24.7-18.2 4.2-3.5 8.7-7.9 10-9.8 2-2.9 2.3-4.5 2.1-10.5-.1-4-2.3-17-5.3-30.5-2.8-13-5.7-26.2-6.6-29.5-.8-3.3-2.1-7.7-2.9-9.8-.8-2-1.5-5-1.6-6.7 0-2 .7-3.5 2.7-5 1.5-1.1 3.4-2 4.3-2zm21.9 59.5c2.9 11.9 3.6 17 3.7 25 0 8.3-.3 10.7-2.2 14.5-1.2 2.4-4.8 7-8 10.2-3.2 3.2-9.4 8.5-13.8 11.8-4.4 3.4-8.1 6.4-8.2 6.8-.1.4 8.2-1.2 18.5-3.5 10.3-2.4 20.6-4.3 23-4.3 3.2 0 4.8.6 6.7 2.5 1.4 1.3 2.5 3.4 2.5 4.5s-.5 3-1.2 4.2c-.7 1.4-1 5.9-.9 11.8.2 5.2.6 11.3 1 13.5l.8 4c1.8-8.6 3.3-14 4.5-17.5 1.7-5 3.4-7.7 7-11.3 3.4-3.3 6.4-5.2 10.1-6.3 3-1 10.5-1.8 17.7-2.1 6.9-.2 17.6-.1 23.9.4 6.2.4 11.5.5 11.7.3.2-.3-.4-1.2-1.3-2.1-1-.9-6.7-4.6-12.8-8.4-9.7-6-11.2-6.7-13.2-5.7-1.3.7-3.5 1.2-5 1.2-1.6 0-3.6-.9-4.8-2.1-1.1-1.2-1.9-3.3-1.8-4.8 0-1.4.4-4.4.7-6.6.6-3.5.3-4.5-2.1-7.4-2.8-3.2-2.8-3.3-6-1.7-1.8.9-5.2 1.9-7.5 2.2-2.4.3-5.8.1-7.8-.4-1.9-.6-5.2-2.9-7.2-5.2-2.1-2.2-7-8.9-10.9-14.8-4-5.9-10.3-14.9-14-20-3.8-5.1-7.2-9.2-7.5-9.2-.4 0-.3 1.2.1 2.7.4 1.5 2.3 9.5 4.3 17.8zm69.1 141.2c3.2 8.7 9 25.4 12.9 37.3 3.9 11.8 9.2 28.7 11.7 37.5s6.4 22.7 8.5 31c2.2 8.2 5.8 22.8 7.9 32.5 2.2 9.6 5.6 25.8 7.5 36 1.9 10.1 4.6 25.9 6 35 1.4 9 3.7 25.7 5.1 37 1.4 11.2 3.4 31 4.5 44 1.1 12.9 2.3 31.6 2.7 41.5.3 9.9 1 19.1 1.4 20.5.7 2.2.8 2.1.8-1 .1-2 .8-13.7 1.6-26 .8-12.4 2-26.4 2.5-31 .5-4.7 1.7-10.8 2.5-13.5.8-2.8 2.7-6.3 4.2-7.8 1.6-1.5 4.4-3 6.3-3.4 2.5-.4 4.7 0 7.4 1.3 2.2 1 6.2 4.3 8.9 7.4 2.8 3 7.8 9.2 11.1 13.7 3.4 4.6 6.2 8.2 6.3 8 .1-.1-.2-9.1-.7-20-.6-11.5-.6-22.3-.1-26 .5-3.4 1.6-7.6 2.4-9.2.8-1.7 2.5-3.9 3.7-5 1.4-1.2 4.1-2.2 6.9-2.4 3.7-.3 5.7.2 10.1 2.5 3 1.6 9.4 6.7 14.3 11.4l8.9 8.5c-3.4-7.8-11.3-24-19.7-41-8.4-17.1-20.1-39.8-26-50.5-5.9-10.8-16.8-29.7-24.2-42-7.5-12.4-18.3-29.7-24-38.5-5.8-8.8-15.3-22.8-21.1-31-5.8-8.3-16.9-23.6-24.7-34-7.9-10.5-18.1-24-22.9-30-4.7-6.1-8.6-10.5-8.6-9.8 0 .7 2.7 8.4 5.9 17zM732.6 926c1.6 0 4.2 3.6 11.9 16.8 7.5 12.7 9.7 17.3 9.3 19-.5 1.8-1.3 2.2-3.8 2-2.9-.2-3.8-1.3-12.5-16.2-5.1-8.8-9.4-16.7-9.6-17.6-.1-.8.5-2.1 1.2-2.7.8-.7 2.3-1.2 3.5-1.3zm521.3.1c.9-.1 2.3.5 3 1.2.7.7 1.3 1.9 1.2 2.8 0 .8-4.9 12-11 25-6.1 12.9-11.6 24.1-12.3 24.8-.6.7-2.3 1.2-3.7 1-1.9-.3-2.5-1-2.8-3.3-.2-2.2 2.6-9 10.3-25 5.8-12.1 11.3-23 12.1-24.3.8-1.2 2.2-2.2 3.2-2.2zm28.7 2.9c.6 0 1.6.6 2.3 1.3.8.7 1.2 2.6.9 4.3-.2 1.6-2.9 11.1-6 21-3.2 9.9-6.4 19-7.2 20.2-.8 1.3-2.3 2.3-3.2 2.3-1 0-2.3-.6-3-1.3-.7-.7-1.3-2.1-1.3-3.2s3-11 6.6-22c3.7-11 7.4-20.6 8.3-21.3.9-.7 2-1.3 2.6-1.3zm-568.3 3.2c1 .5 3.3 3.5 5.2 6.6 1.8 3.2 6.8 12.1 11.1 19.8 6.9 12.3 7.7 14.2 6.7 16.2-.7 1.3-2.1 2.3-3.2 2.3s-2.8-.9-3.7-2.1c-1-1.1-6.2-9.9-11.5-19.5-5.4-9.6-9.9-18.5-9.9-19.9-.1-1.5.5-2.8 1.6-3.4 1.1-.6 2.5-.6 3.7 0zm379.2 70.5c1.7.4 5.8 1.8 9.1 3.1 3.3 1.4 10.8 4.2 16.5 6.2 5.8 2.1 12 4.5 13.8 5.4 1.8.9 3.5 2.6 3.7 3.7.3 1.1.1 2.8-.3 3.7-.5 1-1.8 2.1-2.8 2.4-1.1.4-6.1-.7-11.9-2.7-5.5-1.8-14.9-5.4-21-7.9-6-2.4-11.8-5.2-12.7-6-1-.8-1.8-2.2-1.8-3 0-.9 1-2.5 2.1-3.6 1.7-1.6 2.8-1.9 5.3-1.3zm-201.9 3.4c1.1-.1 2.9.8 4 2 1.7 1.7 1.8 2.6 1 4.8-.8 2.1-3.9 4.1-16 10.2-8.2 4.1-16.1 8.3-17.5 9.2-1.4 1-3.4 1.8-4.5 1.8s-2.5-.6-3.2-1.3c-.7-.7-1.3-2.4-1.3-3.7 0-1.4 1.1-3.6 2.6-5 1.4-1.4 9.4-6 17.8-10.2 8.3-4.3 16-7.8 17.1-7.8zm5 79.4c9.4.2 14 .9 21 3 5 1.5 13.5 4.5 19 6.6 6.5 2.5 11.1 5 13 7 2.2 2.3 3 4.1 3 6.6 0 2.6-.7 4.2-2.7 6-1.8 1.5-4 2.4-6.3 2.4-1.9 0-9-2.1-15.7-4.6-6.8-2.6-15.6-5.5-19.8-6.5-4.2-1.1-10.8-1.9-15-1.9-4.1 0-10.4.6-14 1.4-3.5.7-9.8 2.9-14 4.8-4.1 1.8-10.2 5.2-13.5 7.5-3.3 2.2-7.1 5.2-8.5 6.7-1.3 1.4-3.7 2.8-5.2 3.1-1.5.2-4.1-.2-5.8-1-1.7-.9-3.4-2.8-4-4.5-.7-2.2-.6-4 .3-6.3.7-1.8 3.9-5.4 7.4-8.2 3.4-2.8 9.7-7.1 14-9.6 4.3-2.6 11-5.9 14.8-7.3 3.9-1.5 10-3.3 13.5-4.1q6.5-1.5 18.5-1.1zm204.5 6c8.7.3 14.8 1 20 2.5 4.2 1.2 13.4 5 20.5 8.6 7.2 3.5 16.9 9.1 21.5 12.2 5.7 3.9 9.1 6.9 10.3 9.3 1.4 2.7 1.5 4.2.7 6.7-.6 2.1-2.1 3.8-4.2 4.9-2.1 1-4.3 1.4-6.3.9-1.6-.3-7.7-3.6-13.5-7.3-5.7-3.6-15-8.7-20.5-11.3-5.5-2.7-12.9-5.6-16.5-6.5-4-1.1-10.3-1.7-16.5-1.8-7.4 0-12.1.6-18 2.3-4.4 1.2-10.4 3.5-13.5 5.1-3 1.7-6.8 3-8.5 2.9-1.6 0-3.7-.5-4.6-1.2-.8-.7-2.1-2.2-2.7-3.5-.7-1.2-1-3.5-.7-5 .3-1.5 1.5-3.7 2.8-4.9 1.2-1.1 4.9-3.4 8.2-5.1 3.3-1.6 8.3-3.7 11-4.6 2.8-.9 8-2.3 11.5-3.1 4.6-1 10.3-1.4 19-1.1zm-107.7 35.6c2.6 0 6.4.8 8.4 1.7 2 1 4.7 3.1 6 4.8 1.2 1.6 2.8 5.4 3.5 8.5.6 3 .9 7 .5 9-.3 1.9-1.7 5.2-3.1 7.2-2.2 3.2-2.4 4.2-1.6 6.5.8 2.2.7 3.3-.6 5.3-1.3 2-1.5 3.7-.9 9 .4 3.5 1.3 7.8 2 9.5.7 1.6 2.3 4 3.6 5.2 1.4 1.2 4.2 2.9 6.4 3.8 2.4 1 8.1 1.9 14 2.2 5.5.3 10.6 1 11.3 1.7.7.6 1.3 1.9 1.3 2.8-.1 1-.9 2.5-1.8 3.4-1.5 1.4-3.5 1.6-12.8 1.2-8.1-.4-12.3-1.1-16-2.7-2.7-1.1-6.3-3.4-11-8l-4.5 5c-3.1 3.5-6.8 6.2-11.9 8.7-6.7 3.3-8.5 3.7-17 4.1-5.9.2-10.4-.1-11.8-.8-1.7-.8-2.2-1.9-2-3.9.2-2.7.3-2.7 9.2-3.3 5-.3 11.3-1.3 14-2.2 3-1 7.2-3.6 10.4-6.4 3-2.7 5.8-5.6 6.3-6.6s.3-6.2-.4-12.5c-.8-7.5-1.7-11.5-3-13.2-1-1.4-4.4-5.7-7.5-9.5-3.1-3.9-6.7-9.5-8-12.5-2.1-4.5-2.3-5.9-1.4-7.8.6-1.2 2.3-2.5 3.6-2.7 1.4-.3 2.7-1.3 3-2.3.2-.9 1.9-2.5 3.7-3.5 1.8-.9 5.5-1.7 8.1-1.7zm291.4 18.9c1.6 0 3.4.6 4.1 1.3.7.7 1.2 2.6 1 4.3-.3 2.8-1.4 3.5-21.8 13.7-11.8 5.9-22.5 10.7-23.7 10.7-1.4.1-2.9-.9-3.8-2.4-1.3-2.2-1.3-2.9-.1-4.8.8-1.4 9.2-6.2 21.4-12.5 11.1-5.6 21.4-10.3 22.9-10.3zm-550.2 15.8c1.1.3 8.1 2.7 15.5 5.4 7.5 2.7 16 6.1 19 7.6 5.1 2.5 5.5 3 5.5 6.2 0 2.1-.6 3.8-1.7 4.5-1.4.8-2.9.6-6.5-.7-2.6-1.1-11.9-4.4-20.7-7.5-11.6-4.2-16.2-6.3-17.2-8-.8-1.2-1.1-3.1-.9-4.2.3-1.1 1.5-2.4 2.8-3 1.2-.5 3.1-.6 4.2-.3zm555.3 6.3c.1 0 1.4.4 2.7 1 1.4.5 2.8 1.9 3 3 .3 1.1.1 2.8-.3 3.7-.5 1-2.2 2.3-3.8 3-1.6.7-11.4 3.2-21.9 5.7-12.1 2.8-19.7 4.2-21 3.7-1.1-.5-2.3-1.7-2.7-2.7-.5-1.2-.2-2.8.7-4.2.9-1.3 3.6-2.8 6.8-3.7 2.9-.8 12.2-3.3 20.7-5.5 8.6-2.2 15.6-4 15.8-4zm-455.8 4.5c1.4.3 5.7 2.5 9.5 4.8 5.4 3.2 7.5 5.1 8.9 8.2 1.7 3.6 1.7 4.3.4 7.5-.9 2.2-2.8 4.3-5.3 5.7-2.6 1.4-5.7 2.2-8.7 2.3-2.6 0-6.2-.6-8-1.4-1.8-.7-4.7-3-6.5-5-1.9-2.1-3.5-5.2-3.9-7.4-.3-2.2 0-4.9.8-6.7.7-1.6 3.4-4.2 5.8-5.7 3.1-2 5.3-2.7 7-2.3zm-.9 15.8c1.3.9 3.7 1.7 5.2 1.7s2.7-.4 2.7-.8c0-.5-2-1.8-4.5-3-3.3-1.6-4.6-1.9-5.1-.9-.4.6.4 2 1.7 3zm304.9-12.9c3.1.3 8 1.3 11 2.2 3.6 1 6.7 2.8 8.8 5 2.4 2.5 3.2 4.3 3.2 6.9 0 1.9-.6 4.8-1.5 6.5-.8 1.6-2.9 3.9-4.7 5q-3.3 2-8.5 2c-3.3 0-6.8-.8-9.3-2-2.2-1.1-5.1-3.5-6.5-5.3-1.3-1.8-2.5-4.6-2.6-6.2 0-1.7.3-5.1.6-7.5.4-2.5 1.5-5.1 2.4-5.9 1.1-.9 3.3-1.1 7.1-.7zm3.3 15.6c1.8 1.1 3.7 2 4.2 2 .6 0 1.9-.6 3-1.4l2-1.4c-3.1-1.5-5.8-2.3-8.1-2.7-2.8-.5-4.2-.3-4.3.4 0 .6 1.4 2 3.2 3.1zm-384.8 1.1c3.7-.1 6.5.3 7.3 1.1.7.7 1.3 2.5 1.2 4 0 1.6-.7 3.2-1.7 3.7s-8.4 1.6-16.5 2.5c-8.1.9-16.8 1.6-19.3 1.6-3.1 0-5.1-.6-6.5-2-1.1-1.1-2-2.4-2-2.8 0-.4.8-1.9 1.9-3.2 1.8-2.4 2.9-2.6 15.8-3.6 7.6-.6 16.5-1.2 19.8-1.3z"/>
</svg>
