<svg version="1.2" xmlns="http://www.w3.org/2000/svg" width="2048" height="2048">
    <path fill-rule="evenodd" d="M403.5 439.1c2.8-.1 7.7.6 11 1.5 3.3.8 7.6 2.5 9.5 3.6 1.9 1.2 5.9 4.4 8.8 7.2 3 2.8 7.3 7.6 9.7 10.6 2.3 3 6.1 8.6 8.5 12.5 2.4 3.9 7.3 13.1 11.1 20.5 3.7 7.4 11.7 25 17.7 39s13.1 29.9 15.8 35.4c2.7 5.4 6.4 11.6 8.2 13.7q3.2 3.9 8.5 5.8c2.8 1 12 2.8 20.2 4 8.3 1.2 21.5 3.3 29.5 4.7 8 1.4 21 4 29 6 8 1.9 20.8 5.3 28.5 7.5 7.7 2.2 24.4 7.5 37 11.6 12.6 4.2 30.9 10.4 40.5 13.8 9.6 3.4 28.3 10.4 41.5 15.5s37.7 15 54.5 22c16.8 7 38.1 16.3 47.5 20.5 9.4 4.3 22.4 10.4 29 13.7 6.6 3.4 18.1 9.4 25.5 13.6 7.4 4.1 16.2 9.2 25.5 15l3.5-1.8c1.9-1 12.5-7.8 23.5-15.2 11-7.4 31-20.9 44.5-30 13.5-9.1 30.1-20 37-24.3 6.9-4.3 17-10.2 22.5-13.1 5.5-2.9 14-6.6 19-8.3 5-1.6 11.7-3.2 15-3.6 3.4-.4 8.8-.2 12.5.5 3.7.7 9.5 2.8 13.4 4.8 4.6 2.5 9 5.9 13 10.3 3.5 3.7 7.7 9.8 9.8 14 2.1 4.1 4.9 11.7 6.2 16.9 1.3 5.2 3 14.5 3.6 20.5.8 6.8 1 16.3.6 25-.3 7.7-1.2 18.5-2 24s-2.6 15.2-3.9 21.5c-1.4 6.3-5.4 22.7-9 36.5-3.7 13.7-7.8 31.1-9.1 38.5-1.4 7.4-3.2 20.9-4.1 30-.8 9.1-2 35.6-2.5 59s-1.4 50.8-2 61c-.6 10.2-1.7 25.5-2.6 34-.8 8.5-2.4 21.6-3.5 29-1.1 7.4-3.6 21.2-5.6 30.5-1.9 9.3-5.4 23.7-7.8 32-2.4 8.2-6.4 20.6-8.8 27.5-2.4 6.9-7.2 19.2-10.5 27.5-3.3 8.2-10 24.2-15 35.5-4.9 11.3-14.9 34-22.2 50.5-7.2 16.5-16.3 37.2-20.2 46-3.9 8.8-11.3 25-16.4 36-5.2 11-9.4 20.9-9.4 22 0 1.9.4 2 7.3 1.2 3.9-.4 14.4-2.4 23.2-4.3 8.8-2 22.5-5.6 30.5-8.1 8-2.4 20.6-6.7 28-9.5 7.4-2.8 19.6-7.7 27-11 7.4-3.3 20-9.3 28-13.5 8-4.2 20.1-11 27-15.1 6.9-4.1 18.8-11.7 26.5-17 7.7-5.2 18.3-12.7 23.5-16.6 5.2-3.9 14.9-11.5 21.5-16.9 6.6-5.4 18.7-16 26.9-23.5s25.3-24.5 38-37.6c12.7-13.1 26-26.1 29.6-28.8 3.6-2.7 8.7-6 11.5-7.4 2.7-1.3 7.9-2.9 11.5-3.5 5.4-.9 7.6-.8 13 .5 3.6.9 8.5 3 11 4.6 2.5 1.6 6.6 5.1 9.2 7.7 2.6 2.6 6.3 7.5 8.3 10.8 2 3.3 4.8 9.6 6.2 14 2.1 6.5 2.6 10 2.7 19 .1 6-.2 12.8-1.4 19l7 5.7c3.9 3.2 9.1 8.6 11.6 12 2.6 3.5 6.2 9.5 8 13.3 1.8 3.8 4.2 10.8 5.3 15.5 1.1 4.7 2.3 11.9 2.6 16 .5 5.1.1 11.7-1.1 20.5-1 7.2-1.8 15.5-1.8 18.5 0 4.1 1 7.8 3.8 14.5 2.1 5 4.7 11.9 5.8 15.5 1.5 5.1 1.8 8.5 1.5 16-.3 7.4-1.3 12-4 20.5-2 6-5.9 16.6-8.8 23.5-2.8 6.9-8.6 19.5-12.9 28-4.4 8.5-11 20.2-14.7 26-3.8 5.8-11.1 16.1-16.3 23-5.2 6.9-13.3 17-18.1 22.5-4.8 5.5-15.6 16.8-24 25-8.5 8.3-19.9 18.8-25.4 23.4-5.5 4.6-16.8 13.4-25 19.6-8.3 6.2-22.2 16-31 21.8-8.8 5.7-21.6 13.8-28.5 17.9-6.9 4.2-18.2 10.7-25.3 14.7-7 3.9-20.5 11.1-29.9 16-9.5 4.9-26.3 13.1-37.3 18.2-11 5-29.2 12.9-40.5 17.6-11.3 4.6-30.8 12.2-43.5 16.8-12.7 4.5-30 10.5-38.5 13.3-8.5 2.8-22.7 7.1-31.5 9.7-8.8 2.5-28.6 7.7-44 11.6-15.4 3.9-31.4 8.4-35.5 9.9-4.1 1.6-8.4 3.8-9.5 5-1.1 1.1-3.5 2.7-5.3 3.5-1.8.9-3.2 2.2-3.2 3.2s-1.8 8.5-4.1 16.8c-2.2 8.2-6.2 21.5-8.9 29.5s-7.8 21.5-11.5 30c-3.6 8.5-10.8 23.6-15.9 33.5-5.1 9.9-13.4 25-18.6 33.5-5.1 8.5-13.7 22-19 30-5.4 8-15.3 21.9-22.1 31-6.7 9.1-17.5 23-24 31-6.4 8-16.2 19.6-31.9 37h-29.5l9.5-9.7c5.3-5.4 13-13.6 17.1-18.3 4.2-4.7 12-13.9 17.4-20.5 5.4-6.6 15.9-20.1 23.3-30 7.4-9.9 19-26.3 25.8-36.5 6.7-10.2 15.7-24.6 19.9-32 4.3-7.4 11.2-20.3 15.5-28.5 4.2-8.3 10.3-21.5 13.7-29.5 3.4-8 7.7-19 9.6-24.5 1.9-5.5 5.3-16.5 7.5-24.5s4.8-17.7 5.6-21.5c.9-3.8 2.3-8.8 3-11 .8-2.2 2.5-4.7 3.8-5.6 1.3-.9 3.9-2 5.8-2.4 1.9-.5 5.1-1.9 7-3.2 1.9-1.3 6.9-3.8 11-5.5 4.1-1.6 22.4-6.8 40.5-11.5 18.1-4.6 37.7-9.8 43.5-11.4 5.8-1.7 19.5-6 30.5-9.6 11-3.6 28.3-9.6 38.5-13.3 10.2-3.7 25.7-9.7 34.5-13.2 8.8-3.6 23.9-10 33.5-14.3 9.6-4.3 26.8-12.4 38.3-18.1 11.4-5.7 27.3-14.1 35.5-18.6 8.1-4.5 20.3-11.5 27.2-15.6 6.9-4.1 19.7-12.2 28.5-18 8.8-5.7 21.8-14.8 29-20.1 7.2-5.4 18.6-14.4 25.5-20.1 6.9-5.6 19.7-17.5 28.5-26.4 8.8-8.9 21.5-22.9 28.1-31.1 6.6-8.3 15.9-20.8 20.6-28 4.8-7.2 11.4-18.2 14.7-24.5 3.3-6.3 8.3-16.9 11.2-23.5 2.8-6.6 7.1-18.1 9.6-25.5 4-12 4.5-14.3 4.1-20.5-.3-5.5-1.4-9.6-5.3-19-4.3-10.6-4.9-13.1-5.3-21-.3-5.5.2-13.8 1.3-21.5 1.2-8.4 1.5-14.8 1.1-19.5-.4-3.8-1.2-9-1.8-11.5-.5-2.5-2.7-8.1-4.9-12.5-2.1-4.5-5.7-9.9-8.1-12.4-2.4-2.4-6.7-6.2-9.7-8.5-2.9-2.3-6-5.4-6.9-7.1-.8-1.7-1.9-4.6-2.3-6.5-.5-2-.3-7.9.3-13.5.9-7.8.9-11.6-.1-17-.7-4.2-2.7-9.7-4.9-13.9-2-3.8-5.5-8.4-7.7-10.3-2.2-1.9-5.6-3.9-7.5-4.4-2.4-.8-4.7-.8-7.5 0-2.2.5-6.2 2.5-9 4.3-2.7 1.8-20.2 18.6-39 37.4-18.7 18.7-38.7 38.1-44.5 43.1-5.8 4.9-15.9 13.2-22.5 18.5-6.6 5.2-16.3 12.5-21.5 16.3-5.2 3.8-15.8 11-23.5 16.1-7.7 5-20.1 12.6-27.5 16.9-7.4 4.3-20.1 11.1-28.2 15.1-8.2 4.1-21 10-28.5 13.3-7.6 3.2-19.6 8-26.8 10.6-7.2 2.6-18.4 6.2-25 8.1-6.6 1.9-19.9 5-29.5 6.9-9.6 1.9-19.1 3.7-21 4-1.9.2-5.7 2.2-8.5 4.2-2.7 2.1-9 5.9-14 8.5-5 2.5-17.5 8-28 12.1s-27.3 10.2-37.5 13.5c-10.2 3.4-25 7.7-33 9.7-8 2-21 4.8-29 6.1-8 1.4-21.2 3.1-29.5 3.9-8.2.8-25.4 1.7-38 2.1-13.9.4-29.6.2-39.5-.5-9.1-.6-19.2-1.4-28.5-2.4l-1.3 9.9c-.8 5.5-2.3 14.2-3.4 19.4-1.1 5.2-3.6 13.8-5.5 19-1.9 5.2-5.6 13.3-8.1 18-2.6 4.7-7.2 11.7-10.2 15.5-3.1 3.8-8.1 8.9-11.1 11.2-3 2.3-7.6 5.2-10.4 6.5-3.7 1.6-6.9 2.3-12 2.3-5.5 0-8-.5-11.9-2.5-2.6-1.4-6.4-4.3-8.4-6.5s-4.8-6.7-6.3-10-3.5-9.5-4.3-13.8c-.9-4.2-1.6-12-1.6-17.2 0-5.2.7-13.9 1.5-19.3.8-5.3 2.8-16.5 4.5-24.7 1.6-8.3 3-17.3 2.9-20 0-4 .4-5.5 2.3-7.2 1.3-1.3 2.1-2.5 1.8-2.7-.3-.2-5-1.3-10.5-2.5-5.5-1.1-10.8-2.1-11.7-2.1-1.5 0-1.4.5.8 3.2 1.5 1.8 3.5 5 4.5 7 1.1 2.1 2.2 5.5 2.5 7.5.4 2.1.1 6-.5 8.8-.6 2.7-2.6 7-4.4 9.5-1.9 2.5-5.6 5.9-8.3 7.7-2.7 1.7-7.6 4-10.9 5.1-3.3 1.2-10 2.6-15 3.3-5 .7-9.1 1.4-9.2 1.6-.2.1.9 2.7 2.3 5.5 1.5 2.9 5.2 9.3 8.3 14.3 3.4 5.6 9.6 13.2 16.3 20.2 9.8 10.2 10.8 11.7 10.8 15 0 2.7-.6 4.4-2.2 5.9-1.3 1.2-3.3 2.4-4.5 2.8-1.3.3-4.1-.2-6.5-1.2-2.4-1.1-7.8-5.3-12.3-9.8-4.4-4.3-11-12.4-14.7-17.9-3.6-5.5-8.9-14.3-11.7-19.5-3-5.8-5.2-8.9-5.5-8-.3.8-1.7 4.9-3.2 9-1.5 4.1-4.2 10.5-6 14.2-1.9 3.8-4.4 7.5-5.7 8.3-1.2.8-3.9 1.5-6 1.5-2.9 0-4.2-.6-6.2-3-1.4-1.7-2.5-4.2-2.5-5.8 0-1.5 1.6-6.1 3.6-10.2 1.9-4.1 6.5-15.8 10.1-26 3.5-10.2 9.5-27.3 13.3-38 3.8-10.7 7.1-20.2 7.4-21 .5-1.2-.9-1.9-6.6-3.2-4.2-1-8.1-2.6-9.3-3.8-1.6-1.7-1.8-2.6-1-4.8.8-2.1 1.8-2.8 4.5-3 1.9-.2 15.2 2.2 29.5 5.3 14.3 3.1 41.3 9 60 13.2 18.7 4.1 34.6 8 35.3 8.6.7.7 1.3 2.1 1.3 3.2s-.8 2.7-1.7 3.5c-1.3 1.2-2.9 1.3-12.4 0l-.4 3.2c-.3 1.8-1.2 8.9-2.1 15.8-.9 6.9-3.8 23.7-6.6 37.5-4.9 25-4.9 25-3.3 30.5.9 3 2.3 6.8 3.1 8.5.9 1.7 2.1 3.3 2.7 3.7.6.4 2.7.8 4.6.8 2.3 0 4.9-.9 7.5-2.8 2.2-1.6 6.1-5.1 8.6-7.8s6.4-8.1 8.6-11.9c2.3-3.8 5.5-10.4 7.1-14.5 1.7-4.1 3.9-11.1 5-15.5s2.6-11.4 3.2-15.5c.8-4.6 1-10.8.6-16-.4-4.9-1.2-8.8-1.9-9.2-.7-.4-2.3-.8-3.7-.8-1.4 0-3.5-.7-4.7-1.5-1.3-.8-2.3-2.3-2.3-3.3-.1-.9.9-2.6 2-3.7 2-1.9 2.6-1.9 10.3-.9 7.8 1.1 8.3 1.1 11-1 2.7-2 4.2-2.1 34.5-2.7 27.2-.6 33.9-1.1 47.2-3.2 8.5-1.4 21.6-3.8 29-5.2 7.4-1.5 21.6-4.4 31.5-6.6 9.9-2.2 25.2-5.8 34-8.1 8.8-2.2 24-6.5 33.8-9.4 9.7-3 23.9-7.7 31.5-10.5 7.5-2.8 14.3-5.6 15-6.3.7-.6 1.3-1.9 1.2-2.9 0-.9 2.2-6.5 4.9-12.5 2.7-5.9 8.4-18.1 12.6-27.2 4.3-9.1 13-28.7 19.5-43.5s16.4-37.3 22-50c5.6-12.7 13.2-29.8 16.7-38 3.6-8.3 9.1-21.6 12.4-29.8 3.2-8.1 7.7-20 10-26.5 2.2-6.4 5.8-18 8-25.7 2.2-7.7 5.5-21.7 7.4-31 1.9-9.3 4.4-23.3 5.5-31 1.1-7.7 2.7-21.9 3.5-31.5.8-9.6 2-32.8 2.5-51.5.6-18.7 1.5-45.9 2-60.5.6-14.6 1.7-32.8 2.5-40.5.8-7.7 2.4-19 3.5-25 1-6 3.5-17.3 5.5-25 2-7.7 5.8-22.5 8.5-33 2.6-10.5 5.8-24.6 7-31.5 1.2-7.2 2.4-19.2 2.7-28.5.3-9.7.1-19.4-.6-24.5-.6-4.7-1.8-11.2-2.6-14.5-.9-3.3-2.8-8.7-4.4-12-1.5-3.3-4.3-7.7-6.2-9.9-1.9-2.1-5.2-4.9-7.4-6.2-2.2-1.3-6.2-2.7-9-3-3.3-.4-7.3-.1-11.5 1-3.6.9-10.8 3.7-16 6.2-5.2 2.5-14.5 7.5-20.5 11.2-6 3.6-24.3 15.5-40.5 26.2-16.2 10.8-37.8 24.8-48 31.2-10.2 6.4-21.9 13.2-26 15.2q-7.5 3.6-11.7 3.6c-3.5 0-5.8-1-12-5-4.3-2.8-15.2-8.8-24.3-13.4-9.1-4.6-27.1-13.2-40-19.1-12.9-5.9-32.5-14.5-43.5-19.2-11-4.7-30.4-12.7-43-17.8-12.6-5.1-32.9-12.9-45-17.5-12.1-4.5-33.3-12-47-16.6-13.7-4.7-31.5-10.5-39.5-12.9-8-2.4-21.5-6.2-30-8.4s-21.4-5.1-28.5-6.5c-7.1-1.4-22.2-3.8-33.5-5.5-11.3-1.7-23.2-4-26.5-5.1-3.3-1.2-8.2-3.5-10.9-5.3-2.8-1.8-6.8-5.7-9.1-8.7-2.2-3-6.1-9.5-8.7-14.5-2.5-5-10.1-21.8-16.8-37.5-6.7-15.7-15.3-34.6-19.2-42-3.8-7.4-8.9-16.4-11.3-20-2.3-3.6-6.5-8.9-9.1-11.9-2.7-3-6.7-6.2-8.9-7.2s-6-1.9-8.5-1.9-6.7.6-9.5 1.3c-2.7.8-7.5 2.5-10.5 3.8-3 1.4-7.7 4-10.5 5.9-2.7 1.9-8.3 6.5-12.4 10.4-4 3.9-9.9 10.5-13.1 14.6-3.1 4.1-8.5 12.2-12 18-3.5 5.8-9.8 17.7-14.1 26.5-4.2 8.8-11.6 25.2-16.4 36.5-4.8 11.3-12.4 28.4-16.8 38-4.3 9.6-10.4 22.5-13.4 28.5-3.1 6-14.1 26.7-24.6 46-10.4 19.2-23.7 43.5-29.5 54-5.8 10.5-13 23.3-16 28.5-3 5.2-8.2 14-11.5 19.5-3.4 5.5-14.9 23.5-25.7 40-10.8 16.5-23.2 35.9-27.5 43-4.3 7.1-11.6 20.6-16.1 30-4.5 9.4-11.1 24.6-14.7 34-3.6 9.4-11 31-16.6 48-5.6 17-13 38.2-23 63l2.6 4.5c1.4 2.5 6.6 10.6 11.6 18 4.9 7.4 13.4 19.3 18.7 26.5 5.4 7.2 13.5 17.5 18.1 23 4.6 5.4 15 16.9 23 25.5 8 8.5 24.4 24.9 36.5 36.4 12 11.5 29.3 27.7 38.4 36 9.1 8.3 21.9 19.7 28.5 25.4 6.6 5.7 19.3 16 28.3 23s24.6 18.5 34.7 25.7c10.2 7.2 26.4 18 36.2 24.1 9.8 6.1 24.8 15 33.3 19.7 8.5 4.8 17.5 9.3 20 10 2.5.8 7.6 2.4 11.5 3.5 3.9 1.2 9.7 4 13 6.3 3.3 2.3 8.9 5.2 12.5 6.6 3.6 1.3 13.7 4.6 22.5 7.3 8.8 2.6 27 7.8 40.5 11.5s25.5 7.3 26.8 8.1c1.2.8 2.2 2.4 2.2 3.6 0 1.3-.5 2.9-1.2 3.5-.7.7-2.2 1.3-3.5 1.3-1.3 0-9.2-1.8-17.5-4-8.4-2.2-16-4-16.8-4-1 0-4 6.7-9.7 21.7-4.5 12-8.6 24.4-9.2 27.5-.6 3.2-.8 7.3-.5 9 .4 1.8 1.5 5 2.5 7 1.1 2.1 3.1 4.6 4.6 5.5 1.5 1 4.5 1.8 6.8 1.7 2.3 0 6.1-1.2 9-2.7 2.8-1.5 6.9-4.6 9.2-6.9 2.3-2.4 6.3-7.9 8.8-12.3 2.5-4.4 6.6-13.4 9.2-20 4.1-10.5 5.3-12.7 10-17.3 2.9-2.8 5.6-5.2 6.1-5.2.4 0 1.6.6 2.7 1.4 1.6 1 2.2 3 2.8 9 .7 7.4.6 7.9-3.7 18.9-2.4 6.1-5.7 13.9-7.3 17.2-1.7 3.3-5.8 10-9.1 15s-9.3 12.2-13.3 16c-4.2 4-10 8.3-13.4 10-5.2 2.6-7.1 3-14.5 3s-9.3-.4-14.5-2.9c-3.3-1.7-8-5-10.5-7.5s-5.8-7.1-7.3-10.1-3.4-9.1-4.3-13.5c-1.4-6.7-1.5-9.4-.5-16.5.6-4.7 2.6-13 4.5-18.5 1.8-5.5 5-13.4 7.1-17.5 2.1-4.1 5.3-9.9 7.1-12.7 1.9-2.9 3.4-5.5 3.4-5.8 0-.3-1.9-1-4.2-1.6-2.4-.6-8-2.3-12.5-3.7-4.6-1.5-8.5-2.5-8.7-2.2-.3.3 0 2.5.5 5s.7 5.8.3 7.5c-.3 1.7-1.2 4-2 5.3-.8 1.2-2.9 2.8-4.6 3.6-2.3.9-4.2 1.1-6 .5-1.6-.5-3.2-1.8-3.8-2.9q-1-2-3-1.5t-5-2.5c-1.6-1.7-3-3.9-3-5s-1.1-3.2-2.3-4.7c-1.3-1.6-4.8-3.9-7.8-5.2-4.7-2-6.5-2.3-13.9-1.9-5.9.3-10 1.1-13.5 2.7-2.7 1.2-6.3 3.4-7.9 4.9-1.6 1.5-3.7 4.5-4.7 6.7s-1.9 5.6-1.9 7.5c0 1.9 1.2 5.9 2.7 8.9 1.6 3 4.4 6.7 6.3 8.3 1.9 1.6 5.3 3.7 7.5 4.8 2.2 1.1 7.8 2.6 12.5 3.5 4.7.8 11 1.9 14 2.5 4.9.8 5.7.7 7.5-1 1.1-1 3.4-2.4 5-3 1.6-.6 4.2-.8 5.8-.5 1.5.3 3.6 1.7 4.7 3.2 1.2 1.6 2.1 3.9 2 5.3 0 1.4-3.6 10.4-8 20s-9.3 20-10.8 23c-1.8 3.6-3.8 6.1-5.9 7.2-2.7 1.5-4 1.6-6.8.8q-3.5-1-5-4c-.8-1.7-1.5-4-1.5-5.3 0-1.2 2-6.6 9-21.7h-5.5c-3 0-8.8-.6-12.7-1.4-4-.8-10.4-2.6-14.3-4.1-3.9-1.4-9.5-4.1-12.5-6-3-1.8-7.9-5.8-10.7-8.9-3-3.1-6.7-8.6-8.5-12.4-1.8-3.9-3.3-8.9-3.6-12.2-.2-3 .1-8 .7-11s2.5-8.4 4.3-12c2.1-4.4 5.7-9 10.7-14 4.3-4.3 10.1-8.8 13.3-10.5 3.2-1.7 5.8-3.2 5.8-3.5 0-.3-4.9-2.8-10.7-5.5-5.9-2.8-16.6-8.3-23.8-12.4-7.1-4-21.3-12.8-31.5-19.6-10.2-6.7-27.3-18.7-38-26.5-10.7-7.8-27.2-20.2-36.5-27.5-9.3-7.3-21.9-17.4-28-22.5-6.1-5-17-14.6-24.4-21.3-7.4-6.7-19.1-18.3-26-25.7-6.9-7.4-18.8-20.7-26.3-29.5s-18-21.4-23.3-28c-5.2-6.6-13.2-17.2-17.6-23.5-4.5-6.3-11.3-16.9-15.1-23.5-3.9-6.6-7.6-12.6-8.2-13.3-.9-1.1-1.9 0-5 5-2.2 3.5-9.6 15.1-16.5 25.8-6.9 10.7-14.4 23.5-16.7 28.5-2.3 5-7.5 18.5-11.4 30-4 11.5-7.6 21.7-8.1 22.5-.5.8-.8-11.8-.9-59.5l4.1-7.5c2.3-4.1 9.6-16 16.4-26.5 6.7-10.5 14.6-23 17.5-28 2.9-5 7.5-13.5 10.3-19 2.7-5.5 7-15 9.5-21 2.4-6 9.7-27 16.2-46.5 6.4-19.5 14.7-43.1 18.4-52.5 3.7-9.4 10.1-23.8 14.1-32 4-8.3 11.1-21.3 15.7-29 4.7-7.7 17.5-27.7 28.5-44.5s24.2-37.7 29.5-46.5c5.2-8.8 14.2-24.5 20-35 5.8-10.5 19-34.5 29.4-53.5 10.3-19 24-45.3 30.5-58.5 6.4-13.2 16.1-34.1 21.4-46.5 5.3-12.4 12.8-29.5 16.6-38 3.9-8.5 9.7-20.5 13.1-26.5 3.3-6.1 9.3-15.9 13.2-22 4-6.1 10.4-14.6 14.2-18.9 3.8-4.4 10.7-11 15.4-14.8 4.7-3.8 12.3-8.8 17-11.2 4.7-2.4 10.8-5.1 13.5-6 2.8-.9 7-2 9.5-2.5s6.8-.9 9.5-1zM86.6 1098.5c4.1 6 11.2 16 15.9 22 4.7 6 16.3 20.2 25.7 31.5 9.5 11.3 26.5 29.8 37.8 41.1 11.3 11.3 25.2 24.6 31 29.5 5.8 4.9 17.3 14.4 25.5 21 8.3 6.6 23.8 18.6 34.5 26.6 10.7 7.9 27.4 20 37 26.7 9.6 6.8 18.9 13 20.5 13.8 1.6.8 2.6 1.1 2 .6-.6-.6-5.7-4.3-11.5-8.3-5.8-4.1-17.7-12.8-26.5-19.4-8.8-6.7-22.5-17.5-30.5-24.2-8-6.6-19.9-16.9-26.5-22.9-6.6-5.9-21.2-19.4-32.5-30-11.3-10.6-30.2-29.1-42-41.1-11.8-12.1-26.3-27.5-32.1-34.4-5.8-6.9-13.5-16.3-17-21-3.6-4.7-10.2-13.8-14.5-20.2-4.4-6.5-8.4-11.8-8.8-11.8-.5 0 .4 2.1 1.9 4.8 1.6 2.6 6.1 9.7 10.1 15.7zM920 1404.6c-8 2.5-22.1 6.5-31.5 8.9-9.4 2.4-27.6 6.6-40.5 9.4-12.9 2.7-29.8 6.1-37.5 7.5-7.7 1.4-19.2 3.3-25.5 4.2-7.6 1.1-21.4 1.9-40.5 2.3-18.5.4-28.9 1-28.8 1.6.1.5 1.7 1.3 3.5 1.7 1.8.4 10.5 1.2 19.3 1.9 10.4.8 25.9 1 44.5.6 15.7-.4 35-1.3 43-2.2 8-.8 20.1-2.5 27-3.6 6.9-1.2 17.9-3.4 24.5-5 6.6-1.6 18.1-4.8 25.5-7 7.4-2.3 21.4-7 31-10.6 9.6-3.5 23.9-9.1 31.8-12.4 7.8-3.2 14.2-6.4 14.2-6.9s-.7-1-1.5-1-3.1-1.6-5-3.5-3.8-3.5-4.2-3.4c-.5 0-8.4 3-17.8 6.6-9.4 3.5-23.5 8.5-31.5 10.9zm-345.4 38.1c-2 7.3-3.6 13.6-3.6 14 0 .5 4.2.5 9.2.2 5.5-.4 11.6-1.5 15-2.8 3.5-1.3 6.6-3.2 7.8-4.9 1.2-1.5 2.1-3.7 2-5 0-1.2-1.9-4.3-4.3-6.8-2.3-2.5-6.9-5.9-10.2-7.5-3.3-1.6-6.7-2.9-7.5-2.9-.9 0-2.3.6-3.2 1.2-.9.8-3.2 7-5.2 14.5zM-.1 1426.5l6.3 6c3.5 3.4 16 14.4 27.8 24.5s29.4 25.4 39 33.9c9.6 8.5 25.4 22.7 35 31.4 9.6 8.8 44.7 43.3 78 76.7 33.3 33.3 65.4 64.7 71.3 69.6 6 4.9 14.3 11.3 18.5 14.3 4.2 2.9 11.8 7.3 16.7 9.6 4.9 2.4 11.7 4.8 15 5.5 4.3.8 6.9.8 9.3.1 1.7-.6 4.9-3.1 7-5.5 2-2.4 7-10.1 11.1-17.2s10.4-17.4 14-22.9c3.9-6 10-13.6 15.5-19.1 5-5 12.7-11.5 17.1-14.3 4.4-2.9 10.5-6.1 13.5-7.3 3.4-1.3 8-2.1 12-2.2 5.3 0 7.4.4 11.3 2.7 2.9 1.7 5.8 4.5 7.7 7.4 1.9 3.2 3.4 7.2 4.1 11.8.7 4.3.8 11.1.4 17.5-.3 5.8-1.3 14.8-2 20-.8 5.2-2.6 13.3-4.1 18-1.4 4.7-4.2 11.9-6.1 16-1.9 4.1-4.1 9.1-6.2 14.5l7.7 3.9c5.3 2.7 10 6.2 14.9 11 5.2 5.2 8 9 10.4 14.1 2.3 4.9 3.4 8.9 3.7 13.5.3 4.8-.1 8.1-3.6 18.5l2.4 2.7c1.3 1.6 2.9 5.2 3.5 8 .6 2.9.9 7.8.5 10.8-.3 3-2.1 8.6-4 12.5-1.9 3.8-5.2 9.4-11.6 17.5l2.2 3.7c1.6 2.8 2.2 5.4 2.2 9.8 0 4.2-.8 7.6-2.5 11.5-1.4 3-6.8 11.1-12.1 18-5.5 7.2-9.8 13.9-10.1 15.7-.5 2.4-2.2 4.5-5.9 7.4-2.9 2.3-8.9 6.2-13.3 8.8-4.4 2.6-14.3 7.5-22 11-7.7 3.5-17.5 7.7-21.7 9.2-4.3 1.6-12 3.7-17 4.6-7.5 1.4-15.1 1.8-38.8 1.8-23.9 0-31.6-.3-40.5-1.8-6.1-1-14.4-2.7-18.5-3.7-4.1-1.1-10.7-3-14.5-4.4-3.8-1.3-16.9-4.9-29-8-12.1-3-25.4-6.7-29.5-8.2-4.1-1.4-13.3-5.2-20.5-8.4-7.2-3.2-22.4-10.5-34-16.3-11.6-5.7-28-14.4-36.5-19.3s-28.7-17.2-73.9-45.9L0 1794l7.8 4.1c4.2 2.3 19 10.9 32.7 19.2 13.8 8.2 29 18 34 21.7 5 3.7 13.3 9.4 18.5 12.5 5.2 3.1 21.7 11.7 36.5 19 14.8 7.3 31.7 15.3 37.5 17.8 5.8 2.4 17.3 6.8 25.5 9.6 8.3 2.9 20.2 6.5 26.5 8.2 6.3 1.6 16.7 3.6 23 4.5 9.1 1.1 18.2 1.3 44 .9 19-.4 36.9-1.2 43-2 5.8-.8 13.2-2.4 16.5-3.5 3.3-1.1 12.7-4.9 21-8.3 8.2-3.4 18.1-8 22-10.2 6-3.4 7.2-4.6 8.3-8 .8-2.2 4.4-7.6 8.1-12 3.7-4.4 8.6-10.4 10.9-13.3 2.3-2.8 4.2-5.7 4.2-6.2 0-.6-1.5-.8-3.8-.4-3 .5-4.3.2-6.7-1.8-1.6-1.4-3.3-3.8-3.7-5.4-.3-1.6-.1-4.2.6-5.9.7-1.7 5-7 9.6-12s10.1-11.7 12.2-15c2.1-3.3 3.8-7 3.8-8.3 0-1.7-.4-2-1.7-1.6-1 .4-2.7.9-3.8 1.1-1.1.3-3.5-.2-5.3-1.1-1.7-.9-3.6-2.7-4.2-4.1-.6-1.4-1-3.7-1-5.3-.1-1.6 2.1-6 5.5-11.2 3.1-4.7 6.1-10.1 6.6-12 .8-2.6.8-4.6-.1-7.5-.6-2.2-2.6-6-4.4-8.5-1.7-2.5-6.1-6.4-9.7-8.8-6.3-4.3-6.5-4.3-12.4-3.6-3.8.4-6.8.2-8.3-.5-1.2-.6-2.9-2.4-3.7-4.1-.8-1.7-1.5-4-1.5-5.3 0-1.2 1.5-6.7 3.4-12.2 1.9-5.5 5.4-14.7 8-20.5 2.5-5.8 5.4-13.9 6.5-18 1-4.1 2.4-12.5 3-18.5.6-6 1.1-13.6 1.1-16.8 0-3.1-.4-6.8-1-8.2-.6-1.4-1.6-2.5-2.2-2.5-.7 0-4.4 1.5-8.3 3.4-3.9 1.9-10.1 6.1-14 9.4-3.9 3.2-9.7 9.4-13 13.8-3.3 4.3-10.3 15.2-15.5 24.2-5.2 9-11.6 19.1-14.1 22.5-2.6 3.4-6.6 7.6-9 9.4-2.4 1.7-6.4 3.9-8.9 4.8-2.8 1.1-7.4 1.7-12 1.7-5.7 0-9.7-.7-17-3.2-5.2-1.7-12.4-4.7-16-6.7-3.6-2-10.3-6.2-15-9.4-4.7-3.2-13.2-9.7-19-14.5-5.8-4.7-37.3-35.5-70-68.3s-67.4-66.9-77-75.7c-9.6-8.8-28.1-25.4-41-36.9-12.9-11.4-31-27.6-56.9-51zM397.5 523c1.4 0 3.4.9 4.5 2s2.2 3.5 2.4 5.2c.3 1.8 1.2 12.1 2.1 22.8.8 10.7 1.6 22.6 1.7 26.5.1 3.9-.4 8-1 9.2-.7 1.3-2.3 2.8-3.7 3.3q-2.5 1-4.8 0c-1.2-.6-2.8-2.2-3.6-3.8-.8-1.6-1.7-8.2-2.2-16.2-.4-7.4-1.1-20.5-1.5-29-.8-15.1-.7-15.6 1.4-17.8 1.2-1.2 3.3-2.2 4.7-2.2zm-21.6 2c.8-.1 2.7.8 6.6 3.8l.8 28.9c.5 19.5.4 29.7-.3 31.5-.6 1.6-2.1 3.5-3.5 4.3-2.1 1.2-3 1.3-5.6.2-1.6-.6-3.4-2.3-4-3.7-.6-1.5-.9-13.9-.4-61.2l2.4-1.9c1.3-1 3.1-1.9 4-1.9zm165.6 142.5c12.6.2 27.7 1 33.5 1.8 5.8.8 11.5 2 12.7 2.6 1.3.6 3 2.2 3.8 3.6 1.1 1.9 1.2 3.2.5 5.3-.6 1.6-2.3 3.3-4.2 4.1-2.9 1.2-4.9 1.2-15.3-.2-6.6-.9-18.8-2.2-27-2.8-8.3-.6-18.5-.8-22.8-.5-4.2.3-8.6 1.1-9.7 1.6-1.1.5-3.1.8-4.5.5-1.5-.3-3.1-1.7-4-3.5-1-2-1.2-3.7-.7-5.2.5-1.3 1.7-3 2.7-3.8 1-.8 4.1-2.1 6.9-2.7 3.6-.9 11.9-1.1 28.1-.8zm528.2 68.5c1.5 0 3.3.4 3.9.8.6.4 1.6 1.7 2.2 3 .8 1.4.9 3 .3 4.5-.5 1.2-9 10.1-18.8 19.8-9.8 9.7-18.9 18.4-20.3 19.3-1.4.9-4 1.6-5.8 1.6-2.2 0-3.7-.7-4.7-2.3-.9-1.2-1.5-3.3-1.5-4.7 0-1.9 2.7-5.2 10.7-13 6-5.8 15.4-14.7 21-19.8 7.8-7 10.9-9.2 13-9.2zm19 9.1c.7-.1 2.4 1 3.8 2.4s2.5 3.4 2.5 4.5-2.4 4.4-5.3 7.4-12.4 12.3-21.2 20.6c-8.8 8.4-17.4 15.9-19 16.7-1.7.8-4 1.2-5.3.9-1.2-.3-2.9-1.6-3.8-2.9-1.1-1.5-1.4-3.2-.9-5.2.4-1.6 2.5-4.8 4.8-6.9 2.3-2.2 11.9-11.2 21.4-19.9 9.4-8.8 18.2-16.3 19.5-16.8 1.2-.4 2.8-.8 3.5-.8zM547 750.8c1.4.3 6.3.5 11 .3 6.8-.2 9.7.2 15 2.1 3.6 1.3 8.7 3.7 11.5 5.3 2.7 1.6 9.2 7 14.3 11.9 5.2 5 11.5 12 14.2 15.6 2.6 3.6 6.1 9.3 7.9 12.8 1.7 3.4 4 9.5 5.2 13.4 1.5 5.1 2.2 11.3 2.6 20.8.4 10 .1 16-1.2 23-.9 5.2-3.1 14-4.9 19.5-1.9 5.5-5.1 13.4-7.1 17.5-2.1 4.1-6.3 11.3-9.4 16-3.1 4.7-9.3 12.3-13.7 17-4.5 4.7-11.7 11-16 14-4.4 3-11.7 7.2-16.4 9.3-4.7 2.2-12.8 5.1-18 6.4-5.6 1.4-12.4 2.3-16.5 2.3-3.9 0-9.3-.6-12-1.4-2.8-.7-7.3-2.4-10-3.8-2.8-1.4-7.3-4.3-10-6.5-2.8-2.1-7.4-7-10.3-10.9-2.9-3.8-7.4-11.2-10.1-16.4-2.7-5.2-6.3-13.3-7.9-18-1.6-4.7-3.7-12.1-4.5-16.5-.9-4.4-1.9-10.7-2.2-14-.3-3.3-.1-9.8.4-14.5.6-4.7 2-12.1 3.1-16.5s4.1-12.3 6.6-17.5c2.5-5.2 6.9-13.1 9.8-17.5 2.9-4.4 10.1-13 15.9-19 5.8-6 12.6-12.6 15.1-14.5 2.5-1.9 4.7-4.2 5-5 .3-.8 6-4.4 12.7-7.9 6.7-3.5 13.4-6.8 14.8-7.2 1.4-.4 3.7-.5 5.1-.1zm-3.5 19.3c-8.1 2.5-11.4 4.1-17 8.4-3.9 2.9-11.2 9.6-16.3 14.9-5.1 5.3-12.3 14.2-16 19.8-3.7 5.7-8 13.2-9.4 16.8-1.5 3.6-4.6 11.2-6.9 17-4.1 10.5-4.1 10.5-3.6 21 .3 5.8 1.6 14.3 2.8 19 1.2 4.7 3.7 12.1 5.5 16.5 1.9 4.4 5.2 10.9 7.3 14.5 2.1 3.6 6.2 9.1 9.2 12.3 3.4 3.8 7.6 6.9 11.4 8.8 5.3 2.6 7 2.9 15.2 2.9 7.6 0 10.9-.5 18.5-3.1 5.1-1.6 12-4.5 15.3-6.3 3.3-1.9 8.9-5.7 12.5-8.5 3.6-2.8 8.9-7.9 11.9-11.4 3-3.4 8.1-10.2 11.3-15.2 3.2-5 7.2-12.4 9-16.5 1.7-4.1 4.1-12.5 5.4-18.5 1.4-6.8 2.3-14.4 2.3-20 0-5-.4-14-.9-20-.8-9.7-1.3-11.9-4.4-18-2-3.9-6.6-10.6-10.3-14.9-3.8-4.4-9.5-10.2-12.8-12.8-3.3-2.7-8.3-6-11-7.3-2.8-1.4-7-2.7-9.5-2.9-2.5-.2-5.6-.2-7 0-1.4.3-7 1.9-12.5 3.5zm308.5-2.5c1.9.3 6.4 1.9 10 3.6 3.6 1.6 11.2 5.7 17 9 5.8 3.3 11.7 7.2 13.2 8.7 1.7 1.5 2.8 3.6 2.8 5.1 0 1.4-.4 3-.8 3.6-.4.6-1.8 1.7-3.2 2.4-1.4.6-3.5.9-4.8.6-1.2-.3-8.6-4.4-16.5-9.2-7.8-4.7-15.8-8.9-17.7-9.3-1.9-.5-4.8-1.2-6.3-1.5-1.5-.3-3.2-1.6-3.8-2.9-.6-1.2-.9-3.4-.5-5q.6-2.7 3.8-4.2c2-.8 4.7-1.2 6.8-.9zm-54.5 57c4.9.3 10.8.7 13 1 2.2.3 6.7 2 9.9 3.7 3.3 1.8 9.8 6.8 14.5 11.3 4.7 4.5 10.9 11.4 13.7 15.5 2.8 4.1 6.5 10.1 8.1 13.4 1.7 3.3 4.2 9.6 5.6 14 1.3 4.4 3 11.4 3.7 15.5.8 4.8 1 12.8.7 22.5-.4 11-1.2 17.8-3.1 25.5-1.3 5.8-3.7 13.9-5.1 18-1.5 4.1-4.9 11.8-7.4 17-2.6 5.2-7.1 13-9.9 17.2-2.9 4.3-8.3 11-12 14.9-3.7 4-9.4 9.1-12.7 11.4-3.3 2.3-8.3 5.4-11 6.8-2.8 1.3-7.9 3.4-11.5 4.5-3.6 1.1-9.7 2.3-13.5 2.7-4.4.5-9.9.3-14.5-.5-4.1-.7-11.1-2.6-15.5-4.2s-10.3-4.3-13-6c-2.8-1.7-7.7-5.2-11-7.8-3.3-2.6-8.3-7.6-11.2-11.1-2.8-3.5-6.9-9.8-9.2-13.9-2.2-4.1-5.2-11.5-6.8-16.5-2.5-8.2-2.7-10.5-2.8-25.5 0-12.5.4-18.6 1.8-25 1-4.7 3.4-13.2 5.2-19 1.9-5.8 5.7-15 8.5-20.5s7.2-12.9 9.8-16.5c2.5-3.6 7.8-9.8 11.7-13.9 3.8-4 11.5-10.8 17.1-15 5.6-4.2 13.9-9.6 18.5-12 4.6-2.5 10.9-5.3 13.9-6.2 4.2-1.4 7.6-1.7 14.5-1.3zm-16.3 18.9c-1.4-.3-3.9.3-6 1.4-2.1 1-6.6 4-10.2 6.7-3.6 2.6-8.9 6.8-11.8 9.3-2.9 2.5-7.4 7.3-10 10.6-2.6 3.3-6 7.4-7.7 9.1-1.7 1.7-5.4 7.6-8.2 13-2.8 5.5-6.1 12.4-7.3 15.4-1.2 3-3.4 10-4.8 15.5-2.5 9.1-2.7 11.6-2.7 28.5.1 17.6.2 18.9 2.8 26 1.5 4.1 4.1 10 5.9 13 1.8 3 6.7 8.9 10.8 13 5.3 5.3 9.8 8.8 15.5 11.7 4.4 2.3 10.9 4.9 14.5 5.7 3.6.9 9.6 1.6 13.5 1.6 3.8 0 9.7-.7 13-1.6 3.3-.8 8.7-3 11.9-4.7 3.3-1.8 9.6-6.6 14-10.8 4.5-4.2 10.4-10.9 13.2-15 2.8-4.1 7-11.2 9.4-15.9 2.3-4.7 5.7-13 7.5-18.5 1.9-5.5 4-13.5 4.9-17.8.9-4.2 1.9-12.8 2.2-19 .5-9.9.4-11.9-1.5-17.2-1.2-3.3-2.1-6.1-2.1-6.3 0-.1.4 0 1 .3.5.3 1-.1 1-.8 0-.6-1.1-4.8-2.6-9.2-1.4-4.4-4.2-10.9-6.2-14.5-2-3.6-6.2-9.6-9.3-13.5-3.1-3.9-8.3-9.1-11.5-11.6-3.3-2.5-6.9-5.1-8.2-5.7-1.2-.7-5.3-1.2-9-1.1-3.7.1-9.6.7-13.2 1.5-3.6.8-7.6 1.2-8.8.9zM277.4 838c1.7 0 4.2.8 5.6 1.7 1.4.9 17.5 13.9 35.9 28.7 18.4 14.9 34.9 28.5 36.7 30.1 2.3 2.1 3.3 3.9 3.3 6 0 1.6-.7 3.8-1.7 4.8-.9 1-3.1 1.7-4.7 1.7-2.3 0-7.6-3.6-23-15.6-11-8.6-28-21.8-37.8-29.5-9.7-7.6-18.5-15.1-19.4-16.7-.9-1.5-1.6-3.8-1.6-5.2.1-1.4.9-3.3 1.9-4.3.9-.9 3.1-1.7 4.8-1.7zM234 870c1.7 0 6.7 1.5 11.2 3.4 4.6 1.9 25.2 10.9 45.8 20.1 20.6 9.2 38.3 17.4 39.3 18.3 1 1 1.7 3.1 1.7 4.9 0 2.5-.7 3.7-2.8 5-1.6 1-3.7 1.4-5.2 1-1.4-.3-16.9-6.6-34.5-14s-37.6-15.9-44.4-18.9c-6.9-2.9-13.7-6.5-15.3-8.1-1.6-1.5-2.9-3.5-2.9-4.6-.1-1 .8-3 2-4.5q2.2-2.6 5.1-2.6zm168 46.8c1.9.2 8.8 2 15.2 3.8 6.5 1.9 13.5 4.3 15.5 5.3 2.1 1.1 5 3.2 6.5 4.8 1.4 1.5 3.1 4 3.7 5.5.6 1.6 1.1 4.7 1.1 7-.1 2.4-.9 6.1-1.9 8.3-1 2.2-3.5 5.7-5.7 7.8-2.2 2.1-6.3 4.7-9.2 5.7-2.9 1.1-7.4 2-10 2-2.6 0-7.2-.8-10.1-1.7-3-1-7.2-3.4-9.4-5.3-2.3-1.9-5.1-5.8-6.4-8.5-1.6-3.4-2.3-6.9-2.3-10.8 0-3.1.7-7.3 1.5-9.2.9-2.1 1.2-4.6.8-6.3-.4-1.8-.1-3.6 1.1-5.4 1-1.4 2.7-2.8 3.9-3.1 1.2-.2 3.8-.2 5.7.1zm1.1 23.8c-.1 1.3.6 3.8 1.4 5.4.8 1.7 3 3.7 5 4.5 1.9.8 5.2 1.5 7.2 1.5 2.1 0 5.2-.9 7-2 1.8-1.1 3.7-3.2 4.3-4.8.9-2.2.7-3-.7-4.3-1-.9-4.7-2.6-8.3-3.7-3.6-1.2-8.3-2.5-10.4-3.1-3.6-.9-3.9-.8-4.6 1.5-.5 1.4-.9 3.6-.9 5zm237.4-10.5c2.2 0 8.3.8 13.5 1.9 5.2 1.1 12.6 3.5 16.4 5.3 3.9 1.8 8.4 4.9 10.5 7.2 2.1 2.2 4.3 5.8 5 8 .8 2.3 1.1 5.7.7 8-.3 2.2-1.8 6.5-3.3 9.5-1.6 3.4-5.6 8.4-10.2 13-4.2 4.1-10.8 9.3-14.6 11.5-3.8 2.2-9.2 5-11.9 6.1-5 2.1-5.2 2.3-6.8 8.5-.9 3.5-1.7 7.5-1.7 8.9-.1 1.4 1.2 4.7 2.8 7.5 1.5 2.7 5.1 7.1 8 9.7 2.8 2.7 7.6 5.9 10.6 7.3 3 1.4 8.4 3 12 3.5 3.6.5 8.4.7 10.7.4 2.4-.3 7.7-1.5 11.8-2.6 5.9-1.6 7.9-1.8 9.7-.9 1.5.7 2.3 2 2.3 3.6s-1.1 3.3-3 4.7c-1.7 1.3-3 3-3 3.8 0 .8-.8 2.3-1.7 3.2-1 .9-3.6 2.3-5.8 3.1-2.2.8-12.8 5.8-23.5 11-10.7 5.3-23.7 11-28.8 12.7-5.9 1.9-11.3 3-15 3-3.1 0-8.1-.7-11-1.5-2.9-.8-9.4-4.3-14.5-7.7-6.2-4.2-13.9-10.8-23.7-20.7-8.1-8.1-18.6-19.9-23.6-26.6-4.9-6.6-10.1-13.8-11.5-16-1.5-2.2-3.4-5.6-4.4-7.5-1-1.9-2.4-5.8-3.1-8.5-1.1-4.2-1.1-5.3.1-7.3 1.1-1.7 2.1-2.1 4.2-1.7 1.5.3 3.9.8 5.3 1.1 1.4.2 3.3 1.7 4.4 3.2 1.1 1.5 4.4 5.2 7.5 8.3 3.1 3 8.7 7.4 12.6 9.7 3.8 2.3 10.4 5.4 14.5 6.8 4.1 1.5 10.6 2.9 14.5 3.2 3.8.2 9.5-.1 12.5-.7 3-.7 7.4-2.1 9.7-3.2 4-1.8 4.2-2.1 3.3-4.4-.9-2.1-.3-4.2 8.1-23l-6.3-13c-6.3-12.8-6.3-13-6.3-21.5 0-7.4.3-9.1 2.6-13 1.5-2.5 4.9-6.4 7.5-8.6 2.7-2.3 5.8-4.4 6.9-4.7 1.1-.2 3.8-.5 6-.6zm-81.3 94.8c4 5.2 11.8 14.2 17.3 20 5.5 5.7 14.1 13.9 19.1 18 5 4.2 11.9 9.1 15.5 11 4.3 2.3 8.2 3.5 11.9 3.8 4.1.4 7.5-.2 13.5-2.1 4.4-1.4 14.8-5.9 23.2-10.1 8.4-4.1 15.3-8 15.3-8.5s-1.4-1-3-1c-1.7 0-5-.6-7.5-1.3-4.1-1.1-4.6-1-6.6.8-1.9 1.8-2.4 1.9-6.7.7-2.6-.7-6.7-2.3-9.2-3.6-3.6-1.8-4.8-3.1-6-6.4-1.2-3.4-1.3-4.6-.3-6.2 1.1-1.7.8-2.6-2-6.8-1.8-2.6-3.5-5.3-3.8-6.1-.3-1.1-1.8-.8-7.4 1.4-3.9 1.5-8.7 3-10.7 3.4-3.1.5-3.8 1.1-4 3.1-.2 1.5-1.6 3.3-3.8 4.7-1.9 1.3-5.5 2.8-8 3.3-2.9.6-5.9.6-8.3 0-2.6-.7-4.3-2-5.7-4.3-1.1-1.7-2-4.7-2-6.5 0-1.7-.5-3.2-1-3.2-.6 0-4.3-1.6-8.3-3.6-4-2-9.2-5-11.7-6.8-2.5-1.8-5-3.5-5.7-4-.6-.4-1.2-.4-1.2.1 0 .4 3.2 5 7.1 10.2zm267.3 41.2c.5-.1 2.1.7 3.5 1.8 1.4 1 6.3 3.3 11 5 4.7 1.8 9.8 4.2 11.5 5.5 1.6 1.2 4 4.2 5.2 6.7 1.4 2.8 2.2 6.2 2.2 9.4 0 2.8-.8 6.8-1.8 9s-3.4 5.4-5.2 7.2c-1.9 1.8-5.2 4-7.4 4.9-2.2.9-6.5 1.7-9.5 1.7-4 .1-7.1-.7-11.3-2.6-3.9-1.8-6.7-4-8.8-7-1.7-2.3-3.7-6.7-4.6-9.7-1.1-3.8-1.4-7-.8-10.5.4-2.8.8-6.1 1-7.5.1-1.4 2.3-4.8 4.8-7.7 2.5-2.8 5.6-5.4 6.9-5.6 1.2-.2 2.7-.5 3.3-.6zm1 32.9c2.1 2.5 3.2 3 7 3 2.5 0 5.4-.5 6.5-1 1.1-.5 2.4-2.2 3-3.8.6-1.5.8-3.5.5-4.5-.3-.9-1.8-2.3-3.3-3.1-1.5-.8-5.4-2.3-8.7-3.5-3.3-1.2-6.4-2.1-6.8-2.1-.4 0-.7 2.7-.7 6 0 4.9.4 6.5 2.5 9zm138-12.6c11.1.2 27.7 1.2 40 2.5 11.5 1.3 22.4 2.9 24.2 3.7 1.8.8 3.8 2.4 4.4 3.6.6 1.3.9 3.4.6 4.8-.3 1.4-1.8 3.2-3.3 4-1.7.9-5 1.4-8.8 1.3-3.4-.1-15.1-1.3-26.1-2.8-11-1.4-24.7-2.8-30.5-3.1-5.8-.3-14.8-.2-20 .3-5.2.5-10.6.6-12 .3-1.4-.3-3.1-1.7-3.9-3-.9-1.5-1.2-3.6-.8-5.3.4-1.5 1.7-3.2 2.9-3.9 1.3-.6 5-1.5 8.3-1.9 3.3-.4 14.5-.6 25-.5zm-26.3 19.7c.4-.1 3.6.3 7 .9 3.5.5 22.4 2.7 42 5 20.6 2.3 37.3 4.6 39.3 5.5 1.9.8 3.9 2.4 4.5 3.5.5 1.1 1 2.7 1 3.5 0 .8-1.1 2.6-2.5 4-2 2.1-3.4 2.5-8 2.5-3 0-18.9-1.8-35.3-4-16.3-2.2-34.1-4.7-39.5-5.5-5.3-.8-10.6-2.1-11.8-2.8-1.1-.6-2.3-2.3-2.6-3.7-.3-1.4-.2-3.4.2-4.6.4-1.1 1.7-2.6 2.9-3.2 1.1-.6 2.4-1.1 2.8-1.1zm-353-283c2.1-.1 5.2.5 7 1.3 1.8.7 4.5 2.6 6 4.2s3.3 4.5 4.1 6.4c.8 1.9 1.8 5.5 2.2 8 .4 2.7 0 7.3-.8 11.5-.8 3.9-2.8 9.9-4.5 13.5-1.7 3.6-5 8.7-7.4 11.4-2.4 2.7-6.1 5.9-8.3 7.2-2.2 1.2-6 2.8-8.5 3.4-3.4.9-5.8.9-9.5.1-2.8-.6-6.9-2.4-9.3-4.1-2.3-1.6-5.1-4.8-6.2-7-1.1-2.2-2.4-6.1-3-8.8-.6-3.3-.5-6.6.4-11.2.7-3.6 2.6-9.2 4.2-12.5 1.6-3.3 5.1-8.4 7.9-11.3 3.7-3.8 5.8-5.2 7.8-5.2 1.5 0 4.1-1.1 5.9-2.4 1.8-1.4 4.4-2.9 5.8-3.5 1.4-.5 4.2-1 6.2-1zm-5.7 24.1c-.9 2.9-1.5 9-1.5 13.5 0 6.1.3 8.2 1.2 8 .7-.1 2.8-3.2 4.6-6.7 2.6-5.1 3.4-8.1 3.7-13.5.3-5 .1-7.4-.9-8.3-1-.9-1.8-.8-3.5.3-1.2.9-2.8 3.7-3.6 6.7zM821 888c1.9 0 4.9.9 6.7 2 1.8 1.1 4.4 3.9 5.7 6.2 1.3 2.4 3.1 7 3.9 10.3.8 3.3 1.8 8.2 2.1 11 .3 2.9 0 8.6-.9 13.5-.9 5-2.9 11.4-4.9 15.5-1.8 3.9-5.1 9-7.3 11.5s-6.2 5.7-8.9 7.2-6.9 3-9.4 3.4c-2.6.3-6.5.1-9-.6-3.3-.9-5.9-2.6-9.8-6.6-4-4.1-5.6-6.8-6.9-11.2-1-3.3-1.7-8.9-1.6-13.2 0-4.1.8-10.6 1.7-14.5.9-3.9 3-10.1 4.6-14 1.6-3.9 4.6-9 6.8-11.5 2.1-2.5 5.7-5.3 8-6.3 3.6-1.4 4.6-1.5 6.9-.4 2.4 1.1 3.2 1.1 5.8-.5 1.6-1 4.6-1.8 6.5-1.8zm-3 29.8c-.7 4.2-.8 9.3-.3 13.5.4 3.7 1.2 6.6 1.8 6.4.5-.2 1.6-2.6 2.3-5.3.8-2.9 1.1-8.2.9-12.9-.2-4.4-.9-8.9-1.4-10-1-1.9-1.1-1.9-1.6-.2-.3 1-1.1 4.8-1.7 8.5z" style="fill:#000"/>
</svg>
