<svg version="1.2" xmlns="http://www.w3.org/2000/svg" width="2048" height="2048">
    <path fill-rule="evenodd" d="M543.5 332c.5 0 3.5 1 6.5 2.1 3 1.2 7.7 3.1 10.5 4.3 2.7 1.1 8.4 4.6 12.5 7.8 4.1 3.1 18.6 16.8 32.1 30.5 13.5 13.6 35.8 37.4 49.6 52.8 13.7 15.4 27.9 30.7 31.4 34 3.5 3.3 11.4 9.1 28.4 19.7l35-1.1c28.1-.8 40.8-.8 64.5.4 16.2.8 36.5 2.1 45 3 8.5.8 25.9 2.6 38.5 4 12.6 1.3 32.5 3.4 44 4.5s28 2.7 36.5 3.5c8.5.8 26.1 2.4 39 3.5 12.9 1.1 29.8 2.7 37.5 3.6 7.7.8 19.6 2.2 26.5 3 6.9.8 22.8 3.1 35.5 5 12.7 2 25 3.6 27.5 3.6 3 0 6.4-.9 10-2.7 3-1.5 8.9-5.2 13-8.3 4.1-3.1 12-9.2 17.5-13.6 5.5-4.5 21.9-18.4 36.5-31 14.6-12.6 32.1-27.5 39-32.9 6.9-5.5 18.6-14.1 26-19 7.4-5 17.1-10.7 21.5-12.8 4.4-2 10.9-4.5 14.5-5.4 3.6-.9 9.9-1.6 14-1.6s10.1.7 13.3 1.6c3.1.8 8.7 3 12.4 4.9 3.8 1.8 9.5 5.4 12.8 7.9 3.3 2.5 10.7 9.4 16.5 15.4 5.8 5.9 13 14.2 16.1 18.3 3 4.1 7.3 10.4 9.6 14 2.2 3.6 5.9 10.3 8.3 15 2.3 4.7 6.2 13.4 8.5 19.5 2.4 6.1 5.9 16.4 7.8 23 2 6.6 8.3 31.1 14.2 54.5 5.8 23.4 12.4 50.6 14.5 60.5 2.1 9.9 5.3 25.9 6.9 35.5 1.7 9.6 4.7 28.1 6.6 41 1.9 12.9 5.1 31.4 7 41 1.9 9.6 5 26.3 10.3 56.5l3.9 3.3c2.1 1.9 12.8 10.2 23.8 18.5s22.2 17 25 19.3c2.7 2.3 6.8 6.4 9 9 3.1 3.8 3.9 5.8 4 12.7l11 4.1c6 2.3 15.5 6.2 21 8.6 5.5 2.5 14.7 7.3 20.5 10.8 5.8 3.4 13.9 8.9 18 12 4.1 3.1 11 9.1 15.4 13.2 4.5 4.1 11.6 11.3 16 16 4.3 4.7 11.8 13.7 16.5 20 4.8 6.3 11.4 16 14.6 21.5 3.3 5.5 7.8 14.4 10.2 19.8 2.4 5.3 6.1 15 8.2 21.5 2.2 6.4 5.5 18.2 7.5 26.2 1.9 8 4.2 18.8 5.1 24 .8 5.2 2.6 19.6 4 32 1.4 12.4 3.9 29.3 5.6 37.5 1.6 8.3 5.8 25.8 9.4 39 3.5 13.2 9.1 32.8 12.5 43.5 3.4 10.7 8.5 27.8 11.5 38 2.9 10.2 6.9 26.2 8.8 35.5 2 9.3 4.7 23.3 6.1 31 1.4 7.7 3.7 22.5 5 33 1.4 10.5 3.2 25.8 4.1 34 .8 8.3 2.2 24.9 3.1 37 1.3 18.5 1.3 22.7.2 26.4-.7 2.4-2.4 5.3-3.8 6.3-1.6 1.2-4.1 1.9-6.8 1.8-3.5 0-4.7-.5-7.2-3.5-2-2.3-3.2-4.9-3.5-7.7-.2-2.4-.7-9-1-14.8-.3-5.8-1.3-18.8-2.1-29s-2.6-27.3-4-38-3.6-26.2-5-34.5c-1.4-8.2-3.6-20.6-5-27.5-1.4-6.9-3.6-17-4.9-22.5-1.3-5.5-3.9-15.4-5.8-22s-6.5-21.7-10.1-33.5c-3.7-11.8-8.5-28-10.7-36-2.2-8-6-22.4-8.4-32-2.4-9.6-5.2-23.1-6.4-30-1.1-6.9-3-20.8-4.2-31-1.3-11.8-3.3-23.4-5.5-32-1.9-7.4-5.2-19.1-7.4-26-2.1-6.9-6.7-18.1-10.2-25-3.5-6.9-9-16.5-12.3-21.5-3.3-5-9.4-13.3-13.5-18.5-4.2-5.2-12.1-14.2-17.5-19.9-5.5-5.7-15-14.7-21-19.9-6-5.1-15.7-12.5-21.5-16.3-5.8-3.9-15.7-9.6-22-12.9-6.3-3.2-16.2-7.5-22-9.5-5.8-2-14.1-4.5-18.5-5.6-4.4-1-11.9-2.4-16.8-2.9-4.8-.6-10.2-1.7-12-2.6-2.4-1.3-4.7-1.5-9.7-1.1-3.6.4-9.7 1.6-13.5 2.8-3.8 1.2-9.5 3.4-12.5 4.9-3 1.5-10.2 5.9-16 9.8-5.8 3.9-13.1 9.4-16.4 12.4-3.2 2.9-6.3 6.2-6.9 7.3-.6 1.1-1.4 3.8-1.8 6-.4 2.3-.1 6.5.6 10 .7 3.3 3.3 11.1 10.5 28.5l5.7-.6c4.9-.5 6.2-.3 8.5 1.5 1.7 1.2 3 3.4 3.4 5.4.4 2.3-.4 5.7-2.7 11.7-3.2 8.1-3.3 9.2-3.4 35.6l4 8c2.6 5.3 5.9 9.9 10 14 3.3 3.3 10 8.9 15 12.4s11.2 8.4 13.8 10.9c2.7 2.5 7.3 8.3 10.3 12.9 4.7 7.1 7.4 9.8 20.1 20.1 8.2 6.5 16.1 13.1 17.6 14.7 1.8 1.9 3 4.5 3.5 7.5.7 4.4.5 4.8-2.9 8.3-2.8 2.7-4.6 3.6-7 3.6-1.9 0-4.9-1-6.9-2.3-1.9-1.3-10.5-8-19-14.9s-16.9-14.3-18.5-16.4c-1.7-2.2-4.9-6.7-7-10.2-3.4-5.3-6.3-8-18.4-17-9.5-7.1-16.4-13.1-20.3-17.7-3.3-3.8-7.7-10.6-9.9-15s-4.6-11.1-5.4-15c-.8-3.9-1.5-11.5-1.7-27l-2 4.5c-1.1 2.5-2.7 7.6-3.5 11.5-1.1 5.1-1.4 10.7-1 20.5.4 9.6 1.3 16.4 3 23.5 1.4 5.5 4 13.6 5.7 18 1.7 4.4 6.2 14.3 10 22 6.4 13.2 7.5 14.8 18.6 27 6.6 7.2 14.9 17 18.5 22 3.6 5 13.5 19.1 21.9 31.5 13.1 19.2 15.5 23.2 15.8 27 .4 3.9.1 5-2.6 8-2.5 2.9-3.7 3.5-7 3.5-2.5 0-5.1-.8-6.9-2.1-1.5-1.1-6.4-7.1-10.8-13.3-4.4-6.2-8.3-10.9-8.6-10.4-.3.4-1.1 7.5-1.8 15.8-.6 8.2-2.3 22.9-3.7 32.5-1.4 9.6-4.5 27-7 38.5s-7 30.9-10 43c-3 12.1-6 23.3-6.7 24.9-.6 1.6-2.4 4-4 5.3-1.8 1.6-4 2.3-6.7 2.3-3.1 0-4.7-.7-7-3-2.4-2.4-3-3.8-3-7.5 0-2.5 2.9-16.5 6.4-31.3 3.6-14.7 8.1-34.4 10.1-43.7 2-9.3 3.7-19.5 3.6-22.5 0-3-.3-14.6-.6-25.8-.4-14.8-.8-20.3-1.8-20.7-.6-.3-5 1.7-9.7 4.5-4.7 2.8-17.7 9.7-29 15.4-11.3 5.7-27.3 13.1-35.5 16.4-8.3 3.3-27.2 10.1-42 15.2-14.8 5-34.7 11.6-44 14.6-9.3 3-25.8 7.7-36.5 10.4-10.7 2.6-30.5 7.1-44 9.8-13.5 2.8-33.5 6.4-44.5 8.1-11 1.7-25.4 3.7-32 4.6-6.6.8-19.9 2.2-29.5 3.1-9.6.8-34.8 1.9-94.2 2.9l-2.9 5.8c-1.6 3.1-4.8 7.8-7.2 10.3-2.3 2.5-6.9 5.9-10.2 7.5-3.3 1.6-8.5 3.3-11.5 3.8s-7.5.6-10 .1-6.4-1.5-8.8-2.4c-3.9-1.5-4.5-1.5-8 .2-2 1-5.1 2.6-6.7 3.6-2.6 1.7-3.5 1.8-6.5.8-1.9-.7-8.5-4-14.5-7.4-6.1-3.5-14.4-8.9-18.5-12-4.1-3.1-9.1-7.3-11-9.3-1.9-1.9-4.1-3.5-4.8-3.5-.7 0-1.6 2.5-2.2 6.3-.5 3.4-1.3 10.6-1.7 16.1-.7 8.2-1.1 10.1-2.8 11.2-1.1.8-3.5 1.4-5.3 1.4-1.7 0-4.4-.6-6-1.4-1.5-.7-3.2-2.4-3.9-3.7-.6-1.3-1.3-3.1-1.6-3.9-.3-.8.1-6.9.8-13.5.8-6.6 2.1-22.3 3-35 1.3-19 1.4-23.1.3-23.7-.7-.4-1.8-.6-2.3-.5-.5.2-1.3 5.7-1.7 12.3-.4 8.3-1.4 14.6-3.2 20.7-1.4 4.8-3.9 11.3-5.5 14.5-1.6 3.1-4.6 8-6.8 10.7-2.2 2.8-6.1 6.4-8.9 8.2-2.7 1.8-7.8 3.9-11.4 4.8-4.2 1.1-8.1 1.5-11 1.1-2.5-.4-7.2-2-10.5-3.5-3.6-1.8-7.9-4.9-10.8-8-2.6-2.8-4.7-5.6-4.7-6.1s-.5-1-1-1-1.9 2.8-2.9 6.3c-1 3.4-2.4 8.9-3 12.2-.7 3.5-1.8 6.5-2.9 7.3-.9.7-4 1.2-6.7 1.2-4.5-.1-5.4-.5-8.8-4-3.4-3.7-3.7-4.4-3.2-8.5.4-3.2.1-4.5-.8-4.5-.6 0-5 .7-9.7 1.6-4.7.9-11.2 1.4-14.5 1.2-3.9-.3-8.3-1.6-12.8-3.6-3.9-1.9-8.7-5.2-11.5-8-2.6-2.7-5.9-7.3-7.4-10.3-1.5-3-3-8.3-4.3-18.4l-7-.8c-3.9-.4-15.3-1.9-25.5-3.3s-25-3.9-33-5.5c-8-1.7-22.6-5-32.5-7.5-9.9-2.5-25.9-6.8-35.5-9.5-9.6-2.8-27.2-8-39-11.6-11.8-3.5-30.5-9.6-41.5-13.5-11-3.8-28.3-10.3-38.5-14.3s-25-10.3-33-14c-8-3.6-22.6-10.8-32.5-15.9-9.9-5.1-24.8-13.2-33-18.1-8.3-4.8-20.5-12.5-27.3-17.1-8.5-5.9-12.4-8-12.9-7.1-.4.6-.8 5.9-1 11.7-.1 5.8-.7 26.5-1.3 46-.6 19.5-1.5 44-2.1 54.5-.5 10.5-1.6 26.2-2.5 35-.8 8.8-2.1 24.5-2.9 35-.7 10.5-1.7 30.9-2.1 45.5-.6 22.2-1 26.8-2.3 28.1-1.1 1-4.6 1.8-11.1 2.3-6.5.5-9.8.3-10.5-.4-.6-.7-1.1-14.4-1.4-35.3-.2-18.8.2-45.4.8-59.2.7-13.7 1.6-48.4 2.1-77 .6-28.6 1.4-62.6 2-75.5.5-12.9 1.6-30.5 2.5-39 .8-8.5 2.7-24.3 4-35 1.4-10.7 3.7-26.2 5.1-34.5 1.4-8.2 4.1-22.6 6-32 1.9-9.4 5.4-24.9 7.8-34.5 2.5-9.6 8.1-29.1 12.5-43.2 4.5-14.2 12.6-38.5 18-54 5.4-15.6 11.3-32.8 12.9-38.3 1.7-5.5 4.2-14.3 5.7-19.5 1.4-5.2 2.2-9.8 1.8-10.1-.4-.4-7.6-2.1-15.8-3.8-8.3-1.7-25.6-4.9-38.5-7.1-12.9-2.2-25.2-4.5-27.3-5-2-.6-4.8-2.3-6.2-4-1.6-1.9-2.5-4.2-2.5-6.2.1-1.8 1.5-6 3.3-9.2 1.8-3.3 6.6-9.4 10.7-13.5 4.1-4.2 14.7-13.5 23.5-20.7 8.8-7.2 23-18.4 31.5-25 8.5-6.6 18.2-13.6 21.5-15.6 3.3-2 7.1-3.9 8.5-4.3 1.4-.3 3.6-.2 5 .3 1.4.6 5 .7 13.4-.3l3.8-14.5c2.3-9 5.5-25.9 8.2-44.5 2.5-16.5 5.4-35.6 6.6-42.5 1.2-6.9 4.3-23.7 7-37.5 2.7-13.7 7-33.3 9.5-43.5 2.5-10.2 6.9-25.5 9.7-34 2.8-8.5 7.2-20.4 9.7-26.5 2.6-6.1 8.6-18.4 13.5-27.5 4.9-9.1 11.1-20.6 13.9-25.5 2.7-4.9 7.5-12.6 10.6-17 3.1-4.4 9-11.4 13.1-15.5 4.2-4.1 11.6-10.2 16.5-13.6 5-3.3 12.4-7.6 16.6-9.6 4.2-1.9 9.2-3.8 11-4.3 1.9-.4 4.1-1.1 4.9-1.6.8-.5 2-.9 2.5-.9zm-13 53.1c-3.3 1.2-8.6 4-11.9 6.3-3.3 2.3-8.9 7.9-13.1 13.1-4 4.9-10.1 13.1-13.7 18-4.1 5.6-8.4 13.3-11.6 20.5-2.7 6.3-7.2 17.6-10 25-2.7 7.4-7.6 22.1-10.7 32.5-3.1 10.4-11.1 40.1-17.6 66-6.6 25.9-14.5 56.2-17.5 67.5-3.1 11.3-8.2 31.1-11.5 44-5.6 22.2-6.1 25.2-9 53.5-1.7 16.5-3.3 32.6-3.7 35.8-.4 3.2-.5 6.2-.2 6.6.3.5 2.5 1.2 5 1.6 2.5.3 15.5 3.1 29 6.1 13.5 3 36 7.4 50 9.8 14 2.4 32 5.6 40 7 8 1.4 26.9 3.9 42 5.7 15.1 1.7 37.2 4.1 49 5.4 11.8 1.3 21.8 2.1 22.3 1.9.4-.2.7-2.1.7-4.1 0-2.1.9-9.3 2-16 1.1-6.8 3.2-17.8 4.6-24.5 1.4-6.8 3.7-16.1 5.1-20.8 1.3-4.7 4.7-14.4 7.5-21.5 2.7-7.1 6.3-15.5 8-18.5 1.7-3 5.5-8.9 8.6-13 3.1-4.1 8.8-10.8 12.7-14.9 3.8-4 10.6-10 15-13.3 4.4-3.3 11.3-7.5 15.3-9.4 3.9-1.9 10.9-4.4 15.5-5.6 6.2-1.7 10.9-2.2 19.7-2.1 8.1 0 14 .6 20 2.1 4.7 1.1 10.8 2.9 13.5 4 2.8 1.1 7.9 3.7 11.5 5.8 3.6 2.1 11 8.2 16.5 13.5 5.5 5.3 12.3 12.9 15.1 17 2.8 4.1 6.9 11 9.1 15.4 2.2 4.4 5.6 12 7.6 17 1.9 5 4.9 14.2 6.5 20.5 1.7 6.3 3.6 16 4.2 21.5.8 6 1.1 15.5.8 23.5-.3 7.4-1.3 16.6-2.2 20.5-.9 3.9-1.5 7.1-1.4 7.3.2.1 2.8-.4 5.8-1.2 3-.8 9.3-2 14-2.6 6.1-.8 10.6-.8 16 0 4.1.6 10 1.7 13 2.5s8.9 2.8 13 4.5c4.1 1.7 10 4.4 13 6.1 3 1.6 5.8 2.9 6.3 2.9.4 0 .7-1.6.7-3.5s.7-10.1 1.5-18.2c.9-8.2 2.5-19.3 3.6-24.8s3.2-13.4 4.5-17.5c1.4-4.1 5-12.5 7.9-18.5 2.9-6 9.2-16.9 14.1-24 4.8-7.1 11.2-16.3 14.3-20.4 3.1-4.1 8.8-9.9 12.8-13 3.9-3.1 10.4-7.2 14.5-9.3 4-2 10.2-4.4 13.8-5.4 5-1.4 10-1.9 21.5-1.9 11.2.1 16.7.5 21.5 1.8 3.6 1 12.3 4.3 19.5 7.4 7.2 3.1 16.6 7.9 21 10.8 4.4 2.9 10.9 8.4 14.5 12.2 3.6 3.9 8.6 10.6 11.1 14.9 2.5 4.4 6 11.3 7.7 15.4 1.7 4.1 4.4 12.7 6.1 19 1.6 6.3 3.7 16.9 4.7 23.5 1.1 8.1 1.7 19 1.8 33.5.1 17.2-.3 23.3-1.7 30.5-1 5-1.7 9-1.5 9.1.2.1 17.2.6 37.8 1.3 20.6.6 38 1.5 38.5 2.1.5.5 7.8 1 16 1.1 8.3.1 21.8.3 30 .6 8.3.2 16.3.4 18 .5 1.7.1 8-.6 14-1.6s20.7-2.2 32.5-2.6c15.6-.6 27-.4 41.5.6 11.1.8 33.6 1.3 50.5 1.3 16.8-.1 33.2-.4 36.5-.8l6-.6c.5-20.9.1-32-.5-38s-2.4-20-4-31-4.9-37.8-7.5-59.5c-2.5-21.7-6.4-51.9-8.5-67-2.2-15.1-5.7-36.5-8-47.5-2.2-11-5.2-25.6-6.6-32.5-1.4-6.9-4.6-20.4-7-30-2.5-9.6-6.5-24.7-9-33.5s-6.7-20.9-9.2-27c-2.6-6.1-7.1-15.1-10.1-20-2.9-4.9-8.2-12.6-11.6-17-3.5-4.4-8-9.6-10.1-11.6-2.7-2.6-5.6-4.1-9.4-5-3-.7-10.5-1.2-16.5-1.2-7.3 0-14.9.7-22.5 2.2-6.3 1.3-16.2 3.8-22 5.7-5.8 1.9-16.3 6.3-23.5 9.8-7.2 3.5-17.7 9.5-23.5 13.3-5.8 3.8-14.1 9.8-18.5 13.3s-19.5 17.8-33.6 31.9c-15.8 15.8-27.9 26.9-31.4 29.1-3.1 1.9-7.2 4.5-9.1 5.8-1.9 1.2-5.5 2.7-8.1 3.4-3.2.7-10.4.9-20.8.6-11-.4-18.8-1.2-25-2.6-5-1.2-16-4.1-24.5-6.5-8.5-2.5-22.2-5.9-30.5-7.5-9.1-1.9-23.9-3.9-37.5-5.2-12.4-1.1-29.9-2.7-39-3.5-9.1-.9-30.2-2.9-47-4.6-16.8-1.7-34.3-3.4-39-3.9-4.7-.5-19.7-2-33.5-3.5-13.7-1.4-36.3-3-50-3.6-14.7-.7-46.6-.9-77.5-.6-45.4.5-52.9.3-55.5-1-1.6-.8-5.9-3.8-9.4-6.6-3.5-2.9-10.9-10.8-16.5-17.7-5.5-6.9-13.7-16.6-18-21.5-4.3-4.9-18.6-20.5-31.7-34.5-13-14-27.4-29.1-31.8-33.5l-8.1-8c-15.1-.3-21.3 0-23.5.6-2.2.5-6.7 1.9-10 3zM733 682.3c-4.7 1.4-11.9 4-16 5.7-4.1 1.7-10.6 5.5-14.5 8.5-3.9 2.9-9.3 7.7-12.1 10.7-2.9 2.9-6.8 7.6-8.9 10.3-2.1 2.8-4.8 7.1-6.1 9.8-1.3 2.6-2.2 4.9-1.9 5.2.3.3 4.8-1.1 10-3s13.9-4.6 19.3-6c5.3-1.4 15.1-3.3 21.7-4.1 8.3-1.1 15.6-1.4 23.5-1 6.3.3 15.8 1.3 21 2.2 5.2.9 14.7 3.2 21 5.1 6.3 1.9 18 6.6 26 10.4 8 3.8 14.7 6.7 15 6.4.3-.3-.3-3.1-1.4-6.3-1-3.1-3.9-9.7-6.5-14.7-2.5-4.9-6.4-11.3-8.6-14.1-2.2-2.8-6.5-7.4-9.5-10.1-3-2.8-8-6.6-11-8.5-3-1.9-8.1-4.5-11.2-5.7-3.2-1.1-9.7-2.8-14.5-3.6-4.9-.8-10.6-1.5-12.8-1.4-2.2.1-6.2.5-9 .9-2.7.4-8.8 1.9-13.5 3.3zm298.5 21.1c-2.7.8-8.6 3.3-13 5.5s-11.1 6.5-15 9.6c-3.9 3-10.5 9.4-14.7 14.2-5.4 6.1-9.4 12-13 19-2.9 5.6-5 10.5-4.5 10.8.4.3 2.6-.8 5-2.4 2.3-1.5 7.3-4.4 11.2-6.3 3.9-1.9 9.9-4.5 13.5-5.6 3.6-1.2 8.5-2.6 11-3.1 2.5-.6 9.2-1.5 15-2 7.1-.7 14.1-.7 21.5 0 6 .5 15.7 2 21.5 3.3 5.8 1.3 15.2 4.2 21 6.4 5.8 2.1 15.3 6.1 21.2 8.8 5.9 2.7 11.1 4.5 11.5 4.1.5-.4.2-3.6-.5-7-.8-3.4-3.5-10.7-6.1-16.2-2.6-5.5-7.5-13.4-10.7-17.5-3.3-4.1-8.2-9.2-10.9-11.2-2.8-2-7.9-5-11.5-6.7-3.6-1.7-9.2-3.7-12.5-4.6-3.3-.8-9.8-1.7-14.5-1.9-4.7-.3-11.2-.1-14.5.5-3.3.5-8.2 1.5-11 2.3zm-682.7 31.5c-14.5 10.8-28.1 20.7-30.3 22-3.1 1.8-3.6 2.6-2.5 3.2.8.4 7.8 1.9 15.5 3.4s19 3.5 25 4.5c6.1 1 11.2 1.6 11.5 1.3.3-.3 1.5-4.6 2.6-9.6 1.2-5.1 4-17.1 6.2-26.7 2.3-9.6 3.9-17.8 3.6-18.2-.2-.5-1-.8-1.6-.7-.7 0-1.8.3-2.5.6s-13.1 9.4-27.5 20.2zm365.2 1.7c-5.2.9-15.3 3.5-22.5 5.9-7.1 2.3-16.3 5.8-20.3 7.6l-7.3 3.4c-3.2 10.9-5.2 19.2-6.5 25.5-1.3 6.3-2.4 14.1-2.4 17.3 0 3.3.7 7 1.6 9 1 1.7 1.6 4.4 1.5 6 0 1.5.1 2.7.4 2.7.3 0 8.7 1.1 18.8 2.4 10 1.4 26.3 3.4 36.2 4.5 9.9 1.1 26.8 2.5 37.5 3.1 10.7.5 25.4 1 32.5 1 7.2 0 18.4.7 25 1.5 6.6.7 12.3 1.2 12.8.9.4-.2.7-.9.7-1.4 0-.5 3.2-7.4 7-15.2 5.4-11 7.4-16.3 8.6-22.8 1.1-5.6 1.4-10.8 1-15.2l-.6-6.8c-14.3-8.3-23.2-13.1-29-16-5.8-2.9-15-6.7-20.5-8.5-5.5-1.8-13.8-4.1-18.5-5-5.1-1-14.9-1.8-24.5-2-8.8-.2-17.3-.1-19 .1-1.6.2-7.3 1.1-12.5 2zm295 29.9c-4.1.9-10.2 2.4-13.5 3.4-3.3 1.1-8.2 2.8-11 3.9-2.7 1.1-7.9 3.8-11.5 6.1-3.6 2.3-7.3 4.1-8.2 4.1-1.2 0-2.1 1.2-2.7 3.8-.6 2-1.8 6.6-2.7 10.2-1.2 4.6-1.9 12.4-2.4 26.5-.4 13.4-.2 20.4.5 21.3.8 1 14.9 1.4 66.5 2 36 .4 71.6.7 79 .6 7.4-.1 15-.4 16.8-.7 2.7-.6 3.4-1.3 4.2-4.4.6-2.1 1.5-6.7 2-10.3.5-3.6 1.5-10.5 2.1-15.5.6-5 1.1-12.8 1-17.5-.1-4.7-.5-9.9-1-11.5-.7-2.7-2.2-3.6-13.2-8.7-6.8-3.1-18-7.5-24.9-9.8-6.9-2.3-17.6-5-23.7-6.1-6.5-1.1-15.5-1.9-21-1.8-5.4.1-14.1.7-19.3 1.4-5.2.8-12.9 2.1-17 3zm-717.8 8.4c1.3.5 5.9 1.4 10.3 2 4.4.6 15.4 2.4 24.5 4 9.1 1.7 19.9 3.7 24 4.6 4.1.9 7.7 1.8 8 2 .3.2 9.9 2 21.5 4s25.7 4 31.5 4.5c5.8.5 12.5 1.1 15 1.4 2.5.3 0-.5-5.5-1.9-5.5-1.3-16.3-3.5-24-4.9-7.7-1.3-19.6-3.1-26.5-4.1-6.9-.9-17.4-2.5-23.5-3.5-6.1-1-19.4-3.4-29.7-5.4-10.4-2-20.2-4.3-21.8-5.1-1.6-.8-3.2-1.5-3.4-1.5-.2 0-.9.7-1.5 1.5-.9 1.2-.6 1.7 1.2 2.4zm205.5 33.3c.1 1 1.2 2.2 2.5 2.7 1.2.5 15.5 3.6 31.7 6.9 16.2 3.3 40.3 7.9 53.5 10.1 13.2 2.2 33 5.1 44 6.5 11 1.4 29.9 3.4 42 4.5 12.1 1.1 31.9 2.7 44 3.5 12.1.8 33.9 2 48.5 2.6 14.6.7 32.1 1 39 .8 12.1-.3 12.5-.4 12.8-2.5.1-1.6-.5-2.6-2.3-3.3-1.4-.5-8.7-1-16.2-1-7.6 0-21.7-.5-31.3-1-9.6-.5-22.2-1.2-28-1.5-5.8-.3-20-1.3-31.5-2.1s-28.4-2.1-37.5-3c-9.1-.8-23.7-2.4-32.5-3.5s-25-3.3-36-5c-11-1.7-35.5-6-54.5-9.5-19-3.6-36.3-6.9-38.5-7.4-2.2-.5-4.9-1-6.1-1-1.1 0-2.4.3-2.9.7-.5.3-.8 1.5-.7 2.5zM391 815.8c0 .4-3.9 14.7-8.5 31.7-4.7 17-12.8 45.2-18.1 62.5-5.3 17.3-13.6 45.9-18.5 63.5s-10.4 38.1-12.4 45.5c-1.9 7.6-5 24.6-7 39-2 14-3.9 28.4-4.3 32l-.6 6.5c17.7 15.9 28 24.3 34.3 28.9 6.3 4.7 18.5 12.8 27 18 8.5 5.3 25.4 14.5 37.5 20.6 12.1 6 29.9 14 39.5 17.9 9.6 3.8 27.9 10.3 40.5 14.4 12.6 4.2 33.1 10.5 45.5 14.2 12.4 3.6 32.4 9.3 44.5 12.5 12.1 3.2 28.1 7.3 35.5 9 7.4 1.8 19.8 4.4 27.5 6 7.7 1.6 20.8 3.8 29 5 8.3 1.2 19.7 2.3 25.5 2.4 8.7.1 11-.2 13-1.7 1.4-1 5.2-3.6 8.5-5.8 3.3-2.2 8.9-4.9 12.5-6.1 4.9-1.7 8.8-2.2 16-2.2 6.8.1 11.9.8 18 2.4 5.2 1.5 9.6 3.4 11.4 4.9 2.3 2.1 2.7 3.2 2.2 5.6-.3 1.7-1.8 4.2-3.2 5.8-1.5 1.5-3.6 2.7-4.8 2.7-1.1 0-4.1-1.2-6.6-2.6-2.5-1.4-6.3-2.8-8.5-3-2.2-.3-6.5.1-9.5.9s-7.1 2.1-9 3c-1.9.9-5.2 3.3-7.3 5.4-2.2 2.1-5 5.9-6.3 8.6-1.3 2.6-2.6 6.6-3 9-.3 3 0 5.2 1.3 7.7 1 1.9 3.8 4.7 6.3 6.2s7.4 3.5 11 4.4c3.8 1 8.3 1.4 11 1.1 2.5-.3 7.1-1.6 10.3-2.9 3.3-1.3 8.3-4.5 11.5-7.4l5.7-5.1c1.2-14.6 2-21.7 2.6-25.3.5-3.6 2-8 3.2-9.7 1.2-1.8 3.3-3.8 4.7-4.4 1.5-.6 4.3-.8 7-.3 2.9.4 5.4 1.6 6.9 3.3 2.3 2.4 2.4 3.1 1.8 10.1-.4 4.1-.9 12-1.2 17.5-.3 5.5-.8 11.2-1 12.8-.3 1.5.1 4.2.9 6 .7 1.7 2.8 4.5 4.6 6.2 2.4 2.2 4.3 3.1 7.8 3.4 2.9.2 5.9-.2 7.7-1.2 1.6-.8 4.5-3 6.3-4.8 1.9-1.9 4.2-5 5.2-6.9 1-1.9 2.8-6.7 4-10.5 1.8-5.5 2.3-9.6 2.4-19.1.1-9.2.5-12.5 1.6-13.8.8-.9 2.3-1.7 3.3-1.6.9 0 3.2-.9 5-2 2.5-1.5 5-2 11-2 4.2 0 10.7-.5 14.5-1.2 5.2-.9 8.5-.9 14.7 0 4.4.7 10.3 2.3 13 3.6 2.8 1.2 6.7 3.8 8.8 5.7 2.1 1.9 5 5.7 6.3 8.4 1.8 3.8 2.4 6.6 2.4 11.5 0 4.1-.7 8-1.9 10.5-1 2.2-3.7 5.7-5.9 7.8-2.3 2-5.6 4.4-7.2 5.2-1.6.8-2.9 2.1-2.7 2.9.1.7 2.7 3.5 5.7 6.1 3 2.6 7.5 5.6 10 6.7 2.5 1.1 7.3 2.6 10.8 3.4 3.4.8 6.5 1.2 7 1 .4-.3-.1-3.8-1.1-7.8s-2.2-12.5-2.7-18.8c-.5-6.3-.7-15.8-.4-21 .3-5.9 1-10.3 1.9-11.7q1.5-2.3 4.5-2.3c1.9 0 3.9.9 5.5 2.5 1.4 1.4 3.2 4.9 4 7.8.9 2.8 2 10.4 2.6 16.7.6 6.3 1.7 13.9 2.5 16.8.8 2.8 2.4 6.3 3.7 7.7 1.2 1.4 4.5 3.6 7.2 4.9l5 2.4c-10.1 2.6-11.1 3.3-11.4 5.3l-.3 2.4c12.9-1.2 18.3-1.5 20.2-1.5 1.9 0 4.4-.6 5.5-1.4 1.8-1.2 1.8-1.6.5-3-.9-1.1-3-1.7-5.5-1.7-2.2.1-5-.1-6.2-.4-2.2-.5-2.1-.7 1.5-3.3 2.4-1.8 4.7-4.9 6.4-8.8 1.5-3.2 3.9-10.6 5.4-16.4 2-7.6 2.8-13.4 3-21 .2-10.4.2-10.5 3.3-13.2 1.7-1.6 3.9-2.8 4.9-2.8.9 0 3.2.9 5 2 1.9 1.2 3.2 2.8 3.2 4 0 1.8-.2 1.8-1.5.5-1.2-1.2-1.8-1.3-3-.2-1 .7-1.6 2.8-1.6 5.2 0 2.4.6 4.5 1.6 5.3 1.2 1 1.9.8 3.5-.8l2-2c.8 3.5 1 7.3 1 10.8 0 4.1.4 6.3 1.3 6.6.6.1 13.1 0 27.7-.5 14.6-.4 31.2-1 37-1.4 5.8-.3 17.9-1.3 27-2.1 9.1-.8 24.8-2.6 35-4 10.2-1.3 27.7-4 39-5.9 11.3-2 29.5-5.5 40.5-8 11-2.4 28.3-6.7 38.5-9.4s28.4-8 40.5-11.6c12.1-3.7 29.7-9.4 39-12.7 9.3-3.3 24.9-9.4 34.5-13.5 9.6-4.1 22.5-10 28.5-13.2 6-3.2 15.6-8.6 21.3-11.9 5.6-3.4 13.6-8.8 17.8-11.9l7.7-5.8c-1.1-7-1.5-11.9-1.5-15.5v-6.5c-14.2-15.5-20.4-22.7-22.9-26-2.6-3.3-6.5-9-8.8-12.7-2.2-3.8-5.6-9.8-7.5-13.5-1.9-3.8-5-11.5-7-17.3-2-5.8-4.3-14.1-5.1-18.5-.8-4.4-1.9-13.4-2.6-20-.6-6.6-.8-15.8-.4-20.5.3-4.7 1.3-12.3 2.1-17 .9-4.7 2.5-11.3 3.7-14.7 2-5.8 2.1-6.4.6-8-.9-1-2.7-3.8-3.9-6.3-1.2-2.5-2.9-7.6-3.7-11.5q-1.4-7-.7-13.5c.4-3.6 1.8-9.6 3.1-13.5 1.3-3.9 4.1-9.9 6.2-13.5 2.1-3.6 6.3-9.1 9.2-12.3 3-3.2 5.2-6 4.9-6.2-.3-.3-7-1-15-1.6-9.1-.7-29.9-.9-56-.5-22.8.3-44.1.9-47.2 1.3l-5.7.8c-7.5 11.6-12.6 18.4-16.1 22.5-3.6 4.1-10.3 11.5-15 16.4-4.7 4.9-12.8 12.4-18 16.8-5.2 4.4-14.5 11.3-20.5 15.3s-16.4 10.3-23 13.9c-6.6 3.7-14.5 7.6-17.5 8.7-3 1.1-11.8 3.6-19.5 5.5-7.7 2-18.7 4.2-24.5 5-7.4 1.1-14.3 1.3-23.5.9-7.2-.4-17.3-1.3-22.5-2.1-5.2-.8-12-2.2-15-3.1-3-.9-10.9-3.7-17.5-6.4-6.6-2.6-17.6-7.2-24.5-10.1-6.9-3-16.8-7.8-22-10.7-5.2-2.9-14.6-9.2-20.9-13.9-6.2-4.8-15.2-12.8-20-17.7-4.7-5-11.3-12.4-14.6-16.5-3.3-4.1-8.7-11.8-11.9-17-3.3-5.2-8.9-15.4-12.6-22.5-6-11.8-7.2-13.4-12.1-16.8-3-2.1-9-5.2-13.4-6.8-4.4-1.7-10.9-3.7-14.5-4.5-3.6-.7-9.6-1.4-13.5-1.4-3.9 0-10.6.9-15 2s-11.3 3.9-15.2 6c-4 2.2-9.7 6.4-12.7 9.3-3.8 3.6-7.3 8.7-11.6 16.7-3.4 6.3-8.1 14.4-10.5 18-2.4 3.6-7.6 10.1-11.6 14.4-4.1 4.3-10.8 10.6-15 14-4.5 3.6-13.2 8.9-21 12.8-7.8 4-16.7 7.6-21.4 8.8-4.4 1.1-15.2 2.9-24 4-8.8 1-21.6 2.2-28.5 2.5-9 .5-16.4.3-26.5-.9-7.7-.9-20.7-2.8-29-4.1-8.2-1.4-18.8-3.6-23.5-4.9-4.7-1.4-12.3-4.1-17-6.1-4.7-2-12.3-5.7-17-8.2-4.7-2.5-13.5-7.5-19.5-11.1l-21-12.6c-7-4.3-14.1-10-24-19.2-7.7-7.3-16.5-16.4-19.5-20.4s-8.3-11.1-11.7-15.9c-3.4-4.7-7.6-11-9.3-13.8-1.8-3.2-4.6-6.3-7-7.8-2.3-1.5-4.6-4-5.5-6-.8-1.9-1.9-3.5-2.5-3.5-.6 0-15.3-1.8-32.7-4-17.5-2.2-33.1-4.2-34.6-4.5-2.3-.4-2.9 0-3.6 2.1-.5 1.4-.9 2.8-1 3.2zm92.5 12.5c1.5 2.8 4.7 8.1 7.2 11.7 2.5 3.6 8.4 11 13.1 16.4 4.7 5.4 12.2 13.3 16.6 17.4 4.4 4.1 12 10.7 17 14.5 5 3.9 13.3 9.8 18.5 13.3 5.2 3.4 15.6 9.4 23 13.3 7.4 3.8 18.5 9 24.5 11.4 6 2.4 17.1 6.3 24.5 8.5 7.4 2.3 19.2 5.6 26.3 7.4 12.2 3.2 12.8 3.2 14.5 1.5 1.3-1.3 1.5-2.1.6-3.5-.6-.9-2.8-2.2-5-2.9-2.1-.6-10.6-3-18.9-5.2-8.2-2.2-19.5-5.5-25-7.4-5.5-1.9-15-5.5-21-8-6-2.6-16-7.4-22-10.8-6-3.4-15-8.8-20-12.1-5-3.3-13.3-9.5-18.5-13.7-5.2-4.2-14.5-12.5-20.5-18.6-6.1-6-14.2-15.1-18-20.1-3.9-5.1-8.7-11.9-10.7-15.3-2.1-3.4-4.4-6.1-5.2-6.1-.8 0-1.9.7-2.5 1.5-.8 1.2-.5 2.7 1.5 6.8zm379.7 4.5c1.5 1.4 5.6 1.9 25 2.9 12.8.7 24.8 1.4 26.7 1.5 3 .3 3.5 0 3.8-1.9.1-1.7-.6-2.7-2.8-3.8-1.6-.8-4.9-1.7-7.2-2-2.4-.2-13.3-.7-24.4-1-17.5-.5-20.3-.4-21.5 1-1.2 1.4-1.2 1.8.4 3.3zm-254.1 44c-6.2 4.8-9.1 7.8-8.9 9 .1.9.9 1.8 1.7 2 .8.2 4.9-2.3 9-5.4 4.1-3.1 14.4-11.4 22.8-18.3 9.4-7.8 15.2-13.2 15-14.1-.2-.8-1-1.6-1.9-1.8-.9-.2-7.6 4.6-15 10.5s-17.6 14.1-22.7 18.1zm383.6-21.6c.1 1 1.2 2.2 2.4 2.7 1.3.5 15.8 1.4 32.3 2.1 16.5.6 38.5 1.5 49 2s50 1.2 88 1.6c38 .4 70.7.4 72.7.1 2.4-.4 4-1.4 4.3-2.4.3-1.1-.3-2.6-1.5-3.8-1.7-1.7-3.2-2-8.8-1.8-3.7.1-29.9.2-58.2.2-28.3 0-67-.4-86-1-19-.5-37.9-1.1-42-1.4-4.1-.2-17.2-.7-29-1-11.8-.4-21.9-.3-22.4.1s-.9 1.6-.8 2.6zm-365.3 32.6c-5.5 4.7-10.8 9.4-11.8 10.6-1 1.2-1.8 2.7-1.7 3.4 0 .6 1 1.2 2.3 1.2 1.5.1 10.4-7 27.2-21.3 13.8-11.8 25.9-22.4 27-23.6 1.3-1.3 1.7-2.7 1.3-3.6-.5-.8-1.3-1.5-1.8-1.5-.6 0-8.1 5.9-16.8 13.2-8.6 7.3-20.2 17-25.7 21.6zm-49.7-8.7c.1 1 1 1.9 2 1.9.9.1 7.8-4.3 15.2-9.6 7.4-5.3 13.8-10.2 14.2-10.8.4-.6.6-1.6.5-2.1-.2-.5-1.2-1.1-2.3-1.2-1.1-.2-7.9 4-15.9 9.8-10.5 7.5-13.9 10.5-13.7 12zm376-14.4c.1 1.3 1.7 5.8 3.5 10.1 1.8 4.2 6.3 12.7 9.9 18.7 3.6 6 8.8 13.9 11.4 17.5 2.6 3.6 8.1 10 12.3 14.4 4.2 4.3 10.3 9.7 13.6 12.1 3.3 2.4 9.6 6.4 14 9 4.4 2.6 15.5 8.7 24.8 13.6 9.2 4.9 17.8 8.9 19.2 8.9 1.4 0 2.7-.5 3-1 .3-.5.3-1.8 0-2.7-.2-1.1-6.8-5.2-16.2-10.2-8.7-4.6-21.6-11.8-28.7-16-8.1-4.8-15.7-10.2-20.4-14.6-4.1-3.9-9.6-9.7-12.2-13-2.6-3.3-7.2-9.6-10.1-14-3-4.4-8.6-14.3-12.5-22-3.9-7.7-7.7-14.1-8.5-14.3-.8-.1-1.9 0-2.4.4-.4.4-.8 1.8-.7 3.1zm346.9 4.3c-2 .6-3.7 1.5-3.7 2s1.5 1 3.3 1c1.7 0 6.4-.5 10.2-1 3.8-.6 10.4-1.6 14.5-2.4l7.5-1.4c-17 .1-23.3.3-25 .5-1.7.2-4.7.8-6.7 1.3zM1039 910c.3.8 1.3 1.6 2.4 1.8 1.4.3 7.2-5 20.7-18.5 10.3-10.3 18.7-19.6 18.7-20.5 0-1.1-.7-1.8-1.7-1.8-1 .1-10.5 8.5-21.1 18.8-12.2 11.8-19.2 19.3-19 20.2zm-248.8-10c-4.4 4.2-11 9.9-14.9 12.9-3.8 2.9-11.5 7.5-17 10.1-5.5 2.7-17.3 7.4-26.2 10.4-9 3.1-17.9 5.6-19.8 5.6-1.9 0-4.2.2-5 .5-.8.3-1.5 1.4-1.5 2.5s.8 2.4 1.8 2.9 4.8.6 9.2.1c4.8-.5 12.8-2.7 22-6 8-2.9 18.1-6.9 22.5-9 4.4-2.1 11.7-6.5 16.3-9.9 4.5-3.4 12.1-9.8 16.8-14.3 4.7-4.6 11.7-12.3 15.6-17.3 5.3-6.9 6.8-9.5 6.4-11.2-.4-1.4-1.4-2.3-2.5-2.3-1.2 0-4.5 3.2-8.9 8.8-3.8 4.8-10.5 12.1-14.8 16.2zm274.8 8c-7.8 7.9-11.2 12.1-11 13.4.2 1.1 1 2.1 1.8 2.4.9.2 5.4-3.7 11.5-10 5.5-5.6 14.4-15.1 19.8-21 5.4-6.1 9.6-11.5 9.5-12.5-.2-.9-.8-1.8-1.5-2.1-.7-.2-5.1 3.8-10 9-4.8 5.1-13.9 14.5-20.1 20.8zm58.5 4.9c-3.7 3.6-6.7 7.4-6.7 8.4 0 .9.7 1.7 1.5 1.7s3-1.2 4.8-2.6c1.7-1.5 12.1-10.8 23-20.8 11.7-10.7 19.7-18.7 19.5-19.6-.2-.8-1.1-1.6-2-1.8-1-.2-8.1 5.5-17.5 13.9-8.7 7.8-18.8 17.2-22.6 20.8zm101.3 23.1c-5.8 4.6-14.1 10.7-18.5 13.6-4.4 2.9-12.7 7.5-18.5 10.3-5.8 2.7-14.8 6.1-20 7.5-5.2 1.4-13.5 3-18.5 3.6-4.9.5-14.4 1-21 1-8.1 0-12.6.4-13.8 1.2-1.1.8-1.7 2.2-1.5 3.3.3 1.9 1.1 2 19.8 1.9 14.4 0 21.9-.5 28.5-1.8 5-1 12.8-3.1 17.5-4.8 4.7-1.6 12.3-5 17-7.5 4.7-2.4 12.1-6.9 16.5-9.8 4.4-3 11.6-8.4 16-12 4.4-3.7 11.2-9.7 15-13.4 3.8-3.8 11.4-11.3 16.7-16.7 5.4-5.4 9.8-10.7 9.8-11.6.1-1-.8-2.2-1.9-2.8-1.8-.9-3.8.7-17.3 14.3-8.4 8.5-20 19.1-25.8 23.7zm-547.2 3.4c-2.2.5-2.7 1.1-2.5 2.9.2 2 .8 2.2 7.2 2.5 4.9.1 7.7-.2 9.3-1.3 1.8-1.2 2-1.9 1.2-3.5s-2-2-5.7-1.9c-2.7 0-5.2.2-5.8.4-.5.2-2.2.6-3.7.9zM318.8 1120c0 1.9 1.5 3.7 6.7 7.6 3.8 2.9 11.3 8.1 16.8 11.6 5.5 3.6 17 10.4 25.5 15.3s23.8 13 34 18.1c10.2 5.1 23.2 11.3 29 13.9 5.8 2.6 15 6.5 20.5 8.7 5.5 2.2 18.3 7.1 28.5 10.8 10.2 3.7 26.2 9.2 35.5 12.3 9.4 3.1 27.1 8.6 39.5 12.2 12.4 3.7 29 8.4 37 10.6 8 2.2 21.9 5.7 31 7.8 9.1 2.2 22.4 5.1 29.5 6.5 7.2 1.4 20.9 3.6 30.5 5 9.6 1.3 18.9 2.5 20.5 2.6 1.7.1 3.5.2 4 .1.6 0 1.8-1.8 2.8-3.8 1-2.1 1.6-3.9 1.5-4-.2-.1-6.1-.7-13.3-1.3-7.1-.5-17.7-1.7-23.5-2.6-5.8-.8-18.4-3.1-28-5-9.6-1.9-26.3-5.7-37-8.4-10.7-2.6-29.4-7.6-41.5-11-12.1-3.4-31.4-9-43-12.5-11.5-3.5-29.8-9.4-40.5-13.1-10.7-3.7-26.2-9.5-34.5-12.9-8.2-3.5-19.7-8.5-25.5-11.2-5.8-2.7-16.6-8.2-24-12.3-7.4-4-18.9-10.7-25.5-14.8-6.6-4.1-17.2-11.2-23.5-15.7-6.3-4.5-15.7-11.9-20.7-16.4-5.1-4.4-9.7-8.1-10.2-8.1s-1.1 1.7-1.5 3.8c-.3 2-.6 4.8-.6 6.2zm1088 76.4c-11.3 5.6-28.6 13.4-38.5 17.3-9.9 3.9-26.3 9.9-36.5 13.3-10.2 3.4-28.6 9.1-41 12.6-12.4 3.6-30.6 8.5-40.5 11-9.9 2.5-25.4 6-34.5 7.9-9.1 1.8-23.2 4.5-31.5 5.9-8.2 1.4-19.7 3.2-25.5 4-5.8.9-16.1 2.2-23 3.1-6.9.8-17.2 1.9-23 2.4-5.8.6-18.1 1.5-27.5 2.1-9.3.6-28.2 1.1-42 1.1-20.1.1-25.2.4-26.2 1.5-.7.8-1.3 2.7-1.3 4.4v3c22.1 0 42.5-.7 59.5-1.5 17.1-.8 35.5-1.9 41-2.5 5.5-.5 18.6-2.2 29-3.6 10.5-1.4 26.9-3.9 36.5-5.5 9.6-1.6 26.1-4.8 36.5-7 10.5-2.2 26.2-5.8 35-8s23.4-6.3 32.5-9.1c9.1-2.8 28.9-9.3 44-14.5 15.1-5.2 34-11.9 42-15 8-3 22.6-9.5 32.5-14.3 9.9-4.9 23.6-12.1 30.5-16 6.9-4 14-8.3 15.8-9.6 2.5-1.9 3.2-3.1 3.2-5.9 0-2.2-.5-3.5-1.2-3.4-.7 0-6.7 3.6-13.3 8-6.6 4.4-21.2 12.6-32.5 18.3zm-647.5 46.1c1.4.8 4.8 1.5 7.5 1.5 2.8 0 6.1-.5 7.5-1 1.5-.6 2.5-1.8 2.5-3 0-1.1-.7-2.2-1.5-2.5-.8-.3-5.3-.5-10-.5-7.8 0-8.5.2-8.5 2 0 1.1 1.1 2.7 2.5 3.5zm122.7 13-.7 12.7c4.5-.6 5.1-1.4 5.7-4.7.4-2.2.7-8.2.7-13.2.1-8.6-.1-9.3-1.9-9.3-1 0-2.2.4-2.5.9-.3.5-.9 6.7-1.3 13.6zm12.6 6.2c.1 6.2.5 11.3 1 11.3.4 0 3-1.3 5.7-2.9 2.8-1.5 6-4.1 7.3-5.7 1.2-1.6 2.3-4 2.3-5.4 0-1.4-.8-3.2-1.8-4.1-1-.9-3.1-2.3-4.8-3.1-1.6-.9-4.2-1.8-5.6-2.1-1.5-.4-3-.4-3.4 0-.5.3-.8 5.7-.7 12zm7.9 27.1c.9 1.5 3.9 5.5 6.7 9 3.7 4.5 5.7 6.2 7.1 6 1.1-.2 2.1-1 2.3-1.8.1-.8-1-3.2-2.5-5.4-1.5-2.1-4.6-5.8-6.8-8.2-2.2-2.5-4.8-4.5-5.7-4.4-.9 0-1.9.5-2.3 1-.3.5.3 2.2 1.2 3.8zm-100.1 7.9c.6 1 4.7 4.4 9 7.5 4.5 3.3 8.8 5.7 9.9 5.5 1.2-.1 2-.9 2-2.2 0-1.3-2.8-3.9-9-8.3-4.9-3.4-9.2-6.2-9.5-6.2-.3 0-1.2.5-2 1-1.2.7-1.2 1.3-.4 2.7zm-23.1 5.3c-.5 3.5-.4 4.8.9 5.8 1 .7 2.1.9 2.9.3.6-.5 1.5-3.1 1.9-5.7.5-3.4.4-5.3-.5-6.2-.6-.7-1.5-1.3-1.8-1.2-.4 0-1.1.6-1.7 1.3-.6.6-1.3 3.2-1.7 5.7zM566.1 458c.9 0 2.7 1 4 2.3 1.3 1.2 6.9 11.2 12.5 22.2s13.3 25.6 17.1 32.5c4.6 8.2 7 13.6 7.1 15.8 0 1.9-.8 4-2 5.2-1.1 1.1-3.1 2-4.5 2s-3.9-1.2-5.6-2.7c-2.3-2-7.9-12.3-19-34.8-11-22.1-15.9-33.1-16-35.7-.1-2.9.4-4 2.2-5.3 1.3-.8 3.2-1.5 4.2-1.5zm-20.7 13c1.3 0 3.3.4 4.4 1 1.1.6 2.8 3.1 3.7 5.8.9 2.6 6.1 16 11.5 29.7 5.7 14.5 9.8 26.5 9.8 28.5.1 2-.7 4.3-1.7 5.3s-3.1 1.8-4.8 1.8c-1.9 0-3.8-.8-5.2-2.3-1.2-1.3-6.4-13.7-11.6-27.8-5.2-14-10-27.3-10.6-29.5-.6-2.2-1.2-5.1-1.3-6.4-.1-1.4.7-3.3 1.7-4.3s2.9-1.8 4.1-1.8zm783.8 20c1.2-.1 2.9.7 3.9 1.7s1.8 3.2 1.8 4.8c.1 1.9-4.8 12.8-13 29.3-9 18-14 26.8-15.8 28.2-1.6 1.2-3.8 2.1-5 2-1.3 0-3.2-.9-4.3-2-1.2-1.2-2-3.3-2-5.2 0-2.3 3.7-10.1 11.3-24.3 6.1-11.6 12.3-23.2 13.7-25.9 1.4-2.7 3.6-5.7 4.9-6.7 1.3-1.1 3.3-1.9 4.5-1.9zm20.2 12c1.1 0 2.9.7 4.2 1.5 1.6 1.1 2.2 2.5 2.2 5 0 2.3-3.9 12.3-11.5 29.3-6.3 14.1-12.3 26.8-13.3 28.2-1.1 1.4-3 3.1-4.3 3.9-2.1 1.2-2.8 1.2-5.3 0-1.7-.8-3.3-2.6-3.8-4.1-.6-2.3.1-4.7 3.6-12.5 2.5-5.4 8.3-17.9 13-27.8 4.7-9.9 9.6-19.2 10.9-20.7 1.4-1.6 3.3-2.8 4.3-2.8zm-275.1 62.1c2.2-.1 5 .6 6.3 1.4 1.3.9 2.2 2.5 2.2 4 0 1.4-.4 3.4-1 4.5-.5 1.1-2.7 2.4-4.7 2.9-2.1.6-9.9 1.7-17.3 2.5s-18.7 1.8-25 2.1c-7.5.5-13.4 1.4-17 2.7-3 1.1-6.5 1.7-7.7 1.4-1.3-.3-2.7-1.5-3.3-2.6-.5-1.1-.7-3.2-.2-4.7.5-2 2.2-3.4 6.7-5.5 5.2-2.5 8.6-3.1 26.5-4.8 11.3-1.1 22.8-2.4 25.5-2.9 2.8-.5 6.8-.9 9-1zm-318.5 33.6c14.6.4 27.6.9 29 1.3 1.4.4 3.4 1.9 4.5 3.3 1.7 2.3 1.8 3 .8 5.2-.7 1.4-2.5 3-4 3.6-2 .8-7.5.9-18.3.3-8.5-.4-22.4-.8-30.8-.8-14.2-.1-15.5-.3-16.8-2.1-.8-1.1-1.4-2.9-1.4-4-.1-1.1.7-2.8 1.7-3.8 1-.9 3.4-2.1 5.3-2.6s15.4-.7 30-.4zm-14.5 149.4c3.9 0 8.8.5 11 1.1 2.7.8 6.4 3.5 18.4 15.3l-.3 12c-.2 10-.6 12.7-2.3 16-1.2 2.2-3.6 5.4-5.5 7.2-1.8 1.8-5.5 4.2-8.3 5.5-3.8 1.7-6.8 2.3-12.5 2.3-5.4 0-8.7-.6-12-2.1-2.5-1.1-6.1-3.4-8-5.1-1.9-1.7-4.6-5.2-5.9-7.9-1.4-2.7-2.7-7.3-2.9-10.4-.2-3 .1-8.2.8-11.5.7-3.3 2.5-8 4.1-10.5 1.5-2.5 4.3-5.6 6.1-6.9 1.8-1.4 4.9-3 6.8-3.7 1.9-.7 6.7-1.3 10.5-1.3zm2 26.4c.8 1.4 3.5 3.5 6 4.7 2.4 1.3 4.8 2 5.2 1.6.4-.5.1-2.2-.7-4-.8-1.7-2.8-4-4.5-5-1.6-1-3.8-1.8-4.7-1.8-.9 0-1.9.5-2.3 1-.3.5.2 2.1 1 3.5zm308.5-2.4c2.5-.1 6.8.7 9.5 1.6 3 1.1 7.1 3.7 10.4 6.8 2.9 2.7 5.8 5.9 6.4 7 .5 1.1 1.2 5.4 1.4 9.5.3 4.1.4 9.3.3 11.5-.1 2.2-1.3 6.1-2.8 8.9-1.5 2.6-4.5 6.1-6.7 7.8-2.2 1.6-6.5 3.6-9.5 4.5-3.5 1-7.5 1.4-11 1.1-3-.3-7.7-1.5-10.5-2.7-2.7-1.2-6.7-3.9-8.8-5.9-2.1-2-4.8-5.5-6-7.7-1.6-3.1-2.2-5.8-2.2-11.5 0-7 .3-8.1 4.3-15.3 3.7-6.7 4.9-8 9.5-10.4 2.8-1.6 6.6-3.3 8.2-4 1.7-.6 5-1.2 7.5-1.2zm8 30.9c1.1.5 2.5 1 3 1 .6 0 1-.7 1-1.5s-1.1-2.6-2.5-4-3.4-2.5-4.5-2.5c-2 0-2 .1-.5 3 .8 1.6 2.4 3.5 3.5 4zm-186 60c1.9 0 7.4.7 12.3 1.5 4.8.8 11.1 2.4 14 3.4 3.4 1.3 6.8 3.7 9.8 6.8 3.2 3.4 5.1 6.5 6.3 10.3.9 3 1.6 7.4 1.6 9.8 0 2.3-.9 7-2.1 10.4-1.2 3.5-3.1 7.6-4.3 9.1-1.1 1.5-5.1 6.3-8.7 10.5-3.6 4.2-7.8 8.7-9.5 10-1.6 1.2-3.3 2.2-3.9 2.2-.5-.1-1.5.5-2.1 1.2-.7.7-1.5 5.6-2.6 20.3l3.6 1.7c2.7 1.4 6.1 1.8 13.9 1.8 6.8 0 12-.6 15.8-1.8 3-.9 7.2-3.2 9.2-5 2-1.7 4.7-3.2 6-3.2 1.2 0 3.2.7 4.5 1.5 1.3.9 2.2 2.5 2.2 4 0 1.6-1.7 4.4-4.7 7.6-2.8 3-6.9 6.1-9.8 7.4-2.7 1.2-7.4 2.7-10.2 3.3-2.9.7-7.4 1.2-10 1.2-2.7 0-8.3-.9-12.5-2-4.3-1.1-9.1-2.7-10.8-3.5-1.6-.8-3.6-1.5-4.2-1.5-.7.1-3.8 2.4-6.8 5.3-3.1 2.9-8.5 6.7-12 8.6-6.4 3.4-6.6 3.4-16 2.8-7.1-.5-9.9-1.1-11.3-2.4-1-1-1.7-2.7-1.7-3.8 0-1.1.4-2.5.8-3.1.4-.6 1.7-1.6 3-2.3 1.3-.6 4.3-.9 7.5-.5 4.6.5 6 .1 12.2-3 3.9-1.9 9-5.5 11.5-7.9 4.4-4.3 4.5-4.6 5.3-12.8.4-4.6 1-10.2 2-16.4l-7.7-5.8c-5.5-4.2-8.2-7-10-10.5-1.3-2.6-3.4-7.8-4.6-11.7-1.7-5-2.4-9.3-2.4-15 .1-6.3.6-9.1 2.5-13.5 1.4-3.1 4-6.7 6-8.2 1.8-1.5 5.9-3.6 8.9-4.7s7.1-2 9-2.1zm17.5 50.5c-3.3 2-6.8 4.7-7.7 6-1.5 2-1.6 2.8-.5 4 .6.8 3.2 1.8 5.7 2.1 3.5.4 5.6 0 9.5-1.8 3.1-1.4 5.1-3.1 5.3-4.3.2-1.1 1.5-2.9 2.8-4 2-1.6 2.4-3.1 2.6-8 .2-4.6 0-6-1.2-6.2-.9-.2-3.6 1.7-6 4.2-2.5 2.5-7.2 6.1-10.5 8zM438.1 916c2.9 0 20.5 2.5 39.2 5.5 18.7 3.1 35.7 6 37.8 6.5 2 .6 4.2 1.9 4.7 3 .6 1.1 1 3.1 1 4.5 0 1.5-.9 3.1-2.2 4-1.3.8-3.6 1.5-5.3 1.5-1.6 0-19.2-2.3-39-5-19.8-2.8-37.5-5.5-39.2-6-2.1-.6-3.9-2.1-4.8-4-.8-1.6-1.5-3.4-1.6-3.9-.1-.4.9-2 2.1-3.5 1.8-2.2 2.9-2.6 7.3-2.6zm143 24c1.5 0 5.9 1.6 9.7 3.5 3.9 1.9 8.9 5.2 11.2 7.2 2.2 2.1 4.9 5.7 6 8 1.1 2.7 2.9 4.9 4.8 5.8 2 1 3.3 2.6 3.8 4.7.6 2.1.5 4.4-.2 6.2-.6 1.6-3.1 4.7-5.6 6.9-2.5 2.1-7.6 5.4-11.5 7.3-5.7 2.8-8.1 3.4-13 3.4-4.1 0-7.6-.7-11-2.4-2.7-1.2-6.8-4.3-9.1-6.7-2.4-2.6-4.8-6.6-5.9-9.9-1.3-4-1.7-7.5-1.3-13 .3-5.7 1-8.6 3-12 1.6-2.9 3.8-5.1 6.2-6.3 2-.9 4.3-1.5 5.1-1.2.8.3 2.3.1 3.3-.5.9-.5 2.9-1 4.5-1zm-2.8 20.7c-.3 1-.1 3.2.4 4.8.6 1.7 2.2 3.6 3.8 4.3 1.5.8 3.7 1.1 4.8.8 1.1-.3 3-1.6 4.3-2.8 1.8-1.8 2.1-2.7 1.4-4.3-.5-1.1-3-3.2-5.6-4.8-2.5-1.5-5.3-2.7-6.1-2.7-.9 0-1.8.7-2 1.5-.3.8-.7 2.3-1 3.2zm-73-3.2c5 .2 6.3.6 7.8 2.6 1 1.3 1.7 3.5 1.5 4.8-.2 1.3-1.4 3.3-2.8 4.3-2.2 1.7-6.2 2-36 3.4-30.6 1.5-33.8 1.5-36.7 0-1.8-.9-3.6-2.6-3.9-3.9-.3-1.2-.4-3.1-.2-4.1.1-1 1.4-2.7 2.8-3.7 2.2-1.7 5.7-2 32-2.8 16.2-.5 32.2-.8 35.5-.6zm798.3 32.6c4-.1 5.7.4 7.2 1.9 1.3 1.3 1.9 3.1 1.8 5.2-.2 2.1-1.2 3.8-3.1 5.2-2.3 1.7-8.4 3-30 6.3-15 2.3-31 4.5-35.7 4.9-7.5.6-8.7.4-10.3-1.2-1.1-1.2-1.7-3.1-1.5-4.8.2-1.7 1.3-3.7 2.8-4.8 1.8-1.3 11.4-3.4 33-7.2 16.8-3 32.9-5.4 35.8-5.5zm-127.5 7c2.9-.1 4.1.5 5.8 2.6 1.2 1.6 4.7 4.3 7.8 6.1 3.1 1.8 6.7 4.3 7.9 5.5 1.3 1.2 3.3 3.9 4.3 5.9 1 2.1 1.9 5.5 1.9 7.5 0 2.1-1 5.8-2.1 8.3-1.1 2.5-3.2 5.8-4.7 7.3-1.5 1.6-4.8 4-7.4 5.3-3.4 1.7-6.5 2.4-10.3 2.4-3 0-7.2-.7-9.2-1.6-2.1-.8-5.3-2.9-7.1-4.7-1.9-1.8-4.2-4.9-5.3-7-1-2-2.2-5.6-2.5-8-.4-2.3-.2-6.5.5-9.2.6-2.8 2.3-6.8 3.9-9 1.5-2.2 3.3-5.2 4-6.8.7-1.7 2.2-2.9 4-3.3 1.5-.3 3.2-.7 3.7-.9.6-.2 2.7-.4 4.8-.4zm-6.4 26.3c.1 3.5.7 5.2 2.6 7.1 1.6 1.6 3.6 2.5 5.5 2.5 1.7 0 4.2-.6 5.8-1.4 1.5-.7 3.3-2.7 4-4.2 1.1-2.5 1-3.1-.5-4.8-1-1-4-3.1-6.8-4.7-2.7-1.6-5.8-2.9-6.7-2.9-1 0-2.2.9-2.9 1.9-.6 1.1-1 4-1 6.5zm140.1-2.6c1.4.3 3.5 1.1 4.8 1.8 1.2.8 2.4 2.3 2.7 3.4.3 1.1-.1 3.2-.8 4.7-.8 1.8-2.5 3.2-4.7 3.9-2 .7-15.6 1.5-32.5 2-26.4.7-29.3.6-31.7-.9-2.2-1.3-2.8-2.5-2.8-5.2 0-2.5.6-3.9 2.3-5 1.6-1.2 8-1.9 25.2-3 12.7-.8 25.7-1.6 29-1.8 3.3-.1 7.1-.1 8.5.1z" style="fill:#000"/>
</svg>
