<svg version="1.2" xmlns="http://www.w3.org/2000/svg" viewBox="0 0 200 249" width="200" height="249"><style></style><path fill-rule="evenodd" d="m74.8 0.1c3.7 0 7.7 0.1 8.9 0.3 1.2 0.1 3.2 0.3 4.5 0.5 1.3 0.3 3.8 0.8 5.6 1.3 1.8 0.4 4 1.1 5 1.5 1 0.3 2.6 1 3.7 1.5 1.1 0.5 3.4 1.8 5.2 2.8 1.8 1 4.4 2.7 5.7 3.6 1.3 1 3 2.2 3.8 2.8 0.7 0.5 2.4 1.6 3.7 2.4 1.3 0.8 3.9 2.2 5.7 3.1 1.8 0.9 4.5 2.1 5.9 2.6 1.3 0.5 3.4 1.2 4.6 1.7 1.2 0.4 3.7 1.4 5.5 2.2 1.8 0.9 4 1.9 4.8 2.3 0.9 0.4 2.8 1.5 4.3 2.4 1.6 0.9 3.8 2.3 5 3.1 1.1 0.8 4.1 2.9 6.6 4.7 3.8 2.9 4.9 3.8 8 6.9 2.3 2.3 4.3 4.5 5.6 6.3 1.1 1.5 2.8 3.8 3.7 5.3 0.9 1.4 2.2 3.7 2.9 5 0.7 1.3 1.5 3 1.8 3.8 0.3 0.8 1.1 2.8 1.8 4.6 0.7 1.7 1.4 3.8 1.7 4.5 0.2 0.8 1 3.3 1.7 5.6 0.8 2.3 1.7 5.6 2.1 7.3 0.5 1.8 1 3.9 1.2 4.9 0.2 0.9 0.6 2.6 0.9 3.7 0.2 1.1 0.6 3.1 0.9 4.4 0.3 1.2 0.7 3.7 1.1 5.4 0.3 1.8 0.7 4 0.9 5.1 0.2 1 0.5 3.2 0.8 5 0.3 1.7 0.6 4.7 0.8 6.5 0.3 1.8 0.5 5 0.6 7.1 0.1 2 0.2 5.4 0.1 7.6-0.1 2.1-0.2 5.8-0.4 8.2-0.1 2.3-0.4 6.3-0.7 8.7-0.3 2.5-0.7 5.6-0.9 7-0.3 1.4-0.7 3.5-1 4.6-0.2 1.2-0.9 3.8-1.5 5.8-0.5 2-1.2 4.5-1.4 5.6-0.3 1.1-0.9 3-1.3 4.3-0.4 1.2-1.1 3.2-1.6 4.4-0.4 1.2-1.3 3.3-1.8 4.7-0.5 1.3-1.3 3.5-1.8 4.7-0.4 1.2-1.5 3.8-2.5 5.8-0.9 1.9-2.4 4.6-3.3 5.9-0.8 1.4-2.1 3.2-2.8 4.1-0.7 0.9-2.2 2.7-3.3 3.9-1.1 1.2-2.8 3.1-3.9 4-1.1 1-2.4 2.2-3 2.6-0.5 0.5-1.5 1.3-2.1 1.7-0.6 0.5-1.9 1.4-2.8 2-0.9 0.6-2.9 1.9-4.5 2.8-1.5 0.9-4.1 2.3-5.7 3.2-1.7 0.8-3.9 1.8-5 2.3-1.2 0.5-3 1.2-4 1.6-1.1 0.4-3.2 1-4.6 1.4-1.4 0.5-3.1 0.9-3.8 1.1-0.7 0.1-2.5 0.4-4 0.6-1.5 0.3-3.6 0.4-4.7 0.4-1.1 0-3.8-0.2-5.9-0.4-2.2-0.3-4.6-0.6-5.3-0.6-0.8-0.1-1.5-0.3-1.7-0.3-0.2-0.1-0.7 0.2-1.5 0.8-0.7 0.5-2.2 1.5-3.5 2.2-1.3 0.7-2.9 1.6-3.6 2-0.7 0.3-1.9 0.9-2.7 1.2-0.8 0.3-2.4 0.9-3.6 1.3-1.2 0.4-3 0.9-4.1 1.2-1.1 0.2-2.9 0.6-4.2 0.9-1.2 0.2-2.8 0.5-3.5 0.6-0.7 0.1-2.8 0.4-4.7 0.5-2.3 0.2-4.2 0.3-5.6 0.2-1.2 0-2.9-0.2-3.7-0.3-0.9-0.1-2.8-0.4-4.1-0.6-1.4-0.3-4-1-5.8-1.6-1.8-0.6-4.4-1.5-5.7-2-1.3-0.6-3.4-1.5-4.6-2.2-1.3-0.6-3-1.5-3.9-2-1-0.6-2.5-1.6-3.4-2.3-0.9-0.7-2.8-2.2-4.1-3.3-1.3-1.2-2.9-2.7-3.6-3.4-0.7-0.7-1.9-2.1-2.7-3.1-0.8-1-2.1-2.8-2.9-3.8-0.8-1.1-1.8-2.7-2.3-3.7-0.5-0.9-1.4-2.4-1.8-3.3-0.5-0.9-1.3-2.9-1.9-4.3-0.6-1.4-1.3-3.4-1.6-4.4-0.3-1.1-0.7-2.9-1-4.2-0.3-1.3-0.6-3.6-0.7-5.1-0.1-1.6-0.2-3-0.3-3.3 0-0.2-0.2-0.4-0.3-0.4-0.1 0-0.5-0.2-0.8-0.6-0.3-0.3-1.1-1.4-1.7-2.3-0.5-1-2-3.9-3.3-6.4-1.3-2.5-3.1-6.2-4-8.2-1-2.1-2.3-5.3-3.1-7.1-0.7-1.9-1.7-4.5-2.2-6-0.4-1.4-1.2-3.9-1.6-5.4-0.4-1.6-1.1-5.1-1.7-7.7-0.5-2.6-1.4-6.9-1.9-9.6-0.6-2.8-1.2-5.8-1.4-6.9-0.2-1.1-0.5-3-0.7-4.2-0.1-1.2-0.3-3.2-0.4-4.5-0.1-1.2-0.3-3.4-0.3-4.9-0.1-1.5 0-4.2 0.1-6 0.1-1.9 0.4-4.6 0.6-6 0.2-1.4 0.5-3.4 0.7-4.5 0.2-1 0.6-2.8 0.9-4 0.3-1.1 1-3.2 1.5-4.6 0.5-1.4 1.2-3.2 1.5-4 0.3-0.8 1.3-2.9 2.2-4.6 0.8-1.6 1.5-3.2 1.5-3.3 0-0.2 0.2-0.7 0.4-1.1 0.3-0.5 1.2-1.7 2.1-2.8 0.8-1.1 2.1-2.8 2.8-3.8 0.7-1 1.2-1.8 1.2-1.9 0 0-0.7-0.3-1.5-0.6-0.9-0.2-2.2-0.7-3.1-1.1-0.9-0.4-2.1-1-2.7-1.4-0.6-0.3-1.8-1.3-2.5-2.1-0.8-0.8-1.7-2.1-2.1-2.7-0.4-0.7-0.9-1.8-1.2-2.6-0.2-0.7-0.5-2.1-0.7-3.1-0.1-1.3-0.1-2.2 0-4.1 0.1-1.4 0.4-3.4 0.6-4.4 0.2-1 0.7-2.9 1.1-4.1 0.4-1.2 1.2-3.3 1.7-4.6 0.5-1.4 1.5-3.7 2.2-5.2 0.7-1.5 1.4-3 1.4-3.3 0.1-0.4 0.5-1.5 1-2.6 0.4-1.1 1.3-2.9 1.9-4 0.7-1.1 1.7-2.8 2.2-3.6 0.6-0.9 1.8-2.5 2.7-3.7 1-1.1 2-2.3 2.3-2.7 0.3-0.3 1-1.1 1.6-1.7 0.5-0.6 1.8-1.8 2.8-2.7 1.1-0.9 2.6-2.1 3.4-2.7 0.8-0.7 2-1.5 2.7-2 0.7-0.5 1.9-1.3 2.8-1.8 0.9-0.5 2.2-1.3 3.1-1.7 0.8-0.4 2.4-1.1 3.6-1.5 1.2-0.5 2.9-1.1 3.8-1.4 0.9-0.4 2.9-0.9 4.4-1.3 1.5-0.3 3.8-0.8 5.3-1 1.4-0.2 3.7-0.5 5.2-0.7 1.4-0.1 4.3-0.3 6.4-0.4 2.1-0.2 3.9-0.3 3.9-0.3 0.1-0.1 3.2-0.1 6.9 0zm-16.2 4.3c-1.3 0.2-3.3 0.4-4.5 0.6-1.1 0.1-3 0.4-4.1 0.7-1.2 0.2-2.7 0.6-3.5 0.8-0.8 0.2-2.2 0.7-3.2 1-1.1 0.3-2.6 0.9-3.6 1.3-0.9 0.4-2.5 1.2-3.6 1.7-1.1 0.6-2.9 1.7-4.1 2.4-1.2 0.8-2.5 1.7-2.9 2.1-0.4 0.2-1.5 1.1-2.4 1.9-0.9 0.8-2.3 2-3.1 2.8-0.7 0.8-2.4 2.6-3.6 4.1-1.2 1.5-2.5 3.1-2.9 3.6-0.4 0.5-1 1.5-1.4 2.2-0.4 0.6-0.9 1.5-1 2-0.1 0.5-1.2 2.9-2.3 5.3-1.1 2.5-2.7 6.1-3.5 8.1-0.8 2.1-1.7 4.7-2.1 5.8-0.3 1.2-0.8 2.9-0.9 3.9-0.2 1.1-0.4 2.8-0.4 4.4 0 2.2 0.1 3 0.3 3.8 0.2 0.7 0.6 1.5 0.8 2 0.2 0.5 0.7 1.2 1.2 1.8 0.6 0.8 0.8 1 2.8 1.7 1.2 0.4 2.5 0.9 3 1 0.4 0.1 1.6 0.1 2.5 0.1 0.9 0 2.2-0.1 2.8-0.2 0.6-0.2 1.8-0.7 2.8-1.1 0.9-0.5 2.4-1.4 3.3-2.1 1-0.7 3-2.4 4.6-3.7 1.6-1.4 4.1-3.6 5.7-5 1.5-1.4 3.4-3.2 4.2-3.8 0.9-0.7 2.2-1.8 3.1-2.4 0.9-0.6 2.9-1.7 4.6-2.5 1.6-0.8 3.8-1.8 4.8-2.2 1-0.4 2.6-0.9 3.4-1.2 1.1-0.3 2.2-0.6 3.4-0.6 1.5-0.1 1.9-0.1 2.6 0.3 0.5 0.2 0.9 0.6 1.1 0.8 0.1 0.3 0.2 0.7 0.2 0.9 0 0.2-0.2 0.6-0.5 0.9-0.6 0.6-0.6 0.7-2.2 0.7-0.9 0-2.2 0.2-2.8 0.3-0.6 0.2-2 0.7-3.1 1.1-1 0.4-3.2 1.3-4.8 2.1-1.6 0.8-3.4 1.7-4 2.1-0.6 0.4-1.7 1.2-2.5 1.8-0.8 0.6-3.1 2.6-5.1 4.5-2.1 1.8-4.5 4-5.5 4.8-1 0.8-2.7 2.6-3.8 3.8-1.1 1.3-4.1 4.4-6.6 6.9-2.4 2.5-5 5.2-5.7 6-0.7 0.8-1.7 2.1-2.2 2.7-0.4 0.7-1.6 2.7-2.6 4.6-1 1.8-2.2 4.3-2.6 5.6-0.5 1.2-1.2 3-1.6 4.1-0.3 1-0.9 2.9-1.2 4.2-0.4 1.3-0.8 3.5-1 4.7-0.2 1.2-0.5 3.3-0.7 4.5-0.2 1.3-0.3 3.6-0.4 5.1-0.1 1.4 0 4.4 0.1 6.6 0.1 2.1 0.4 5.4 0.7 7.2 0.2 1.8 0.7 4.6 1 6.1 0.3 1.4 0.8 4.1 1.2 5.8 0.4 1.7 1.1 5.4 1.7 8.2 0.5 2.7 1.3 6.2 1.6 7.6 0.4 1.4 1.1 3.8 1.6 5.3 0.5 1.5 1.4 4 2 5.5 0.6 1.5 1.8 4.3 2.7 6.1 0.8 1.9 2.6 5.5 3.9 8.1 1.3 2.6 2.5 5.1 2.7 5.4l0.4 0.7c0.3-4.8 0.6-8.4 0.8-11.2 0.2-3.5 0.3-7 0.3-11.6 0-3.8-0.1-8.1-0.2-10.1-0.2-1.8-0.5-5-0.7-7-0.2-2-0.5-4.7-0.6-6.1-0.2-1.3-0.4-3.6-0.6-5.2-0.1-1.5-0.3-4.1-0.4-5.7-0.2-1.7-0.3-4.4-0.4-6.2-0.1-1.7-0.1-5.1-0.2-7.5 0-2.4 0.1-6.2 0.2-8.5 0.1-2.2 0.3-5.5 0.4-7.2 0.2-1.8 0.4-3.8 0.5-4.7 0.1-0.8 0.4-2.6 0.7-4 0.2-1.3 0.8-3.7 1.2-5.3 0.4-1.5 1-3.6 1.4-4.6 0.3-1 1-2.7 1.5-3.7 0.6-1.1 1.5-2.6 2.1-3.6 0.6-0.9 1.7-2.4 2.6-3.3 1-1.1 1.7-1.8 2.2-1.9 0.5-0.2 1.3-0.2 2.6-0.2 1.5 0.1 2.5 0.2 3.9 0.7 1 0.3 2.4 0.8 3.2 1.1 0.8 0.3 2.9 1.2 4.7 1.9 1.7 0.8 4.3 2.1 5.7 2.9 1.4 0.8 2.9 1.7 3.4 2 0.4 0.4 1.4 0.9 2.1 1.2 0.7 0.3 1.9 0.7 2.6 0.9 0.7 0.1 2.1 0.3 3.1 0.3 1 0.1 3.4 0.1 5.5-0.1 2-0.1 4.9-0.3 6.3-0.5 1.4-0.1 5.1-0.5 8.1-0.9 3-0.3 7.9-0.9 10.9-1.2 3-0.3 7.3-0.8 9.7-1.1 2.3-0.3 4.9-0.7 5.8-0.9 0.9-0.1 2.1-0.3 2.8-0.5 0.7-0.2 1.9-0.5 2.8-0.8 0.9-0.2 2.1-0.7 2.8-1.1 0.7-0.3 1.9-1.1 2.7-1.7 0.8-0.6 2.1-1.7 2.8-2.5 0.8-0.7 1.8-1.8 2.2-2.4 0.4-0.5 2.1-3 3.7-5.4 1.6-2.5 3.5-5.7 4.4-7.1 0.9-1.4 2-3.3 2.6-4.2 0.6-0.9 1.5-2 2-2.4 0.5-0.5 1.4-1.1 1.9-1.4 0.8-0.4 1.4-0.5 2.6-0.6 1.2-0.1 1.9 0 3.1 0.3 0.8 0.2 2 0.7 2.7 1 0.7 0.4 1.9 1.1 2.9 1.7 0.9 0.6 2.4 1.9 3.4 2.8 0.9 0.9 2.4 2.5 3.3 3.5 0.9 1 2.3 2.8 3.1 3.9 0.8 1.1 2.2 3 2.9 4.4 0.8 1.3 2.2 3.7 3 5.4 0.9 1.7 2.3 4.7 3.2 6.7 0.9 2 2.4 5.3 3.2 7.3 0.8 1.9 1.8 4.8 2.3 6.4 0.5 1.5 1.4 4.4 2 6.4 0.5 2 1.4 5.1 1.8 7 0.5 1.8 1.2 5 1.6 7 0.4 2.1 1.1 5.8 1.5 8.2 0.4 2.5 0.9 5.5 1 6.7 0.2 1.2 0.4 3.4 0.6 4.9 0.1 1.5 0.5 4.5 0.7 6.6 0.3 2.2 0.7 5.8 1 8 0.2 2.3 0.4 4.9 0.4 5.9 0 1 0.2 2.7 0.3 3.7 0.1 1 0.4 3.3 0.6 5.1 0.3 1.9 0.6 5.2 0.7 7.3 0.2 2.2 0.3 4.5 0.3 5 0 0.7 0.1 1 0.1 0.9 0.1-0.1 0.6-1.6 1.1-3.3 0.5-1.8 1-4.1 1.3-5.1 0.3-1.1 0.7-3.1 0.9-4.5 0.3-1.3 0.7-4.9 1.1-7.9 0.3-2.9 0.6-6.9 0.7-8.7 0.1-1.9 0.2-5.1 0.3-7.2 0.1-2.1 0-5.5-0.1-7.6-0.1-2.1-0.5-5.9-0.8-8.4-0.3-2.5-0.8-6-1.1-7.7-0.3-1.8-0.7-4-0.9-5.1-0.2-1.1-0.6-3.1-0.8-4.5-0.3-1.4-0.8-3.7-1.1-5.2-0.3-1.5-0.9-4.1-1.3-5.8-0.4-1.7-1-4.2-1.4-5.5-0.3-1.4-1.2-4.3-1.9-6.5-0.6-2.1-1.3-4.4-1.5-5-0.2-0.6-1.1-2.9-2-5.2-0.8-2.2-2-5-2.6-6.1-0.5-1.1-1.8-3.4-2.7-5-1-1.7-2.7-4.1-3.7-5.4-1.1-1.4-3.4-4-5.4-6-2.9-3-4.3-4.2-7.4-6.5-2.1-1.6-5-3.8-6.5-4.8-1.5-0.9-3.9-2.5-5.4-3.4-1.4-0.8-3.2-1.8-3.9-2.2-0.7-0.3-2.8-1.3-4.7-2.1-1.9-0.8-5.2-2.1-7.3-2.9-2.2-0.8-5-1.9-6.3-2.5-1.2-0.5-3.4-1.6-4.7-2.3-1.3-0.7-3.4-1.9-4.6-2.6-1.1-0.8-3.2-2.2-4.6-3.2-1.4-1.1-3-2.2-3.6-2.7-0.7-0.4-2.4-1.5-3.9-2.3-1.6-0.9-3.4-1.9-4.1-2.3-0.7-0.4-2.1-1-3.1-1.4-1-0.4-3.1-1.1-4.5-1.5-1.5-0.4-3.7-0.9-4.9-1.2-1.2-0.2-3-0.5-4-0.6-1-0.1-3-0.3-4.5-0.4-1.5-0.1-4.6-0.2-6.9-0.1-2.4 0-6.3 0.1-8.7 0.2-2.4 0.1-5.4 0.3-6.7 0.4zm84.5 48.7c-0.2 0.2-0.8 0.9-1.2 1.5-0.5 0.6-1.7 2.6-2.9 4.5-1.1 1.9-3.1 5.1-4.3 7-1.3 2-2.7 4.1-3.2 4.8-0.4 0.6-1.3 1.7-1.9 2.5-0.6 0.7-1.9 1.9-2.8 2.6-0.9 0.8-2.4 1.9-3.4 2.5-0.9 0.6-2.3 1.4-3.1 1.7-0.8 0.3-2.8 0.9-4.3 1.3-1.5 0.3-4 0.8-5.5 1-1.5 0.3-4.1 0.6-5.8 0.8-1.6 0.2-5.3 0.6-8 0.9-2.8 0.3-5.6 0.6-6.4 0.7-0.7 0-1.9 0.2-2.6 0.3-0.7 0.1-2.8 0.3-4.5 0.5-1.8 0.2-4.4 0.5-5.8 0.7-1.4 0.1-4.3 0.3-6.5 0.4-3 0.2-4.6 0.2-6.3 0.1-1.3-0.1-3-0.4-3.8-0.6-0.7-0.2-1.9-0.6-2.7-0.9-0.7-0.4-2.2-1.2-3.4-1.9-1.2-0.7-3.4-1.9-5-2.6-1.6-0.8-3.5-1.6-4.3-1.9-0.8-0.3-2.4-0.7-3.5-1-1.7-0.4-2.7-0.5-4.6-0.5-2.4 0-2.4 0-3.3 0.5-0.7 0.4-1.2 0.9-1.8 1.9-0.5 0.7-1.1 1.9-1.5 2.8-0.4 0.8-1 2.3-1.4 3.3-0.4 1-0.9 2.8-1.2 4-0.3 1.2-0.8 3.4-1.1 4.8-0.3 1.5-0.7 3.8-0.8 5.1-0.2 1.2-0.5 4-0.6 6-0.2 2-0.4 6-0.4 8.8-0.1 3 0 7.4 0.1 10.7 0.1 3.1 0.3 7.1 0.5 8.9 0.1 1.7 0.5 5.3 0.7 7.8 0.3 2.5 0.5 4.8 0.6 5.1 0 0.3 0.1 1.4 0.2 2.4 0.2 1 0.4 4 0.6 6.6 0.2 2.6 0.4 5.3 0.4 6 0 0.8 0.1 1.2 0.3 1.4 0.2 0.1 1.5 0.9 2.8 1.6 1.4 0.8 3.9 2 5.4 2.8 1.6 0.8 4.3 1.9 6 2.6 1.7 0.7 4.5 1.7 6.3 2.3 1.8 0.6 4.8 1.5 6.6 2 1.9 0.4 4.8 1.1 6.6 1.5 1.8 0.3 4.5 0.8 5.9 1 1.4 0.2 4.1 0.5 5.9 0.6 1.9 0.2 5.2 0.4 7.3 0.5 2.1 0.1 5.1 0.2 6.5 0.2 1.4 0 2.9 0 3.3-0.1 0.5-0.1 0.7-0.3 1.2-1.2 0.4-0.5 1.1-1.4 1.6-2 0.5-0.5 1.5-1.2 2.2-1.5 0.9-0.5 1.4-0.6 2.3-0.6 0.7 0 1.4 0.1 1.7 0.3 0.3 0.1 0.7 0.4 0.9 0.6 0.1 0.2 0.4 0.6 0.5 0.9l0.2 0.5c0.4-1.1 0.6-1.6 0.7-1.9 0.1-0.2 0.5-0.5 0.8-0.6 0.6-0.1 0.8-0.1 1.4 0.2 0.3 0.1 0.7 0.5 0.8 0.7 0 0.2 0.1 1.4 0.1 2.8 0 2.1 0 2.5 0.4 3.3 0.3 0.5 0.6 1.1 0.8 1.4 0.3 0.2 0.5 0.4 0.6 0.4 0.1 0 0.4-0.5 0.6-1 0.2-0.7 0.4-1.7 0.4-4.1 0.1-2.4 0.3-3.4 0.5-3.8 0.1-0.3 0.5-0.7 0.8-0.9 0.2-0.1 0.7-0.3 1-0.3 0.3 0 0.7 0.1 0.9 0.2 0.2 0.1 0.5 0.5 0.7 0.8 0.3 0.5 0.3 1 0.2 3.9q-0.1 3.2-0.5 4.5c-0.1 0.7-0.6 1.8-0.9 2.3-0.3 0.6-0.8 1.3-1.1 1.5-0.4 0.3-1 0.7-1.4 0.8-0.5 0.1-1.1 0.1-1.5 0.1-0.4-0.1-1-0.3-1.3-0.4-0.3-0.2-0.9-0.6-1.3-1l-0.8-0.8c-0.4 1.7-0.5 2.5-0.4 3.9 0.2 1.9 0.1 2-0.3 2.4-0.2 0.2-0.7 0.5-1 0.5-0.3 0.1-0.7 0-1.1-0.1-0.3-0.2-0.6-0.6-0.8-1.1-0.2-0.4-0.4-1-0.4-1.3 0-0.5 0-0.6-0.6-0.4-0.3 0.1-1.2 0.1-1.9 0.1-0.7 0-1.6-0.1-2.1-0.2-0.5-0.2-1.2-0.6-1.8-1.2-0.8-0.7-1.3-1.4-1.7-2.3l-0.5-1.2c-2.6 0-5.1-0.1-7.3-0.2-2.1-0.1-5.2-0.3-6.8-0.5-1.6-0.1-4-0.4-5.4-0.6-1.3-0.2-3.7-0.6-5.1-0.9-1.4-0.2-3.9-0.7-5.6-1.1-1.6-0.3-5.3-1.3-8.1-2.1-2.8-0.8-6.1-1.7-7.3-2-1.2-0.4-3-0.9-3.9-1.2-0.9-0.4-2.7-1.1-3.9-1.7-1.3-0.5-3.8-1.9-5.6-3.1-1.9-1.1-3.5-2-3.6-2-0.1 0-0.2 2-0.3 4.5 0 2.5-0.3 7.3-0.6 10.8-0.2 3.5-0.4 7.7-0.4 9.4 0 1.7 0.1 4.1 0.1 5.5 0.2 1.3 0.4 3.4 0.6 4.7 0.2 1.2 0.5 2.9 0.8 3.7 0.2 0.8 0.6 2.2 0.9 3.1 0.3 0.9 0.9 2.4 1.2 3.2 0.4 0.9 1.2 2.7 1.9 4.1 0.7 1.4 1.8 3.3 2.4 4.2 0.6 1 1.9 2.7 2.9 3.9 0.9 1.3 2.1 2.8 2.7 3.4 0.6 0.7 2 2 3.1 3 1.1 1 2.8 2.4 3.7 3.2 0.9 0.7 2.4 1.8 3.3 2.4 0.9 0.5 2.7 1.5 4 2.2 1.2 0.6 3.6 1.7 5.3 2.4 1.7 0.6 4 1.5 5.2 1.9 1.2 0.3 3 0.8 4.1 1.1 1.1 0.2 2.9 0.5 4.1 0.7 1.2 0.2 3.5 0.3 5.1 0.3 1.5 0 3.9-0.1 5.3-0.2 1.4-0.1 3.7-0.4 5-0.6 1.4-0.3 3.4-0.7 4.4-0.9 1-0.2 2.8-0.7 4-1 1.1-0.4 2.8-0.9 3.8-1.3 0.9-0.4 2.4-1.1 3.3-1.5 0.8-0.4 2.5-1.3 3.7-2 1.2-0.7 2.9-1.9 3.9-2.7 0.9-0.8 3.1-2.7 4.7-4.3 1.7-1.6 3.1-3.1 3.3-3.5 0.1-0.2 0.3-1.2 0.3-2 0.1-0.9 0-1.9-0.1-2.5-0.1-0.6-0.4-1.6-0.7-2.3-0.2-0.7-0.6-1.7-0.9-2.3-0.3-0.5-1.5-1.9-2.7-3.1-1.1-1.3-2.3-2.5-2.5-2.8-0.2-0.3-0.6-1-0.9-1.5-0.3-0.5-0.8-1.6-1.2-2.4-0.3-0.8-0.8-1.7-1.1-2-0.3-0.3-0.7-0.7-1-0.8-0.3-0.2-1-0.3-1.5-0.3-0.6 0-1.5 0.2-2.1 0.4-0.6 0.2-2.3 1-3.7 1.8-1.5 0.7-3.4 1.6-4.4 1.9-1.6 0.6-1.9 0.6-4 0.6-1.9 0-2.6-0.1-4.8-0.7-1.3-0.3-3.1-0.8-4-1.1-0.8-0.3-2.1-0.8-3-1.2-1-0.5-1.9-1.1-2.8-1.9-0.7-0.8-1.6-1.8-2.1-2.7-0.5-0.8-1.1-2-1.4-2.7-0.2-0.6-0.8-2.3-1.3-3.6-0.4-1.3-0.8-2.6-0.8-2.8 0-0.2 0.2-0.6 0.4-0.9 0.2-0.3 0.6-0.5 0.9-0.6 0.3 0 0.8 0.1 1.1 0.2 0.3 0.2 0.6 0.6 0.9 1.2 0.3 0.6 0.7 1.8 1 2.6 0.3 0.9 0.9 2.2 1.3 3 0.4 0.8 1 1.9 1.4 2.5 0.5 0.6 1.2 1.3 1.7 1.6 0.5 0.3 1.8 0.9 2.8 1.4 1.1 0.3 3 1 4.2 1.3 1.3 0.3 3 0.7 3.8 0.8 1.4 0.1 1.8 0 3-0.3 0.8-0.3 2.9-1.2 4.8-2.2 2.2-1.1 3.8-1.8 4.7-2 0.8-0.2 1.9-0.3 2.6-0.3 0.7 0 1.6 0.1 2 0.2 0.4 0.2 1 0.4 1.4 0.6 0.3 0.2 1.1 0.8 1.6 1.4l1 1c0.7-1.1 1.3-1.8 1.7-2.3 0.4-0.4 1.2-1.2 1.7-1.6 0.5-0.5 1.7-1.3 2.7-1.8 1-0.6 3.1-1.6 4.7-2.3 1.5-0.7 3.4-1.6 4.1-2 0.7-0.3 2-1.2 2.9-1.9 0.8-0.6 1.9-1.7 2.4-2.3 0.5-0.6 1.2-1.6 1.5-2.2 0.4-0.6 1.9-3.5 3.5-6.5 1.5-3 3.3-6.2 3.9-7.2 0.6-0.9 1.6-2.2 2.2-2.8 0.6-0.6 1.5-1.4 2-1.7q0.8-0.6 1.5-0.6c0.4 0 0.7 0.1 1.1 0.5q0.4 0.5 0.4 1.1c0 0.6-0.2 0.8-1.6 2.2-0.9 0.8-2 2.1-2.4 2.8-0.5 0.7-1.3 2.1-1.8 3.2-0.6 1-1.3 2.5-1.6 3.3-0.4 0.8-1.4 2.8-2.3 4.5-0.8 1.6-2 3.6-2.4 4.3-0.5 0.7-1.4 1.8-2 2.5-0.7 0.6-1.8 1.7-2.6 2.3-0.8 0.6-2 1.3-2.5 1.6-0.6 0.3-2.5 1.2-4.3 2.1-1.8 0.8-4 1.8-4.8 2.3-1 0.5-2.1 1.3-2.8 2-0.6 0.6-1.4 1.5-1.7 1.9-0.3 0.5-0.8 1.4-1 2-0.4 0.9-0.4 1.2-0.3 1.5 0.1 0.2 1.1 1.2 2.1 2.3 1 1 2.2 2.4 2.7 3 0.4 0.7 1.1 1.7 1.4 2.3 0.2 0.5 0.8 1.9 1.1 3 0.5 1.8 0.6 2.3 0.6 4.4 0 1.9-0.1 2.6-0.4 3.8-0.3 0.8-0.7 1.8-0.9 2.3-0.3 0.5-0.7 1-0.9 1.2-0.2 0.2-0.7 0.4-1.1 0.5-0.4 0.1-1 0.6-1.7 1.2l-1.1 1.2c1 0.1 2.8 0.3 4.7 0.6 2.6 0.3 4 0.3 5.9 0.3 1.3-0.1 3.4-0.3 4.7-0.5 1.3-0.3 3.6-0.8 5.2-1.3 1.6-0.4 3.7-1.1 4.8-1.4 1-0.4 3-1.2 4.4-1.8 1.5-0.7 3.5-1.6 4.5-2.1 1-0.5 3.3-1.8 5.1-2.9 1.8-1.1 4-2.4 4.9-3.1 1-0.6 2.5-1.7 3.5-2.5 0.9-0.7 3.4-3 5.4-5 2.2-2.2 4.2-4.4 5.1-5.6 0.8-1.1 2.1-3.1 2.9-4.4 0.8-1.3 1.9-3.3 2.5-4.3 0.5-1.1 1.3-2.9 1.8-4 0.5-1.2 1.1-3 1.4-4 0.3-1.1 0.8-2.9 1-4 0.2-1 0.5-3.1 0.7-4.5 0.3-1.6 0.4-4.2 0.5-6.9 0.1-3.1 0-5.4-0.2-8.4-0.2-2.4-0.5-6.1-0.8-8.4-0.2-2.3-0.5-5.6-0.7-7.4-0.1-1.7-0.3-4.1-0.5-5.3-0.1-1.1-0.4-3.8-0.6-5.8-0.3-2.1-0.5-4-0.6-4.4l-0.1-0.5c-2.2 2.8-3.8 4.5-4.9 5.7-1.1 1.2-3.8 3.9-6 6.1-2.2 2.2-4.8 4.7-5.8 5.5-1 0.8-2.7 2.2-3.9 3.1-1.2 0.9-4.2 3-6.5 4.7-2.4 1.6-6.4 4.2-8.8 5.7-2.4 1.5-5.2 3.1-6.4 3.6-1.1 0.4-3.1 1.2-4.5 1.7l-2.4 1c-0.5 2.5-0.8 3.7-1 4.3-0.3 0.6-0.8 1.4-1.2 1.9-0.4 0.4-1.1 0.9-1.5 1.1-0.4 0.2-1.1 0.4-1.5 0.4-0.4 0-1.1-0.2-1.5-0.5-0.5-0.2-1.2-0.8-1.7-1.3-0.4-0.5-1-1.5-1.4-2.3-0.3-0.8-0.7-2.2-0.9-3.2-0.2-1.2-0.4-2.3-0.3-3.3 0.1-1.3 0.1-1.6 0.5-2 0.3-0.2 0.7-0.5 1-0.5 0.3-0.1 0.8 0 1.1 0.1 0.3 0.2 0.6 0.5 0.7 0.7 0.1 0.2 0.2 0.8 0.2 1.4 0 0.5 0.1 1.7 0.3 2.4 0.2 0.8 0.5 2 0.7 2.5 0.2 0.6 0.6 1.2 0.8 1.5 0.3 0.4 0.4 0.4 0.6 0.3 0.2-0.1 0.4-0.8 0.6-1.4 0.2-0.7 0.5-2.2 0.6-3.4 0.2-1.2 0.3-2.9 0.3-3.7 0-1.4 0-1.5 0.5-2.1 0.5-0.5 0.7-0.6 1.3-0.6 0.7 0 0.9 0.1 1.4 0.6 0.6 0.6 0.6 0.8 0.7 1.8 0 0.7 0 1.3 0.1 1.3 0 0 0.8-0.5 1.9-1.1 1-0.6 3.1-1.8 4.6-2.8 1.6-1 4-2.5 5.5-3.5 1.5-0.9 3.8-2.4 5.1-3.3 1.4-1 3.6-2.6 5-3.5 1.5-1 3.3-2.4 4.2-3 0.8-0.6 3.2-2.5 5.3-4.1 2.1-1.7 4.7-3.9 5.8-5 1.1-1 2.8-2.8 3.8-3.9 1-1.1 2.4-2.8 3.2-3.9 0.8-1.1 1.9-2.8 2.4-3.8 0.5-1 1-1.9 1.1-2 0.2-0.1 0.1-0.8 0-1.9-0.1-0.9-0.5-3.5-0.8-5.9-0.4-2.3-1-5.7-1.3-7.6-0.4-1.9-1-4.5-1.3-5.8-0.3-1.4-0.7-3.3-1-4.2-0.2-1-0.6-2.4-0.8-3.2-0.2-0.7-0.8-2.8-1.3-4.5-0.5-1.8-1.2-4.2-1.7-5.3-0.3-1.2-1.2-3.6-1.9-5.2-0.7-1.7-1.8-4.3-2.5-5.8-0.7-1.5-2-4.5-3.1-6.6-1.1-2.1-2.5-4.9-3.3-6.1-0.7-1.3-1.8-2.9-2.3-3.8-0.6-0.8-1.7-2.2-2.4-3-0.7-0.9-2.1-2.4-3.1-3.5-1-1-2.3-2.2-3-2.7-0.6-0.5-1.8-1.2-2.5-1.6-0.7-0.4-1.8-1-2.4-1.2-0.7-0.2-1.6-0.3-2.2-0.3-0.5 0-1.2 0.1-1.5 0.3-0.3 0.1-0.8 0.4-1 0.7zm36.9 84.6c-0.9 1.1-2.7 3.2-4 4.6-1.3 1.4-3.1 3.3-4.1 4.1-1 0.9-3.8 3.2-6.3 5.2-2.5 1.9-5.8 4.4-7.3 5.4-1.5 1-3.9 2.8-5.5 3.8-1.5 1.1-3.8 2.6-5.1 3.4-1.3 0.8-3.9 2.4-5.8 3.6-2 1.1-4.3 2.5-5.1 3-0.9 0.5-1.5 1-1.5 1 0 0 1.1-0.4 2.5-0.9 1.3-0.5 3.1-1.2 3.9-1.6 0.8-0.4 3.3-1.9 5.5-3.2 2.2-1.4 5.5-3.6 7.3-4.9 1.9-1.3 4.2-2.9 5.3-3.7 1.1-0.8 2.9-2.1 4-3 1.1-0.9 3.4-2.9 4.9-4.3 1.6-1.5 4.6-4.5 6.6-6.6 2.1-2.1 4.2-4.4 4.8-5.1 0.6-0.6 1.5-1.8 2.1-2.6 0.6-0.7 1.1-1.5 1-1.5 0-0.1 0-0.4-0.1-0.7-0.1-0.4-0.2-0.3-0.8 0.8-0.4 0.6-1.4 2.1-2.3 3.2zm-142.3 32.9c0.6 0.3 2.2 1 3.6 1.5 1.4 0.6 2.6 1 2.6 1 0.1-0.1-0.1-0.2-0.3-0.3-0.2 0-1.7-0.7-3.4-1.4-1.7-0.7-3.2-1.3-3.3-1.4-0.1 0-0.2 0-0.2 0 0 0.1 0.4 0.4 1 0.6zm63.1 6.5c-0.3 0.2-0.7 0.3-0.8 0.3-0.1 0-0.6-0.1-0.9-0.3-0.6-0.3-0.6-0.3-1.3 0.1-0.4 0.2-1 0.7-1.4 1.1-0.3 0.4-0.7 1-0.9 1.4-0.2 0.4-0.4 1.1-0.5 1.4-0.1 0.4-0.1 0.9 0.1 1.1 0.1 0.3 0.4 0.7 0.7 1 0.3 0.3 0.7 0.6 0.9 0.6 0.3 0.1 1 0 1.7-0.2 0.7-0.1 1.6-0.5 2.1-0.7 0.4-0.3 1-0.5 1.3-0.5 0.3 0 0.7 0.1 0.9 0.2 0.4 0.2 0.4 0.1-0.1-0.9-0.3-0.7-0.6-1.9-0.7-2.9-0.1-0.9-0.1-1.9-0.1-2.2 0.1-0.3 0-0.5-0.1-0.5 0 0-0.1 0.2-0.2 0.4-0.1 0.2-0.4 0.5-0.7 0.6zm-25.7 3.1c1.7 0.2 4.8 0.5 6.9 0.6 2 0.2 4.9 0.3 6.4 0.3 2.7 0 2.8 0 2.8-0.4v-0.4c-7.9-0.1-11.7-0.2-13.5-0.3-1.9-0.1-4-0.2-4.7-0.3-0.7-0.1-1.2-0.1-1.2 0 0.1 0 1.5 0.3 3.3 0.5zm75.2-116.8c0.2 0 0.6 0.1 0.9 0.2 0.2 0.2 0.6 0.6 0.7 0.9 0.2 0.3 0.3 1.1 0.3 1.6 0 0.6-0.1 2.2-0.2 3.6-0.1 1.3-0.3 3-0.5 3.8-0.1 0.7-0.4 1.6-0.6 2-0.2 0.4-0.6 0.8-0.8 0.9-0.2 0.1-0.5 0.2-0.8 0.2-0.3 0-0.7-0.2-0.9-0.4q-0.5-0.5-0.5-1.1c0-0.3 0.1-1.1 0.3-1.7 0.1-0.7 0.3-1.3 0.2-1.4 0-0.2-0.3 0-0.8 0.5-0.6 0.6-0.9 0.8-1.4 0.8-0.4 0-0.9-0.1-1.1-0.2-0.2-0.1-0.5-0.5-0.6-0.8-0.2-0.3-0.3-0.9-0.3-1.4 0-0.5 0.2-1.5 0.4-2.3 0.2-0.7 0.6-1.9 0.8-2.6 0.3-1 0.6-1.4 1.1-1.7 0.3-0.2 0.8-0.3 1-0.3 0.2 0 0.6 0.2 0.9 0.4 0.2 0.3 0.5 0.5 0.5 0.5 0.1 0 0.1-0.1 0.1-0.3 0-0.1 0.2-0.5 0.5-0.7 0.2-0.3 0.6-0.5 0.8-0.5zm-2.3 4.8c-0.1 0.4 0 0.6 0.3 0.9 0.2 0.3 0.4 0.4 0.4 0.4 0.1 0 0.2-0.9 0.2-1.9 0.1-1 0.1-1.8 0.1-1.8-0.1 0-0.3 0.4-0.5 1-0.2 0.5-0.5 1.1-0.5 1.4zm-31.2 19.8c0.4-0.1 0.9 0.1 1.2 0.3 0.3 0.3 0.4 0.6 0.4 1 0 0.4-0.1 0.8-0.4 1.1-0.2 0.3-1.1 0.8-1.8 1.2-1 0.5-2 1.2-2.9 2.1-0.8 0.7-1.5 1.4-1.7 1.4-0.2 0.1-0.6 0-0.8-0.1-0.3-0.1-0.7-0.5-0.8-0.7-0.2-0.3-0.2-0.7-0.2-0.9 0.1-0.3 0.4-0.9 0.8-1.3 0.4-0.5 1.2-1.3 1.8-1.8 0.5-0.5 1.6-1.2 2.4-1.6 0.8-0.4 1.7-0.7 2-0.7zm-74.7 0.7c0.8 0 1 0.1 1.9 1.1 0.6 0.6 1.6 1.7 2.3 2.5 0.6 0.8 1.5 2.1 1.9 2.8 0.7 0.9 0.9 1.4 0.9 1.9 0 0.5-0.1 0.7-0.5 1-0.3 0.2-0.7 0.4-1 0.4-0.3 0-0.8-0.3-1.1-0.6-0.4-0.2-1.3-1.5-2.2-2.7-0.9-1.2-2.1-2.7-2.7-3.3-0.9-0.9-1-1.2-1-1.7 0-0.4 0.1-0.8 0.3-1 0.3-0.3 0.6-0.4 1.2-0.4zm-2.7 3.5c0.3 0 0.7 0.2 0.9 0.3 0.3 0.2 0.5 0.6 0.6 1 0.2 0.4 0.7 1.5 1.1 2.5 0.7 1.1 1.2 1.9 1.6 2.2 0.6 0.5 0.7 0.7 0.7 1.2 0 0.5-0.1 0.9-0.4 1.1-0.3 0.3-0.6 0.5-0.9 0.6-0.2 0-0.7-0.1-1.3-0.4-0.6-0.3-1-0.6-1.5-1.4-0.3-0.6-1-1.7-1.4-2.6-0.4-0.9-0.8-2-0.8-2.5-0.1-0.8-0.1-1 0.4-1.5 0.3-0.3 0.7-0.5 1-0.5zm34.2 5.8c0.3 0 0.7 0.2 0.9 0.5 0.3 0.2 0.5 0.6 0.5 0.9 0 0.3-0.1 0.6-0.2 0.9-0.2 0.2-0.6 0.9-1.1 1.4-0.5 0.6-1.2 1.5-1.5 2.1-0.3 0.5-0.7 1.5-0.9 2-0.2 0.7-0.6 1.2-0.8 1.3-0.2 0.1-0.6 0.2-0.8 0.2-0.3 0-0.6-0.1-0.8-0.2-0.2 0-0.5-0.4-0.6-0.7-0.2-0.4-0.2-0.7 0.1-1.6 0.2-0.6 0.5-1.6 0.9-2.2 0.3-0.7 0.8-1.6 1.2-2.1 0.4-0.5 1-1.2 1.3-1.5 0.4-0.3 0.8-0.7 1-0.8 0.2-0.1 0.6-0.2 0.8-0.2zm40.5 10.7c1.5 0 2.5 0.2 3.4 0.5 0.7 0.2 1.7 0.6 2.2 0.8 0.5 0.3 1.5 0.9 2.1 1.3 0.6 0.4 1.4 1.1 1.8 1.6 0.4 0.4 0.9 1.1 1.2 1.6 0.4 0.5 0.9 1.5 1.2 2.3 0.3 0.7 0.7 2.1 0.8 3 0.2 0.8 0.3 2.3 0.3 3.2 0 1-0.1 2.4-0.2 3.2-0.1 0.8-0.4 2-0.6 2.8-0.1 0.7-0.6 1.8-0.9 2.5-0.3 0.6-1 1.7-1.5 2.4-0.5 0.7-1.4 1.6-1.9 2-0.5 0.4-1.5 1-2.2 1.4-0.7 0.3-1.8 0.7-2.6 0.9-0.8 0.2-2.1 0.3-2.9 0.4-0.8 0-1.8-0.1-2.2-0.2-0.4 0-1.5-0.4-2.4-0.9-1.3-0.6-2.1-1.1-3.3-2.2-0.8-0.9-1.9-2.1-2.4-2.9-0.5-0.8-1.2-2-1.5-2.8-0.3-0.7-0.7-2.1-0.8-3.1-0.3-1.1-0.3-2.1-0.2-3.3 0-0.9 0.2-2.3 0.4-3 0.1-0.7 0.5-1.9 0.7-2.6 0.3-0.7 0.9-2 1.3-2.8 0.4-0.8 1-1.8 1.3-2.3 0.3-0.5 0.9-1.2 1.4-1.7 0.5-0.5 1.1-1.1 1.4-1.2 0.3-0.2 1-0.4 1.6-0.5 0.5-0.1 1.3-0.2 1.7-0.3 0.5-0.1 1.7-0.1 2.8-0.1zm-2.9 4.6c-0.6 0.2-1.5 1-2.2 1.8-0.7 0.7-1.8 2.1-2.4 3.2-0.6 1.1-1.2 2.3-1.4 2.9-0.2 0.5-0.3 1.2-0.3 1.6 0 0.4 0.1 0.7 0.2 0.7 0.1 0 0.6-0.6 1.3-1.2 0.7-0.6 2-1.7 2.9-2.4 0.9-0.7 2.3-1.5 3-1.9 0.7-0.3 1.9-0.8 2.7-1 1-0.3 1.9-0.4 3.3-0.4 1.1 0 2.4 0.1 2.9 0.2 0.5 0.1 1 0.1 1 0.1 0-0.1-0.2-0.5-0.5-0.9-0.3-0.4-0.9-1.1-1.3-1.4-0.4-0.4-1.2-1-1.8-1.3-0.6-0.3-1.6-0.7-2.2-0.9-0.6-0.1-1.4-0.3-1.7-0.3-0.3 0.1-1 0.2-1.6 0.4-0.5 0.2-1.4 0.5-1.9 0.8zm-0.2 8.6c-1.2 0.5-2.7 1.4-3.5 1.9-0.7 0.5-1.6 1.2-1.9 1.5l-0.6 0.5c0.4 1.6 0.8 2.8 1.3 3.6 0.5 1.2 1.1 2 2.1 3 1.1 1.1 1.8 1.6 2.8 2.1 0.9 0.4 1.6 0.6 2.5 0.7 0.7 0 1.6-0.1 2.4-0.3 0.7-0.1 1.7-0.5 2.4-0.8 0.6-0.4 1.5-1 2.1-1.6 0.6-0.6 1.2-1.5 1.6-2.4 0.5-0.9 0.9-2.1 1-3.1 0.2-0.9 0.4-2.1 0.4-2.8 0.1-0.7 0.1-1.3 0-1.3-0.1 0-0.4 0.4-0.7 0.8-0.4 0.5-0.9 0.9-1.3 1.1-0.6 0.2-0.9 0.2-1.6 0-0.4-0.1-1-0.4-1.3-0.7-0.3-0.3-0.7-0.9-0.9-1.3-0.1-0.4-0.2-1.1-0.2-1.8l0.1-1.1c-0.9 0.1-1.9 0.3-2.9 0.5-1 0.3-2.7 0.9-3.8 1.5zm-29.7-9.1c0.5 0.1 1.5 0.3 2.3 0.5 0.8 0.2 2 0.6 2.6 0.9 0.6 0.3 1.7 1 2.4 1.4 0.6 0.5 1.6 1.4 2.2 2.1 0.5 0.7 1.2 1.8 1.6 2.5 0.3 0.7 0.8 2.2 1.1 3.2 0.3 1.1 0.5 2.7 0.6 3.9 0 1.4 0 2.7-0.2 4.1-0.2 1.1-0.5 2.7-0.8 3.5-0.2 0.8-0.8 2.1-1.2 2.9-0.5 0.7-1.4 1.9-2 2.6-1 0.9-1.7 1.4-3.2 2.2-1.1 0.6-2.6 1.1-3.5 1.3-1 0.3-2.3 0.4-3.4 0.4-1.1 0-2.1-0.1-2.8-0.3-0.5-0.2-1.4-0.5-1.9-0.8-0.6-0.2-1.5-0.9-2.2-1.4-0.6-0.5-1.5-1.4-1.9-2-0.5-0.5-1.1-1.5-1.4-2.2-0.3-0.6-0.8-1.9-1.1-2.9-0.4-1.7-0.5-2.1-0.5-5 0-2.3 0.1-3.6 0.4-4.7 0.1-0.9 0.5-2.2 0.8-3 0.3-0.8 1-2.1 1.5-3 0.5-0.9 1.3-2 1.8-2.5 0.5-0.4 1.5-1.2 2.3-1.7 0.8-0.5 1.8-1.1 2.3-1.3 0.6-0.3 1.4-0.5 2.2-0.6 0.6-0.1 1.5-0.1 2-0.1zm-5.3 5.5c-0.6 0.5-1.5 1.6-1.9 2.2-0.4 0.7-0.9 1.4-1.1 1.5-0.2 0.1-0.5 0.7-0.8 1.4-0.2 0.6-0.5 1.8-0.6 2.4-0.1 0.7-0.2 2.3-0.2 3.6 0 1.3 0.1 2.4 0.1 2.4 0.1 0.1 0.8-0.5 1.5-1.3 0.7-0.9 2.2-2.4 3.2-3.5 1.2-1.1 2.1-1.9 2.4-2 0.3 0 1.4-0.5 2.4-1 1-0.5 2.3-1 2.7-1.1 0.5-0.1 1.6-0.2 2.5-0.2 0.9 0 2.1 0.1 2.6 0.2 0.5 0.1 1 0.2 1 0.2 0-0.1-0.1-0.4-0.2-0.8-0.2-0.4-0.6-1.1-0.9-1.5-0.2-0.4-0.9-1.2-1.4-1.7-0.5-0.5-1.4-1.1-2-1.5-0.6-0.3-1.7-0.8-2.5-1-0.8-0.2-1.9-0.4-2.4-0.4-0.8 0-1.3 0.2-2.2 0.6-0.6 0.3-1.6 1-2.2 1.5zm12.9 8.2c0.4 0.9 0.5 1 0.3 1.9-0.2 0.6-0.5 1.1-0.8 1.4-0.3 0.3-0.8 0.6-1.1 0.7-0.3 0.2-0.7 0.2-0.9 0.1-0.2 0-0.6-0.2-0.8-0.3-0.2-0.1-0.6-0.5-0.8-0.9-0.2-0.3-0.7-0.9-1.1-1.2-0.6-0.6-0.6-0.7-0.5-1.5l0.1-0.8q-1.4 0.3-2.3 0.7c-0.6 0.3-1.8 1-2.6 1.5-0.8 0.6-2.3 1.8-3.3 2.8-1.1 1-2.2 2-2.6 2.3l-0.7 0.6c0.5 1.6 0.9 2.5 1.2 3 0.3 0.5 1 1.3 1.6 1.9 0.6 0.5 1.6 1.3 2.2 1.6 1.2 0.5 1.4 0.6 3.1 0.5 1.5 0 2.1 0 3.4-0.5 0.8-0.3 1.9-0.7 2.4-1 0.5-0.3 1.3-1 1.9-1.5 0.5-0.6 1.2-1.5 1.5-2.1 0.3-0.7 0.7-1.8 0.9-2.5 0.4-0.9 0.5-1.9 0.6-4 0-1.4 0-2.9-0.1-3.2-0.1-0.4-0.1-0.5-1.1-0.5h-1zm65.4-2.6c0.3 0 0.7 0.1 0.8 0.2 0.2 0.1 0.3 0.5 0.3 0.8 0 0.5-0.2 0.8-0.6 1.2-0.4 0.4-2.4 1.8-4.6 3.3-2.2 1.4-4.6 2.9-5.3 3.3-1.1 0.6-1.3 0.6-1.7 0.4-0.3-0.1-0.5-0.4-0.6-0.6-0.1-0.2-0.1-0.5 0-0.8q0.1-0.4 1.9-1.5c1-0.6 3.1-2 4.7-3.1 1.6-1.1 3.3-2.3 3.7-2.6 0.5-0.4 1.1-0.6 1.4-0.6zm2.4 3.7c0.1 0 0.4 0.1 0.5 0.2 0.2 0.2 0.4 0.4 0.5 0.6 0 0.2 0 0.5-0.1 0.8-0.1 0.2-0.5 0.7-1 0.9-0.4 0.3-1.9 0.9-3.4 1.5-1.4 0.6-3.4 1.4-4.3 1.9-1 0.4-2 0.8-2.3 0.8-0.3 0-0.7-0.1-0.8-0.3-0.2-0.2-0.3-0.5-0.3-0.7 0-0.2 0.2-0.6 0.4-0.8 0.3-0.2 1.2-0.8 2.1-1.2 0.9-0.4 3.2-1.4 5-2.2 1.9-0.8 3.5-1.5 3.7-1.5zm-22.2 7.2c0.8 0 1.6 0.2 2.1 0.5 0.5 0.2 1 0.7 1.4 1.2 0.4 0.6 0.5 1.1 0.6 1.8 0 0.6 0 1.4-0.2 1.8-0.1 0.5-0.5 1.1-0.9 1.5-0.5 0.5-0.9 0.8-1.7 1-0.6 0.2-1.3 0.2-1.7 0.1-0.4 0-1.1-0.2-1.4-0.4-0.4-0.2-1-0.7-1.4-1.1-0.4-0.4-0.8-1.1-0.9-1.5-0.1-0.4-0.2-1.2-0.2-1.9 0-1.2 0-1.3 0.5-1.8 0.3-0.4 0.7-0.7 0.9-0.8 0.2-0.1 0.7-0.3 1.1-0.4 0.3-0.1 1.2-0.1 1.8 0zm-1.9 3.6c0 0.5 0.2 0.9 0.5 1.3 0.3 0.3 0.7 0.6 1.1 0.6 0.3 0.1 0.8 0.1 1.1-0.1 0.2 0 0.6-0.4 0.7-0.6 0.2-0.4 0.3-0.7 0.1-1.2-0.1-0.4-0.3-0.8-0.6-0.9-0.3-0.1-0.9-0.2-1.5-0.2-0.5 0-1 0.1-1.1 0.2-0.2 0.1-0.3 0.5-0.3 0.9zm-32.5-3.2c0.2 0 0.7 0.1 1.2 0.2 0.4 0.1 1.1 0.5 1.5 0.8q0.7 0.6 1.3 1.9c0.4 0.8 0.7 1.8 0.8 2.4 0.1 0.8 0 1.1-0.3 1.8-0.2 0.5-0.6 1-0.9 1.1-0.4 0.3-0.4 0.4-0.4 1.6 0 0.7-0.1 1.6-0.2 1.9-0.1 0.4-0.3 0.8-0.5 1-0.2 0.2-0.9 0.5-1.7 0.6-0.7 0.2-2.1 0.3-3.2 0.3-1.5 0-2.1 0-2.7-0.3-0.4-0.1-0.9-0.4-1.1-0.6-0.2-0.2-0.3-0.5-0.3-0.8 0-0.2 0.2-0.6 0.4-0.8 0.4-0.4 0.4-0.4 1.6-0.1 0.6 0.2 1.7 0.4 2.5 0.4 0.7 0 1.4-0.1 1.6-0.2 0.4-0.2 0.4-0.4 0.4-3.2l-1.5-1.4c-0.8-0.8-1.7-1.8-1.9-2.2-0.3-0.6-0.3-0.9-0.2-1.5 0.1-0.5 0.3-1 0.9-1.5 0.4-0.4 1.1-0.9 1.5-1 0.4-0.2 0.9-0.4 1.2-0.4zm-48.8 8.9c2.4 0 5.1 0.1 6 0.2 1.1 0.1 1.7 0.3 1.9 0.5 0.2 0.2 0.4 0.6 0.4 0.8 0 0.3-0.1 0.6-0.2 0.8-0.2 0.2-1 0.2-5.7 0.2-2.9 0-5.7-0.1-6.1-0.2-0.4-0.1-0.9-0.4-1.1-0.6-0.2-0.2-0.3-0.5-0.3-0.7 0-0.2 0.1-0.5 0.3-0.7 0.3-0.3 0.7-0.3 4.8-0.3zm15.3 0.2c0.5 0 1.4 0.1 2 0.3 0.6 0.2 1.4 0.5 1.7 0.8 0.3 0.2 0.8 0.8 1 1.2 0.3 0.5 0.4 1.1 0.4 1.8 0 0.7-0.1 1.3-0.4 1.8-0.2 0.5-0.7 1.1-1.1 1.3-0.4 0.3-1.1 0.6-1.5 0.7-0.5 0.1-1.3 0.1-1.8-0.1-0.5-0.1-1.3-0.4-1.7-0.7-0.5-0.3-1-0.9-1.2-1.4-0.3-0.5-0.4-1.1-0.4-2 0-0.9 0.1-1.3 0.5-2.1 0.3-0.5 0.8-1.1 1.1-1.2 0.3-0.2 1-0.4 1.4-0.4zm-0.7 3.8c0 0.3 0.1 0.8 0.3 1 0.1 0.2 0.6 0.5 0.9 0.6 0.4 0.2 0.9 0.2 1.1 0.1 0.3 0 0.6-0.2 0.7-0.4 0.2-0.1 0.3-0.5 0.3-0.8 0-0.4-0.1-0.8-0.3-1.1-0.3-0.3-0.5-0.4-1.5-0.5-1-0.1-1.3-0.1-1.4 0.2-0.1 0.2-0.1 0.6-0.1 0.9zm-14.8-0.5c5.3 0 6.3 0 6.4 0.3 0.1 0.1 0.2 0.5 0.2 0.8 0 0.3-0.2 0.6-0.5 0.8-0.4 0.2-1.3 0.3-4.8 0.5-2.4 0-4.8 0.1-5.4 0-0.6 0-1.4-0.2-1.7-0.3-0.4-0.1-0.7-0.3-0.8-0.5-0.1-0.2-0.2-0.5-0.2-0.7-0.1-0.2 0.1-0.5 0.2-0.6 0.3-0.3 1.1-0.3 6.6-0.3zm67.1 20.7c0.3 0 0.7 0.1 1.1 0.2 0.3 0.1 0.9 0.5 1.3 0.8 0.3 0.3 0.7 0.9 0.9 1.3 0.2 0.4 0.4 1.1 0.4 1.5 0 0.5-0.2 1.2-0.5 1.8-0.2 0.5-0.5 1-0.6 1-0.2 0.1-0.4 0.4-1 1.2l1.2 0.9c0.6 0.5 1.7 1.3 2.4 1.7 0.6 0.4 1.4 1 1.6 1.3 0.3 0.3 0.4 0.7 0.4 1.2 0 0.5-0.1 0.8-0.5 1.1-0.3 0.4-0.6 0.5-1.1 0.5-0.4 0-1-0.2-1.5-0.3-0.4-0.2-1.6-1.1-2.6-1.9-1.8-1.4-1.9-1.5-1.9-1 0 0.2 0.1 1.2 0.2 2.2 0.2 1.4 0.2 1.8-0.1 2.3-0.2 0.3-0.6 0.7-0.9 0.9-0.4 0.2-0.8 0.2-1.2 0.2-0.3-0.1-0.8-0.4-1-0.7-0.4-0.3-0.5-0.8-0.6-1.7-0.1-0.6-0.2-3.1-0.3-5.6-0.2-2.4-0.2-4.7-0.2-5.2 0.1-0.5 0.2-1 0.5-1.3 0.2-0.3 0.5-0.5 0.6-0.5 0.2 0 0.6-0.3 0.9-0.7 0.4-0.3 1-0.7 1.4-0.9 0.4-0.1 0.9-0.3 1.1-0.3z"/></svg>