<svg version="1.2" xmlns="http://www.w3.org/2000/svg" width="2048" height="2048">
    <path fill-rule="evenodd" d="M677 449.1c1.9 0 6.2.6 9.5 1.5s8.7 3 12 4.7c3.2 1.8 8.4 5.5 11.5 8.3 3.4 3.1 6.9 7.7 9.1 12 2 3.8 4.8 10 6.2 13.9 1.4 3.8 3.6 12.4 5 19s3 15.8 3.6 20.5c.6 4.7 1.7 19.1 2.5 32 .9 12.9 2 34.7 2.6 48.5.6 13.7 1.7 32.9 2.6 42.5.8 9.6 2.1 21.8 2.9 27 .9 5.2 2.5 13.1 3.6 17.5 1 4.4 2.8 9.1 3.8 10.5 1.7 2.2 2.5 2.5 7.2 2.2 3-.1 12.6-2.2 21.4-4.7 8.8-2.4 20.7-5.5 26.5-6.9 5.8-1.3 14.8-3.1 20-4 5.2-.9 18.3-2.7 29-4.1 10.7-1.4 29.9-3.4 42.5-4.5 12.6-1.1 33.1-2.3 45.5-2.7 13-.3 31.8-.1 44.5.6 12.1.6 27.2 1.6 33.5 2.2 6.3.5 17.1 1.9 24 3 6.9 1.1 16.3 3 21 4.1 4.7 1.1 11 2.3 14 2.8 3 .4 6.7.5 8.3.1 1.6-.3 3.1-1.6 3.7-3.1.5-1.4 2.6-9.3 4.6-17.5 2-8.3 8.1-29 13.6-46 8.2-25.2 10.6-31.5 12.8-33.5 1.5-1.4 6.6-10.2 11.3-19.5 4.7-9.4 12.2-22.6 16.8-29.5 4.5-6.9 12-17.6 16.8-23.9 4.7-6.3 11.3-13.9 14.6-17 3.3-3.1 8.6-6.9 11.7-8.4 3.2-1.5 8.2-3.2 11-3.8 2.9-.6 8.9-1 13.3-.8 6.7.4 9.2 1 15.5 4.1 4.2 2 10.4 6.2 14 9.5 3.6 3.2 9 8.6 12 12.1 3 3.4 8.4 11.4 12 17.7 3.6 6.3 7.7 13.1 9.2 15 1.6 1.9 5.2 4.6 8 6 2.9 1.3 9.3 3.1 14.3 3.9 5 .8 17.1 1.7 27 2.1 9.9.3 26.8 1.3 37.5 2.2 13.1 1 24.4 1.3 34.5.9 8.2-.3 19.5-1.3 25-2.1s12.6-2.1 15.7-3c3.2-.8 7.5-2.2 9.5-3.1 2.1-.8 6-3.1 8.8-4.9 2.7-1.8 8.2-6.4 12-10.2 3.9-3.7 11.6-12.2 17.1-18.8 5.5-6.6 12.3-14 15.1-16.5 2.7-2.5 7.4-5.7 10.4-7.2 3-1.4 7.4-3.1 9.9-3.7 2.5-.6 6.5-1.1 9-1.1s7 .7 10 1.6c3 .9 7.1 2.7 9 3.9 1.9 1.3 5.1 4 7.1 6.1 2 2.2 6.4 7.7 9.8 12.4 3.4 4.7 9.3 14.6 13 22 3.8 7.4 8.7 19.1 10.9 26 2.2 6.9 5 17 6.1 22.5 1.1 5.5 2.7 15 3.6 21 .8 6 2.4 19.3 3.6 29.5 1.1 10.7 2.3 29.3 2.6 44 .3 14 .1 48.2-.6 76-.6 27.8-1.6 60-2.2 71.5-.5 11.5-1.6 30.2-2.4 41.5-.9 11.3-2.7 33.3-4 49-1.4 15.7-3.5 36.6-4.5 46.5-1.1 9.9-3 25.2-4.1 34-1.1 8.8-3.4 23.4-5 32.5-1.6 9.1-6.6 35.4-11 58.5s-9.1 47.6-10.5 54.5c-1.3 6.9-2.4 12.8-2.4 13.2 0 .5 3.7.8 8.2.8 4.6 0 16 .7 25.3 1.5s24.9 2.8 34.5 4.4c9.6 1.6 28.1 5.2 41 8 12.9 2.9 33.2 7.4 45 10.2 11.8 2.7 27.6 6.7 35 8.9 7.4 2.2 20 6.2 28 8.9s21.9 7.6 31 10.9c9.1 3.3 22.1 8.3 29 11.1 6.9 2.9 17 7.6 22.5 10.5 5.5 2.9 17.2 10 26 15.8 10.8 7.2 17.5 12.3 20.6 15.9 2.5 3 5.1 6.4 5.7 7.6.7 1.3 1.2 3.9 1.2 5.8s-.8 5.2-1.9 7.2c-1 2.1-3.8 5.4-6.2 7.4-2.4 1.9-10.9 8.5-18.9 14.6-8 6-21 15.9-29 21.8-8 6-21.5 16.5-30.1 23.4-8.5 7-21.8 16.9-29.5 22.2-7.6 5.4-19.3 13-25.9 17.1-6.6 4.1-20.1 12-30 17.5-9.9 5.5-25.7 13.9-35 18.5-9.3 4.7-20.4 10-24.5 11.8-4.1 1.8-16 6.4-26.5 10.2-10.5 3.9-24.2 8.8-30.5 11-6.3 2.2-18.3 5.9-26.5 8.3-8.3 2.4-18.4 5.5-22.5 7-4.1 1.4-14.9 5-24 8-9.1 2.9-22.6 7.4-30 10-7.4 2.6-18.5 6.3-24.5 8.2-6 1.9-18 5.2-26.5 7.4-11.6 3-18.3 4.1-26.5 4.5-8 .4-13.6 1.4-20.5 3.4-5.2 1.6-16.3 4.7-24.5 6.9-8.3 2.2-23.1 6.5-33 9.6-9.9 3-24.3 7.1-32 9-7.7 1.9-25.7 6-40 9.1-14.3 3-31.8 6.6-39 8-7.2 1.3-21.1 3.3-31 4.4-9.9 1.1-27.9 3.4-40 5-12.1 1.6-25.8 3.2-30.5 3.6-4.7.3-11 1.2-14 2-3 .7-10.2 1.6-16 2-5.8.3-34.3 0-63.5-.7-29.2-.8-74.6-1.4-101-1.5-26.4 0-60.6-.6-76-1.2-15.4-.6-51.6-1.6-80.5-2.2-28.9-.6-58.1-1.5-65-2-6.9-.5-24.4-1.4-39-2-14.6-.6-45.2-2.4-68-4-22.8-1.6-49.8-3.4-60-4-10.2-.6-25-2-33-3.1s-30.9-4.7-51-7.9c-20.1-3.3-46.4-7.9-58.5-10.5-12.1-2.5-27.2-5.9-33.5-7.6-6.3-1.7-17.8-5.1-25.5-7.6-7.7-2.5-25.5-9-39.5-14.4-14-5.3-33.4-13-43-16.9-9.6-3.9-25.4-10.2-35-14-9.6-3.8-27.2-10.7-39-15.3-11.8-4.6-32.5-13.8-46-20.4-13.5-6.5-32.2-16.1-41.5-21.2-9.4-5.2-18.8-10.6-21-12.1-2.2-1.5-5.5-4.3-7.3-6.1-1.8-1.9-3.2-4.2-3.2-5.2 0-.9-1.3-3.2-2.9-5-1.6-1.7-3.7-4.9-4.5-7-.9-2-1.6-5.6-1.6-8 0-2.8 1-5.9 3-9.5 2.1-3.6 5.6-7.2 11.2-11.7 4.6-3.6 15.5-11.5 24.3-17.6 8.8-6.1 23.2-15.5 32-20.8 8.8-5.4 20.1-12.2 25-15.1 4.9-3 22.1-12.1 38-20.3 15.9-8.3 38-19.5 49-25.1 11-5.6 25.9-12.5 33-15.3 7.1-2.9 18.6-7.3 25.5-9.9 9-3.4 14.1-4.7 23.7-4.9l10.9-9.6c6-5.3 14.5-12.5 18.9-16 4.4-3.6 12.3-9.4 17.5-12.9 5.2-3.5 14.8-10.5 21.2-15.7 6.5-5.1 13-9.6 14.5-9.9 1.6-.4 5-2.1 7.8-3.8 3.3-2 6.2-3.1 8.7-3.1 2.8 0 4.5.7 6.5 2.8 2.1 2 2.8 3.7 2.8 6.5s-2 7-8.3 17.7c-4.5 7.7-8.1 14.1-8 14.3.2.1 10-2 21.8-4.7 11.8-2.8 33.2-7.7 47.5-11.1 14.3-3.3 29.1-6.8 33-7.6 3.9-.8 15.8-3 26.5-4.9 10.7-1.9 24.3-4 30.3-4.7 5.9-.7 10.7-1.8 10.7-2.3 0-.5-4.5-13.6-10.1-29s-12.1-34.3-14.6-42c-2.4-7.7-6.8-22.5-9.9-33-3-10.5-7-26.7-8.9-36-1.9-9.4-4.5-24.4-5.9-33.5-1.4-9.1-3.2-23.3-4.1-31.5-.8-8.3-2-29.4-2.6-47-.9-24.5-.9-38.8 0-61 .7-16 1.5-38.2 1.8-49.5.3-12.2.1-27.2-.6-37-.7-9.1-2.1-23.9-3.2-33-1.1-9.1-2.2-24.4-2.6-34-.3-10.5-.1-23.7.6-33 .7-8.5 1.9-21.1 2.7-28 .8-6.9 2.6-19.3 4-27.5 1.4-8.3 3.8-21.1 5.4-28.5 1.7-7.4 4.8-19.6 7.1-27 2.2-7.4 5.9-17.8 8.1-23 2.2-5.2 5.5-12.4 7.3-16 1.8-3.6 6.1-10.8 9.6-16 3.7-5.5 10.5-13.7 16.4-19.5 5.5-5.6 14-12.8 19-16.1 5-3.3 12.6-7.5 17-9.3 4.4-1.8 10.7-3.9 14-4.6 3.3-.8 7.6-1.4 9.5-1.4zm-22.5 26.7c-3.3 1.8-9.6 6-14 9.5-4.4 3.4-10.9 9.6-14.4 13.7-3.6 4.1-8.5 10.6-11 14.5-2.5 3.9-6.8 12-9.7 18-2.9 6-7.1 16.9-9.3 24-2.3 7.1-5.5 18.4-7.1 25-1.6 6.6-4.3 19.9-5.9 29.5-1.6 9.6-3.7 23.6-4.5 31-.9 7.4-2 21.8-2.6 32-.8 13.6-.8 22.6 0 34 .6 8.5 1.7 21.1 2.5 28 .8 6.9 1.9 19 2.5 27 .8 8.8 1 23.3.6 37-.3 12.4-.9 45-1.2 72.5-.4 34-.3 55.4.5 67 .7 9.4 1.9 22.9 2.7 30 .8 7.1 2.4 18.2 3.4 24.5 1.1 6.3 3.1 17.1 4.4 24 1.4 6.9 3.9 18.1 5.6 25 1.7 6.9 5.6 20.6 8.6 30.5 3 9.9 6.8 21.8 8.4 26.5 1.5 4.7 6.7 19.3 11.5 32.5s10.7 29.6 13.2 36.5c2.5 6.9 8.1 20.8 12.5 31s10.8 24.1 14.3 31c3.4 6.9 8.5 17.7 11.3 24 2.7 6.3 6.9 16.7 9.2 23 2.3 6.3 5.8 15.8 7.7 21 2 5.2 5.8 14 8.6 19.5 2.7 5.5 7.1 13.2 9.7 17 2.6 3.8 6.9 9.2 9.6 11.8 2.7 2.6 7.6 6.1 10.9 7.8 4.1 2 7.5 2.9 10.5 2.9 2.5 0 6.5-1 9-2.1s7.2-4 10.5-6.3c3.3-2.4 9.5-8.3 13.9-13.2 4.3-4.9 9.8-11.6 12.1-14.9 2.4-3.3 6.8-11 9.8-17 3.3-6.5 7.1-16.1 9.2-23.5 2-6.9 4.5-18.3 5.5-25.5 1-7.2 2.1-20.9 2.4-30.5.4-9.6.9-19.8 1.2-22.5.4-2.8 1.3-6.2 2-7.8.8-1.5 2.3-3.2 3.4-3.7s3.2-1 4.8-1c1.5 0 5.4 1.2 8.7 2.6 3.3 1.4 10.7 4.6 16.5 7 5.8 2.4 17.3 6.1 25.5 8.3 8.3 2.2 23.1 5.6 33 7.5 9.9 1.9 27 4.8 38 6.5 11 1.7 27 3.8 35.5 4.7 11.9 1.3 20.6 1.5 37.5 1.1 12.1-.3 28.3-1.3 36-2.2 7.7-.8 29.8-2.9 49-4.5 19.3-1.6 42-4 50.5-5.4 8.5-1.4 17.8-2.8 20.5-3.1 2.8-.3 6.1-.8 7.5-1.1 1.4-.2 3.3-1.7 4.3-3.4 1-1.9 3-3.4 5.2-4 1.9-.5 4.5-.7 5.8-.4 1.2.4 3.5 1.6 5.2 2.9 1.7 1.2 4.4 4.8 6.2 8.1 1.7 3.2 4.3 9.5 5.8 13.9 1.4 4.4 3.9 14.3 5.5 22 1.6 7.7 5.1 26.4 7.9 41.5 2.8 15.1 5.9 30 6.9 33 1.1 3 3.4 8.2 5.3 11.5 1.8 3.3 5.4 8.1 7.9 10.6 3.2 3.3 6.6 5.3 12 7.4 4.1 1.6 10.2 3.4 13.5 4.1 3.3.8 9.2 1.3 13 1.4 3.8 0 9.7-.8 12.9-1.8 5.3-1.5 6.3-2.3 10.5-7.9 2.5-3.4 7.1-11.3 10.2-17.5 3.1-6.2 9.9-23 15.2-37.3 5.2-14.3 12-33.4 15-42.5 3.1-9.1 7.4-22.5 9.7-29.8 3.4-11.1 4.4-13.5 6.8-14.9 1.5-.9 3.8-1.7 5.2-1.6 1.4 0 4.1-.6 6-1.4 2.2-1 4.8-1.2 7-.8 1.9.4 4.8 1.4 6.5 2.3 1.7.8 5.2 3.6 7.9 6.1 2.6 2.5 6.3 7.3 8.2 10.6 1.8 3.3 4.7 10 6.4 15 1.7 5 4.9 16.4 7 25.5 2.1 9.1 5.3 20.7 6.9 25.7 1.7 5.1 4.4 12.1 5.9 15.5 1.6 3.5 4.4 8.7 6.3 11.5 2.2 3.4 5 6.1 7.9 7.7 2.5 1.4 6.5 3.2 9 4.1 2.5.9 7.4 2.2 11 2.9 5.4 1.1 6.9 1.1 9 0 1.4-.7 3.7-1.3 5.3-1.4 1.5 0 4.6-.9 7-2.1 2.3-1.2 7.4-4.5 11.2-7.4 3.8-2.9 8.6-7.2 10.6-9.6 2-2.4 5-7.1 6.6-10.4 1.7-3.3 4.2-9.4 5.6-13.5 1.4-4.1 3.7-12 5.1-17.5 1.4-5.5 3.2-15.2 4-21.5.8-6.3 1.8-15.1 2.1-19.5.3-4.4 1.5-16.5 2.6-27s3.3-26.7 4.9-36c1.5-9.3 6-33.4 10-53.5 3.9-20.1 9.5-49.8 12.5-66 2.9-16.2 6.3-36 7.4-44 1.1-8 2.7-20.8 3.6-28.5.9-7.7 3.3-35.3 5.5-61.3 2.2-25.9 4-49 4-51.2 0-2.2-.2-4-.5-4s-2.6 1.6-5.2 3.6c-2.7 2-7.3 4.9-10.3 6.4-3 1.5-10.9 5.1-17.5 8-6.6 2.8-17 6.7-23 8.5-6 1.8-20 5.2-31 7.4s-26.1 4.8-33.5 5.7c-7.4.8-14.3 1.3-15.2 1-1.4-.5-1.9.1-2.3 2.1-.3 1.6-1.6 4.4-3.1 6.3-1.4 1.9-3.7 4.3-5.2 5.2-1.5 1-3.9 1.8-5.4 1.8-1.6 0-4.1-.7-5.8-1.5-2.9-1.5-3.1-1.4-5 1.5-1.8 2.6-2.6 3-6.7 3-4.7-.1-5.1-.3-13.6-8.8l-8.7-8.7c.1 11.5-.4 13.4-1.7 14.7-1 1-2.5 1.8-3.3 1.8-.8 0-2.1-.5-2.8-1.2-.8-.8-1.2-4-1.2-8.6 0-6.9-.1-7.2-2-6.2-1.1.5-2.7.8-3.5.5-.9-.3-2 .5-2.9 2.2-.8 1.6-2.7 4.1-4.3 5.6q-2.8 2.8-7.5 3.5c-4.6.7-4.7.6-9.6-4.3-2.7-2.8-5.1-5.7-5.4-6.5-.5-1.2-.9-1.2-2.2.5-1 1.1-3.1 4.9-4.8 8.5-1.6 3.6-4.2 7.7-5.6 9.3-1.5 1.5-3.3 2.7-3.9 2.7-.7 0-2-.7-2.8-1.5-1.1-1.1-1.4-2.8-1-6l.5-4.5c-12 1.1-14.2.9-16.8-.4-1.7-.9-4.2-3.1-5.4-4.9-1.2-1.7-2.4-4.9-2.7-7-.5-2.7-1-3.6-2.1-3.2-.8.3-5.5-.1-10.5-1-5-.8-13.7-2.6-19.5-4-5.8-1.4-17.5-4.6-26-7-8.5-2.4-21.1-6.5-28-9-6.9-2.5-19.7-8.1-28.5-12.4-8.8-4.4-21.4-11.5-28-15.9-6.6-4.4-16.5-11.8-22-16.4-5.5-4.7-13.8-12.5-18.4-17.4-4.7-4.9-12.5-13.9-17.4-19.9-4.9-6-12.7-16.6-17.3-23.5-4.5-6.9-10.7-17.2-13.7-23-3.1-5.8-7-15.2-8.8-21-1.8-5.8-3.4-10.7-3.7-11-.2-.3-4.8-1.3-10.1-2.2-5.3-1-14.8-2.4-21.1-3.2-6.3-.8-19.6-2-29.5-2.7-9.9-.7-31-1.3-47-1.2-21 0-35.5.6-52.5 2.2-12.9 1.1-34.1 3.4-47 5.1-12.9 1.7-27.3 3.7-32 4.6-4.7.8-13 2.7-18.5 4-5.5 1.4-16.3 4.3-24 6.5-7.7 2.2-17.4 4.3-21.5 4.6-5.7.5-8.6.3-12-1-2.7-1-6.3-3.5-9.1-6.4-2.7-2.8-5.4-7-6.6-10.3-1.1-3-3-10.2-4.2-16-1.1-5.8-2.7-15.7-3.6-22-.8-6.3-1.9-17.1-2.5-24-.5-6.9-1.7-27.1-2.5-45s-2.2-41.5-3-52.5c-.9-11-2.2-24-3.1-29-.8-5-2.6-13.4-4-18.8-1.3-5.3-3.4-12.1-4.7-15-1.3-2.8-4.1-7.1-6.3-9.5-2.1-2.4-6.6-5.7-9.9-7.3-4.7-2.3-7.3-2.9-12-2.8-3.3 0-8.2.8-11 1.8-2.7 1-7.7 3.2-11 4.9zm542.6 42.9c-3 2.6-9.1 9.8-13.6 15.8-4.6 6-11.6 16.2-15.7 22.5-4.1 6.3-9 14.4-11 18-1.9 3.6-7.6 15.3-12.5 26-5 10.7-11.5 25.8-14.6 33.5-3.6 9-7.9 22.9-12 39-3.6 13.7-7.4 26.8-8.5 29-1.1 2.2-3.1 5-4.4 6.2-1.2 1.2-4 2.9-6.1 3.7-2 .9-6.1 1.9-9.1 2.3l-5.4.8c1.6 4.6 5 12.1 8.5 19.5s8.5 16.6 11.1 20.5c2.6 3.9 8.1 11.3 12.3 16.5 4.2 5.2 12.7 14.6 19 20.9 6.3 6.3 15.9 15.1 21.4 19.6 5.5 4.5 14.3 11.2 19.5 14.9 5.2 3.7 13.3 9.1 18 11.9 4.7 2.8 13.5 7.4 19.5 10.3 6 2.8 17.3 7.2 25 9.8 7.7 2.6 19 6 25 7.6 6 1.6 18.4 4.5 27.5 6.4 9.1 1.9 17.2 3.7 18 4.1 1 .4 2-.3 3-2.1.8-1.4 3.1-3.9 5-5.4 1.9-1.5 5.5-3.8 8-5.1 3.4-1.7 6.2-2.3 11.2-2.4 5.2 0 7.2.4 9.5 2.1 2.1 1.6 2.8 2.9 2.8 5.5 0 3-.3 3.4-3 3.7-1.7.2-3.4-.2-4-1-.5-.8-1.8-1.7-2.8-2.1-.9-.4-3.8 0-6.5.8-2.6.8-6.5 2.9-8.6 4.7-2.2 1.8-4.8 5.1-5.8 7.3-.9 2.2-1.8 5.9-1.8 8.2 0 3.2.6 4.9 2.2 6.4 2 1.8 3 2.1 6.8 1.4 2.5-.4 6.1-1.3 8-2.1 1.9-.8 4.1-1.4 4.7-1.4.7 0 2.8-1.1 4.5-2.5 1.8-1.3 4.3-2.5 5.5-2.5 2.1 0 2.3-.5 2.3-5.8.1-3.1.9-8 1.8-10.7 1.6-4.7 1.9-5 5.2-5 3.2 0 3.5.2 3.4 3-.1 1.6-.6 5.6-1.3 8.7-.8 4.3-.8 6.9 0 10 .6 2.4 2 5.5 3 7 1 1.6 2.6 2.8 3.4 2.8.8 0 2.3-.8 3.2-1.9 1-1 2.4-3.8 3.2-6.2.7-2.4 1.7-9 2.2-14.7.5-5.6 1.1-10.7 1.4-11.2.3-.5 1.8-1 3.5-1q3 0 4 2c.6 1.2.7 5.8.3 11.7l-.7 9.8c5.1-3.3 5.4-4.1 5.4-9.3 0-3.1.5-7.4 1-9.5.8-2.9 1.6-3.8 3.7-4.3 1.6-.3 3.9-1 5.3-1.6 1.4-.5 4.1-.7 6-.4 1.9.3 4.7 1.8 6.2 3.3 1.5 1.6 3 4.2 3.4 5.8.3 1.6.2 4.6-.4 6.5-.6 1.9-3.2 5.5-5.8 8l-4.6 4.5c10.6 10.5 14.3 13.5 14.9 13.5.7 0 1.9-1 2.6-2.3 1.2-1.9 1.1-2.9-.4-7.2-1.2-3.3-1.8-8-1.9-13.5 0-6 .4-9.2 1.5-10.8.8-1.2 2.2-2.2 3-2.2.8 0 2.2 1 3 2.2 1 1.6 1.3 3.8.8 7.3-.3 3.2 0 7.1 1.1 11 .9 3.3 2.9 7.5 4.4 9.4 1.9 2.5 3.2 3.2 4.4 2.8 1-.4 2.5-2.2 3.5-4 .9-1.7 1.8-6.6 2.1-10.7.3-5.4-.1-9.5-1.4-14.6-1.7-6.4-1.7-7.4-.4-8.8.8-.9 2.4-1.7 3.5-1.7s2.5.6 3.1 1.3c.6.7 1.9 3.5 2.8 6.3.9 2.7 1.6 6 1.6 7.2 0 2.2.3 2.3 6.2 1.7 3.5-.3 11.7-1.2 18.3-2 6.6-.8 17.4-2.6 24-3.9 6.6-1.3 17.4-4.3 24-6.5 6.6-2.3 17.6-6.4 24.5-9.1 6.9-2.7 15.7-6.7 19.5-9 3.8-2.2 10.3-6.4 14.2-9.2 4-2.9 7.5-5.8 7.8-6.5.3-.6 1-20.9 1.7-45 .7-24 1.2-61.9 1.2-84.2 0-37.6-.2-42.2-2.8-64.5-1.5-13.2-3.8-30.5-5.2-38.5-1.3-8-4-19.7-6-26-2-6.3-6.3-16.9-9.6-23.5-3.3-6.6-7.5-14.3-9.3-17-1.9-2.8-5.6-7.7-8.2-11-2.7-3.3-6.2-6.7-7.8-7.5-1.7-.8-5.5-1.5-8.5-1.4-3.1 0-6.9.8-8.8 1.7-1.7.9-4.9 3.2-6.9 4.9-2 1.8-7.9 8.5-13.2 14.8-5.2 6.3-12.5 14.5-16.1 18.1-3.6 3.6-9.7 8.9-13.5 11.8-3.8 2.9-9.7 6.5-13 8.1-3.3 1.6-9.6 3.8-14 5-4.4 1.1-13 2.8-19 3.7-7.6 1.2-17.8 1.7-33 1.7-12.1.1-30.3-.5-40.5-1.2s-26.2-1.6-35.5-2.2c-9.3-.5-20.6-1.6-25-2.5-4.4-.9-10.9-3-14.5-4.7-4-2-8.6-5.3-12-8.8-3-3.1-7.5-9.2-9.9-13.6-2.4-4.3-6.1-10.6-8.2-13.9-2.1-3.3-7.4-9.5-11.8-13.8-4.6-4.4-10.4-8.8-13.4-10.2-3.7-1.8-6.8-2.5-10.7-2.4-3 0-7.3.7-9.5 1.4-2.2.8-6.4 3.6-9.4 6.2zM1146.7 818c4.2 3.6 9.9 8.2 12.7 10.3 2.8 2.1 5.9 4.3 6.8 4.8 1 .5 1.8.8 1.8.6.1-.1-3.2-2.7-7.2-5.7s-10.5-8.3-14.4-11.8c-3.9-3.5-7.2-6-7.3-5.5-.1.4 3.3 3.7 7.6 7.3zm249.3 63.7c0 1.8.5 3.3 1 3.3s2.6-1.6 4.5-3.5c2.3-2.3 3.4-4.3 3.2-5.7-.1-1.3-.9-2.3-1.7-2.4-.8-.1-2.7 1-4.2 2.5q-2.7 2.6-2.8 5.8zm163.1 318.3c-.6 4.7-1.7 17-2.6 27.5-.8 10.4-2.2 23.3-3 28.5-.8 5.2-1.4 9.6-1.3 9.6.2.1 10.6.6 23.3 1.3 12.7.6 32.7 1.1 44.5 1.1 11.8 0 37.5.5 57 1s51.9 1.9 72 2.9c20.1 1.1 49.3 2.5 65 3.1 15.7.6 34.1 1.5 41 2 6.9.6 14.2 1.2 16.2 1.5 2.2.3 3.8.1 3.8-.5s-3-3-6.8-5.4c-3.7-2.4-10.3-6.4-14.7-8.8-4.4-2.5-13.6-6.9-20.5-9.8-6.9-2.9-22.8-9-35.5-13.5-12.7-4.6-29.5-10.4-37.5-12.9-8-2.6-22.6-6.7-32.5-9.2-9.9-2.5-29.3-7-43-10-13.8-3.1-35.8-7.7-49-10.4-13.2-2.7-30.5-5.8-38.5-6.9-8-1.1-17.9-2.3-22-2.6-4.1-.3-8.9-.8-10.7-1.1-2.7-.4-3.2-.1-3.7 1.8-.3 1.3-1 6.1-1.5 10.8zm-945.1-5.4c-5.4.2-16.7 2.1-31 5.3-12.4 2.7-38 8.6-57 13.1-19 4.4-42.4 9.9-52 12.1-9.6 2.3-20.2 5-23.5 6-3.3 1-7.1 1.9-8.5 1.9-1.4 0-4.3-.9-6.5-2s-4.1-2-4.3-2c-.1 0-2.1 3.7-4.4 8.2-2.2 4.6-8.8 18.2-14.5 30.3-5.7 12.1-10.3 23.2-10.3 24.7 0 1.6-.3 3.5-.8 4.4-.4.9-1.9 2.3-3.5 3-1.5.8-4.6 1.4-7 1.4-2.3 0-19.7 2.2-38.7 4.9-19 2.7-37.4 5.2-41 5.6-3.8.4-8.6.2-11.5-.5-2.8-.6-6.1-2.1-7.4-3.3-1.3-1.2-2.7-3.2-3.2-4.5-.6-1.4-.5-3.3.3-5.4.9-2 2.5-3.6 4.5-4.5 1.8-.7 3.8-2.3 4.4-3.6.7-1.2 3.2-4.7 5.7-7.7s6.8-7.9 9.6-10.7c2.8-2.9 4.8-5.5 4.3-5.8-.4-.3-11.2 4.7-24 11-12.7 6.3-36.5 18.4-52.7 26.8-16.2 8.4-33.8 17.7-39 20.7-5.2 3-16.9 9.9-26 15.5-9.1 5.6-20.8 13-26 16.5-5.2 3.5-12.8 8.8-16.8 11.7-3.9 2.9-6.9 5.5-6.4 5.7.4.2 7.5-1.6 15.7-4 8.3-2.4 21.1-5.9 28.5-7.8 7.4-1.9 21.2-5.2 30.5-7.4s30.5-7.4 47-11.5c16.5-4.2 39.7-9.9 51.5-12.8 11.8-2.8 30.9-7.8 42.5-11.1 11.6-3.2 24.6-6.7 29-7.7 4.4-1.1 12.1-2.4 17-3.1 4.9-.6 10.2-1.3 11.8-1.6 2.1-.3 2.7-.9 2.7-2.9 0-1.4 1-3.5 2.3-4.8 1.6-1.7 4.2-2.6 9.7-3.5 4.1-.6 17.6-2.8 30-4.7 12.4-2 26.8-4.3 32-5.1 6.4-1 23.6-1.8 52.5-2.4 23.6-.5 50.2-1.4 59-1.9 8.8-.6 29.8-1 46.8-1.1 23.9 0 30.7-.3 30.7-1.3 0-.6-1.8-5.5-4.1-10.7-2.2-5.2-8.5-18.7-13.9-30s-12.2-26.1-15.1-32.9c-3-6.8-5.7-12.5-6-12.7-.3-.1-1.5.2-2.5.8-1 .6-5.7 1.2-10.4 1.4zm-239.1 45.5c-12.9 11.3-26.5 24-30.4 28.2-4.6 5.1-8.2 8.1-10.5 8.8-1.9.7-4.1 1.7-4.8 2.3-.7.6-1.3 1.3-1.2 1.6 0 .3 4.8 0 10.8-.7 5.9-.6 16.6-1.4 23.7-1.8 7.1-.4 13.5-1 14.1-1.3.6-.4 7-12.4 14.2-26.7 7.2-14.3 15.2-29.6 17.7-34 2.5-4.4 4.5-8.1 4.5-8.3 0-.1-.3-.2-.8-.1-.4 0-3.7 2.6-7.3 5.7-3.6 3.1-17.1 15-30 26.3zm459.1-.1c-.5 6.9-1.8 17.9-3 24.5l-2 12c4 3.1 7.5 8.4 10.4 13.9 2.8 5.4 6.1 10.9 7.3 12.2 1.4 1.4 3.5 2.4 5 2.4 1.6 0 4.9-1.3 7.5-3 2.7-1.6 5.5-4 6.3-5.3.8-1.2 3.3-6.4 5.5-11.5 2.2-5 5.1-13.1 6.5-18 1.4-4.8 3.4-15.5 4.5-23.7 1-8.3 1.8-15.1 1.7-15.2-.1-.1-6.3-2-13.7-4.3-7.4-2.2-17.8-5.9-23-8.2-5.2-2.2-10-4.3-10.6-4.5-.7-.4-1.1 2.2-1.3 7.8-.1 4.6-.6 14-1.1 20.9zm545.5-11.2c-.9 3.1-4.1 14-7.1 24.2s-5.4 18.6-5.2 18.6c.2.1 8.6-.8 18.8-2 14.4-1.6 18.5-2.4 18.8-3.6.2-.8-1-6.7-2.6-13-1.7-6.3-3.9-14-5.1-17-1.1-3-3.6-7.4-5.6-9.8-1.9-2.3-4.3-4.1-5.3-4.1-.9.1-2.5.3-3.4.6-1 .3-2.3 2.6-3.3 6.1zm-216 4.1c-6.6 1.1-15.8 2.5-20.5 3-4.7.6-17 1.7-27.5 2.6-10.5.8-32.7 2.9-49.5 4.5-16.8 1.6-36.3 3.2-43.5 3.6-8.8.4-19 .1-31.5-1-10.2-.9-28.9-3.2-41.5-5.2-12.7-1.9-28.3-4.5-34.9-5.7-7.3-1.4-11.9-1.8-12.1-1.2-.2.5-.6 6.4-1 13-.3 6.6-1 15-1.5 18.7-.6 3.8-.8 7.1-.6 7.5.2.5 12.3-.2 26.8-1.5 16.2-1.4 41.5-2.6 65.8-3.2 21.7-.5 45.6-1.4 53-1.9 7.4-.6 19.8-1 27.5-1.1 7.7 0 24.3.9 37 1.9 12.7 1.1 30.9 2.5 40.5 3.1 9.6.6 26.5 1.5 37.5 1.9 11 .4 20.1.7 20.3.7.1-.1-.9-6.9-2.3-15.1-1.4-8.3-3.3-17.9-4.3-21.4-.9-3.5-2.2-6.5-2.7-6.6-.5-.1-6 .1-12 .6-6 .4-16.4 1.6-23 2.8zm-152 48c-11.5.1-29.1.6-39 1.1-9.9.6-30.9 2.1-46.8 3.5-15.8 1.4-29.4 2.5-30.2 2.5-.8 0-3.1 3.1-5.3 7.2-2.4 4.7-6.4 10-11.2 14.9-5.7 5.9-9.2 8.5-14.5 11-5.2 2.4-8.4 3.3-12.5 3.3-3.9 0-7.1-.8-11-2.6-3-1.4-7-4.3-8.8-6.4-1.8-2.2-4.7-6.7-6.5-10.1-1.7-3.5-3.4-6.3-3.7-6.2-.3 0-3.3 5.7-6.6 12.7-3.9 8.1-9 16.5-14 23.2-4.3 5.8-11.7 14.3-16.4 19-4.8 4.9-11.9 10.7-16.5 13.5-4.4 2.7-10.6 5.7-13.8 6.7-3.1 1-8.7 1.8-12.5 1.8-3.7-.1-9-.8-11.7-1.8-2.8-.9-7.7-3.3-10.9-5.2-3.2-1.9-8.6-6.2-12-9.5-3.4-3.3-8.5-9.6-11.4-14-2.9-4.4-8-13.4-11.2-20-3.3-6.6-7.7-16.5-9.9-22l-3.9-10c-43.9.1-66.2.7-77.7 1.4s-39.9 1.6-63 2.1c-30.1.6-45 1.3-52.5 2.4-5.8.9-15.2 2.4-20.9 3.4l-10.4 1.7c-2.1 7-4.4 11-6.4 13.5s-7.3 8.8-11.8 14c-4.5 5.2-11.3 14-15.2 19.5-3.9 5.5-12.3 18.2-18.7 28.2-8.9 14-11.4 18.7-10.6 19.8.9 1.3 1.3 1.3 4 0 1.7-.8 4.3-1.3 6-1 1.7.3 3.9 1.7 5 3.2 1.2 1.6 2.1 4.3 2 6 0 1.8-.4 4.1-.9 5-.4 1-3 2.8-5.7 4-2.7 1.1-8.5 2.7-12.9 3.4-5.3.9-18.1 1.3-38 1.3-25.7 0-32-.3-44-2.1-7.7-1.2-17.2-3.2-21-4.4-4.9-1.5-8-3.2-10.3-5.5-2-2.1-3.2-4.4-3.2-6.2-.1-1.5 1-4 2.2-5.6 1.3-1.6 5-4.2 8.3-5.9 4.9-2.4 6.8-2.8 10.2-2.3l4.3.6c7.3-9.7 11.7-14.9 14.5-17.9 2.7-3 8.6-8.1 13-11.4 4.4-3.2 13.8-9.5 21-14 7.1-4.4 19.3-11.6 27-15.9 7.7-4.3 13.4-7.8 12.7-7.8-.6 0-3.6.9-6.5 1.9-2.8 1.1-14.9 4.7-26.7 7.9-11.8 3.3-30.3 8.1-41 10.6-10.7 2.6-33.9 8.4-51.5 12.8s-40.8 10-51.5 12.5c-10.7 2.5-26.5 6.3-35 8.5s-19.8 5.1-25 6.4c-5.2 1.4-10.8 2.8-12.4 3.2l-2.9.7c9.2 7.2 17 10.9 31.8 17 11.5 4.8 34.5 13.7 51 20 16.5 6.2 40.8 15 54 19.5 13.2 4.5 41.3 13.1 62.5 19.2 21.2 6 50 13.9 64 17.5 14 3.5 37.6 8.9 52.5 11.8 14.8 3 39.8 7.6 55.5 10.4 15.7 2.7 38.2 6.3 50 8 11.8 1.7 36.1 4.6 54 6.5 17.9 1.9 40.6 4.2 50.5 5 9.9.9 25.2 2 34 2.6 8.8.5 40.5 2.4 70.5 4s65.1 3.4 78 4c12.9.5 37.5 1.5 54.5 2s48.8 1 70.5 1c21.7 0 64.9-.5 96-1 31.1-.5 66.6-1.5 79-2 12.4-.6 34.2-2 48.5-3.1 14.3-1.1 33.9-2.9 43.5-4 9.6-1.1 24.5-2.9 33-4s20-2.7 25.5-3.5c5.5-.8 17.9-2.8 27.5-4.5 9.6-1.6 24.9-4.6 34-6.5 9.1-2 27.1-6 40-9 12.9-3 30.5-7.3 39-9.5s21.8-5.9 29.5-8.1c7.7-2.2 29.3-8.7 48-14.5 18.7-5.7 44.3-13.8 57-18 12.7-4.2 31.3-10.6 41.5-14.3 10.2-3.7 27.3-10.2 38-14.3 10.7-4.1 25.6-10 33-13 7.4-3 17.5-7.2 22.5-9.3 5-2.1 19.6-9.1 32.5-15.5 12.9-6.5 31.6-16.6 41.5-22.5 9.9-5.8 22.3-13.4 27.5-16.8 5.2-3.3 15.3-10.1 22.5-15 7.2-5 20.8-14.8 30.2-21.8 9.5-7 17.5-13.1 17.7-13.6.2-.4-4.4-1-10.2-1.5-5.9-.4-30-1.4-53.7-2.2-23.7-.8-45-1.7-47.5-2-2.5-.2-12.4-.9-22-1.5-9.6-.5-32.6-1.4-51-2-18.4-.5-47.9-1.2-65.5-1.5-17.6-.2-40.1-.8-50-1.1l-18-.6c-4.4 13.7-7.6 21.7-10 26.7-2.3 5-6.1 11.4-8.4 14.2-2.2 2.9-8 8.5-12.9 12.3-4.8 3.9-11.2 8.4-14.2 10.1-3 1.6-7.1 4.1-9 5.5-2.8 1.9-4.7 2.5-9.3 2.4-3.1 0-9.2-.5-13.5-1.1-4.2-.6-10.6-2-14.2-3.1-3.6-1.1-9.2-3.3-12.5-4.9-3.3-1.6-8.2-5-10.9-7.6-2.7-2.7-6.6-7.7-8.7-11.3-2.1-3.6-5.4-10.3-7.3-15-1.9-4.7-4.6-12.5-6.1-17.5-1.6-5-3.1-9.3-3.4-9.7-.3-.5-10.7.6-23.1 2.3-12.4 1.6-22.8 3.3-23.2 3.7-.3.4-2.9 7-5.6 14.7-2.8 7.7-6.4 17.5-8.1 21.7-1.7 4.3-5.5 12.6-8.5 18.5-2.9 6-8 14.4-11.3 18.8-3.3 4.4-8.7 10.6-12.1 13.7-4.1 3.8-7.7 6.2-10.5 7-3.3.9-4.8.9-7.2-.1-1.7-.7-8.2-2-14.5-2.7-7.5-1-15.4-2.8-22.5-5.2-6-2-13.5-5.3-16.5-7.2-3-2-7.5-5.9-9.8-8.6-2.4-2.7-6-7.6-7.9-10.9-1.9-3.3-4.5-8.5-5.8-11.5-1.3-3-3.3-9.5-4.4-14.5-1.2-5-3.2-14.8-4.5-22l-2.2-13c-13.1-.4-30.4-.9-46.9-1.5-16.5-.5-40.6-1.9-53.5-3-13.8-1.2-30.5-1.9-40.5-1.8-9.3.1-21.5.5-27 .8-5.5.4-19.5.8-31 .9zm-655 74.9c-11 6.3-22.5 13.2-25.5 15.2s-7.8 5.6-10.5 8c-2.8 2.4-7.6 7.3-10.7 10.9-3.2 3.6-5.8 7.2-5.8 7.8 0 .8 1.3 1.3 3 1.3 1.6 0 9.6-.5 17.7-1 8.2-.6 18.5-1.2 23-1.5 7.1-.4 8.3-.8 8.3-2.3 0-.9 1.2-4.2 2.6-7.2 1.4-3 6-10.5 10.3-16.5 4.3-6.1 10.9-15.9 14.7-21.8 3.8-5.9 6.6-10.9 6.3-11.1-.3-.3-3.4 1.2-7 3.1-3.5 2-15.4 8.8-26.4 15.1zm6.5 151.7c8.5 3.1 21.6 7.4 29 9.6 7.4 2.2 24.7 6.4 38.5 9.3 13.7 3 30.6 6.4 37.5 7.5 6.9 1.2 25.1 4.1 40.5 6.6 15.4 2.4 33.4 5.2 40 6.1 6.6.9 18 1.9 25.3 2.2 12.9.7 13.3.6 13-1.3-.3-1.7-1.4-2.1-7.3-2.8-3.9-.4-17.1-2.1-29.5-3.8-12.4-1.6-33.1-4.8-46-7-12.9-2.1-36.6-6.4-52.5-9.5-16-3-36.9-7.3-46.5-9.5-9.6-2.2-26.1-6.3-36.5-9.1-10.5-2.8-20.1-5.3-21.5-5.5-1.9-.3-2.1-.2-1 .6.8.5 8.5 3.5 17 6.6zm758.8 56.6q-.2 1.2 3.3.5c1.9-.3 5.8-.6 8.7-.6 2.8 0 5.2-.5 5.2-1s-.6-.9-1.2-.8c-.7.1-4.6.3-8.5.5-4.4.2-7.4.7-7.5 1.4zm-36.8 1.2c1.4.4 5.4.5 9 .3 3.6-.2 9.5-.4 13.3-.5 3.7-.1 6.7-.5 6.7-1.1 0-.5-1-.9-2.2-.8-1.3.1-8.4.5-15.8.8-8.5.3-12.6.8-11 1.3zm450.5-1020.7c1.6 1.2 1.9 2.5 1.7 6.9-.2 5 0 5.5 1.9 5.8 1.2.1 3.1 1.5 4.3 3 1.4 2 2.2 4.8 2.5 9 .2 3.4-.2 9.3-.9 13.2-.7 3.9-1.9 8.5-2.6 10.3-.8 1.7-2.4 3.9-3.6 4.7-1.5 1-3 1.2-4.2.8-1.1-.5-2.2-1.7-2.6-2.8-.4-1.1.1-5.1 1-9 1-3.9 1.9-9.2 2.1-12 .4-4.7.3-5-1.8-4.7-1.3.1-3.2-.3-4.3-.8-1.1-.5-2.5-2.1-3-3.5-.7-1.8-.6-4.6.5-9.7.9-4 1.8-8.1 2-9 .3-1 1.5-2.2 2.7-2.7 1.6-.6 2.9-.5 4.3.5zm-324.6 7.6c1.7.2 3 1.3 3.8 3.1 1 2.1 2 2.7 4.3 2.7 1.9 0 3.9.9 5.5 2.5 1.4 1.4 4.5 6.9 7 12.3 2.5 5.3 4.5 10.4 4.5 11.2 0 .8-.5 2.1-1.2 2.8-.7.6-2.5 1.2-4 1.2-1.8 0-3.5-.9-4.5-2.3-1-1.3-2.7-4.2-3.8-6.5-1.1-2.4-2.2-4.3-2.5-4.3-.3 0-1.2.7-2 1.6-.8.9-2.7 1.6-4.2 1.5-1.7 0-3.5-.9-4.6-2.2-1-1.3-2.3-5.8-3-10-.7-4.3-.9-8.6-.5-9.5.3-1 1.1-2.4 1.6-3.1.6-.7 2.2-1.2 3.6-1zm108.6 86.2c5.7.2 8.4.9 14.5 3.9 5.2 2.5 9.4 5.5 13.7 9.9 3.9 4.1 7.2 8.6 9.1 12.8 1.7 3.6 3.5 9.4 4.2 13 .7 3.8.9 9.6.6 14-.4 4.1-1.7 11.5-3 16.5s-3.6 11.7-5.1 15c-1.4 3.3-4.6 8.7-6.9 12-2.4 3.3-5.8 7.3-7.7 8.9-1.9 1.6-5.9 4-8.9 5.4-4 1.8-7.9 2.6-14.5 3-5.6.3-11.1 0-14.5-.8-3-.7-8-2.5-11-4.1-3-1.6-7.7-5-10.4-7.7-2.7-2.6-6.1-6.5-7.6-8.7-1.6-2.2-4-7.5-5.4-11.7-2.1-6.2-2.6-9.7-2.6-17 0-5.1.7-12.4 1.5-16.3.8-3.9 3.6-11.3 6.1-16.5 3.8-7.8 6.1-11 12.8-17.6 7.5-7.4 8.7-8.2 16.1-10.7 4.4-1.4 8.9-2.8 10-3.1 1.1-.3 5.2-.4 9-.2zm-20 20.4c-2.8 2.3-6.1 4.5-7.6 4.8-1.7.3-3.5 2.2-5.9 6.2-1.9 3.1-4.6 8.6-5.9 12.2-2.1 5.6-2.5 8.3-2.5 19-.1 11.6.1 12.9 2.7 18.3 1.5 3.1 4.8 7.9 7.5 10.5 2.6 2.6 7 5.9 9.7 7.2 4.3 2.1 6.3 2.5 14.5 2.4 7.5 0 10.3-.5 13.5-2.1 2.2-1.1 5.6-3.8 7.5-6 1.9-2.2 4.9-6.7 6.7-9.9 1.7-3.2 4.4-10.4 5.8-15.9 2.3-8.3 2.6-11.6 2.3-19.5-.2-7.7-.8-10.5-2.9-15-1.5-3-4.6-7.5-7-9.9-2.4-2.3-6.4-5.3-8.9-6.6-2.5-1.3-6.7-2.6-9.5-2.9-3.5-.5-6.5-.1-10 1.1-2.8 1-7.3 3.7-10 6.1zm129-16.7c2.2 0 6 .4 8.5.9 2.5.6 6.8 2 9.5 3.2 2.8 1.1 7.5 3.7 10.5 5.8 3 2 7.9 6.3 10.8 9.6 2.9 3.2 6.6 8.6 8.2 11.9 1.6 3.3 3.4 8.5 4.1 11.5.7 3.3 1 9.4.6 15.5-.4 7.8-1.2 11.8-3.6 18.5-1.8 4.7-4.2 10.3-5.5 12.5-1.3 2.2-4.8 6.4-7.7 9.3-3 3-8.6 7.3-12.4 9.7-3.8 2.4-9.7 5.1-13 6.1-4.1 1.1-8 1.5-12.5 1.1-3.6-.2-8.7-1.5-11.5-2.7-2.7-1.2-7.2-3.8-10-5.9-2.7-2-7.1-6.4-9.7-9.7-2.5-3.2-6-8.8-7.7-12.4-1.6-3.6-3.7-9.2-4.6-12.5-.8-3.3-1.5-9.6-1.5-14 0-4.8.8-11.2 2-16 1.2-4.4 3.5-10.9 5.3-14.4 1.8-3.6 5.7-9.4 8.7-13 3-3.6 7.3-7.8 9.5-9.3 2.5-1.8 6.7-3.4 11-4.2 3.8-.8 8.8-1.4 11-1.5zm-15.1 16.8c-1.2.1-3.8 2.3-6.6 5.9-2.5 3.1-5.7 8.1-7.2 11-1.4 2.8-3.3 8-4.1 11.5-.8 3.4-1.5 8.8-1.5 12 0 3.1.5 8.1 1.1 11 .6 2.8 2.4 7.9 3.9 11.2 1.5 3.3 5 8.5 7.8 11.5 2.7 3 7.3 6.8 10.3 8.5 4.3 2.3 6.6 3 11.4 3 4.5 0 7.4-.7 11.5-2.7 3-1.5 8.2-4.9 11.5-7.5 4.7-3.8 6.8-6.5 9.8-12.3 2-4.1 4.4-10.4 5.3-14 1.2-4.6 1.5-8.8 1.1-14.5-.5-6.1-1.3-9.5-3.6-14-1.7-3.5-5.4-8.4-8.8-11.6-3.2-3.2-8.5-6.9-11.8-8.5-4.6-2.2-7.7-2.9-13.5-3.1-4.7-.2-8.8.3-11 1.2-1.9.7-4.4 1.4-5.6 1.4zm142.9 56.1c.9 0 2.4.8 3.3 1.8.9.9 1.4 2.8 1.2 4.2-.2 1.9-1.8 3.3-6.8 5.9-3.6 1.8-11.3 6-17.2 9.2-6 3.2-11.9 5.9-13.3 5.9-1.5 0-2.9-.8-3.5-2-.5-1.1-.8-2.9-.5-4 .3-1.2 4.7-4.5 11.8-8.7 6.1-3.6 13.9-7.9 17.2-9.4 3.3-1.6 6.8-2.8 7.8-2.9zm-187.3 7c1.4 0 4 .8 5.9 1.8 1.9.9 4.3 3.3 5.3 5.2 1 1.9 1.8 5.2 1.8 7.3 0 2-.7 5.6-1.7 8-1.2 3.2-1.5 5.8-1 11.2.4 3.9 1 8.6 1.3 10.5.5 2.8.1 4.1-1.8 6.5-1.4 1.6-3.3 3.3-4.4 3.6-1 .3-2.9.2-4.1-.2-1.7-.7-2.3-1.7-2.3-3.9 0-1.6.5-3.3 1.1-3.7.8-.6.9-2.6.5-6.3-.4-3-.9-6.5-1.2-7.7-.2-1.5-1.9-3.1-4.4-4.3-2.9-1.5-4.7-3.3-6.5-7-1.4-2.7-2.5-6-2.5-7.2 0-1.3 1.2-4 2.6-6.2 1.5-2.1 4-4.7 5.8-5.7 1.7-1.1 4.2-1.9 5.6-1.9zm-196.3 8c3.4 0 10.7.5 16.1 1.1 5.3.5 11.4 1.4 13.5 2 2 .5 4.1 1.8 4.7 2.9.6 1.1.8 2.9.5 4-.3 1.1-1.5 2.3-2.7 2.6-1.3.3-5.9 0-10.3-.7-4.4-.6-13.2-1.2-19.5-1.3-6.3-.1-12.1-.5-12.7-.9-.7-.4-1.3-1.8-1.4-3.1-.1-1.6.9-3.2 2.7-4.5 2.1-1.6 4.2-2.1 9.1-2.1zm389.3 5.1c.8-.1 2.2.4 3.1 1.1.9.7 1.9 2.1 2.3 3.1.3 1-.1 2.5-1.1 3.7-1.1 1.1-5.2 2.8-9.8 4-4.4 1.1-11.6 3.3-16 4.9-4.4 1.5-8.8 2.6-9.7 2.4-1-.2-2.1-1.5-2.4-3-.4-1.6-.2-3.5.3-4.3.6-.8 3.9-2.7 7.4-4.2 3.5-1.5 10.5-3.8 15.4-5.2 5-1.3 9.7-2.5 10.5-2.5zm-88.5 8.6c1.1.3 3 1.1 4.3 1.9 1.2.8 3.3 2.9 4.6 4.7 1.3 1.7 2.9 5 3.6 7.2.6 2.2.9 5.1.6 6.5-.3 1.4-2 3.9-3.7 5.5-2.7 2.6-3.9 3-9.5 3.3-5.9.2-6.6 0-9.4-2.8-2.3-2.3-3-3.9-3-7 0-2.8.7-4.8 2.4-6.7 1.9-2.2 2.2-3.2 1.4-4.8-.7-1.4-.6-2.6.3-4.3.8-1.2 2.5-2.7 3.9-3.1 1.4-.5 3.4-.7 4.5-.4zm-1 19.3c.3.3 1.2.2 2-.2.8-.5 1.4-1.6 1.3-2.5-.2-.9-.8-1.8-1.4-2-.6-.2-1.3.6-1.7 1.9-.3 1.3-.4 2.5-.2 2.8zm-218-18.4c1.1.3 4 .7 6.5.8 2.5.1 5.5.8 6.8 1.4 1.2.7 3.1 2.4 4.1 4 1.1 1.5 2.3 4.1 2.7 5.7.4 1.7.2 4.3-.5 6-.6 1.6-2.5 3.8-4.1 4.8-1.7.9-5 1.7-7.5 1.7s-6.3-.9-8.5-2-4.9-3.2-6.1-4.7c-1.1-1.6-2.3-3.9-2.6-5.3-.3-1.4 0-4.2.6-6.2.7-2.4 2.1-4.4 3.9-5.3 1.5-.8 3.6-1.2 4.7-.9zm-71.2 3.5c5.3 0 10.6.4 11.7.9 1.3.6 2 2 2 3.8.1 1.5-.5 3.2-1.2 3.8-.7.6-6.7 1.4-13.3 1.7-6.6.3-14.5 1.1-17.5 1.7-3 .7-6.5.9-7.7.6-1.5-.4-2.5-1.6-2.9-3.3-.4-2 0-3.3 1.3-4.6 1-.9 4.1-2.2 6.8-2.7 2.8-.5 6.3-1.1 8-1.3 1.7-.2 7.4-.5 12.8-.6zm139.9-45.1c2.7 0 4.5.7 6.3 2.5 1.4 1.4 2.8 3.7 3.1 5.3.4 1.9 0 3.5-1.3 5.2-1.1 1.4-3.5 2.9-5.4 3.4-2.7.7-4.2.5-7.3-1-2.1-1-4.3-2.6-4.9-3.4-.5-.8-.7-2.7-.3-4.2.3-1.6 1.8-3.9 3.3-5.3 1.8-1.8 3.7-2.5 6.5-2.5zm107.1 11c1.8 0 4.9 1.1 7 2.5 2.5 1.7 3.9 3.5 4.2 5.5.3 1.7-.2 4.3-1 6-.8 1.6-2.4 3.5-3.5 4s-3.5 1-5.2 1c-2.1 0-4.1-.8-5.6-2.2-1.4-1.4-2.5-4-2.8-6.8-.5-3.6-.2-5 1.6-7.2 1.5-2 3-2.8 5.3-2.8z" style="fill:#000"/>
</svg>
