<svg width="50.873" height="40.228" xmlns="http://www.w3.org/2000/svg">
  <path fill="#f17906" d="M26.699 27.986c-.794 3.066-1.002 6.125-.96 9.28.016 1.066.105 2.996 1.613 2.96 1.628-.041 3.12-2.56 4.147-3.6 3.1-3.136 6.457-5.92 9.92-8.64 2.14-1.683 4.358-3.305 6.72-4.662.998-.573 2.483-1.1 2.707-2.39.374-2.183-3.229-3.895-4.627-5.002-4.39-3.469-8.003-7.738-11.655-11.946-1.05-1.21-3.13-4.208-4.97-3.974-1.708.218-1.551 2.413-1.644 3.654-.189 2.567-.605 5.133-.973 7.68-.125.868-.182 2.333-1.056 2.816-1.373.759-4.125-.185-5.622-.243-4.611-.179-9.472.605-14.08.919-1.389.096-3.83-.736-5.018.038-1.056.688-.755 2.458-.656 3.51.221 2.346-1.862 9.216.91 10.368 2.117.877 5.125-.07 7.324-.124 5.971-.144 11.965-.644 17.92-.644m4.48-22.4c3.747 3.504.803 5.824-.96 9.6h-.32l1.28-9.6m4.16 4.8c1.645 2.016.217 3.287-1.095 5.12-1.859 2.602-5.267 6.228-4.985 9.6l-2.24-.64 5.405-8.64 2.915-5.44m2.56 2.88-.96 1.6.96-1.6m1.6 1.6c.71 1.86-1.162 3.661-2.56 4.8l2.56-4.8m4.48 3.84v.32c-2.18 2.964-5.322 8.336-8.64 9.92l6.4-10.24-.32-.32-3.52 3.52 2.88-5.44 3.2 2.24m-38.72-1.28-1.28 1.92v-2.24l1.28.32m3.52 0c-.62 1.693-3.383 7.71-5.12 7.68l2.88-7.68h2.24m2.24 0-.96 1.28.32-1.28h.64m4.16 0c-1.098 2.464-4.163 7.584-7.04 7.68 1.35-2.854 3.59-7.638 7.04-7.68m3.52 0c-1.197 2.516-3.719 6.183-6.08 7.68l4.16-7.68h1.92m2.88 0-4.16 7.36-1.92.32c.931-2.092 3.737-7.497 6.08-7.68m3.52.32c-1.21 2.103-3.735 6.27-6.08 7.04l4.16-7.36 1.92.32m2.88.32c-.768 2.43-2.66 6.19-5.44 6.4 1.19-2.233 2.633-6.182 5.44-6.4m18.24 2.24v.64l-2.24 1.28.64-2.56 1.6.64m-16.32 4.8-.32.32.32-.32m.32 3.52-.32.32.32-.32m1.6 3.52-2.88 2.88.32-2.56z"/>
</svg>
