<svg width="50.874" height="40.228" xmlns="http://www.w3.org/2000/svg">
  <path fill="#f17906" d="M24.174 27.987c5.956 0 11.949.5 17.92.644 2.2.054 5.207 1.001 7.325.124 2.772-1.152.69-8.022.908-10.368.099-1.052.4-2.822-.655-3.51-1.189-.774-3.628.058-5.018-.038-4.607-.314-9.469-1.098-14.08-.919-1.498.058-4.251 1.002-5.622.243-.873-.483-.931-1.948-1.056-2.816-.368-2.547-.785-5.113-.974-7.68-.09-1.241.064-3.436-1.646-3.654-1.84-.234-3.917 2.765-4.966 3.974-3.655 4.208-7.267 8.477-11.656 11.946-1.399 1.107-5.003 2.82-4.627 5.002.223 1.29 1.71 1.817 2.707 2.39 2.363 1.357 4.578 2.98 6.72 4.662 3.463 2.72 6.82 5.504 9.919 8.64 1.027 1.04 2.52 3.559 4.147 3.6 1.51.036 1.598-1.894 1.613-2.96.044-3.155-.166-6.214-.96-9.28m-4.16-22.4.96 9.6h-.32c-1.915-4.099-4.095-5.478-1.28-9.6h.64m-4.16 4.8 8 14.08-2.24.64c.29-3.472-3.304-7.241-5.212-9.92-1.263-1.772-2.656-3.174-.547-4.8m-2.56 2.88.64 1.6-.64-1.6m-1.6 1.6 2.24 4.8c-1.299-1.056-3.685-3.222-2.24-4.8m-1.6 1.6 2.88 5.44-3.52-3.52-.32.32 6.4 10.24c-3.317-1.584-6.461-6.956-8.64-9.92l3.2-2.56m36.8.64v2.24l-1.28-1.92 1.28-.32m-19.2.32 4.16 7.36c-2.345-.77-4.87-4.937-6.08-7.04l1.92-.32m7.68 7.68-1.92-.32-4.16-7.36c2.341.183 5.148 5.588 6.08 7.68m-1.28-7.68 4.16 7.68c-2.362-1.497-4.884-5.164-6.08-7.68h1.92m8.64 7.68c-2.877-.096-5.942-5.216-7.04-7.68 3.45.042 5.69 4.826 7.04 7.68m-2.56-7.68.64 1.28-.64-1.28m4.16 0 2.88 7.68-.96.32-4.16-8h2.24m-16 7.04c-2.78-.21-4.671-3.97-5.44-6.4 2.807.218 4.25 4.167 5.44 6.4m-22.08-4.8.64 2.56-2.24-1.28v-.64l1.6-.64m15.04 5.44-.32.32.32-.32m-.32 3.52-.32.32.32-.32m.64 3.84.32 2.56-2.88-2.88z"/>
</svg>
