<svg width="23.367" height="23.939" xmlns="http://www.w3.org/2000/svg">
  <path fill="#fd831f" d="M11.532.061C8.489.418 5.423 1.123 3.27 3.453c-7.242 7.84-1.75 21.606 9.542 20.413 5.655-.599 10.163-5.165 10.531-10.826.413-6.323-4.806-13.798-11.81-12.978m.32 1.778-.32.32.32-.32m5.12 1.6-3.2 2.24 1.6-2.24-1.6.96c.908-1.238 1.823-1.99 3.2-.96m1.6.64v.32l-1.92.96 1.92-1.28m-5.12.32-1.92 1.92 1.92-1.92m6.72 1.6c.626 1.552 1.074 2.647-.64 3.52l-.32-.32.96-1.92-4.16 2.56L20.173 6m-9.28.64-3.2 2.88 3.2-2.88m10.88 4.16c-.44 2.56-5.582 5.607-7.68 7.04l7.68-7.04m0 2.56-.32 1.28h-.32l.64-1.28M2.147 14.535l-.11.21.11-.21m2.025 3.305-.32.32.32-.32m9.6 0-1.6 1.6 1.6-1.6m6.4 0-3.2 2.88 3.2-2.88m-11.84 1.92-.64 1.28h-.32l.96-1.28m2.88.32-1.92 1.6v-.32l1.92-1.28m5.44.64-.32.32.32-.32m-2.88.64-.96.64v-.32z"/>
</svg>
