<svg width="32" height="32" version="1.2" xmlns="http://www.w3.org/2000/svg">
  <path fill="#40b3e0" d="M16 32C7.2 32 0 24.8 0 16S7.2 0 16 0s16 7.2 16 16-7.2 16-16 16z"/>
  <path fill="#fff" d="m23.8 9.2-2.9 14.4s-.4 1-1.5.5l-6.6-5-2.4-1.2-4-1.3s-.6-.3-.7-.7c0-.5.7-.8.7-.8l16.1-6.3s1.3-.6 1.3.4z"/>
  <path fill="#d2e5f1" d="M12.3 23.5s-.2-.1-.4-.8c-.2-.8-1.5-4.8-1.5-4.8l9.7-6.1s.6-.4.6 0c0 0 .1 0-.2.3-.3.3-7.6 6.9-7.6 6.9"/>
  <path fill="#b5cfe4" d="m15.4 21-2.6 2.4s-.2.1-.5.1l.5-4.5"/>
</svg>
