<svg width="500" height="395" version="1.2" xmlns="http://www.w3.org/2000/svg">
  <path fill-rule="evenodd" d="M263 0c1.1 0 2.2.3 2.4.8.3.4.9 3.9 1.5 7.7.6 3.8 1.7 9.4 2.6 12.3 1.4 4.9 1.7 5.2 4.8 5.2 1.7 0 6.8-.7 11.2-1.6 4.4-.9 8.8-1.4 9.8-1 1 .4 1.6 1.5 1.5 2.8-.2 1.8-2.7 3.7-20.8 13.8l2.6 5.2c1.5 2.9 3.3 7.1 4 9.3 1.1 3.2 1.1 4.3.1 5.3-.6.7-1.9 1.3-2.7 1.3-.8 0-4.4-2.2-8-4.9-3.6-2.6-7.7-5.5-9.2-6.5-1.6-.9-3.2-1.7-3.8-1.7-.6 0-5.6 4.1-11.3 9.1-5.6 5.1-11.3 9.7-12.6 10.3-1.9.9-2.5.8-3.6-.9-1-1.4-1.1-2.7-.4-4.5.5-1.4 3.1-6.3 5.8-11 2.7-4.7 4.6-8.8 4.3-9.1-.4-.4-5.4-1.7-11.2-2.9-5.8-1.2-11.3-2.6-12.3-3.1-.9-.5-1.7-1.6-1.7-2.4 0-.8 1-1.9 2.3-2.4 1.2-.4 4.9-1.1 8.2-1.5 3.3-.4 9.6-1.6 14-2.7s9-2.4 10.3-2.9c1.7-.8 2.9-3.3 5.3-10.8 1.8-5.3 3.6-10.5 4.1-11.5.5-.9 1.7-1.7 2.8-1.7zm-3.2 19.1c-.9 3-2.7 6.3-3.9 7.4-1.2 1.2-6.5 3.1-12.8 4.6-6.6 1.7-9.8 2.9-8.6 3.2 1.1.3 3.6.9 5.5 1.2 1.9.4 4.7 1.4 6.3 2.1 1.5.8 2.7 1.8 2.7 2.4 0 .5-1.8 4-4 7.7-2.2 3.8-4 7.1-4 7.5 0 .5 3.3-2.1 7.3-5.7 3.9-3.6 8.3-6.8 9.7-7.1 1.8-.4 4.3.5 9.3 3.5 3.7 2.3 6.7 3.9 6.7 3.6 0-.3-.9-2-2-3.8-1.1-1.7-2-4.1-2-5.2-.1-1.1.5-2.5 1.2-3.2.7-.6 3.8-2.5 6.8-4.1l5.5-3c-13.1.9-15.3.7-16.2-.3-.7-.8-2.3-4.7-3.5-8.8l-2.3-7.3zM2.7 116c.4 0 2.1 1.3 3.8 2.9 1.6 1.6 7 6.5 12 11 4.9 4.4 9.6 8 10.2 8 .7 0 3.7-3.4 6.7-7.7 3-4.3 6.4-8.7 7.6-9.8 1.6-1.5 2.5-1.7 3.8-.9 1 .7 1.8 2.8 2 5 .2 2.2-.4 9.6-1.3 16.4-.8 6.9-1.4 12.6-1.3 12.7.2.1 4.6 1.4 9.8 2.9 5.2 1.5 10.5 3.3 11.7 4.1 1.5.8 2.2 2.2 2 3.6-.1 1.2-1.3 2.8-2.7 3.4-1.4.7-6.6 2.3-11.5 3.7-5 1.4-10.1 2.7-11.5 3-2.3.5-2.6 1.1-3.3 8.3-.4 4.3-1.6 11.8-2.7 16.6-1.1 4.8-2.7 9.4-3.5 10.2-.8.9-2 1.3-2.5 1-.6-.2-1.3-3-1.6-6.2-.3-3.2-1.2-10.5-2.1-16.3-.8-5.7-1.5-10.6-1.6-10.7-.1-.2-3.1 1.6-6.7 4.1-3.6 2.4-9 5.6-12 7.1s-6.1 2.4-6.8 2.1c-.6-.3-1.2-1.6-1.2-2.8.1-1.2 3.4-6.8 7.5-12.3 4.1-5.5 8.5-11.8 12-18.3l-9.3-19.3c-5.2-10.7-9.1-19.9-8.8-20.6.3-.7.9-1.2 1.3-1.2zM18 144.4c3.3 6.6 6 12.8 6 13.8s-1 3.7-2.1 6c-1.2 2.3-3.7 6.4-5.5 9-1.9 2.6-3.2 4.7-2.9 4.7.3 0 3.2-2 6.5-4.5 3.3-2.4 6.7-4.2 7.5-4 .8.3 1.9 1.6 2.4 2.8.5 1.2 1.4 5.6 2 9.7.7 4.2 1.5 8.7 1.8 10 .6 2.3.7 2.1 1.4-1.5.4-2.2.8-7.7.8-12.2.1-6.8.4-8.4 1.8-9.1 1-.5 3.6-1.2 5.8-1.5 2.2-.3 6.5-1.3 9.5-2.2l5.5-1.7c-11.4-3.5-14.5-5.1-15.7-6.8-1.8-2.3-1.8-3.1-.8-12.5.7-5.5 1-10.8.8-11.8-.2-1.3-1.7.2-5.6 5.3-2.8 3.9-5.8 7.1-6.5 7.1-.6 0-3-1.3-5.2-2.9-2.2-1.6-5.4-4.3-7-6.1-1.7-1.8-3.8-3.7-4.7-4.2-.9-.5-1.7-.6-1.8-.1 0 .4 2.7 6.1 6 12.7zm448.5-22.5q1.5 0 4.4 9.8c1.6 5.4 3.4 11.3 3.8 13.2.5 2 1.3 3.5 1.9 3.5.5 0 5.2-.6 10.5-1.5 8.6-1.3 9.9-1.3 11.3 0 .9.9 1.7 2.2 1.7 3 0 .9-2.2 3.6-4.9 6-2.7 2.5-6.4 5.7-11.7 9.8l5.3 6.9c2.9 3.7 5.1 7.5 5 8.2-.2.8-1 1.9-1.8 2.4-1.1.7-4.5-.2-23.3-7.8l-1.6 2.5c-.9 1.4-3.9 5.9-6.6 10-4 6-5.7 7.6-7.8 7.8-2.3.2-2.7-.1-2.7-2.3 0-1.3 1.1-7.2 2.5-13 1.4-5.7 2.5-10.7 2.5-11 0-.2-5.1-.6-11.3-.7-11.1-.3-11.2-.3-11.2-2.7 0-2.2 1.4-3 12.5-7.8 6.9-2.9 13-5.8 13.7-6.5.6-.7 1.6-4.7 2.2-9 .6-4.3 1.1-9.7 1-12-.1-2.6.6-5.2 1.5-6.5 1-1.3 2.3-2.3 3.1-2.3zm-2.9 32c-.7 1.5-3.6 3.5-8.1 5.6l-7 3.2c8.3.9 10.4 1.7 11.2 2.9.9 1.4.8 3.1-.2 7.3-.8 3.1-1.4 6.4-1.4 7.5-.1 1.4.8.7 2.8-2.5 1.5-2.4 3.8-5.4 5-6.5l2.2-2c11.9 5 15.5 6.3 15.6 6 .2-.2-1.1-2.1-2.8-4.2-2.4-2.9-3-4.4-2.5-6.5.4-1.9 2.6-4.2 6.8-7.3l6.3-4.6c-16.1 1.3-18.2 1.1-19.1 0-.6-.7-2-4.6-3.1-8.6s-2.3-7.3-2.5-7.3c-.3 0-.9 3.3-1.3 7.3s-1.2 8.3-1.9 9.7zM52 325c4.8 0 9.5.7 13 1.9 4.8 1.7 5.6 1.8 6.5.5.6-.9 2.2-1.4 4-1.2q3 .2 4.2 2.7c.9 1.8 1.2 4.9.8 10-.3 4.2-.8 9.2-1.1 11.3-.3 2.8-1 4-2.9 4.7-1.5.6-3.2.7-4.3.2-.9-.6-2.2-3.2-3-6-.8-3.6-2.1-5.8-4-7.2-1.5-1.1-4.3-2.3-6.2-2.6-2.3-.4-4.7 0-6.8 1-1.7.9-4.3 3.1-5.6 4.9-1.3 1.8-2.8 4.8-3.5 6.7-.6 2-1.1 5.8-1.1 8.5 0 2.8.8 7.4 1.7 10.4 1 2.9 2.9 6.4 4.3 7.7 1.4 1.3 3.8 2.8 5.5 3.3 1.9.6 4.3.5 6.5-.2 3.3-1.1 3.5-1.4 3.7-5.9q.3-4.8-1.2-6.3c-.8-.8-2.5-1.4-3.8-1.4-1.2 0-2.8-.6-3.5-1.3-.7-.7-1.2-2.5-1.2-4 0-1.8.8-3.3 2.2-4.2 1.9-1.2 5.1-1.3 16.8-.9 8 .4 15.3 1 16.2 1.5 1 .5 1.8 2 1.8 3.3 0 1.4-.9 3.4-2 4.5s-2.6 2-3.3 2c-.7 0-1.5 2.2-1.9 5.8-.4 3.2-1.6 7.3-2.7 9.2-1 2-2.9 4.3-4.2 5.3-1.3.9-5.1 2.4-8.4 3.3-3.3.8-9.4 1.6-13.5 1.6-4.3 0-10-.7-13.5-1.7-4.9-1.4-7.1-2.8-11.6-7.3-3.8-3.9-6.3-7.5-7.9-11.7-1.9-4.8-2.4-7.9-2.4-16-.1-8 .3-10.7 1.8-13.5 1-1.9 3.5-5.4 5.5-7.8q3.6-4.4 10.6-7.7c6.1-3 8-3.4 14.5-3.4zm-15.4 10.2c-2.9 1.9-6 5.1-7.5 7.7-2.3 3.9-2.6 5.7-2.6 13.1 0 7.8.3 9.1 3.5 15.4 1.9 3.7 5.4 8.5 7.7 10.7 2.7 2.4 6.3 4.4 9.5 5.4 2.9.8 7.1 1.4 9.3 1.3l4-.1c-7-1.1-10.4-2.1-12-2.9-1.7-.9-4.1-2.9-5.5-4.5-1.4-1.6-3.4-5.3-4.5-8.4-1.2-3.4-1.9-8.3-1.9-13-.1-5.7.5-8.6 2.2-12.5 1.3-2.7 3.5-6.2 5-7.8 1.5-1.6 3.9-3.5 5.4-4.2 1.6-.8 5.2-1.5 8-1.5 3.2 0 6.7.8 8.8 1.9 1.9 1 4.4 3.2 5.5 5 1.1 1.7 2.3 3.1 2.7 3.1.5 0 .8-2.2.8-5 0-4.9 0-4.9-2.8-4.4-1.7.4-4.1-.1-6.7-1.4-2.2-1.1-6.7-2.3-10-2.5-3.3-.3-7.8-.1-10 .4-2.2.6-6.2 2.5-8.9 4.2zm28.5 29.4c1.3 1.1 3 3.8 3.6 6 .7 2.1 1.3 5 1.2 6.3 0 1.4-.6 3.7-1.4 5-.8 1.4-2.9 3.4-4.7 4.3l-3.3 1.8c6.6-.8 9.8-1.7 11.5-2.6 1.6-.8 3.7-2.8 4.5-4.5.8-1.6 1.5-5.2 1.5-8 0-3.6.5-5.5 2-7l2-2c-4.3 0-8.6-.3-12.4-.6l-6.8-.7zm422.1-39.5c3.2-.1 6.6.3 7.7.8 1.1.6 2.7 2.6 3.5 4.5.9 1.9 1.5 5.8 1.5 8.5 0 2.8-.4 6.1-1 7.5-.7 1.7-1.7 2.5-3.5 2.5-1.5 0-3.4-1.1-5-3-1.3-1.6-2.5-3.7-2.5-4.5 0-.8-.9-1.9-2-2.5-1.1-.5-3.3-1-8-1l.4 19.8c.2 10.8.6 20.5 1 21.5.3.9 1.8 2.1 3.3 2.5 1.4.4 3 1.5 3.5 2.5.5.9.6 2.6.3 3.7-.2 1.1-1.2 2-2.2 2-1 0-8.7.2-17.3.5-13.7.4-15.7.3-17.3-1.3-1.1-1.1-1.6-2.5-1.2-3.9.3-1.3 1.5-2.5 2.8-2.8 1.2-.2 3.4-.6 4.7-.7 2.4-.3 2.6-.8 3.4-7.3.4-3.8.6-13.5.3-21.5s-.7-14.6-.9-14.7c-.1-.1-2.1.3-4.3 1-3.2 1-4.5 2.1-5.5 4.7-.8 1.8-2.5 4.1-3.8 4.9-1.9 1.3-2.7 1.4-4.7.4-1.4-.7-2.7-2.3-2.9-3.5-.2-1.3-.7-5.4-1-9.3-.5-5-.3-7.3.7-8.2.8-.8 8.6-1.5 22.7-2.1 11.9-.5 24.1-1 27.3-1zm-28 7.7c2.6.1 3.9.6 4.3 1.9.3.9 1 7.1 1.5 13.7s.7 14.6.4 17.8c-.2 3.1-.7 8.4-1 11.7l-.5 6c11 .5 11.1.5 10.5-2-.3-1.4-1-5.6-1.5-9.5-.5-3.8-.6-13.3-.3-21 .2-7.7.7-15 .9-16.2.4-2.1 1-2.3 6.9-2.3 3.6 0 7.4.5 8.5 1 1.1.6 2.7 2.5 3.5 4.3l1.5 3.2-.5-10c-24.8-.2-33.3.1-35 .5-3 .8-2.9.8.8.9zm-17.3 4.6c0 3.3.4 5.3 1 5 .6-.3 1.3-1.9 1.7-3.7.4-1.8 1.5-4.1 2.5-5 1.8-1.7 1.7-1.8-1.7-1.8h-3.5zM118.4 20.6c.8.3 1.5 1 1.5 1.7 0 .6 1.8 4.8 4 9.4 2.2 4.5 4.6 8.5 5.3 8.8.7.3 6.1-.6 12-2s11.6-2.6 12.7-2.6c1.1 0 2.3.7 2.5 1.5.3.9-1.3 3.2-4.2 5.9-2.6 2.5-6.6 5.9-9 7.8-2.3 1.8-4.2 3.8-4.2 4.3-.1.6 1.1 2.1 2.5 3.5s4.1 4.5 6 7c1.8 2.5 3.4 5.3 3.4 6.3 0 .9-.7 2.1-1.7 2.6-1.2.5-5.4-.3-12.8-2.5-6-1.8-11.3-3.1-11.7-2.8-.4.2-1.9 4.1-3.2 8.7-1.4 4.5-3 10.1-3.5 12.5-.8 3.2-1.5 4.2-3.1 4.2-1.1 0-2.4-.8-2.8-1.7-.5-1-1.6-4.9-2.5-8.8-.8-3.8-1.9-10.3-3.2-21.6l-10 .7c-8.6.6-10.2.4-11.5-1-1.2-1.4-1.2-1.9-.2-2.9.7-.6 6.6-4.4 24.7-15.3l.6-6c.3-3.2 1.2-8.1 2-10.8.8-2.7 2.3-5.5 3.2-6.2 1-.7 2.5-1 3.2-.7zm-3.3 24.6c-.4 1-4.3 4.2-8.8 7l-8.1 5.2c11 0 13.1.4 13.8 1.5.5.8.9 4.2 1 7.5 0 3.3.4 7.8.8 10l.7 4c2.9-8.5 4.3-12.2 5.1-13.7.7-1.5 2.1-3 3.1-3.3 1-.3 5.1.4 9.2 1.5 4.2 1.1 7.8 1.8 8 1.5.3-.3-1.4-2.4-3.7-4.8-2.3-2.3-4.2-5-4.2-5.9-.1-1 2.6-4.1 5.9-7 3.4-2.9 5.9-5.4 5.8-5.5-.1-.1-3.9.7-8.3 1.7-5.4 1.3-8.5 1.6-9.7 1-1-.6-3.3-3.9-5.3-7.5-1.9-3.6-3.7-6.5-4-6.5-.2 0-.5 2.6-.5 5.8-.1 3.1-.4 6.5-.8 7.5zm300.4-10.3c.8 0 1.6.8 1.8 1.8.1.9-.1 5.1-.5 9.2s-.8 9.9-.9 18l9.2 3.8c5 2 9.6 4.5 10.2 5.5.8 1.2.8 2.2 0 3.5-.6.9-2.6 2.3-4.5 2.9-1.8.7-5.9 1.7-9.1 2.3-3.2.5-6 1.6-6.2 2.3-.2.7-1.2 5.7-2.2 11.2-1 5.8-2.5 10.9-3.5 12-1.5 1.8-1.9 1.8-3.1.5-.8-.8-2-4.2-2.7-7.5-.7-3.3-2.2-8.1-3.4-10.8-1.6-3.4-2.7-4.8-4.2-4.7-1.1 0-6.7 1-12.5 2.1-8.7 1.7-10.7 1.9-11.8.7-.7-.7-1.1-2.2-.7-3.3.3-1.1 4.2-4.6 8.8-7.8 4.5-3.2 8.9-6.2 9.7-6.6 1.3-.7.9-1.6-2.1-5.2-2-2.4-5-6.6-6.7-9.4-1.7-2.7-3.1-5.7-3.2-6.5 0-.8.7-2.2 1.6-3 1.4-1.3 2.6-1 11 3.3 5.2 2.6 9.9 4.7 10.4 4.7.6 0 3.1-3.2 5.7-7.2 2.5-4 5.2-8.3 6-9.5.8-1.3 2-2.3 2.9-2.3zm-10.4 22.3c-1.5 1.5-3.3 2.7-4.2 2.7-.8 0-3.9-1.1-7-2.5-3-1.4-5.7-2.3-6-2-.2.2 1.7 3.1 4.3 6.2 2.7 3.2 4.8 6.5 4.8 7.3 0 .8-.6 2.2-1.3 3.1-.7.9-3.7 3.3-6.8 5.4-3.4 2.3-4.5 3.5-3 3.1 1.4-.4 5.1-1 8.2-1.4 4.9-.6 6-.4 7.8 1.3 1.2 1.1 3.1 4.7 4.3 8l2.2 6c2.2-12.1 3.1-14.5 4.8-15.8 1.2-1 3.8-2 5.7-2.3 2-.3 4.4-.9 5.5-1.3 1.7-.6.8-1.2-4.4-3.2-4.1-1.5-6.9-3.3-7.9-4.9-1.2-1.9-1.4-4.4-1-10.2.3-4.3.4-7.8.3-7.8-.2 0-1 1.3-2 2.8-.9 1.5-2.9 4-4.3 5.5zM351.2 119c2.6-.1 6 .5 7.5 1.1 1.5.7 5 2.8 7.7 4.8 2.7 1.9 7.2 6.3 10 9.6 2.8 3.4 7.4 10.4 10.2 15.5 2.9 5.2 7 13.7 9.2 18.9 2.1 5.2 6.2 16.7 9.1 25.5 2.8 8.8 6.9 22.8 9.1 31 2.1 8.3 5.2 21.8 6.8 30 1.7 8.3 3.8 20.1 6.6 37.7l-2.7 2.4c-2 1.8-3.3 2.2-4.9 1.7-1.2-.4-2.5-1.6-3-2.5-.5-1-1.3-4.6-1.8-8-.5-3.5-1.8-11.7-3-18.3-1.2-6.6-3.3-16.9-4.7-23-1.4-6-4.3-17.5-6.5-25.5s-5.8-19.9-8-26.5c-2.2-6.6-5.8-16.3-8-21.5-2.2-5.2-6.3-13.5-9.1-18.5-3.1-5.4-7.7-11.6-11.7-15.6-4.6-4.7-7.6-6.9-10.1-7.4-2.6-.6-4.3-.3-7 1.3-1.9 1.1-5.3 4.4-7.5 7.4-2.2 2.9-7.7 11.2-12.2 18.3-4.5 7.2-9.8 14.7-11.9 16.8-3.2 3.2-4.7 3.9-8.9 4.3-3.5.4-10.8-.7-25.5-3.7-20-4.2-20.9-4.3-40.5-4.3-12.6-.1-26.4.6-37.5 1.7-13.4 1.4-18.4 1.6-21.7.8-2.8-.7-4.9-2.1-6.1-3.8-1.1-1.5-3.6-6.8-5.6-11.8-2.1-4.9-4.7-10.3-5.8-12-1.1-1.6-3.7-4.7-5.7-6.8-1.9-2.1-5.2-4.7-7.3-5.8-2.1-1-4.8-1.9-6-1.9-1.2 0-4.6 1.4-7.5 3-3 1.7-7.1 5.3-9.4 8.3-2.2 2.9-5.4 7.8-7 11-1.6 3.1-3.9 9.4-5.3 14-1.3 4.5-3.7 15.2-5.4 23.7-1.6 8.5-4.6 24.5-6.7 35.5-2 11-5.9 30.4-8.6 43-2.6 12.7-4.8 24.1-4.8 25.5 0 1.4-.7 3.5-1.6 4.8-.8 1.2-2.5 2.2-3.7 2.2-1.2 0-2.8-.5-3.5-1.2-.7-.7-1.3-3.3-1.3-5.8s1-9.9 2.1-16.5 3.3-18.3 4.9-26c1.6-7.7 5.4-27.7 8.5-44.5 3.1-16.8 6.3-33.2 7.2-36.5.8-3.3 2.9-9.6 4.5-14s4.6-10.9 6.6-14.5c2-3.6 6.2-9 9.2-12 3.1-3 7.8-6.6 10.6-8 3.7-1.9 6.5-2.5 11.4-2.5 5.4 0 7.5.6 11.9 3 3 1.7 7.7 5.5 10.5 8.6 2.8 3.1 6.8 9 8.8 13 2.1 4.1 4.6 9.6 7.8 16.9h5.8c3.2 0 11.6-.7 18.7-1.5 7.2-.8 21.1-1.5 31-1.5 13.7 0 20.6.5 28.5 1.9 5.8 1.1 16.2 3.2 23 4.6 6.9 1.5 13.4 2.4 14.5 2.1 1.1-.3 3.9-3.3 6.2-6.8 2.3-3.5 7.6-11.7 12-18.3 4.3-6.6 9.6-13.7 11.8-15.9 2.2-2.1 5.6-4.6 7.5-5.7 2-1 5.7-1.8 8.3-1.8zm-203.1 27.9c.4 0 1.1.6 1.5 1.3.4.7 1.7 5.6 3 11 1.3 5.3 2.3 10.8 2.3 12.2 0 1.4-.5 2.8-1.2 3.1-.7.4-1.7.1-2.3-.5-.5-.7-2.1-6.5-3.6-12.9-1.7-7.8-2.2-12.1-1.6-12.9.5-.7 1.4-1.3 1.9-1.3zm198.2 1.3c.7.3 1.1 3.3 1.1 8.8 0 4.6-.4 9.7-.8 11.2-.5 1.9-1.3 2.7-2.9 2.7-2.2 0-2.3 0-1.4-9.2.5-5.1 1.3-10.3 1.8-11.6.6-1.3 1.5-2.2 2.2-1.9zm10.7-.3c1 0 2.1.6 2.3 1.3.2.7-.6 5.9-1.8 11.7-1.2 5.8-2.5 11.1-2.9 11.8-.3.7-1.3 1.2-2.2 1.2-.8 0-1.7-.4-2-1-.2-.5.5-5.4 1.6-10.7 1.1-5.4 2.3-10.8 2.5-12 .3-1.5 1.2-2.3 2.5-2.3zm-217.7 3.3c.6.2 2.4 5.1 3.9 10.8 1.5 5.7 2.5 11 2.2 11.7-.2.7-1.1 1.2-2 1.2-.8 0-1.8-.5-2.2-1.2-.4-.7-1.7-5.3-2.8-10.3-1.6-6.4-1.9-9.5-1.2-10.8.5-1 1.5-1.6 2.1-1.4zm69.1 38.4c1.7.3 4.5.9 6.3 1.4 2.3.6 3.2 1.5 3.2 2.9 0 1.1-.3 2.2-.7 2.5-.4.2-3.2-.3-6.3-1.1-5.4-1.5-5.5-1.5-10.8 1.3-4.5 2.4-5.4 2.6-6.2 1.3-.7-1.1-.1-2.3 2.4-4.7 1.8-1.7 4.6-3.4 6.2-3.6 1.6-.2 4.3-.2 5.9 0zm73.5 1.4c2.5 0 6.3.8 8.5 1.8s4.7 2.6 5.5 3.5c1.3 1.4 1.3 1.9.3 2.9-1 .9-2 .9-4.5-.1-1.8-.8-4.8-1.9-6.8-2.5-2.6-.8-4.6-.8-8 .1-2.4.7-4.8.9-5.2.5-.5-.4-.5-1.6 0-2.6.4-1 1.9-2.2 3.2-2.7 1.4-.4 4.6-.9 7-.9zm5.5 24.9c2.2 0 6.3.8 9 1.7 3.1 1.1 7.1 3.7 10.4 6.8 2.9 2.8 6.2 6.8 7.2 9s2.4 6.5 3 9.5c.7 3.9.7 7.4-.1 12-.6 3.6-2.3 9.2-3.9 12.5-1.7 3.6-4.4 7.3-6.7 9.1-2.1 1.7-5.7 4-7.9 5.1-2.2 1.1-5.4 2.3-7.2 2.7-1.8.3-5.6.1-8.5-.5-4.3-.9-6.2-2-10.3-6.2-2.8-2.9-6.3-7.9-7.9-11.2-1.6-3.3-3.3-8.8-3.9-12.2-1-5.5-.9-7 1.2-14 1.3-4.3 3.4-9.6 4.7-11.8 1.3-2.2 3.8-5.1 5.6-6.4 1.9-1.4 5.1-3.3 7.3-4.2 2.2-1 5.8-1.9 8-1.9zm-17.9 25c-1.2 4.5-1.7 8.5-1.3 13 .2 3.6 1.2 8.1 2.2 10 1 1.9 2.7 4.6 3.9 5.9 1.2 1.3 3.8 3.2 5.9 4.2 2.1 1.1 5.8 1.9 8.5 1.9 2.6 0 6.5-.9 8.7-1.9 2.2-1.1 5.6-3.7 7.5-5.8 1.8-2.1 4-5.2 4.7-7 .7-1.8 1.6-5.9 2-9 .4-4 .1-7.6-1-11.5-1-3.4-3-7.3-4.9-9.5-1.8-2-5.1-4.4-7.3-5.4-2.4-1.2-6.4-1.9-10.3-1.9-6.3 0-6.3 0-11.5 5.3-4.4 4.3-5.6 6.3-7.1 11.7zm-66.6-23.6c4 .1 8.1 1 10.5 2.2 2.2 1 6.1 3.9 8.8 6.4 3.3 3.1 5.5 6.2 6.8 9.8 1.1 2.9 1.9 7.8 2 11 0 3.1-.8 8.2-1.6 11.2-.9 3-2.8 7.5-4.2 10-1.5 2.5-4.5 6.5-6.7 8.9-2.2 2.4-5.3 5-6.8 5.7-1.5.8-5.3 1.7-8.5 2-4 .5-7.5.2-11.5-1-4.3-1.2-7-2.8-10.6-6.3-3.2-3.2-5.5-6.7-7-10.5-1.6-4.3-2.2-8-2.1-14 0-4.6.7-10.8 1.5-13.8.9-3 2.8-7.3 4.3-9.5s4.9-5.5 7.7-7.3c2.7-1.8 6.3-3.7 7.9-4.2 1.7-.5 6-.8 9.5-.6zm-13.7 14c-2.9 2.8-6.5 7.4-7.9 10.1-2.1 3.9-2.7 6.3-2.6 11 0 3.3.5 7.9 1.1 10.3.7 2.3 2.6 5.8 4.4 7.8 1.8 2 4.4 4.2 5.7 4.9 1.4.7 4.3 1.6 6.5 2 2.7.5 6 .2 9.5-.9q5.5-1.5 9.4-5.3c2.2-2.1 4.9-5.8 6-8.3 1.3-3 2.1-7.5 2.4-13.5.4-7.7.2-9.6-1.5-13-1.2-2.2-3.4-5.3-5-7-1.6-1.6-4.7-3.5-6.9-4.2-2.1-.7-5.2-1.2-6.9-1.2-1.6 0-4.3.5-6 1.1-1.6.6-5.3 3.4-8.2 6.2zm-69.3 26.6c1.1 0 6 1.8 10.8 3.9 4.8 2.1 11.6 5.3 15 7 3.5 1.7 6.2 3.8 6.2 4.6 0 .8-.5 1.8-1.2 2.1-.7.3-3.3-.4-5.8-1.7-2.4-1.2-9.4-4.3-15.5-6.9-8.6-3.7-11-5.1-11.3-6.8-.2-1.7.2-2.2 1.8-2.2zm126 2.5c2.5.1 5.2.5 6 .8.9.4 2.1 1.9 2.9 3.4.7 1.6 1.1 4 .7 5.6-.3 1.5-2.1 4.4-4 6.5-2.9 3.1-3.5 4.5-3.5 8.5 0 2.6-.3 5.4-.6 6.2-.2.8-1.4 1.5-2.5 1.5s-2-.5-2.1-1.2c-.1-.7 0-3.5.1-6.3.2-4-.2-5.4-2-7-1.2-1.1-2.8-3.2-3.6-4.7-.7-1.5-1.4-4.2-1.4-6 0-1.8.6-4 1.3-4.9.7-.9 1.9-1.9 2.7-2.1.9-.2 3.6-.4 6-.3zm127.5-.2c1.1.1 2.1 1 2.3 2 .2 1.3-3.5 3.6-16 9.8-8.9 4.4-16.8 7.8-17.5 7.5-.7-.3-1.1-1.4-1-2.3.1-1.1 5.7-4.5 15.2-9.4 8.3-4.2 15.9-7.6 17-7.6zm13.8 12.8c1.5 0 3.1.6 3.5 1.4.4.9.3 2-.3 2.5-.5.6-8.8 2.7-18.5 4.9-9.6 2.1-18.7 4.2-20.2 4.5-1.9.4-3 .2-3.5-.9-.4-.9-.3-2 .2-2.5.6-.6 8.9-3 18.5-5.4 9.7-2.4 18.8-4.4 20.3-4.5zm-266.4 5.4c5.9.5 14.7 1.1 19.6 1.4 8.2.6 9 .8 9 2.6 0 1.9-.6 2-11.5 1.9-6.3-.1-14.8-.4-19-.8-4.1-.4-8.1-1.1-9-1.6-1-.5-1.2-1.3-.6-2.5.8-1.6 2-1.7 11.5-1zm56.6 1.9c2.2.3 5.1 1.6 6.3 2.8 1.3 1.3 2.6 3.7 2.9 5.3.3 1.7 0 4.3-.8 6-.8 1.7-2.7 3.6-4.4 4.4-2.3 1.1-3.8 1.1-6.7.2-2.1-.6-4.7-2.3-5.8-3.8-1.1-1.5-2-4.2-2.1-6 0-2.3.9-4 3.3-6.3 2.9-2.8 3.7-3.1 7.3-2.6zm-5.6 9.4c0 .9.7 2.3 1.4 3 .7.7 2.4 1.3 3.7 1.3 1.4 0 3.2-.7 4-1.6 1.3-1.3 1.3-2 .3-4-.8-1.6-2.1-2.5-3.5-2.5-1.2.1-3.1.5-4.2 1.1-1 .6-1.8 1.8-1.7 2.7zm137.8-8.8c1.8 0 4.7.7 6.3 1.5 1.7.8 3.7 2.9 4.5 4.5.9 1.7 1.5 3.9 1.5 5s-.4 3-1 4.3c-.5 1.2-2.3 3-4 4-1.6.9-4.4 1.7-6.2 1.7-1.8.1-4.8-1-6.7-2.2-2-1.3-3.8-3.5-4.2-5.3-.5-1.7-.4-4.4.2-6.2.5-1.8 2.1-4.2 3.6-5.3 1.5-1.1 4.2-2 6-2zm-5.1 9.8c-.4 1.5.1 2.9 1.4 4.2 1.1 1.1 3.2 2 4.5 2 1.4 0 3.4-.9 4.5-2s2-2.4 2-3c0-.5-1.1-2.1-2.5-3.5-1.3-1.4-3.3-2.5-4.2-2.5-1 0-2.5.6-3.4 1.3-.9.7-1.9 2.2-2.3 3.5zm59.1 34.2c.7 0 2 1 2.9 2.3 1.3 1.9 1.4 4 .7 13.3-.5 7.4-1.2 11.6-2.3 12.8-.8.9-2.4 1.7-3.5 1.7s-2.7-.8-3.7-1.8c-.9-1-2.2-3.5-2.7-5.5-.6-2.1-2-4.7-3.1-5.8-1.1-1.1-3.6-2.3-5.7-2.6-2.4-.4-5.3 0-8 1-3.3 1.3-4.7 2.6-6.4 5.9-1.8 3.6-2 5.5-1.7 13.2.4 6.7 1 10.1 2.7 13.3 1.2 2.3 2.9 4.6 3.9 5.1s4.2 1.2 7.2 1.6c3.4.4 6.7.2 8.5-.5 1.7-.6 5-3.1 7.3-5.6 2.3-2.4 4.9-4.4 5.7-4.4.9 0 2.4.9 3.5 2 1.5 1.4 1.9 2.8 1.5 4.8-.3 1.5-1.8 4.3-3.4 6.2-1.5 1.9-4.5 4.9-6.7 6.6-2.4 1.9-6.1 3.6-9.9 4.4-4.7 1-7.3 1-12.5.1-3.5-.7-9.1-2.7-12.3-4.4-3.3-1.8-7.2-4.8-8.7-6.7-1.5-1.9-3.7-5.5-5-8-1.8-3.4-2.4-6.7-2.8-13.5-.4-8.4-.3-9.4 2.5-15.5 1.6-3.6 4.5-8.2 6.4-10.3 1.9-2.1 5.9-5 8.9-6.4 4.9-2.3 6.3-2.6 12-2 3.6.4 9.7 1 13.5 1.3 5.8.6 7.3.4 8.4-1 .8-.9 2-1.6 2.8-1.6zm-40.4 12.3c-1.8 1.7-4.5 5.5-6 8.2-2.4 4.3-2.8 6.2-2.8 13 0 6.6.5 9 2.7 13.5 1.4 3 4.4 7 6.5 8.8 2.1 1.8 6.2 4.1 9.1 5.2 3.1 1.2 7.6 2 11 2 3.3 0 7.4-.8 9.7-1.8l4-1.8c-16.2.7-18.6.4-21.4-1.1-1.9-1-4.7-3.4-6.2-5.3s-3.5-6.2-4.3-9.5c-.9-3.3-1.6-8.2-1.6-11 0-2.7.7-7.2 1.5-10 .9-3 2.8-6.3 4.7-8.2 1.9-1.7 4.6-3.6 6.1-4.2 1.5-.6 5-1.1 7.7-1.1 2.8 0 6.7.8 8.6 1.8 2 .9 4.3 2.7 5 4 .8 1.2 1.7 3.3 1.9 4.7.3 1.4 1 2.3 1.5 2 .6-.3 1-3.6 1-7.5 0-6.9 0-7-2.2-6.1-1.5.6-5.8.5-12.3-.4-5.5-.8-10.6-1.4-11.5-1.4-.8 0-3.3.7-5.5 1.5s-5.4 2.9-7.2 4.7zm-215-9.9c8.5.3 15.8 1.1 17.2 1.9 1.4.7 2.7 2 3 3 .3.9-.4 2.8-1.5 4.2-1.1 1.4-3 2.6-4.2 2.8-2.2.2-2.3.3-2.3 18.3 0 15.4.3 18.4 1.8 20.7 1.5 2.3 2.4 2.7 6.5 2.7 3 0 5.9-.7 8-2 2-1.2 3.4-3 3.7-4.7.3-1.5 1-5.9 1.5-9.8.6-3.8 1-9.7 1-13 .1-3.3-.4-7.3-1-9-.5-1.6-2.6-4-4.5-5.2-2.9-1.9-3.4-2.8-3.2-5.5.2-3.2.3-3.3 6.2-3.9 3.3-.4 9.8-.4 14.3 0 5.8.4 8.6 1.1 9.2 2.1.7 1.3.9 1.3 1.7-.2.7-1.5 3.3-1.7 23.3-2 22.3-.3 22.6-.3 27.5 2.2 3.6 1.8 5.5 3.6 6.9 6.5 1.1 2.2 2.2 5.8 2.5 8 .3 2.7-.2 5.3-1.5 7.9-1.1 2.3-3.5 5-5.9 6.5-2.2 1.4-4.1 2.7-4.2 2.8-.1.2.8 2.2 2.2 4.6 1.3 2.3 4.2 6.1 6.5 8.5 2.2 2.3 5.5 4.9 7.3 5.8 1.8.9 4 2.4 5 3.3 1 .9 1.8 2.6 1.8 3.9 0 1.6-1.1 2.7-3.8 3.8-2.8 1.2-5.7 1.5-11.3 1.2-4.1-.3-8.5-1-9.7-1.7-1.2-.6-3.6-3.7-5.1-6.8-1.6-3.2-4.9-8-7.4-10.8-2.5-2.7-4.8-4.8-5.1-4.5-.2.3-.6 2.8-.8 5.5-.4 4.9-.3 5 3.4 6.7 2.6 1.3 3.9 2.7 4.3 4.6.4 1.8.1 3.2-1 4.2-1.3 1.2-5 1.6-17.3 1.8-14 .2-16 .1-17.5-1.5-1-1-1.8-2.6-1.8-3.5 0-1 1.3-2.7 2.8-3.8 1.5-1.1 3.5-2 4.5-2s1.9-.8 2.2-1.7c.2-1 .6-4.5.9-7.8.3-3.3.3-11.8-.9-31.9l-3.4-1.1c-1.8-.5-3.8-1.9-4.3-3-.9-1.9-1-1.9-3.8.8-1.5 1.5-3.5 2.7-4.4 2.7-1.3 0-1.6 1.6-2 8.3-.2 4.5-.3 11.9-.2 16.3.1 7.7-.1 8.6-3.9 15.9-3.5 7-4.6 8.2-9.5 10.9-4 2.2-7.2 3.1-12 3.4-3.5.3-8.7 0-11.5-.6-2.7-.7-6.9-2.5-9.2-4.2-2.8-1.9-5.1-4.8-6.8-8.2-2.2-4.6-2.7-7.6-5-41l-3.7-2.9c-2.1-1.6-3.8-3.8-3.8-4.8-.1-1.1.7-2.7 1.7-3.7 1.6-1.5 3.4-1.6 16.6-1zm-8.9 6.9c2.8 2.2 2.9 2.4 4.6 21.2 1.4 16.3 2 19.7 4.1 23.5 1.7 3.2 3.7 5.2 6.9 6.8 3.5 1.7 6.3 2.2 12 2.2 6 .1 8.5-.4 12-2.3 3.6-1.9 5.2-3.6 7.8-8.5l3.2-6.2c0-27.3.4-31.7 1.5-34 .9-1.6 2.1-3.2 2.8-3.4.7-.2-1.9-.5-5.8-.5l-7-.1c4.7 4.7 5.8 7.3 6.6 11.5.9 4.7.8 8.7-.5 18.8-.9 7.7-2.3 13.9-3.3 15.8-1.1 1.9-3.8 4-7.3 5.6-4.2 2-6.6 2.5-10.1 2.2-3.2-.3-5.5-1.2-7.2-2.9-1.5-1.4-3.1-4.3-3.7-6.5-.6-2.2-1.1-11.7-1.2-21.1-.2-16.1-.1-17.4 1.8-20l2.2-2.9c-12.6-1.1-17.6-1.5-19.3-1.5h-3zm79.4 4.5c.5 1.5.8 11.6.8 22.3 0 16.9-.2 19.9-1.8 22.3L176 386h16c-3.4-3.4-4-5.3-3.9-8.3 0-2.3.3-6.6.7-9.5.4-2.9 1.3-5.6 2-6 1.2-.6 1.1-1.2-.2-3.2s-1.6-4.8-1.4-13.5l.3-11c8.4-.4 11.7.1 13.5 1 1.6.8 3.6 2.7 4.4 4.2.7 1.5 1.7 4.1 2.1 5.8.4 1.6.2 4.7-.4 6.7-.6 2.1-2.3 4.7-3.9 5.8-1.5 1.1-4.3 2.3-6.2 2.6l-3.5.5c10.6 11.1 14.8 16.7 16.3 19.7 1.5 2.9 3.3 5.5 3.9 5.7.7.3 4.1.4 7.5.4 5.3 0 6-.2 4.3-1.2-1.1-.7-4.7-3.9-8-7.2-3.4-3.4-7.6-8.9-9.5-12.7-3.2-5.9-3.4-6.8-2-8.3.8-.9 2.5-1.6 3.8-1.6 1.3 0 3.6-1.2 5.3-2.9 2.3-2.4 2.9-3.9 2.9-7.3 0-2.5-.8-5.6-2-7.5-1.4-2.2-3.2-3.6-5.8-4.2-2-.6-11.8-1-21.7-1-16.4 0-17.8.2-15.3 1.5 1.6.8 3.1 2.7 3.5 4.2zm16 9.8c.7 5.6 1.1 6.5 2.8 6.5 1.1 0 3-.7 4.2-1.5 1.7-1.2 2.3-2.5 2.3-5.5s-.7-4.7-2.5-6.5c-1.4-1.4-3.4-2.5-4.4-2.5-1.1 0-2.2.6-2.5 1.5-.3.8-.3 4.4.1 8zm98.8-21.5c8.5 0 12.4.3 13.3 1.2.7.7 1.2 2.4 1.2 3.8 0 1.3-.7 3.2-1.7 4.1-1 1-3 2.2-7.3 3.9v13.2c0 8-.6 16-1.6 20.3-.8 3.8-2.4 8.4-3.4 10.2-1.1 1.8-3.9 4.3-6.3 5.5-3.7 2-5.6 2.3-15.7 2.2-8.4-.1-12.6-.6-15.5-1.9-2.2-.9-4.8-2.4-5.9-3.3-1-1-2.7-3.5-3.9-5.7-1.1-2.2-2.4-5.4-3-7-.5-1.7-1.2-10.7-1.6-20-.6-16-.7-17-2.6-17.3-1.1-.1-2.9-1.1-4-2.3-1.6-1.6-1.8-2.4-.9-3.7 1-1.5 3-1.7 17-1.4 10.1.2 16.4.8 17.2 1.5.8.7 1.1 2.1.8 3.4-.3 1.3-2 3.2-6.9 6.4l.2 9.2c.1 5 .6 12.3 1.1 16.2.6 3.8 1.4 8.1 2 9.5.5 1.3 2 2.8 3.2 3.2 1.3.4 4.1.8 6.3.8s4.7-.6 5.6-1.3c.9-.7 2.2-2.8 2.9-4.7.7-2 1.5-9.6 1.7-17 .4-9.2.2-14.3-.6-15.8-.6-1.3-2-2.2-3.4-2.2-1.2 0-2.8-.6-3.5-1.3-.7-.7-1.2-2.4-1.2-3.7 0-1.4.4-3 .8-3.6.4-.6 1.4-1.4 2.2-1.7.8-.3 6.9-.6 13.5-.7zm-6.5 6c4.3 5.9 4.5 7.1 4.4 20.3 0 10.1-.6 15.8-1.7 19.9-1.2 3.9-2.7 6.6-4.7 8.3-2.6 2.1-4 2.5-10.5 2.5-6.8 0-7.8-.3-10.4-2.8-1.5-1.5-3.4-4.5-4.1-6.7-.7-2.3-1.5-11.2-1.7-20.5-.2-10.2 0-16.9.6-17.5q1-1-2.2-1.8c-1.8-.4-4.6-.8-6.2-.7h-3c.1 28.4.5 33.9 1.8 38.2.9 3.2 2.9 7.1 4.4 8.8 1.7 1.8 4.4 3.4 6.8 4 2.2.5 7.7.9 12.2.9 5.2.1 9.6-.5 11.8-1.4 2.2-1 4.2-2.9 5.4-5.3 1-2 2.4-7.3 3-11.7.6-4.4 1.1-13 1-19-.1-10.4 0-11.1 2.3-12.8 1.2-1 2.9-1.8 3.5-1.8.7 0 1.5-.4 1.8-.9.3-.6-.3-.9-1.3-.8-.9.1-4.3.3-7.5.5zm111.3-6.3 5.6.7c3.1.4 6.3 1.2 7 1.9.8.6 2.7 3.9 4.4 7.2 1.7 3.3 6.4 13.9 10.6 23.5 5 11.5 8.8 18.8 10.9 21 1.8 1.9 3.3 4.2 3.3 5.2-.1 1-1.1 2.4-2.3 3.3-1.7 1.1-5.4 1.5-16.3 1.5-10.8 0-14.5-.4-16.2-1.5-1.3-.9-2.3-2.6-2.3-4 0-2.1.8-2.8 7.9-5L408 374h-8c-4.4 0-8.1.3-8.3.7-.3.4-.7 2.1-1.1 3.8-.5 2.6-.2 3.2 2.4 4.7 2.1 1.2 3 2.4 2.8 4-.1 1.2-1.4 2.8-2.8 3.5-1.7 1-5.6 1.3-12.6 1.1-8.5-.3-10.5-.7-12.3-2.3-1.2-1.1-2.1-2.5-2.1-3 .1-.6.9-1.8 1.8-2.8 1-1 2.6-1.8 3.7-1.7 1.1 0 3-.8 4.2-1.8 1.3-1 3.9-6.4 6.2-12.7 2.2-6.1 5.8-15.5 8-21s5-12.2 6.2-14.9zm-5.8 28.1c-2.9 7.9-5.4 14.9-5.4 15.5-.1.8.2.8 1.1 0 .8-.8 5.5-1.4 11.8-1.5l10.5-.4c5 8.9 5.5 10.9 5.1 14l-.5 4c11.4-.7 15.1-1.3 15.6-1.7.5-.4-.6-3.3-2.3-6.5-1.8-3.2-5.6-11.6-8.7-18.8-3-7.1-6.8-16-8.5-19.7-1.8-3.7-3.7-6.8-4.4-6.8-.7 0-2.2-.2-3.3-.5-1.6-.5-2.3.2-3.8 3.7-1 2.4-4.2 10.8-7.2 18.7zm-10.9 27.4-2.6 3.7c6.4 0 6.5-.1 6.2-3.7-.1-2.1-.4-4.4-.6-5.3-.3-1.3-.3-1.3-.4 0-.1.9-1.2 3.2-2.6 5.3zM200.3 251c.4 0 1.9.4 3.2.9 1.4.6 3 2.3 3.6 3.8.7 1.9.7 3.8 0 6-.6 1.8-2 3.7-3.1 4.2-1.1.6-3.1 1-4.5 1-1.3 0-3.4-.9-4.5-2s-2-3.3-2-5.2c0-1.8.6-4 1.3-4.9.7-.9 2.1-2.1 3.2-2.7 1.1-.6 2.4-1.1 2.8-1.1zm88.1 0c1.7 0 3.9.8 4.9 1.7 1.1 1.1 1.8 3.2 1.8 5.5-.1 2.6-.8 4.4-2.3 5.8-1.3 1.1-3.2 2-4.3 2-1.1 0-3.2-.9-4.7-2-1.9-1.4-2.8-3.1-3-5.2-.1-2.2.6-3.9 2.2-5.5 1.5-1.5 3.5-2.3 5.4-2.3zm113.5 91.1c1 .2 2.7 3.3 4.4 8.4 1.6 4.3 2.9 9.1 3 10.5.1 1.5-.4 3.4-1.3 4.3-1 1.2-3 1.7-6.7 1.7-3.9 0-5.8-.6-7.3-2.1-1.1-1.1-2-2.5-2-3.2 0-.7 1.5-4.9 3.3-9.3 1.8-4.4 3.6-8.5 4.1-9.3.5-.7 1.6-1.1 2.5-1zm-3.9 18.6c0 .7 1.3 1.2 3 1.2s3-.4 3-1c0-.5-.6-2.5-1.5-4.5-.8-1.9-1.6-3.5-1.8-3.5-.2 0-.9 1.5-1.5 3.3-.6 1.8-1.2 3.8-1.2 4.5z" />
</svg>
