<svg version="1.2" xmlns="http://www.w3.org/2000/svg" width="1179" height="625">
    <path fill-rule="evenodd" d="M778.3 1.1c10.1-.1 20.5.5 26.5 1.4 5.3.8 13.3 2.4 17.7 3.6 4.4 1.1 10.7 3 14 4.1 3.3 1.2 9.6 3.6 14 5.5s13 6 19 9.2c6.1 3.2 19.6 10.9 30 17.1 10.5 6.2 22.6 13 27 15.1 4.4 2.1 11.6 4.7 16 5.8 5.8 1.5 11.2 2.1 19.5 2.1 6.3 0 17.6-.9 25-2 7.4-1.1 19.4-2.5 26.5-3.1 7.2-.6 17.3-.8 22.5-.4 5.2.4 13.2 1.3 17.8 2.1 4.5.8 11.9 2.6 16.5 4 4.5 1.4 12.7 4.9 18.2 7.7 5.5 2.9 12.7 7.2 16 9.6 3.3 2.4 8.9 7 12.5 10.1 3.6 3.2 9.7 9.5 13.6 14.1 3.9 4.6 9.8 12.4 13.1 17.4 3.4 4.9 8.6 13.9 11.6 20 3.1 6.1 6.9 14.5 8.6 18.8 1.7 4.2 4.6 13 6.5 19.5 1.9 6.4 4.5 17.5 5.7 24.7 1.8 10.1 2.3 17 2.3 31 0 9.9-.5 21.6-1.2 26-.7 4.4-2.2 12.7-3.3 18.5-1.1 5.8-3.6 15.7-5.5 22-2 6.3-5.6 16.7-8.1 23-2.5 6.3-7.2 16.9-10.5 23.5-3.2 6.6-8.7 16.7-12.1 22.3-3.4 5.7-9.5 14.7-13.4 20-4 5.4-10.8 13.5-15 18.2-4.3 4.7-11.6 12-16.3 16.3-4.7 4.3-12.5 10.7-17.5 14.2-4.9 3.5-13 8.7-18 11.4-4.9 2.8-12.4 6.4-16.5 8.1-4.1 1.7-12 4.2-17.5 5.5-5.5 1.3-17.2 3.2-26 4.1-8.8.9-18.5 2.2-21.5 3-3 .8-9.3 3.3-14 5.5-4.7 2.2-14.1 7.6-21 11.9-6.9 4.3-17 10.2-22.5 13.2-5.5 2.9-13.8 7.1-18.5 9.2-4.7 2.1-13.7 5.6-20 7.6-6.3 2.1-15.5 4.6-20.5 5.5-5.7 1.1-14 1.7-22.5 1.7-10.5 0-15.5-.4-22.5-2.1-4.9-1.2-12.8-4-17.5-6.2-4.7-2.2-11.2-6-14.5-8.4-3.3-2.3-8.2-6.5-11-9.2-2.7-2.8-6.9-7.4-9.1-10.4-2.3-3-5.7-8.3-7.6-11.9-1.8-3.6-4.5-9.2-6-12.5-1.5-3.3-3.3-6.6-4-7.2-1-1-2.5-.9-7.3.6-3.3 1.1-10.9 4-17 6.6-6 2.5-15 5.9-20 7.5-4.9 1.7-13 3.9-18 4.9-4.9 1.1-13.9 2.5-20 3.2-6.2.6-16 .9-22.5.6-6.3-.4-15.5-1.3-20.5-2.2-4.9-.9-12.8-2.7-17.5-4.2-4.7-1.4-12.3-4.5-17-7-4.7-2.4-10.8-6.3-13.6-8.6-2.8-2.3-6.6-6.2-8.5-8.7-1.8-2.5-3.5-4.7-3.6-5-.2-.3-1.3.5-2.6 1.6-1.2 1.2-5.3 4.4-9.2 7.1-3.8 2.7-11 7.3-16 10.3-4.9 3-13.5 7.5-19 10.1-5.5 2.6-14.7 6.3-20.5 8.3-5.8 1.9-15 4.6-20.5 6-5.5 1.3-13.4 3-17.5 3.7-4.1.7-14.5 1.3-23 1.3-9.3.1-18.3-.5-22.5-1.3-3.8-.8-10.8-2.7-15.5-4.4-4.7-1.6-10.7-4.2-13.5-5.8-2.7-1.5-7.7-4.9-11-7.5-3.3-2.6-8.2-7.2-10.8-10.3-2.6-3.1-6.5-9-8.5-13.1s-3.8-7.7-4-8c-.1-.3-3.7 3-8 7.3-4.2 4.2-11.5 10.5-16.2 13.8-4.7 3.4-12.3 8-17 10.4-4.7 2.3-12.8 5.8-18 7.8-5.2 1.9-14.3 4.7-20.2 6.1-6 1.4-15 3.3-20 4.1-5.1.8-16.7 2.2-25.8 3-9.1.8-21.7 1.5-28 1.5-6.3 0-18.7-.7-27.5-1.5s-21.2-2.5-27.5-3.6c-6.3-1.1-16.4-3.4-22.5-4.9-6-1.6-16.4-4.7-23-7-6.6-2.3-16.9-6.5-23-9.4-6-2.9-15.5-8.2-21-11.8-5.5-3.6-12.9-9.2-16.4-12.5-3.6-3.2-9.1-9.2-12.4-13.3-3.3-4.1-7.6-11.1-9.7-15.5-2.2-4.4-4.7-10.9-5.6-14.5-1.4-4.9-1.8-10.1-1.8-21 .1-12.9.4-15.5 2.8-23.5 1.5-4.9 4.3-12.1 6.3-16 1.9-3.9 5.1-9.5 7.1-12.5s7.5-9.3 12.2-14c4.7-4.7 11.4-10.5 15-12.8 3.6-2.3 6.8-4.3 7.2-4.5.4-.1-.3-2.9-1.7-6.2-1.3-3.3-2.8-9.6-3.3-14-.4-4.4-.5-11.4 0-15.5.4-4.1 2-11.1 3.4-15.5s5-12.7 8-18.5c3-5.8 8.5-14.6 12.2-19.5 3.6-4.9 10.9-13.4 16.2-18.9 5.2-5.4 12.7-12.4 16.5-15.6 3.9-3.2 11.5-8.8 17-12.4 5.5-3.7 15.4-9.4 22-12.7 6.6-3.2 18.1-7.9 25.5-10.3 7.4-2.4 18.7-5.5 25-6.7 9.4-1.9 14.8-2.3 29.5-2.4 11.8 0 19.9.5 23.5 1.4 3 .7 8.2 2.3 11.5 3.4 3.3 1.2 8.3 3.7 11 5.5 2.8 1.9 5.3 3 5.6 2.5.3-.4 2.1-2.8 4-5.2 1.9-2.4 6.3-6.3 9.9-8.6 3.6-2.3 9.4-5.4 13-6.8 3.6-1.4 10.3-3.3 15-4.3 6.3-1.3 12.9-1.8 25.5-1.8 10.3.1 22.1.8 30 1.8 7.2 1 18.2 2.6 24.5 3.7 6.3 1.1 17.8 3.3 25.5 4.9 7.7 1.6 22.1 4.7 32 6.9 9.9 2.2 23 4.9 29 6.1 6.1 1.2 16.2 2.8 22.5 3.6 6.3.8 15.6 1.4 20.5 1.4 5 0 13.1-.8 18-1.9 5-1 11.9-3.2 15.5-5 3.6-1.8 8.8-5 11.5-7 2.8-2.1 8.1-6.9 11.9-10.7 3.8-3.8 13.7-14.6 22.1-23.9 8.4-9.3 21.9-23.5 30.1-31.5 8.2-8 19.2-18 24.4-22.2 5.2-4.1 13.8-10.4 19-13.9 5.2-3.4 14.5-8.8 20.5-12 6-3.1 15.3-7.3 20.5-9.2 5.2-2 13.3-4.5 18-5.8 4.7-1.2 12.1-2.8 16.5-3.4 4.4-.7 15.5-1.3 24.8-1.4zm-27.8 13.5c-4.4.9-13.4 3.3-20 5.4-6.6 2.2-17.4 6.7-24 10-6.6 3.4-15.6 8.5-20 11.4-4.4 2.9-12.7 9-18.5 13.6-5.8 4.7-16.1 13.8-22.9 20.5-6.8 6.6-21 21.7-31.6 33.5-10.5 11.8-21.8 23.9-25.1 26.9-3.2 3-8.6 7.5-11.9 9.9-3.3 2.5-8.7 5.7-12 7.2-3.3 1.5-8.5 3.4-11.5 4.3-3 .9-10 2-15.5 2.6-6.8.7-14.4.7-23.5 0-7.4-.6-19.6-2.1-27-3.5-7.4-1.4-25.6-5.2-40.5-8.5-14.8-3.3-31.5-6.9-37-8-5.5-1.1-17.4-3.1-26.5-4.5-10.4-1.6-22.9-2.8-34-3.1-10.9-.3-20.2-.1-24.7.6-4 .6-11 2.3-15.5 3.8-4.6 1.5-11 4.6-14.3 6.8-3.3 2.2-7.8 6.3-10 9.1s-5.2 7.3-6.8 10c-1.5 2.7-3.9 6.5-5.3 8.4l-2.5 3.5c.1-4.3-.4-6.5-1-7.7-.8-1.7-.8-3.5-.1-6.8.9-3.8.8-4.8-.6-6.4-.9-1-3.5-2.9-5.7-4.2-2.2-1.3-7.8-3.3-12.5-4.5-6.9-1.8-11.3-2.2-23-2.2-9 0-17.7.7-23 1.6-4.7.9-12.2 2.6-16.7 3.7-4.6 1.1-12.7 3.6-18 5.6-5.4 2-14.2 5.8-19.5 8.5-5.4 2.7-12.8 6.7-16.5 9-3.8 2.2-10.2 6.6-14.3 9.7-4.1 3-13.4 11.4-20.5 18.6-7.2 7.2-15.9 17.2-19.3 22.1-3.5 4.9-7.8 11.7-9.6 15-1.8 3.3-4.4 8.9-5.9 12.5-1.4 3.6-3.3 9.5-4.1 13.3-.9 3.7-1.6 10-1.6 14 0 3.9.5 9.2 1.1 11.7.5 2.5 2.7 6.9 4.7 9.8 3.2 4.5 3.5 5.5 2.6 7.5-.6 1.2-4.9 4.5-9.5 7.3-4.6 2.9-11.3 7.9-14.9 11.1-3.6 3.3-8.7 8.8-11.4 12.4-2.6 3.5-6.6 10-8.8 14.4-2.2 4.4-5 11.6-6.1 16-1.5 5.8-2.1 11.3-2.1 20 0 9.9.4 13.2 2.3 19 1.3 3.9 3.2 8.8 4.3 11 1.2 2.2 3.8 6.5 5.8 9.5 2.1 3 7.2 8.8 11.4 12.8 4.2 3.9 11.3 9.6 15.9 12.6 4.5 3 12.3 7.5 17.2 9.9 5 2.5 12.6 6 17 7.7 4.4 1.7 13.9 4.9 21 7 7.2 2.1 17.5 4.7 23 5.9 5.5 1.1 15.2 2.8 21.5 3.8 9.1 1.4 17.9 1.7 42 1.7 24 0 33.1-.3 42.5-1.7 6.6-1 17-2.9 23-4.3 6.1-1.3 14.6-3.6 19-5 4.4-1.5 12.1-4.5 17-6.8 5-2.3 12.4-6.5 16.5-9.3 4.1-2.8 10.3-7.5 13.6-10.5 3.4-2.9 7.7-7.1 9.5-9.2 1.9-2.2 4.8-6 6.4-8.5 2.1-3.1 3.8-4.7 5.5-4.9 1.4-.2 3.2.5 4.2 1.5s1.9 3.9 2.1 6.8c.2 2.7 1.4 7.5 2.6 10.5 1.1 3 4.1 8.2 6.6 11.5 2.5 3.3 7.1 8.2 10.2 10.8 3.2 2.7 9.4 6.6 13.8 8.7 4.4 2.1 12.1 4.9 17 6.1 7.7 2 11.5 2.3 26 2.3 13.8 0 19-.4 28-2.3 6.1-1.2 16.9-4.2 24-6.5 7.2-2.4 17.5-6.5 23-9.1 5.5-2.7 13.8-7.1 18.5-9.8 4.7-2.8 11.9-7.3 16-10.1s10-7.4 13-10.4c3.4-3.3 6.4-5.3 7.8-5.2 1.2 0 3.1.4 4.2 1s3 3.4 4.3 6.3c1.3 2.8 4.2 7 6.4 9.2 2.3 2.2 7.4 5.9 11.5 8.2 4 2.3 11.4 5.6 16.3 7.2 5 1.7 12.8 3.7 17.5 4.5 4.7.8 13 1.8 18.5 2.2 6.1.4 14.3.2 21-.6 6.1-.6 15.1-2 20-3.1 5-1 12.4-3 16.5-4.3 4.1-1.3 14.5-5.2 23-8.6 9.7-3.9 17.6-6.4 21-6.7 4-.4 6.4-.1 8.8 1.1 1.7.9 4.3 2.8 5.7 4.4 1.4 1.5 4.8 7.2 7.6 12.7 2.8 5.5 6.8 12.3 8.9 15 2.1 2.8 5.3 6.7 7.2 8.7 1.8 2 6.2 5.8 9.8 8.5 3.6 2.6 9.7 6.2 13.5 8 3.9 1.8 9.9 4 13.5 5 5.1 1.4 10 1.8 22.5 1.7 14.6 0 17-.3 27.5-3.1 6.3-1.7 16.1-5 21.8-7.2 5.6-2.3 14.4-6.2 19.5-8.7 5-2.6 16-8.7 24.2-13.7 8.3-5 19.1-11 24-13.3 5-2.4 12.4-5.2 16.5-6.3 4.1-1 14.7-2.8 23.5-4 8.8-1.1 19.6-3 24-4.1 4.4-1.2 12.1-3.9 17-6.1 5-2.2 13.1-6.5 18-9.6 5-3.1 12.8-8.5 17.5-12.2 4.6-3.6 12.5-10.7 17.5-15.6s12.2-12.8 15.9-17.5c3.8-4.7 10.1-13.4 14.1-19.5s9.7-15.5 12.7-21c2.9-5.5 7.4-14.7 10-20.5 2.5-5.8 5.7-13.6 7.1-17.5 1.4-3.9 3.4-9.9 4.5-13.5 1.1-3.6 2.7-9.4 3.6-13 .9-3.6 2.2-9.9 3-14 .8-4.1 2-13.8 2.6-21.5 1.1-12 1-16.3-.4-29.5-.9-8.5-2.7-20-4-25.5-1.4-5.5-3.7-13.6-5.2-18-1.4-4.4-4.5-12.1-6.7-17s-6.4-13.3-9.4-18.5c-2.9-5.2-8-13.1-11.3-17.5-3.3-4.4-9.5-11.6-13.7-15.9-4.3-4.3-11.4-10.6-15.8-13.8-4.4-3.3-12.5-8.2-18-10.9-5.5-2.7-14.5-6-20-7.5-5.5-1.4-15.6-3-22.5-3.7-9.6-.8-16-.8-27.5.1-8.2.7-18.6 1.7-23 2.2-4.4.5-13.8.9-21 .9-8.9.1-15.7-.5-21.5-1.8-4.7-1-11.9-3.2-16-4.9-4.1-1.7-17.6-9.1-30-16.3-12.4-7.2-27-15.5-32.5-18.3-5.5-2.9-13.8-6.9-18.5-8.9-4.7-2-12.1-4.8-16.5-6.2-4.4-1.4-12.3-3.5-17.5-4.6-7.2-1.6-14-2.1-28-2.4-10.2-.2-20.1-.1-22 .1-1.9.3-7.1 1.2-11.5 2zm-98.2 532c3.6.2 7.1 1.3 9.5 2.7 2 1.3 4.8 4.1 6.2 6.3 2.2 3.5 2.5 4.9 2.4 13.4 0 7.8-.5 10.6-2.5 15.5-1.4 3.3-4.3 8.7-6.6 12-2.2 3.3-6.2 8-8.9 10.4-2.7 2.3-6.7 5.2-8.9 6.3-2.4 1.2-5.9 2-9 2-3.4-.1-5.9-.7-10.5-4.2l-4.9 4.3c-2.7 2.3-7.1 5.3-9.8 6.6-3.7 1.8-6 2.3-10 2-3-.2-6.3-1.2-8-2.5-1.5-1.1-4-4.5-5.5-7.5-1.6-2.9-3.1-7.9-3.4-10.9-.4-3-.1-8.8.5-12.7.6-4 2.6-10.6 4.4-14.5 1.8-4 4.8-8.5 6.5-10 1.8-1.6 4.4-2.8 6-2.8 1.8 0 3.5-1 5.3-3.3 1.5-1.7 5.3-4.8 8.5-6.7 3.3-1.9 8.4-4 11.4-4.7 3-.7 7-1 9-.7 1.9.2 5.5 0 8-.5 2.5-.6 7.1-.8 10.3-.5zm-39.7 16.9-6.5 3-.2 11c-3.4-4.2-4.7-5.5-5.1-5.5-.5 0-1.7 2.6-2.9 5.8-1.4 3.9-2.2 8.4-2.3 14.2 0 5.4.5 10.1 1.4 12.8.8 2.3 2.1 4.5 2.8 4.7.6.3 2.8-.2 4.7-1 1.9-.8 5.9-3.7 8.8-6.4 2.8-2.6 6.2-5.3 7.5-6 1.2-.6 3.2-1.1 4.5-1.1 1.2.1 3.8 1.7 6 4 3.3 3.6 3.9 3.9 6 2.8 1.2-.6 3.6-2.1 5.2-3.4 1.7-1.2 4.8-4.8 7.1-8.1 2.2-3.2 4.8-7.4 5.7-9.3.9-1.9 2-5.7 2.5-8.5.6-2.7.6-6.4.1-8-.4-1.6-1.5-3.7-2.5-4.5-1.3-1.2-4.9-1.5-15.8-1.7-8.6-.1-15.3.3-17.3 1-1.7.7-6.1 2.6-9.7 4.2zm411.9-327.4c5-.1 8 .4 10.5 1.8 2.4 1.2 4.4 3.5 6.2 7.2 1.5 3 3.2 8.3 3.8 11.9.6 4.3.7 8.4 0 12-.5 3-1.8 8-2.9 11-1 3-4 10.2-6.6 16-2.6 5.8-5.5 12.7-6.5 15.5-1 2.7-3.2 6.2-4.9 7.7-1.8 1.6-4.3 2.8-5.8 2.8-1.6.1-3.6-.7-4.5-1.7-1.1-1.1-2.4-5.2-3.2-10.3-.8-4.7-2.6-13.8-4-20.3-1.8-8.2-2.6-14.7-2.6-21.7 0-7.8.5-11.7 2.5-17.8 1.5-5 3.4-8.6 5.2-10.3 1.5-1.5 3.5-2.9 4.3-3.2.8-.3 4.7-.6 8.5-.6zm-11.4 30.2c0 1.8.9 5.2 2 7.7l2 4.5c2.2-3.9 2.9-7 2.9-9.5s-.4-6-1-7.8c-.5-1.7-1.7-3.2-2.5-3.2-.9 0-1.9 1.2-2.4 2.6-.5 1.4-.9 4-1 5.7zm-636.6-27.1c1.7-.1 13.8.9 27 2.2 13.2 1.3 26.9 3.1 30.5 4 3.6 1 8.1 2.2 10 2.8 1.9.6 5.9 3.2 8.8 5.7 2.9 2.5 5.7 6 6.3 7.6.5 1.6.9 6.3.9 10.2 0 4.7-.7 9.2-1.9 12.5-1.1 3-4.1 7.7-6.9 10.8-2.8 3.1-7.4 6.9-10.8 8.6-3.2 1.8-9.7 4.1-14.4 5.3-4.7 1.1-12.9 2.4-27.9 3.6l-.3 14.5c-.3 11.6 0 15.2 1.3 18 1 2.3 2.9 4.2 5.5 5.4 2.1 1 5 2.4 6.4 3q2.5 1.2 2.5 3.6c0 1.6-.9 2.9-2.5 3.7-1.9 1-8.7 1.2-30.5.8-20.1-.4-28.4-.9-29.3-1.8-.8-.6-1.2-2.3-1-3.7q.3-2.5 2.8-3.2c1.4-.3 4.3-1 6.5-1.5 3.2-.6 4.3-1.5 5.7-4.3 1.5-3.1 1.6-5.9.9-26-.4-12.4-.3-30.4.1-40 .6-11.5.5-19.1-.2-22.3-.5-2.6-1.6-5-2.2-5.5-.7-.4-3.5-1.1-6.2-1.7-3.5-.7-5.5-1.8-7-3.8-2-2.6-2-2.8-.3-4.5 1.3-1.2 4.8-2 12.5-2.8 5.9-.6 12.1-1.2 13.7-1.2zm20 44.8c.4 8 .9 14.8 1.1 15.2.2.5 3.4 0 7.2-1.1 3.7-1 8.1-2.5 9.7-3.4 1.7-.8 4-2.6 5.2-3.9 1.2-1.2 2.6-3.5 3.2-5.1.6-1.5 1.1-6.9 1.1-12 0-8.8-.1-9.3-2.7-11.8-1.6-1.5-4.6-3.6-6.8-4.7s-6.2-2.3-9-2.7c-2.7-.4-5.7-.9-6.6-1.1-1.2-.4-1.6 1-2.3 7.8-.4 4.6-.4 14.8-.1 22.8zm-21.3 56.5 1.1 4c2.6-8.2 2.6-14.2 1.8-39-.5-16.5-1.2-31-1.4-32.3-.2-1.2-.9-2.2-1.5-2.2-.9 0-1.2 8.6-1.2 32.7 0 21.8.4 34.1 1.2 36.8zm55.1-52.3c-3.5 2.6-6.3 5.2-6.3 5.8 0 .6.8 1 1.8 1 .9 0 3.7-1.3 6.2-2.8 2.5-1.6 5.5-4 6.8-5.3 1.3-1.3 2.1-3.2 1.9-4.1-.3-1.4-.7-1.5-2.3-.6-1 .6-4.7 3.3-8.1 6zM226 240.9c4.7.3 11.4.5 15 .5 3.6-.1 12.6-.3 20-.4 7.4-.1 18.7.4 25 1 7.2.7 18.6.9 30.5.5 13-.5 19.9-.4 21.8.4 2.1.9 2.6 1.7 2.5 3.8-.2 2.2-1.3 3.3-4.8 5-2.5 1.2-5.6 2.5-7 2.8-1.4.3-3.3 1.1-4.2 1.8-1.4 1-2 4.1-3 16.2-.9 11.9-.9 19.6.2 37.5.7 12.4 1.4 25.2 1.6 28.5.2 3.3.9 7 1.6 8.3.7 1.2 3.9 3.6 7.1 5.2 4.3 2.3 5.7 3.5 5.7 5.2.1 1.3-.5 2.8-1.2 3.5-.9.8-6.7 1.1-19.3 1-9.9-.1-22.4.2-27.7.6-9.6.7-9.9.6-12.3-1.8-1.4-1.4-2.5-2.8-2.5-3.3 0-.4.5-1.5 1.2-2.5s3.7-2.4 6.7-3c4.8-1.1 5.5-1.6 6.6-4.7.7-1.9 1.8-9.6 2.5-17 .9-9.5 1.1-22.4.7-43.5-.4-16.5-.8-30.1-.9-30.1-.2-.1-11.1-.5-48.3-1.5l.8 9.3c.5 5.1 1.3 15.8 1.8 23.8s1.2 24.2 1.5 36c.5 15.1 1.1 22.3 2 24.2.8 1.6 2.3 3.2 3.4 3.8 1.1.5 3 1 4.3 1 1.2 0 2.8.5 3.5 1.2.7.7 1.2 2.1 1.2 3 0 1-.8 2.6-1.7 3.6-1.6 1.6-3.4 1.7-18.3 1.3-9.1-.3-20.3-.6-25-.6-4.7 0-10.3.4-12.5.9-3.4.8-4.3.6-6.2-1.3-1.3-1.1-2.3-3-2.3-4.1 0-1.1 1-2.9 2.3-4q2.2-2 6.2-2c2.2.1 4.5-.5 5.2-1.2.7-.7 2.4-5.1 3.8-9.8 2.3-7.8 2.5-10.1 2.5-27 0-14.4-.3-19.5-1.6-23-1.1-3.3-1.6-8.7-1.9-35.5l-5-1.2c-2.7-.7-6.1-2.1-7.5-3.1-1.4-1.1-2.6-2.8-2.8-3.8-.2-1 .4-2.6 1.4-3.4 1.1-1 4.8-1.7 10.3-2.1 4.7-.3 12.4-.3 17.1 0zm-.4 47.1c.8 9.6 1.8 18.9 2.3 20.5.7 2.4.9 1.5 1-4.5 0-4.1-.4-12.5-.9-18.5-.6-6.1-1.4-12.4-1.8-14-.5-1.6-1.1-2.6-1.4-2-.3.5 0 8.9.8 18.5zm82.9 40.7c.3 1.8 1 3.1 1.5 2.8.6-.3 1-4 1-8.3 0-4.2-.2-9.4-.5-11.5-.2-2-.9-3.7-1.5-3.7s-1 3.4-1 8.7c0 4.9.2 10.3.5 12zm169-87.2c3.9.3 13.8.8 22 1.1 10.2.4 16.8.2 20.5-.7 4.5-1 6.1-1 8.8.2 2.5 1.1 3.3 2 3.3 3.9s-.9 2.9-3.8 4.2c-2.1 1-4.9 1.9-6.3 2-2.1.2-2.6 1-3.2 4.3-.4 2.2-1.4 9.2-2.2 15.5-.9 6.3-1.5 16.7-1.5 23 .1 6.3.4 14.6 1.4 25.4l3.7-4.4c2.1-2.5 7.5-9.3 12-15.1 4.6-5.8 12.7-15.3 18.2-21 5.4-5.7 11-12.1 12.5-14.2 2.4-3.5 2.5-4.2 1.4-7.5-.6-2-2-4.4-3-5.3-1-.9-3.6-1.9-5.8-2.3-2.2-.3-4.6-1.2-5.3-1.9-.7-.6-1.3-2.1-1.3-3.2s.8-2.7 1.7-3.5c1.4-1.2 2.9-1.3 8.8-.6 3.9.5 17.5 1.2 53.1 2.1v3c0 2.4-.5 3.1-3 3.8-1.6.5-4.1 1.4-5.5 2-1.5.7-3.6 3.4-5.2 6.7-2.1 4.4-2.8 7.4-3.2 15-.3 5.2-.6 17.8-.6 28-.1 10.2-.2 24.2 0 44l6.3 3.2c3.4 1.8 7.6 3.7 9.2 4.3 2.1.7 3.1 1.8 3.3 3.5.2 1.4-.2 2.9-.8 3.5-.6.6-7.3 1.5-14.8 2-7.5.6-16.8.7-20.7.3-3.8-.4-11.3-.7-16.5-.8-5.7 0-10.2-.5-11.2-1.3-1-.7-1.8-2.3-1.8-3.7-.1-1.4.5-3.1 1.2-3.8.7-.6 3.8-1.6 6.8-2 3-.4 6.1-1.1 6.8-1.5.7-.4 1-1.8.7-3.5-.3-1.5 0-7 .6-12.2.7-5.2 1.2-18.6 1.4-50l-11.3 11.3c-6.5 6.4-14.9 16.2-19.7 22.7-4.5 6.3-10.6 13.9-13.4 16.7-4.2 4.3-5.1 5.9-5.1 8.8 0 3 .6 3.8 3.8 5.7 2 1.2 5.3 2.8 7.2 3.4 1.9.7 4 1.9 4.5 2.8.7 1.1.6 2.2-.1 3.3-.9 1.5-3 1.9-11.5 2.2-5.7.2-18.9.2-29.4.1-16.1-.2-19.3-.4-20.8-1.8-1-1-1.8-2.5-1.7-3.5 0-.9 1-2.3 2.3-3.1 1.2-.8 3.8-1.6 5.7-1.9 1.9-.4 4.2-1.4 5-2.3 1.1-1.2 1.7-5.2 2.2-13.8.3-6.7 1.2-19.7 1.8-29.1.6-9.4 1-24 .3-48l-2.9-2.3c-1.6-1.2-3.9-2.5-5.1-2.7-1.3-.3-3.4-.7-4.8-1-1.4-.3-3.4-1.4-4.5-2.5s-2.1-2.4-2.2-3c-.1-.5.9-1.9 2.3-3 2.1-1.9 3.2-2.1 9.4-1.5zM585 281.2c0 5.7.3 13.2.7 16.8.4 4.6.8 5.9 1.4 4.5.4-1.1.8-9.1.9-17.7.1-9.5-.2-15.9-.8-16.2-.5-.3-1.2.1-1.6.9-.3.8-.6 6.1-.6 11.7zM493.9 296c.1 9.6.4 19.5.7 22 .4 3.5.8 4.2 1.7 3.2.8-.9 1.2-7.4 1.2-21 0-10.8-.3-21.4-.6-23.5-.3-2-1.1-3.7-1.7-3.7-.7 0-1.2 1.2-1.3 2.7V296zm161.6-54.9c15.4 0 34.5.4 42.5.8 10.8.7 15.6 1.4 19 2.8 2.5 1.1 6 3.3 7.9 4.9 1.8 1.6 4.1 4.2 4.9 5.9q1.6 3 1.6 11.5c.1 6.2-.4 9.5-1.6 12-1 1.9-3.9 5.9-6.5 8.9-3.1 3.5-6.6 6.2-14.8 9.8l4.5.8c2.5.4 6.7 1.7 9.4 2.9 2.7 1.1 6.6 4 8.7 6.3 2.2 2.4 5 6.7 6.4 9.5 1.4 2.9 2.5 7 2.5 9 0 2.1-1 6.4-2.1 9.5-1.2 3.2-3.7 8-5.4 10.8-1.8 2.7-5 6.2-7.2 7.7-2.1 1.5-5.8 3.4-8.3 4.3-2.5.9-8.1 2.3-12.5 3.2-6.2 1.1-15.4 1.5-41.2 1.4-24.5-.1-34-.4-36-1.4-1.8-.8-2.9-2.1-3.1-3.7-.1-1.4.3-3.1 1-3.8.7-.7 2.9-1.5 4.8-1.7 1.9-.3 5-1.8 10.3-6l.7-32c.4-17.6.3-34.9-.1-38.5-.5-3.6-.8-9.4-.8-13 0-6.2-.2-6.6-3.3-9.1-1.8-1.4-5.5-3.2-8.2-4-2.7-.8-5.2-2.1-5.7-2.9-.5-.9-.3-2.2.4-3.1.7-.9 1.9-1.9 2.7-2.2.8-.3 14.1-.6 29.5-.6zm16 22.4c.8 3.9 1.8 11.8 2.2 17.8.4 5.9 1 10.7 1.3 10.7.3 0 4-1 8.4-2.3 6.4-1.8 8.6-3 12-6.4 2.2-2.4 4.7-6 5.3-8 .7-2.1 1.1-4.8.8-6.1-.3-1.2-.7-3.2-.9-4.5-.3-1.2-1.6-3.3-2.9-4.7-1.6-1.7-4.8-3-9.8-4.2-4.1-.9-9.8-1.9-12.7-2.2-4.5-.4-5.3-.3-5.3 1.2.1.9.8 4.8 1.6 8.7zm35.9 14.5-.7 3.5c3.4-3.1 5.3-6.3 6.4-9 1.2-2.8 1.8-6 1.5-7.3-.3-1.2-1-2.2-1.5-2.2s-1.8 2.6-3 5.7c-1.1 3.2-2.3 7.4-2.7 9.3zm-57.5 12.4c-.4 10.5-.3 24 .2 30.1.5 6 1.1 11.2 1.4 11.5.3.3.8.1 1.3-.3.4-.5.8-14.4 1-31 .1-16.6-.1-30.6-.6-31-.4-.5-1.2-.3-1.7.4s-1.2 9.9-1.6 20.3zm21.7 24.1c-.3 3.3-.8 10.7-1.2 16.5-.4 7.5-.2 11.8.8 15l1.4 4.5c11.5-.5 16.9-1.1 19.4-1.6 2.5-.6 5.6-2 6.8-3.2 1.3-1.2 2.9-3.3 3.6-4.7.8-1.5 1.2-6.8 1.2-13.7-.1-10-.3-11.4-2.1-12.8-1.1-.8-3.8-2.6-6-4s-7.7-3.4-12.2-4.5c-4.6-1.1-8.7-2-9.3-2-.5 0-1.2 1-1.4 2.2-.3 1.3-.7 5-1 8.3zm44.6 11.9c-.3 4.9-.2 7.9.4 7.5.5-.4 1.7-2.3 2.7-4.3.9-2 1.8-5.3 1.9-7.5q.3-3.9-1.3-5c-1.2-.9-1.8-.9-2.4 0-.4.7-1 4.9-1.3 9.3zm51.3-84.9c6.6.3 22.1.7 34.5 1 12.4.4 29.1.6 37.3.6 10.7-.1 14.9.2 15.6 1.1.4.7 1.3 7.1 1.9 14.3.8 10 .8 13.3-.1 14.3-.7.7-2.2 1.3-3.4 1.2-1.3 0-3-.3-3.9-.8-.9-.4-2.5-2.3-3.4-4.2-1-1.9-2.9-4.5-4.2-5.7-1.2-1.2-6-4-18.8-10.3l-23.5.5-.6 8.5c-.3 4.7-.3 14.3 0 21.3.6 12.2.7 12.8 2.6 12.2 1.1-.3 5.6-1.1 10-1.7 4.4-.6 9-1.8 10.1-2.7 1.2-.9 3.1-3 4.3-4.6 1.1-1.6 2.1-4.5 2.1-6.3 0-1.7.5-4.1 1-5.2.6-1.3 2-2 3.8-2 1.5-.1 3.6.9 4.7 2.1 1.9 2 2 2.8 1.1 17.2-.4 8.4-.8 15.9-.8 16.7 0 .8.1 4.2.2 7.5.1 4.4-.3 6.4-1.4 7.5-1.3 1.1-2.1 1.2-3.4.4-.9-.6-2.1-2.5-2.7-4.1-.5-1.7-2.4-4.8-4.1-6.9-1.7-2.2-5.6-5.1-8.5-6.6-4.3-2.2-6.8-2.8-18.9-2.8l-.1 4.2c-.1 2.4-.3 10.7-.5 18.5-.3 11.2-.1 15.1 1.1 17.8 1.3 2.9 2.4 3.8 6.8 5.1 4 1.3 7.6 1.6 15.7 1.1 5.8-.3 12.2-1 14.3-1.6 2.3-.7 5.8-3.3 9.5-6.9 3.1-3.2 7.3-8.8 9.2-12.5 1.9-3.7 4-6.8 4.5-6.8.6 0 1.5.6 2.1 1.3.6.7 1.4 2.4 1.7 3.8.4 1.4.2 5.4-.4 9-.6 3.6-1.1 10-1.2 14.3-.1 4.3-.6 8.3-1.2 8.8-.5.5-8.6.8-18 .8-9.3-.1-30 .1-46 .4-15.9.3-32.3.8-36.2 1.1-6.4.5-7.5.4-9.3-1.4-1.1-1.1-2-2.7-2-3.5 0-.8.9-2.4 2-3.5s4.7-2.6 8.2-3.3c4.4-.8 6.7-1.9 8.1-3.7 1.9-2.4 1.9-3.6.6-88.5l-3.7-3.7c-2.3-2.3-5.2-4.1-7.7-4.7-2.2-.5-4.6-1.7-5.2-2.5-.7-.9-1-2.3-.6-3.1.4-.9 1.6-2 2.7-2.5 1.2-.5 7.5-.7 14.1-.5zm15.7 86.7c1 4.6 1.2 5 1.9 2.8.4-1.4.7-5.3.8-8.8.1-3.4-.4-10.6-1-16-.6-5.3-1.5-10.4-2-11.2-.5-.9-.9 4.2-.9 13.2 0 8.2.5 17.2 1.2 20zm178.3-86.5c9.4.1 17.8.2 18.8.3.9 0 2.4.8 3.3 1.7 1.1 1.3 1.4 2.8.9 5.3-.3 1.9-.7 8-.7 13.5-.1 8.3-.4 10.3-2 11.7-1.1 1.1-2.7 1.6-4 1.3-1.3-.3-2.7-.5-3.3-.5-.5.1-2.6-2.1-4.5-4.7s-4.1-5.4-5-6.1c-.8-.7-3.2-2.1-5.2-3.2-2.8-1.4-5.8-2-17.8-2l-1 3.2c-.6 2-1 17.3-1 38 0 27.3.3 35.9 1.5 40 .8 2.9 2 5.8 2.7 6.5.7.7 3.8 1.7 6.8 2.3 3 .6 6.3 1.8 7.3 2.8 1 .9 1.8 2.4 1.8 3.2 0 .8-1.1 2.5-2.3 3.7-1.3 1.2-3.5 2.6-5 3.2q-2.8 1.1-28.5.5c-14.2-.3-26.8-.7-28-1-1.4-.2-2.7-1.5-3.3-3.2-.8-2.1-.7-3.2.5-5 .8-1.2 3.2-2.7 5.3-3.3 2-.6 4.8-2 6.2-3.2 1.4-1.2 3.2-3.2 4-4.3 1.3-1.8 1.5-6.7 1.3-29.5-.1-15.7-.6-29.1-1.2-31.4-.6-2.2-1.2-8.6-1.6-24.5h-4c-2.2 0-6.9.8-10.5 1.9-3.9 1.1-7.3 2.8-8.5 4.2-1.1 1.3-3.1 4.6-4.5 7.4-1.7 3.4-3.4 5.3-5.3 6-1.9.7-3.3.7-4.5-.1-1.5-1-1.7-3.2-1.9-16 0-8.2.3-15.5.8-16.2.7-.9 7.7-1.2 28.7-1.3 15.2-.1 32-.4 37.2-.8 5.2-.3 17.2-.5 26.5-.4zm-33 9.8c7.8.5 11.6.3 13.5-.1 3-.5 3.2-.8 1.5-1.4-1.1-.5-3.3-.9-5-.8-1.6 0-4.6.5-6.5 1.1zm-7.1 65.6c.8 1.3.9 1.3 1.7 0 .5-.9.9-4.5.9-8 0-3.6-.4-9.4-.9-12.8-.6-3.6-1.4-6.2-2.1-6.2-.9 0-1.1 3.4-.9 12.7.2 7 .8 13.4 1.3 14.3zm105.1 11.4c2.2.3 5 1.2 6.3 2 1.2.9 3 2.8 4 4.3 1.2 1.9 1.7 4.7 1.7 9.7 0 5.8-.5 7.8-2.6 11.6-1.7 2.8-4.3 5.3-7 6.9-3.4 1.8-5.5 2.3-9.1 2-3.4-.3-5.4-1.2-7.8-3.4-1.8-1.7-3.8-4.3-4.6-5.8-.8-1.5-1.4-4.5-1.4-6.7s.7-5.5 1.6-7.3c.9-1.8 2.7-4.8 3.9-6.6 1.3-1.9 4.2-4.2 6.6-5.3 3-1.3 5.7-1.7 8.4-1.4zm-4.6 14.1c.1.8.3 2.1.6 3 .4 1 1.1 1.2 2.6.7 1.2-.4 2.8-1.9 3.5-3.2 1-2 1-2.8.1-3.8-.7-.7-1.7-1.3-2.4-1.3-.6.1-1.9.8-2.8 1.6-.9.9-1.6 2.2-1.6 3z" fill="#f17906"/>
</svg>
