<svg version="1.2" xmlns="http://www.w3.org/2000/svg" viewBox="0 0 2048 2048" width="200" height="200">
    <path fill-rule="evenodd" d="M1268 90c1.1 0 2.9.9 4 2s3.6 5.5 5.6 9.8c2 4.2 5.4 12.2 7.6 17.7 2.2 5.5 4.1 10.7 4.3 11.5.2.8 1.5 5.1 2.8 9.5 1.4 4.4 4.3 14.3 6.5 22 2.2 7.7 5.9 21 8.2 29.5 2.3 8.5 5.5 19.6 7.1 24.5 1.5 4.9 3.6 9.8 4.6 10.8 1.7 1.6 2.2 1.5 10.8-2.9 5-2.6 13.7-6.6 19.5-8.9 5.8-2.4 16.3-6.1 23.5-8.4 7.2-2.2 15.5-4.7 18.5-5.5 3-.8 8.9-2.4 13-3.5s17.6-4.6 30-7.6c12.4-3 24.4-6 26.8-6.5 2.3-.6 6.3-1 9-1 3-.1 5.5.5 7.1 1.7 1.8 1.4 2.4 2.8 2.5 6.2.1 4.1-.2 4.7-3.9 7.4-2.2 1.6-9.4 6.4-16 10.8-6.6 4.3-16 10.6-21 14-5 3.4-12.7 8.7-17.2 11.8-4.5 3.1-14.9 10.3-23.2 16.1-8.3 5.8-15.1 11.2-15.1 12 0 .8 2.5 4.2 5.6 7.5 3.1 3.3 7.8 8.5 10.3 11.5 2.6 3 8.3 10.7 12.6 17 4.4 6.3 13.2 18.6 19.7 27.2 6.5 8.7 12.3 15.8 12.8 15.8s1 .7 1 1.5 1.9 3.9 4.3 6.9c2.3 2.9 8 10.6 12.7 17.1 4.7 6.5 9.2 12.5 10.1 13.4.9.9 3.3 5.2 5.2 9.6 2 4.4 3.7 9.4 3.7 11 0 1.6-1.1 4.7-2.5 6.7-1.5 2.3-3.6 4.1-5.3 4.4-1.5.4-4.9.5-7.7.2-3.2-.3-8.7-2.2-15-5.3-5.5-2.6-13.6-7.2-18-10-4.4-2.9-9.3-6-11-6.9-1.7-.9-10.5-6.2-19.7-11.9-9.2-5.6-23.2-14.2-31-19.1-7.9-5-18.1-11.5-22.8-14.5-4.7-3-13.9-8.3-20.5-11.7-6.6-3.5-14.7-7.3-18-8.5-4.1-1.6-8.2-2.3-13-2.3-5.2 0-7.8.5-10.1 2-1.7 1-5 3.1-7.3 4.6-2.2 1.6-7.1 5.8-10.7 9.5-3.7 3.8-10.5 11.6-15.3 17.4-4.7 5.9-12 15.3-16.1 21-4.2 5.7-11.2 15.5-15.5 21.7-4.4 6.2-11.3 15.8-15.4 21.5-4 5.6-8 10.7-9 11.4-.9.7-3.5 1.3-5.8 1.3-3.5 0-4.7-.5-6.3-2.8-1.2-1.5-2-4.1-2-5.7 0-1.6.6-4 1.3-5.2.6-1.3 5.1-8.9 9.8-17 4.8-8.2 9.7-16.9 11-19.4 1.3-2.5 5.5-10.4 9.3-17.5 3.8-7.1 8.8-16.4 11.2-20.7 2.4-4.2 4.4-8.3 4.4-9 0-.6.7-1.9 1.4-2.7.7-.8 4.5-7.6 8.3-15 3.9-7.4 8.7-16.5 10.7-20.3 3.1-5.7 3.4-6.8 2.1-7.7-1-.7-2.2-.6-3.8.1-1.2.6-4.7 1.3-7.7 1.5-3 .2-8.2-.1-11.5-.7-3.3-.6-8.5-1.4-11.5-2-3-.5-8.9-1.4-13-1.9-4.1-.6-11.5-1.5-16.5-2.1-5-.6-12.5-1.4-16.8-2-4.2-.5-11.2-1.3-15.4-1.9-4.3-.5-11.6-1.4-16.3-2-4.7-.6-10.7-1.4-13.5-1.8-2.7-.5-6-1.4-7.2-2-1.9-1-2.3-1.9-2-5.5.2-3.9.5-4.4 4.7-6.4 2.5-1.2 9.7-3.6 16-5.3 6.3-1.7 12.8-3.3 14.5-3.5 1.7-.3 3.6-.9 4.3-1.5.6-.5 1.7-.8 2.2-.5.5.3 6.5-.9 13.3-2.5 6.7-1.7 14.2-3.5 16.7-4.1 2.5-.6 6.1-1.4 8-1.9 1.9-.5 7.5-1.9 12.5-3 5-1.2 10.1-2.5 11.5-3 1.4-.4 5-1.3 8-1.9 3-.7 9.3-2.1 14-3.2 4.7-1.1 10.3-2.5 16.5-4l-.3-9.7c-.1-5.3-.7-13.9-1.2-19-.6-5-1-24.4-1-43 .1-21.6.6-37.7 1.4-44.7 1-7.8 2-12.3 3.8-15.5 1.3-2.5 2.7-5.1 3.1-5.8.5-.6 1.7-1.2 2.7-1.2zm-2.9 45.1c.4 19.5 1.2 43.3 1.8 52.9.6 9.6 1.5 21.8 2.1 27 .5 5.2 1.2 11.3 1.6 13.5.3 2.5.1 5.1-.8 6.8q-1.3 2.8-5.3 4.1c-2.2.8-6.5 1.9-9.5 2.5-3 .7-9.3 2.1-14 3.2-4.7 1.1-10.5 2.5-13 3-2.5.6-6.1 1.4-8 1.9-1.9.5-9.3 2.3-16.5 4-7.2 1.7-16.8 4-21.5 5.1-4.7 1.2-10 2.5-11.7 3-2.1.6-3.3 1.5-3.3 2.6 0 1.5 1.6 2 10.2 3.1 5.7.6 12.4 1.2 15.1 1.2 2.6 0 8 .5 12 1.1 3.9.6 9.5 1.4 12.2 1.9 2.8.5 7.7 1.4 11 2.1 3.3.6 8.3 1.9 11 2.7 3.3 1.1 6.7 3.2 10 6.4 2.8 2.6 5.6 4.8 6.3 4.8.6 0 2.4-1.4 4-3.1 1.5-1.7 3.9-3.7 5.5-4.5 2.6-1.4 2.7-1.3 2.4 1.3-.2 1.6-1.8 5.7-3.4 9.3-1.7 3.6-4.3 9.2-5.8 12.5-1.5 3.3-4 8.9-5.6 12.5-1.5 3.6-3.7 8.3-4.8 10.5-1.7 3.4-1.8 4.2-.6 5.5 1.3 1.3 2.7.3 11.7-8.5 5.7-5.4 10.8-10.8 11.3-11.7.5-1 1.7-1.9 2.5-1.9s4.2-1.3 7.5-2.9c3.3-1.6 8.3-3.4 11-4 3-.7 7.8-.9 12-.5 4.3.5 10.5 2.1 16 4.3 5 1.9 11.9 4.9 15.5 6.7 3.6 1.7 9.7 5.1 13.5 7.5 3.8 2.3 9.5 5.7 12.5 7.5 3 1.7 7.8 4.6 10.5 6.4 2.8 1.8 8.7 5.7 13.3 8.7 4.5 3 8.5 5.4 9 5.4.4 0 4.1 2.2 8.2 4.9 4.1 2.6 10.9 6.9 15 9.4s8.4 4.9 9.5 5.3c1.1.4 2.8 1.5 3.7 2.3.9.9 3.7 2.7 6.2 4.1 3.6 2 4.8 2.2 5.8 1.3 1-1 .7-1.9-1.7-4.9-1.7-2-6.2-8-10.2-13.3-3.9-5.3-10.5-14.5-14.6-20.6-4-6.1-10.3-15.9-13.9-22-3.6-6.1-7.7-13.3-9.1-16-1.4-2.8-3.4-7.5-4.4-10.5-1.1-3-2.5-7.1-3-9-.6-1.9-1.7-5.7-2.4-8.3-.8-2.7-2-5.3-2.6-5.8-.8-.6-2.7-.3-5 .7-2.1.8-6.5 2.4-9.8 3.5-3.3 1.1-8 3.2-10.5 4.5-2.5 1.4-4.7 2.5-5 2.4-.3 0 1.3-1.9 3.5-4.2 2.3-2.4 6.3-7.6 9-11.6 3-4.5 7.9-9.8 12.4-13.5 4.1-3.4 8.4-6.9 9.6-7.7 1.3-.8 4.7-3.2 7.6-5.3 3-2.1 11.4-7.8 18.7-12.8 7.2-4.9 13.2-9.6 13.2-10.4 0-1.1-.7-1.4-2.7-.9-1.6.3-6.4 1.4-10.8 2.6-4.4 1.1-14.3 3.8-22 6-7.7 2.2-14.9 4.4-16 4.8-1.1.4-5.6 2-10 3.6-4.4 1.5-14.7 5.9-23 9.8-11.7 5.5-16 7-19.7 7.1-3.8 0-5.2-.5-7.9-3-1.7-1.7-4-4.8-4.9-7-1-2.2-3-8.3-4.4-13.5-1.4-5.2-3.5-13.3-4.6-18-1.2-4.7-2.8-11.7-3.5-15.5-.8-3.8-1.9-9-2.4-11.5-.6-2.5-3.3-13.3-6-24-2.8-10.7-5.7-21.8-6.6-24.5-.9-2.8-2.7-8.4-4-12.5-1.3-4.1-3.3-9.6-4.4-12.3-1.2-2.6-2.5-4.7-2.9-4.7-.4 0-1.3.4-1.8.8q-1 .8-.3 36.3zm-213.6 40.3c17.6.3 38.3 1 46 1.5 7.7.5 18.5 1.4 24 2 5.5.6 13.4 1.5 17.5 2.1 4.1.6 10.4 1.4 14 1.9 3.6.6 9.2 1.4 12.5 2 3.3.5 8.5 1.5 11.5 2 3 .6 7.5 1.6 10 2.1 2.5.6 6.3 1.3 8.5 1.6 2.2.3 5.3 1.1 6.8 1.7 1.5.7 2.8 1.8 2.7 2.5 0 .6-.7 2.6-1.5 4.2-.8 1.7-2.3 3.4-3.3 3.9-.9.5-3.5.6-5.7.1-2.2-.4-6.5-1.3-9.5-2s-7.9-1.6-10.8-2.1c-2.8-.5-7.8-1.3-11-1.9-3.1-.5-9.1-1.5-13.2-2.1-4.1-.6-10.2-1.2-13.5-1.3-3.3-.2-6.7-.7-7.5-1.1-.8-.5-5.8-1.2-11-1.6-5.2-.5-20.5-1.3-34-2-13.5-.6-29-1.2-34.5-1.3-5.5 0-20.6.5-33.5 1.2-12.9.7-28 1.7-33.5 2.2-5.5.4-14 1.2-19 1.7s-9.5 1.2-10 1.5c-.5.3-3.7.9-7 1.2-3.3.4-8.7 1-12 1.6-3.3.5-8.5 1.3-11.5 1.9-3 .5-9.1 1.6-13.5 2.5-4.4.9-10.5 2.1-13.5 2.7-3 .7-8 1.8-11 2.6s-7.1 1.8-9 2.3c-1.9.4-6.9 1.7-11 2.8-4.1 1.1-11.5 3.3-16.5 4.7-5 1.4-14.4 4.4-21 6.7-6.6 2.2-18.3 6.4-26 9.3-7.7 3-16.7 6.5-20 8-3.3 1.4-7.3 3.2-9 3.8-1.6.7-13.1 6.3-25.5 12.5s-22.6 11.7-22.8 12.2c-.1.6-.8 1-1.5 1-.6 0-4.8 2.1-9.2 4.7-4.4 2.6-11.1 6.7-15 9.1-3.9 2.5-11.4 7.5-16.9 11.1-5.4 3.6-10.8 7.3-12 8.1-1.2.8-4.8 3.5-8 6s-6.6 4.9-7.5 5.5c-.9.6-4.6 3.2-8.1 5.9-3.6 2.8-10.5 8.4-15.3 12.5-4.9 4.2-11 9.3-13.5 11.5-2.6 2.1-7.4 6.4-10.7 9.5-3.3 3-12.8 12.3-21.1 20.6-8.3 8.2-17.5 17.7-20.5 21-3 3.4-8.1 9.2-11.4 13-3.3 3.7-8.1 9.6-10.7 12.9-2.6 3.4-5.3 6.8-6 7.6-.7.8-3.2 4-5.6 7-2.3 3-4.6 5.9-5 6.5-.4.6-3.1 4.1-5.9 8-2.9 3.9-6 8.1-7.1 9.5-1 1.4-7 10.2-13.3 19.7-6.3 9.5-13 19.8-14.9 22.9-1.9 3.2-4.6 7.6-5.9 9.8-1.4 2.3-3.6 6.2-5 8.7-1.4 2.6-5.8 10.5-9.7 17.5-3.9 7.1-9.2 17.4-11.9 22.9-2.6 5.5-7.4 15.5-10.6 22.3-3.3 6.7-5.9 12.8-5.9 13.5 0 .6-.4 1.7-.9 2.2-.5.5-3.2 6.7-6 13.8-2.8 7-5.1 13.3-5.1 14 0 .6-.4 1.7-.9 2.2-.6.5-3.7 8.6-7 18s-7.5 22.2-9.5 28.5c-1.9 6.3-5.2 17.8-7.4 25.5-2.1 7.7-4.9 18.5-6.2 24-1.2 5.5-3 13.6-4 18s-2.2 9.8-2.5 12c-.4 2.2-1.1 6.3-1.6 9-.5 2.8-1.4 7.9-1.9 11.5-.6 3.6-1.5 9.2-1.9 12.5-.5 3.3-1.4 10.3-2.1 15.5-.6 5.2-1.6 13.8-2.1 19-.5 5.2-1.3 21.9-1.9 37-.8 19.9-.8 34.6 0 53.5.6 14.3 1.5 30.3 2 35.5.5 5.2 1.3 12.9 1.9 17 .5 4.1 1.5 10.4 2 14 .6 3.6 1.5 9.1 2.1 12.3.5 3.1 1.4 8.1 2 11 .5 2.8 1.4 7.2 2 9.7.6 2.5 1.4 6.5 1.9 9s1.8 7.9 2.9 12c1.1 4.1 3.2 11.8 4.7 17 1.4 5.2 4.7 15.8 7.2 23.5 2.5 7.7 6.7 19.6 9.3 26.5 2.6 6.9 7.3 18.3 10.4 25.5 3.1 7.2 6.5 14.8 7.6 17 1.1 2.2 2.4 4.7 2.8 5.5.5.8 1.9 3.5 3.1 6 1.2 2.5 4.6 9 7.6 14.5 2.9 5.5 8.2 15.1 11.9 21.3 3.6 6.1 7 11.8 7.6 12.5.5.6 5.1 7.5 10.2 15.2 5.1 7.7 12.9 18.7 17.3 24.4 4.4 5.8 12.7 16.1 18.4 23 5.8 6.9 21.3 23.4 34.5 36.6 13.3 13.2 30.9 29.7 39.1 36.5 8.2 6.9 17 14.1 19.5 16.1 2.5 2 9.2 7.1 15 11.5 5.8 4.4 11.8 8.8 13.4 9.9 1.6 1.1 3.9 2.7 5.1 3.5 1.2.8 8.9 6 17.1 11.4 8.2 5.5 22.3 14.4 31.4 19.8 9.1 5.4 17.4 10.1 18.5 10.4 1.1.4 2.7 1.2 3.5 1.9.8.7 10.3 5.8 21 11.2 10.7 5.4 23.3 11.6 28 13.8 4.7 2.1 12.1 5.4 16.5 7.2 4.4 1.9 14.7 6.1 23 9.5 8.2 3.3 19.3 7.6 24.5 9.5 5.2 1.9 19.4 6.8 31.5 10.8 12.1 4 30.1 9.7 40 12.5 9.9 2.9 22 6.2 27 7.5 5 1.3 9.9 2.6 11 2.9 1.1.3 4.9 1.2 8.5 2 3.6.8 11.2 2.6 17 3.9 5.8 1.4 13.2 3 16.5 3.7 3.3.6 7.8 1.5 10 2s6.6 1.3 9.7 1.9c3.2.6 8.4 1.6 11.5 2.1 3.2.6 7.8 1.5 10.3 2 2.5.4 8.1 1.4 12.5 2 4.4.6 9.1 1.3 10.5 1.6 1.4.3 5.7.9 9.5 1.4 3.8.5 10.8 1.4 15.5 2 4.7.6 12.8 1.5 18 2.1 5.2.5 14.2 1.4 20 1.9 5.8.4 21.1 1.4 34 2.1 12.9.8 32 1.4 42.5 1.4s30-.6 43.5-1.3c13.5-.7 29.7-1.7 36-2.2 6.3-.5 15.8-1.3 21-1.8 5.2-.6 10.2-1.3 11-1.6.8-.3 4.2-.8 7.5-1 3.3-.3 9.4-.9 13.5-1.5 4.1-.5 10.2-1.5 13.5-2 3.3-.6 8.7-1.6 12-2.1 3.3-.6 8.2-1.4 11-1.9 2.7-.4 8.6-1.6 13-2.5 4.4-.9 9.8-2.1 12-2.6 2.2-.5 8-1.9 13-3.1 5-1.1 16.9-4.3 26.5-7.1 9.6-2.7 24.9-7.4 34-10.5 9.1-3.1 23.3-8.3 31.5-11.5 8.2-3.3 16.3-6.6 18-7.3 1.7-.8 13.6-5.5 26.5-10.5 12.9-5.1 26.7-10.5 30.5-12 3.8-1.6 12.4-5.2 19-8s13.1-5.8 14.5-6.8c1.4-.9 4.3-2.3 6.5-2.9 2.2-.7 3.5-.9 3-.4s-4.4 2.7-8.5 4.9-10.9 5.8-15 8.1-12.7 7.3-19 11.2c-6.3 3.9-13.1 7.9-15 9-1.9 1.1-4.2 2.4-5 2.9-.8.5-6.7 3.7-13 7-6.3 3.4-15.1 7.6-19.5 9.5-4.4 1.8-12.7 5.4-18.5 7.8-5.8 2.5-16.3 6.6-23.5 9.2-7.2 2.6-19.3 6.7-27 9.1-7.7 2.5-18.3 5.6-23.5 7.1-5.2 1.4-12.2 3.2-15.5 4-3.3.8-9.6 2.2-14 3.3-4.4 1-10.7 2.3-14 3-3.3.6-7.8 1.5-10 2s-7.4 1.4-11.5 2c-4.1.7-8.2 1.4-9 1.7-.8.3-4.7.9-8.5 1.4-3.8.6-10.4 1.4-14.5 2-4.1.6-10.4 1.4-14 1.9-3.6.5-11.2 1.4-17 2-5.8.6-15.5 1.5-21.5 2s-20.5 1.4-32 2.2c-11.5.7-33.2 1.3-48 1.3-14.8-.1-36.5-.6-48-1.4-11.5-.7-25.7-1.6-31.5-2.1-5.8-.5-14.5-1.4-19.5-1.9-5-.6-12.8-1.5-17.5-2.1-4.7-.5-11.7-1.4-15.5-1.9-3.8-.6-10.2-1.5-14-2-3.8-.6-9.9-1.6-13.5-2.2-3.6-.6-8.8-1.4-11.5-1.9-2.8-.4-7.7-1.3-11-1.9-3.3-.7-8-1.6-10.5-2-2.5-.5-8.3-1.6-13-2.6-4.7-.9-12.3-2.5-17-3.6-4.7-1.1-10.3-2.4-12.5-2.9-2.2-.5-10.5-2.6-18.5-4.6-8-1.9-17.6-4.4-21.5-5.4-3.9-.9-13.2-3.6-20.8-5.9-7.5-2.2-14.4-4.1-15.2-4.1-.8 0-2.3-.5-3.3-1-.9-.6-10.5-4-21.2-7.6-10.7-3.6-20.9-6.8-22.5-7.1-1.6-.3-3.5-.9-4-1.4-.5-.4-4.6-2.1-9-3.7s-14.1-5.4-21.5-8.4c-7.4-3.1-20-8.5-28-12.1-8-3.5-21.3-9.8-29.5-13.8-8.3-4-17.7-8.9-21-10.7-3.3-1.9-9.1-5.1-13-7.2-3.9-2.1-13.8-7.8-22-12.8-8.3-4.9-20.6-12.7-27.5-17.3-6.9-4.7-15.2-10.4-18.5-12.8-3.3-2.4-11.2-8.3-17.5-13-6.3-4.7-16-12.3-21.5-16.8s-11.3-9.3-12.8-10.5c-1.5-1.3-6.9-6.1-12-10.8-5-4.7-14.3-13.5-20.5-19.5-6.3-6-16.7-16.8-23.1-23.8-6.4-7.1-14-15.8-16.9-19.5-3-3.7-6.8-8.3-8.6-10.2-1.7-1.9-6.3-7.8-10.2-13-3.9-5.2-8.6-11.7-10.5-14.4-1.9-2.7-5.5-7.9-8.2-11.5-2.6-3.6-5.4-7.9-6.1-9.6-.7-1.7-2-3.7-2.8-4.5-.7-.8-3.3-4.9-5.7-9-2.4-4.1-6.4-11.1-8.9-15.5s-8.3-15.3-12.8-24.2c-4.6-9-8.4-17-8.4-17.8 0-.8-.3-1.6-.8-1.7-.4-.2-2.2-3.9-4.1-8.3-1.8-4.4-5.5-13.4-8.1-20-2.6-6.6-6.6-17.2-8.8-23.5-2.2-6.3-5.4-16-7-21.5-1.7-5.5-4.4-14.7-6-20.5-1.6-5.8-3.4-12.5-4-15-.6-2.5-2-8.3-3.1-13-1-4.7-2.4-11.1-3-14.2-.6-3.2-1.6-8.4-2.2-11.5-.5-3.2-1.4-8-1.9-10.8-.5-2.7-1.2-7-1.5-9.5-.3-2.5-1.1-7.9-1.6-12-.6-4.1-1.4-12.2-1.9-18-.5-5.8-1.4-21.3-2-34.5-.7-16.8-.7-31.8 0-50 .6-14.3 1.5-30.5 2-36 .4-5.5 1.3-14 1.9-19 .6-5 1.6-12.4 2.1-16.5s1.4-10 2-13l2-12c.5-3.6 1.4-8.7 2-11.5.5-2.7 1.4-7 2-9.5.6-2.5 1.4-6.7 1.9-9.5.5-2.7 1.6-7.9 2.6-11.5.9-3.6 2.6-10.1 3.7-14.5s3.4-12.7 5-18.5c1.6-5.8 3.4-11.9 3.9-13.5.5-1.6 3.2-9.7 5.8-18 2.7-8.2 6.8-20.2 9.1-26.5 2.3-6.3 6.5-16.9 9.2-23.5 2.7-6.6 6.3-15.1 8-19 1.6-3.9 3.9-9 5-11.5s5.1-10.7 8.9-18.2c3.8-7.6 6.9-14.8 6.9-16 .1-1.3 1.6-4 3.5-6 1.9-2.1 3.5-4.3 3.5-4.8s2-4.5 4.3-8.7c2.4-4.3 8.2-14.3 12.9-22.3 4.7-8 12-19.7 16.2-26 4.2-6.3 7.6-11.9 7.6-12.5 0-.6.9-1.9 2.1-3 1.1-1.1 6.5-8.1 11.9-15.5s13.1-17.6 17.2-22.5c4-5 10.1-12.4 13.5-16.5 3.4-4.1 8.3-9.7 10.8-12.5 2.5-2.7 5.7-6.9 7.1-9.2 1.3-2.4 3.2-4.5 4.1-4.8 1-.2 8.5-7.3 16.8-15.6 8.2-8.3 20.2-19.7 26.5-25.2 6.3-5.6 14.7-12.7 18.5-15.9 3.9-3.1 8.8-7.2 10.9-9.2 2.2-2 4.3-3.6 4.8-3.6.4 0 2.8-1.7 5.3-3.7 2.4-2.1 5.9-4.9 7.7-6.3 1.8-1.4 5.5-4.1 8.3-6 2.9-1.9 11-7.4 18.1-12.1 7.1-4.7 15.4-10.2 18.4-12.1 3-1.9 8-4.9 11-6.6 3-1.6 9.8-5.4 15-8.4 5.2-2.9 15.1-8.1 22-11.5 6.9-3.4 17.2-8.2 23-10.8 5.8-2.5 13.6-5.9 17.5-7.5 3.9-1.5 9.9-3.9 13.5-5.3 3.6-1.4 12.6-4.6 20-7.2 7.4-2.5 14.9-5.1 16.5-5.6 1.6-.5 6.8-2 11.5-3.5 4.7-1.4 16.1-4.5 25.5-6.8 9.4-2.4 19.7-4.9 23-5.5 3.3-.7 8.9-2 12.5-2.8 3.6-.9 9.2-1.9 12.5-2.4 3.3-.4 8.7-1.3 12-1.9 3.3-.6 9.4-1.5 13.5-2.1 4.1-.6 10.9-1.5 15-2s11.8-1.3 17-1.8c5.2-.6 16.9-1.4 25.9-2 9-.5 16.7-1.2 17-1.6.3-.4 15-.4 32.6-.1zm-68.5 98c14.6.2 29.4.9 33 1.4 3.6.6 7.9 1.3 9.5 1.7 1.7.3 5 1.1 7.5 1.7 2.5.6 7.7 2.1 11.5 3.4 3.8 1.2 10.2 3.6 14 5.2 3.8 1.6 10.2 4.4 21 9.7l-4 .3c-2.2.2-6.5-.1-9.5-.8-3-.6-7.8-1.5-10.5-2-2.8-.5-7.9-1.4-11.5-2-3.6-.6-8.9-1.5-11.8-2-2.8-.6-7.6-1.4-10.5-2-2.8-.5-8.1-1.3-11.7-1.7-3.6-.4-19.8-.8-36-.8-16.4 0-34.4.6-40.5 1.3-6 .6-13.9 1.6-17.5 2.1-3.6.5-9 1.5-12 2.1-3 .7-7.3 1.6-9.5 2-2.2.4-7.6 1.7-12 3-4.4 1.2-9.6 2.6-11.5 3-1.9.5-10.3 3.2-18.5 6.1-8.3 2.8-21.3 7.8-29 11.1-7.7 3.3-15.6 6.8-17.5 7.8-1.9 1-9.4 4.7-16.5 8.3-7.1 3.5-17.5 9-23 12.2-5.5 3.2-13.4 7.8-17.5 10.3-4.1 2.5-12.2 7.7-17.9 11.6-5.7 3.9-11.3 7.8-12.5 8.6-1.1.8-6.8 4.9-12.6 9.1-5.8 4.2-15.9 12.1-22.6 17.5-6.6 5.5-16.5 13.8-22 18.5-5.4 4.7-12.3 11.1-15.2 14.2-2.8 3.2-5.6 5.7-6.1 5.7s-6.2 5.5-12.8 12.3c-6.5 6.7-15.2 15.8-19.3 20.3-4.1 4.4-9.8 10.7-12.6 14-2.9 3.2-7.1 8.3-9.5 11.3-2.4 2.9-5.2 6.5-6.1 8-1 1.4-2.3 3.1-3 3.6-.7.6-2.8 2.9-4.6 5.3-1.7 2.3-3.2 4.7-3.2 5.2s-.5 1-1 1-2.6 2.4-4.5 5.3c-2 2.8-5.8 8.1-8.5 11.7-2.7 3.6-9.2 13-14.6 21s-11.9 18.1-14.4 22.5c-2.6 4.4-7.1 12-10 17-2.9 5-7.8 14-10.9 20-3.2 6-7.9 15.7-10.5 21.5-2.7 5.8-6.1 13.2-7.7 16.5-1.5 3.3-5.1 11.9-8 19-2.8 7.1-7.5 20-10.4 28.5-2.9 8.5-6.6 20.2-8.3 26-1.6 5.8-3.8 14.1-5 18.5-1.1 4.4-2.5 10-3.1 12.5-.5 2.5-1.4 6.5-2 9-.5 2.5-1.5 7.4-2.1 11-.6 3.6-1.5 8.3-2 10.5-.5 2.2-1.2 6.5-1.5 9.5-.4 3-1.1 8.9-1.6 13s-1.4 14.5-2.1 23c-.7 8.5-1.2 24.5-1.3 35.5 0 11 .6 27.2 1.3 36 .7 8.8 1.4 18 1.7 20.5.3 2.5 1 7.5 1.5 11.3.6 3.7 1.5 9.7 2.1 13.5.5 3.7 1.4 8.5 1.9 10.7.4 2.2 1.4 6.7 2.1 10 .6 3.3 2.5 11.2 4.1 17.5 1.6 6.3 4.2 16 5.8 21.5 1.6 5.5 4.9 15.6 7.3 22.5 2.4 6.9 6.6 17.9 9.2 24.5 2.6 6.6 7.2 17.2 10.2 23.5 3 6.3 8.9 18 13.1 25.9 4.2 7.9 8.6 16 9.7 18 1.1 2 3.2 5.4 4.5 7.6 1.4 2.2 7 10.8 12.6 19 5.5 8.3 11.6 17 13.5 19.5 1.9 2.5 7.9 10.1 13.3 17 5.5 6.9 12.6 15.7 16 19.5 3.3 3.8 8 9.2 10.6 11.9 2.5 2.8 13.1 13.6 23.7 24 10.5 10.5 22.1 21.8 25.8 25.1 3.7 3.3 10.9 9.5 15.9 13.8 5 4.2 9.7 7.7 10.4 7.7.6 0 2.2 1.3 3.5 2.8 1.2 1.5 5.1 5 8.7 7.8 3.6 2.8 9.4 7.3 12.9 10 3.6 2.7 9.9 7.3 14 10.2 4.2 2.9 14.1 9.6 22.1 15 8 5.4 16.5 11 19 12.5s8.1 4.9 12.5 7.6c4.4 2.7 17.5 10.1 29 16.5 11.5 6.3 28.9 15.3 38.5 19.9 9.6 4.7 20.2 9.7 23.5 11.2 3.3 1.6 11.2 5 17.5 7.7 6.3 2.8 17.1 7.2 24 10 6.9 2.8 15 5.9 18 7 3 1.1 13.1 4.7 22.5 8 9.4 3.2 24.2 8.1 33 10.7 8.8 2.7 20.5 6.1 26 7.6 5.5 1.6 11.6 3.1 13.5 3.5 1.9.4 9.8 2.2 17.5 4 7.7 1.8 16 3.6 18.5 4.1 2.5.4 7.2 1.3 10.5 1.9 3.3.6 8.5 1.5 11.5 2.1 3 .5 8.8 1.4 12.8 1.9 3.9.6 10.7 1.5 14.9 2.1 4.3.5 11.6 1.4 16.3 1.9 4.7.5 17.7 1.4 29 2.2 11.3.7 30.4 1.3 42.5 1.3 12.1 0 31-.6 42-1.3 11-.7 23.8-1.7 28.5-2.2 4.7-.5 12.1-1.4 16.5-1.9 4.4-.6 10-1.3 12.5-1.6 2.5-.4 8.8-1.3 14-2.2 5.2-.8 10.4-1.9 11.5-2.5 1.1-.5 2.6-.7 3.2-.4.7.3 3 .2 5-.3 2.1-.5 6-1.4 8.8-1.9 2.7-.6 10.8-2.5 18-4.2 7.2-1.8 19.3-5 27-7.2 7.7-2.2 18.5-5.5 24-7.3 5.5-1.8 13.8-4.7 18.5-6.5 4.7-1.7 12.5-4.7 17.5-6.6 5-2 12.1-5 15.9-6.7 3.9-1.8 15.5-7.4 25.8-12.4 10.3-5.1 19-10 19.3-10.8.3-.8 1.4-1.5 2.5-1.5s4.4-1.3 7.2-2.8c2.9-1.6 8.9-5.1 13.3-7.7 4.4-2.6 16.3-10.4 26.5-17.2 10.2-6.8 20.1-13.5 22-14.9 1.9-1.4 5.5-4.3 8-6.5s4.8-4 5.2-3.9c.5 0 6.1-4.4 12.6-9.7 6.6-5.4 15.2-12.7 19.3-16.2 4.1-3.5 10.6-9.5 14.4-13.2 3.8-3.8 7.6-7.4 8.3-8.1.8-.7 6-5.8 11.6-11.3 5.6-5.5 12.4-12.5 15.1-15.6 2.8-3 7.7-8.6 11-12.4 3.3-3.7 6.5-7.3 7-7.9.5-.6 4.2-4.9 8.1-9.6 3.9-4.7 9.1-11.2 11.5-14.5 2.5-3.3 5.3-7.1 6.2-8.5.9-1.4 3.5-5 5.7-8s7.5-10.7 11.7-17c4.2-6.3 10.2-15.8 13.3-21 3.1-5.2 7.8-13.3 10.5-18 2.6-4.7 8.8-16.6 13.6-26.5 4.8-9.9 9.5-19.6 10.4-21.5 1-1.9 4.4-10.1 7.6-18.2 3.3-8.2 7.7-20.3 10-27 2.2-6.8 5.1-15.7 6.3-19.8 1.3-4.1 2.9-9.3 3.5-11.5.6-2.2 1.5-5.8 2-8s1.6-6.7 2.5-10c.9-3.3 2.6-10.5 3.8-16 1.1-5.5 2.4-12.2 2.9-15 .5-2.7 1.4-7.9 1.9-11.5.6-3.6 1.6-9.6 2.1-13.5.6-3.9 1.5-10.6 1.9-15 .5-4.4 1.5-16.5 2.2-27 .7-10.5 1.3-27.5 1.3-38-.1-10.5-.6-27.1-1.3-37-.7-9.9-1.7-21.8-2.2-26.5-.5-4.7-1.4-12.1-1.9-16.5-.6-4.4-1.5-10.5-2.1-13.5l-2-12c-.5-3.6-1.4-8.3-1.9-10.5-.5-2.2-1.2-5.6-1.6-7.5-.3-1.9-2.5-10.9-4.7-20s-5.5-21.5-7.4-27.5c-1.8-6-4.9-15.7-6.7-21.5-1.9-5.8-5.6-16.1-8.2-23-2.6-6.9-5.5-14.4-6.6-16.7-1-2.4-1.9-4.6-1.9-5 0-.5-4.6-10.5-10.2-22.3s-13.4-27.4-17.3-34.5c-4-7.1-9.4-16.8-12.2-21.5-2.8-4.7-7-11.6-9.3-15.5-2.4-3.9-8.7-13.5-14-21.5-5.3-8-14.8-21.2-21-29.5-6.2-8.2-16.1-20.9-22-28-5.9-7.1-13.1-15.4-15.9-18.2-2.8-2.9-5.1-5.7-5.1-6.3 0-.6-11.1-12.2-24.8-25.8-13.6-13.6-28.7-28.1-33.5-32.2-4.8-4.1-11.4-9.7-14.6-12.5-3.2-2.7-7.8-6.6-10.2-8.7-2.4-2-7.4-6-11.1-9-3.6-2.9-8.6-6.8-11-8.6-2.3-1.8-7.5-5.6-11.3-8.5-3.8-2.9-10-7.4-13.8-10-3.7-2.6-6.7-5.3-6.7-5.9 0-.7.8-3.2 1.8-5.6 1.4-3.7 2-4.3 3.9-3.8 1.3.3 6.8 3.9 12.2 7.9 5.5 3.9 15.9 11.8 23.3 17.4 7.3 5.6 18.3 14.2 24.3 19.3 6 5 14.3 12.1 18.4 15.8 4.1 3.7 11.5 10.5 16.5 15.1 5 4.7 15.8 15.2 24.1 23.6 8.2 8.3 18.3 18.9 22.4 23.5 4.1 4.7 8 8.9 8.6 9.5.7.6 6.3 7.3 12.7 15 6.3 7.7 16.9 21.2 23.5 30 6.6 8.8 15.6 21.4 20 28 4.4 6.6 10.7 16.3 14 21.5 3.3 5.2 7.7 12.2 9.7 15.5 2 3.3 4.4 7.4 5.3 9.2 1 1.8 3.8 6.7 6.1 11 2.4 4.3 8.2 15.4 12.9 24.8 4.7 9.4 9.6 19.7 11 23 1.3 3.3 3 7.4 3.8 9 .7 1.6 2.7 6.4 4.5 10.5 1.7 4.1 5 12.5 7.2 18.5s5.5 15.5 7.3 21c1.9 5.5 4.9 15.2 6.8 21.5 1.9 6.3 5.6 20 8.1 30.5s5 21 5.5 23.5 1.4 7.4 2.1 11c.6 3.6 1.5 8.8 2 11.5.5 2.8 1.3 8.1 1.9 12 .6 3.9 1.5 10.4 2.1 14.5.5 4.1 1.2 9.8 1.5 12.5.2 2.8 1 12.9 1.7 22.5s1.3 27 1.3 38.5-.6 29.1-1.3 39c-.7 9.9-1.7 21.4-2.2 25.5-.5 4.1-1.3 10.9-1.9 15-.6 4.1-1.5 10.6-2 14.5-.6 3.9-1.6 9.5-2.2 12.5-.6 3-1.4 7.3-1.9 9.5-.4 2.2-1.5 7.6-2.5 12-.9 4.4-3.2 13.8-5 21-1.9 7.2-4.7 17.3-6.3 22.5-1.7 5.2-5 15.3-7.5 22.5-2.5 7.2-6.3 17.5-8.5 23s-5.4 13.2-7 17c-1.6 3.8-7 15.3-12 25.5-4.9 10.2-11.3 22.4-14.1 27.3-2.8 4.8-5.1 8.9-5.1 9.2 0 .3-1.1 2.2-2.4 4.3-1.3 2-5.4 8.7-9.1 14.7-3.8 6-7.6 12.1-8.6 13.5-.9 1.4-5.2 7.5-9.5 13.5s-10.8 14.8-14.3 19.5c-3.6 4.7-11.3 14.3-17.1 21.5-5.7 7.2-14 16.8-18.5 21.5-4.4 4.7-14.3 14.8-22 22.5-7.7 7.7-17.8 17.6-22.5 22-4.7 4.4-11.4 10.4-15 13.3-3.6 2.9-10.8 8.8-16 13-5.2 4.2-10 8-10.5 8.4l-5.5 4.4c-2.5 2.1-6.8 5.2-9.5 7.1-2.8 1.8-8.4 5.8-12.5 8.8-4.1 3-8.6 6.2-10 7.1-1.4 1-4.1 2.7-6 4-1.9 1.2-10.3 6.2-18.5 11.1-8.3 5-18.2 10.7-22 12.8-3.8 2.1-14.2 7.4-23 11.8s-19.2 9.3-23 10.9c-3.8 1.7-13.1 5.4-20.5 8.4s-20.5 7.9-29 10.9c-8.5 2.9-21.8 7.1-29.5 9.3-7.7 2.2-19 5.2-25 6.7-6 1.4-13.7 3.2-17 4-3.3.7-8.7 1.8-12 2.5-3.3.6-7.6 1.5-9.5 2-1.9.4-6.9 1.3-11 1.9-4.1.6-10.5 1.6-14.3 2.1-3.7.6-9.7 1.4-13.4 2-3.8.5-9.5 1.2-12.8 1.6-3.3.3-10 1-15 1.4-5 .5-21.2 1.3-36 1.9-19.3.8-34.2.8-52.5.1-14-.6-30.2-1.5-36-2-5.8-.5-14.3-1.3-19-1.9-4.7-.5-11.9-1.5-16-2-4.1-.6-10.7-1.5-14.5-2.1-3.8-.7-9.3-1.5-12-2-2.7-.5-7-1.3-9.5-1.8s-8.1-1.7-12.5-2.6c-4.4-.9-9.8-2.1-12-2.6-2.2-.5-9.9-2.3-17-4.1-7.1-1.7-19.3-4.9-27-7.1-7.7-2.1-18.3-5.3-23.5-7-5.2-1.6-14.7-4.8-21-7-6.3-2.2-16.9-5.9-23.5-8.3-6.6-2.4-18.1-6.9-25.5-9.9-7.4-3-17.5-7.2-22.5-9.4-5-2.1-12.4-5.4-16.5-7.3-4.1-1.9-17.4-8.2-29.5-14.2-12.1-5.9-24.5-12.3-27.5-14.2-3-1.8-8.2-4.6-11.6-6.2-3.3-1.5-6.7-3.3-7.5-4-.8-.6-7.7-4.9-15.4-9.6-7.7-4.6-19.6-12-26.5-16.5-6.9-4.5-14.1-9.3-16-10.7-1.9-1.4-4.1-2.5-4.7-2.5-.7 0-1.3-.3-1.3-.7.1-.5-3.9-3.7-8.6-7.3-4.8-3.6-9.8-7.2-11-8-1.3-.8-8.9-6.9-16.9-13.5-8.1-6.6-15.9-12.9-17.5-14-1.5-1.1-6.9-5.8-12.1-10.5-5.1-4.7-14.5-13.4-20.9-19.4-6.3-6-17.3-17.1-24.4-24.5-7.1-7.5-17.4-19-23-25.6-5.5-6.5-11.2-13.4-12.6-15.1-1.4-1.8-5.4-7-9-11.5-3.6-4.6-8.4-11-10.8-14.3-2.3-3.4-8.5-12.4-13.7-20.1-5.2-7.7-9.5-14.5-9.5-15s-1.1-2.6-2.3-4.5c-1.3-1.9-4.1-6.4-6.2-10-2.2-3.6-7.8-14.4-12.6-24s-11.3-23.8-14.4-31.5c-3.2-7.7-7.4-18.7-9.5-24.5-2.1-5.8-5.6-16.6-7.8-24-2.3-7.4-5.4-18.7-7-25-1.6-6.3-3.4-14.2-4.1-17.5-.7-3.3-1.6-7.6-2.1-9.5-.5-1.9-1.4-6.6-2-10.5-.6-3.9-1.5-8.9-2-11.2-.6-2.4-1-6.3-1-8.8 0-2.5-.4-5.6-1-7-.6-1.4-1.3-6.9-1.7-12.2-.4-5.4-.7-26.2-.7-46.3 0-20.1.3-40.9.7-46.3.4-5.3 1.1-10.8 1.7-12.2.6-1.4 1-4.5 1-7s.4-6.4 1-8.8c.5-2.3 1.4-7.3 2-11.2.6-3.9 1.5-8.8 2-11 .4-2.2 1.4-6.7 2.1-10 .6-3.3 2.5-11.2 4.1-17.5 1.6-6.3 4.3-16.2 5.9-22 1.7-5.8 4.2-14.1 5.6-18.5 1.4-4.4 5.2-15 8.4-23.5s7.3-19.3 9.2-24c1.9-4.7 5.4-12.5 7.7-17.5s7.9-16.4 12.4-25.5c4.5-9.1 11.5-22.1 15.5-29 4.1-6.9 10.9-18.1 15.2-25 4.2-6.9 11.3-17.7 15.7-24 4.5-6.3 9.6-13.7 11.4-16.3 1.8-2.6 4-5.5 4.8-6.4.8-.9 3.5-4.4 6-7.7 2.5-3.4 5.2-7 6.2-8.1.9-1.1 5.1-6.3 9.5-11.5 4.3-5.2 8.9-10.9 10.1-12.5 1.3-1.6 6.9-7.9 12.5-14s14.6-15.5 19.9-21c5.4-5.5 9.8-10.4 9.8-11 0-.6 1.5-1.8 3.2-2.8 1.8-1 8.1-6.4 13.9-12 5.9-5.6 16.2-14.7 23-20.2 6.8-5.5 13.6-11.2 15.1-12.8 1.5-1.5 3.1-2.7 3.5-2.7.5 0 3.3-2.1 6.3-4.6 3-2.5 6.6-5.4 8-6.5 1.4-1.1 4-3 5.8-4.2 1.8-1.2 9.2-6.2 16.5-11.1 7.3-4.9 14.3-9.6 15.7-10.6 1.4-.9 6.5-4.2 11.5-7.2s14.4-8.5 21-12.1c6.6-3.6 19-9.9 27.5-14.1 8.5-4.1 21.8-10 29.5-13.1 7.7-3.2 18.5-7.3 24-9.2 5.5-1.9 13.1-4.4 17-5.5 3.9-1.1 7.4-2.4 8-2.9.5-.5 2.1-.9 3.5-.9 1.5 0 3-.3 3.4-.8.4-.4 1.7-.8 2.9-.8 1.2-.1 6.5-1.1 11.7-2.3 5.2-1.2 12.2-2.7 15.5-3.2 3.3-.6 8.7-1.5 12-2 3.3-.5 11.1-1.3 17.4-1.7 6.2-.5 11.6-1.2 11.9-1.6.4-.4 12.6-.5 27.2-.2z" style="fill:#ff6001"/>
</svg>
